G04 #@! TF.FileFunction,Legend,Top*
%FSLAX46Y46*%
G04 Gerber Fmt 4.6, Leading zero omitted, Abs format (unit mm)*
G04 Created by KiCad (PCBNEW 4.0.5+dfsg1-4+deb9u1) date Sun Sep  4 20:08:20 2022*
%MOMM*%
%LPD*%
G01*
G04 APERTURE LIST*
%ADD10C,0.100000*%
%ADD11C,0.304800*%
%ADD12C,0.381000*%
%ADD13C,0.203200*%
%ADD14C,0.254000*%
%ADD15C,0.285750*%
%ADD16C,0.287020*%
%ADD17C,0.271780*%
%ADD18C,0.269240*%
G04 APERTURE END LIST*
D10*
D11*
X187706000Y-80264000D02*
X187706000Y-87376000D01*
X187706000Y-87376000D02*
X185674000Y-87376000D01*
X185674000Y-87376000D02*
X185674000Y-80264000D01*
X185674000Y-80264000D02*
X187706000Y-80264000D01*
X187198000Y-80264000D02*
X187706000Y-80772000D01*
X187706000Y-95504000D02*
X187706000Y-102616000D01*
X187706000Y-102616000D02*
X185674000Y-102616000D01*
X185674000Y-102616000D02*
X185674000Y-95504000D01*
X185674000Y-95504000D02*
X187706000Y-95504000D01*
X187198000Y-95504000D02*
X187706000Y-96012000D01*
X187706000Y-110744000D02*
X187706000Y-117856000D01*
X187706000Y-117856000D02*
X185674000Y-117856000D01*
X185674000Y-117856000D02*
X185674000Y-110744000D01*
X185674000Y-110744000D02*
X187706000Y-110744000D01*
X187198000Y-110744000D02*
X187706000Y-111252000D01*
X166370000Y-122682000D02*
X182880000Y-122682000D01*
X182880000Y-122682000D02*
X182880000Y-112522000D01*
X182880000Y-112522000D02*
X166370000Y-112522000D01*
X166370000Y-112522000D02*
X166370000Y-122682000D01*
X166370000Y-121412000D02*
X165100000Y-121412000D01*
X165100000Y-121412000D02*
X165100000Y-118872000D01*
X165100000Y-118872000D02*
X166370000Y-118872000D01*
X165100000Y-120142000D02*
X163830000Y-120142000D01*
X166370000Y-115062000D02*
X163830000Y-115062000D01*
X134620000Y-119380000D02*
X134620000Y-120650000D01*
X134620000Y-120650000D02*
X133350000Y-120650000D01*
X133350000Y-120650000D02*
X133350000Y-130810000D01*
X133350000Y-130810000D02*
X134620000Y-130810000D01*
X134620000Y-130810000D02*
X134620000Y-132080000D01*
X134620000Y-130810000D02*
X135890000Y-130810000D01*
X135890000Y-130810000D02*
X135890000Y-120650000D01*
X135890000Y-120650000D02*
X134620000Y-120650000D01*
X133350000Y-121920000D02*
X135890000Y-121920000D01*
X133350000Y-121666000D02*
X135890000Y-121666000D01*
X130810000Y-119380000D02*
X130810000Y-120650000D01*
X130810000Y-120650000D02*
X129540000Y-120650000D01*
X129540000Y-120650000D02*
X129540000Y-130810000D01*
X129540000Y-130810000D02*
X130810000Y-130810000D01*
X130810000Y-130810000D02*
X130810000Y-132080000D01*
X130810000Y-130810000D02*
X132080000Y-130810000D01*
X132080000Y-130810000D02*
X132080000Y-120650000D01*
X132080000Y-120650000D02*
X130810000Y-120650000D01*
X129540000Y-121920000D02*
X132080000Y-121920000D01*
X129540000Y-121666000D02*
X132080000Y-121666000D01*
X138430000Y-119380000D02*
X138430000Y-120650000D01*
X138430000Y-120650000D02*
X137160000Y-120650000D01*
X137160000Y-120650000D02*
X137160000Y-130810000D01*
X137160000Y-130810000D02*
X138430000Y-130810000D01*
X138430000Y-130810000D02*
X138430000Y-132080000D01*
X138430000Y-130810000D02*
X139700000Y-130810000D01*
X139700000Y-130810000D02*
X139700000Y-120650000D01*
X139700000Y-120650000D02*
X138430000Y-120650000D01*
X137160000Y-121920000D02*
X139700000Y-121920000D01*
X137160000Y-121666000D02*
X139700000Y-121666000D01*
X107950000Y-119380000D02*
X107950000Y-120650000D01*
X107950000Y-120650000D02*
X106680000Y-120650000D01*
X106680000Y-120650000D02*
X106680000Y-130810000D01*
X106680000Y-130810000D02*
X107950000Y-130810000D01*
X107950000Y-130810000D02*
X107950000Y-132080000D01*
X107950000Y-130810000D02*
X109220000Y-130810000D01*
X109220000Y-130810000D02*
X109220000Y-120650000D01*
X109220000Y-120650000D02*
X107950000Y-120650000D01*
X106680000Y-121920000D02*
X109220000Y-121920000D01*
X106680000Y-121666000D02*
X109220000Y-121666000D01*
X127000000Y-119380000D02*
X127000000Y-120650000D01*
X127000000Y-120650000D02*
X125730000Y-120650000D01*
X125730000Y-120650000D02*
X125730000Y-130810000D01*
X125730000Y-130810000D02*
X127000000Y-130810000D01*
X127000000Y-130810000D02*
X127000000Y-132080000D01*
X127000000Y-130810000D02*
X128270000Y-130810000D01*
X128270000Y-130810000D02*
X128270000Y-120650000D01*
X128270000Y-120650000D02*
X127000000Y-120650000D01*
X125730000Y-121920000D02*
X128270000Y-121920000D01*
X125730000Y-121666000D02*
X128270000Y-121666000D01*
X104140000Y-119380000D02*
X104140000Y-120650000D01*
X104140000Y-120650000D02*
X102870000Y-120650000D01*
X102870000Y-120650000D02*
X102870000Y-130810000D01*
X102870000Y-130810000D02*
X104140000Y-130810000D01*
X104140000Y-130810000D02*
X104140000Y-132080000D01*
X104140000Y-130810000D02*
X105410000Y-130810000D01*
X105410000Y-130810000D02*
X105410000Y-120650000D01*
X105410000Y-120650000D02*
X104140000Y-120650000D01*
X102870000Y-121920000D02*
X105410000Y-121920000D01*
X102870000Y-121666000D02*
X105410000Y-121666000D01*
X115570000Y-119380000D02*
X115570000Y-120650000D01*
X115570000Y-120650000D02*
X114300000Y-120650000D01*
X114300000Y-120650000D02*
X114300000Y-130810000D01*
X114300000Y-130810000D02*
X115570000Y-130810000D01*
X115570000Y-130810000D02*
X115570000Y-132080000D01*
X115570000Y-130810000D02*
X116840000Y-130810000D01*
X116840000Y-130810000D02*
X116840000Y-120650000D01*
X116840000Y-120650000D02*
X115570000Y-120650000D01*
X114300000Y-121920000D02*
X116840000Y-121920000D01*
X114300000Y-121666000D02*
X116840000Y-121666000D01*
X96520000Y-119380000D02*
X96520000Y-120650000D01*
X96520000Y-120650000D02*
X95250000Y-120650000D01*
X95250000Y-120650000D02*
X95250000Y-130810000D01*
X95250000Y-130810000D02*
X96520000Y-130810000D01*
X96520000Y-130810000D02*
X96520000Y-132080000D01*
X96520000Y-130810000D02*
X97790000Y-130810000D01*
X97790000Y-130810000D02*
X97790000Y-120650000D01*
X97790000Y-120650000D02*
X96520000Y-120650000D01*
X95250000Y-121920000D02*
X97790000Y-121920000D01*
X95250000Y-121666000D02*
X97790000Y-121666000D01*
X111760000Y-119380000D02*
X111760000Y-120650000D01*
X111760000Y-120650000D02*
X110490000Y-120650000D01*
X110490000Y-120650000D02*
X110490000Y-130810000D01*
X110490000Y-130810000D02*
X111760000Y-130810000D01*
X111760000Y-130810000D02*
X111760000Y-132080000D01*
X111760000Y-130810000D02*
X113030000Y-130810000D01*
X113030000Y-130810000D02*
X113030000Y-120650000D01*
X113030000Y-120650000D02*
X111760000Y-120650000D01*
X110490000Y-121920000D02*
X113030000Y-121920000D01*
X110490000Y-121666000D02*
X113030000Y-121666000D01*
X100330000Y-119380000D02*
X100330000Y-120650000D01*
X100330000Y-120650000D02*
X99060000Y-120650000D01*
X99060000Y-120650000D02*
X99060000Y-130810000D01*
X99060000Y-130810000D02*
X100330000Y-130810000D01*
X100330000Y-130810000D02*
X100330000Y-132080000D01*
X100330000Y-130810000D02*
X101600000Y-130810000D01*
X101600000Y-130810000D02*
X101600000Y-120650000D01*
X101600000Y-120650000D02*
X100330000Y-120650000D01*
X99060000Y-121920000D02*
X101600000Y-121920000D01*
X99060000Y-121666000D02*
X101600000Y-121666000D01*
X119380000Y-119380000D02*
X119380000Y-120650000D01*
X119380000Y-120650000D02*
X118110000Y-120650000D01*
X118110000Y-120650000D02*
X118110000Y-130810000D01*
X118110000Y-130810000D02*
X119380000Y-130810000D01*
X119380000Y-130810000D02*
X119380000Y-132080000D01*
X119380000Y-130810000D02*
X120650000Y-130810000D01*
X120650000Y-130810000D02*
X120650000Y-120650000D01*
X120650000Y-120650000D02*
X119380000Y-120650000D01*
X118110000Y-121920000D02*
X120650000Y-121920000D01*
X118110000Y-121666000D02*
X120650000Y-121666000D01*
X88900000Y-119380000D02*
X88900000Y-120650000D01*
X88900000Y-120650000D02*
X87630000Y-120650000D01*
X87630000Y-120650000D02*
X87630000Y-130810000D01*
X87630000Y-130810000D02*
X88900000Y-130810000D01*
X88900000Y-130810000D02*
X88900000Y-132080000D01*
X88900000Y-130810000D02*
X90170000Y-130810000D01*
X90170000Y-130810000D02*
X90170000Y-120650000D01*
X90170000Y-120650000D02*
X88900000Y-120650000D01*
X87630000Y-121920000D02*
X90170000Y-121920000D01*
X87630000Y-121666000D02*
X90170000Y-121666000D01*
X92710000Y-119380000D02*
X92710000Y-120650000D01*
X92710000Y-120650000D02*
X91440000Y-120650000D01*
X91440000Y-120650000D02*
X91440000Y-130810000D01*
X91440000Y-130810000D02*
X92710000Y-130810000D01*
X92710000Y-130810000D02*
X92710000Y-132080000D01*
X92710000Y-130810000D02*
X93980000Y-130810000D01*
X93980000Y-130810000D02*
X93980000Y-120650000D01*
X93980000Y-120650000D02*
X92710000Y-120650000D01*
X91440000Y-121920000D02*
X93980000Y-121920000D01*
X91440000Y-121666000D02*
X93980000Y-121666000D01*
X123190000Y-119380000D02*
X123190000Y-120650000D01*
X123190000Y-120650000D02*
X121920000Y-120650000D01*
X121920000Y-120650000D02*
X121920000Y-130810000D01*
X121920000Y-130810000D02*
X123190000Y-130810000D01*
X123190000Y-130810000D02*
X123190000Y-132080000D01*
X123190000Y-130810000D02*
X124460000Y-130810000D01*
X124460000Y-130810000D02*
X124460000Y-120650000D01*
X124460000Y-120650000D02*
X123190000Y-120650000D01*
X121920000Y-121920000D02*
X124460000Y-121920000D01*
X121920000Y-121666000D02*
X124460000Y-121666000D01*
X139700000Y-96520000D02*
X140970000Y-96520000D01*
X140970000Y-96520000D02*
X140970000Y-97790000D01*
X140970000Y-97790000D02*
X151130000Y-97790000D01*
X151130000Y-97790000D02*
X151130000Y-96520000D01*
X151130000Y-96520000D02*
X152400000Y-96520000D01*
X151130000Y-96520000D02*
X151130000Y-95250000D01*
X151130000Y-95250000D02*
X140970000Y-95250000D01*
X140970000Y-95250000D02*
X140970000Y-96520000D01*
X142240000Y-97790000D02*
X142240000Y-95250000D01*
X141986000Y-97790000D02*
X141986000Y-95250000D01*
D12*
X217170000Y-116840000D02*
X196850000Y-116840000D01*
X196850000Y-111760000D02*
X217170000Y-111760000D01*
X217170000Y-111760000D02*
X217170000Y-116840000D01*
X217170000Y-115570000D02*
X215900000Y-115570000D01*
X215900000Y-115570000D02*
X215900000Y-113030000D01*
X215900000Y-113030000D02*
X217170000Y-113030000D01*
X196850000Y-116840000D02*
X196850000Y-111760000D01*
X217170000Y-100330000D02*
X217170000Y-100330000D01*
X217170000Y-100330000D02*
X215900000Y-100330000D01*
X215900000Y-100330000D02*
X215900000Y-97790000D01*
X215900000Y-97790000D02*
X217170000Y-97790000D01*
X217170000Y-101600000D02*
X194310000Y-101600000D01*
X194310000Y-101600000D02*
X194310000Y-96520000D01*
X194310000Y-96520000D02*
X217170000Y-96520000D01*
X217170000Y-96520000D02*
X217170000Y-101600000D01*
X217170000Y-85090000D02*
X215900000Y-85090000D01*
X215900000Y-85090000D02*
X215900000Y-82550000D01*
X215900000Y-82550000D02*
X217170000Y-82550000D01*
X217170000Y-86360000D02*
X189230000Y-86360000D01*
X189230000Y-86360000D02*
X189230000Y-81280000D01*
X189230000Y-81280000D02*
X217170000Y-81280000D01*
X217170000Y-81280000D02*
X217170000Y-86360000D01*
D11*
X152400000Y-82550000D02*
X139700000Y-82550000D01*
X139700000Y-82550000D02*
X139700000Y-80010000D01*
X139700000Y-80010000D02*
X152400000Y-80010000D01*
X139700000Y-81280000D02*
X138430000Y-81280000D01*
X153670000Y-81280000D02*
X152400000Y-81280000D01*
X152400000Y-81788000D02*
X151638000Y-82550000D01*
X152400000Y-82550000D02*
X152400000Y-80010000D01*
X139700000Y-85090000D02*
X152400000Y-85090000D01*
X152400000Y-85090000D02*
X152400000Y-87630000D01*
X152400000Y-87630000D02*
X139700000Y-87630000D01*
X152400000Y-86360000D02*
X153670000Y-86360000D01*
X138430000Y-86360000D02*
X139700000Y-86360000D01*
X139700000Y-85852000D02*
X140462000Y-85090000D01*
X139700000Y-85090000D02*
X139700000Y-87630000D01*
X139700000Y-90170000D02*
X152400000Y-90170000D01*
X152400000Y-90170000D02*
X152400000Y-92710000D01*
X152400000Y-92710000D02*
X139700000Y-92710000D01*
X152400000Y-91440000D02*
X153670000Y-91440000D01*
X138430000Y-91440000D02*
X139700000Y-91440000D01*
X139700000Y-90932000D02*
X140462000Y-90170000D01*
X139700000Y-90170000D02*
X139700000Y-92710000D01*
X180340000Y-111760000D02*
X167640000Y-111760000D01*
X167640000Y-111760000D02*
X167640000Y-109220000D01*
X167640000Y-109220000D02*
X180340000Y-109220000D01*
X167640000Y-110490000D02*
X166370000Y-110490000D01*
X181610000Y-110490000D02*
X180340000Y-110490000D01*
X180340000Y-110998000D02*
X179578000Y-111760000D01*
X180340000Y-111760000D02*
X180340000Y-109220000D01*
X180340000Y-105410000D02*
X167640000Y-105410000D01*
X167640000Y-105410000D02*
X167640000Y-102870000D01*
X167640000Y-102870000D02*
X180340000Y-102870000D01*
X167640000Y-104140000D02*
X166370000Y-104140000D01*
X181610000Y-104140000D02*
X180340000Y-104140000D01*
X180340000Y-104648000D02*
X179578000Y-105410000D01*
X180340000Y-105410000D02*
X180340000Y-102870000D01*
X180340000Y-77470000D02*
X167640000Y-77470000D01*
X167640000Y-77470000D02*
X167640000Y-74930000D01*
X167640000Y-74930000D02*
X180340000Y-74930000D01*
X167640000Y-76200000D02*
X166370000Y-76200000D01*
X181610000Y-76200000D02*
X180340000Y-76200000D01*
X180340000Y-76708000D02*
X179578000Y-77470000D01*
X180340000Y-77470000D02*
X180340000Y-74930000D01*
X139700000Y-74930000D02*
X152400000Y-74930000D01*
X152400000Y-74930000D02*
X152400000Y-77470000D01*
X152400000Y-77470000D02*
X139700000Y-77470000D01*
X152400000Y-76200000D02*
X153670000Y-76200000D01*
X138430000Y-76200000D02*
X139700000Y-76200000D01*
X139700000Y-75692000D02*
X140462000Y-74930000D01*
X139700000Y-74930000D02*
X139700000Y-77470000D01*
X180340000Y-83820000D02*
X167640000Y-83820000D01*
X167640000Y-83820000D02*
X167640000Y-81280000D01*
X167640000Y-81280000D02*
X180340000Y-81280000D01*
X167640000Y-82550000D02*
X166370000Y-82550000D01*
X181610000Y-82550000D02*
X180340000Y-82550000D01*
X180340000Y-83058000D02*
X179578000Y-83820000D01*
X180340000Y-83820000D02*
X180340000Y-81280000D01*
X139700000Y-105410000D02*
X137160000Y-105410000D01*
X137160000Y-105410000D02*
X137160000Y-100330000D01*
X137160000Y-100330000D02*
X139700000Y-100330000D01*
X139700000Y-100330000D02*
X139700000Y-105410000D01*
X137160000Y-107950000D02*
X139700000Y-107950000D01*
X139700000Y-107950000D02*
X139700000Y-115570000D01*
X139700000Y-115570000D02*
X137160000Y-115570000D01*
X137160000Y-115570000D02*
X137160000Y-107950000D01*
X139700000Y-110490000D02*
X137160000Y-110490000D01*
D13*
X128778000Y-92710000D02*
G75*
G03X128778000Y-92710000I-3048000J0D01*
G01*
D11*
X123063000Y-91186000D02*
X122301000Y-90678000D01*
X122301000Y-90678000D02*
X122682000Y-90170000D01*
X122682000Y-90170000D02*
X123444000Y-90678000D01*
D13*
X105918000Y-86360000D02*
G75*
G03X105918000Y-86360000I-3048000J0D01*
G01*
D11*
X100203000Y-84836000D02*
X99441000Y-84328000D01*
X99441000Y-84328000D02*
X99822000Y-83820000D01*
X99822000Y-83820000D02*
X100584000Y-84328000D01*
D13*
X132588000Y-86360000D02*
G75*
G03X132588000Y-86360000I-3048000J0D01*
G01*
D11*
X126873000Y-84836000D02*
X126111000Y-84328000D01*
X126111000Y-84328000D02*
X126492000Y-83820000D01*
X126492000Y-83820000D02*
X127254000Y-84328000D01*
D13*
X114808000Y-86360000D02*
G75*
G03X114808000Y-86360000I-3048000J0D01*
G01*
D11*
X109093000Y-84836000D02*
X108331000Y-84328000D01*
X108331000Y-84328000D02*
X108712000Y-83820000D01*
X108712000Y-83820000D02*
X109474000Y-84328000D01*
D13*
X100838000Y-80010000D02*
G75*
G03X100838000Y-80010000I-3048000J0D01*
G01*
D11*
X95123000Y-78486000D02*
X94361000Y-77978000D01*
X94361000Y-77978000D02*
X94742000Y-77470000D01*
X94742000Y-77470000D02*
X95504000Y-77978000D01*
D13*
X123698000Y-86360000D02*
G75*
G03X123698000Y-86360000I-3048000J0D01*
G01*
D11*
X117983000Y-84836000D02*
X117221000Y-84328000D01*
X117221000Y-84328000D02*
X117602000Y-83820000D01*
X117602000Y-83820000D02*
X118364000Y-84328000D01*
D13*
X110998000Y-92710000D02*
G75*
G03X110998000Y-92710000I-3048000J0D01*
G01*
D11*
X105283000Y-91186000D02*
X104521000Y-90678000D01*
X104521000Y-90678000D02*
X104902000Y-90170000D01*
X104902000Y-90170000D02*
X105664000Y-90678000D01*
D13*
X127508000Y-80010000D02*
G75*
G03X127508000Y-80010000I-3048000J0D01*
G01*
D11*
X121793000Y-78486000D02*
X121031000Y-77978000D01*
X121031000Y-77978000D02*
X121412000Y-77470000D01*
X121412000Y-77470000D02*
X122174000Y-77978000D01*
D13*
X119888000Y-92710000D02*
G75*
G03X119888000Y-92710000I-3048000J0D01*
G01*
D11*
X114173000Y-91186000D02*
X113411000Y-90678000D01*
X113411000Y-90678000D02*
X113792000Y-90170000D01*
X113792000Y-90170000D02*
X114554000Y-90678000D01*
D13*
X102108000Y-92710000D02*
G75*
G03X102108000Y-92710000I-3048000J0D01*
G01*
D11*
X96393000Y-91186000D02*
X95631000Y-90678000D01*
X95631000Y-90678000D02*
X96012000Y-90170000D01*
X96012000Y-90170000D02*
X96774000Y-90678000D01*
D13*
X97028000Y-86360000D02*
G75*
G03X97028000Y-86360000I-3048000J0D01*
G01*
D11*
X91313000Y-84836000D02*
X90551000Y-84328000D01*
X90551000Y-84328000D02*
X90932000Y-83820000D01*
X90932000Y-83820000D02*
X91694000Y-84328000D01*
D13*
X91948000Y-80010000D02*
G75*
G03X91948000Y-80010000I-3048000J0D01*
G01*
D11*
X86233000Y-78486000D02*
X85471000Y-77978000D01*
X85471000Y-77978000D02*
X85852000Y-77470000D01*
X85852000Y-77470000D02*
X86614000Y-77978000D01*
D13*
X149098000Y-102870000D02*
G75*
G03X149098000Y-102870000I-3048000J0D01*
G01*
D11*
X147574000Y-100203000D02*
X148082000Y-99441000D01*
X148082000Y-99441000D02*
X148590000Y-99822000D01*
X148590000Y-99822000D02*
X148082000Y-100584000D01*
D13*
X118618000Y-80010000D02*
G75*
G03X118618000Y-80010000I-3048000J0D01*
G01*
D11*
X112903000Y-78486000D02*
X112141000Y-77978000D01*
X112141000Y-77978000D02*
X112522000Y-77470000D01*
X112522000Y-77470000D02*
X113284000Y-77978000D01*
D13*
X109728000Y-80010000D02*
G75*
G03X109728000Y-80010000I-3048000J0D01*
G01*
D11*
X104013000Y-78486000D02*
X103251000Y-77978000D01*
X103251000Y-77978000D02*
X103632000Y-77470000D01*
X103632000Y-77470000D02*
X104394000Y-77978000D01*
X86995000Y-69850000D02*
X122555000Y-69850000D01*
X122555000Y-69850000D02*
X122555000Y-72390000D01*
X122555000Y-72390000D02*
X86995000Y-72390000D01*
X86995000Y-72390000D02*
X86995000Y-69850000D01*
X150495000Y-69850000D02*
X150495000Y-72390000D01*
X150495000Y-72390000D02*
X145415000Y-72390000D01*
X145415000Y-72390000D02*
X145415000Y-69850000D01*
X145415000Y-69850000D02*
X150495000Y-69850000D01*
X193040000Y-69850000D02*
X213360000Y-69850000D01*
X213360000Y-69850000D02*
X213360000Y-72390000D01*
X213360000Y-72390000D02*
X193040000Y-72390000D01*
X193040000Y-72390000D02*
X193040000Y-69850000D01*
X195580000Y-72390000D02*
X195580000Y-69850000D01*
X184150000Y-72390000D02*
X184150000Y-69850000D01*
X184150000Y-69850000D02*
X189230000Y-69850000D01*
X189230000Y-69850000D02*
X189230000Y-72390000D01*
X189230000Y-72390000D02*
X184150000Y-72390000D01*
X158750000Y-69850000D02*
X158750000Y-72390000D01*
X158750000Y-72390000D02*
X153670000Y-72390000D01*
X153670000Y-72390000D02*
X153670000Y-69850000D01*
X153670000Y-69850000D02*
X158750000Y-69850000D01*
X157480000Y-100330000D02*
X161290000Y-104140000D01*
X161290000Y-104140000D02*
X162560000Y-104140000D01*
X162560000Y-104140000D02*
X163830000Y-102870000D01*
X163830000Y-102870000D02*
X163830000Y-100330000D01*
X163830000Y-100330000D02*
X161290000Y-97790000D01*
X161290000Y-97790000D02*
X158750000Y-97790000D01*
X158750000Y-97790000D02*
X157480000Y-99060000D01*
X157480000Y-99060000D02*
X157480000Y-100330000D01*
X157480000Y-107950000D02*
X161290000Y-111760000D01*
X161290000Y-111760000D02*
X162560000Y-111760000D01*
X162560000Y-111760000D02*
X163830000Y-110490000D01*
X163830000Y-110490000D02*
X163830000Y-107950000D01*
X163830000Y-107950000D02*
X161290000Y-105410000D01*
X161290000Y-105410000D02*
X158750000Y-105410000D01*
X158750000Y-105410000D02*
X157480000Y-106680000D01*
X157480000Y-106680000D02*
X157480000Y-107950000D01*
X157480000Y-85090000D02*
X161290000Y-88900000D01*
X161290000Y-88900000D02*
X162560000Y-88900000D01*
X162560000Y-88900000D02*
X163830000Y-87630000D01*
X163830000Y-87630000D02*
X163830000Y-85090000D01*
X163830000Y-85090000D02*
X161290000Y-82550000D01*
X161290000Y-82550000D02*
X158750000Y-82550000D01*
X158750000Y-82550000D02*
X157480000Y-83820000D01*
X157480000Y-83820000D02*
X157480000Y-85090000D01*
X157480000Y-92710000D02*
X161290000Y-96520000D01*
X161290000Y-96520000D02*
X162560000Y-96520000D01*
X162560000Y-96520000D02*
X163830000Y-95250000D01*
X163830000Y-95250000D02*
X163830000Y-92710000D01*
X163830000Y-92710000D02*
X161290000Y-90170000D01*
X161290000Y-90170000D02*
X158750000Y-90170000D01*
X158750000Y-90170000D02*
X157480000Y-91440000D01*
X157480000Y-91440000D02*
X157480000Y-92710000D01*
X157480000Y-77470000D02*
X161290000Y-81280000D01*
X161290000Y-81280000D02*
X162560000Y-81280000D01*
X162560000Y-81280000D02*
X163830000Y-80010000D01*
X163830000Y-80010000D02*
X163830000Y-77470000D01*
X163830000Y-77470000D02*
X161290000Y-74930000D01*
X161290000Y-74930000D02*
X158750000Y-74930000D01*
X158750000Y-74930000D02*
X157480000Y-76200000D01*
X157480000Y-76200000D02*
X157480000Y-77470000D01*
X113030000Y-101600000D02*
X113030000Y-114300000D01*
X113030000Y-114300000D02*
X110490000Y-114300000D01*
X110490000Y-114300000D02*
X110490000Y-101600000D01*
X111760000Y-114300000D02*
X111760000Y-115570000D01*
X111760000Y-100330000D02*
X111760000Y-101600000D01*
X112268000Y-101600000D02*
X113030000Y-102362000D01*
X113030000Y-101600000D02*
X110490000Y-101600000D01*
X87630000Y-114300000D02*
X87630000Y-101600000D01*
X87630000Y-101600000D02*
X90170000Y-101600000D01*
X90170000Y-101600000D02*
X90170000Y-114300000D01*
X88900000Y-101600000D02*
X88900000Y-100330000D01*
X88900000Y-115570000D02*
X88900000Y-114300000D01*
X88392000Y-114300000D02*
X87630000Y-113538000D01*
X87630000Y-114300000D02*
X90170000Y-114300000D01*
X180340000Y-90170000D02*
X167640000Y-90170000D01*
X167640000Y-90170000D02*
X167640000Y-87630000D01*
X167640000Y-87630000D02*
X180340000Y-87630000D01*
X167640000Y-88900000D02*
X166370000Y-88900000D01*
X181610000Y-88900000D02*
X180340000Y-88900000D01*
X180340000Y-89408000D02*
X179578000Y-90170000D01*
X180340000Y-90170000D02*
X180340000Y-87630000D01*
X95250000Y-114300000D02*
X95250000Y-101600000D01*
X95250000Y-101600000D02*
X97790000Y-101600000D01*
X97790000Y-101600000D02*
X97790000Y-114300000D01*
X96520000Y-101600000D02*
X96520000Y-100330000D01*
X96520000Y-115570000D02*
X96520000Y-114300000D01*
X96012000Y-114300000D02*
X95250000Y-113538000D01*
X95250000Y-114300000D02*
X97790000Y-114300000D01*
X91440000Y-114300000D02*
X91440000Y-101600000D01*
X91440000Y-101600000D02*
X93980000Y-101600000D01*
X93980000Y-101600000D02*
X93980000Y-114300000D01*
X92710000Y-101600000D02*
X92710000Y-100330000D01*
X92710000Y-115570000D02*
X92710000Y-114300000D01*
X92202000Y-114300000D02*
X91440000Y-113538000D01*
X91440000Y-114300000D02*
X93980000Y-114300000D01*
X106680000Y-114300000D02*
X106680000Y-101600000D01*
X106680000Y-101600000D02*
X109220000Y-101600000D01*
X109220000Y-101600000D02*
X109220000Y-114300000D01*
X107950000Y-101600000D02*
X107950000Y-100330000D01*
X107950000Y-115570000D02*
X107950000Y-114300000D01*
X107442000Y-114300000D02*
X106680000Y-113538000D01*
X106680000Y-114300000D02*
X109220000Y-114300000D01*
X129540000Y-114300000D02*
X129540000Y-101600000D01*
X129540000Y-101600000D02*
X132080000Y-101600000D01*
X132080000Y-101600000D02*
X132080000Y-114300000D01*
X130810000Y-101600000D02*
X130810000Y-100330000D01*
X130810000Y-115570000D02*
X130810000Y-114300000D01*
X130302000Y-114300000D02*
X129540000Y-113538000D01*
X129540000Y-114300000D02*
X132080000Y-114300000D01*
X101600000Y-101600000D02*
X101600000Y-114300000D01*
X101600000Y-114300000D02*
X99060000Y-114300000D01*
X99060000Y-114300000D02*
X99060000Y-101600000D01*
X100330000Y-114300000D02*
X100330000Y-115570000D01*
X100330000Y-100330000D02*
X100330000Y-101600000D01*
X100838000Y-101600000D02*
X101600000Y-102362000D01*
X101600000Y-101600000D02*
X99060000Y-101600000D01*
X121920000Y-114300000D02*
X121920000Y-101600000D01*
X121920000Y-101600000D02*
X124460000Y-101600000D01*
X124460000Y-101600000D02*
X124460000Y-114300000D01*
X123190000Y-101600000D02*
X123190000Y-100330000D01*
X123190000Y-115570000D02*
X123190000Y-114300000D01*
X122682000Y-114300000D02*
X121920000Y-113538000D01*
X121920000Y-114300000D02*
X124460000Y-114300000D01*
X118110000Y-114300000D02*
X118110000Y-101600000D01*
X118110000Y-101600000D02*
X120650000Y-101600000D01*
X120650000Y-101600000D02*
X120650000Y-114300000D01*
X119380000Y-101600000D02*
X119380000Y-100330000D01*
X119380000Y-115570000D02*
X119380000Y-114300000D01*
X118872000Y-114300000D02*
X118110000Y-113538000D01*
X118110000Y-114300000D02*
X120650000Y-114300000D01*
X102870000Y-114300000D02*
X102870000Y-101600000D01*
X102870000Y-101600000D02*
X105410000Y-101600000D01*
X105410000Y-101600000D02*
X105410000Y-114300000D01*
X104140000Y-101600000D02*
X104140000Y-100330000D01*
X104140000Y-115570000D02*
X104140000Y-114300000D01*
X103632000Y-114300000D02*
X102870000Y-113538000D01*
X102870000Y-114300000D02*
X105410000Y-114300000D01*
X125730000Y-114300000D02*
X125730000Y-101600000D01*
X125730000Y-101600000D02*
X128270000Y-101600000D01*
X128270000Y-101600000D02*
X128270000Y-114300000D01*
X127000000Y-101600000D02*
X127000000Y-100330000D01*
X127000000Y-115570000D02*
X127000000Y-114300000D01*
X126492000Y-114300000D02*
X125730000Y-113538000D01*
X125730000Y-114300000D02*
X128270000Y-114300000D01*
X114300000Y-114300000D02*
X114300000Y-101600000D01*
X114300000Y-101600000D02*
X116840000Y-101600000D01*
X116840000Y-101600000D02*
X116840000Y-114300000D01*
X115570000Y-101600000D02*
X115570000Y-100330000D01*
X115570000Y-115570000D02*
X115570000Y-114300000D01*
X115062000Y-114300000D02*
X114300000Y-113538000D01*
X114300000Y-114300000D02*
X116840000Y-114300000D01*
D13*
X187052857Y-83989333D02*
X187101238Y-84037714D01*
X187149619Y-84182857D01*
X187149619Y-84279619D01*
X187101238Y-84424761D01*
X187004476Y-84521523D01*
X186907714Y-84569904D01*
X186714190Y-84618285D01*
X186569048Y-84618285D01*
X186375524Y-84569904D01*
X186278762Y-84521523D01*
X186182000Y-84424761D01*
X186133619Y-84279619D01*
X186133619Y-84182857D01*
X186182000Y-84037714D01*
X186230381Y-83989333D01*
X186230381Y-83602285D02*
X186182000Y-83553904D01*
X186133619Y-83457142D01*
X186133619Y-83215238D01*
X186182000Y-83118476D01*
X186230381Y-83070095D01*
X186327143Y-83021714D01*
X186423905Y-83021714D01*
X186569048Y-83070095D01*
X187149619Y-83650666D01*
X187149619Y-83021714D01*
X187052857Y-99229333D02*
X187101238Y-99277714D01*
X187149619Y-99422857D01*
X187149619Y-99519619D01*
X187101238Y-99664761D01*
X187004476Y-99761523D01*
X186907714Y-99809904D01*
X186714190Y-99858285D01*
X186569048Y-99858285D01*
X186375524Y-99809904D01*
X186278762Y-99761523D01*
X186182000Y-99664761D01*
X186133619Y-99519619D01*
X186133619Y-99422857D01*
X186182000Y-99277714D01*
X186230381Y-99229333D01*
X186133619Y-98890666D02*
X186133619Y-98261714D01*
X186520667Y-98600380D01*
X186520667Y-98455238D01*
X186569048Y-98358476D01*
X186617429Y-98310095D01*
X186714190Y-98261714D01*
X186956095Y-98261714D01*
X187052857Y-98310095D01*
X187101238Y-98358476D01*
X187149619Y-98455238D01*
X187149619Y-98745523D01*
X187101238Y-98842285D01*
X187052857Y-98890666D01*
X187052857Y-114469333D02*
X187101238Y-114517714D01*
X187149619Y-114662857D01*
X187149619Y-114759619D01*
X187101238Y-114904761D01*
X187004476Y-115001523D01*
X186907714Y-115049904D01*
X186714190Y-115098285D01*
X186569048Y-115098285D01*
X186375524Y-115049904D01*
X186278762Y-115001523D01*
X186182000Y-114904761D01*
X186133619Y-114759619D01*
X186133619Y-114662857D01*
X186182000Y-114517714D01*
X186230381Y-114469333D01*
X186472286Y-113598476D02*
X187149619Y-113598476D01*
X186085238Y-113840380D02*
X186810952Y-114082285D01*
X186810952Y-113453333D01*
X173778333Y-120559286D02*
X173717857Y-120631857D01*
X173536428Y-120704429D01*
X173415476Y-120704429D01*
X173234048Y-120631857D01*
X173113095Y-120486714D01*
X173052619Y-120341571D01*
X172992143Y-120051286D01*
X172992143Y-119833571D01*
X173052619Y-119543286D01*
X173113095Y-119398143D01*
X173234048Y-119253000D01*
X173415476Y-119180429D01*
X173536428Y-119180429D01*
X173717857Y-119253000D01*
X173778333Y-119325571D01*
X174987857Y-120704429D02*
X174262143Y-120704429D01*
X174625000Y-120704429D02*
X174625000Y-119180429D01*
X174504048Y-119398143D01*
X174383095Y-119543286D01*
X174262143Y-119615857D01*
X171843095Y-114245571D02*
X171903571Y-114173000D01*
X172024523Y-114100429D01*
X172326904Y-114100429D01*
X172447857Y-114173000D01*
X172508333Y-114245571D01*
X172568809Y-114390714D01*
X172568809Y-114535857D01*
X172508333Y-114753571D01*
X171782619Y-115624429D01*
X172568809Y-115624429D01*
X173052619Y-114245571D02*
X173113095Y-114173000D01*
X173234047Y-114100429D01*
X173536428Y-114100429D01*
X173657381Y-114173000D01*
X173717857Y-114245571D01*
X173778333Y-114390714D01*
X173778333Y-114535857D01*
X173717857Y-114753571D01*
X172992143Y-115624429D01*
X173778333Y-115624429D01*
X174564524Y-114100429D02*
X174685476Y-114100429D01*
X174806428Y-114173000D01*
X174866905Y-114245571D01*
X174927381Y-114390714D01*
X174987857Y-114681000D01*
X174987857Y-115043857D01*
X174927381Y-115334143D01*
X174866905Y-115479286D01*
X174806428Y-115551857D01*
X174685476Y-115624429D01*
X174564524Y-115624429D01*
X174443571Y-115551857D01*
X174383095Y-115479286D01*
X174322619Y-115334143D01*
X174262143Y-115043857D01*
X174262143Y-114681000D01*
X174322619Y-114390714D01*
X174383095Y-114245571D01*
X174443571Y-114173000D01*
X174564524Y-114100429D01*
X176076429Y-114608429D02*
X176076429Y-115624429D01*
X175532143Y-114608429D02*
X175532143Y-115406714D01*
X175592619Y-115551857D01*
X175713572Y-115624429D01*
X175895000Y-115624429D01*
X176015952Y-115551857D01*
X176076429Y-115479286D01*
D14*
X135309429Y-126479904D02*
X133785429Y-126479904D01*
X133785429Y-126237999D01*
X133858000Y-126092857D01*
X134003143Y-125996095D01*
X134148286Y-125947714D01*
X134438571Y-125899333D01*
X134656286Y-125899333D01*
X134946571Y-125947714D01*
X135091714Y-125996095D01*
X135236857Y-126092857D01*
X135309429Y-126237999D01*
X135309429Y-126479904D01*
X135309429Y-124931714D02*
X135309429Y-125512285D01*
X135309429Y-125221999D02*
X133785429Y-125221999D01*
X134003143Y-125318761D01*
X134148286Y-125415523D01*
X134220857Y-125512285D01*
X131499429Y-126479904D02*
X129975429Y-126479904D01*
X129975429Y-126237999D01*
X130048000Y-126092857D01*
X130193143Y-125996095D01*
X130338286Y-125947714D01*
X130628571Y-125899333D01*
X130846286Y-125899333D01*
X131136571Y-125947714D01*
X131281714Y-125996095D01*
X131426857Y-126092857D01*
X131499429Y-126237999D01*
X131499429Y-126479904D01*
X130120571Y-125512285D02*
X130048000Y-125463904D01*
X129975429Y-125367142D01*
X129975429Y-125125238D01*
X130048000Y-125028476D01*
X130120571Y-124980095D01*
X130265714Y-124931714D01*
X130410857Y-124931714D01*
X130628571Y-124980095D01*
X131499429Y-125560666D01*
X131499429Y-124931714D01*
X139119429Y-126479904D02*
X137595429Y-126479904D01*
X137595429Y-126237999D01*
X137668000Y-126092857D01*
X137813143Y-125996095D01*
X137958286Y-125947714D01*
X138248571Y-125899333D01*
X138466286Y-125899333D01*
X138756571Y-125947714D01*
X138901714Y-125996095D01*
X139046857Y-126092857D01*
X139119429Y-126237999D01*
X139119429Y-126479904D01*
X137595429Y-125560666D02*
X137595429Y-124931714D01*
X138176000Y-125270380D01*
X138176000Y-125125238D01*
X138248571Y-125028476D01*
X138321143Y-124980095D01*
X138466286Y-124931714D01*
X138829143Y-124931714D01*
X138974286Y-124980095D01*
X139046857Y-125028476D01*
X139119429Y-125125238D01*
X139119429Y-125415523D01*
X139046857Y-125512285D01*
X138974286Y-125560666D01*
X108639429Y-126479904D02*
X107115429Y-126479904D01*
X107115429Y-126237999D01*
X107188000Y-126092857D01*
X107333143Y-125996095D01*
X107478286Y-125947714D01*
X107768571Y-125899333D01*
X107986286Y-125899333D01*
X108276571Y-125947714D01*
X108421714Y-125996095D01*
X108566857Y-126092857D01*
X108639429Y-126237999D01*
X108639429Y-126479904D01*
X107623429Y-125028476D02*
X108639429Y-125028476D01*
X107042857Y-125270380D02*
X108131429Y-125512285D01*
X108131429Y-124883333D01*
X127689429Y-126479904D02*
X126165429Y-126479904D01*
X126165429Y-126237999D01*
X126238000Y-126092857D01*
X126383143Y-125996095D01*
X126528286Y-125947714D01*
X126818571Y-125899333D01*
X127036286Y-125899333D01*
X127326571Y-125947714D01*
X127471714Y-125996095D01*
X127616857Y-126092857D01*
X127689429Y-126237999D01*
X127689429Y-126479904D01*
X126165429Y-124980095D02*
X126165429Y-125463904D01*
X126891143Y-125512285D01*
X126818571Y-125463904D01*
X126746000Y-125367142D01*
X126746000Y-125125238D01*
X126818571Y-125028476D01*
X126891143Y-124980095D01*
X127036286Y-124931714D01*
X127399143Y-124931714D01*
X127544286Y-124980095D01*
X127616857Y-125028476D01*
X127689429Y-125125238D01*
X127689429Y-125367142D01*
X127616857Y-125463904D01*
X127544286Y-125512285D01*
X104829429Y-126479904D02*
X103305429Y-126479904D01*
X103305429Y-126237999D01*
X103378000Y-126092857D01*
X103523143Y-125996095D01*
X103668286Y-125947714D01*
X103958571Y-125899333D01*
X104176286Y-125899333D01*
X104466571Y-125947714D01*
X104611714Y-125996095D01*
X104756857Y-126092857D01*
X104829429Y-126237999D01*
X104829429Y-126479904D01*
X103305429Y-125028476D02*
X103305429Y-125221999D01*
X103378000Y-125318761D01*
X103450571Y-125367142D01*
X103668286Y-125463904D01*
X103958571Y-125512285D01*
X104539143Y-125512285D01*
X104684286Y-125463904D01*
X104756857Y-125415523D01*
X104829429Y-125318761D01*
X104829429Y-125125238D01*
X104756857Y-125028476D01*
X104684286Y-124980095D01*
X104539143Y-124931714D01*
X104176286Y-124931714D01*
X104031143Y-124980095D01*
X103958571Y-125028476D01*
X103886000Y-125125238D01*
X103886000Y-125318761D01*
X103958571Y-125415523D01*
X104031143Y-125463904D01*
X104176286Y-125512285D01*
X116259429Y-126479904D02*
X114735429Y-126479904D01*
X114735429Y-126237999D01*
X114808000Y-126092857D01*
X114953143Y-125996095D01*
X115098286Y-125947714D01*
X115388571Y-125899333D01*
X115606286Y-125899333D01*
X115896571Y-125947714D01*
X116041714Y-125996095D01*
X116186857Y-126092857D01*
X116259429Y-126237999D01*
X116259429Y-126479904D01*
X114735429Y-125560666D02*
X114735429Y-124883333D01*
X116259429Y-125318761D01*
X97209429Y-126479904D02*
X95685429Y-126479904D01*
X95685429Y-126237999D01*
X95758000Y-126092857D01*
X95903143Y-125996095D01*
X96048286Y-125947714D01*
X96338571Y-125899333D01*
X96556286Y-125899333D01*
X96846571Y-125947714D01*
X96991714Y-125996095D01*
X97136857Y-126092857D01*
X97209429Y-126237999D01*
X97209429Y-126479904D01*
X96338571Y-125318761D02*
X96266000Y-125415523D01*
X96193429Y-125463904D01*
X96048286Y-125512285D01*
X95975714Y-125512285D01*
X95830571Y-125463904D01*
X95758000Y-125415523D01*
X95685429Y-125318761D01*
X95685429Y-125125238D01*
X95758000Y-125028476D01*
X95830571Y-124980095D01*
X95975714Y-124931714D01*
X96048286Y-124931714D01*
X96193429Y-124980095D01*
X96266000Y-125028476D01*
X96338571Y-125125238D01*
X96338571Y-125318761D01*
X96411143Y-125415523D01*
X96483714Y-125463904D01*
X96628857Y-125512285D01*
X96919143Y-125512285D01*
X97064286Y-125463904D01*
X97136857Y-125415523D01*
X97209429Y-125318761D01*
X97209429Y-125125238D01*
X97136857Y-125028476D01*
X97064286Y-124980095D01*
X96919143Y-124931714D01*
X96628857Y-124931714D01*
X96483714Y-124980095D01*
X96411143Y-125028476D01*
X96338571Y-125125238D01*
X112449429Y-126479904D02*
X110925429Y-126479904D01*
X110925429Y-126237999D01*
X110998000Y-126092857D01*
X111143143Y-125996095D01*
X111288286Y-125947714D01*
X111578571Y-125899333D01*
X111796286Y-125899333D01*
X112086571Y-125947714D01*
X112231714Y-125996095D01*
X112376857Y-126092857D01*
X112449429Y-126237999D01*
X112449429Y-126479904D01*
X112449429Y-125415523D02*
X112449429Y-125221999D01*
X112376857Y-125125238D01*
X112304286Y-125076857D01*
X112086571Y-124980095D01*
X111796286Y-124931714D01*
X111215714Y-124931714D01*
X111070571Y-124980095D01*
X110998000Y-125028476D01*
X110925429Y-125125238D01*
X110925429Y-125318761D01*
X110998000Y-125415523D01*
X111070571Y-125463904D01*
X111215714Y-125512285D01*
X111578571Y-125512285D01*
X111723714Y-125463904D01*
X111796286Y-125415523D01*
X111868857Y-125318761D01*
X111868857Y-125125238D01*
X111796286Y-125028476D01*
X111723714Y-124980095D01*
X111578571Y-124931714D01*
X101019429Y-126963714D02*
X99495429Y-126963714D01*
X99495429Y-126721809D01*
X99568000Y-126576667D01*
X99713143Y-126479905D01*
X99858286Y-126431524D01*
X100148571Y-126383143D01*
X100366286Y-126383143D01*
X100656571Y-126431524D01*
X100801714Y-126479905D01*
X100946857Y-126576667D01*
X101019429Y-126721809D01*
X101019429Y-126963714D01*
X101019429Y-125415524D02*
X101019429Y-125996095D01*
X101019429Y-125705809D02*
X99495429Y-125705809D01*
X99713143Y-125802571D01*
X99858286Y-125899333D01*
X99930857Y-125996095D01*
X99495429Y-124786571D02*
X99495429Y-124689810D01*
X99568000Y-124593048D01*
X99640571Y-124544667D01*
X99785714Y-124496286D01*
X100076000Y-124447905D01*
X100438857Y-124447905D01*
X100729143Y-124496286D01*
X100874286Y-124544667D01*
X100946857Y-124593048D01*
X101019429Y-124689810D01*
X101019429Y-124786571D01*
X100946857Y-124883333D01*
X100874286Y-124931714D01*
X100729143Y-124980095D01*
X100438857Y-125028476D01*
X100076000Y-125028476D01*
X99785714Y-124980095D01*
X99640571Y-124931714D01*
X99568000Y-124883333D01*
X99495429Y-124786571D01*
X120069429Y-126963714D02*
X118545429Y-126963714D01*
X118545429Y-126721809D01*
X118618000Y-126576667D01*
X118763143Y-126479905D01*
X118908286Y-126431524D01*
X119198571Y-126383143D01*
X119416286Y-126383143D01*
X119706571Y-126431524D01*
X119851714Y-126479905D01*
X119996857Y-126576667D01*
X120069429Y-126721809D01*
X120069429Y-126963714D01*
X120069429Y-125415524D02*
X120069429Y-125996095D01*
X120069429Y-125705809D02*
X118545429Y-125705809D01*
X118763143Y-125802571D01*
X118908286Y-125899333D01*
X118980857Y-125996095D01*
X120069429Y-124447905D02*
X120069429Y-125028476D01*
X120069429Y-124738190D02*
X118545429Y-124738190D01*
X118763143Y-124834952D01*
X118908286Y-124931714D01*
X118980857Y-125028476D01*
X89589429Y-126963714D02*
X88065429Y-126963714D01*
X88065429Y-126721809D01*
X88138000Y-126576667D01*
X88283143Y-126479905D01*
X88428286Y-126431524D01*
X88718571Y-126383143D01*
X88936286Y-126383143D01*
X89226571Y-126431524D01*
X89371714Y-126479905D01*
X89516857Y-126576667D01*
X89589429Y-126721809D01*
X89589429Y-126963714D01*
X89589429Y-125415524D02*
X89589429Y-125996095D01*
X89589429Y-125705809D02*
X88065429Y-125705809D01*
X88283143Y-125802571D01*
X88428286Y-125899333D01*
X88500857Y-125996095D01*
X88210571Y-125028476D02*
X88138000Y-124980095D01*
X88065429Y-124883333D01*
X88065429Y-124641429D01*
X88138000Y-124544667D01*
X88210571Y-124496286D01*
X88355714Y-124447905D01*
X88500857Y-124447905D01*
X88718571Y-124496286D01*
X89589429Y-125076857D01*
X89589429Y-124447905D01*
X93399429Y-126963714D02*
X91875429Y-126963714D01*
X91875429Y-126721809D01*
X91948000Y-126576667D01*
X92093143Y-126479905D01*
X92238286Y-126431524D01*
X92528571Y-126383143D01*
X92746286Y-126383143D01*
X93036571Y-126431524D01*
X93181714Y-126479905D01*
X93326857Y-126576667D01*
X93399429Y-126721809D01*
X93399429Y-126963714D01*
X93399429Y-125415524D02*
X93399429Y-125996095D01*
X93399429Y-125705809D02*
X91875429Y-125705809D01*
X92093143Y-125802571D01*
X92238286Y-125899333D01*
X92310857Y-125996095D01*
X91875429Y-125076857D02*
X91875429Y-124447905D01*
X92456000Y-124786571D01*
X92456000Y-124641429D01*
X92528571Y-124544667D01*
X92601143Y-124496286D01*
X92746286Y-124447905D01*
X93109143Y-124447905D01*
X93254286Y-124496286D01*
X93326857Y-124544667D01*
X93399429Y-124641429D01*
X93399429Y-124931714D01*
X93326857Y-125028476D01*
X93254286Y-125076857D01*
X123879429Y-126963714D02*
X122355429Y-126963714D01*
X122355429Y-126721809D01*
X122428000Y-126576667D01*
X122573143Y-126479905D01*
X122718286Y-126431524D01*
X123008571Y-126383143D01*
X123226286Y-126383143D01*
X123516571Y-126431524D01*
X123661714Y-126479905D01*
X123806857Y-126576667D01*
X123879429Y-126721809D01*
X123879429Y-126963714D01*
X123879429Y-125415524D02*
X123879429Y-125996095D01*
X123879429Y-125705809D02*
X122355429Y-125705809D01*
X122573143Y-125802571D01*
X122718286Y-125899333D01*
X122790857Y-125996095D01*
X122863429Y-124544667D02*
X123879429Y-124544667D01*
X122282857Y-124786571D02*
X123371429Y-125028476D01*
X123371429Y-124399524D01*
X144816286Y-97209429D02*
X144816286Y-95685429D01*
X145058191Y-95685429D01*
X145203333Y-95758000D01*
X145300095Y-95903143D01*
X145348476Y-96048286D01*
X145396857Y-96338571D01*
X145396857Y-96556286D01*
X145348476Y-96846571D01*
X145300095Y-96991714D01*
X145203333Y-97136857D01*
X145058191Y-97209429D01*
X144816286Y-97209429D01*
X146364476Y-97209429D02*
X145783905Y-97209429D01*
X146074191Y-97209429D02*
X146074191Y-95685429D01*
X145977429Y-95903143D01*
X145880667Y-96048286D01*
X145783905Y-96120857D01*
X147283714Y-95685429D02*
X146799905Y-95685429D01*
X146751524Y-96411143D01*
X146799905Y-96338571D01*
X146896667Y-96266000D01*
X147138571Y-96266000D01*
X147235333Y-96338571D01*
X147283714Y-96411143D01*
X147332095Y-96556286D01*
X147332095Y-96919143D01*
X147283714Y-97064286D01*
X147235333Y-97136857D01*
X147138571Y-97209429D01*
X146896667Y-97209429D01*
X146799905Y-97136857D01*
X146751524Y-97064286D01*
D15*
X210974215Y-116259429D02*
X210974215Y-114735429D01*
X212171644Y-116114286D02*
X212117215Y-116186857D01*
X211953929Y-116259429D01*
X211845072Y-116259429D01*
X211681787Y-116186857D01*
X211572929Y-116041714D01*
X211518501Y-115896571D01*
X211464072Y-115606286D01*
X211464072Y-115388571D01*
X211518501Y-115098286D01*
X211572929Y-114953143D01*
X211681787Y-114808000D01*
X211845072Y-114735429D01*
X211953929Y-114735429D01*
X212117215Y-114808000D01*
X212171644Y-114880571D01*
X212552644Y-114735429D02*
X213260215Y-114735429D01*
X212879215Y-115316000D01*
X213042501Y-115316000D01*
X213151358Y-115388571D01*
X213205787Y-115461143D01*
X213260215Y-115606286D01*
X213260215Y-115969143D01*
X213205787Y-116114286D01*
X213151358Y-116186857D01*
X213042501Y-116259429D01*
X212715929Y-116259429D01*
X212607072Y-116186857D01*
X212552644Y-116114286D01*
D16*
D15*
X202719216Y-112195429D02*
X203481216Y-112195429D01*
X202991359Y-113719429D01*
X204406501Y-112703429D02*
X204406501Y-113719429D01*
X204134358Y-112122857D02*
X203862215Y-113211429D01*
X204569787Y-113211429D01*
X205549501Y-113719429D02*
X205005215Y-113719429D01*
X205005215Y-112195429D01*
X205876072Y-113646857D02*
X206039358Y-113719429D01*
X206311501Y-113719429D01*
X206420358Y-113646857D01*
X206474787Y-113574286D01*
X206529215Y-113429143D01*
X206529215Y-113284000D01*
X206474787Y-113138857D01*
X206420358Y-113066286D01*
X206311501Y-112993714D01*
X206093787Y-112921143D01*
X205984929Y-112848571D01*
X205930501Y-112776000D01*
X205876072Y-112630857D01*
X205876072Y-112485714D01*
X205930501Y-112340571D01*
X205984929Y-112268000D01*
X206093787Y-112195429D01*
X206365929Y-112195429D01*
X206529215Y-112268000D01*
X207236786Y-112195429D02*
X207345643Y-112195429D01*
X207454500Y-112268000D01*
X207508929Y-112340571D01*
X207563358Y-112485714D01*
X207617786Y-112776000D01*
X207617786Y-113138857D01*
X207563358Y-113429143D01*
X207508929Y-113574286D01*
X207454500Y-113646857D01*
X207345643Y-113719429D01*
X207236786Y-113719429D01*
X207127929Y-113646857D01*
X207073500Y-113574286D01*
X207019072Y-113429143D01*
X206964643Y-113138857D01*
X206964643Y-112776000D01*
X207019072Y-112485714D01*
X207073500Y-112340571D01*
X207127929Y-112268000D01*
X207236786Y-112195429D01*
X208597500Y-112703429D02*
X208597500Y-113719429D01*
X208325357Y-112122857D02*
X208053214Y-113211429D01*
X208760786Y-113211429D01*
D16*
D15*
X210974215Y-101019429D02*
X210974215Y-99495429D01*
X212171644Y-100874286D02*
X212117215Y-100946857D01*
X211953929Y-101019429D01*
X211845072Y-101019429D01*
X211681787Y-100946857D01*
X211572929Y-100801714D01*
X211518501Y-100656571D01*
X211464072Y-100366286D01*
X211464072Y-100148571D01*
X211518501Y-99858286D01*
X211572929Y-99713143D01*
X211681787Y-99568000D01*
X211845072Y-99495429D01*
X211953929Y-99495429D01*
X212117215Y-99568000D01*
X212171644Y-99640571D01*
X212607072Y-99640571D02*
X212661501Y-99568000D01*
X212770358Y-99495429D01*
X213042501Y-99495429D01*
X213151358Y-99568000D01*
X213205787Y-99640571D01*
X213260215Y-99785714D01*
X213260215Y-99930857D01*
X213205787Y-100148571D01*
X212552644Y-101019429D01*
X213260215Y-101019429D01*
D16*
D15*
X199634930Y-96955429D02*
X200396930Y-96955429D01*
X199907073Y-98479429D01*
X201322215Y-97463429D02*
X201322215Y-98479429D01*
X201050072Y-96882857D02*
X200777929Y-97971429D01*
X201485501Y-97971429D01*
X202465215Y-98479429D02*
X201920929Y-98479429D01*
X201920929Y-96955429D01*
X202791786Y-98406857D02*
X202955072Y-98479429D01*
X203227215Y-98479429D01*
X203336072Y-98406857D01*
X203390501Y-98334286D01*
X203444929Y-98189143D01*
X203444929Y-98044000D01*
X203390501Y-97898857D01*
X203336072Y-97826286D01*
X203227215Y-97753714D01*
X203009501Y-97681143D01*
X202900643Y-97608571D01*
X202846215Y-97536000D01*
X202791786Y-97390857D01*
X202791786Y-97245714D01*
X202846215Y-97100571D01*
X202900643Y-97028000D01*
X203009501Y-96955429D01*
X203281643Y-96955429D01*
X203444929Y-97028000D01*
X204533500Y-98479429D02*
X203880357Y-98479429D01*
X204206929Y-98479429D02*
X204206929Y-96955429D01*
X204098072Y-97173143D01*
X203989214Y-97318286D01*
X203880357Y-97390857D01*
X204914500Y-96955429D02*
X205622071Y-96955429D01*
X205241071Y-97536000D01*
X205404357Y-97536000D01*
X205513214Y-97608571D01*
X205567643Y-97681143D01*
X205622071Y-97826286D01*
X205622071Y-98189143D01*
X205567643Y-98334286D01*
X205513214Y-98406857D01*
X205404357Y-98479429D01*
X205077785Y-98479429D01*
X204968928Y-98406857D01*
X204914500Y-98334286D01*
X206275214Y-97608571D02*
X206166356Y-97536000D01*
X206111928Y-97463429D01*
X206057499Y-97318286D01*
X206057499Y-97245714D01*
X206111928Y-97100571D01*
X206166356Y-97028000D01*
X206275214Y-96955429D01*
X206492928Y-96955429D01*
X206601785Y-97028000D01*
X206656214Y-97100571D01*
X206710642Y-97245714D01*
X206710642Y-97318286D01*
X206656214Y-97463429D01*
X206601785Y-97536000D01*
X206492928Y-97608571D01*
X206275214Y-97608571D01*
X206166356Y-97681143D01*
X206111928Y-97753714D01*
X206057499Y-97898857D01*
X206057499Y-98189143D01*
X206111928Y-98334286D01*
X206166356Y-98406857D01*
X206275214Y-98479429D01*
X206492928Y-98479429D01*
X206601785Y-98406857D01*
X206656214Y-98334286D01*
X206710642Y-98189143D01*
X206710642Y-97898857D01*
X206656214Y-97753714D01*
X206601785Y-97681143D01*
X206492928Y-97608571D01*
D16*
D15*
X210974215Y-85894333D02*
X210974215Y-84116333D01*
X212171644Y-85725000D02*
X212117215Y-85809667D01*
X211953929Y-85894333D01*
X211845072Y-85894333D01*
X211681787Y-85809667D01*
X211572929Y-85640333D01*
X211518501Y-85471000D01*
X211464072Y-85132333D01*
X211464072Y-84878333D01*
X211518501Y-84539667D01*
X211572929Y-84370333D01*
X211681787Y-84201000D01*
X211845072Y-84116333D01*
X211953929Y-84116333D01*
X212117215Y-84201000D01*
X212171644Y-84285667D01*
X213260215Y-85894333D02*
X212607072Y-85894333D01*
X212933644Y-85894333D02*
X212933644Y-84116333D01*
X212824787Y-84370333D01*
X212715929Y-84539667D01*
X212607072Y-84624333D01*
D16*
D15*
X193284930Y-81576333D02*
X194046930Y-81576333D01*
X193557073Y-83354333D01*
X194972215Y-82169000D02*
X194972215Y-83354333D01*
X194700072Y-81491667D02*
X194427929Y-82761667D01*
X195135501Y-82761667D01*
X196115215Y-83354333D02*
X195570929Y-83354333D01*
X195570929Y-81576333D01*
X196441786Y-83269667D02*
X196605072Y-83354333D01*
X196877215Y-83354333D01*
X196986072Y-83269667D01*
X197040501Y-83185000D01*
X197094929Y-83015667D01*
X197094929Y-82846333D01*
X197040501Y-82677000D01*
X196986072Y-82592333D01*
X196877215Y-82507667D01*
X196659501Y-82423000D01*
X196550643Y-82338333D01*
X196496215Y-82253667D01*
X196441786Y-82084333D01*
X196441786Y-81915000D01*
X196496215Y-81745667D01*
X196550643Y-81661000D01*
X196659501Y-81576333D01*
X196931643Y-81576333D01*
X197094929Y-81661000D01*
X197475929Y-81576333D02*
X198183500Y-81576333D01*
X197802500Y-82253667D01*
X197965786Y-82253667D01*
X198074643Y-82338333D01*
X198129072Y-82423000D01*
X198183500Y-82592333D01*
X198183500Y-83015667D01*
X198129072Y-83185000D01*
X198074643Y-83269667D01*
X197965786Y-83354333D01*
X197639214Y-83354333D01*
X197530357Y-83269667D01*
X197475929Y-83185000D01*
X198564500Y-81576333D02*
X199326500Y-81576333D01*
X198836643Y-83354333D01*
X200251785Y-82169000D02*
X200251785Y-83354333D01*
X199979642Y-81491667D02*
X199707499Y-82761667D01*
X200415071Y-82761667D01*
D16*
D13*
X145838333Y-81911976D02*
X145415000Y-81246738D01*
X145112619Y-81911976D02*
X145112619Y-80514976D01*
X145596428Y-80514976D01*
X145717381Y-80581500D01*
X145777857Y-80648024D01*
X145838333Y-80781071D01*
X145838333Y-80980643D01*
X145777857Y-81113690D01*
X145717381Y-81180214D01*
X145596428Y-81246738D01*
X145112619Y-81246738D01*
X146987381Y-80514976D02*
X146382619Y-80514976D01*
X146322143Y-81180214D01*
X146382619Y-81113690D01*
X146503571Y-81047167D01*
X146805952Y-81047167D01*
X146926905Y-81113690D01*
X146987381Y-81180214D01*
X147047857Y-81313262D01*
X147047857Y-81645881D01*
X146987381Y-81778929D01*
X146926905Y-81845452D01*
X146805952Y-81911976D01*
X146503571Y-81911976D01*
X146382619Y-81845452D01*
X146322143Y-81778929D01*
X145838333Y-86991976D02*
X145415000Y-86326738D01*
X145112619Y-86991976D02*
X145112619Y-85594976D01*
X145596428Y-85594976D01*
X145717381Y-85661500D01*
X145777857Y-85728024D01*
X145838333Y-85861071D01*
X145838333Y-86060643D01*
X145777857Y-86193690D01*
X145717381Y-86260214D01*
X145596428Y-86326738D01*
X145112619Y-86326738D01*
X146261667Y-85594976D02*
X147108333Y-85594976D01*
X146564048Y-86991976D01*
X145838333Y-92071976D02*
X145415000Y-91406738D01*
X145112619Y-92071976D02*
X145112619Y-90674976D01*
X145596428Y-90674976D01*
X145717381Y-90741500D01*
X145777857Y-90808024D01*
X145838333Y-90941071D01*
X145838333Y-91140643D01*
X145777857Y-91273690D01*
X145717381Y-91340214D01*
X145596428Y-91406738D01*
X145112619Y-91406738D01*
X146261667Y-90674976D02*
X147047857Y-90674976D01*
X146624524Y-91207167D01*
X146805952Y-91207167D01*
X146926905Y-91273690D01*
X146987381Y-91340214D01*
X147047857Y-91473262D01*
X147047857Y-91805881D01*
X146987381Y-91938929D01*
X146926905Y-92005452D01*
X146805952Y-92071976D01*
X146443095Y-92071976D01*
X146322143Y-92005452D01*
X146261667Y-91938929D01*
X173778333Y-111121976D02*
X173355000Y-110456738D01*
X173052619Y-111121976D02*
X173052619Y-109724976D01*
X173536428Y-109724976D01*
X173657381Y-109791500D01*
X173717857Y-109858024D01*
X173778333Y-109991071D01*
X173778333Y-110190643D01*
X173717857Y-110323690D01*
X173657381Y-110390214D01*
X173536428Y-110456738D01*
X173052619Y-110456738D01*
X174262143Y-109858024D02*
X174322619Y-109791500D01*
X174443571Y-109724976D01*
X174745952Y-109724976D01*
X174866905Y-109791500D01*
X174927381Y-109858024D01*
X174987857Y-109991071D01*
X174987857Y-110124119D01*
X174927381Y-110323690D01*
X174201667Y-111121976D01*
X174987857Y-111121976D01*
X173778333Y-104771976D02*
X173355000Y-104106738D01*
X173052619Y-104771976D02*
X173052619Y-103374976D01*
X173536428Y-103374976D01*
X173657381Y-103441500D01*
X173717857Y-103508024D01*
X173778333Y-103641071D01*
X173778333Y-103840643D01*
X173717857Y-103973690D01*
X173657381Y-104040214D01*
X173536428Y-104106738D01*
X173052619Y-104106738D01*
X174987857Y-104771976D02*
X174262143Y-104771976D01*
X174625000Y-104771976D02*
X174625000Y-103374976D01*
X174504048Y-103574548D01*
X174383095Y-103707595D01*
X174262143Y-103774119D01*
X173778333Y-76831976D02*
X173355000Y-76166738D01*
X173052619Y-76831976D02*
X173052619Y-75434976D01*
X173536428Y-75434976D01*
X173657381Y-75501500D01*
X173717857Y-75568024D01*
X173778333Y-75701071D01*
X173778333Y-75900643D01*
X173717857Y-76033690D01*
X173657381Y-76100214D01*
X173536428Y-76166738D01*
X173052619Y-76166738D01*
X174504048Y-76033690D02*
X174383095Y-75967167D01*
X174322619Y-75900643D01*
X174262143Y-75767595D01*
X174262143Y-75701071D01*
X174322619Y-75568024D01*
X174383095Y-75501500D01*
X174504048Y-75434976D01*
X174745952Y-75434976D01*
X174866905Y-75501500D01*
X174927381Y-75568024D01*
X174987857Y-75701071D01*
X174987857Y-75767595D01*
X174927381Y-75900643D01*
X174866905Y-75967167D01*
X174745952Y-76033690D01*
X174504048Y-76033690D01*
X174383095Y-76100214D01*
X174322619Y-76166738D01*
X174262143Y-76299786D01*
X174262143Y-76565881D01*
X174322619Y-76698929D01*
X174383095Y-76765452D01*
X174504048Y-76831976D01*
X174745952Y-76831976D01*
X174866905Y-76765452D01*
X174927381Y-76698929D01*
X174987857Y-76565881D01*
X174987857Y-76299786D01*
X174927381Y-76166738D01*
X174866905Y-76100214D01*
X174745952Y-76033690D01*
X145838333Y-76831976D02*
X145415000Y-76166738D01*
X145112619Y-76831976D02*
X145112619Y-75434976D01*
X145596428Y-75434976D01*
X145717381Y-75501500D01*
X145777857Y-75568024D01*
X145838333Y-75701071D01*
X145838333Y-75900643D01*
X145777857Y-76033690D01*
X145717381Y-76100214D01*
X145596428Y-76166738D01*
X145112619Y-76166738D01*
X146926905Y-75900643D02*
X146926905Y-76831976D01*
X146624524Y-75368452D02*
X146322143Y-76366310D01*
X147108333Y-76366310D01*
X173778333Y-83181976D02*
X173355000Y-82516738D01*
X173052619Y-83181976D02*
X173052619Y-81784976D01*
X173536428Y-81784976D01*
X173657381Y-81851500D01*
X173717857Y-81918024D01*
X173778333Y-82051071D01*
X173778333Y-82250643D01*
X173717857Y-82383690D01*
X173657381Y-82450214D01*
X173536428Y-82516738D01*
X173052619Y-82516738D01*
X174866905Y-81784976D02*
X174625000Y-81784976D01*
X174504048Y-81851500D01*
X174443571Y-81918024D01*
X174322619Y-82117595D01*
X174262143Y-82383690D01*
X174262143Y-82915881D01*
X174322619Y-83048929D01*
X174383095Y-83115452D01*
X174504048Y-83181976D01*
X174745952Y-83181976D01*
X174866905Y-83115452D01*
X174927381Y-83048929D01*
X174987857Y-82915881D01*
X174987857Y-82583262D01*
X174927381Y-82450214D01*
X174866905Y-82383690D01*
X174745952Y-82317167D01*
X174504048Y-82317167D01*
X174383095Y-82383690D01*
X174322619Y-82450214D01*
X174262143Y-82583262D01*
D17*
X134942761Y-103232373D02*
X136178290Y-103232373D01*
X136425396Y-103284141D01*
X136590133Y-103387676D01*
X136672501Y-103542979D01*
X136672501Y-103646514D01*
X136672501Y-102145253D02*
X136672501Y-102766465D01*
X136672501Y-102455859D02*
X134942761Y-102455859D01*
X135189867Y-102559394D01*
X135354604Y-102662929D01*
X135436973Y-102766465D01*
D18*
X139989379Y-112657466D02*
X141268450Y-112657466D01*
X141524264Y-112708750D01*
X141694807Y-112811318D01*
X141780079Y-112965169D01*
X141780079Y-113067737D01*
X141609536Y-111529222D02*
X141694807Y-111580506D01*
X141780079Y-111734357D01*
X141780079Y-111836925D01*
X141694807Y-111990777D01*
X141524264Y-112093344D01*
X141353721Y-112144628D01*
X141012636Y-112195912D01*
X140756821Y-112195912D01*
X140415736Y-112144628D01*
X140245193Y-112093344D01*
X140074650Y-111990777D01*
X139989379Y-111836925D01*
X139989379Y-111734357D01*
X140074650Y-111580506D01*
X140159921Y-111529222D01*
X141780079Y-110503546D02*
X141780079Y-111118952D01*
X141780079Y-110811249D02*
X139989379Y-110811249D01*
X140245193Y-110913817D01*
X140415736Y-111016384D01*
X140501007Y-111118952D01*
D13*
X125052667Y-88343619D02*
X125560667Y-88343619D01*
X125306667Y-89359619D02*
X125306667Y-88343619D01*
X126322666Y-89359619D02*
X125814666Y-89359619D01*
X126068666Y-89359619D02*
X126068666Y-88343619D01*
X125984000Y-88488762D01*
X125899333Y-88585524D01*
X125814666Y-88633905D01*
X102192667Y-81993619D02*
X102700667Y-81993619D01*
X102446667Y-83009619D02*
X102446667Y-81993619D01*
X102954666Y-82090381D02*
X102997000Y-82042000D01*
X103081666Y-81993619D01*
X103293333Y-81993619D01*
X103378000Y-82042000D01*
X103420333Y-82090381D01*
X103462666Y-82187143D01*
X103462666Y-82283905D01*
X103420333Y-82429048D01*
X102912333Y-83009619D01*
X103462666Y-83009619D01*
X128862667Y-81993619D02*
X129370667Y-81993619D01*
X129116667Y-83009619D02*
X129116667Y-81993619D01*
X129582333Y-81993619D02*
X130132666Y-81993619D01*
X129836333Y-82380667D01*
X129963333Y-82380667D01*
X130048000Y-82429048D01*
X130090333Y-82477429D01*
X130132666Y-82574190D01*
X130132666Y-82816095D01*
X130090333Y-82912857D01*
X130048000Y-82961238D01*
X129963333Y-83009619D01*
X129709333Y-83009619D01*
X129624666Y-82961238D01*
X129582333Y-82912857D01*
X111082667Y-81993619D02*
X111590667Y-81993619D01*
X111336667Y-83009619D02*
X111336667Y-81993619D01*
X112268000Y-82332286D02*
X112268000Y-83009619D01*
X112056333Y-81945238D02*
X111844666Y-82670952D01*
X112395000Y-82670952D01*
X97112667Y-75643619D02*
X97620667Y-75643619D01*
X97366667Y-76659619D02*
X97366667Y-75643619D01*
X98340333Y-75643619D02*
X97917000Y-75643619D01*
X97874666Y-76127429D01*
X97917000Y-76079048D01*
X98001666Y-76030667D01*
X98213333Y-76030667D01*
X98298000Y-76079048D01*
X98340333Y-76127429D01*
X98382666Y-76224190D01*
X98382666Y-76466095D01*
X98340333Y-76562857D01*
X98298000Y-76611238D01*
X98213333Y-76659619D01*
X98001666Y-76659619D01*
X97917000Y-76611238D01*
X97874666Y-76562857D01*
X119972667Y-81993619D02*
X120480667Y-81993619D01*
X120226667Y-83009619D02*
X120226667Y-81993619D01*
X121158000Y-81993619D02*
X120988666Y-81993619D01*
X120904000Y-82042000D01*
X120861666Y-82090381D01*
X120777000Y-82235524D01*
X120734666Y-82429048D01*
X120734666Y-82816095D01*
X120777000Y-82912857D01*
X120819333Y-82961238D01*
X120904000Y-83009619D01*
X121073333Y-83009619D01*
X121158000Y-82961238D01*
X121200333Y-82912857D01*
X121242666Y-82816095D01*
X121242666Y-82574190D01*
X121200333Y-82477429D01*
X121158000Y-82429048D01*
X121073333Y-82380667D01*
X120904000Y-82380667D01*
X120819333Y-82429048D01*
X120777000Y-82477429D01*
X120734666Y-82574190D01*
X107272667Y-88343619D02*
X107780667Y-88343619D01*
X107526667Y-89359619D02*
X107526667Y-88343619D01*
X107992333Y-88343619D02*
X108585000Y-88343619D01*
X108204000Y-89359619D01*
X123782667Y-75643619D02*
X124290667Y-75643619D01*
X124036667Y-76659619D02*
X124036667Y-75643619D01*
X124714000Y-76079048D02*
X124629333Y-76030667D01*
X124587000Y-75982286D01*
X124544666Y-75885524D01*
X124544666Y-75837143D01*
X124587000Y-75740381D01*
X124629333Y-75692000D01*
X124714000Y-75643619D01*
X124883333Y-75643619D01*
X124968000Y-75692000D01*
X125010333Y-75740381D01*
X125052666Y-75837143D01*
X125052666Y-75885524D01*
X125010333Y-75982286D01*
X124968000Y-76030667D01*
X124883333Y-76079048D01*
X124714000Y-76079048D01*
X124629333Y-76127429D01*
X124587000Y-76175810D01*
X124544666Y-76272571D01*
X124544666Y-76466095D01*
X124587000Y-76562857D01*
X124629333Y-76611238D01*
X124714000Y-76659619D01*
X124883333Y-76659619D01*
X124968000Y-76611238D01*
X125010333Y-76562857D01*
X125052666Y-76466095D01*
X125052666Y-76272571D01*
X125010333Y-76175810D01*
X124968000Y-76127429D01*
X124883333Y-76079048D01*
X116162667Y-88343619D02*
X116670667Y-88343619D01*
X116416667Y-89359619D02*
X116416667Y-88343619D01*
X117009333Y-89359619D02*
X117178666Y-89359619D01*
X117263333Y-89311238D01*
X117305666Y-89262857D01*
X117390333Y-89117714D01*
X117432666Y-88924190D01*
X117432666Y-88537143D01*
X117390333Y-88440381D01*
X117348000Y-88392000D01*
X117263333Y-88343619D01*
X117094000Y-88343619D01*
X117009333Y-88392000D01*
X116967000Y-88440381D01*
X116924666Y-88537143D01*
X116924666Y-88779048D01*
X116967000Y-88875810D01*
X117009333Y-88924190D01*
X117094000Y-88972571D01*
X117263333Y-88972571D01*
X117348000Y-88924190D01*
X117390333Y-88875810D01*
X117432666Y-88779048D01*
X97959334Y-88343619D02*
X98467334Y-88343619D01*
X98213334Y-89359619D02*
X98213334Y-88343619D01*
X99229333Y-89359619D02*
X98721333Y-89359619D01*
X98975333Y-89359619D02*
X98975333Y-88343619D01*
X98890667Y-88488762D01*
X98806000Y-88585524D01*
X98721333Y-88633905D01*
X99779667Y-88343619D02*
X99864334Y-88343619D01*
X99949000Y-88392000D01*
X99991334Y-88440381D01*
X100033667Y-88537143D01*
X100076000Y-88730667D01*
X100076000Y-88972571D01*
X100033667Y-89166095D01*
X99991334Y-89262857D01*
X99949000Y-89311238D01*
X99864334Y-89359619D01*
X99779667Y-89359619D01*
X99695000Y-89311238D01*
X99652667Y-89262857D01*
X99610334Y-89166095D01*
X99568000Y-88972571D01*
X99568000Y-88730667D01*
X99610334Y-88537143D01*
X99652667Y-88440381D01*
X99695000Y-88392000D01*
X99779667Y-88343619D01*
X92879334Y-81993619D02*
X93387334Y-81993619D01*
X93133334Y-83009619D02*
X93133334Y-81993619D01*
X94149333Y-83009619D02*
X93641333Y-83009619D01*
X93895333Y-83009619D02*
X93895333Y-81993619D01*
X93810667Y-82138762D01*
X93726000Y-82235524D01*
X93641333Y-82283905D01*
X94996000Y-83009619D02*
X94488000Y-83009619D01*
X94742000Y-83009619D02*
X94742000Y-81993619D01*
X94657334Y-82138762D01*
X94572667Y-82235524D01*
X94488000Y-82283905D01*
X87799334Y-75643619D02*
X88307334Y-75643619D01*
X88053334Y-76659619D02*
X88053334Y-75643619D01*
X89069333Y-76659619D02*
X88561333Y-76659619D01*
X88815333Y-76659619D02*
X88815333Y-75643619D01*
X88730667Y-75788762D01*
X88646000Y-75885524D01*
X88561333Y-75933905D01*
X89408000Y-75740381D02*
X89450334Y-75692000D01*
X89535000Y-75643619D01*
X89746667Y-75643619D01*
X89831334Y-75692000D01*
X89873667Y-75740381D01*
X89916000Y-75837143D01*
X89916000Y-75933905D01*
X89873667Y-76079048D01*
X89365667Y-76659619D01*
X89916000Y-76659619D01*
X149303619Y-103970666D02*
X149303619Y-103462666D01*
X150319619Y-103716666D02*
X149303619Y-103716666D01*
X150319619Y-102700667D02*
X150319619Y-103208667D01*
X150319619Y-102954667D02*
X149303619Y-102954667D01*
X149448762Y-103039333D01*
X149545524Y-103124000D01*
X149593905Y-103208667D01*
X149303619Y-102404333D02*
X149303619Y-101854000D01*
X149690667Y-102150333D01*
X149690667Y-102023333D01*
X149739048Y-101938666D01*
X149787429Y-101896333D01*
X149884190Y-101854000D01*
X150126095Y-101854000D01*
X150222857Y-101896333D01*
X150271238Y-101938666D01*
X150319619Y-102023333D01*
X150319619Y-102277333D01*
X150271238Y-102362000D01*
X150222857Y-102404333D01*
X114469334Y-75643619D02*
X114977334Y-75643619D01*
X114723334Y-76659619D02*
X114723334Y-75643619D01*
X115739333Y-76659619D02*
X115231333Y-76659619D01*
X115485333Y-76659619D02*
X115485333Y-75643619D01*
X115400667Y-75788762D01*
X115316000Y-75885524D01*
X115231333Y-75933905D01*
X116501334Y-75982286D02*
X116501334Y-76659619D01*
X116289667Y-75595238D02*
X116078000Y-76320952D01*
X116628334Y-76320952D01*
X105579334Y-75643619D02*
X106087334Y-75643619D01*
X105833334Y-76659619D02*
X105833334Y-75643619D01*
X106849333Y-76659619D02*
X106341333Y-76659619D01*
X106595333Y-76659619D02*
X106595333Y-75643619D01*
X106510667Y-75788762D01*
X106426000Y-75885524D01*
X106341333Y-75933905D01*
X107653667Y-75643619D02*
X107230334Y-75643619D01*
X107188000Y-76127429D01*
X107230334Y-76079048D01*
X107315000Y-76030667D01*
X107526667Y-76030667D01*
X107611334Y-76079048D01*
X107653667Y-76127429D01*
X107696000Y-76224190D01*
X107696000Y-76466095D01*
X107653667Y-76562857D01*
X107611334Y-76611238D01*
X107526667Y-76659619D01*
X107315000Y-76659619D01*
X107230334Y-76611238D01*
X107188000Y-76562857D01*
D14*
X104708476Y-69124286D02*
X104660095Y-69196857D01*
X104514952Y-69269429D01*
X104418190Y-69269429D01*
X104273048Y-69196857D01*
X104176286Y-69051714D01*
X104127905Y-68906571D01*
X104079524Y-68616286D01*
X104079524Y-68398571D01*
X104127905Y-68108286D01*
X104176286Y-67963143D01*
X104273048Y-67818000D01*
X104418190Y-67745429D01*
X104514952Y-67745429D01*
X104660095Y-67818000D01*
X104708476Y-67890571D01*
X105143905Y-69269429D02*
X105143905Y-67745429D01*
X105724476Y-69269429D01*
X105724476Y-67745429D01*
X106111524Y-67745429D02*
X106740476Y-67745429D01*
X106401810Y-68326000D01*
X106546952Y-68326000D01*
X106643714Y-68398571D01*
X106692095Y-68471143D01*
X106740476Y-68616286D01*
X106740476Y-68979143D01*
X106692095Y-69124286D01*
X106643714Y-69196857D01*
X106546952Y-69269429D01*
X106256667Y-69269429D01*
X106159905Y-69196857D01*
X106111524Y-69124286D01*
X147253476Y-69124286D02*
X147205095Y-69196857D01*
X147059952Y-69269429D01*
X146963190Y-69269429D01*
X146818048Y-69196857D01*
X146721286Y-69051714D01*
X146672905Y-68906571D01*
X146624524Y-68616286D01*
X146624524Y-68398571D01*
X146672905Y-68108286D01*
X146721286Y-67963143D01*
X146818048Y-67818000D01*
X146963190Y-67745429D01*
X147059952Y-67745429D01*
X147205095Y-67818000D01*
X147253476Y-67890571D01*
X147688905Y-69269429D02*
X147688905Y-67745429D01*
X148269476Y-69269429D01*
X148269476Y-67745429D01*
X149188714Y-68253429D02*
X149188714Y-69269429D01*
X148946810Y-67672857D02*
X148704905Y-68761429D01*
X149333857Y-68761429D01*
X203133476Y-69124286D02*
X203085095Y-69196857D01*
X202939952Y-69269429D01*
X202843190Y-69269429D01*
X202698048Y-69196857D01*
X202601286Y-69051714D01*
X202552905Y-68906571D01*
X202504524Y-68616286D01*
X202504524Y-68398571D01*
X202552905Y-68108286D01*
X202601286Y-67963143D01*
X202698048Y-67818000D01*
X202843190Y-67745429D01*
X202939952Y-67745429D01*
X203085095Y-67818000D01*
X203133476Y-67890571D01*
X203568905Y-69269429D02*
X203568905Y-67745429D01*
X204149476Y-69269429D01*
X204149476Y-67745429D01*
X205165476Y-69269429D02*
X204584905Y-69269429D01*
X204875191Y-69269429D02*
X204875191Y-67745429D01*
X204778429Y-67963143D01*
X204681667Y-68108286D01*
X204584905Y-68180857D01*
X185988476Y-69124286D02*
X185940095Y-69196857D01*
X185794952Y-69269429D01*
X185698190Y-69269429D01*
X185553048Y-69196857D01*
X185456286Y-69051714D01*
X185407905Y-68906571D01*
X185359524Y-68616286D01*
X185359524Y-68398571D01*
X185407905Y-68108286D01*
X185456286Y-67963143D01*
X185553048Y-67818000D01*
X185698190Y-67745429D01*
X185794952Y-67745429D01*
X185940095Y-67818000D01*
X185988476Y-67890571D01*
X186423905Y-69269429D02*
X186423905Y-67745429D01*
X187004476Y-69269429D01*
X187004476Y-67745429D01*
X187972095Y-67745429D02*
X187488286Y-67745429D01*
X187439905Y-68471143D01*
X187488286Y-68398571D01*
X187585048Y-68326000D01*
X187826952Y-68326000D01*
X187923714Y-68398571D01*
X187972095Y-68471143D01*
X188020476Y-68616286D01*
X188020476Y-68979143D01*
X187972095Y-69124286D01*
X187923714Y-69196857D01*
X187826952Y-69269429D01*
X187585048Y-69269429D01*
X187488286Y-69196857D01*
X187439905Y-69124286D01*
X155508476Y-69124286D02*
X155460095Y-69196857D01*
X155314952Y-69269429D01*
X155218190Y-69269429D01*
X155073048Y-69196857D01*
X154976286Y-69051714D01*
X154927905Y-68906571D01*
X154879524Y-68616286D01*
X154879524Y-68398571D01*
X154927905Y-68108286D01*
X154976286Y-67963143D01*
X155073048Y-67818000D01*
X155218190Y-67745429D01*
X155314952Y-67745429D01*
X155460095Y-67818000D01*
X155508476Y-67890571D01*
X155943905Y-69269429D02*
X155943905Y-67745429D01*
X156524476Y-69269429D01*
X156524476Y-67745429D01*
X156959905Y-67890571D02*
X157008286Y-67818000D01*
X157105048Y-67745429D01*
X157346952Y-67745429D01*
X157443714Y-67818000D01*
X157492095Y-67890571D01*
X157540476Y-68035714D01*
X157540476Y-68180857D01*
X157492095Y-68398571D01*
X156911524Y-69269429D01*
X157540476Y-69269429D01*
D13*
X155653619Y-101587904D02*
X155653619Y-101007333D01*
X156669619Y-101297618D02*
X155653619Y-101297618D01*
X156669619Y-100136476D02*
X156669619Y-100717047D01*
X156669619Y-100426761D02*
X155653619Y-100426761D01*
X155798762Y-100523523D01*
X155895524Y-100620285D01*
X155943905Y-100717047D01*
X155653619Y-99265619D02*
X155653619Y-99459142D01*
X155702000Y-99555904D01*
X155750381Y-99604285D01*
X155895524Y-99701047D01*
X156089048Y-99749428D01*
X156476095Y-99749428D01*
X156572857Y-99701047D01*
X156621238Y-99652666D01*
X156669619Y-99555904D01*
X156669619Y-99362381D01*
X156621238Y-99265619D01*
X156572857Y-99217238D01*
X156476095Y-99168857D01*
X156234190Y-99168857D01*
X156137429Y-99217238D01*
X156089048Y-99265619D01*
X156040667Y-99362381D01*
X156040667Y-99555904D01*
X156089048Y-99652666D01*
X156137429Y-99701047D01*
X156234190Y-99749428D01*
X165027429Y-102216857D02*
X165075810Y-102071714D01*
X165124190Y-102023333D01*
X165220952Y-101974952D01*
X165366095Y-101974952D01*
X165462857Y-102023333D01*
X165511238Y-102071714D01*
X165559619Y-102168476D01*
X165559619Y-102555523D01*
X164543619Y-102555523D01*
X164543619Y-102216857D01*
X164592000Y-102120095D01*
X164640381Y-102071714D01*
X164737143Y-102023333D01*
X164833905Y-102023333D01*
X164930667Y-102071714D01*
X164979048Y-102120095D01*
X165027429Y-102216857D01*
X165027429Y-102555523D01*
X165462857Y-100958952D02*
X165511238Y-101007333D01*
X165559619Y-101152476D01*
X165559619Y-101249238D01*
X165511238Y-101394380D01*
X165414476Y-101491142D01*
X165317714Y-101539523D01*
X165124190Y-101587904D01*
X164979048Y-101587904D01*
X164785524Y-101539523D01*
X164688762Y-101491142D01*
X164592000Y-101394380D01*
X164543619Y-101249238D01*
X164543619Y-101152476D01*
X164592000Y-101007333D01*
X164640381Y-100958952D01*
X165559619Y-99991333D02*
X165559619Y-100571904D01*
X165559619Y-100281618D02*
X164543619Y-100281618D01*
X164688762Y-100378380D01*
X164785524Y-100475142D01*
X164833905Y-100571904D01*
X164979048Y-99410761D02*
X164930667Y-99507523D01*
X164882286Y-99555904D01*
X164785524Y-99604285D01*
X164737143Y-99604285D01*
X164640381Y-99555904D01*
X164592000Y-99507523D01*
X164543619Y-99410761D01*
X164543619Y-99217238D01*
X164592000Y-99120476D01*
X164640381Y-99072095D01*
X164737143Y-99023714D01*
X164785524Y-99023714D01*
X164882286Y-99072095D01*
X164930667Y-99120476D01*
X164979048Y-99217238D01*
X164979048Y-99410761D01*
X165027429Y-99507523D01*
X165075810Y-99555904D01*
X165172571Y-99604285D01*
X165366095Y-99604285D01*
X165462857Y-99555904D01*
X165511238Y-99507523D01*
X165559619Y-99410761D01*
X165559619Y-99217238D01*
X165511238Y-99120476D01*
X165462857Y-99072095D01*
X165366095Y-99023714D01*
X165172571Y-99023714D01*
X165075810Y-99072095D01*
X165027429Y-99120476D01*
X164979048Y-99217238D01*
X164640381Y-98636666D02*
X164592000Y-98588285D01*
X164543619Y-98491523D01*
X164543619Y-98249619D01*
X164592000Y-98152857D01*
X164640381Y-98104476D01*
X164737143Y-98056095D01*
X164833905Y-98056095D01*
X164979048Y-98104476D01*
X165559619Y-98685047D01*
X165559619Y-98056095D01*
X155653619Y-109207904D02*
X155653619Y-108627333D01*
X156669619Y-108917618D02*
X155653619Y-108917618D01*
X156669619Y-107756476D02*
X156669619Y-108337047D01*
X156669619Y-108046761D02*
X155653619Y-108046761D01*
X155798762Y-108143523D01*
X155895524Y-108240285D01*
X155943905Y-108337047D01*
X155653619Y-107417809D02*
X155653619Y-106740476D01*
X156669619Y-107175904D01*
X165027429Y-109836857D02*
X165075810Y-109691714D01*
X165124190Y-109643333D01*
X165220952Y-109594952D01*
X165366095Y-109594952D01*
X165462857Y-109643333D01*
X165511238Y-109691714D01*
X165559619Y-109788476D01*
X165559619Y-110175523D01*
X164543619Y-110175523D01*
X164543619Y-109836857D01*
X164592000Y-109740095D01*
X164640381Y-109691714D01*
X164737143Y-109643333D01*
X164833905Y-109643333D01*
X164930667Y-109691714D01*
X164979048Y-109740095D01*
X165027429Y-109836857D01*
X165027429Y-110175523D01*
X165462857Y-108578952D02*
X165511238Y-108627333D01*
X165559619Y-108772476D01*
X165559619Y-108869238D01*
X165511238Y-109014380D01*
X165414476Y-109111142D01*
X165317714Y-109159523D01*
X165124190Y-109207904D01*
X164979048Y-109207904D01*
X164785524Y-109159523D01*
X164688762Y-109111142D01*
X164592000Y-109014380D01*
X164543619Y-108869238D01*
X164543619Y-108772476D01*
X164592000Y-108627333D01*
X164640381Y-108578952D01*
X165559619Y-107611333D02*
X165559619Y-108191904D01*
X165559619Y-107901618D02*
X164543619Y-107901618D01*
X164688762Y-107998380D01*
X164785524Y-108095142D01*
X164833905Y-108191904D01*
X164979048Y-107030761D02*
X164930667Y-107127523D01*
X164882286Y-107175904D01*
X164785524Y-107224285D01*
X164737143Y-107224285D01*
X164640381Y-107175904D01*
X164592000Y-107127523D01*
X164543619Y-107030761D01*
X164543619Y-106837238D01*
X164592000Y-106740476D01*
X164640381Y-106692095D01*
X164737143Y-106643714D01*
X164785524Y-106643714D01*
X164882286Y-106692095D01*
X164930667Y-106740476D01*
X164979048Y-106837238D01*
X164979048Y-107030761D01*
X165027429Y-107127523D01*
X165075810Y-107175904D01*
X165172571Y-107224285D01*
X165366095Y-107224285D01*
X165462857Y-107175904D01*
X165511238Y-107127523D01*
X165559619Y-107030761D01*
X165559619Y-106837238D01*
X165511238Y-106740476D01*
X165462857Y-106692095D01*
X165366095Y-106643714D01*
X165172571Y-106643714D01*
X165075810Y-106692095D01*
X165027429Y-106740476D01*
X164979048Y-106837238D01*
X164640381Y-106256666D02*
X164592000Y-106208285D01*
X164543619Y-106111523D01*
X164543619Y-105869619D01*
X164592000Y-105772857D01*
X164640381Y-105724476D01*
X164737143Y-105676095D01*
X164833905Y-105676095D01*
X164979048Y-105724476D01*
X165559619Y-106305047D01*
X165559619Y-105676095D01*
X155653619Y-86347904D02*
X155653619Y-85767333D01*
X156669619Y-86057618D02*
X155653619Y-86057618D01*
X156669619Y-84896476D02*
X156669619Y-85477047D01*
X156669619Y-85186761D02*
X155653619Y-85186761D01*
X155798762Y-85283523D01*
X155895524Y-85380285D01*
X155943905Y-85477047D01*
X156089048Y-84315904D02*
X156040667Y-84412666D01*
X155992286Y-84461047D01*
X155895524Y-84509428D01*
X155847143Y-84509428D01*
X155750381Y-84461047D01*
X155702000Y-84412666D01*
X155653619Y-84315904D01*
X155653619Y-84122381D01*
X155702000Y-84025619D01*
X155750381Y-83977238D01*
X155847143Y-83928857D01*
X155895524Y-83928857D01*
X155992286Y-83977238D01*
X156040667Y-84025619D01*
X156089048Y-84122381D01*
X156089048Y-84315904D01*
X156137429Y-84412666D01*
X156185810Y-84461047D01*
X156282571Y-84509428D01*
X156476095Y-84509428D01*
X156572857Y-84461047D01*
X156621238Y-84412666D01*
X156669619Y-84315904D01*
X156669619Y-84122381D01*
X156621238Y-84025619D01*
X156572857Y-83977238D01*
X156476095Y-83928857D01*
X156282571Y-83928857D01*
X156185810Y-83977238D01*
X156137429Y-84025619D01*
X156089048Y-84122381D01*
X165027429Y-86976857D02*
X165075810Y-86831714D01*
X165124190Y-86783333D01*
X165220952Y-86734952D01*
X165366095Y-86734952D01*
X165462857Y-86783333D01*
X165511238Y-86831714D01*
X165559619Y-86928476D01*
X165559619Y-87315523D01*
X164543619Y-87315523D01*
X164543619Y-86976857D01*
X164592000Y-86880095D01*
X164640381Y-86831714D01*
X164737143Y-86783333D01*
X164833905Y-86783333D01*
X164930667Y-86831714D01*
X164979048Y-86880095D01*
X165027429Y-86976857D01*
X165027429Y-87315523D01*
X165462857Y-85718952D02*
X165511238Y-85767333D01*
X165559619Y-85912476D01*
X165559619Y-86009238D01*
X165511238Y-86154380D01*
X165414476Y-86251142D01*
X165317714Y-86299523D01*
X165124190Y-86347904D01*
X164979048Y-86347904D01*
X164785524Y-86299523D01*
X164688762Y-86251142D01*
X164592000Y-86154380D01*
X164543619Y-86009238D01*
X164543619Y-85912476D01*
X164592000Y-85767333D01*
X164640381Y-85718952D01*
X165559619Y-84751333D02*
X165559619Y-85331904D01*
X165559619Y-85041618D02*
X164543619Y-85041618D01*
X164688762Y-85138380D01*
X164785524Y-85235142D01*
X164833905Y-85331904D01*
X164979048Y-84170761D02*
X164930667Y-84267523D01*
X164882286Y-84315904D01*
X164785524Y-84364285D01*
X164737143Y-84364285D01*
X164640381Y-84315904D01*
X164592000Y-84267523D01*
X164543619Y-84170761D01*
X164543619Y-83977238D01*
X164592000Y-83880476D01*
X164640381Y-83832095D01*
X164737143Y-83783714D01*
X164785524Y-83783714D01*
X164882286Y-83832095D01*
X164930667Y-83880476D01*
X164979048Y-83977238D01*
X164979048Y-84170761D01*
X165027429Y-84267523D01*
X165075810Y-84315904D01*
X165172571Y-84364285D01*
X165366095Y-84364285D01*
X165462857Y-84315904D01*
X165511238Y-84267523D01*
X165559619Y-84170761D01*
X165559619Y-83977238D01*
X165511238Y-83880476D01*
X165462857Y-83832095D01*
X165366095Y-83783714D01*
X165172571Y-83783714D01*
X165075810Y-83832095D01*
X165027429Y-83880476D01*
X164979048Y-83977238D01*
X164640381Y-83396666D02*
X164592000Y-83348285D01*
X164543619Y-83251523D01*
X164543619Y-83009619D01*
X164592000Y-82912857D01*
X164640381Y-82864476D01*
X164737143Y-82816095D01*
X164833905Y-82816095D01*
X164979048Y-82864476D01*
X165559619Y-83445047D01*
X165559619Y-82816095D01*
X155653619Y-93967904D02*
X155653619Y-93387333D01*
X156669619Y-93677618D02*
X155653619Y-93677618D01*
X156669619Y-92516476D02*
X156669619Y-93097047D01*
X156669619Y-92806761D02*
X155653619Y-92806761D01*
X155798762Y-92903523D01*
X155895524Y-93000285D01*
X155943905Y-93097047D01*
X156669619Y-92032666D02*
X156669619Y-91839142D01*
X156621238Y-91742381D01*
X156572857Y-91694000D01*
X156427714Y-91597238D01*
X156234190Y-91548857D01*
X155847143Y-91548857D01*
X155750381Y-91597238D01*
X155702000Y-91645619D01*
X155653619Y-91742381D01*
X155653619Y-91935904D01*
X155702000Y-92032666D01*
X155750381Y-92081047D01*
X155847143Y-92129428D01*
X156089048Y-92129428D01*
X156185810Y-92081047D01*
X156234190Y-92032666D01*
X156282571Y-91935904D01*
X156282571Y-91742381D01*
X156234190Y-91645619D01*
X156185810Y-91597238D01*
X156089048Y-91548857D01*
X165027429Y-94596857D02*
X165075810Y-94451714D01*
X165124190Y-94403333D01*
X165220952Y-94354952D01*
X165366095Y-94354952D01*
X165462857Y-94403333D01*
X165511238Y-94451714D01*
X165559619Y-94548476D01*
X165559619Y-94935523D01*
X164543619Y-94935523D01*
X164543619Y-94596857D01*
X164592000Y-94500095D01*
X164640381Y-94451714D01*
X164737143Y-94403333D01*
X164833905Y-94403333D01*
X164930667Y-94451714D01*
X164979048Y-94500095D01*
X165027429Y-94596857D01*
X165027429Y-94935523D01*
X165462857Y-93338952D02*
X165511238Y-93387333D01*
X165559619Y-93532476D01*
X165559619Y-93629238D01*
X165511238Y-93774380D01*
X165414476Y-93871142D01*
X165317714Y-93919523D01*
X165124190Y-93967904D01*
X164979048Y-93967904D01*
X164785524Y-93919523D01*
X164688762Y-93871142D01*
X164592000Y-93774380D01*
X164543619Y-93629238D01*
X164543619Y-93532476D01*
X164592000Y-93387333D01*
X164640381Y-93338952D01*
X165559619Y-92371333D02*
X165559619Y-92951904D01*
X165559619Y-92661618D02*
X164543619Y-92661618D01*
X164688762Y-92758380D01*
X164785524Y-92855142D01*
X164833905Y-92951904D01*
X164979048Y-91790761D02*
X164930667Y-91887523D01*
X164882286Y-91935904D01*
X164785524Y-91984285D01*
X164737143Y-91984285D01*
X164640381Y-91935904D01*
X164592000Y-91887523D01*
X164543619Y-91790761D01*
X164543619Y-91597238D01*
X164592000Y-91500476D01*
X164640381Y-91452095D01*
X164737143Y-91403714D01*
X164785524Y-91403714D01*
X164882286Y-91452095D01*
X164930667Y-91500476D01*
X164979048Y-91597238D01*
X164979048Y-91790761D01*
X165027429Y-91887523D01*
X165075810Y-91935904D01*
X165172571Y-91984285D01*
X165366095Y-91984285D01*
X165462857Y-91935904D01*
X165511238Y-91887523D01*
X165559619Y-91790761D01*
X165559619Y-91597238D01*
X165511238Y-91500476D01*
X165462857Y-91452095D01*
X165366095Y-91403714D01*
X165172571Y-91403714D01*
X165075810Y-91452095D01*
X165027429Y-91500476D01*
X164979048Y-91597238D01*
X164640381Y-91016666D02*
X164592000Y-90968285D01*
X164543619Y-90871523D01*
X164543619Y-90629619D01*
X164592000Y-90532857D01*
X164640381Y-90484476D01*
X164737143Y-90436095D01*
X164833905Y-90436095D01*
X164979048Y-90484476D01*
X165559619Y-91065047D01*
X165559619Y-90436095D01*
X155653619Y-78727904D02*
X155653619Y-78147333D01*
X156669619Y-78437618D02*
X155653619Y-78437618D01*
X155750381Y-77857047D02*
X155702000Y-77808666D01*
X155653619Y-77711904D01*
X155653619Y-77470000D01*
X155702000Y-77373238D01*
X155750381Y-77324857D01*
X155847143Y-77276476D01*
X155943905Y-77276476D01*
X156089048Y-77324857D01*
X156669619Y-77905428D01*
X156669619Y-77276476D01*
X155653619Y-76647523D02*
X155653619Y-76550762D01*
X155702000Y-76454000D01*
X155750381Y-76405619D01*
X155847143Y-76357238D01*
X156040667Y-76308857D01*
X156282571Y-76308857D01*
X156476095Y-76357238D01*
X156572857Y-76405619D01*
X156621238Y-76454000D01*
X156669619Y-76550762D01*
X156669619Y-76647523D01*
X156621238Y-76744285D01*
X156572857Y-76792666D01*
X156476095Y-76841047D01*
X156282571Y-76889428D01*
X156040667Y-76889428D01*
X155847143Y-76841047D01*
X155750381Y-76792666D01*
X155702000Y-76744285D01*
X155653619Y-76647523D01*
X165027429Y-79356857D02*
X165075810Y-79211714D01*
X165124190Y-79163333D01*
X165220952Y-79114952D01*
X165366095Y-79114952D01*
X165462857Y-79163333D01*
X165511238Y-79211714D01*
X165559619Y-79308476D01*
X165559619Y-79695523D01*
X164543619Y-79695523D01*
X164543619Y-79356857D01*
X164592000Y-79260095D01*
X164640381Y-79211714D01*
X164737143Y-79163333D01*
X164833905Y-79163333D01*
X164930667Y-79211714D01*
X164979048Y-79260095D01*
X165027429Y-79356857D01*
X165027429Y-79695523D01*
X165462857Y-78098952D02*
X165511238Y-78147333D01*
X165559619Y-78292476D01*
X165559619Y-78389238D01*
X165511238Y-78534380D01*
X165414476Y-78631142D01*
X165317714Y-78679523D01*
X165124190Y-78727904D01*
X164979048Y-78727904D01*
X164785524Y-78679523D01*
X164688762Y-78631142D01*
X164592000Y-78534380D01*
X164543619Y-78389238D01*
X164543619Y-78292476D01*
X164592000Y-78147333D01*
X164640381Y-78098952D01*
X165559619Y-77131333D02*
X165559619Y-77711904D01*
X165559619Y-77421618D02*
X164543619Y-77421618D01*
X164688762Y-77518380D01*
X164785524Y-77615142D01*
X164833905Y-77711904D01*
X164979048Y-76550761D02*
X164930667Y-76647523D01*
X164882286Y-76695904D01*
X164785524Y-76744285D01*
X164737143Y-76744285D01*
X164640381Y-76695904D01*
X164592000Y-76647523D01*
X164543619Y-76550761D01*
X164543619Y-76357238D01*
X164592000Y-76260476D01*
X164640381Y-76212095D01*
X164737143Y-76163714D01*
X164785524Y-76163714D01*
X164882286Y-76212095D01*
X164930667Y-76260476D01*
X164979048Y-76357238D01*
X164979048Y-76550761D01*
X165027429Y-76647523D01*
X165075810Y-76695904D01*
X165172571Y-76744285D01*
X165366095Y-76744285D01*
X165462857Y-76695904D01*
X165511238Y-76647523D01*
X165559619Y-76550761D01*
X165559619Y-76357238D01*
X165511238Y-76260476D01*
X165462857Y-76212095D01*
X165366095Y-76163714D01*
X165172571Y-76163714D01*
X165075810Y-76212095D01*
X165027429Y-76260476D01*
X164979048Y-76357238D01*
X164640381Y-75776666D02*
X164592000Y-75728285D01*
X164543619Y-75631523D01*
X164543619Y-75389619D01*
X164592000Y-75292857D01*
X164640381Y-75244476D01*
X164737143Y-75196095D01*
X164833905Y-75196095D01*
X164979048Y-75244476D01*
X165559619Y-75825047D01*
X165559619Y-75196095D01*
X112391976Y-108766429D02*
X111726738Y-109189762D01*
X112391976Y-109492143D02*
X110994976Y-109492143D01*
X110994976Y-109008334D01*
X111061500Y-108887381D01*
X111128024Y-108826905D01*
X111261071Y-108766429D01*
X111460643Y-108766429D01*
X111593690Y-108826905D01*
X111660214Y-108887381D01*
X111726738Y-109008334D01*
X111726738Y-109492143D01*
X111128024Y-108282619D02*
X111061500Y-108222143D01*
X110994976Y-108101191D01*
X110994976Y-107798810D01*
X111061500Y-107677857D01*
X111128024Y-107617381D01*
X111261071Y-107556905D01*
X111394119Y-107556905D01*
X111593690Y-107617381D01*
X112391976Y-108343095D01*
X112391976Y-107556905D01*
X112391976Y-106347381D02*
X112391976Y-107073095D01*
X112391976Y-106710238D02*
X110994976Y-106710238D01*
X111194548Y-106831190D01*
X111327595Y-106952143D01*
X111394119Y-107073095D01*
X89531976Y-108766429D02*
X88866738Y-109189762D01*
X89531976Y-109492143D02*
X88134976Y-109492143D01*
X88134976Y-109008334D01*
X88201500Y-108887381D01*
X88268024Y-108826905D01*
X88401071Y-108766429D01*
X88600643Y-108766429D01*
X88733690Y-108826905D01*
X88800214Y-108887381D01*
X88866738Y-109008334D01*
X88866738Y-109492143D01*
X88268024Y-108282619D02*
X88201500Y-108222143D01*
X88134976Y-108101191D01*
X88134976Y-107798810D01*
X88201500Y-107677857D01*
X88268024Y-107617381D01*
X88401071Y-107556905D01*
X88534119Y-107556905D01*
X88733690Y-107617381D01*
X89531976Y-108343095D01*
X89531976Y-107556905D01*
X88134976Y-106770714D02*
X88134976Y-106649762D01*
X88201500Y-106528810D01*
X88268024Y-106468333D01*
X88401071Y-106407857D01*
X88667167Y-106347381D01*
X88999786Y-106347381D01*
X89265881Y-106407857D01*
X89398929Y-106468333D01*
X89465452Y-106528810D01*
X89531976Y-106649762D01*
X89531976Y-106770714D01*
X89465452Y-106891667D01*
X89398929Y-106952143D01*
X89265881Y-107012619D01*
X88999786Y-107073095D01*
X88667167Y-107073095D01*
X88401071Y-107012619D01*
X88268024Y-106952143D01*
X88201500Y-106891667D01*
X88134976Y-106770714D01*
X173173571Y-89531976D02*
X172750238Y-88866738D01*
X172447857Y-89531976D02*
X172447857Y-88134976D01*
X172931666Y-88134976D01*
X173052619Y-88201500D01*
X173113095Y-88268024D01*
X173173571Y-88401071D01*
X173173571Y-88600643D01*
X173113095Y-88733690D01*
X173052619Y-88800214D01*
X172931666Y-88866738D01*
X172447857Y-88866738D01*
X174383095Y-89531976D02*
X173657381Y-89531976D01*
X174020238Y-89531976D02*
X174020238Y-88134976D01*
X173899286Y-88334548D01*
X173778333Y-88467595D01*
X173657381Y-88534119D01*
X174987857Y-89531976D02*
X175229762Y-89531976D01*
X175350714Y-89465452D01*
X175411190Y-89398929D01*
X175532143Y-89199357D01*
X175592619Y-88933262D01*
X175592619Y-88401071D01*
X175532143Y-88268024D01*
X175471667Y-88201500D01*
X175350714Y-88134976D01*
X175108810Y-88134976D01*
X174987857Y-88201500D01*
X174927381Y-88268024D01*
X174866905Y-88401071D01*
X174866905Y-88733690D01*
X174927381Y-88866738D01*
X174987857Y-88933262D01*
X175108810Y-88999786D01*
X175350714Y-88999786D01*
X175471667Y-88933262D01*
X175532143Y-88866738D01*
X175592619Y-88733690D01*
X97151976Y-108766429D02*
X96486738Y-109189762D01*
X97151976Y-109492143D02*
X95754976Y-109492143D01*
X95754976Y-109008334D01*
X95821500Y-108887381D01*
X95888024Y-108826905D01*
X96021071Y-108766429D01*
X96220643Y-108766429D01*
X96353690Y-108826905D01*
X96420214Y-108887381D01*
X96486738Y-109008334D01*
X96486738Y-109492143D01*
X97151976Y-107556905D02*
X97151976Y-108282619D01*
X97151976Y-107919762D02*
X95754976Y-107919762D01*
X95954548Y-108040714D01*
X96087595Y-108161667D01*
X96154119Y-108282619D01*
X96353690Y-106831190D02*
X96287167Y-106952143D01*
X96220643Y-107012619D01*
X96087595Y-107073095D01*
X96021071Y-107073095D01*
X95888024Y-107012619D01*
X95821500Y-106952143D01*
X95754976Y-106831190D01*
X95754976Y-106589286D01*
X95821500Y-106468333D01*
X95888024Y-106407857D01*
X96021071Y-106347381D01*
X96087595Y-106347381D01*
X96220643Y-106407857D01*
X96287167Y-106468333D01*
X96353690Y-106589286D01*
X96353690Y-106831190D01*
X96420214Y-106952143D01*
X96486738Y-107012619D01*
X96619786Y-107073095D01*
X96885881Y-107073095D01*
X97018929Y-107012619D01*
X97085452Y-106952143D01*
X97151976Y-106831190D01*
X97151976Y-106589286D01*
X97085452Y-106468333D01*
X97018929Y-106407857D01*
X96885881Y-106347381D01*
X96619786Y-106347381D01*
X96486738Y-106407857D01*
X96420214Y-106468333D01*
X96353690Y-106589286D01*
X93341976Y-108766429D02*
X92676738Y-109189762D01*
X93341976Y-109492143D02*
X91944976Y-109492143D01*
X91944976Y-109008334D01*
X92011500Y-108887381D01*
X92078024Y-108826905D01*
X92211071Y-108766429D01*
X92410643Y-108766429D01*
X92543690Y-108826905D01*
X92610214Y-108887381D01*
X92676738Y-109008334D01*
X92676738Y-109492143D01*
X93341976Y-107556905D02*
X93341976Y-108282619D01*
X93341976Y-107919762D02*
X91944976Y-107919762D01*
X92144548Y-108040714D01*
X92277595Y-108161667D01*
X92344119Y-108282619D01*
X91944976Y-107133571D02*
X91944976Y-106286905D01*
X93341976Y-106831190D01*
X108581976Y-108766429D02*
X107916738Y-109189762D01*
X108581976Y-109492143D02*
X107184976Y-109492143D01*
X107184976Y-109008334D01*
X107251500Y-108887381D01*
X107318024Y-108826905D01*
X107451071Y-108766429D01*
X107650643Y-108766429D01*
X107783690Y-108826905D01*
X107850214Y-108887381D01*
X107916738Y-109008334D01*
X107916738Y-109492143D01*
X108581976Y-107556905D02*
X108581976Y-108282619D01*
X108581976Y-107919762D02*
X107184976Y-107919762D01*
X107384548Y-108040714D01*
X107517595Y-108161667D01*
X107584119Y-108282619D01*
X107184976Y-106468333D02*
X107184976Y-106710238D01*
X107251500Y-106831190D01*
X107318024Y-106891667D01*
X107517595Y-107012619D01*
X107783690Y-107073095D01*
X108315881Y-107073095D01*
X108448929Y-107012619D01*
X108515452Y-106952143D01*
X108581976Y-106831190D01*
X108581976Y-106589286D01*
X108515452Y-106468333D01*
X108448929Y-106407857D01*
X108315881Y-106347381D01*
X107983262Y-106347381D01*
X107850214Y-106407857D01*
X107783690Y-106468333D01*
X107717167Y-106589286D01*
X107717167Y-106831190D01*
X107783690Y-106952143D01*
X107850214Y-107012619D01*
X107983262Y-107073095D01*
X131441976Y-108766429D02*
X130776738Y-109189762D01*
X131441976Y-109492143D02*
X130044976Y-109492143D01*
X130044976Y-109008334D01*
X130111500Y-108887381D01*
X130178024Y-108826905D01*
X130311071Y-108766429D01*
X130510643Y-108766429D01*
X130643690Y-108826905D01*
X130710214Y-108887381D01*
X130776738Y-109008334D01*
X130776738Y-109492143D01*
X131441976Y-107556905D02*
X131441976Y-108282619D01*
X131441976Y-107919762D02*
X130044976Y-107919762D01*
X130244548Y-108040714D01*
X130377595Y-108161667D01*
X130444119Y-108282619D01*
X130044976Y-106407857D02*
X130044976Y-107012619D01*
X130710214Y-107073095D01*
X130643690Y-107012619D01*
X130577167Y-106891667D01*
X130577167Y-106589286D01*
X130643690Y-106468333D01*
X130710214Y-106407857D01*
X130843262Y-106347381D01*
X131175881Y-106347381D01*
X131308929Y-106407857D01*
X131375452Y-106468333D01*
X131441976Y-106589286D01*
X131441976Y-106891667D01*
X131375452Y-107012619D01*
X131308929Y-107073095D01*
X100961976Y-108766429D02*
X100296738Y-109189762D01*
X100961976Y-109492143D02*
X99564976Y-109492143D01*
X99564976Y-109008334D01*
X99631500Y-108887381D01*
X99698024Y-108826905D01*
X99831071Y-108766429D01*
X100030643Y-108766429D01*
X100163690Y-108826905D01*
X100230214Y-108887381D01*
X100296738Y-109008334D01*
X100296738Y-109492143D01*
X100961976Y-107556905D02*
X100961976Y-108282619D01*
X100961976Y-107919762D02*
X99564976Y-107919762D01*
X99764548Y-108040714D01*
X99897595Y-108161667D01*
X99964119Y-108282619D01*
X100030643Y-106468333D02*
X100961976Y-106468333D01*
X99498452Y-106770714D02*
X100496310Y-107073095D01*
X100496310Y-106286905D01*
X123821976Y-108766429D02*
X123156738Y-109189762D01*
X123821976Y-109492143D02*
X122424976Y-109492143D01*
X122424976Y-109008334D01*
X122491500Y-108887381D01*
X122558024Y-108826905D01*
X122691071Y-108766429D01*
X122890643Y-108766429D01*
X123023690Y-108826905D01*
X123090214Y-108887381D01*
X123156738Y-109008334D01*
X123156738Y-109492143D01*
X123821976Y-107556905D02*
X123821976Y-108282619D01*
X123821976Y-107919762D02*
X122424976Y-107919762D01*
X122624548Y-108040714D01*
X122757595Y-108161667D01*
X122824119Y-108282619D01*
X122424976Y-107133571D02*
X122424976Y-106347381D01*
X122957167Y-106770714D01*
X122957167Y-106589286D01*
X123023690Y-106468333D01*
X123090214Y-106407857D01*
X123223262Y-106347381D01*
X123555881Y-106347381D01*
X123688929Y-106407857D01*
X123755452Y-106468333D01*
X123821976Y-106589286D01*
X123821976Y-106952143D01*
X123755452Y-107073095D01*
X123688929Y-107133571D01*
X120011976Y-108766429D02*
X119346738Y-109189762D01*
X120011976Y-109492143D02*
X118614976Y-109492143D01*
X118614976Y-109008334D01*
X118681500Y-108887381D01*
X118748024Y-108826905D01*
X118881071Y-108766429D01*
X119080643Y-108766429D01*
X119213690Y-108826905D01*
X119280214Y-108887381D01*
X119346738Y-109008334D01*
X119346738Y-109492143D01*
X120011976Y-107556905D02*
X120011976Y-108282619D01*
X120011976Y-107919762D02*
X118614976Y-107919762D01*
X118814548Y-108040714D01*
X118947595Y-108161667D01*
X119014119Y-108282619D01*
X118748024Y-107073095D02*
X118681500Y-107012619D01*
X118614976Y-106891667D01*
X118614976Y-106589286D01*
X118681500Y-106468333D01*
X118748024Y-106407857D01*
X118881071Y-106347381D01*
X119014119Y-106347381D01*
X119213690Y-106407857D01*
X120011976Y-107133571D01*
X120011976Y-106347381D01*
X104771976Y-108766429D02*
X104106738Y-109189762D01*
X104771976Y-109492143D02*
X103374976Y-109492143D01*
X103374976Y-109008334D01*
X103441500Y-108887381D01*
X103508024Y-108826905D01*
X103641071Y-108766429D01*
X103840643Y-108766429D01*
X103973690Y-108826905D01*
X104040214Y-108887381D01*
X104106738Y-109008334D01*
X104106738Y-109492143D01*
X104771976Y-107556905D02*
X104771976Y-108282619D01*
X104771976Y-107919762D02*
X103374976Y-107919762D01*
X103574548Y-108040714D01*
X103707595Y-108161667D01*
X103774119Y-108282619D01*
X104771976Y-106347381D02*
X104771976Y-107073095D01*
X104771976Y-106710238D02*
X103374976Y-106710238D01*
X103574548Y-106831190D01*
X103707595Y-106952143D01*
X103774119Y-107073095D01*
X127631976Y-108766429D02*
X126966738Y-109189762D01*
X127631976Y-109492143D02*
X126234976Y-109492143D01*
X126234976Y-109008334D01*
X126301500Y-108887381D01*
X126368024Y-108826905D01*
X126501071Y-108766429D01*
X126700643Y-108766429D01*
X126833690Y-108826905D01*
X126900214Y-108887381D01*
X126966738Y-109008334D01*
X126966738Y-109492143D01*
X127631976Y-107556905D02*
X127631976Y-108282619D01*
X127631976Y-107919762D02*
X126234976Y-107919762D01*
X126434548Y-108040714D01*
X126567595Y-108161667D01*
X126634119Y-108282619D01*
X126234976Y-106770714D02*
X126234976Y-106649762D01*
X126301500Y-106528810D01*
X126368024Y-106468333D01*
X126501071Y-106407857D01*
X126767167Y-106347381D01*
X127099786Y-106347381D01*
X127365881Y-106407857D01*
X127498929Y-106468333D01*
X127565452Y-106528810D01*
X127631976Y-106649762D01*
X127631976Y-106770714D01*
X127565452Y-106891667D01*
X127498929Y-106952143D01*
X127365881Y-107012619D01*
X127099786Y-107073095D01*
X126767167Y-107073095D01*
X126501071Y-107012619D01*
X126368024Y-106952143D01*
X126301500Y-106891667D01*
X126234976Y-106770714D01*
X116201976Y-108161667D02*
X115536738Y-108585000D01*
X116201976Y-108887381D02*
X114804976Y-108887381D01*
X114804976Y-108403572D01*
X114871500Y-108282619D01*
X114938024Y-108222143D01*
X115071071Y-108161667D01*
X115270643Y-108161667D01*
X115403690Y-108222143D01*
X115470214Y-108282619D01*
X115536738Y-108403572D01*
X115536738Y-108887381D01*
X116201976Y-107556905D02*
X116201976Y-107315000D01*
X116135452Y-107194048D01*
X116068929Y-107133572D01*
X115869357Y-107012619D01*
X115603262Y-106952143D01*
X115071071Y-106952143D01*
X114938024Y-107012619D01*
X114871500Y-107073095D01*
X114804976Y-107194048D01*
X114804976Y-107435952D01*
X114871500Y-107556905D01*
X114938024Y-107617381D01*
X115071071Y-107677857D01*
X115403690Y-107677857D01*
X115536738Y-107617381D01*
X115603262Y-107556905D01*
X115669786Y-107435952D01*
X115669786Y-107194048D01*
X115603262Y-107073095D01*
X115536738Y-107012619D01*
X115403690Y-106952143D01*
M02*
