G04 #@! TF.FileFunction,Legend,Top*
%FSLAX46Y46*%
G04 Gerber Fmt 4.6, Leading zero omitted, Abs format (unit mm)*
G04 Created by KiCad (PCBNEW 4.0.5+dfsg1-4+deb9u1) date Mon Sep  5 18:03:24 2022*
%MOMM*%
%LPD*%
G01*
G04 APERTURE LIST*
%ADD10C,0.100000*%
%ADD11C,0.381000*%
%ADD12C,0.304800*%
G04 APERTURE END LIST*
D10*
D11*
X180975000Y-104140000D02*
X180975000Y-119380000D01*
X171450000Y-106045000D02*
X153670000Y-106045000D01*
X196850000Y-97155000D02*
X212090000Y-97155000D01*
X192405000Y-92710000D02*
X192405000Y-104140000D01*
X192405000Y-81280000D02*
X192405000Y-88265000D01*
X189230000Y-80010000D02*
X189230000Y-101600000D01*
X184785000Y-80010000D02*
X184785000Y-92710000D01*
X180975000Y-80010000D02*
X180975000Y-94615000D01*
X150495000Y-75565000D02*
X150495000Y-83820000D01*
X79375000Y-144145000D02*
X79375000Y-70485000D01*
X220345000Y-144145000D02*
X79375000Y-144145000D01*
X220345000Y-70485000D02*
X220345000Y-144145000D01*
X79375000Y-70485000D02*
X220345000Y-70485000D01*
D12*
X137021443Y-80010000D02*
G75*
G03X137021443Y-80010000I-5576443J0D01*
G01*
X138430000Y-137160000D02*
X137160000Y-137160000D01*
X137160000Y-137160000D02*
X137160000Y-135890000D01*
X137160000Y-135890000D02*
X127000000Y-135890000D01*
X127000000Y-135890000D02*
X127000000Y-137160000D01*
X127000000Y-137160000D02*
X125730000Y-137160000D01*
X127000000Y-137160000D02*
X127000000Y-138430000D01*
X127000000Y-138430000D02*
X137160000Y-138430000D01*
X137160000Y-138430000D02*
X137160000Y-137160000D01*
X135890000Y-135890000D02*
X135890000Y-138430000D01*
X136144000Y-135890000D02*
X136144000Y-138430000D01*
X138430000Y-133350000D02*
X137160000Y-133350000D01*
X137160000Y-133350000D02*
X137160000Y-132080000D01*
X137160000Y-132080000D02*
X127000000Y-132080000D01*
X127000000Y-132080000D02*
X127000000Y-133350000D01*
X127000000Y-133350000D02*
X125730000Y-133350000D01*
X127000000Y-133350000D02*
X127000000Y-134620000D01*
X127000000Y-134620000D02*
X137160000Y-134620000D01*
X137160000Y-134620000D02*
X137160000Y-133350000D01*
X135890000Y-132080000D02*
X135890000Y-134620000D01*
X136144000Y-132080000D02*
X136144000Y-134620000D01*
X138430000Y-129540000D02*
X137160000Y-129540000D01*
X137160000Y-129540000D02*
X137160000Y-128270000D01*
X137160000Y-128270000D02*
X127000000Y-128270000D01*
X127000000Y-128270000D02*
X127000000Y-129540000D01*
X127000000Y-129540000D02*
X125730000Y-129540000D01*
X127000000Y-129540000D02*
X127000000Y-130810000D01*
X127000000Y-130810000D02*
X137160000Y-130810000D01*
X137160000Y-130810000D02*
X137160000Y-129540000D01*
X135890000Y-128270000D02*
X135890000Y-130810000D01*
X136144000Y-128270000D02*
X136144000Y-130810000D01*
X138430000Y-125730000D02*
X137160000Y-125730000D01*
X137160000Y-125730000D02*
X137160000Y-124460000D01*
X137160000Y-124460000D02*
X127000000Y-124460000D01*
X127000000Y-124460000D02*
X127000000Y-125730000D01*
X127000000Y-125730000D02*
X125730000Y-125730000D01*
X127000000Y-125730000D02*
X127000000Y-127000000D01*
X127000000Y-127000000D02*
X137160000Y-127000000D01*
X137160000Y-127000000D02*
X137160000Y-125730000D01*
X135890000Y-124460000D02*
X135890000Y-127000000D01*
X136144000Y-124460000D02*
X136144000Y-127000000D01*
X138430000Y-121920000D02*
X137160000Y-121920000D01*
X137160000Y-121920000D02*
X137160000Y-120650000D01*
X137160000Y-120650000D02*
X127000000Y-120650000D01*
X127000000Y-120650000D02*
X127000000Y-121920000D01*
X127000000Y-121920000D02*
X125730000Y-121920000D01*
X127000000Y-121920000D02*
X127000000Y-123190000D01*
X127000000Y-123190000D02*
X137160000Y-123190000D01*
X137160000Y-123190000D02*
X137160000Y-121920000D01*
X135890000Y-120650000D02*
X135890000Y-123190000D01*
X136144000Y-120650000D02*
X136144000Y-123190000D01*
X138430000Y-118110000D02*
X137160000Y-118110000D01*
X137160000Y-118110000D02*
X137160000Y-116840000D01*
X137160000Y-116840000D02*
X127000000Y-116840000D01*
X127000000Y-116840000D02*
X127000000Y-118110000D01*
X127000000Y-118110000D02*
X125730000Y-118110000D01*
X127000000Y-118110000D02*
X127000000Y-119380000D01*
X127000000Y-119380000D02*
X137160000Y-119380000D01*
X137160000Y-119380000D02*
X137160000Y-118110000D01*
X135890000Y-116840000D02*
X135890000Y-119380000D01*
X136144000Y-116840000D02*
X136144000Y-119380000D01*
X138430000Y-114300000D02*
X137160000Y-114300000D01*
X137160000Y-114300000D02*
X137160000Y-113030000D01*
X137160000Y-113030000D02*
X127000000Y-113030000D01*
X127000000Y-113030000D02*
X127000000Y-114300000D01*
X127000000Y-114300000D02*
X125730000Y-114300000D01*
X127000000Y-114300000D02*
X127000000Y-115570000D01*
X127000000Y-115570000D02*
X137160000Y-115570000D01*
X137160000Y-115570000D02*
X137160000Y-114300000D01*
X135890000Y-113030000D02*
X135890000Y-115570000D01*
X136144000Y-113030000D02*
X136144000Y-115570000D01*
X138430000Y-110490000D02*
X137160000Y-110490000D01*
X137160000Y-110490000D02*
X137160000Y-109220000D01*
X137160000Y-109220000D02*
X127000000Y-109220000D01*
X127000000Y-109220000D02*
X127000000Y-110490000D01*
X127000000Y-110490000D02*
X125730000Y-110490000D01*
X127000000Y-110490000D02*
X127000000Y-111760000D01*
X127000000Y-111760000D02*
X137160000Y-111760000D01*
X137160000Y-111760000D02*
X137160000Y-110490000D01*
X135890000Y-109220000D02*
X135890000Y-111760000D01*
X136144000Y-109220000D02*
X136144000Y-111760000D01*
X138430000Y-106680000D02*
X137160000Y-106680000D01*
X137160000Y-106680000D02*
X137160000Y-105410000D01*
X137160000Y-105410000D02*
X127000000Y-105410000D01*
X127000000Y-105410000D02*
X127000000Y-106680000D01*
X127000000Y-106680000D02*
X125730000Y-106680000D01*
X127000000Y-106680000D02*
X127000000Y-107950000D01*
X127000000Y-107950000D02*
X137160000Y-107950000D01*
X137160000Y-107950000D02*
X137160000Y-106680000D01*
X135890000Y-105410000D02*
X135890000Y-107950000D01*
X136144000Y-105410000D02*
X136144000Y-107950000D01*
X138430000Y-102870000D02*
X137160000Y-102870000D01*
X137160000Y-102870000D02*
X137160000Y-101600000D01*
X137160000Y-101600000D02*
X127000000Y-101600000D01*
X127000000Y-101600000D02*
X127000000Y-102870000D01*
X127000000Y-102870000D02*
X125730000Y-102870000D01*
X127000000Y-102870000D02*
X127000000Y-104140000D01*
X127000000Y-104140000D02*
X137160000Y-104140000D01*
X137160000Y-104140000D02*
X137160000Y-102870000D01*
X135890000Y-101600000D02*
X135890000Y-104140000D01*
X136144000Y-101600000D02*
X136144000Y-104140000D01*
X138430000Y-99060000D02*
X137160000Y-99060000D01*
X137160000Y-99060000D02*
X137160000Y-97790000D01*
X137160000Y-97790000D02*
X127000000Y-97790000D01*
X127000000Y-97790000D02*
X127000000Y-99060000D01*
X127000000Y-99060000D02*
X125730000Y-99060000D01*
X127000000Y-99060000D02*
X127000000Y-100330000D01*
X127000000Y-100330000D02*
X137160000Y-100330000D01*
X137160000Y-100330000D02*
X137160000Y-99060000D01*
X135890000Y-97790000D02*
X135890000Y-100330000D01*
X136144000Y-97790000D02*
X136144000Y-100330000D01*
X138430000Y-95250000D02*
X137160000Y-95250000D01*
X137160000Y-95250000D02*
X137160000Y-93980000D01*
X137160000Y-93980000D02*
X127000000Y-93980000D01*
X127000000Y-93980000D02*
X127000000Y-95250000D01*
X127000000Y-95250000D02*
X125730000Y-95250000D01*
X127000000Y-95250000D02*
X127000000Y-96520000D01*
X127000000Y-96520000D02*
X137160000Y-96520000D01*
X137160000Y-96520000D02*
X137160000Y-95250000D01*
X135890000Y-93980000D02*
X135890000Y-96520000D01*
X136144000Y-93980000D02*
X136144000Y-96520000D01*
X138430000Y-91440000D02*
X137160000Y-91440000D01*
X137160000Y-91440000D02*
X137160000Y-90170000D01*
X137160000Y-90170000D02*
X127000000Y-90170000D01*
X127000000Y-90170000D02*
X127000000Y-91440000D01*
X127000000Y-91440000D02*
X125730000Y-91440000D01*
X127000000Y-91440000D02*
X127000000Y-92710000D01*
X127000000Y-92710000D02*
X137160000Y-92710000D01*
X137160000Y-92710000D02*
X137160000Y-91440000D01*
X135890000Y-90170000D02*
X135890000Y-92710000D01*
X136144000Y-90170000D02*
X136144000Y-92710000D01*
X138430000Y-87630000D02*
X137160000Y-87630000D01*
X137160000Y-87630000D02*
X137160000Y-86360000D01*
X137160000Y-86360000D02*
X127000000Y-86360000D01*
X127000000Y-86360000D02*
X127000000Y-87630000D01*
X127000000Y-87630000D02*
X125730000Y-87630000D01*
X127000000Y-87630000D02*
X127000000Y-88900000D01*
X127000000Y-88900000D02*
X137160000Y-88900000D01*
X137160000Y-88900000D02*
X137160000Y-87630000D01*
X135890000Y-86360000D02*
X135890000Y-88900000D01*
X136144000Y-86360000D02*
X136144000Y-88900000D01*
X119380000Y-138430000D02*
X106680000Y-138430000D01*
X106680000Y-138430000D02*
X106680000Y-135890000D01*
X106680000Y-135890000D02*
X119380000Y-135890000D01*
X106680000Y-137160000D02*
X105410000Y-137160000D01*
X120650000Y-137160000D02*
X119380000Y-137160000D01*
X119380000Y-137668000D02*
X118618000Y-138430000D01*
X119380000Y-138430000D02*
X119380000Y-135890000D01*
X106680000Y-132080000D02*
X119380000Y-132080000D01*
X119380000Y-132080000D02*
X119380000Y-134620000D01*
X119380000Y-134620000D02*
X106680000Y-134620000D01*
X119380000Y-133350000D02*
X120650000Y-133350000D01*
X105410000Y-133350000D02*
X106680000Y-133350000D01*
X106680000Y-132842000D02*
X107442000Y-132080000D01*
X106680000Y-132080000D02*
X106680000Y-134620000D01*
X119380000Y-130810000D02*
X106680000Y-130810000D01*
X106680000Y-130810000D02*
X106680000Y-128270000D01*
X106680000Y-128270000D02*
X119380000Y-128270000D01*
X106680000Y-129540000D02*
X105410000Y-129540000D01*
X120650000Y-129540000D02*
X119380000Y-129540000D01*
X119380000Y-130048000D02*
X118618000Y-130810000D01*
X119380000Y-130810000D02*
X119380000Y-128270000D01*
X119380000Y-127000000D02*
X106680000Y-127000000D01*
X106680000Y-127000000D02*
X106680000Y-124460000D01*
X106680000Y-124460000D02*
X119380000Y-124460000D01*
X106680000Y-125730000D02*
X105410000Y-125730000D01*
X120650000Y-125730000D02*
X119380000Y-125730000D01*
X119380000Y-126238000D02*
X118618000Y-127000000D01*
X119380000Y-127000000D02*
X119380000Y-124460000D01*
X119380000Y-123190000D02*
X106680000Y-123190000D01*
X106680000Y-123190000D02*
X106680000Y-120650000D01*
X106680000Y-120650000D02*
X119380000Y-120650000D01*
X106680000Y-121920000D02*
X105410000Y-121920000D01*
X120650000Y-121920000D02*
X119380000Y-121920000D01*
X119380000Y-122428000D02*
X118618000Y-123190000D01*
X119380000Y-123190000D02*
X119380000Y-120650000D01*
X119380000Y-119380000D02*
X106680000Y-119380000D01*
X106680000Y-119380000D02*
X106680000Y-116840000D01*
X106680000Y-116840000D02*
X119380000Y-116840000D01*
X106680000Y-118110000D02*
X105410000Y-118110000D01*
X120650000Y-118110000D02*
X119380000Y-118110000D01*
X119380000Y-118618000D02*
X118618000Y-119380000D01*
X119380000Y-119380000D02*
X119380000Y-116840000D01*
X119380000Y-115570000D02*
X106680000Y-115570000D01*
X106680000Y-115570000D02*
X106680000Y-113030000D01*
X106680000Y-113030000D02*
X119380000Y-113030000D01*
X106680000Y-114300000D02*
X105410000Y-114300000D01*
X120650000Y-114300000D02*
X119380000Y-114300000D01*
X119380000Y-114808000D02*
X118618000Y-115570000D01*
X119380000Y-115570000D02*
X119380000Y-113030000D01*
X119380000Y-111760000D02*
X106680000Y-111760000D01*
X106680000Y-111760000D02*
X106680000Y-109220000D01*
X106680000Y-109220000D02*
X119380000Y-109220000D01*
X106680000Y-110490000D02*
X105410000Y-110490000D01*
X120650000Y-110490000D02*
X119380000Y-110490000D01*
X119380000Y-110998000D02*
X118618000Y-111760000D01*
X119380000Y-111760000D02*
X119380000Y-109220000D01*
X106680000Y-105410000D02*
X119380000Y-105410000D01*
X119380000Y-105410000D02*
X119380000Y-107950000D01*
X119380000Y-107950000D02*
X106680000Y-107950000D01*
X119380000Y-106680000D02*
X120650000Y-106680000D01*
X105410000Y-106680000D02*
X106680000Y-106680000D01*
X106680000Y-106172000D02*
X107442000Y-105410000D01*
X106680000Y-105410000D02*
X106680000Y-107950000D01*
X106680000Y-101600000D02*
X119380000Y-101600000D01*
X119380000Y-101600000D02*
X119380000Y-104140000D01*
X119380000Y-104140000D02*
X106680000Y-104140000D01*
X119380000Y-102870000D02*
X120650000Y-102870000D01*
X105410000Y-102870000D02*
X106680000Y-102870000D01*
X106680000Y-102362000D02*
X107442000Y-101600000D01*
X106680000Y-101600000D02*
X106680000Y-104140000D01*
X106680000Y-97790000D02*
X119380000Y-97790000D01*
X119380000Y-97790000D02*
X119380000Y-100330000D01*
X119380000Y-100330000D02*
X106680000Y-100330000D01*
X119380000Y-99060000D02*
X120650000Y-99060000D01*
X105410000Y-99060000D02*
X106680000Y-99060000D01*
X106680000Y-98552000D02*
X107442000Y-97790000D01*
X106680000Y-97790000D02*
X106680000Y-100330000D01*
X106680000Y-93980000D02*
X119380000Y-93980000D01*
X119380000Y-93980000D02*
X119380000Y-96520000D01*
X119380000Y-96520000D02*
X106680000Y-96520000D01*
X119380000Y-95250000D02*
X120650000Y-95250000D01*
X105410000Y-95250000D02*
X106680000Y-95250000D01*
X106680000Y-94742000D02*
X107442000Y-93980000D01*
X106680000Y-93980000D02*
X106680000Y-96520000D01*
X106680000Y-90170000D02*
X119380000Y-90170000D01*
X119380000Y-90170000D02*
X119380000Y-92710000D01*
X119380000Y-92710000D02*
X106680000Y-92710000D01*
X119380000Y-91440000D02*
X120650000Y-91440000D01*
X105410000Y-91440000D02*
X106680000Y-91440000D01*
X106680000Y-90932000D02*
X107442000Y-90170000D01*
X106680000Y-90170000D02*
X106680000Y-92710000D01*
X106680000Y-86360000D02*
X119380000Y-86360000D01*
X119380000Y-86360000D02*
X119380000Y-88900000D01*
X119380000Y-88900000D02*
X106680000Y-88900000D01*
X119380000Y-87630000D02*
X120650000Y-87630000D01*
X105410000Y-87630000D02*
X106680000Y-87630000D01*
X106680000Y-87122000D02*
X107442000Y-86360000D01*
X106680000Y-86360000D02*
X106680000Y-88900000D01*
X168910000Y-89535000D02*
X156210000Y-89535000D01*
X156210000Y-89535000D02*
X156210000Y-86995000D01*
X156210000Y-86995000D02*
X168910000Y-86995000D01*
X156210000Y-88265000D02*
X154940000Y-88265000D01*
X170180000Y-88265000D02*
X168910000Y-88265000D01*
X168910000Y-88773000D02*
X168148000Y-89535000D01*
X168910000Y-89535000D02*
X168910000Y-86995000D01*
X168910000Y-98425000D02*
X156210000Y-98425000D01*
X156210000Y-98425000D02*
X156210000Y-95885000D01*
X156210000Y-95885000D02*
X168910000Y-95885000D01*
X156210000Y-97155000D02*
X154940000Y-97155000D01*
X170180000Y-97155000D02*
X168910000Y-97155000D01*
X168910000Y-97663000D02*
X168148000Y-98425000D01*
X168910000Y-98425000D02*
X168910000Y-95885000D01*
X191135000Y-109220000D02*
X191135000Y-121920000D01*
X191135000Y-121920000D02*
X188595000Y-121920000D01*
X188595000Y-121920000D02*
X188595000Y-109220000D01*
X189865000Y-121920000D02*
X189865000Y-123190000D01*
X189865000Y-107950000D02*
X189865000Y-109220000D01*
X190373000Y-109220000D02*
X191135000Y-109982000D01*
X191135000Y-109220000D02*
X188595000Y-109220000D01*
X198120000Y-113665000D02*
X210820000Y-113665000D01*
X210820000Y-113665000D02*
X210820000Y-116205000D01*
X210820000Y-116205000D02*
X198120000Y-116205000D01*
X210820000Y-114935000D02*
X212090000Y-114935000D01*
X196850000Y-114935000D02*
X198120000Y-114935000D01*
X198120000Y-114427000D02*
X198882000Y-113665000D01*
X198120000Y-113665000D02*
X198120000Y-116205000D01*
X168910000Y-116205000D02*
X156210000Y-116205000D01*
X156210000Y-116205000D02*
X156210000Y-113665000D01*
X156210000Y-113665000D02*
X168910000Y-113665000D01*
X156210000Y-114935000D02*
X154940000Y-114935000D01*
X170180000Y-114935000D02*
X168910000Y-114935000D01*
X168910000Y-115443000D02*
X168148000Y-116205000D01*
X168910000Y-116205000D02*
X168910000Y-113665000D01*
X198120000Y-104775000D02*
X210820000Y-104775000D01*
X210820000Y-104775000D02*
X210820000Y-107315000D01*
X210820000Y-107315000D02*
X198120000Y-107315000D01*
X210820000Y-106045000D02*
X212090000Y-106045000D01*
X196850000Y-106045000D02*
X198120000Y-106045000D01*
X198120000Y-105537000D02*
X198882000Y-104775000D01*
X198120000Y-104775000D02*
X198120000Y-107315000D01*
X178435000Y-84455000D02*
X178435000Y-97155000D01*
X178435000Y-97155000D02*
X175895000Y-97155000D01*
X175895000Y-97155000D02*
X175895000Y-84455000D01*
X177165000Y-97155000D02*
X177165000Y-98425000D01*
X177165000Y-83185000D02*
X177165000Y-84455000D01*
X177673000Y-84455000D02*
X178435000Y-85217000D01*
X178435000Y-84455000D02*
X175895000Y-84455000D01*
X175895000Y-121920000D02*
X175895000Y-109220000D01*
X175895000Y-109220000D02*
X178435000Y-109220000D01*
X178435000Y-109220000D02*
X178435000Y-121920000D01*
X177165000Y-109220000D02*
X177165000Y-107950000D01*
X177165000Y-123190000D02*
X177165000Y-121920000D01*
X176657000Y-121920000D02*
X175895000Y-121158000D01*
X175895000Y-121920000D02*
X178435000Y-121920000D01*
X210820000Y-89535000D02*
X198120000Y-89535000D01*
X198120000Y-89535000D02*
X198120000Y-86995000D01*
X198120000Y-86995000D02*
X210820000Y-86995000D01*
X198120000Y-88265000D02*
X196850000Y-88265000D01*
X212090000Y-88265000D02*
X210820000Y-88265000D01*
X210820000Y-88773000D02*
X210058000Y-89535000D01*
X210820000Y-89535000D02*
X210820000Y-86995000D01*
X195580000Y-128270000D02*
X195580000Y-128270000D01*
X195580000Y-128270000D02*
X195580000Y-128270000D01*
X211455000Y-128270000D02*
X213360000Y-128270000D01*
X213360000Y-128270000D02*
X213360000Y-128270000D01*
X211455000Y-130810000D02*
X197485000Y-130810000D01*
X197485000Y-125730000D02*
X211455000Y-125730000D01*
X197485000Y-127000000D02*
X198755000Y-125730000D01*
X211455000Y-125730000D02*
X211455000Y-130810000D01*
X197485000Y-125730000D02*
X197485000Y-130810000D01*
X195580000Y-128270000D02*
X197485000Y-128270000D01*
X171450000Y-128270000D02*
X171450000Y-128270000D01*
X171450000Y-128270000D02*
X171450000Y-128270000D01*
X155575000Y-128270000D02*
X153670000Y-128270000D01*
X153670000Y-128270000D02*
X153670000Y-128270000D01*
X155575000Y-125730000D02*
X169545000Y-125730000D01*
X169545000Y-130810000D02*
X155575000Y-130810000D01*
X169545000Y-129540000D02*
X168275000Y-130810000D01*
X155575000Y-130810000D02*
X155575000Y-125730000D01*
X169545000Y-130810000D02*
X169545000Y-125730000D01*
X171450000Y-128270000D02*
X169545000Y-128270000D01*
X195580000Y-119380000D02*
X195580000Y-119380000D01*
X195580000Y-119380000D02*
X195580000Y-119380000D01*
X211455000Y-119380000D02*
X213360000Y-119380000D01*
X213360000Y-119380000D02*
X213360000Y-119380000D01*
X211455000Y-121920000D02*
X197485000Y-121920000D01*
X197485000Y-116840000D02*
X211455000Y-116840000D01*
X197485000Y-118110000D02*
X198755000Y-116840000D01*
X211455000Y-116840000D02*
X211455000Y-121920000D01*
X197485000Y-116840000D02*
X197485000Y-121920000D01*
X195580000Y-119380000D02*
X197485000Y-119380000D01*
X171450000Y-119380000D02*
X171450000Y-119380000D01*
X171450000Y-119380000D02*
X171450000Y-119380000D01*
X155575000Y-119380000D02*
X153670000Y-119380000D01*
X153670000Y-119380000D02*
X153670000Y-119380000D01*
X155575000Y-116840000D02*
X169545000Y-116840000D01*
X169545000Y-121920000D02*
X155575000Y-121920000D01*
X169545000Y-120650000D02*
X168275000Y-121920000D01*
X155575000Y-121920000D02*
X155575000Y-116840000D01*
X169545000Y-121920000D02*
X169545000Y-116840000D01*
X171450000Y-119380000D02*
X169545000Y-119380000D01*
X195580000Y-137160000D02*
X195580000Y-137160000D01*
X195580000Y-137160000D02*
X195580000Y-137160000D01*
X211455000Y-137160000D02*
X213360000Y-137160000D01*
X213360000Y-137160000D02*
X213360000Y-137160000D01*
X211455000Y-139700000D02*
X197485000Y-139700000D01*
X197485000Y-134620000D02*
X211455000Y-134620000D01*
X197485000Y-135890000D02*
X198755000Y-134620000D01*
X211455000Y-134620000D02*
X211455000Y-139700000D01*
X197485000Y-134620000D02*
X197485000Y-139700000D01*
X195580000Y-137160000D02*
X197485000Y-137160000D01*
X213360000Y-110490000D02*
X213360000Y-110490000D01*
X213360000Y-110490000D02*
X213360000Y-110490000D01*
X197485000Y-110490000D02*
X195580000Y-110490000D01*
X195580000Y-110490000D02*
X195580000Y-110490000D01*
X197485000Y-107950000D02*
X211455000Y-107950000D01*
X211455000Y-113030000D02*
X197485000Y-113030000D01*
X211455000Y-111760000D02*
X210185000Y-113030000D01*
X197485000Y-113030000D02*
X197485000Y-107950000D01*
X211455000Y-113030000D02*
X211455000Y-107950000D01*
X213360000Y-110490000D02*
X211455000Y-110490000D01*
X153670000Y-110490000D02*
X153670000Y-110490000D01*
X153670000Y-110490000D02*
X153670000Y-110490000D01*
X169545000Y-110490000D02*
X171450000Y-110490000D01*
X171450000Y-110490000D02*
X171450000Y-110490000D01*
X169545000Y-113030000D02*
X155575000Y-113030000D01*
X155575000Y-107950000D02*
X169545000Y-107950000D01*
X155575000Y-109220000D02*
X156845000Y-107950000D01*
X169545000Y-107950000D02*
X169545000Y-113030000D01*
X155575000Y-107950000D02*
X155575000Y-113030000D01*
X153670000Y-110490000D02*
X155575000Y-110490000D01*
X213360000Y-101600000D02*
X213360000Y-101600000D01*
X213360000Y-101600000D02*
X213360000Y-101600000D01*
X197485000Y-101600000D02*
X195580000Y-101600000D01*
X195580000Y-101600000D02*
X195580000Y-101600000D01*
X197485000Y-99060000D02*
X211455000Y-99060000D01*
X211455000Y-104140000D02*
X197485000Y-104140000D01*
X211455000Y-102870000D02*
X210185000Y-104140000D01*
X197485000Y-104140000D02*
X197485000Y-99060000D01*
X211455000Y-104140000D02*
X211455000Y-99060000D01*
X213360000Y-101600000D02*
X211455000Y-101600000D01*
X153670000Y-101600000D02*
X153670000Y-101600000D01*
X153670000Y-101600000D02*
X153670000Y-101600000D01*
X169545000Y-101600000D02*
X171450000Y-101600000D01*
X171450000Y-101600000D02*
X171450000Y-101600000D01*
X169545000Y-104140000D02*
X155575000Y-104140000D01*
X155575000Y-99060000D02*
X169545000Y-99060000D01*
X155575000Y-100330000D02*
X156845000Y-99060000D01*
X169545000Y-99060000D02*
X169545000Y-104140000D01*
X155575000Y-99060000D02*
X155575000Y-104140000D01*
X153670000Y-101600000D02*
X155575000Y-101600000D01*
X213360000Y-92710000D02*
X213360000Y-92710000D01*
X213360000Y-92710000D02*
X213360000Y-92710000D01*
X197485000Y-92710000D02*
X195580000Y-92710000D01*
X195580000Y-92710000D02*
X195580000Y-92710000D01*
X197485000Y-90170000D02*
X211455000Y-90170000D01*
X211455000Y-95250000D02*
X197485000Y-95250000D01*
X211455000Y-93980000D02*
X210185000Y-95250000D01*
X197485000Y-95250000D02*
X197485000Y-90170000D01*
X211455000Y-95250000D02*
X211455000Y-90170000D01*
X213360000Y-92710000D02*
X211455000Y-92710000D01*
X153670000Y-92710000D02*
X153670000Y-92710000D01*
X153670000Y-92710000D02*
X153670000Y-92710000D01*
X169545000Y-92710000D02*
X171450000Y-92710000D01*
X171450000Y-92710000D02*
X171450000Y-92710000D01*
X169545000Y-95250000D02*
X155575000Y-95250000D01*
X155575000Y-90170000D02*
X169545000Y-90170000D01*
X155575000Y-91440000D02*
X156845000Y-90170000D01*
X169545000Y-90170000D02*
X169545000Y-95250000D01*
X155575000Y-90170000D02*
X155575000Y-95250000D01*
X153670000Y-92710000D02*
X155575000Y-92710000D01*
X153670000Y-137160000D02*
X153670000Y-137160000D01*
X153670000Y-137160000D02*
X153670000Y-137160000D01*
X169545000Y-137160000D02*
X171450000Y-137160000D01*
X171450000Y-137160000D02*
X171450000Y-137160000D01*
X169545000Y-139700000D02*
X155575000Y-139700000D01*
X155575000Y-134620000D02*
X169545000Y-134620000D01*
X155575000Y-135890000D02*
X156845000Y-134620000D01*
X169545000Y-134620000D02*
X169545000Y-139700000D01*
X155575000Y-134620000D02*
X155575000Y-139700000D01*
X153670000Y-137160000D02*
X155575000Y-137160000D01*
X195580000Y-83820000D02*
X195580000Y-83820000D01*
X195580000Y-83820000D02*
X195580000Y-83820000D01*
X211455000Y-83820000D02*
X213360000Y-83820000D01*
X213360000Y-83820000D02*
X213360000Y-83820000D01*
X211455000Y-86360000D02*
X197485000Y-86360000D01*
X197485000Y-81280000D02*
X211455000Y-81280000D01*
X197485000Y-82550000D02*
X198755000Y-81280000D01*
X211455000Y-81280000D02*
X211455000Y-86360000D01*
X197485000Y-81280000D02*
X197485000Y-86360000D01*
X195580000Y-83820000D02*
X197485000Y-83820000D01*
X171450000Y-83820000D02*
X171450000Y-83820000D01*
X171450000Y-83820000D02*
X171450000Y-83820000D01*
X155575000Y-83820000D02*
X153670000Y-83820000D01*
X153670000Y-83820000D02*
X153670000Y-83820000D01*
X155575000Y-81280000D02*
X169545000Y-81280000D01*
X169545000Y-86360000D02*
X155575000Y-86360000D01*
X169545000Y-85090000D02*
X168275000Y-86360000D01*
X155575000Y-86360000D02*
X155575000Y-81280000D01*
X169545000Y-86360000D02*
X169545000Y-81280000D01*
X171450000Y-83820000D02*
X169545000Y-83820000D01*
X147320000Y-128270000D02*
X147320000Y-130810000D01*
X147320000Y-130810000D02*
X142240000Y-130810000D01*
X142240000Y-130810000D02*
X142240000Y-128270000D01*
X142240000Y-128270000D02*
X147320000Y-128270000D01*
X147320000Y-124460000D02*
X147320000Y-127000000D01*
X147320000Y-127000000D02*
X142240000Y-127000000D01*
X142240000Y-127000000D02*
X142240000Y-124460000D01*
X142240000Y-124460000D02*
X147320000Y-124460000D01*
X147320000Y-120650000D02*
X147320000Y-123190000D01*
X147320000Y-123190000D02*
X142240000Y-123190000D01*
X142240000Y-123190000D02*
X142240000Y-120650000D01*
X142240000Y-120650000D02*
X147320000Y-120650000D01*
X147320000Y-116840000D02*
X147320000Y-119380000D01*
X147320000Y-119380000D02*
X142240000Y-119380000D01*
X142240000Y-119380000D02*
X142240000Y-116840000D01*
X142240000Y-116840000D02*
X147320000Y-116840000D01*
X147320000Y-135890000D02*
X147320000Y-138430000D01*
X147320000Y-138430000D02*
X142240000Y-138430000D01*
X142240000Y-138430000D02*
X142240000Y-135890000D01*
X142240000Y-135890000D02*
X147320000Y-135890000D01*
X147320000Y-113030000D02*
X147320000Y-115570000D01*
X147320000Y-115570000D02*
X142240000Y-115570000D01*
X142240000Y-115570000D02*
X142240000Y-113030000D01*
X142240000Y-113030000D02*
X147320000Y-113030000D01*
X147320000Y-109220000D02*
X147320000Y-111760000D01*
X147320000Y-111760000D02*
X142240000Y-111760000D01*
X142240000Y-111760000D02*
X142240000Y-109220000D01*
X142240000Y-109220000D02*
X147320000Y-109220000D01*
X147320000Y-105410000D02*
X147320000Y-107950000D01*
X147320000Y-107950000D02*
X142240000Y-107950000D01*
X142240000Y-107950000D02*
X142240000Y-105410000D01*
X142240000Y-105410000D02*
X147320000Y-105410000D01*
X147320000Y-101600000D02*
X147320000Y-104140000D01*
X147320000Y-104140000D02*
X142240000Y-104140000D01*
X142240000Y-104140000D02*
X142240000Y-101600000D01*
X142240000Y-101600000D02*
X147320000Y-101600000D01*
X147320000Y-97790000D02*
X147320000Y-100330000D01*
X147320000Y-100330000D02*
X142240000Y-100330000D01*
X142240000Y-100330000D02*
X142240000Y-97790000D01*
X142240000Y-97790000D02*
X147320000Y-97790000D01*
X147320000Y-93980000D02*
X147320000Y-96520000D01*
X147320000Y-96520000D02*
X142240000Y-96520000D01*
X142240000Y-96520000D02*
X142240000Y-93980000D01*
X142240000Y-93980000D02*
X147320000Y-93980000D01*
X147320000Y-132080000D02*
X147320000Y-134620000D01*
X147320000Y-134620000D02*
X142240000Y-134620000D01*
X142240000Y-134620000D02*
X142240000Y-132080000D01*
X142240000Y-132080000D02*
X147320000Y-132080000D01*
X147320000Y-90170000D02*
X147320000Y-92710000D01*
X147320000Y-92710000D02*
X142240000Y-92710000D01*
X142240000Y-92710000D02*
X142240000Y-90170000D01*
X142240000Y-90170000D02*
X147320000Y-90170000D01*
X147320000Y-86360000D02*
X147320000Y-88900000D01*
X147320000Y-88900000D02*
X142240000Y-88900000D01*
X142240000Y-88900000D02*
X142240000Y-86360000D01*
X142240000Y-86360000D02*
X147320000Y-86360000D01*
D11*
X203581000Y-75565000D02*
G75*
G03X203581000Y-75565000I-2286000J0D01*
G01*
X198501000Y-75565000D02*
G75*
G03X198501000Y-75565000I-2286000J0D01*
G01*
X193421000Y-75565000D02*
G75*
G03X193421000Y-75565000I-2286000J0D01*
G01*
D12*
X83820000Y-74295000D02*
X119380000Y-74295000D01*
X119380000Y-74295000D02*
X119380000Y-76835000D01*
X119380000Y-76835000D02*
X83820000Y-76835000D01*
X83820000Y-76835000D02*
X83820000Y-74295000D01*
X147320000Y-74295000D02*
X147320000Y-76835000D01*
X147320000Y-76835000D02*
X142240000Y-76835000D01*
X142240000Y-76835000D02*
X142240000Y-74295000D01*
X142240000Y-74295000D02*
X147320000Y-74295000D01*
D11*
X168021000Y-75565000D02*
G75*
G03X168021000Y-75565000I-2286000J0D01*
G01*
X173101000Y-75565000D02*
G75*
G03X173101000Y-75565000I-2286000J0D01*
G01*
X178181000Y-75565000D02*
G75*
G03X178181000Y-75565000I-2286000J0D01*
G01*
X183261000Y-75565000D02*
G75*
G03X183261000Y-75565000I-2286000J0D01*
G01*
X188341000Y-75565000D02*
G75*
G03X188341000Y-75565000I-2286000J0D01*
G01*
M02*
