M48
;DRILL file {KiCad 4.0.5+dfsg1-4+deb9u1} date Sun Sep  4 20:08:22 2022
;FORMAT={-:-/ absolute / metric / decimal}
FMAT,2
METRIC,TZ
T1C0.635
T2C0.787
T3C0.813
T4C1.016
T5C1.143
%
G90
G05
M71
T1
X96.52Y-104.14
X102.235Y-124.46
X118.745Y-74.295
X139.7Y-125.73
X142.24Y-124.46
X149.86Y-91.44
X154.94Y-99.06
X154.94Y-106.68
X158.75Y-107.95
X158.75Y-136.525
X193.04Y-90.17
X193.04Y-125.73
X195.58Y-124.46
X208.28Y-125.73
T2
X87.63Y-80.01
X88.9Y-81.28
X90.17Y-80.01
X92.71Y-86.36
X93.98Y-87.63
X95.25Y-86.36
X96.52Y-80.01
X97.79Y-81.28
X97.79Y-92.71
X99.06Y-80.01
X99.06Y-93.98
X100.33Y-92.71
X101.6Y-86.36
X102.87Y-87.63
X104.14Y-86.36
X105.41Y-80.01
X106.68Y-81.28
X106.68Y-92.71
X107.95Y-80.01
X107.95Y-93.98
X109.22Y-92.71
X110.49Y-86.36
X111.76Y-87.63
X113.03Y-86.36
X114.3Y-80.01
X115.57Y-81.28
X115.57Y-92.71
X116.84Y-80.01
X116.84Y-93.98
X118.11Y-92.71
X119.38Y-86.36
X120.65Y-87.63
X121.92Y-86.36
X123.19Y-80.01
X124.46Y-81.28
X124.46Y-92.71
X125.73Y-80.01
X125.73Y-93.98
X127.Y-92.71
X128.27Y-86.36
X129.54Y-87.63
X130.81Y-86.36
X144.78Y-102.87
X146.05Y-101.6
X146.05Y-104.14
T3
X88.265Y-71.12
X90.805Y-71.12
X93.345Y-71.12
X95.885Y-71.12
X98.425Y-71.12
X100.965Y-71.12
X103.505Y-71.12
X106.045Y-71.12
X108.585Y-71.12
X111.125Y-71.12
X113.665Y-71.12
X116.205Y-71.12
X118.745Y-71.12
X121.285Y-71.12
X138.43Y-101.6
X138.43Y-104.14
X138.43Y-109.22
X138.43Y-111.76
X138.43Y-114.3
X146.685Y-71.12
X149.225Y-71.12
X154.94Y-71.12
X157.48Y-71.12
X158.75Y-77.47
X158.75Y-85.09
X158.75Y-92.71
X158.75Y-100.33
X158.75Y-107.95
X161.29Y-77.47
X161.29Y-80.01
X161.29Y-85.09
X161.29Y-87.63
X161.29Y-92.71
X161.29Y-95.25
X161.29Y-100.33
X161.29Y-102.87
X161.29Y-107.95
X161.29Y-110.49
X185.42Y-71.12
X186.69Y-81.28
X186.69Y-86.36
X186.69Y-96.52
X186.69Y-101.6
X186.69Y-111.76
X186.69Y-116.84
X187.96Y-71.12
X191.77Y-80.01
X191.77Y-87.63
X194.31Y-71.12
X194.31Y-80.01
X194.31Y-87.63
X196.85Y-71.12
X196.85Y-80.01
X196.85Y-87.63
X196.85Y-95.25
X196.85Y-102.87
X199.39Y-71.12
X199.39Y-80.01
X199.39Y-87.63
X199.39Y-95.25
X199.39Y-102.87
X199.39Y-110.49
X199.39Y-118.11
X201.93Y-71.12
X201.93Y-80.01
X201.93Y-87.63
X201.93Y-95.25
X201.93Y-102.87
X201.93Y-110.49
X201.93Y-118.11
X204.47Y-71.12
X204.47Y-80.01
X204.47Y-87.63
X204.47Y-95.25
X204.47Y-102.87
X204.47Y-110.49
X204.47Y-118.11
X207.01Y-71.12
X207.01Y-80.01
X207.01Y-87.63
X207.01Y-95.25
X207.01Y-102.87
X207.01Y-110.49
X207.01Y-118.11
X209.55Y-71.12
X209.55Y-80.01
X209.55Y-87.63
X209.55Y-95.25
X209.55Y-102.87
X209.55Y-110.49
X209.55Y-118.11
X212.09Y-71.12
X212.09Y-80.01
X212.09Y-87.63
X212.09Y-95.25
X212.09Y-102.87
X212.09Y-110.49
X212.09Y-118.11
X214.63Y-80.01
X214.63Y-87.63
X214.63Y-95.25
X214.63Y-102.87
X214.63Y-110.49
X214.63Y-118.11
T4
X163.83Y-115.062
X163.83Y-120.142
T5
X88.9Y-100.33
X88.9Y-115.57
X88.9Y-119.38
X88.9Y-132.08
X92.71Y-100.33
X92.71Y-115.57
X92.71Y-119.38
X92.71Y-132.08
X96.52Y-100.33
X96.52Y-115.57
X96.52Y-119.38
X96.52Y-132.08
X100.33Y-100.33
X100.33Y-115.57
X100.33Y-119.38
X100.33Y-132.08
X104.14Y-100.33
X104.14Y-115.57
X104.14Y-119.38
X104.14Y-132.08
X107.95Y-100.33
X107.95Y-115.57
X107.95Y-119.38
X107.95Y-132.08
X111.76Y-100.33
X111.76Y-115.57
X111.76Y-119.38
X111.76Y-132.08
X115.57Y-100.33
X115.57Y-115.57
X115.57Y-119.38
X115.57Y-132.08
X119.38Y-100.33
X119.38Y-115.57
X119.38Y-119.38
X119.38Y-132.08
X123.19Y-100.33
X123.19Y-115.57
X123.19Y-119.38
X123.19Y-132.08
X127.Y-100.33
X127.Y-115.57
X127.Y-119.38
X127.Y-132.08
X130.81Y-100.33
X130.81Y-115.57
X130.81Y-119.38
X130.81Y-132.08
X134.62Y-119.38
X134.62Y-132.08
X138.43Y-76.2
X138.43Y-81.28
X138.43Y-86.36
X138.43Y-91.44
X138.43Y-119.38
X138.43Y-132.08
X139.7Y-96.52
X152.4Y-96.52
X153.67Y-76.2
X153.67Y-81.28
X153.67Y-86.36
X153.67Y-91.44
X166.37Y-76.2
X166.37Y-82.55
X166.37Y-88.9
X166.37Y-104.14
X166.37Y-110.49
X181.61Y-76.2
X181.61Y-82.55
X181.61Y-88.9
X181.61Y-104.14
X181.61Y-110.49
T0
M30
