M48
;DRILL file {KiCad 4.0.5+dfsg1-4+deb9u1} date Sun Sep  4 20:08:48 2022
;FORMAT={-:-/ absolute / metric / decimal}
FMAT,2
METRIC,TZ
T1C0.533
T2C0.813
T3C1.001
T4C1.016
T5C1.143
T6C1.270
%
G90
G05
M71
T1
X150.495Y-75.565
X150.495Y-83.82
X153.67Y-106.045
X171.45Y-106.045
X180.975Y-80.01
X180.975Y-94.615
X180.975Y-104.14
X180.975Y-119.38
X184.785Y-80.01
X184.785Y-92.71
X189.23Y-80.01
X189.23Y-101.6
X192.405Y-81.28
X192.405Y-88.265
X192.405Y-92.71
X192.405Y-104.14
X196.85Y-97.155
X212.09Y-97.155
T2
X85.09Y-75.565
X87.63Y-75.565
X90.17Y-75.565
X92.71Y-75.565
X95.25Y-75.565
X97.79Y-75.565
X100.33Y-75.565
X102.87Y-75.565
X105.41Y-75.565
X107.95Y-75.565
X110.49Y-75.565
X113.03Y-75.565
X115.57Y-75.565
X118.11Y-75.565
X143.51Y-75.565
X143.51Y-87.63
X143.51Y-91.44
X143.51Y-95.25
X143.51Y-99.06
X143.51Y-102.87
X143.51Y-106.68
X143.51Y-110.49
X143.51Y-114.3
X143.51Y-118.11
X143.51Y-121.92
X143.51Y-125.73
X143.51Y-129.54
X143.51Y-133.35
X143.51Y-137.16
X146.05Y-75.565
X146.05Y-87.63
X146.05Y-91.44
X146.05Y-95.25
X146.05Y-99.06
X146.05Y-102.87
X146.05Y-106.68
X146.05Y-110.49
X146.05Y-114.3
X146.05Y-118.11
X146.05Y-121.92
X146.05Y-125.73
X146.05Y-129.54
X146.05Y-133.35
X146.05Y-137.16
T3
X165.735Y-75.565
X170.815Y-75.565
X175.895Y-75.565
X180.975Y-75.565
X186.055Y-75.565
X191.135Y-75.565
X196.215Y-75.565
X201.295Y-75.565
T4
X128.905Y-80.01
X133.985Y-80.01
T5
X105.41Y-87.63
X105.41Y-91.44
X105.41Y-95.25
X105.41Y-99.06
X105.41Y-102.87
X105.41Y-106.68
X105.41Y-110.49
X105.41Y-114.3
X105.41Y-118.11
X105.41Y-121.92
X105.41Y-125.73
X105.41Y-129.54
X105.41Y-133.35
X105.41Y-137.16
X120.65Y-87.63
X120.65Y-91.44
X120.65Y-95.25
X120.65Y-99.06
X120.65Y-102.87
X120.65Y-106.68
X120.65Y-110.49
X120.65Y-114.3
X120.65Y-118.11
X120.65Y-121.92
X120.65Y-125.73
X120.65Y-129.54
X120.65Y-133.35
X120.65Y-137.16
X125.73Y-87.63
X125.73Y-91.44
X125.73Y-95.25
X125.73Y-99.06
X125.73Y-102.87
X125.73Y-106.68
X125.73Y-110.49
X125.73Y-114.3
X125.73Y-118.11
X125.73Y-121.92
X125.73Y-125.73
X125.73Y-129.54
X125.73Y-133.35
X125.73Y-137.16
X138.43Y-87.63
X138.43Y-91.44
X138.43Y-95.25
X138.43Y-99.06
X138.43Y-102.87
X138.43Y-106.68
X138.43Y-110.49
X138.43Y-114.3
X138.43Y-118.11
X138.43Y-121.92
X138.43Y-125.73
X138.43Y-129.54
X138.43Y-133.35
X138.43Y-137.16
X154.94Y-88.265
X154.94Y-97.155
X154.94Y-114.935
X170.18Y-88.265
X170.18Y-97.155
X170.18Y-114.935
X177.165Y-83.185
X177.165Y-98.425
X177.165Y-107.95
X177.165Y-123.19
X189.865Y-107.95
X189.865Y-123.19
X196.85Y-88.265
X196.85Y-106.045
X196.85Y-114.935
X212.09Y-88.265
X212.09Y-106.045
X212.09Y-114.935
T6
X153.67Y-83.82
X153.67Y-92.71
X153.67Y-101.6
X153.67Y-110.49
X153.67Y-119.38
X153.67Y-128.27
X153.67Y-137.16
X171.45Y-83.82
X171.45Y-92.71
X171.45Y-101.6
X171.45Y-110.49
X171.45Y-119.38
X171.45Y-128.27
X171.45Y-137.16
X195.58Y-83.82
X195.58Y-92.71
X195.58Y-101.6
X195.58Y-110.49
X195.58Y-119.38
X195.58Y-128.27
X195.58Y-137.16
X213.36Y-83.82
X213.36Y-92.71
X213.36Y-101.6
X213.36Y-110.49
X213.36Y-119.38
X213.36Y-128.27
X213.36Y-137.16
T0
M30
