G04 #@! TF.FileFunction,Copper,L2,Bot,Signal*
%FSLAX46Y46*%
G04 Gerber Fmt 4.6, Leading zero omitted, Abs format (unit mm)*
G04 Created by KiCad (PCBNEW 4.0.5+dfsg1-4+deb9u1) date Sun Sep  4 20:07:11 2022*
%MOMM*%
%LPD*%
G01*
G04 APERTURE LIST*
%ADD10C,0.100000*%
%ADD11C,0.304800*%
%ADD12R,1.397000X1.397000*%
%ADD13C,1.397000*%
%ADD14C,0.889000*%
%ADD15C,0.203200*%
%ADD16C,0.210820*%
%ADD17C,1.000760*%
G04 APERTURE END LIST*
D10*
D11*
X169363572Y-112044238D02*
X169363572Y-110012238D01*
X169000715Y-110012238D01*
X168783000Y-110109000D01*
X168637858Y-110302524D01*
X168565286Y-110496048D01*
X168492715Y-110883095D01*
X168492715Y-111173381D01*
X168565286Y-111560429D01*
X168637858Y-111753952D01*
X168783000Y-111947476D01*
X169000715Y-112044238D01*
X169363572Y-112044238D01*
X167839572Y-112044238D02*
X167839572Y-110012238D01*
X166968715Y-112044238D01*
X166968715Y-110012238D01*
X166243001Y-111850714D02*
X166170429Y-111947476D01*
X166243001Y-112044238D01*
X166315572Y-111947476D01*
X166243001Y-111850714D01*
X166243001Y-112044238D01*
X166243001Y-110786333D02*
X166170429Y-110883095D01*
X166243001Y-110979857D01*
X166315572Y-110883095D01*
X166243001Y-110786333D01*
X166243001Y-110979857D01*
X163485287Y-111850714D02*
X163557858Y-111947476D01*
X163775572Y-112044238D01*
X163920715Y-112044238D01*
X164138430Y-111947476D01*
X164283572Y-111753952D01*
X164356144Y-111560429D01*
X164428715Y-111173381D01*
X164428715Y-110883095D01*
X164356144Y-110496048D01*
X164283572Y-110302524D01*
X164138430Y-110109000D01*
X163920715Y-110012238D01*
X163775572Y-110012238D01*
X163557858Y-110109000D01*
X163485287Y-110205762D01*
X163049858Y-110012238D02*
X162179001Y-110012238D01*
X162614430Y-112044238D02*
X162614430Y-110012238D01*
X161888715Y-110012238D02*
X161017858Y-110012238D01*
X161453287Y-112044238D02*
X161453287Y-110012238D01*
X159421286Y-109915476D02*
X160727572Y-112528048D01*
X158260144Y-110689571D02*
X158260144Y-112044238D01*
X158623001Y-109915476D02*
X158985858Y-111366905D01*
X158042430Y-111366905D01*
X156663572Y-112044238D02*
X157534429Y-112044238D01*
X157099001Y-112044238D02*
X157099001Y-110012238D01*
X157244144Y-110302524D01*
X157389286Y-110496048D01*
X157534429Y-110592810D01*
X156010429Y-111270143D02*
X154849286Y-111270143D01*
X153470429Y-110689571D02*
X153470429Y-112044238D01*
X153833286Y-109915476D02*
X154196143Y-111366905D01*
X153252715Y-111366905D01*
X152744714Y-110205762D02*
X152672143Y-110109000D01*
X152527000Y-110012238D01*
X152164143Y-110012238D01*
X152019000Y-110109000D01*
X151946429Y-110205762D01*
X151873857Y-110399286D01*
X151873857Y-110592810D01*
X151946429Y-110883095D01*
X152817286Y-112044238D01*
X151873857Y-112044238D01*
X164265429Y-92800714D02*
X164338000Y-92897476D01*
X164555714Y-92994238D01*
X164700857Y-92994238D01*
X164918572Y-92897476D01*
X165063714Y-92703952D01*
X165136286Y-92510429D01*
X165208857Y-92123381D01*
X165208857Y-91833095D01*
X165136286Y-91446048D01*
X165063714Y-91252524D01*
X164918572Y-91059000D01*
X164700857Y-90962238D01*
X164555714Y-90962238D01*
X164338000Y-91059000D01*
X164265429Y-91155762D01*
X163830000Y-90962238D02*
X162959143Y-90962238D01*
X163394572Y-92994238D02*
X163394572Y-90962238D01*
X162668857Y-90962238D02*
X161798000Y-90962238D01*
X162233429Y-92994238D02*
X162233429Y-90962238D01*
X160201428Y-90865476D02*
X161507714Y-93478048D01*
X159766000Y-92897476D02*
X159548286Y-92994238D01*
X159185429Y-92994238D01*
X159040286Y-92897476D01*
X158967715Y-92800714D01*
X158895143Y-92607190D01*
X158895143Y-92413667D01*
X158967715Y-92220143D01*
X159040286Y-92123381D01*
X159185429Y-92026619D01*
X159475715Y-91929857D01*
X159620857Y-91833095D01*
X159693429Y-91736333D01*
X159766000Y-91542810D01*
X159766000Y-91349286D01*
X159693429Y-91155762D01*
X159620857Y-91059000D01*
X159475715Y-90962238D01*
X159112857Y-90962238D01*
X158895143Y-91059000D01*
X157371143Y-92800714D02*
X157443714Y-92897476D01*
X157661428Y-92994238D01*
X157806571Y-92994238D01*
X158024286Y-92897476D01*
X158169428Y-92703952D01*
X158242000Y-92510429D01*
X158314571Y-92123381D01*
X158314571Y-91833095D01*
X158242000Y-91446048D01*
X158169428Y-91252524D01*
X158024286Y-91059000D01*
X157806571Y-90962238D01*
X157661428Y-90962238D01*
X157443714Y-91059000D01*
X157371143Y-91155762D01*
D12*
X132080000Y-99695000D03*
D13*
X132080000Y-102235000D03*
D12*
X138430000Y-104775000D03*
D13*
X140970000Y-104775000D03*
X143510000Y-104775000D03*
X146050000Y-104775000D03*
X148590000Y-104775000D03*
X151130000Y-104775000D03*
X153670000Y-104775000D03*
X156210000Y-104775000D03*
X158750000Y-104775000D03*
X161290000Y-104775000D03*
X161290000Y-97155000D03*
X158750000Y-97155000D03*
X156210000Y-97155000D03*
X153670000Y-97155000D03*
X151130000Y-97155000D03*
X148590000Y-97155000D03*
X146050000Y-97155000D03*
X143510000Y-97155000D03*
X140970000Y-97155000D03*
X138430000Y-97155000D03*
D12*
X144780000Y-92075000D03*
D13*
X147320000Y-92075000D03*
X149860000Y-92075000D03*
X152400000Y-92075000D03*
X154940000Y-92075000D03*
D12*
X170180000Y-97155000D03*
D13*
X170180000Y-99695000D03*
X170180000Y-102235000D03*
X170180000Y-104775000D03*
D12*
X133350000Y-92075000D03*
D13*
X130810000Y-92075000D03*
D14*
X166370000Y-104775000D03*
X166370000Y-97155000D03*
D15*
X140970000Y-102235000D02*
X142240000Y-100965000D01*
X142240000Y-100965000D02*
X163830000Y-100965000D01*
X140970000Y-104775000D02*
X140970000Y-102235000D01*
X138430000Y-102235000D02*
X142240000Y-98425000D01*
X142240000Y-98425000D02*
X142240000Y-94615000D01*
X142240000Y-94615000D02*
X144780000Y-92075000D01*
X138430000Y-104775000D02*
X138430000Y-102235000D01*
X143510000Y-95885000D02*
X147320000Y-92075000D01*
X143510000Y-97155000D02*
X143510000Y-95885000D01*
X148590000Y-93345000D02*
X149860000Y-92075000D01*
X148590000Y-97155000D02*
X148590000Y-93345000D01*
X153670000Y-93345000D02*
X152400000Y-92075000D01*
X153670000Y-97155000D02*
X153670000Y-93345000D01*
X158750000Y-95885000D02*
X154940000Y-92075000D01*
X158750000Y-97155000D02*
X158750000Y-95885000D01*
X151130000Y-104775000D02*
X151130000Y-107315000D01*
X152400000Y-108585000D02*
X163830000Y-108585000D01*
X151130000Y-107315000D02*
X152400000Y-108585000D01*
X160020000Y-107315000D02*
X157480000Y-107315000D01*
X156210000Y-106045000D02*
X156210000Y-104775000D01*
X157480000Y-107315000D02*
X156210000Y-106045000D01*
X160020000Y-107315000D02*
X162560000Y-107315000D01*
X147320000Y-102235000D02*
X165100000Y-102235000D01*
X146050000Y-104775000D02*
X146050000Y-103505000D01*
X146050000Y-103505000D02*
X147320000Y-102235000D01*
D16*
X166370000Y-108585000D02*
X168910000Y-108585000D01*
X168910000Y-108585000D02*
X170180000Y-107315000D01*
X170180000Y-107315000D02*
X170180000Y-104775000D01*
X163830000Y-108585000D02*
X166370000Y-108585000D01*
X166370000Y-107315000D02*
X167640000Y-106045000D01*
X167640000Y-106045000D02*
X167640000Y-103505000D01*
X167640000Y-103505000D02*
X168910000Y-102235000D01*
X168910000Y-102235000D02*
X170180000Y-102235000D01*
X162560000Y-107315000D02*
X166370000Y-107315000D01*
X167640000Y-102235000D02*
X170180000Y-99695000D01*
X165100000Y-102235000D02*
X167640000Y-102235000D01*
X166370000Y-100965000D02*
X170180000Y-97155000D01*
X163830000Y-100965000D02*
X166370000Y-100965000D01*
D15*
X161290000Y-98425000D02*
X160020000Y-99695000D01*
X147320000Y-99695000D02*
X146050000Y-98425000D01*
X146050000Y-98425000D02*
X146050000Y-97155000D01*
X161290000Y-97155000D02*
X161290000Y-98425000D01*
X151130000Y-97155000D02*
X151130000Y-99695000D01*
X160020000Y-99695000D02*
X156210000Y-99695000D01*
D17*
X129540000Y-102235000D02*
X132080000Y-102235000D01*
X129540000Y-97155000D02*
X129540000Y-102235000D01*
X130810000Y-92075000D02*
X130810000Y-95885000D01*
X130810000Y-95885000D02*
X129540000Y-97155000D01*
D15*
X156210000Y-99695000D02*
X151130000Y-99695000D01*
X151130000Y-99695000D02*
X147320000Y-99695000D01*
X156210000Y-97155000D02*
X156210000Y-99695000D01*
D17*
X166370000Y-104775000D02*
X161290000Y-104775000D01*
X165100000Y-89535000D02*
X161290000Y-89535000D01*
X166370000Y-90805000D02*
X165100000Y-89535000D01*
X130810000Y-90805000D02*
X130810000Y-92075000D01*
X161290000Y-89535000D02*
X139700000Y-89535000D01*
X139700000Y-89535000D02*
X132080000Y-89535000D01*
X132080000Y-89535000D02*
X130810000Y-90805000D01*
X166370000Y-97155000D02*
X166370000Y-90805000D01*
D16*
X161290000Y-97155000D02*
X166370000Y-97155000D01*
D17*
X133350000Y-98425000D02*
X132080000Y-99695000D01*
X133350000Y-92075000D02*
X133350000Y-97155000D01*
X133350000Y-97155000D02*
X133350000Y-98425000D01*
X138430000Y-97155000D02*
X133350000Y-97155000D01*
M02*
