%FSLAX45Y45*%
G04 Gerber Fmt 4.5, Leading zero omitted, Abs format (unit mm)*
G04 Created by KiCad (PCBNEW 4.0.5+dfsg1-4+deb9u1) date Sun Sep  4 20:07:12 2022*
%MOMM*%
%LPD*%
G01*
G04 APERTURE LIST*
%ADD10C,0.127000*%
%ADD11C,0.381000*%
%ADD12C,0.200000*%
%ADD13C,0.300000*%
G04 APERTURE END LIST*
D10*
D11*
X16637000Y-10477500D02*
X16637000Y-9715500D01*
X17399000Y-11366500D02*
X12700000Y-11366500D01*
X12700000Y-8826500D02*
X17399000Y-8826500D01*
X17399000Y-11366500D02*
X17399000Y-8826500D01*
X12700000Y-10858500D02*
X12700000Y-11366500D01*
X12700000Y-8826500D02*
X12700000Y-10858500D01*
D12*
X16605250Y-9683750D02*
X16668750Y-9747250D01*
X16668750Y-9683750D02*
X16605250Y-9747250D01*
X16605250Y-10445750D02*
X16668750Y-10509250D01*
X16668750Y-10445750D02*
X16605250Y-10509250D01*
X13121640Y-9207500D02*
G75*
G03X13121640Y-9207500I-40640J0D01*
G01*
X13248640Y-9969500D02*
G75*
G03X13248640Y-9969500I-40640J0D01*
G01*
X13248640Y-10223500D02*
G75*
G03X13248640Y-10223500I-40640J0D01*
G01*
X13375640Y-9207500D02*
G75*
G03X13375640Y-9207500I-40640J0D01*
G01*
X13883640Y-9715500D02*
G75*
G03X13883640Y-9715500I-40640J0D01*
G01*
X13883640Y-10477500D02*
G75*
G03X13883640Y-10477500I-40640J0D01*
G01*
X14137640Y-9715500D02*
G75*
G03X14137640Y-9715500I-40640J0D01*
G01*
X14137640Y-10477500D02*
G75*
G03X14137640Y-10477500I-40640J0D01*
G01*
X14391640Y-9715500D02*
G75*
G03X14391640Y-9715500I-40640J0D01*
G01*
X14391640Y-10477500D02*
G75*
G03X14391640Y-10477500I-40640J0D01*
G01*
X14518640Y-9207500D02*
G75*
G03X14518640Y-9207500I-40640J0D01*
G01*
X14645640Y-9715500D02*
G75*
G03X14645640Y-9715500I-40640J0D01*
G01*
X14645640Y-10477500D02*
G75*
G03X14645640Y-10477500I-40640J0D01*
G01*
X14772640Y-9207500D02*
G75*
G03X14772640Y-9207500I-40640J0D01*
G01*
X14899640Y-9715500D02*
G75*
G03X14899640Y-9715500I-40640J0D01*
G01*
X14899640Y-10477500D02*
G75*
G03X14899640Y-10477500I-40640J0D01*
G01*
X15026640Y-9207500D02*
G75*
G03X15026640Y-9207500I-40640J0D01*
G01*
X15153640Y-9715500D02*
G75*
G03X15153640Y-9715500I-40640J0D01*
G01*
X15153640Y-10477500D02*
G75*
G03X15153640Y-10477500I-40640J0D01*
G01*
X15280640Y-9207500D02*
G75*
G03X15280640Y-9207500I-40640J0D01*
G01*
X15407640Y-9715500D02*
G75*
G03X15407640Y-9715500I-40640J0D01*
G01*
X15407640Y-10477500D02*
G75*
G03X15407640Y-10477500I-40640J0D01*
G01*
X15534640Y-9207500D02*
G75*
G03X15534640Y-9207500I-40640J0D01*
G01*
X15661640Y-9715500D02*
G75*
G03X15661640Y-9715500I-40640J0D01*
G01*
X15661640Y-10477500D02*
G75*
G03X15661640Y-10477500I-40640J0D01*
G01*
X15915640Y-9715500D02*
G75*
G03X15915640Y-9715500I-40640J0D01*
G01*
X15915640Y-10477500D02*
G75*
G03X15915640Y-10477500I-40640J0D01*
G01*
X16169640Y-9715500D02*
G75*
G03X16169640Y-9715500I-40640J0D01*
G01*
X16169640Y-10477500D02*
G75*
G03X16169640Y-10477500I-40640J0D01*
G01*
X17058640Y-9715500D02*
G75*
G03X17058640Y-9715500I-40640J0D01*
G01*
X17058640Y-9969500D02*
G75*
G03X17058640Y-9969500I-40640J0D01*
G01*
X17058640Y-10223500D02*
G75*
G03X17058640Y-10223500I-40640J0D01*
G01*
X17058640Y-10477500D02*
G75*
G03X17058640Y-10477500I-40640J0D01*
G01*
D13*
X12952378Y-11851264D02*
X12952378Y-11551264D01*
X13023807Y-11551264D01*
X13066664Y-11565550D01*
X13095236Y-11594121D01*
X13109521Y-11622693D01*
X13123807Y-11679836D01*
X13123807Y-11722693D01*
X13109521Y-11779836D01*
X13095236Y-11808407D01*
X13066664Y-11836979D01*
X13023807Y-11851264D01*
X12952378Y-11851264D01*
X13252378Y-11851264D02*
X13252378Y-11651264D01*
X13252378Y-11708407D02*
X13266664Y-11679836D01*
X13280950Y-11665550D01*
X13309521Y-11651264D01*
X13338093Y-11651264D01*
X13438093Y-11851264D02*
X13438093Y-11651264D01*
X13438093Y-11551264D02*
X13423807Y-11565550D01*
X13438093Y-11579836D01*
X13452378Y-11565550D01*
X13438093Y-11551264D01*
X13438093Y-11579836D01*
X13623807Y-11851264D02*
X13595236Y-11836979D01*
X13580950Y-11808407D01*
X13580950Y-11551264D01*
X13780950Y-11851264D02*
X13752378Y-11836979D01*
X13738093Y-11808407D01*
X13738093Y-11551264D01*
X14123807Y-11851264D02*
X14123807Y-11551264D01*
X14223807Y-11765550D01*
X14323807Y-11551264D01*
X14323807Y-11851264D01*
X14595236Y-11851264D02*
X14595236Y-11694121D01*
X14580950Y-11665550D01*
X14552378Y-11651264D01*
X14495236Y-11651264D01*
X14466664Y-11665550D01*
X14595236Y-11836979D02*
X14566664Y-11851264D01*
X14495236Y-11851264D01*
X14466664Y-11836979D01*
X14452378Y-11808407D01*
X14452378Y-11779836D01*
X14466664Y-11751264D01*
X14495236Y-11736979D01*
X14566664Y-11736979D01*
X14595236Y-11722693D01*
X14738093Y-11651264D02*
X14738093Y-11951264D01*
X14738093Y-11665550D02*
X14766664Y-11651264D01*
X14823807Y-11651264D01*
X14852378Y-11665550D01*
X14866664Y-11679836D01*
X14880950Y-11708407D01*
X14880950Y-11794121D01*
X14866664Y-11822693D01*
X14852378Y-11836979D01*
X14823807Y-11851264D01*
X14766664Y-11851264D01*
X14738093Y-11836979D01*
X15009521Y-11822693D02*
X15023807Y-11836979D01*
X15009521Y-11851264D01*
X14995236Y-11836979D01*
X15009521Y-11822693D01*
X15009521Y-11851264D01*
X15009521Y-11665550D02*
X15023807Y-11679836D01*
X15009521Y-11694121D01*
X14995236Y-11679836D01*
X15009521Y-11665550D01*
X15009521Y-11694121D01*
X12617450Y-12313800D02*
X12680950Y-12377300D01*
X12680950Y-12313800D02*
X12617450Y-12377300D01*
X13009521Y-12181264D02*
X13038093Y-12181264D01*
X13066664Y-12195550D01*
X13080950Y-12209836D01*
X13095236Y-12238407D01*
X13109521Y-12295550D01*
X13109521Y-12366979D01*
X13095236Y-12424121D01*
X13080950Y-12452693D01*
X13066664Y-12466979D01*
X13038093Y-12481264D01*
X13009521Y-12481264D01*
X12980950Y-12466979D01*
X12966664Y-12452693D01*
X12952378Y-12424121D01*
X12938093Y-12366979D01*
X12938093Y-12295550D01*
X12952378Y-12238407D01*
X12966664Y-12209836D01*
X12980950Y-12195550D01*
X13009521Y-12181264D01*
X13238093Y-12452693D02*
X13252378Y-12466979D01*
X13238093Y-12481264D01*
X13223807Y-12466979D01*
X13238093Y-12452693D01*
X13238093Y-12481264D01*
X13509521Y-12181264D02*
X13452378Y-12181264D01*
X13423807Y-12195550D01*
X13409521Y-12209836D01*
X13380950Y-12252693D01*
X13366664Y-12309836D01*
X13366664Y-12424121D01*
X13380950Y-12452693D01*
X13395236Y-12466979D01*
X13423807Y-12481264D01*
X13480950Y-12481264D01*
X13509521Y-12466979D01*
X13523807Y-12452693D01*
X13538093Y-12424121D01*
X13538093Y-12352693D01*
X13523807Y-12324121D01*
X13509521Y-12309836D01*
X13480950Y-12295550D01*
X13423807Y-12295550D01*
X13395236Y-12309836D01*
X13380950Y-12324121D01*
X13366664Y-12352693D01*
X13795236Y-12281264D02*
X13795236Y-12481264D01*
X13723807Y-12166979D02*
X13652378Y-12381264D01*
X13838093Y-12381264D01*
X13952378Y-12481264D02*
X13952378Y-12281264D01*
X13952378Y-12309836D02*
X13966664Y-12295550D01*
X13995236Y-12281264D01*
X14038093Y-12281264D01*
X14066664Y-12295550D01*
X14080950Y-12324121D01*
X14080950Y-12481264D01*
X14080950Y-12324121D02*
X14095236Y-12295550D01*
X14123807Y-12281264D01*
X14166664Y-12281264D01*
X14195236Y-12295550D01*
X14209521Y-12324121D01*
X14209521Y-12481264D01*
X14352378Y-12481264D02*
X14352378Y-12281264D01*
X14352378Y-12309836D02*
X14366664Y-12295550D01*
X14395236Y-12281264D01*
X14438093Y-12281264D01*
X14466664Y-12295550D01*
X14480950Y-12324121D01*
X14480950Y-12481264D01*
X14480950Y-12324121D02*
X14495236Y-12295550D01*
X14523807Y-12281264D01*
X14566664Y-12281264D01*
X14595236Y-12295550D01*
X14609521Y-12324121D01*
X14609521Y-12481264D01*
X15195236Y-12166979D02*
X14938093Y-12552693D01*
X15580950Y-12181264D02*
X15609521Y-12181264D01*
X15638093Y-12195550D01*
X15652378Y-12209836D01*
X15666664Y-12238407D01*
X15680950Y-12295550D01*
X15680950Y-12366979D01*
X15666664Y-12424121D01*
X15652378Y-12452693D01*
X15638093Y-12466979D01*
X15609521Y-12481264D01*
X15580950Y-12481264D01*
X15552378Y-12466979D01*
X15538093Y-12452693D01*
X15523807Y-12424121D01*
X15509521Y-12366979D01*
X15509521Y-12295550D01*
X15523807Y-12238407D01*
X15538093Y-12209836D01*
X15552378Y-12195550D01*
X15580950Y-12181264D01*
X15809521Y-12452693D02*
X15823807Y-12466979D01*
X15809521Y-12481264D01*
X15795236Y-12466979D01*
X15809521Y-12452693D01*
X15809521Y-12481264D01*
X16009521Y-12181264D02*
X16038093Y-12181264D01*
X16066664Y-12195550D01*
X16080950Y-12209836D01*
X16095235Y-12238407D01*
X16109521Y-12295550D01*
X16109521Y-12366979D01*
X16095235Y-12424121D01*
X16080950Y-12452693D01*
X16066664Y-12466979D01*
X16038093Y-12481264D01*
X16009521Y-12481264D01*
X15980950Y-12466979D01*
X15966664Y-12452693D01*
X15952378Y-12424121D01*
X15938093Y-12366979D01*
X15938093Y-12295550D01*
X15952378Y-12238407D01*
X15966664Y-12209836D01*
X15980950Y-12195550D01*
X16009521Y-12181264D01*
X16223807Y-12209836D02*
X16238093Y-12195550D01*
X16266664Y-12181264D01*
X16338093Y-12181264D01*
X16366664Y-12195550D01*
X16380950Y-12209836D01*
X16395235Y-12238407D01*
X16395235Y-12266979D01*
X16380950Y-12309836D01*
X16209521Y-12481264D01*
X16395235Y-12481264D01*
X16666664Y-12181264D02*
X16523807Y-12181264D01*
X16509521Y-12324121D01*
X16523807Y-12309836D01*
X16552378Y-12295550D01*
X16623807Y-12295550D01*
X16652378Y-12309836D01*
X16666664Y-12324121D01*
X16680950Y-12352693D01*
X16680950Y-12424121D01*
X16666664Y-12452693D01*
X16652378Y-12466979D01*
X16623807Y-12481264D01*
X16552378Y-12481264D01*
X16523807Y-12466979D01*
X16509521Y-12452693D01*
X16795236Y-12181264D02*
X16795236Y-12238407D01*
X16909521Y-12181264D02*
X16909521Y-12238407D01*
X17352378Y-12595550D02*
X17338093Y-12581264D01*
X17309521Y-12538407D01*
X17295236Y-12509836D01*
X17280950Y-12466979D01*
X17266664Y-12395550D01*
X17266664Y-12338407D01*
X17280950Y-12266979D01*
X17295236Y-12224121D01*
X17309521Y-12195550D01*
X17338093Y-12152693D01*
X17352378Y-12138407D01*
X17452378Y-12209836D02*
X17466664Y-12195550D01*
X17495236Y-12181264D01*
X17566664Y-12181264D01*
X17595236Y-12195550D01*
X17609521Y-12209836D01*
X17623807Y-12238407D01*
X17623807Y-12266979D01*
X17609521Y-12309836D01*
X17438093Y-12481264D01*
X17623807Y-12481264D01*
X17980950Y-12481264D02*
X17980950Y-12181264D01*
X18109521Y-12481264D02*
X18109521Y-12324121D01*
X18095236Y-12295550D01*
X18066664Y-12281264D01*
X18023807Y-12281264D01*
X17995236Y-12295550D01*
X17980950Y-12309836D01*
X18295236Y-12481264D02*
X18266664Y-12466979D01*
X18252378Y-12452693D01*
X18238093Y-12424121D01*
X18238093Y-12338407D01*
X18252378Y-12309836D01*
X18266664Y-12295550D01*
X18295236Y-12281264D01*
X18338093Y-12281264D01*
X18366664Y-12295550D01*
X18380950Y-12309836D01*
X18395236Y-12338407D01*
X18395236Y-12424121D01*
X18380950Y-12452693D01*
X18366664Y-12466979D01*
X18338093Y-12481264D01*
X18295236Y-12481264D01*
X18566664Y-12481264D02*
X18538093Y-12466979D01*
X18523807Y-12438407D01*
X18523807Y-12181264D01*
X18795236Y-12466979D02*
X18766664Y-12481264D01*
X18709521Y-12481264D01*
X18680950Y-12466979D01*
X18666664Y-12438407D01*
X18666664Y-12324121D01*
X18680950Y-12295550D01*
X18709521Y-12281264D01*
X18766664Y-12281264D01*
X18795236Y-12295550D01*
X18809521Y-12324121D01*
X18809521Y-12352693D01*
X18666664Y-12381264D01*
X18923807Y-12466979D02*
X18952379Y-12481264D01*
X19009521Y-12481264D01*
X19038093Y-12466979D01*
X19052379Y-12438407D01*
X19052379Y-12424121D01*
X19038093Y-12395550D01*
X19009521Y-12381264D01*
X18966664Y-12381264D01*
X18938093Y-12366979D01*
X18923807Y-12338407D01*
X18923807Y-12324121D01*
X18938093Y-12295550D01*
X18966664Y-12281264D01*
X19009521Y-12281264D01*
X19038093Y-12295550D01*
X19152378Y-12595550D02*
X19166664Y-12581264D01*
X19195236Y-12538407D01*
X19209521Y-12509836D01*
X19223807Y-12466979D01*
X19238093Y-12395550D01*
X19238093Y-12338407D01*
X19223807Y-12266979D01*
X19209521Y-12224121D01*
X19195236Y-12195550D01*
X19166664Y-12152693D01*
X19152378Y-12138407D01*
X12680950Y-12741550D02*
G75*
G03X12680950Y-12741550I-40640J0D01*
G01*
X13009521Y-12577264D02*
X13038093Y-12577264D01*
X13066664Y-12591550D01*
X13080950Y-12605836D01*
X13095236Y-12634407D01*
X13109521Y-12691550D01*
X13109521Y-12762979D01*
X13095236Y-12820121D01*
X13080950Y-12848693D01*
X13066664Y-12862979D01*
X13038093Y-12877264D01*
X13009521Y-12877264D01*
X12980950Y-12862979D01*
X12966664Y-12848693D01*
X12952378Y-12820121D01*
X12938093Y-12762979D01*
X12938093Y-12691550D01*
X12952378Y-12634407D01*
X12966664Y-12605836D01*
X12980950Y-12591550D01*
X13009521Y-12577264D01*
X13238093Y-12848693D02*
X13252378Y-12862979D01*
X13238093Y-12877264D01*
X13223807Y-12862979D01*
X13238093Y-12848693D01*
X13238093Y-12877264D01*
X13423807Y-12705836D02*
X13395236Y-12691550D01*
X13380950Y-12677264D01*
X13366664Y-12648693D01*
X13366664Y-12634407D01*
X13380950Y-12605836D01*
X13395236Y-12591550D01*
X13423807Y-12577264D01*
X13480950Y-12577264D01*
X13509521Y-12591550D01*
X13523807Y-12605836D01*
X13538093Y-12634407D01*
X13538093Y-12648693D01*
X13523807Y-12677264D01*
X13509521Y-12691550D01*
X13480950Y-12705836D01*
X13423807Y-12705836D01*
X13395236Y-12720121D01*
X13380950Y-12734407D01*
X13366664Y-12762979D01*
X13366664Y-12820121D01*
X13380950Y-12848693D01*
X13395236Y-12862979D01*
X13423807Y-12877264D01*
X13480950Y-12877264D01*
X13509521Y-12862979D01*
X13523807Y-12848693D01*
X13538093Y-12820121D01*
X13538093Y-12762979D01*
X13523807Y-12734407D01*
X13509521Y-12720121D01*
X13480950Y-12705836D01*
X13823807Y-12877264D02*
X13652378Y-12877264D01*
X13738093Y-12877264D02*
X13738093Y-12577264D01*
X13709521Y-12620121D01*
X13680950Y-12648693D01*
X13652378Y-12662979D01*
X13952378Y-12877264D02*
X13952378Y-12677264D01*
X13952378Y-12705836D02*
X13966664Y-12691550D01*
X13995236Y-12677264D01*
X14038093Y-12677264D01*
X14066664Y-12691550D01*
X14080950Y-12720121D01*
X14080950Y-12877264D01*
X14080950Y-12720121D02*
X14095236Y-12691550D01*
X14123807Y-12677264D01*
X14166664Y-12677264D01*
X14195236Y-12691550D01*
X14209521Y-12720121D01*
X14209521Y-12877264D01*
X14352378Y-12877264D02*
X14352378Y-12677264D01*
X14352378Y-12705836D02*
X14366664Y-12691550D01*
X14395236Y-12677264D01*
X14438093Y-12677264D01*
X14466664Y-12691550D01*
X14480950Y-12720121D01*
X14480950Y-12877264D01*
X14480950Y-12720121D02*
X14495236Y-12691550D01*
X14523807Y-12677264D01*
X14566664Y-12677264D01*
X14595236Y-12691550D01*
X14609521Y-12720121D01*
X14609521Y-12877264D01*
X15195236Y-12562979D02*
X14938093Y-12948693D01*
X15580950Y-12577264D02*
X15609521Y-12577264D01*
X15638093Y-12591550D01*
X15652378Y-12605836D01*
X15666664Y-12634407D01*
X15680950Y-12691550D01*
X15680950Y-12762979D01*
X15666664Y-12820121D01*
X15652378Y-12848693D01*
X15638093Y-12862979D01*
X15609521Y-12877264D01*
X15580950Y-12877264D01*
X15552378Y-12862979D01*
X15538093Y-12848693D01*
X15523807Y-12820121D01*
X15509521Y-12762979D01*
X15509521Y-12691550D01*
X15523807Y-12634407D01*
X15538093Y-12605836D01*
X15552378Y-12591550D01*
X15580950Y-12577264D01*
X15809521Y-12848693D02*
X15823807Y-12862979D01*
X15809521Y-12877264D01*
X15795236Y-12862979D01*
X15809521Y-12848693D01*
X15809521Y-12877264D01*
X16009521Y-12577264D02*
X16038093Y-12577264D01*
X16066664Y-12591550D01*
X16080950Y-12605836D01*
X16095235Y-12634407D01*
X16109521Y-12691550D01*
X16109521Y-12762979D01*
X16095235Y-12820121D01*
X16080950Y-12848693D01*
X16066664Y-12862979D01*
X16038093Y-12877264D01*
X16009521Y-12877264D01*
X15980950Y-12862979D01*
X15966664Y-12848693D01*
X15952378Y-12820121D01*
X15938093Y-12762979D01*
X15938093Y-12691550D01*
X15952378Y-12634407D01*
X15966664Y-12605836D01*
X15980950Y-12591550D01*
X16009521Y-12577264D01*
X16209521Y-12577264D02*
X16395235Y-12577264D01*
X16295235Y-12691550D01*
X16338093Y-12691550D01*
X16366664Y-12705836D01*
X16380950Y-12720121D01*
X16395235Y-12748693D01*
X16395235Y-12820121D01*
X16380950Y-12848693D01*
X16366664Y-12862979D01*
X16338093Y-12877264D01*
X16252378Y-12877264D01*
X16223807Y-12862979D01*
X16209521Y-12848693D01*
X16509521Y-12605836D02*
X16523807Y-12591550D01*
X16552378Y-12577264D01*
X16623807Y-12577264D01*
X16652378Y-12591550D01*
X16666664Y-12605836D01*
X16680950Y-12634407D01*
X16680950Y-12662979D01*
X16666664Y-12705836D01*
X16495235Y-12877264D01*
X16680950Y-12877264D01*
X16795236Y-12577264D02*
X16795236Y-12634407D01*
X16909521Y-12577264D02*
X16909521Y-12634407D01*
X17352378Y-12991550D02*
X17338093Y-12977264D01*
X17309521Y-12934407D01*
X17295236Y-12905836D01*
X17280950Y-12862979D01*
X17266664Y-12791550D01*
X17266664Y-12734407D01*
X17280950Y-12662979D01*
X17295236Y-12620121D01*
X17309521Y-12591550D01*
X17338093Y-12548693D01*
X17352378Y-12534407D01*
X17438093Y-12577264D02*
X17623807Y-12577264D01*
X17523807Y-12691550D01*
X17566664Y-12691550D01*
X17595236Y-12705836D01*
X17609521Y-12720121D01*
X17623807Y-12748693D01*
X17623807Y-12820121D01*
X17609521Y-12848693D01*
X17595236Y-12862979D01*
X17566664Y-12877264D01*
X17480950Y-12877264D01*
X17452378Y-12862979D01*
X17438093Y-12848693D01*
X17723807Y-12577264D02*
X17909521Y-12577264D01*
X17809521Y-12691550D01*
X17852378Y-12691550D01*
X17880950Y-12705836D01*
X17895236Y-12720121D01*
X17909521Y-12748693D01*
X17909521Y-12820121D01*
X17895236Y-12848693D01*
X17880950Y-12862979D01*
X17852378Y-12877264D01*
X17766664Y-12877264D01*
X17738093Y-12862979D01*
X17723807Y-12848693D01*
X18266664Y-12877264D02*
X18266664Y-12577264D01*
X18395236Y-12877264D02*
X18395236Y-12720121D01*
X18380950Y-12691550D01*
X18352378Y-12677264D01*
X18309521Y-12677264D01*
X18280950Y-12691550D01*
X18266664Y-12705836D01*
X18580950Y-12877264D02*
X18552378Y-12862979D01*
X18538093Y-12848693D01*
X18523807Y-12820121D01*
X18523807Y-12734407D01*
X18538093Y-12705836D01*
X18552378Y-12691550D01*
X18580950Y-12677264D01*
X18623807Y-12677264D01*
X18652378Y-12691550D01*
X18666664Y-12705836D01*
X18680950Y-12734407D01*
X18680950Y-12820121D01*
X18666664Y-12848693D01*
X18652378Y-12862979D01*
X18623807Y-12877264D01*
X18580950Y-12877264D01*
X18852378Y-12877264D02*
X18823807Y-12862979D01*
X18809521Y-12834407D01*
X18809521Y-12577264D01*
X19080950Y-12862979D02*
X19052379Y-12877264D01*
X18995236Y-12877264D01*
X18966664Y-12862979D01*
X18952379Y-12834407D01*
X18952379Y-12720121D01*
X18966664Y-12691550D01*
X18995236Y-12677264D01*
X19052379Y-12677264D01*
X19080950Y-12691550D01*
X19095236Y-12720121D01*
X19095236Y-12748693D01*
X18952379Y-12777264D01*
X19209521Y-12862979D02*
X19238093Y-12877264D01*
X19295236Y-12877264D01*
X19323807Y-12862979D01*
X19338093Y-12834407D01*
X19338093Y-12820121D01*
X19323807Y-12791550D01*
X19295236Y-12777264D01*
X19252379Y-12777264D01*
X19223807Y-12762979D01*
X19209521Y-12734407D01*
X19209521Y-12720121D01*
X19223807Y-12691550D01*
X19252379Y-12677264D01*
X19295236Y-12677264D01*
X19323807Y-12691550D01*
X19438093Y-12991550D02*
X19452379Y-12977264D01*
X19480950Y-12934407D01*
X19495236Y-12905836D01*
X19509521Y-12862979D01*
X19523807Y-12791550D01*
X19523807Y-12734407D01*
X19509521Y-12662979D01*
X19495236Y-12620121D01*
X19480950Y-12591550D01*
X19452379Y-12548693D01*
X19438093Y-12534407D01*
M02*
