M48
;DRILL file {KiCad 4.0.5+dfsg1-4+deb9u1} date Mon Sep 26 08:46:46 2022
;FORMAT={-:-/ absolute / metric / decimal}
FMAT,2
METRIC,TZ
T1C0.635
T2C0.813
%
G90
G05
M71
T1
X166.37Y-97.155
X166.37Y-104.775
T2
X130.81Y-92.075
X132.08Y-99.695
X132.08Y-102.235
X133.35Y-92.075
X138.43Y-97.155
X138.43Y-104.775
X140.97Y-97.155
X140.97Y-104.775
X143.51Y-97.155
X143.51Y-104.775
X144.78Y-92.075
X146.05Y-97.155
X146.05Y-104.775
X147.32Y-92.075
X148.59Y-97.155
X148.59Y-104.775
X149.86Y-92.075
X151.13Y-97.155
X151.13Y-104.775
X152.4Y-92.075
X153.67Y-97.155
X153.67Y-104.775
X154.94Y-92.075
X156.21Y-97.155
X156.21Y-104.775
X158.75Y-97.155
X158.75Y-104.775
X161.29Y-97.155
X161.29Y-104.775
X170.18Y-97.155
X170.18Y-99.695
X170.18Y-102.235
X170.18Y-104.775
T0
M30
