<?xml version="1.0" standalone="no"?>
 <!DOCTYPE svg PUBLIC "-//W3C//DTD SVG 1.1//EN" 
 "http://www.w3.org/Graphics/SVG/1.1/DTD/svg11.dtd"> 
<svg xmlns="http://www.w3.org/2000/svg" version="1.1" 
    width="29.7002cm" height="21.0007cm" viewBox="0 0 116930 82680 ">
<title>SVG Picture created as ctt_if-F.SilkS.svg date 2022/09/04 20:22:45 </title>
  <desc>Picture generated by PCBNEW </desc>
<g style="fill:#000000; fill-opacity:1;stroke:#000000; stroke-opacity:1;
stroke-linecap:round; stroke-linejoin:round; "
 transform="translate(0 0) scale(1 1)">
</g>
<g style="fill:#000000; fill-opacity:0.0; 
stroke:#000000; stroke-width:-0.000393701; stroke-opacity:1; 
stroke-linecap:round; stroke-linejoin:round;">
</g>
<g style="fill:#000000; fill-opacity:0.0; 
stroke:#000000; stroke-width:39.3701; stroke-opacity:1; 
stroke-linecap:round; stroke-linejoin:round;">
</g>
<g style="fill:#000000; fill-opacity:0.0; 
stroke:#000000; stroke-width:59.0551; stroke-opacity:1; 
stroke-linecap:round; stroke-linejoin:round;">
<rect x="69685.9" y="65357.2" width="42519.7" height="12598.4" rx="0" />
</g>
<g style="fill:#000000; fill-opacity:0.0; 
stroke:#000000; stroke-width:39.3701; stroke-opacity:1; 
stroke-linecap:round; stroke-linejoin:round;">
</g>
<g style="fill:#000000; fill-opacity:0.0; 
stroke:#000000; stroke-width:59.0551; stroke-opacity:1; 
stroke-linecap:round; stroke-linejoin:round;">
<rect x="3937.01" y="3937.01" width="109056" height="74806" rx="0" />
</g>
<g style="fill:#000000; fill-opacity:0.0; 
stroke:#000000; stroke-width:39.3701; stroke-opacity:1; 
stroke-linecap:round; stroke-linejoin:round;">
</g>
<g style="fill:#000000; fill-opacity:0.0; 
stroke:#000000; stroke-width:59.0551; stroke-opacity:1; 
stroke-linecap:round; stroke-linejoin:round;">
<rect x="4724.41" y="4724.41" width="107481" height="73231.2" rx="0" />
</g>
<g style="fill:#000000; fill-opacity:0.0; 
stroke:#000000; stroke-width:39.3701; stroke-opacity:1; 
stroke-linecap:round; stroke-linejoin:round;">
</g>
<g style="fill:#000000; fill-opacity:0.0; 
stroke:#000000; stroke-width:59.0551; stroke-opacity:1; 
stroke-linecap:round; stroke-linejoin:round;">
<path d="M23622 4724
L23622 3937
" />
</g>
<g style="fill:#000000; fill-opacity:0.0; 
stroke:#000000; stroke-width:39.3701; stroke-opacity:1; 
stroke-linecap:round; stroke-linejoin:round;">
</g>
<g style="fill:#000000; fill-opacity:0.0; 
stroke:#000000; stroke-width:59.0551; stroke-opacity:1; 
stroke-linecap:round; stroke-linejoin:round;">
<path d="M43307 4724
L43307 3937
" />
</g>
<g style="fill:#000000; fill-opacity:0.0; 
stroke:#000000; stroke-width:39.3701; stroke-opacity:1; 
stroke-linecap:round; stroke-linejoin:round;">
</g>
<g style="fill:#000000; fill-opacity:0.0; 
stroke:#000000; stroke-width:59.0551; stroke-opacity:1; 
stroke-linecap:round; stroke-linejoin:round;">
<path d="M62992 4724
L62992 3937
" />
</g>
<g style="fill:#000000; fill-opacity:0.0; 
stroke:#000000; stroke-width:39.3701; stroke-opacity:1; 
stroke-linecap:round; stroke-linejoin:round;">
</g>
<g style="fill:#000000; fill-opacity:0.0; 
stroke:#000000; stroke-width:59.0551; stroke-opacity:1; 
stroke-linecap:round; stroke-linejoin:round;">
<path d="M82677 4724
L82677 3937
" />
</g>
<g style="fill:#000000; fill-opacity:0.0; 
stroke:#000000; stroke-width:39.3701; stroke-opacity:1; 
stroke-linecap:round; stroke-linejoin:round;">
</g>
<g style="fill:#000000; fill-opacity:0.0; 
stroke:#000000; stroke-width:59.0551; stroke-opacity:1; 
stroke-linecap:round; stroke-linejoin:round;">
<path d="M102362 4724
L102362 3937
" />
</g>
<g style="fill:#000000; fill-opacity:0.0; 
stroke:#000000; stroke-width:39.3701; stroke-opacity:1; 
stroke-linecap:round; stroke-linejoin:round;">
</g>
<g style="fill:#000000; fill-opacity:0.0; 
stroke:#000000; stroke-width:59.0551; stroke-opacity:1; 
stroke-linecap:round; stroke-linejoin:round;">
<path d="M14169 4562
L13877 4562
" />
<path d="M14023 4562
L14023 4050
L13974 4123
L13925 4172
L13877 4196
" />
</g>
<g style="fill:#000000; fill-opacity:0.0; 
stroke:#000000; stroke-width:39.3701; stroke-opacity:1; 
stroke-linecap:round; stroke-linejoin:round;">
</g>
<g style="fill:#000000; fill-opacity:0.0; 
stroke:#000000; stroke-width:59.0551; stroke-opacity:1; 
stroke-linecap:round; stroke-linejoin:round;">
<path d="M33562 4099
L33586 4074
L33635 4050
L33757 4050
L33805 4074
L33830 4099
L33854 4147
L33854 4196
L33830 4269
L33537 4562
L33854 4562
" />
</g>
<g style="fill:#000000; fill-opacity:0.0; 
stroke:#000000; stroke-width:39.3701; stroke-opacity:1; 
stroke-linecap:round; stroke-linejoin:round;">
</g>
<g style="fill:#000000; fill-opacity:0.0; 
stroke:#000000; stroke-width:59.0551; stroke-opacity:1; 
stroke-linecap:round; stroke-linejoin:round;">
<path d="M53222 4050
L53539 4050
L53368 4245
L53442 4245
L53490 4269
L53515 4294
L53539 4342
L53539 4464
L53515 4513
L53490 4537
L53442 4562
L53295 4562
L53247 4537
L53222 4513
" />
</g>
<g style="fill:#000000; fill-opacity:0.0; 
stroke:#000000; stroke-width:39.3701; stroke-opacity:1; 
stroke-linecap:round; stroke-linejoin:round;">
</g>
<g style="fill:#000000; fill-opacity:0.0; 
stroke:#000000; stroke-width:59.0551; stroke-opacity:1; 
stroke-linecap:round; stroke-linejoin:round;">
<path d="M73175 4221
L73175 4562
" />
<path d="M73053 4026
L72932 4391
L73248 4391
" />
</g>
<g style="fill:#000000; fill-opacity:0.0; 
stroke:#000000; stroke-width:39.3701; stroke-opacity:1; 
stroke-linecap:round; stroke-linejoin:round;">
</g>
<g style="fill:#000000; fill-opacity:0.0; 
stroke:#000000; stroke-width:59.0551; stroke-opacity:1; 
stroke-linecap:round; stroke-linejoin:round;">
<path d="M92885 4050
L92641 4050
L92617 4294
L92641 4269
L92690 4245
L92812 4245
L92860 4269
L92885 4294
L92909 4342
L92909 4464
L92885 4513
L92860 4537
L92812 4562
L92690 4562
L92641 4537
L92617 4513
" />
</g>
<g style="fill:#000000; fill-opacity:0.0; 
stroke:#000000; stroke-width:39.3701; stroke-opacity:1; 
stroke-linecap:round; stroke-linejoin:round;">
</g>
<g style="fill:#000000; fill-opacity:0.0; 
stroke:#000000; stroke-width:59.0551; stroke-opacity:1; 
stroke-linecap:round; stroke-linejoin:round;">
<path d="M112545 4050
L112448 4050
L112399 4074
L112375 4099
L112326 4172
L112302 4269
L112302 4464
L112326 4513
L112350 4537
L112399 4562
L112497 4562
L112545 4537
L112570 4513
L112594 4464
L112594 4342
L112570 4294
L112545 4269
L112497 4245
L112399 4245
L112350 4269
L112326 4294
L112302 4342
" />
</g>
<g style="fill:#000000; fill-opacity:0.0; 
stroke:#000000; stroke-width:39.3701; stroke-opacity:1; 
stroke-linecap:round; stroke-linejoin:round;">
</g>
<g style="fill:#000000; fill-opacity:0.0; 
stroke:#000000; stroke-width:59.0551; stroke-opacity:1; 
stroke-linecap:round; stroke-linejoin:round;">
<path d="M23622 77955
L23622 78742
" />
</g>
<g style="fill:#000000; fill-opacity:0.0; 
stroke:#000000; stroke-width:39.3701; stroke-opacity:1; 
stroke-linecap:round; stroke-linejoin:round;">
</g>
<g style="fill:#000000; fill-opacity:0.0; 
stroke:#000000; stroke-width:59.0551; stroke-opacity:1; 
stroke-linecap:round; stroke-linejoin:round;">
<path d="M43307 77955
L43307 78742
" />
</g>
<g style="fill:#000000; fill-opacity:0.0; 
stroke:#000000; stroke-width:39.3701; stroke-opacity:1; 
stroke-linecap:round; stroke-linejoin:round;">
</g>
<g style="fill:#000000; fill-opacity:0.0; 
stroke:#000000; stroke-width:59.0551; stroke-opacity:1; 
stroke-linecap:round; stroke-linejoin:round;">
<path d="M62992 77955
L62992 78742
" />
</g>
<g style="fill:#000000; fill-opacity:0.0; 
stroke:#000000; stroke-width:39.3701; stroke-opacity:1; 
stroke-linecap:round; stroke-linejoin:round;">
</g>
<g style="fill:#000000; fill-opacity:0.0; 
stroke:#000000; stroke-width:59.0551; stroke-opacity:1; 
stroke-linecap:round; stroke-linejoin:round;">
<path d="M82677 77955
L82677 78742
" />
</g>
<g style="fill:#000000; fill-opacity:0.0; 
stroke:#000000; stroke-width:39.3701; stroke-opacity:1; 
stroke-linecap:round; stroke-linejoin:round;">
</g>
<g style="fill:#000000; fill-opacity:0.0; 
stroke:#000000; stroke-width:59.0551; stroke-opacity:1; 
stroke-linecap:round; stroke-linejoin:round;">
<path d="M102362 77955
L102362 78742
" />
</g>
<g style="fill:#000000; fill-opacity:0.0; 
stroke:#000000; stroke-width:39.3701; stroke-opacity:1; 
stroke-linecap:round; stroke-linejoin:round;">
</g>
<g style="fill:#000000; fill-opacity:0.0; 
stroke:#000000; stroke-width:59.0551; stroke-opacity:1; 
stroke-linecap:round; stroke-linejoin:round;">
<path d="M14169 78580
L13877 78580
" />
<path d="M14023 78580
L14023 78069
L13974 78142
L13925 78190
L13877 78215
" />
</g>
<g style="fill:#000000; fill-opacity:0.0; 
stroke:#000000; stroke-width:39.3701; stroke-opacity:1; 
stroke-linecap:round; stroke-linejoin:round;">
</g>
<g style="fill:#000000; fill-opacity:0.0; 
stroke:#000000; stroke-width:59.0551; stroke-opacity:1; 
stroke-linecap:round; stroke-linejoin:round;">
<path d="M33562 78117
L33586 78093
L33635 78069
L33757 78069
L33805 78093
L33830 78117
L33854 78166
L33854 78215
L33830 78288
L33537 78580
L33854 78580
" />
</g>
<g style="fill:#000000; fill-opacity:0.0; 
stroke:#000000; stroke-width:39.3701; stroke-opacity:1; 
stroke-linecap:round; stroke-linejoin:round;">
</g>
<g style="fill:#000000; fill-opacity:0.0; 
stroke:#000000; stroke-width:59.0551; stroke-opacity:1; 
stroke-linecap:round; stroke-linejoin:round;">
<path d="M53222 78069
L53539 78069
L53368 78263
L53442 78263
L53490 78288
L53515 78312
L53539 78361
L53539 78483
L53515 78532
L53490 78556
L53442 78580
L53295 78580
L53247 78556
L53222 78532
" />
</g>
<g style="fill:#000000; fill-opacity:0.0; 
stroke:#000000; stroke-width:39.3701; stroke-opacity:1; 
stroke-linecap:round; stroke-linejoin:round;">
</g>
<g style="fill:#000000; fill-opacity:0.0; 
stroke:#000000; stroke-width:59.0551; stroke-opacity:1; 
stroke-linecap:round; stroke-linejoin:round;">
<path d="M73175 78239
L73175 78580
" />
<path d="M73053 78044
L72932 78410
L73248 78410
" />
</g>
<g style="fill:#000000; fill-opacity:0.0; 
stroke:#000000; stroke-width:39.3701; stroke-opacity:1; 
stroke-linecap:round; stroke-linejoin:round;">
</g>
<g style="fill:#000000; fill-opacity:0.0; 
stroke:#000000; stroke-width:59.0551; stroke-opacity:1; 
stroke-linecap:round; stroke-linejoin:round;">
<path d="M92885 78069
L92641 78069
L92617 78312
L92641 78288
L92690 78263
L92812 78263
L92860 78288
L92885 78312
L92909 78361
L92909 78483
L92885 78532
L92860 78556
L92812 78580
L92690 78580
L92641 78556
L92617 78532
" />
</g>
<g style="fill:#000000; fill-opacity:0.0; 
stroke:#000000; stroke-width:39.3701; stroke-opacity:1; 
stroke-linecap:round; stroke-linejoin:round;">
</g>
<g style="fill:#000000; fill-opacity:0.0; 
stroke:#000000; stroke-width:59.0551; stroke-opacity:1; 
stroke-linecap:round; stroke-linejoin:round;">
<path d="M112545 78069
L112448 78069
L112399 78093
L112375 78117
L112326 78190
L112302 78288
L112302 78483
L112326 78532
L112350 78556
L112399 78580
L112497 78580
L112545 78556
L112570 78532
L112594 78483
L112594 78361
L112570 78312
L112545 78288
L112497 78263
L112399 78263
L112350 78288
L112326 78312
L112302 78361
" />
</g>
<g style="fill:#000000; fill-opacity:0.0; 
stroke:#000000; stroke-width:39.3701; stroke-opacity:1; 
stroke-linecap:round; stroke-linejoin:round;">
</g>
<g style="fill:#000000; fill-opacity:0.0; 
stroke:#000000; stroke-width:59.0551; stroke-opacity:1; 
stroke-linecap:round; stroke-linejoin:round;">
<path d="M3937 23622
L4724 23622
" />
</g>
<g style="fill:#000000; fill-opacity:0.0; 
stroke:#000000; stroke-width:39.3701; stroke-opacity:1; 
stroke-linecap:round; stroke-linejoin:round;">
</g>
<g style="fill:#000000; fill-opacity:0.0; 
stroke:#000000; stroke-width:59.0551; stroke-opacity:1; 
stroke-linecap:round; stroke-linejoin:round;">
<path d="M3937 43307
L4724 43307
" />
</g>
<g style="fill:#000000; fill-opacity:0.0; 
stroke:#000000; stroke-width:39.3701; stroke-opacity:1; 
stroke-linecap:round; stroke-linejoin:round;">
</g>
<g style="fill:#000000; fill-opacity:0.0; 
stroke:#000000; stroke-width:59.0551; stroke-opacity:1; 
stroke-linecap:round; stroke-linejoin:round;">
<path d="M3937 62992
L4724 62992
" />
</g>
<g style="fill:#000000; fill-opacity:0.0; 
stroke:#000000; stroke-width:39.3701; stroke-opacity:1; 
stroke-linecap:round; stroke-linejoin:round;">
</g>
<g style="fill:#000000; fill-opacity:0.0; 
stroke:#000000; stroke-width:59.0551; stroke-opacity:1; 
stroke-linecap:round; stroke-linejoin:round;">
<path d="M4208 13864
L4452 13864
" />
<path d="M4160 14011
L4330 13499
L4501 14011
" />
</g>
<g style="fill:#000000; fill-opacity:0.0; 
stroke:#000000; stroke-width:39.3701; stroke-opacity:1; 
stroke-linecap:round; stroke-linejoin:round;">
</g>
<g style="fill:#000000; fill-opacity:0.0; 
stroke:#000000; stroke-width:59.0551; stroke-opacity:1; 
stroke-linecap:round; stroke-linejoin:round;">
<path d="M4367 33428
L4440 33452
L4464 33476
L4489 33525
L4489 33598
L4464 33647
L4440 33671
L4391 33696
L4196 33696
L4196 33184
L4367 33184
L4416 33208
L4440 33233
L4464 33281
L4464 33330
L4440 33379
L4416 33403
L4367 33428
L4196 33428
" />
</g>
<g style="fill:#000000; fill-opacity:0.0; 
stroke:#000000; stroke-width:39.3701; stroke-opacity:1; 
stroke-linecap:round; stroke-linejoin:round;">
</g>
<g style="fill:#000000; fill-opacity:0.0; 
stroke:#000000; stroke-width:59.0551; stroke-opacity:1; 
stroke-linecap:round; stroke-linejoin:round;">
<path d="M4489 53332
L4464 53356
L4391 53381
L4342 53381
L4269 53356
L4221 53308
L4196 53259
L4172 53161
L4172 53088
L4196 52991
L4221 52942
L4269 52893
L4342 52869
L4391 52869
L4464 52893
L4489 52918
" />
</g>
<g style="fill:#000000; fill-opacity:0.0; 
stroke:#000000; stroke-width:39.3701; stroke-opacity:1; 
stroke-linecap:round; stroke-linejoin:round;">
</g>
<g style="fill:#000000; fill-opacity:0.0; 
stroke:#000000; stroke-width:59.0551; stroke-opacity:1; 
stroke-linecap:round; stroke-linejoin:round;">
<path d="M4196 73066
L4196 72554
L4318 72554
L4391 72578
L4440 72627
L4464 72676
L4489 72773
L4489 72846
L4464 72944
L4440 72993
L4391 73041
L4318 73066
L4196 73066
" />
</g>
<g style="fill:#000000; fill-opacity:0.0; 
stroke:#000000; stroke-width:39.3701; stroke-opacity:1; 
stroke-linecap:round; stroke-linejoin:round;">
</g>
<g style="fill:#000000; fill-opacity:0.0; 
stroke:#000000; stroke-width:59.0551; stroke-opacity:1; 
stroke-linecap:round; stroke-linejoin:round;">
<path d="M112992 23622
L112205 23622
" />
</g>
<g style="fill:#000000; fill-opacity:0.0; 
stroke:#000000; stroke-width:39.3701; stroke-opacity:1; 
stroke-linecap:round; stroke-linejoin:round;">
</g>
<g style="fill:#000000; fill-opacity:0.0; 
stroke:#000000; stroke-width:59.0551; stroke-opacity:1; 
stroke-linecap:round; stroke-linejoin:round;">
<path d="M112992 43307
L112205 43307
" />
</g>
<g style="fill:#000000; fill-opacity:0.0; 
stroke:#000000; stroke-width:39.3701; stroke-opacity:1; 
stroke-linecap:round; stroke-linejoin:round;">
</g>
<g style="fill:#000000; fill-opacity:0.0; 
stroke:#000000; stroke-width:59.0551; stroke-opacity:1; 
stroke-linecap:round; stroke-linejoin:round;">
<path d="M112992 62992
L112205 62992
" />
</g>
<g style="fill:#000000; fill-opacity:0.0; 
stroke:#000000; stroke-width:39.3701; stroke-opacity:1; 
stroke-linecap:round; stroke-linejoin:round;">
</g>
<g style="fill:#000000; fill-opacity:0.0; 
stroke:#000000; stroke-width:59.0551; stroke-opacity:1; 
stroke-linecap:round; stroke-linejoin:round;">
<path d="M112477 13864
L112721 13864
" />
<path d="M112428 14011
L112599 13499
L112769 14011
" />
</g>
<g style="fill:#000000; fill-opacity:0.0; 
stroke:#000000; stroke-width:39.3701; stroke-opacity:1; 
stroke-linecap:round; stroke-linejoin:round;">
</g>
<g style="fill:#000000; fill-opacity:0.0; 
stroke:#000000; stroke-width:59.0551; stroke-opacity:1; 
stroke-linecap:round; stroke-linejoin:round;">
<path d="M112635 33428
L112708 33452
L112733 33476
L112757 33525
L112757 33598
L112733 33647
L112708 33671
L112660 33696
L112465 33696
L112465 33184
L112635 33184
L112684 33208
L112708 33233
L112733 33281
L112733 33330
L112708 33379
L112684 33403
L112635 33428
L112465 33428
" />
</g>
<g style="fill:#000000; fill-opacity:0.0; 
stroke:#000000; stroke-width:39.3701; stroke-opacity:1; 
stroke-linecap:round; stroke-linejoin:round;">
</g>
<g style="fill:#000000; fill-opacity:0.0; 
stroke:#000000; stroke-width:59.0551; stroke-opacity:1; 
stroke-linecap:round; stroke-linejoin:round;">
<path d="M112757 53332
L112733 53356
L112660 53381
L112611 53381
L112538 53356
L112489 53308
L112465 53259
L112440 53161
L112440 53088
L112465 52991
L112489 52942
L112538 52893
L112611 52869
L112660 52869
L112733 52893
L112757 52918
" />
</g>
<g style="fill:#000000; fill-opacity:0.0; 
stroke:#000000; stroke-width:39.3701; stroke-opacity:1; 
stroke-linecap:round; stroke-linejoin:round;">
</g>
<g style="fill:#000000; fill-opacity:0.0; 
stroke:#000000; stroke-width:59.0551; stroke-opacity:1; 
stroke-linecap:round; stroke-linejoin:round;">
<path d="M112465 73066
L112465 72554
L112587 72554
L112660 72578
L112708 72627
L112733 72676
L112757 72773
L112757 72846
L112733 72944
L112708 72993
L112660 73041
L112587 73066
L112465 73066
" />
</g>
<g style="fill:#000000; fill-opacity:0.0; 
stroke:#000000; stroke-width:39.3701; stroke-opacity:1; 
stroke-linecap:round; stroke-linejoin:round;">
</g>
<g style="fill:#000000; fill-opacity:0.0; 
stroke:#000000; stroke-width:59.0551; stroke-opacity:1; 
stroke-linecap:round; stroke-linejoin:round;">
<path d="M78881 76293
L78881 75703
L79022 75703
L79106 75731
L79162 75787
L79190 75843
L79219 75956
L79219 76040
L79190 76153
L79162 76209
L79106 76265
L79022 76293
L78881 76293
" />
<path d="M79725 76293
L79725 75984
L79697 75928
L79640 75899
L79528 75899
L79472 75928
" />
<path d="M79725 76265
L79669 76293
L79528 76293
L79472 76265
L79444 76209
L79444 76153
L79472 76096
L79528 76068
L79669 76068
L79725 76040
" />
<path d="M79922 75899
L80147 75899
" />
<path d="M80006 75703
L80006 76209
L80034 76265
L80090 76293
L80147 76293
" />
<path d="M80568 76265
L80512 76293
L80400 76293
L80343 76265
L80315 76209
L80315 75984
L80343 75928
L80400 75899
L80512 75899
L80568 75928
L80597 75984
L80597 76040
L80315 76096
" />
<path d="M80850 76237
L80878 76265
L80850 76293
L80822 76265
L80850 76237
L80850 76293
" />
<path d="M80850 75928
L80878 75956
L80850 75984
L80822 75956
L80850 75928
L80850 75984
" />
<path d="M81890 76293
L81553 76293
" />
<path d="M81721 76293
L81721 75703
L81665 75787
L81609 75843
L81553 75871
" />
<path d="M82424 75703
L82143 75703
L82115 75984
L82143 75956
L82199 75928
L82340 75928
L82396 75956
L82424 75984
L82453 76040
L82453 76181
L82424 76237
L82396 76265
L82340 76293
L82199 76293
L82143 76265
L82115 76237
" />
<path d="M83156 76293
L83156 75899
" />
<path d="M83156 75956
L83184 75928
L83240 75899
L83324 75899
L83381 75928
L83409 75984
L83409 76293
" />
<path d="M83409 75984
L83437 75928
L83493 75899
L83577 75899
L83634 75928
L83662 75984
L83662 76293
" />
<path d="M84196 76293
L84196 75984
L84168 75928
L84112 75899
L83999 75899
L83943 75928
" />
<path d="M84196 76265
L84140 76293
L83999 76293
L83943 76265
L83915 76209
L83915 76153
L83943 76096
L83999 76068
L84140 76068
L84196 76040
" />
<path d="M84477 76293
L84477 75899
" />
<path d="M84477 76012
L84505 75956
L84534 75928
L84590 75899
L84646 75899
" />
<path d="M85265 75759
L85293 75731
L85349 75703
L85490 75703
L85546 75731
L85574 75759
L85602 75815
L85602 75871
L85574 75956
L85237 76293
L85602 76293
" />
<path d="M85968 75703
L86024 75703
L86080 75731
L86108 75759
L86136 75815
L86165 75928
L86165 76068
L86136 76181
L86108 76237
L86080 76265
L86024 76293
L85968 76293
L85912 76265
L85883 76237
L85855 76181
L85827 76068
L85827 75928
L85855 75815
L85883 75759
L85912 75731
L85968 75703
" />
<path d="M86727 76293
L86390 76293
" />
<path d="M86558 76293
L86558 75703
L86502 75787
L86446 75843
L86390 75871
" />
<path d="M87289 76293
L86952 76293
" />
<path d="M87121 76293
L87121 75703
L87064 75787
L87008 75843
L86952 75871
" />
</g>
<g style="fill:#000000; fill-opacity:0.0; 
stroke:#000000; stroke-width:39.3701; stroke-opacity:1; 
stroke-linecap:round; stroke-linejoin:round;">
</g>
<g style="fill:#000000; fill-opacity:0.0; 
stroke:#000000; stroke-width:59.0551; stroke-opacity:1; 
stroke-linecap:round; stroke-linejoin:round;">
<path d="M69685 76577
L112205 76577
" />
</g>
<g style="fill:#000000; fill-opacity:0.0; 
stroke:#000000; stroke-width:39.3701; stroke-opacity:1; 
stroke-linecap:round; stroke-linejoin:round;">
</g>
<g style="fill:#000000; fill-opacity:0.0; 
stroke:#000000; stroke-width:59.0551; stroke-opacity:1; 
stroke-linecap:round; stroke-linejoin:round;">
<path d="M70220 77395
L70220 76805
" />
<path d="M70557 77395
L70304 77058
" />
<path d="M70557 76805
L70220 77142
" />
<path d="M70810 77395
L70810 77002
" />
<path d="M70810 76805
L70782 76833
L70810 76861
L70838 76833
L70810 76805
L70810 76861
" />
<path d="M71429 77339
L71401 77367
L71316 77395
L71260 77395
L71176 77367
L71120 77311
L71091 77255
L71063 77142
L71063 77058
L71091 76946
L71120 76889
L71176 76833
L71260 76805
L71316 76805
L71401 76833
L71429 76861
" />
<path d="M71935 77395
L71935 77086
L71907 77030
L71851 77002
L71738 77002
L71682 77030
" />
<path d="M71935 77367
L71879 77395
L71738 77395
L71682 77367
L71654 77311
L71654 77255
L71682 77199
L71738 77171
L71879 77171
L71935 77142
" />
<path d="M72469 77395
L72469 76805
" />
<path d="M72469 77367
L72413 77395
L72301 77395
L72244 77367
L72216 77339
L72188 77283
L72188 77114
L72216 77058
L72244 77030
L72301 77002
L72413 77002
L72469 77030
" />
<path d="M73201 77086
L73397 77086
" />
<path d="M73482 77395
L73201 77395
L73201 76805
L73482 76805
" />
<path d="M73735 77339
L73763 77367
L73735 77395
L73707 77367
L73735 77339
L73735 77395
" />
<path d="M74016 77395
L74016 76805
L74157 76805
L74241 76833
L74297 76889
L74325 76946
L74354 77058
L74354 77142
L74325 77255
L74297 77311
L74241 77367
L74157 77395
L74016 77395
" />
<path d="M74607 77339
L74635 77367
L74607 77395
L74579 77367
L74607 77339
L74607 77395
" />
<path d="M74860 77227
L75141 77227
" />
<path d="M74804 77395
L75000 76805
L75197 77395
" />
<path d="M75394 77339
L75422 77367
L75394 77395
L75366 77367
L75394 77339
L75394 77395
" />
<path d="M76575 77002
L76575 77592
" />
<path d="M76575 77030
L76631 77002
L76744 77002
L76800 77030
L76828 77058
L76856 77114
L76856 77283
L76828 77339
L76800 77367
L76744 77395
L76631 77395
L76575 77367
" />
<path d="M77363 77367
L77306 77395
L77194 77395
L77138 77367
L77109 77339
L77081 77283
L77081 77114
L77109 77058
L77138 77030
L77194 77002
L77306 77002
L77363 77030
" />
<path d="M77616 77395
L77616 76805
" />
<path d="M77616 77030
L77672 77002
L77784 77002
L77841 77030
L77869 77058
L77897 77114
L77897 77283
L77869 77339
L77841 77367
L77784 77395
L77672 77395
L77616 77367
" />
<path d="M78150 77002
L78150 77395
" />
<path d="M78150 77058
L78178 77030
L78234 77002
L78319 77002
L78375 77030
L78403 77086
L78403 77395
" />
<path d="M78909 77367
L78853 77395
L78741 77395
L78684 77367
L78656 77311
L78656 77086
L78684 77030
L78741 77002
L78853 77002
L78909 77030
L78937 77086
L78937 77142
L78656 77199
" />
<path d="M79134 77002
L79247 77395
L79359 77114
L79472 77395
L79584 77002
" />
<path d="M80512 77002
L80512 77395
" />
<path d="M80372 76777
L80231 77199
L80597 77199
" />
<path d="M80822 77339
L80850 77367
L80822 77395
L80793 77367
L80822 77339
L80822 77395
" />
<path d="M81215 76805
L81271 76805
L81328 76833
L81356 76861
L81384 76917
L81412 77030
L81412 77171
L81384 77283
L81356 77339
L81328 77367
L81271 77395
L81215 77395
L81159 77367
L81131 77339
L81103 77283
L81075 77171
L81075 77030
L81103 76917
L81131 76861
L81159 76833
L81215 76805
" />
<path d="M81665 77339
L81693 77367
L81665 77395
L81637 77367
L81665 77339
L81665 77395
" />
<path d="M82228 76805
L81946 76805
L81918 77086
L81946 77058
L82003 77030
L82143 77030
L82199 77058
L82228 77086
L82256 77142
L82256 77283
L82228 77339
L82199 77367
L82143 77395
L82003 77395
L81946 77367
L81918 77339
" />
<path d="M82509 77171
L82959 77171
" />
<path d="M82734 77395
L82734 76946
" />
<path d="M83493 77395
L83493 76805
" />
<path d="M83493 77367
L83437 77395
L83324 77395
L83268 77367
L83240 77339
L83212 77283
L83212 77114
L83240 77058
L83268 77030
L83324 77002
L83437 77002
L83493 77030
" />
<path d="M83690 77002
L83915 77002
" />
<path d="M83774 77395
L83774 76889
L83802 76833
L83859 76805
L83915 76805
" />
<path d="M84084 77367
L84140 77395
L84252 77395
L84309 77367
L84337 77311
L84337 77283
L84309 77227
L84252 77199
L84168 77199
L84112 77171
L84084 77114
L84084 77086
L84112 77030
L84168 77002
L84252 77002
L84309 77030
" />
<path d="M84843 77002
L84843 77480
L84815 77536
L84787 77564
L84730 77592
L84646 77592
L84590 77564
" />
<path d="M84843 77367
L84787 77395
L84674 77395
L84618 77367
L84590 77339
L84562 77283
L84562 77114
L84590 77058
L84618 77030
L84674 77002
L84787 77002
L84843 77030
" />
<path d="M85433 77395
L85096 77395
" />
<path d="M85265 77395
L85265 76805
L85208 76889
L85152 76946
L85096 76974
" />
<path d="M85687 77171
L86136 77171
" />
<path d="M86671 77002
L86671 77395
" />
<path d="M86530 76777
L86390 77199
L86755 77199
" />
<path d="M86980 77171
L87430 77171
" />
<path d="M87205 77395
L87205 76946
" />
<path d="M87964 77395
L87964 76805
" />
<path d="M87964 77367
L87908 77395
L87796 77395
L87739 77367
L87711 77339
L87683 77283
L87683 77114
L87711 77058
L87739 77030
L87796 77002
L87908 77002
L87964 77030
" />
<path d="M88471 77367
L88414 77395
L88302 77395
L88246 77367
L88217 77311
L88217 77086
L88246 77030
L88302 77002
L88414 77002
L88471 77030
L88499 77086
L88499 77142
L88217 77199
" />
<path d="M88752 77395
L88752 76805
" />
<path d="M88752 77030
L88808 77002
L88921 77002
L88977 77030
L89005 77058
L89033 77114
L89033 77283
L89005 77339
L88977 77367
L88921 77395
L88808 77395
L88752 77367
" />
<path d="M89314 77395
L89427 77395
L89483 77367
L89511 77339
L89567 77255
L89595 77142
L89595 76917
L89567 76861
L89539 76833
L89483 76805
L89370 76805
L89314 76833
L89286 76861
L89258 76917
L89258 77058
L89286 77114
L89314 77142
L89370 77171
L89483 77171
L89539 77142
L89567 77114
L89595 77058
" />
<path d="M90102 77002
L90102 77395
" />
<path d="M89849 77002
L89849 77311
L89877 77367
L89933 77395
L90017 77395
L90073 77367
L90102 77339
" />
<path d="M90692 77395
L90355 77395
" />
<path d="M90523 77395
L90523 76805
L90467 76889
L90411 76946
L90355 76974
" />
</g>
<g style="fill:#000000; fill-opacity:0.0; 
stroke:#000000; stroke-width:39.3701; stroke-opacity:1; 
stroke-linecap:round; stroke-linejoin:round;">
</g>
<g style="fill:#000000; fill-opacity:0.0; 
stroke:#000000; stroke-width:59.0551; stroke-opacity:1; 
stroke-linecap:round; stroke-linejoin:round;">
<path d="M69685 75396
L112205 75396
" />
</g>
<g style="fill:#000000; fill-opacity:0.0; 
stroke:#000000; stroke-width:39.3701; stroke-opacity:1; 
stroke-linecap:round; stroke-linejoin:round;">
</g>
<g style="fill:#000000; fill-opacity:0.0; 
stroke:#000000; stroke-width:118.11; stroke-opacity:1; 
stroke-linecap:round; stroke-linejoin:round;">
<path d="M104022 76293
L103825 76012
" />
<path d="M103684 76293
L103684 75703
L103909 75703
L103965 75731
L103994 75759
L104022 75815
L104022 75899
L103994 75956
L103965 75984
L103909 76012
L103684 76012
" />
<path d="M104500 76265
L104444 76293
L104331 76293
L104275 76265
L104247 76209
L104247 75984
L104275 75928
L104331 75899
L104444 75899
L104500 75928
L104528 75984
L104528 76040
L104247 76096
" />
<path d="M104725 75899
L104865 76293
L105006 75899
" />
<path d="M105231 76237
L105259 76265
L105231 76293
L105203 76265
L105231 76237
L105231 76293
" />
<path d="M105231 75928
L105259 75956
L105231 75984
L105203 75956
L105231 75928
L105231 75984
" />
<path d="M106271 76293
L105934 76293
" />
<path d="M106103 76293
L106103 75703
L106046 75787
L105990 75843
L105934 75871
" />
<path d="M106525 76237
L106553 76265
L106525 76293
L106496 76265
L106525 76237
L106525 76293
" />
<path d="M106918 75703
L106974 75703
L107031 75731
L107059 75759
L107087 75815
L107115 75928
L107115 76068
L107087 76181
L107059 76237
L107031 76265
L106974 76293
L106918 76293
L106862 76265
L106834 76237
L106806 76181
L106778 76068
L106778 75928
L106806 75815
L106834 75759
L106862 75731
L106918 75703
" />
</g>
<g style="fill:#000000; fill-opacity:0.0; 
stroke:#000000; stroke-width:39.3701; stroke-opacity:1; 
stroke-linecap:round; stroke-linejoin:round;">
</g>
<g style="fill:#000000; fill-opacity:0.0; 
stroke:#000000; stroke-width:59.0551; stroke-opacity:1; 
stroke-linecap:round; stroke-linejoin:round;">
<path d="M70192 76265
L70276 76293
L70417 76293
L70473 76265
L70501 76237
L70529 76181
L70529 76124
L70501 76068
L70473 76040
L70417 76012
L70304 75984
L70248 75956
L70220 75928
L70192 75871
L70192 75815
L70220 75759
L70248 75731
L70304 75703
L70445 75703
L70529 75731
" />
<path d="M70782 76293
L70782 75899
" />
<path d="M70782 75703
L70754 75731
L70782 75759
L70810 75731
L70782 75703
L70782 75759
" />
<path d="M71007 75899
L71316 75899
L71007 76293
L71316 76293
" />
<path d="M71766 76265
L71710 76293
L71598 76293
L71541 76265
L71513 76209
L71513 75984
L71541 75928
L71598 75899
L71710 75899
L71766 75928
L71795 75984
L71795 76040
L71513 76096
" />
<path d="M72048 76237
L72076 76265
L72048 76293
L72019 76265
L72048 76237
L72048 76293
" />
<path d="M72048 75928
L72076 75956
L72048 75984
L72019 75956
L72048 75928
L72048 75984
" />
<path d="M72751 76124
L73032 76124
" />
<path d="M72694 76293
L72891 75703
L73088 76293
" />
<path d="M73538 75899
L73538 76293
" />
<path d="M73397 75674
L73257 76096
L73622 76096
" />
</g>
<g style="fill:#000000; fill-opacity:0.0; 
stroke:#000000; stroke-width:39.3701; stroke-opacity:1; 
stroke-linecap:round; stroke-linejoin:round;">
</g>
<g style="fill:#000000; fill-opacity:0.0; 
stroke:#000000; stroke-width:59.0551; stroke-opacity:1; 
stroke-linecap:round; stroke-linejoin:round;">
<path d="M103684 77395
L103684 76805
" />
<path d="M104219 77395
L104219 76805
" />
<path d="M104219 77367
L104162 77395
L104050 77395
L103994 77367
L103965 77339
L103937 77283
L103937 77114
L103965 77058
L103994 77030
L104050 77002
L104162 77002
L104219 77030
" />
<path d="M104500 77339
L104528 77367
L104500 77395
L104472 77367
L104500 77339
L104500 77395
" />
<path d="M104500 77030
L104528 77058
L104500 77086
L104472 77058
L104500 77030
L104500 77086
" />
<path d="M105540 77395
L105203 77395
" />
<path d="M105372 77395
L105372 76805
L105315 76889
L105259 76946
L105203 76974
" />
<path d="M106215 76777
L105709 77536
" />
<path d="M106721 77395
L106384 77395
" />
<path d="M106553 77395
L106553 76805
L106496 76889
L106440 76946
L106384 76974
" />
</g>
<g style="fill:#000000; fill-opacity:0.0; 
stroke:#000000; stroke-width:39.3701; stroke-opacity:1; 
stroke-linecap:round; stroke-linejoin:round;">
</g>
<g style="fill:#000000; fill-opacity:0.0; 
stroke:#000000; stroke-width:59.0551; stroke-opacity:1; 
stroke-linecap:round; stroke-linejoin:round;">
<path d="M69685 73821
L112205 73821
" />
</g>
<g style="fill:#000000; fill-opacity:0.0; 
stroke:#000000; stroke-width:39.3701; stroke-opacity:1; 
stroke-linecap:round; stroke-linejoin:round;">
</g>
<g style="fill:#000000; fill-opacity:0.0; 
stroke:#000000; stroke-width:157.48; stroke-opacity:1; 
stroke-linecap:round; stroke-linejoin:round;">
<path d="M70257 74099
L70707 74099
" />
<path d="M70384 74886
L70482 74099
" />
<path d="M70871 74886
L70937 74361
" />
<path d="M70970 74099
L70927 74136
L70960 74174
L71002 74136
L70970 74099
L70960 74174
" />
<path d="M71199 74361
L71499 74361
" />
<path d="M71345 74099
L71260 74774
L71288 74849
L71359 74886
L71434 74886
" />
<path d="M71809 74886
L71738 74849
L71710 74774
L71795 74099
" />
<path d="M72413 74849
L72334 74886
L72184 74886
L72113 74849
L72085 74774
L72123 74474
L72169 74399
L72249 74361
L72399 74361
L72469 74399
L72498 74474
L72488 74549
L72104 74624
" />
<path d="M72793 74811
L72826 74849
L72783 74886
L72751 74849
L72793 74811
L72783 74886
" />
<path d="M72844 74399
L72877 74436
L72835 74474
L72802 74436
L72844 74399
L72835 74474
" />
<path d="M74218 74811
L74175 74849
L74058 74886
L73983 74886
L73876 74849
L73810 74774
L73782 74699
L73763 74549
L73777 74436
L73833 74286
L73880 74211
L73965 74136
L74082 74099
L74157 74099
L74265 74136
L74297 74174
" />
<path d="M74532 74099
L74982 74099
" />
<path d="M74658 74886
L74757 74099
" />
<path d="M75132 74099
L75582 74099
" />
<path d="M75258 74886
L75357 74099
" />
<path d="M76331 74099
L76781 74099
" />
<path d="M76458 74886
L76556 74099
" />
<path d="M76945 74886
L77011 74361
" />
<path d="M76992 74511
L77039 74436
L77081 74399
L77161 74361
L77236 74361
" />
<path d="M77770 74886
L77822 74474
L77794 74399
L77723 74361
L77573 74361
L77494 74399
" />
<path d="M77775 74849
L77695 74886
L77508 74886
L77438 74849
L77409 74774
L77419 74699
L77466 74624
L77545 74586
L77733 74586
L77813 74549
" />
<path d="M78211 74361
L78145 74886
" />
<path d="M78202 74436
L78244 74399
L78323 74361
L78436 74361
L78506 74399
L78534 74474
L78483 74886
" />
<path d="M78825 74849
L78895 74886
L79045 74886
L79125 74849
L79172 74774
L79176 74736
L79148 74661
L79078 74624
L78965 74624
L78895 74586
L78867 74511
L78872 74474
L78919 74399
L78998 74361
L79111 74361
L79181 74399
" />
<path d="M79495 74886
L79561 74361
" />
<path d="M79594 74099
L79551 74136
L79584 74174
L79626 74136
L79594 74099
L79584 74174
" />
<path d="M79837 74849
L79908 74886
L80058 74886
L80137 74849
L80184 74774
L80189 74736
L80161 74661
L80090 74624
L79978 74624
L79908 74586
L79879 74511
L79884 74474
L79931 74399
L80011 74361
L80123 74361
L80193 74399
" />
<path d="M80461 74361
L80761 74361
" />
<path d="M80606 74099
L80522 74774
L80550 74849
L80620 74886
L80695 74886
" />
<path d="M81070 74886
L81000 74849
L80967 74811
L80939 74736
L80967 74511
L81014 74436
L81056 74399
L81136 74361
L81248 74361
L81318 74399
L81351 74436
L81379 74511
L81351 74736
L81304 74811
L81262 74849
L81182 74886
L81070 74886
" />
<path d="M81670 74886
L81735 74361
" />
<path d="M81717 74511
L81764 74436
L81806 74399
L81885 74361
L81960 74361
" />
<path d="M82710 74361
L83010 74361
" />
<path d="M82856 74099
L82771 74774
L82799 74849
L82870 74886
L82945 74886
" />
<path d="M83512 74849
L83432 74886
L83282 74886
L83212 74849
L83184 74774
L83221 74474
L83268 74399
L83348 74361
L83498 74361
L83568 74399
L83596 74474
L83587 74549
L83202 74624
" />
<path d="M83849 74849
L83920 74886
L84070 74886
L84149 74849
L84196 74774
L84201 74736
L84173 74661
L84102 74624
L83990 74624
L83920 74586
L83891 74511
L83896 74474
L83943 74399
L84023 74361
L84135 74361
L84205 74399
" />
<path d="M84473 74361
L84773 74361
" />
<path d="M84618 74099
L84534 74774
L84562 74849
L84632 74886
L84707 74886
" />
<path d="M85274 74849
L85194 74886
L85044 74886
L84974 74849
L84946 74774
L84983 74474
L85030 74399
L85110 74361
L85260 74361
L85330 74399
L85358 74474
L85349 74549
L84965 74624
" />
<path d="M85644 74886
L85710 74361
" />
<path d="M85691 74511
L85738 74436
L85780 74399
L85860 74361
L85935 74361
" />
<path d="M86769 74586
L87369 74586
" />
<path d="M88766 74811
L88724 74849
L88606 74886
L88531 74886
L88424 74849
L88358 74774
L88330 74699
L88311 74549
L88325 74436
L88382 74286
L88428 74211
L88513 74136
L88630 74099
L88705 74099
L88813 74136
L88846 74174
" />
<path d="M89080 74099
L89530 74099
" />
<path d="M89206 74886
L89305 74099
" />
<path d="M89680 74099
L90130 74099
" />
<path d="M89806 74886
L89905 74099
" />
<path d="M90959 74061
L90158 75074
" />
<path d="M91119 74886
L91217 74099
" />
<path d="M91808 74474
L91545 74474
" />
<path d="M91494 74886
L91592 74099
L91967 74099
" />
<path d="M92768 74886
L92867 74099
" />
<path d="M93209 74361
L93143 74886
" />
<path d="M93200 74436
L93242 74399
L93322 74361
L93434 74361
L93504 74399
L93532 74474
L93481 74886
" />
<path d="M93809 74361
L94109 74361
" />
<path d="M93954 74099
L93870 74774
L93898 74849
L93968 74886
L94043 74886
" />
<path d="M94610 74849
L94531 74886
L94381 74886
L94310 74849
L94282 74774
L94320 74474
L94367 74399
L94446 74361
L94596 74361
L94667 74399
L94695 74474
L94685 74549
L94301 74624
" />
<path d="M94981 74886
L95046 74361
" />
<path d="M95028 74511
L95074 74436
L95117 74399
L95196 74361
L95271 74361
" />
<path d="M95421 74361
L95721 74361
" />
<path d="M95468 74886
L95552 74211
L95599 74136
L95679 74099
L95754 74099
" />
<path d="M96256 74886
L96307 74474
L96279 74399
L96209 74361
L96059 74361
L95979 74399
" />
<path d="M96260 74849
L96181 74886
L95993 74886
L95923 74849
L95895 74774
L95904 74699
L95951 74624
L96031 74586
L96218 74586
L96298 74549
" />
<path d="M96973 74849
L96893 74886
L96743 74886
L96673 74849
L96640 74811
L96612 74736
L96640 74511
L96687 74436
L96729 74399
L96809 74361
L96959 74361
L97029 74399
" />
<path d="M97610 74849
L97530 74886
L97380 74886
L97310 74849
L97282 74774
L97319 74474
L97366 74399
L97446 74361
L97596 74361
L97666 74399
L97694 74474
L97685 74549
L97301 74624
" />
<path d="M98983 74361
L98918 74886
" />
<path d="M98646 74361
L98594 74774
L98622 74849
L98693 74886
L98805 74886
L98885 74849
L98927 74811
" />
<path d="M99358 74361
L99293 74886
" />
<path d="M99349 74436
L99391 74399
L99471 74361
L99583 74361
L99654 74399
L99682 74474
L99630 74886
" />
<path d="M100005 74886
L100071 74361
" />
<path d="M100103 74099
L100061 74136
L100094 74174
L100136 74136
L100103 74099
L100094 74174
" />
<path d="M100333 74361
L100633 74361
" />
<path d="M100478 74099
L100394 74774
L100422 74849
L100492 74886
L100567 74886
" />
</g>
<g style="fill:#000000; fill-opacity:0.0; 
stroke:#000000; stroke-width:39.3701; stroke-opacity:1; 
stroke-linecap:round; stroke-linejoin:round;">
</g>
<g style="fill:#000000; fill-opacity:0.0; 
stroke:#000000; stroke-width:59.0551; stroke-opacity:1; 
stroke-linecap:round; stroke-linejoin:round;">
<path d="M70417 73070
L70220 73070
" />
<path d="M70220 73380
L70220 72789
L70501 72789
" />
<path d="M70726 73380
L70726 72986
" />
<path d="M70726 72789
L70698 72817
L70726 72845
L70754 72817
L70726 72789
L70726 72845
" />
<path d="M71091 73380
L71035 73352
L71007 73295
L71007 72789
" />
<path d="M71541 73352
L71485 73380
L71373 73380
L71316 73352
L71288 73295
L71288 73070
L71316 73014
L71373 72986
L71485 72986
L71541 73014
L71570 73070
L71570 73127
L71288 73183
" />
<path d="M71823 73323
L71851 73352
L71823 73380
L71795 73352
L71823 73323
L71823 73380
" />
<path d="M71823 73014
L71851 73042
L71823 73070
L71795 73042
L71823 73014
L71823 73070
" />
<path d="M72807 73352
L72751 73380
L72638 73380
L72582 73352
L72554 73323
L72526 73267
L72526 73099
L72554 73042
L72582 73014
L72638 72986
L72751 72986
L72807 73014
" />
<path d="M72976 72986
L73201 72986
" />
<path d="M73060 72789
L73060 73295
L73088 73352
L73144 73380
L73201 73380
" />
<path d="M73313 72986
L73538 72986
" />
<path d="M73397 72789
L73397 73295
L73426 73352
L73482 73380
L73538 73380
" />
<path d="M73594 73436
L74044 73436
" />
<path d="M74185 73380
L74185 72986
" />
<path d="M74185 72789
L74157 72817
L74185 72845
L74213 72817
L74185 72789
L74185 72845
" />
<path d="M74382 72986
L74607 72986
" />
<path d="M74466 73380
L74466 72874
L74494 72817
L74550 72789
L74607 72789
" />
<path d="M74804 73323
L74832 73352
L74804 73380
L74775 73352
L74804 73323
L74804 73380
" />
<path d="M75085 73380
L75085 72789
" />
<path d="M75141 73155
L75310 73380
" />
<path d="M75310 72986
L75085 73211
" />
<path d="M75563 73380
L75563 72986
" />
<path d="M75563 72789
L75535 72817
L75563 72845
L75591 72817
L75563 72789
L75563 72845
" />
<path d="M76097 73352
L76041 73380
L75928 73380
L75872 73352
L75844 73323
L75816 73267
L75816 73099
L75844 73042
L75872 73014
L75928 72986
L76041 72986
L76097 73014
" />
<path d="M76603 73380
L76603 73070
L76575 73014
L76519 72986
L76406 72986
L76350 73014
" />
<path d="M76603 73352
L76547 73380
L76406 73380
L76350 73352
L76322 73295
L76322 73239
L76350 73183
L76406 73155
L76547 73155
L76603 73127
" />
<path d="M77138 73380
L77138 72789
" />
<path d="M77138 73352
L77081 73380
L76969 73380
L76913 73352
L76885 73323
L76856 73267
L76856 73099
L76885 73042
L76913 73014
L76969 72986
L77081 72986
L77138 73014
" />
<path d="M77278 73436
L77728 73436
" />
<path d="M77869 72986
L77869 73577
" />
<path d="M77869 73014
L77925 72986
L78037 72986
L78094 73014
L78122 73042
L78150 73099
L78150 73267
L78122 73323
L78094 73352
L78037 73380
L77925 73380
L77869 73352
" />
<path d="M78656 73352
L78600 73380
L78487 73380
L78431 73352
L78403 73323
L78375 73267
L78375 73099
L78403 73042
L78431 73014
L78487 72986
L78600 72986
L78656 73014
" />
<path d="M78909 73380
L78909 72789
" />
<path d="M78909 73014
L78965 72986
L79078 72986
L79134 73014
L79162 73042
L79190 73099
L79190 73267
L79162 73323
L79134 73352
L79078 73380
L78965 73380
L78909 73352
" />
</g>
<g style="fill:#000000; fill-opacity:0.0; 
stroke:#000000; stroke-width:39.3701; stroke-opacity:1; 
stroke-linecap:round; stroke-linejoin:round;">
</g>
<g style="fill:#000000; fill-opacity:0.0; 
stroke:#000000; stroke-width:59.0551; stroke-opacity:1; 
stroke-linecap:round; stroke-linejoin:round;">
<path d="M69685 71459
L112205 71459
" />
</g>
<g style="fill:#000000; fill-opacity:0.0; 
stroke:#000000; stroke-width:39.3701; stroke-opacity:1; 
stroke-linecap:round; stroke-linejoin:round;">
</g>
<g style="fill:#000000; fill-opacity:0.0; 
stroke:#000000; stroke-width:59.0551; stroke-opacity:1; 
stroke-linecap:round; stroke-linejoin:round;">
<path d="M70192 72289
L70276 72317
L70417 72317
L70473 72289
L70501 72260
L70529 72204
L70529 72148
L70501 72092
L70473 72064
L70417 72036
L70304 72007
L70248 71979
L70220 71951
L70192 71895
L70192 71839
L70220 71782
L70248 71754
L70304 71726
L70445 71726
L70529 71754
" />
<path d="M70782 72317
L70782 71726
" />
<path d="M71035 72317
L71035 72007
L71007 71951
L70951 71923
L70867 71923
L70810 71951
L70782 71979
" />
<path d="M71541 72289
L71485 72317
L71373 72317
L71316 72289
L71288 72232
L71288 72007
L71316 71951
L71373 71923
L71485 71923
L71541 71951
L71570 72007
L71570 72064
L71288 72120
" />
<path d="M72048 72289
L71991 72317
L71879 72317
L71823 72289
L71795 72232
L71795 72007
L71823 71951
L71879 71923
L71991 71923
L72048 71951
L72076 72007
L72076 72064
L71795 72120
" />
<path d="M72244 71923
L72469 71923
" />
<path d="M72329 71726
L72329 72232
L72357 72289
L72413 72317
L72469 72317
" />
<path d="M72666 72260
L72694 72289
L72666 72317
L72638 72289
L72666 72260
L72666 72317
" />
<path d="M72666 71951
L72694 71979
L72666 72007
L72638 71979
L72666 71951
L72666 72007
" />
</g>
<g style="fill:#000000; fill-opacity:0.0; 
stroke:#000000; stroke-width:39.3701; stroke-opacity:1; 
stroke-linecap:round; stroke-linejoin:round;">
</g>
<g style="fill:#000000; fill-opacity:0.0; 
stroke:#000000; stroke-width:118.11; stroke-opacity:1; 
stroke-linecap:round; stroke-linejoin:round;">
<path d="M70220 71136
L70220 70545
L70445 70545
L70501 70573
L70529 70601
L70557 70658
L70557 70742
L70529 70798
L70501 70826
L70445 70854
L70220 70854
" />
<path d="M70895 71136
L70838 71108
L70810 71079
L70782 71023
L70782 70854
L70810 70798
L70838 70770
L70895 70742
L70979 70742
L71035 70770
L71063 70798
L71091 70854
L71091 71023
L71063 71079
L71035 71108
L70979 71136
L70895 71136
" />
<path d="M71288 70742
L71598 70742
L71288 71136
L71598 71136
" />
<path d="M71795 71108
L71851 71136
L71963 71136
L72019 71108
L72048 71051
L72048 71023
L72019 70967
L71963 70939
L71879 70939
L71823 70911
L71795 70854
L71795 70826
L71823 70770
L71879 70742
L71963 70742
L72019 70770
" />
<path d="M72554 71136
L72554 70826
L72526 70770
L72469 70742
L72357 70742
L72301 70770
" />
<path d="M72554 71108
L72498 71136
L72357 71136
L72301 71108
L72273 71051
L72273 70995
L72301 70939
L72357 70911
L72498 70911
L72554 70883
" />
<path d="M72835 71136
L72835 70742
" />
<path d="M72835 70854
L72863 70798
L72891 70770
L72947 70742
L73004 70742
" />
<path d="M73594 70545
L73988 70545
L73594 71136
L73988 71136
" />
<path d="M74185 71108
L74241 71136
L74354 71136
L74410 71108
L74438 71051
L74438 71023
L74410 70967
L74354 70939
L74269 70939
L74213 70911
L74185 70854
L74185 70826
L74213 70770
L74269 70742
L74354 70742
L74410 70770
" />
<path d="M74775 71136
L74719 71108
L74691 71079
L74663 71023
L74663 70854
L74691 70798
L74719 70770
L74775 70742
L74860 70742
L74916 70770
L74944 70798
L74972 70854
L74972 71023
L74944 71079
L74916 71108
L74860 71136
L74775 71136
" />
<path d="M75310 71136
L75253 71108
L75225 71051
L75225 70545
" />
<path d="M75450 70742
L75675 70742
" />
<path d="M75535 70545
L75535 71051
L75563 71108
L75619 71136
L75675 71136
" />
</g>
<g style="fill:#000000; fill-opacity:0.0; 
stroke:#000000; stroke-width:39.3701; stroke-opacity:1; 
stroke-linecap:round; stroke-linejoin:round;">
</g>
<g style="fill:#000000; fill-opacity:0.0; 
stroke:#000000; stroke-width:59.0551; stroke-opacity:1; 
stroke-linecap:round; stroke-linejoin:round;">
<path d="M70220 69955
L70220 69364
L70360 69364
L70445 69392
L70501 69448
L70529 69505
L70557 69617
L70557 69701
L70529 69814
L70501 69870
L70445 69926
L70360 69955
L70220 69955
" />
<path d="M70810 69955
L70810 69561
" />
<path d="M70810 69673
L70838 69617
L70867 69589
L70923 69561
L70979 69561
" />
<path d="M71429 69955
L71429 69645
L71401 69589
L71345 69561
L71232 69561
L71176 69589
" />
<path d="M71429 69926
L71373 69955
L71232 69955
L71176 69926
L71148 69870
L71148 69814
L71176 69758
L71232 69730
L71373 69730
L71429 69701
" />
<path d="M71654 69561
L71766 69955
L71879 69673
L71991 69955
L72104 69561
" />
<path d="M72779 69561
L72779 69955
" />
<path d="M72779 69617
L72807 69589
L72863 69561
L72947 69561
L73004 69589
L73032 69645
L73032 69955
" />
<path d="M73566 69561
L73566 69955
" />
<path d="M73313 69561
L73313 69870
L73341 69926
L73397 69955
L73482 69955
L73538 69926
L73566 69898
" />
<path d="M73847 69955
L73847 69561
" />
<path d="M73847 69617
L73876 69589
L73932 69561
L74016 69561
L74072 69589
L74100 69645
L74100 69955
" />
<path d="M74100 69645
L74129 69589
L74185 69561
L74269 69561
L74325 69589
L74354 69645
L74354 69955
" />
<path d="M74635 69955
L74635 69364
" />
<path d="M74635 69589
L74691 69561
L74804 69561
L74860 69589
L74888 69617
L74916 69673
L74916 69842
L74888 69898
L74860 69926
L74804 69955
L74691 69955
L74635 69926
" />
<path d="M75394 69926
L75338 69955
L75225 69955
L75169 69926
L75141 69870
L75141 69645
L75169 69589
L75225 69561
L75338 69561
L75394 69589
L75422 69645
L75422 69701
L75141 69758
" />
<path d="M75675 69955
L75675 69561
" />
<path d="M75675 69673
L75703 69617
L75732 69589
L75788 69561
L75844 69561
" />
<path d="M76041 69898
L76069 69926
L76041 69955
L76013 69926
L76041 69898
L76041 69955
" />
<path d="M76041 69589
L76069 69617
L76041 69645
L76013 69617
L76041 69589
L76041 69645
" />
<path d="M77109 69898
L77081 69926
L76997 69955
L76941 69955
L76856 69926
L76800 69870
L76772 69814
L76744 69701
L76744 69617
L76772 69505
L76800 69448
L76856 69392
L76941 69364
L76997 69364
L77081 69392
L77109 69420
" />
<path d="M77278 69364
L77616 69364
" />
<path d="M77447 69955
L77447 69364
" />
<path d="M77728 69364
L78066 69364
" />
<path d="M77897 69955
L77897 69364
" />
<path d="M78684 69336
L78178 70095
" />
<path d="M79134 69561
L79134 69955
" />
<path d="M78994 69336
L78853 69758
L79219 69758
" />
<path d="M79444 69730
L79894 69730
" />
<path d="M80428 69364
L80315 69364
L80259 69392
L80231 69420
L80175 69505
L80147 69617
L80147 69842
L80175 69898
L80203 69926
L80259 69955
L80372 69955
L80428 69926
L80456 69898
L80484 69842
L80484 69701
L80456 69645
L80428 69617
L80372 69589
L80259 69589
L80203 69617
L80175 69645
L80147 69701
" />
</g>
<g style="fill:#000000; fill-opacity:0.0; 
stroke:#000000; stroke-width:39.3701; stroke-opacity:1; 
stroke-linecap:round; stroke-linejoin:round;">
</g>
<g style="fill:#000000; fill-opacity:0.0; 
stroke:#000000; stroke-width:59.0551; stroke-opacity:1; 
stroke-linecap:round; stroke-linejoin:round;">
<path d="M77559 75396
L77559 76577
" />
</g>
<g style="fill:#000000; fill-opacity:0.0; 
stroke:#000000; stroke-width:39.3701; stroke-opacity:1; 
stroke-linecap:round; stroke-linejoin:round;">
</g>
<g style="fill:#000000; fill-opacity:0.0; 
stroke:#000000; stroke-width:59.0551; stroke-opacity:1; 
stroke-linecap:round; stroke-linejoin:round;">
<path d="M102756 75396
L102756 77955
" />
</g>
<g style="fill:#000000; fill-opacity:0.0; 
stroke:#000000; stroke-width:150; stroke-opacity:1; 
stroke-linecap:round; stroke-linejoin:round;">
<path d="M93500 25000
L76500 25000
" />
<path d="M93500 54000
L93500 25000
" />
<path d="M77500 54000
L93500 54000
" />
<path d="M38000 54000
L77500 54000
" />
<path d="M38000 25000
L38000 54000
" />
<path d="M76500 25000
L38000 25000
" />
</g>
<g style="fill:#000000; fill-opacity:0.0; 
stroke:#000000; stroke-width:120; stroke-opacity:1; 
stroke-linecap:round; stroke-linejoin:round;">
<path d="M77500 51000
L78500 51000
" />
<path d="M78500 51000
L78500 53000
" />
<path d="M78500 53000
L77500 53000
" />
<path d="M77500 53000
L77500 51000
" />
<path d="M69500 28500
L69500 36500
" />
<path d="M69500 36500
L68500 36500
" />
<path d="M68500 36500
L68500 28500
" />
<path d="M68500 28500
L69500 28500
" />
<path d="M68500 29500
L69500 29500
" />
<path d="M53500 28500
L53500 36500
" />
<path d="M53500 36500
L52500 36500
" />
<path d="M52500 36500
L52500 28500
" />
<path d="M52500 28500
L53500 28500
" />
<path d="M52500 29500
L53500 29500
" />
<path d="M49500 28500
L49500 36500
" />
<path d="M49500 36500
L48500 36500
" />
<path d="M48500 36500
L48500 28500
" />
<path d="M48500 28500
L49500 28500
" />
<path d="M48500 29500
L49500 29500
" />
<path d="M67500 40500
L67500 39500
" />
<path d="M67500 39500
L69500 39500
" />
<path d="M69500 39500
L69500 40500
" />
<path d="M69500 40500
L67500 40500
" />
<path d="M67500 42500
L67500 41500
" />
<path d="M67500 41500
L69500 41500
" />
<path d="M69500 41500
L69500 42500
" />
<path d="M69500 42500
L67500 42500
" />
<path d="M67500 44500
L67500 43500
" />
<path d="M67500 43500
L69500 43500
" />
<path d="M69500 43500
L69500 44500
" />
<path d="M69500 44500
L67500 44500
" />
<path d="M67500 46500
L67500 45500
" />
<path d="M67500 45500
L69500 45500
" />
<path d="M69500 45500
L69500 46500
" />
<path d="M69500 46500
L67500 46500
" />
<path d="M61500 38000
L61900 38000
" />
<path d="M66500 38000
L66100 38000
" />
<path d="M66100 37500
L66100 38500
" />
<path d="M66100 38500
L61900 38500
" />
<path d="M61900 38500
L61900 37500
" />
<path d="M61900 37500
L66100 37500
" />
<path d="M61900 37700
L62100 37500
" />
<path d="M48000 52500
L48400 52500
" />
<path d="M53000 52500
L52600 52500
" />
<path d="M52600 52000
L52600 53000
" />
<path d="M52600 53000
L48400 53000
" />
<path d="M48400 53000
L48400 52000
" />
<path d="M48400 52000
L52600 52000
" />
<path d="M48400 52200
L48600 52000
" />
<path d="M44000 51000
L44000 50600
" />
<path d="M44000 46000
L44000 46400
" />
<path d="M43500 46400
L44500 46400
" />
<path d="M44500 46400
L44500 50600
" />
<path d="M44500 50600
L43500 50600
" />
<path d="M43500 50600
L43500 46400
" />
<path d="M43700 50600
L43500 50400
" />
<path d="M61500 40000
L61900 40000
" />
<path d="M66500 40000
L66100 40000
" />
<path d="M66100 39500
L66100 40500
" />
<path d="M66100 40500
L61900 40500
" />
<path d="M61900 40500
L61900 39500
" />
<path d="M61900 39500
L66100 39500
" />
<path d="M61900 39700
L62100 39500
" />
<path d="M61500 42000
L61900 42000
" />
<path d="M66500 42000
L66100 42000
" />
<path d="M66100 41500
L66100 42500
" />
<path d="M66100 42500
L61900 42500
" />
<path d="M61900 42500
L61900 41500
" />
<path d="M61900 41500
L66100 41500
" />
<path d="M61900 41700
L62100 41500
" />
<path d="M61500 46000
L61900 46000
" />
<path d="M66500 46000
L66100 46000
" />
<path d="M66100 45500
L66100 46500
" />
<path d="M66100 46500
L61900 46500
" />
<path d="M61900 46500
L61900 45500
" />
<path d="M61900 45500
L66100 45500
" />
<path d="M61900 45700
L62100 45500
" />
<path d="M61500 44000
L61900 44000
" />
<path d="M66500 44000
L66100 44000
" />
<path d="M66100 43500
L66100 44500
" />
<path d="M66100 44500
L61900 44500
" />
<path d="M61900 44500
L61900 43500
" />
<path d="M61900 43500
L66100 43500
" />
<path d="M61900 43700
L62100 43500
" />
<path d="M55500 37500
L55100 37500
" />
<path d="M50500 37500
L50900 37500
" />
<path d="M50900 38000
L50900 37000
" />
<path d="M50900 37000
L55100 37000
" />
<path d="M55100 37000
L55100 38000
" />
<path d="M55100 38000
L50900 38000
" />
<path d="M55100 37800
L54900 38000
" />
<path d="M36000 29000
L41500 29000
" />
<path d="M38000 32000
L41500 32000
" />
<path d="M36000 31250
L38000 31250
" />
<path d="M36000 47750
L38000 47750
" />
<path d="M38000 47000
L41500 47000
" />
<path d="M41500 50000
L36000 50000
" />
<path d="M38000 29000
L38000 32000
" />
<path d="M38000 50000
L38000 47000
" />
<path d="M37250 31500
L36000 31500
" />
<path d="M37250 47500
L36000 47500
" />
<path d="M33250 31500
L35500 31500
" />
<path d="M33250 47500
L35500 47500
" />
<path d="M36000 29000
L35500 29000
" />
<path d="M35500 29000
L35500 50000
" />
<path d="M35500 50000
L36000 50000
" />
<path d="M36000 50000
L36000 29000
" />
<path d="M41500 32000
L41500 29000
" />
<path d="M37250 47500
L37250 31500
" />
<path d="M33250 47500
L33250 31500
" />
<path d="M41500 50000
L41500 47000
" />
<path d="M72600 50600
L75400 50600
" />
<path d="M75400 50600
L75400 51400
" />
<path d="M75400 51400
L72600 51400
" />
<path d="M72600 51400
L72600 50600
" />
<path d="M72600 50800
L72800 50600
" />
<path d="M56600 50600
L59400 50600
" />
<path d="M59400 50600
L59400 51400
" />
<path d="M59400 51400
L56600 51400
" />
<path d="M56600 51400
L56600 50600
" />
<path d="M56600 50800
L56800 50600
" />
<path d="M56600 37600
L59400 37600
" />
<path d="M59400 37600
L59400 38400
" />
<path d="M59400 38400
L56600 38400
" />
<path d="M56600 38400
L56600 37600
" />
<path d="M56600 37800
L56800 37600
" />
<path d="M49100 50600
L51900 50600
" />
<path d="M51900 50600
L51900 51400
" />
<path d="M51900 51400
L49100 51400
" />
<path d="M49100 51400
L49100 50600
" />
<path d="M49100 50800
L49300 50600
" />
<path d="M72600 37600
L75400 37600
" />
<path d="M75400 37600
L75400 38400
" />
<path d="M75400 38400
L72600 38400
" />
<path d="M72600 38400
L72600 37600
" />
<path d="M72600 37800
L72800 37600
" />
</g>
<g style="fill:#000000; fill-opacity:0.0; 
stroke:#000000; stroke-width:150; stroke-opacity:1; 
stroke-linecap:round; stroke-linejoin:round;">
<path d="M57500 50000
L57500 49500
" />
<path d="M57500 49500
L58500 49500
" />
<path d="M58500 49500
L58500 50000
" />
<path d="M57000 50000
L57000 39000
" />
<path d="M57000 39000
L59000 39000
" />
<path d="M59000 39000
L59000 50000
" />
<path d="M59000 50000
L57000 50000
" />
<path d="M50000 50000
L50000 49500
" />
<path d="M50000 49500
L51000 49500
" />
<path d="M51000 49500
L51000 50000
" />
<path d="M49500 50000
L49500 39000
" />
<path d="M49500 39000
L51500 39000
" />
<path d="M51500 39000
L51500 50000
" />
<path d="M51500 50000
L49500 50000
" />
<path d="M73500 50000
L73500 49500
" />
<path d="M73500 49500
L74500 49500
" />
<path d="M74500 49500
L74500 50000
" />
<path d="M73000 50000
L73000 39000
" />
<path d="M73000 39000
L75000 39000
" />
<path d="M75000 39000
L75000 50000
" />
<path d="M75000 50000
L73000 50000
" />
<path d="M73500 37000
L73500 37000
" />
<path d="M73500 37000
L73500 36500
" />
<path d="M73500 36500
L74500 36500
" />
<path d="M74500 36500
L74500 37000
" />
<path d="M73000 37000
L73000 28000
" />
<path d="M73000 28000
L75000 28000
" />
<path d="M75000 28000
L75000 37000
" />
<path d="M75000 37000
L73000 37000
" />
<path d="M57500 37000
L57500 37000
" />
<path d="M57500 37000
L57500 36500
" />
<path d="M57500 36500
L58500 36500
" />
<path d="M58500 36500
L58500 37000
" />
<path d="M57000 37000
L57000 28000
" />
<path d="M57000 28000
L59000 28000
" />
<path d="M59000 28000
L59000 37000
" />
<path d="M59000 37000
L57000 37000
" />
</g>
<g style="fill:#000000; fill-opacity:0.0; 
stroke:#000000; stroke-width:39.3701; stroke-opacity:1; 
stroke-linecap:round; stroke-linejoin:round;">
<polyline fill="none;"
points="77744,51244
78255,51244
78255,51755
77744,51755
77744,51244
" /> 
<circle cx="78000" cy="52500" r="255.315" /> 
<polyline fill="none;"
points="68744,28744
69255,28744
69255,29255
68744,29255
68744,28744
" /> 
<circle cx="69000" cy="30000" r="255.315" /> 
<circle cx="69000" cy="31000" r="255.315" /> 
<circle cx="69000" cy="32000" r="255.315" /> 
<circle cx="69000" cy="33000" r="255.315" /> 
<circle cx="69000" cy="34000" r="255.315" /> 
<circle cx="69000" cy="35000" r="255.315" /> 
<circle cx="69000" cy="36000" r="255.315" /> 
<polyline fill="none;"
points="52744,28744
53255,28744
53255,29255
52744,29255
52744,28744
" /> 
<circle cx="53000" cy="30000" r="255.315" /> 
<circle cx="53000" cy="31000" r="255.315" /> 
<circle cx="53000" cy="32000" r="255.315" /> 
<circle cx="53000" cy="33000" r="255.315" /> 
<circle cx="53000" cy="34000" r="255.315" /> 
<circle cx="53000" cy="35000" r="255.315" /> 
<circle cx="53000" cy="36000" r="255.315" /> 
<polyline fill="none;"
points="48744,28744
49255,28744
49255,29255
48744,29255
48744,28744
" /> 
<circle cx="49000" cy="30000" r="255.315" /> 
<circle cx="49000" cy="31000" r="255.315" /> 
<circle cx="49000" cy="32000" r="255.315" /> 
<circle cx="49000" cy="33000" r="255.315" /> 
<circle cx="49000" cy="34000" r="255.315" /> 
<circle cx="49000" cy="35000" r="255.315" /> 
<circle cx="49000" cy="36000" r="255.315" /> 
<polyline fill="none;"
points="67744,40255
67744,39744
68255,39744
68255,40255
67744,40255
" /> 
<circle cx="69000" cy="40000" r="255.315" /> 
<polyline fill="none;"
points="67744,42255
67744,41744
68255,41744
68255,42255
67744,42255
" /> 
<circle cx="69000" cy="42000" r="255.315" /> 
<polyline fill="none;"
points="67744,44255
67744,43744
68255,43744
68255,44255
67744,44255
" /> 
<circle cx="69000" cy="44000" r="255.315" /> 
<polyline fill="none;"
points="67744,46255
67744,45744
68255,45744
68255,46255
67744,46255
" /> 
<circle cx="69000" cy="46000" r="255.315" /> 
<circle cx="61500" cy="38000" r="280.315" /> 
<circle cx="66500" cy="38000" r="280.315" /> 
<circle cx="48000" cy="52500" r="280.315" /> 
<circle cx="53000" cy="52500" r="280.315" /> 
<circle cx="44000" cy="51000" r="280.315" /> 
<circle cx="44000" cy="46000" r="280.315" /> 
<circle cx="61500" cy="40000" r="280.315" /> 
<circle cx="66500" cy="40000" r="280.315" /> 
<circle cx="61500" cy="42000" r="280.315" /> 
<circle cx="66500" cy="42000" r="280.315" /> 
<circle cx="61500" cy="46000" r="280.315" /> 
<circle cx="66500" cy="46000" r="280.315" /> 
<circle cx="61500" cy="44000" r="280.315" /> 
<circle cx="66500" cy="44000" r="280.315" /> 
<circle cx="55500" cy="37500" r="280.315" /> 
<circle cx="50500" cy="37500" r="280.315" /> 
<circle cx="40000" cy="30250" r="730.315" /> 
<circle cx="40000" cy="48750" r="730.315" /> 
<polyline fill="none;"
points="41280,46280
40719,46280
40719,45719
41280,45719
41280,46280
" /> 
<circle cx="41000" cy="44900" r="280.315" /> 
<circle cx="41000" cy="43850" r="280.315" /> 
<circle cx="41000" cy="42750" r="280.315" /> 
<circle cx="41000" cy="41650" r="280.315" /> 
<circle cx="41000" cy="40550" r="280.315" /> 
<circle cx="41000" cy="39500" r="280.315" /> 
<circle cx="41000" cy="38400" r="280.315" /> 
<circle cx="41000" cy="37300" r="280.315" /> 
<circle cx="41000" cy="36200" r="280.315" /> 
<circle cx="41000" cy="35150" r="280.315" /> 
<circle cx="41000" cy="34050" r="280.315" /> 
<circle cx="41000" cy="32950" r="280.315" /> 
<circle cx="40000" cy="45380" r="280.315" /> 
<circle cx="40000" cy="44380" r="280.315" /> 
<circle cx="40000" cy="43280" r="280.315" /> 
<circle cx="40000" cy="42200" r="280.315" /> 
<circle cx="40000" cy="41120" r="280.315" /> 
<circle cx="40000" cy="40020" r="280.315" /> 
<circle cx="40000" cy="38940" r="280.315" /> 
<circle cx="40000" cy="37860" r="280.315" /> 
<circle cx="40000" cy="36740" r="280.315" /> 
<circle cx="40000" cy="35680" r="280.315" /> 
<circle cx="40000" cy="34600" r="280.315" /> 
<circle cx="40000" cy="33500" r="280.315" /> 
<polyline fill="none;"
points="62330,48619
62330,49280
61669,49280
61669,48619
62330,48619
" /> 
<circle cx="62000" cy="50950" r="330.315" /> 
<circle cx="73000" cy="51000" r="255.315" /> 
<circle cx="75000" cy="51000" r="255.315" /> 
<circle cx="57000" cy="51000" r="255.315" /> 
<circle cx="59000" cy="51000" r="255.315" /> 
<circle cx="57000" cy="38000" r="255.315" /> 
<circle cx="59000" cy="38000" r="255.315" /> 
<circle cx="49500" cy="51000" r="255.315" /> 
<circle cx="51500" cy="51000" r="255.315" /> 
<circle cx="73000" cy="38000" r="255.315" /> 
<circle cx="75000" cy="38000" r="255.315" /> 
<polyline fill="none;"
points="59755,49255
59244,49255
59244,48744
59755,48744
59755,49255
" /> 
<circle cx="59500" cy="48000" r="255.315" /> 
<circle cx="59500" cy="47000" r="255.315" /> 
<circle cx="59500" cy="46000" r="255.315" /> 
<circle cx="59500" cy="45000" r="255.315" /> 
<circle cx="59500" cy="44000" r="255.315" /> 
<circle cx="59500" cy="43000" r="255.315" /> 
<circle cx="59500" cy="42000" r="255.315" /> 
<circle cx="59500" cy="41000" r="255.315" /> 
<circle cx="59500" cy="40000" r="255.315" /> 
<circle cx="56500" cy="40000" r="255.315" /> 
<circle cx="56500" cy="41000" r="255.315" /> 
<circle cx="56500" cy="42000" r="255.315" /> 
<circle cx="56500" cy="43000" r="255.315" /> 
<circle cx="56500" cy="44000" r="255.315" /> 
<circle cx="56500" cy="45000" r="255.315" /> 
<circle cx="56500" cy="46000" r="255.315" /> 
<circle cx="56500" cy="47000" r="255.315" /> 
<circle cx="56500" cy="48000" r="255.315" /> 
<circle cx="56500" cy="49000" r="255.315" /> 
<polyline fill="none;"
points="52255,49255
51744,49255
51744,48744
52255,48744
52255,49255
" /> 
<circle cx="52000" cy="48000" r="255.315" /> 
<circle cx="52000" cy="47000" r="255.315" /> 
<circle cx="52000" cy="46000" r="255.315" /> 
<circle cx="52000" cy="45000" r="255.315" /> 
<circle cx="52000" cy="44000" r="255.315" /> 
<circle cx="52000" cy="43000" r="255.315" /> 
<circle cx="52000" cy="42000" r="255.315" /> 
<circle cx="52000" cy="41000" r="255.315" /> 
<circle cx="52000" cy="40000" r="255.315" /> 
<circle cx="49000" cy="40000" r="255.315" /> 
<circle cx="49000" cy="41000" r="255.315" /> 
<circle cx="49000" cy="42000" r="255.315" /> 
<circle cx="49000" cy="43000" r="255.315" /> 
<circle cx="49000" cy="44000" r="255.315" /> 
<circle cx="49000" cy="45000" r="255.315" /> 
<circle cx="49000" cy="46000" r="255.315" /> 
<circle cx="49000" cy="47000" r="255.315" /> 
<circle cx="49000" cy="48000" r="255.315" /> 
<circle cx="49000" cy="49000" r="255.315" /> 
<polyline fill="none;"
points="75755,49255
75244,49255
75244,48744
75755,48744
75755,49255
" /> 
<circle cx="75500" cy="48000" r="255.315" /> 
<circle cx="75500" cy="47000" r="255.315" /> 
<circle cx="75500" cy="46000" r="255.315" /> 
<circle cx="75500" cy="45000" r="255.315" /> 
<circle cx="75500" cy="44000" r="255.315" /> 
<circle cx="75500" cy="43000" r="255.315" /> 
<circle cx="75500" cy="42000" r="255.315" /> 
<circle cx="75500" cy="41000" r="255.315" /> 
<circle cx="75500" cy="40000" r="255.315" /> 
<circle cx="72500" cy="40000" r="255.315" /> 
<circle cx="72500" cy="41000" r="255.315" /> 
<circle cx="72500" cy="42000" r="255.315" /> 
<circle cx="72500" cy="43000" r="255.315" /> 
<circle cx="72500" cy="44000" r="255.315" /> 
<circle cx="72500" cy="45000" r="255.315" /> 
<circle cx="72500" cy="46000" r="255.315" /> 
<circle cx="72500" cy="47000" r="255.315" /> 
<circle cx="72500" cy="48000" r="255.315" /> 
<circle cx="72500" cy="49000" r="255.315" /> 
<polyline fill="none;"
points="75755,36255
75244,36255
75244,35744
75755,35744
75755,36255
" /> 
<circle cx="75500" cy="35000" r="255.315" /> 
<circle cx="75500" cy="34000" r="255.315" /> 
<circle cx="75500" cy="33000" r="255.315" /> 
<circle cx="75500" cy="32000" r="255.315" /> 
<circle cx="75500" cy="31000" r="255.315" /> 
<circle cx="75500" cy="30000" r="255.315" /> 
<circle cx="75500" cy="29000" r="255.315" /> 
<circle cx="72500" cy="29000" r="255.315" /> 
<circle cx="72500" cy="30000" r="255.315" /> 
<circle cx="72500" cy="31000" r="255.315" /> 
<circle cx="72500" cy="32000" r="255.315" /> 
<circle cx="72500" cy="33000" r="255.315" /> 
<circle cx="72500" cy="34000" r="255.315" /> 
<circle cx="72500" cy="35000" r="255.315" /> 
<circle cx="72500" cy="36000" r="255.315" /> 
<polyline fill="none;"
points="59755,36255
59244,36255
59244,35744
59755,35744
59755,36255
" /> 
<circle cx="59500" cy="35000" r="255.315" /> 
<circle cx="59500" cy="34000" r="255.315" /> 
<circle cx="59500" cy="33000" r="255.315" /> 
<circle cx="59500" cy="32000" r="255.315" /> 
<circle cx="59500" cy="31000" r="255.315" /> 
<circle cx="59500" cy="30000" r="255.315" /> 
<circle cx="59500" cy="29000" r="255.315" /> 
<circle cx="56500" cy="29000" r="255.315" /> 
<circle cx="56500" cy="30000" r="255.315" /> 
<circle cx="56500" cy="31000" r="255.315" /> 
<circle cx="56500" cy="32000" r="255.315" /> 
<circle cx="56500" cy="33000" r="255.315" /> 
<circle cx="56500" cy="34000" r="255.315" /> 
<circle cx="56500" cy="35000" r="255.315" /> 
<circle cx="56500" cy="36000" r="255.315" /> 
</g>
<g style="fill:#000000; fill-opacity:0.0; 
stroke:#000000; stroke-width:120; stroke-opacity:1; 
stroke-linecap:round; stroke-linejoin:round;">
</g>
<g style="fill:#000000; fill-opacity:0.0; 
stroke:#000000; stroke-width:107; stroke-opacity:1; 
stroke-linecap:round; stroke-linejoin:round;">
<path d="M79275 52866
L79308 52805
L79308 52703
L79275 52662
L79243 52642
L79178 52621
L79113 52621
L79048 52642
L79016 52662
L78983 52703
L78951 52784
L78918 52825
L78886 52845
L78821 52866
L78756 52866
L78691 52845
L78659 52825
L78627 52784
L78627 52682
L78659 52621
" />
<path d="M79308 52438
L78627 52438
" />
<path d="M79308 52030
L79308 52234
L78627 52234
" />
<path d="M79048 51887
L79048 51561
" />
<path d="M78691 51378
L78659 51358
L78627 51317
L78627 51215
L78659 51174
L78691 51154
L78756 51133
L78821 51133
L78918 51154
L79308 51398
L79308 51133
" />
</g>
<g style="fill:#000000; fill-opacity:0.0; 
stroke:#000000; stroke-width:120; stroke-opacity:1; 
stroke-linecap:round; stroke-linejoin:round;">
</g>
<g style="fill:#000000; fill-opacity:0.0; 
stroke:#000000; stroke-width:107; stroke-opacity:1; 
stroke-linecap:round; stroke-linejoin:round;">
<path d="M70275 30866
L70308 30805
L70308 30703
L70275 30662
L70243 30642
L70178 30621
L70113 30621
L70048 30642
L70016 30662
L69983 30703
L69951 30784
L69918 30825
L69886 30845
L69821 30866
L69756 30866
L69691 30845
L69659 30825
L69627 30784
L69627 30682
L69659 30621
" />
<path d="M70308 30438
L69627 30438
" />
<path d="M70308 30030
L70308 30234
L69627 30234
" />
<path d="M70048 29887
L70048 29561
" />
<path d="M69918 29296
L69886 29337
L69854 29358
L69789 29378
L69756 29378
L69691 29358
L69659 29337
L69627 29296
L69627 29215
L69659 29174
L69691 29154
L69756 29133
L69789 29133
L69854 29154
L69886 29174
L69918 29215
L69918 29296
L69951 29337
L69983 29358
L70048 29378
L70178 29378
L70243 29358
L70275 29337
L70308 29296
L70308 29215
L70275 29174
L70243 29154
L70178 29133
L70048 29133
L69983 29154
L69951 29174
L69918 29215
" />
</g>
<g style="fill:#000000; fill-opacity:0.0; 
stroke:#000000; stroke-width:120; stroke-opacity:1; 
stroke-linecap:round; stroke-linejoin:round;">
</g>
<g style="fill:#000000; fill-opacity:0.0; 
stroke:#000000; stroke-width:107; stroke-opacity:1; 
stroke-linecap:round; stroke-linejoin:round;">
<path d="M54275 30866
L54308 30805
L54308 30703
L54275 30662
L54243 30642
L54178 30621
L54113 30621
L54048 30642
L54016 30662
L53983 30703
L53951 30784
L53918 30825
L53886 30845
L53821 30866
L53756 30866
L53691 30845
L53659 30825
L53627 30784
L53627 30682
L53659 30621
" />
<path d="M54308 30438
L53627 30438
" />
<path d="M54308 30030
L54308 30234
L53627 30234
" />
<path d="M54048 29887
L54048 29561
" />
<path d="M53918 29296
L53886 29337
L53854 29358
L53789 29378
L53756 29378
L53691 29358
L53659 29337
L53627 29296
L53627 29215
L53659 29174
L53691 29154
L53756 29133
L53789 29133
L53854 29154
L53886 29174
L53918 29215
L53918 29296
L53951 29337
L53983 29358
L54048 29378
L54178 29378
L54243 29358
L54275 29337
L54308 29296
L54308 29215
L54275 29174
L54243 29154
L54178 29133
L54048 29133
L53983 29154
L53951 29174
L53918 29215
" />
</g>
<g style="fill:#000000; fill-opacity:0.0; 
stroke:#000000; stroke-width:120; stroke-opacity:1; 
stroke-linecap:round; stroke-linejoin:round;">
</g>
<g style="fill:#000000; fill-opacity:0.0; 
stroke:#000000; stroke-width:107; stroke-opacity:1; 
stroke-linecap:round; stroke-linejoin:round;">
<path d="M50275 30866
L50308 30805
L50308 30703
L50275 30662
L50243 30642
L50178 30621
L50113 30621
L50048 30642
L50016 30662
L49983 30703
L49951 30784
L49918 30825
L49886 30845
L49821 30866
L49756 30866
L49691 30845
L49659 30825
L49627 30784
L49627 30682
L49659 30621
" />
<path d="M50308 30438
L49627 30438
" />
<path d="M50308 30030
L50308 30234
L49627 30234
" />
<path d="M50048 29887
L50048 29561
" />
<path d="M49918 29296
L49886 29337
L49854 29358
L49789 29378
L49756 29378
L49691 29358
L49659 29337
L49627 29296
L49627 29215
L49659 29174
L49691 29154
L49756 29133
L49789 29133
L49854 29154
L49886 29174
L49918 29215
L49918 29296
L49951 29337
L49983 29358
L50048 29378
L50178 29378
L50243 29358
L50275 29337
L50308 29296
L50308 29215
L50275 29174
L50243 29154
L50178 29133
L50048 29133
L49983 29154
L49951 29174
L49918 29215
" />
</g>
<g style="fill:#000000; fill-opacity:0.0; 
stroke:#000000; stroke-width:120; stroke-opacity:1; 
stroke-linecap:round; stroke-linejoin:round;">
</g>
<g style="fill:#000000; fill-opacity:0.0; 
stroke:#000000; stroke-width:107; stroke-opacity:1; 
stroke-linecap:round; stroke-linejoin:round;">
<path d="M68357 38627
L68357 39113
L68336 39210
L68296 39275
L68235 39308
L68194 39308
" />
<path d="M68744 38854
L68744 39308
" />
<path d="M68642 38594
L68540 39081
L68805 39081
" />
</g>
<g style="fill:#000000; fill-opacity:0.0; 
stroke:#000000; stroke-width:120; stroke-opacity:1; 
stroke-linecap:round; stroke-linejoin:round;">
</g>
<g style="fill:#000000; fill-opacity:0.0; 
stroke:#000000; stroke-width:107; stroke-opacity:1; 
stroke-linecap:round; stroke-linejoin:round;">
<path d="M68357 40627
L68357 41113
L68336 41210
L68296 41275
L68235 41308
L68194 41308
" />
<path d="M68520 40627
L68785 40627
L68642 40886
L68703 40886
L68744 40918
L68764 40951
L68785 41016
L68785 41178
L68764 41243
L68744 41275
L68703 41308
L68581 41308
L68540 41275
L68520 41243
" />
</g>
<g style="fill:#000000; fill-opacity:0.0; 
stroke:#000000; stroke-width:120; stroke-opacity:1; 
stroke-linecap:round; stroke-linejoin:round;">
</g>
<g style="fill:#000000; fill-opacity:0.0; 
stroke:#000000; stroke-width:107; stroke-opacity:1; 
stroke-linecap:round; stroke-linejoin:round;">
<path d="M68357 42627
L68357 43113
L68336 43210
L68296 43275
L68235 43308
L68194 43308
" />
<path d="M68540 42691
L68561 42659
L68601 42627
L68703 42627
L68744 42659
L68764 42691
L68785 42756
L68785 42821
L68764 42918
L68520 43308
L68785 43308
" />
</g>
<g style="fill:#000000; fill-opacity:0.0; 
stroke:#000000; stroke-width:120; stroke-opacity:1; 
stroke-linecap:round; stroke-linejoin:round;">
</g>
<g style="fill:#000000; fill-opacity:0.0; 
stroke:#000000; stroke-width:107; stroke-opacity:1; 
stroke-linecap:round; stroke-linejoin:round;">
<path d="M68357 44627
L68357 45113
L68336 45210
L68296 45275
L68235 45308
L68194 45308
" />
<path d="M68785 45308
L68540 45308
" />
<path d="M68663 45308
L68663 44627
L68622 44724
L68581 44789
L68540 44821
" />
</g>
<g style="fill:#000000; fill-opacity:0.0; 
stroke:#000000; stroke-width:120; stroke-opacity:1; 
stroke-linecap:round; stroke-linejoin:round;">
</g>
<g style="fill:#000000; fill-opacity:0.0; 
stroke:#000000; stroke-width:80; stroke-opacity:1; 
stroke-linecap:round; stroke-linejoin:round;">
<path d="M63916 38248
L63750 37986
" />
<path d="M63630 38248
L63630 37698
L63821 37698
L63869 37725
L63892 37751
L63916 37803
L63916 37882
L63892 37934
L63869 37960
L63821 37986
L63630 37986
" />
<path d="M64345 37882
L64345 38248
" />
<path d="M64226 37672
L64107 38065
L64416 38065
" />
<path d="M50416 52748
L50250 52486
" />
<path d="M50130 52748
L50130 52198
L50321 52198
L50369 52225
L50392 52251
L50416 52303
L50416 52382
L50392 52434
L50369 52460
L50321 52486
L50130 52486
" />
<path d="M50583 52198
L50892 52198
L50726 52408
L50797 52408
L50845 52434
L50869 52460
L50892 52513
L50892 52644
L50869 52696
L50845 52722
L50797 52748
L50654 52748
L50607 52722
L50583 52696
" />
<path d="M44248 48583
L43986 48750
" />
<path d="M44248 48869
L43698 48869
L43698 48678
L43725 48630
L43751 48607
L43803 48583
L43882 48583
L43934 48607
L43960 48630
L43986 48678
L43986 48869
" />
<path d="M43751 48392
L43725 48369
L43698 48321
L43698 48202
L43725 48154
L43751 48130
L43803 48107
L43855 48107
L43934 48130
L44248 48416
L44248 48107
" />
<path d="M63916 40248
L63750 39986
" />
<path d="M63630 40248
L63630 39698
L63821 39698
L63869 39725
L63892 39751
L63916 39803
L63916 39882
L63892 39934
L63869 39960
L63821 39986
L63630 39986
" />
<path d="M64202 39934
L64154 39908
L64130 39882
L64107 39829
L64107 39803
L64130 39751
L64154 39725
L64202 39698
L64297 39698
L64345 39725
L64369 39751
L64392 39803
L64392 39829
L64369 39882
L64345 39908
L64297 39934
L64202 39934
L64154 39960
L64130 39986
L64107 40039
L64107 40144
L64130 40196
L64154 40222
L64202 40248
L64297 40248
L64345 40222
L64369 40196
L64392 40144
L64392 40039
L64369 39986
L64345 39960
L64297 39934
" />
<path d="M63916 42248
L63750 41986
" />
<path d="M63630 42248
L63630 41698
L63821 41698
L63869 41725
L63892 41751
L63916 41803
L63916 41882
L63892 41934
L63869 41960
L63821 41986
L63630 41986
" />
<path d="M64083 41698
L64416 41698
L64202 42248
" />
<path d="M63916 46248
L63750 45986
" />
<path d="M63630 46248
L63630 45698
L63821 45698
L63869 45725
L63892 45751
L63916 45803
L63916 45882
L63892 45934
L63869 45960
L63821 45986
L63630 45986
" />
<path d="M64345 45698
L64250 45698
L64202 45725
L64178 45751
L64130 45829
L64107 45934
L64107 46144
L64130 46196
L64154 46222
L64202 46248
L64297 46248
L64345 46222
L64369 46196
L64392 46144
L64392 46013
L64369 45960
L64345 45934
L64297 45908
L64202 45908
L64154 45934
L64130 45960
L64107 46013
" />
<path d="M63916 44248
L63750 43986
" />
<path d="M63630 44248
L63630 43698
L63821 43698
L63869 43725
L63892 43751
L63916 43803
L63916 43882
L63892 43934
L63869 43960
L63821 43986
L63630 43986
" />
<path d="M64369 43698
L64130 43698
L64107 43960
L64130 43934
L64178 43908
L64297 43908
L64345 43934
L64369 43960
L64392 44013
L64392 44144
L64369 44196
L64345 44222
L64297 44248
L64178 44248
L64130 44222
L64107 44196
" />
<path d="M52916 37748
L52750 37486
" />
<path d="M52630 37748
L52630 37198
L52821 37198
L52869 37225
L52892 37251
L52916 37303
L52916 37382
L52892 37434
L52869 37460
L52821 37486
L52630 37486
" />
<path d="M53392 37748
L53107 37748
" />
<path d="M53250 37748
L53250 37198
L53202 37277
L53154 37329
L53107 37355
" />
</g>
<g style="fill:#000000; fill-opacity:0.0; 
stroke:#000000; stroke-width:120; stroke-opacity:1; 
stroke-linecap:round; stroke-linejoin:round;">
<path d="M34714 39914
L34742 39942
L34771 40028
L34771 40085
L34742 40171
L34685 40228
L34628 40257
L34514 40285
L34428 40285
L34314 40257
L34257 40228
L34200 40171
L34171 40085
L34171 40028
L34200 39942
L34228 39914
" />
<path d="M34771 39657
L34171 39657
L34771 39314
L34171 39314
" />
<path d="M34771 38714
L34771 39057
" />
<path d="M34771 38885
L34171 38885
L34257 38942
L34314 39000
L34342 39057
" />
</g>
<g style="fill:#000000; fill-opacity:0.0; 
stroke:#000000; stroke-width:80; stroke-opacity:1; 
stroke-linecap:round; stroke-linejoin:round;">
<path d="M73933 51142
L73914 51161
L73857 51180
L73819 51180
L73761 51161
L73723 51123
L73704 51085
L73685 51009
L73685 50952
L73704 50876
L73723 50838
L73761 50800
L73819 50780
L73857 50780
L73914 50800
L73933 50819
" />
<path d="M74314 51180
L74085 51180
" />
<path d="M74200 51180
L74200 50780
L74161 50838
L74123 50876
L74085 50895
" />
<path d="M57933 51142
L57914 51161
L57857 51180
L57819 51180
L57761 51161
L57723 51123
L57704 51085
L57685 51009
L57685 50952
L57704 50876
L57723 50838
L57761 50800
L57819 50780
L57857 50780
L57914 50800
L57933 50819
" />
<path d="M58295 50780
L58104 50780
L58085 50971
L58104 50952
L58142 50933
L58238 50933
L58276 50952
L58295 50971
L58314 51009
L58314 51104
L58295 51142
L58276 51161
L58238 51180
L58142 51180
L58104 51161
L58085 51142
" />
<path d="M57933 38142
L57914 38161
L57857 38180
L57819 38180
L57761 38161
L57723 38123
L57704 38085
L57685 38009
L57685 37952
L57704 37876
L57723 37838
L57761 37800
L57819 37780
L57857 37780
L57914 37800
L57933 37819
" />
<path d="M58276 37914
L58276 38180
" />
<path d="M58180 37761
L58085 38047
L58333 38047
" />
<path d="M50433 51142
L50414 51161
L50357 51180
L50319 51180
L50261 51161
L50223 51123
L50204 51085
L50185 51009
L50185 50952
L50204 50876
L50223 50838
L50261 50800
L50319 50780
L50357 50780
L50414 50800
L50433 50819
" />
<path d="M50566 50780
L50814 50780
L50680 50933
L50738 50933
L50776 50952
L50795 50971
L50814 51009
L50814 51104
L50795 51142
L50776 51161
L50738 51180
L50623 51180
L50585 51161
L50566 51142
" />
<path d="M73933 38142
L73914 38161
L73857 38180
L73819 38180
L73761 38161
L73723 38123
L73704 38085
L73685 38009
L73685 37952
L73704 37876
L73723 37838
L73761 37800
L73819 37780
L73857 37780
L73914 37800
L73933 37819
" />
<path d="M74085 37819
L74104 37800
L74142 37780
L74238 37780
L74276 37800
L74295 37819
L74314 37857
L74314 37895
L74295 37952
L74066 38180
L74314 38180
" />
</g>
<g style="fill:#000000; fill-opacity:0.0; 
stroke:#000000; stroke-width:120; stroke-opacity:1; 
stroke-linecap:round; stroke-linejoin:round;">
</g>
<g style="fill:#000000; fill-opacity:0.0; 
stroke:#000000; stroke-width:112.5; stroke-opacity:1; 
stroke-linecap:round; stroke-linejoin:round;">
<path d="M57816 48439
L57116 48439
" />
<path d="M57750 47967
L57783 47989
L57816 48053
L57816 48096
L57783 48160
L57716 48203
L57650 48224
L57516 48246
L57416 48246
L57283 48224
L57216 48203
L57150 48160
L57116 48096
L57116 48053
L57150 47989
L57183 47967
" />
<path d="M57183 47796
L57150 47774
L57116 47732
L57116 47624
L57150 47582
L57183 47560
L57250 47539
L57316 47539
L57416 47560
L57816 47817
L57816 47539
" />
</g>
<g style="fill:#000000; fill-opacity:0.0; 
stroke:#000000; stroke-width:120; stroke-opacity:1; 
stroke-linecap:round; stroke-linejoin:round;">
</g>
<g style="fill:#000000; fill-opacity:0.0; 
stroke:#000000; stroke-width:112.5; stroke-opacity:1; 
stroke-linecap:round; stroke-linejoin:round;">
<path d="M50316 48439
L49616 48439
" />
<path d="M50250 47967
L50283 47989
L50316 48053
L50316 48096
L50283 48160
L50216 48203
L50150 48224
L50016 48246
L49916 48246
L49783 48224
L49716 48203
L49650 48160
L49616 48096
L49616 48053
L49650 47989
L49683 47967
" />
<path d="M50316 47539
L50316 47796
" />
<path d="M50316 47667
L49616 47667
L49716 47710
L49783 47753
L49816 47796
" />
</g>
<g style="fill:#000000; fill-opacity:0.0; 
stroke:#000000; stroke-width:120; stroke-opacity:1; 
stroke-linecap:round; stroke-linejoin:round;">
</g>
<g style="fill:#000000; fill-opacity:0.0; 
stroke:#000000; stroke-width:112.5; stroke-opacity:1; 
stroke-linecap:round; stroke-linejoin:round;">
<path d="M73816 48439
L73116 48439
" />
<path d="M73750 47967
L73783 47989
L73816 48053
L73816 48096
L73783 48160
L73716 48203
L73650 48224
L73516 48246
L73416 48246
L73283 48224
L73216 48203
L73150 48160
L73116 48096
L73116 48053
L73150 47989
L73183 47967
" />
<path d="M73116 47817
L73116 47539
L73383 47689
L73383 47624
L73416 47582
L73450 47560
L73516 47539
L73683 47539
L73750 47560
L73783 47582
L73816 47624
L73816 47753
L73783 47796
L73750 47817
" />
</g>
<g style="fill:#000000; fill-opacity:0.0; 
stroke:#000000; stroke-width:120; stroke-opacity:1; 
stroke-linecap:round; stroke-linejoin:round;">
</g>
<g style="fill:#000000; fill-opacity:0.0; 
stroke:#000000; stroke-width:112.5; stroke-opacity:1; 
stroke-linecap:round; stroke-linejoin:round;">
<path d="M73771 35439
L73171 35439
" />
<path d="M73714 34967
L73742 34989
L73771 35053
L73771 35096
L73742 35160
L73685 35203
L73628 35224
L73514 35246
L73428 35246
L73314 35224
L73257 35203
L73200 35160
L73171 35096
L73171 35053
L73200 34989
L73228 34967
" />
<path d="M73171 34560
L73171 34774
L73457 34796
L73428 34774
L73400 34732
L73400 34624
L73428 34582
L73457 34560
L73514 34539
L73657 34539
L73714 34560
L73742 34582
L73771 34624
L73771 34732
L73742 34774
L73714 34796
" />
</g>
<g style="fill:#000000; fill-opacity:0.0; 
stroke:#000000; stroke-width:120; stroke-opacity:1; 
stroke-linecap:round; stroke-linejoin:round;">
</g>
<g style="fill:#000000; fill-opacity:0.0; 
stroke:#000000; stroke-width:112.5; stroke-opacity:1; 
stroke-linecap:round; stroke-linejoin:round;">
<path d="M57771 35439
L57171 35439
" />
<path d="M57714 34967
L57742 34989
L57771 35053
L57771 35096
L57742 35160
L57685 35203
L57628 35224
L57514 35246
L57428 35246
L57314 35224
L57257 35203
L57200 35160
L57171 35096
L57171 35053
L57200 34989
L57228 34967
" />
<path d="M57371 34582
L57771 34582
" />
<path d="M57142 34689
L57571 34796
L57571 34517
" />
</g>
<g style="fill:#000000; fill-opacity:0.0; 
stroke:#000000; stroke-width:120; stroke-opacity:1; 
stroke-linecap:round; stroke-linejoin:round;">
</g> 
</svg>
