<?xml version="1.0" standalone="no"?>
 <!DOCTYPE svg PUBLIC "-//W3C//DTD SVG 1.1//EN" 
 "http://www.w3.org/Graphics/SVG/1.1/DTD/svg11.dtd"> 
<svg xmlns="http://www.w3.org/2000/svg" version="1.1" 
    width="29.7002cm" height="21.0007cm" viewBox="0 0 116930 82680 ">
<title>SVG Picture created as ctt_ad-F.SilkS.svg date 2022/09/04 20:28:31 </title>
  <desc>Picture generated by PCBNEW </desc>
<g style="fill:#000000; fill-opacity:1;stroke:#000000; stroke-opacity:1;
stroke-linecap:round; stroke-linejoin:round; "
 transform="translate(0 0) scale(1 1)">
</g>
<g style="fill:#000000; fill-opacity:0.0; 
stroke:#000000; stroke-width:-0.000393701; stroke-opacity:1; 
stroke-linecap:round; stroke-linejoin:round;">
</g>
<g style="fill:#000000; fill-opacity:0.0; 
stroke:#000000; stroke-width:39.3701; stroke-opacity:1; 
stroke-linecap:round; stroke-linejoin:round;">
</g>
<g style="fill:#000000; fill-opacity:0.0; 
stroke:#000000; stroke-width:59.0551; stroke-opacity:1; 
stroke-linecap:round; stroke-linejoin:round;">
<rect x="69685.9" y="65357.2" width="42519.7" height="12598.4" rx="0" />
</g>
<g style="fill:#000000; fill-opacity:0.0; 
stroke:#000000; stroke-width:39.3701; stroke-opacity:1; 
stroke-linecap:round; stroke-linejoin:round;">
</g>
<g style="fill:#000000; fill-opacity:0.0; 
stroke:#000000; stroke-width:59.0551; stroke-opacity:1; 
stroke-linecap:round; stroke-linejoin:round;">
<rect x="3937.01" y="3937.01" width="109056" height="74806" rx="0" />
</g>
<g style="fill:#000000; fill-opacity:0.0; 
stroke:#000000; stroke-width:39.3701; stroke-opacity:1; 
stroke-linecap:round; stroke-linejoin:round;">
</g>
<g style="fill:#000000; fill-opacity:0.0; 
stroke:#000000; stroke-width:59.0551; stroke-opacity:1; 
stroke-linecap:round; stroke-linejoin:round;">
<rect x="4724.41" y="4724.41" width="107481" height="73231.2" rx="0" />
</g>
<g style="fill:#000000; fill-opacity:0.0; 
stroke:#000000; stroke-width:39.3701; stroke-opacity:1; 
stroke-linecap:round; stroke-linejoin:round;">
</g>
<g style="fill:#000000; fill-opacity:0.0; 
stroke:#000000; stroke-width:59.0551; stroke-opacity:1; 
stroke-linecap:round; stroke-linejoin:round;">
<path d="M23622 4724
L23622 3937
" />
</g>
<g style="fill:#000000; fill-opacity:0.0; 
stroke:#000000; stroke-width:39.3701; stroke-opacity:1; 
stroke-linecap:round; stroke-linejoin:round;">
</g>
<g style="fill:#000000; fill-opacity:0.0; 
stroke:#000000; stroke-width:59.0551; stroke-opacity:1; 
stroke-linecap:round; stroke-linejoin:round;">
<path d="M43307 4724
L43307 3937
" />
</g>
<g style="fill:#000000; fill-opacity:0.0; 
stroke:#000000; stroke-width:39.3701; stroke-opacity:1; 
stroke-linecap:round; stroke-linejoin:round;">
</g>
<g style="fill:#000000; fill-opacity:0.0; 
stroke:#000000; stroke-width:59.0551; stroke-opacity:1; 
stroke-linecap:round; stroke-linejoin:round;">
<path d="M62992 4724
L62992 3937
" />
</g>
<g style="fill:#000000; fill-opacity:0.0; 
stroke:#000000; stroke-width:39.3701; stroke-opacity:1; 
stroke-linecap:round; stroke-linejoin:round;">
</g>
<g style="fill:#000000; fill-opacity:0.0; 
stroke:#000000; stroke-width:59.0551; stroke-opacity:1; 
stroke-linecap:round; stroke-linejoin:round;">
<path d="M82677 4724
L82677 3937
" />
</g>
<g style="fill:#000000; fill-opacity:0.0; 
stroke:#000000; stroke-width:39.3701; stroke-opacity:1; 
stroke-linecap:round; stroke-linejoin:round;">
</g>
<g style="fill:#000000; fill-opacity:0.0; 
stroke:#000000; stroke-width:59.0551; stroke-opacity:1; 
stroke-linecap:round; stroke-linejoin:round;">
<path d="M102362 4724
L102362 3937
" />
</g>
<g style="fill:#000000; fill-opacity:0.0; 
stroke:#000000; stroke-width:39.3701; stroke-opacity:1; 
stroke-linecap:round; stroke-linejoin:round;">
</g>
<g style="fill:#000000; fill-opacity:0.0; 
stroke:#000000; stroke-width:59.0551; stroke-opacity:1; 
stroke-linecap:round; stroke-linejoin:round;">
<path d="M14169 4562
L13877 4562
" />
<path d="M14023 4562
L14023 4050
L13974 4123
L13925 4172
L13877 4196
" />
</g>
<g style="fill:#000000; fill-opacity:0.0; 
stroke:#000000; stroke-width:39.3701; stroke-opacity:1; 
stroke-linecap:round; stroke-linejoin:round;">
</g>
<g style="fill:#000000; fill-opacity:0.0; 
stroke:#000000; stroke-width:59.0551; stroke-opacity:1; 
stroke-linecap:round; stroke-linejoin:round;">
<path d="M33562 4099
L33586 4074
L33635 4050
L33757 4050
L33805 4074
L33830 4099
L33854 4147
L33854 4196
L33830 4269
L33537 4562
L33854 4562
" />
</g>
<g style="fill:#000000; fill-opacity:0.0; 
stroke:#000000; stroke-width:39.3701; stroke-opacity:1; 
stroke-linecap:round; stroke-linejoin:round;">
</g>
<g style="fill:#000000; fill-opacity:0.0; 
stroke:#000000; stroke-width:59.0551; stroke-opacity:1; 
stroke-linecap:round; stroke-linejoin:round;">
<path d="M53222 4050
L53539 4050
L53368 4245
L53442 4245
L53490 4269
L53515 4294
L53539 4342
L53539 4464
L53515 4513
L53490 4537
L53442 4562
L53295 4562
L53247 4537
L53222 4513
" />
</g>
<g style="fill:#000000; fill-opacity:0.0; 
stroke:#000000; stroke-width:39.3701; stroke-opacity:1; 
stroke-linecap:round; stroke-linejoin:round;">
</g>
<g style="fill:#000000; fill-opacity:0.0; 
stroke:#000000; stroke-width:59.0551; stroke-opacity:1; 
stroke-linecap:round; stroke-linejoin:round;">
<path d="M73175 4221
L73175 4562
" />
<path d="M73053 4026
L72932 4391
L73248 4391
" />
</g>
<g style="fill:#000000; fill-opacity:0.0; 
stroke:#000000; stroke-width:39.3701; stroke-opacity:1; 
stroke-linecap:round; stroke-linejoin:round;">
</g>
<g style="fill:#000000; fill-opacity:0.0; 
stroke:#000000; stroke-width:59.0551; stroke-opacity:1; 
stroke-linecap:round; stroke-linejoin:round;">
<path d="M92885 4050
L92641 4050
L92617 4294
L92641 4269
L92690 4245
L92812 4245
L92860 4269
L92885 4294
L92909 4342
L92909 4464
L92885 4513
L92860 4537
L92812 4562
L92690 4562
L92641 4537
L92617 4513
" />
</g>
<g style="fill:#000000; fill-opacity:0.0; 
stroke:#000000; stroke-width:39.3701; stroke-opacity:1; 
stroke-linecap:round; stroke-linejoin:round;">
</g>
<g style="fill:#000000; fill-opacity:0.0; 
stroke:#000000; stroke-width:59.0551; stroke-opacity:1; 
stroke-linecap:round; stroke-linejoin:round;">
<path d="M112545 4050
L112448 4050
L112399 4074
L112375 4099
L112326 4172
L112302 4269
L112302 4464
L112326 4513
L112350 4537
L112399 4562
L112497 4562
L112545 4537
L112570 4513
L112594 4464
L112594 4342
L112570 4294
L112545 4269
L112497 4245
L112399 4245
L112350 4269
L112326 4294
L112302 4342
" />
</g>
<g style="fill:#000000; fill-opacity:0.0; 
stroke:#000000; stroke-width:39.3701; stroke-opacity:1; 
stroke-linecap:round; stroke-linejoin:round;">
</g>
<g style="fill:#000000; fill-opacity:0.0; 
stroke:#000000; stroke-width:59.0551; stroke-opacity:1; 
stroke-linecap:round; stroke-linejoin:round;">
<path d="M23622 77955
L23622 78742
" />
</g>
<g style="fill:#000000; fill-opacity:0.0; 
stroke:#000000; stroke-width:39.3701; stroke-opacity:1; 
stroke-linecap:round; stroke-linejoin:round;">
</g>
<g style="fill:#000000; fill-opacity:0.0; 
stroke:#000000; stroke-width:59.0551; stroke-opacity:1; 
stroke-linecap:round; stroke-linejoin:round;">
<path d="M43307 77955
L43307 78742
" />
</g>
<g style="fill:#000000; fill-opacity:0.0; 
stroke:#000000; stroke-width:39.3701; stroke-opacity:1; 
stroke-linecap:round; stroke-linejoin:round;">
</g>
<g style="fill:#000000; fill-opacity:0.0; 
stroke:#000000; stroke-width:59.0551; stroke-opacity:1; 
stroke-linecap:round; stroke-linejoin:round;">
<path d="M62992 77955
L62992 78742
" />
</g>
<g style="fill:#000000; fill-opacity:0.0; 
stroke:#000000; stroke-width:39.3701; stroke-opacity:1; 
stroke-linecap:round; stroke-linejoin:round;">
</g>
<g style="fill:#000000; fill-opacity:0.0; 
stroke:#000000; stroke-width:59.0551; stroke-opacity:1; 
stroke-linecap:round; stroke-linejoin:round;">
<path d="M82677 77955
L82677 78742
" />
</g>
<g style="fill:#000000; fill-opacity:0.0; 
stroke:#000000; stroke-width:39.3701; stroke-opacity:1; 
stroke-linecap:round; stroke-linejoin:round;">
</g>
<g style="fill:#000000; fill-opacity:0.0; 
stroke:#000000; stroke-width:59.0551; stroke-opacity:1; 
stroke-linecap:round; stroke-linejoin:round;">
<path d="M102362 77955
L102362 78742
" />
</g>
<g style="fill:#000000; fill-opacity:0.0; 
stroke:#000000; stroke-width:39.3701; stroke-opacity:1; 
stroke-linecap:round; stroke-linejoin:round;">
</g>
<g style="fill:#000000; fill-opacity:0.0; 
stroke:#000000; stroke-width:59.0551; stroke-opacity:1; 
stroke-linecap:round; stroke-linejoin:round;">
<path d="M14169 78580
L13877 78580
" />
<path d="M14023 78580
L14023 78069
L13974 78142
L13925 78190
L13877 78215
" />
</g>
<g style="fill:#000000; fill-opacity:0.0; 
stroke:#000000; stroke-width:39.3701; stroke-opacity:1; 
stroke-linecap:round; stroke-linejoin:round;">
</g>
<g style="fill:#000000; fill-opacity:0.0; 
stroke:#000000; stroke-width:59.0551; stroke-opacity:1; 
stroke-linecap:round; stroke-linejoin:round;">
<path d="M33562 78117
L33586 78093
L33635 78069
L33757 78069
L33805 78093
L33830 78117
L33854 78166
L33854 78215
L33830 78288
L33537 78580
L33854 78580
" />
</g>
<g style="fill:#000000; fill-opacity:0.0; 
stroke:#000000; stroke-width:39.3701; stroke-opacity:1; 
stroke-linecap:round; stroke-linejoin:round;">
</g>
<g style="fill:#000000; fill-opacity:0.0; 
stroke:#000000; stroke-width:59.0551; stroke-opacity:1; 
stroke-linecap:round; stroke-linejoin:round;">
<path d="M53222 78069
L53539 78069
L53368 78263
L53442 78263
L53490 78288
L53515 78312
L53539 78361
L53539 78483
L53515 78532
L53490 78556
L53442 78580
L53295 78580
L53247 78556
L53222 78532
" />
</g>
<g style="fill:#000000; fill-opacity:0.0; 
stroke:#000000; stroke-width:39.3701; stroke-opacity:1; 
stroke-linecap:round; stroke-linejoin:round;">
</g>
<g style="fill:#000000; fill-opacity:0.0; 
stroke:#000000; stroke-width:59.0551; stroke-opacity:1; 
stroke-linecap:round; stroke-linejoin:round;">
<path d="M73175 78239
L73175 78580
" />
<path d="M73053 78044
L72932 78410
L73248 78410
" />
</g>
<g style="fill:#000000; fill-opacity:0.0; 
stroke:#000000; stroke-width:39.3701; stroke-opacity:1; 
stroke-linecap:round; stroke-linejoin:round;">
</g>
<g style="fill:#000000; fill-opacity:0.0; 
stroke:#000000; stroke-width:59.0551; stroke-opacity:1; 
stroke-linecap:round; stroke-linejoin:round;">
<path d="M92885 78069
L92641 78069
L92617 78312
L92641 78288
L92690 78263
L92812 78263
L92860 78288
L92885 78312
L92909 78361
L92909 78483
L92885 78532
L92860 78556
L92812 78580
L92690 78580
L92641 78556
L92617 78532
" />
</g>
<g style="fill:#000000; fill-opacity:0.0; 
stroke:#000000; stroke-width:39.3701; stroke-opacity:1; 
stroke-linecap:round; stroke-linejoin:round;">
</g>
<g style="fill:#000000; fill-opacity:0.0; 
stroke:#000000; stroke-width:59.0551; stroke-opacity:1; 
stroke-linecap:round; stroke-linejoin:round;">
<path d="M112545 78069
L112448 78069
L112399 78093
L112375 78117
L112326 78190
L112302 78288
L112302 78483
L112326 78532
L112350 78556
L112399 78580
L112497 78580
L112545 78556
L112570 78532
L112594 78483
L112594 78361
L112570 78312
L112545 78288
L112497 78263
L112399 78263
L112350 78288
L112326 78312
L112302 78361
" />
</g>
<g style="fill:#000000; fill-opacity:0.0; 
stroke:#000000; stroke-width:39.3701; stroke-opacity:1; 
stroke-linecap:round; stroke-linejoin:round;">
</g>
<g style="fill:#000000; fill-opacity:0.0; 
stroke:#000000; stroke-width:59.0551; stroke-opacity:1; 
stroke-linecap:round; stroke-linejoin:round;">
<path d="M3937 23622
L4724 23622
" />
</g>
<g style="fill:#000000; fill-opacity:0.0; 
stroke:#000000; stroke-width:39.3701; stroke-opacity:1; 
stroke-linecap:round; stroke-linejoin:round;">
</g>
<g style="fill:#000000; fill-opacity:0.0; 
stroke:#000000; stroke-width:59.0551; stroke-opacity:1; 
stroke-linecap:round; stroke-linejoin:round;">
<path d="M3937 43307
L4724 43307
" />
</g>
<g style="fill:#000000; fill-opacity:0.0; 
stroke:#000000; stroke-width:39.3701; stroke-opacity:1; 
stroke-linecap:round; stroke-linejoin:round;">
</g>
<g style="fill:#000000; fill-opacity:0.0; 
stroke:#000000; stroke-width:59.0551; stroke-opacity:1; 
stroke-linecap:round; stroke-linejoin:round;">
<path d="M3937 62992
L4724 62992
" />
</g>
<g style="fill:#000000; fill-opacity:0.0; 
stroke:#000000; stroke-width:39.3701; stroke-opacity:1; 
stroke-linecap:round; stroke-linejoin:round;">
</g>
<g style="fill:#000000; fill-opacity:0.0; 
stroke:#000000; stroke-width:59.0551; stroke-opacity:1; 
stroke-linecap:round; stroke-linejoin:round;">
<path d="M4208 13864
L4452 13864
" />
<path d="M4160 14011
L4330 13499
L4501 14011
" />
</g>
<g style="fill:#000000; fill-opacity:0.0; 
stroke:#000000; stroke-width:39.3701; stroke-opacity:1; 
stroke-linecap:round; stroke-linejoin:round;">
</g>
<g style="fill:#000000; fill-opacity:0.0; 
stroke:#000000; stroke-width:59.0551; stroke-opacity:1; 
stroke-linecap:round; stroke-linejoin:round;">
<path d="M4367 33428
L4440 33452
L4464 33476
L4489 33525
L4489 33598
L4464 33647
L4440 33671
L4391 33696
L4196 33696
L4196 33184
L4367 33184
L4416 33208
L4440 33233
L4464 33281
L4464 33330
L4440 33379
L4416 33403
L4367 33428
L4196 33428
" />
</g>
<g style="fill:#000000; fill-opacity:0.0; 
stroke:#000000; stroke-width:39.3701; stroke-opacity:1; 
stroke-linecap:round; stroke-linejoin:round;">
</g>
<g style="fill:#000000; fill-opacity:0.0; 
stroke:#000000; stroke-width:59.0551; stroke-opacity:1; 
stroke-linecap:round; stroke-linejoin:round;">
<path d="M4489 53332
L4464 53356
L4391 53381
L4342 53381
L4269 53356
L4221 53308
L4196 53259
L4172 53161
L4172 53088
L4196 52991
L4221 52942
L4269 52893
L4342 52869
L4391 52869
L4464 52893
L4489 52918
" />
</g>
<g style="fill:#000000; fill-opacity:0.0; 
stroke:#000000; stroke-width:39.3701; stroke-opacity:1; 
stroke-linecap:round; stroke-linejoin:round;">
</g>
<g style="fill:#000000; fill-opacity:0.0; 
stroke:#000000; stroke-width:59.0551; stroke-opacity:1; 
stroke-linecap:round; stroke-linejoin:round;">
<path d="M4196 73066
L4196 72554
L4318 72554
L4391 72578
L4440 72627
L4464 72676
L4489 72773
L4489 72846
L4464 72944
L4440 72993
L4391 73041
L4318 73066
L4196 73066
" />
</g>
<g style="fill:#000000; fill-opacity:0.0; 
stroke:#000000; stroke-width:39.3701; stroke-opacity:1; 
stroke-linecap:round; stroke-linejoin:round;">
</g>
<g style="fill:#000000; fill-opacity:0.0; 
stroke:#000000; stroke-width:59.0551; stroke-opacity:1; 
stroke-linecap:round; stroke-linejoin:round;">
<path d="M112992 23622
L112205 23622
" />
</g>
<g style="fill:#000000; fill-opacity:0.0; 
stroke:#000000; stroke-width:39.3701; stroke-opacity:1; 
stroke-linecap:round; stroke-linejoin:round;">
</g>
<g style="fill:#000000; fill-opacity:0.0; 
stroke:#000000; stroke-width:59.0551; stroke-opacity:1; 
stroke-linecap:round; stroke-linejoin:round;">
<path d="M112992 43307
L112205 43307
" />
</g>
<g style="fill:#000000; fill-opacity:0.0; 
stroke:#000000; stroke-width:39.3701; stroke-opacity:1; 
stroke-linecap:round; stroke-linejoin:round;">
</g>
<g style="fill:#000000; fill-opacity:0.0; 
stroke:#000000; stroke-width:59.0551; stroke-opacity:1; 
stroke-linecap:round; stroke-linejoin:round;">
<path d="M112992 62992
L112205 62992
" />
</g>
<g style="fill:#000000; fill-opacity:0.0; 
stroke:#000000; stroke-width:39.3701; stroke-opacity:1; 
stroke-linecap:round; stroke-linejoin:round;">
</g>
<g style="fill:#000000; fill-opacity:0.0; 
stroke:#000000; stroke-width:59.0551; stroke-opacity:1; 
stroke-linecap:round; stroke-linejoin:round;">
<path d="M112477 13864
L112721 13864
" />
<path d="M112428 14011
L112599 13499
L112769 14011
" />
</g>
<g style="fill:#000000; fill-opacity:0.0; 
stroke:#000000; stroke-width:39.3701; stroke-opacity:1; 
stroke-linecap:round; stroke-linejoin:round;">
</g>
<g style="fill:#000000; fill-opacity:0.0; 
stroke:#000000; stroke-width:59.0551; stroke-opacity:1; 
stroke-linecap:round; stroke-linejoin:round;">
<path d="M112635 33428
L112708 33452
L112733 33476
L112757 33525
L112757 33598
L112733 33647
L112708 33671
L112660 33696
L112465 33696
L112465 33184
L112635 33184
L112684 33208
L112708 33233
L112733 33281
L112733 33330
L112708 33379
L112684 33403
L112635 33428
L112465 33428
" />
</g>
<g style="fill:#000000; fill-opacity:0.0; 
stroke:#000000; stroke-width:39.3701; stroke-opacity:1; 
stroke-linecap:round; stroke-linejoin:round;">
</g>
<g style="fill:#000000; fill-opacity:0.0; 
stroke:#000000; stroke-width:59.0551; stroke-opacity:1; 
stroke-linecap:round; stroke-linejoin:round;">
<path d="M112757 53332
L112733 53356
L112660 53381
L112611 53381
L112538 53356
L112489 53308
L112465 53259
L112440 53161
L112440 53088
L112465 52991
L112489 52942
L112538 52893
L112611 52869
L112660 52869
L112733 52893
L112757 52918
" />
</g>
<g style="fill:#000000; fill-opacity:0.0; 
stroke:#000000; stroke-width:39.3701; stroke-opacity:1; 
stroke-linecap:round; stroke-linejoin:round;">
</g>
<g style="fill:#000000; fill-opacity:0.0; 
stroke:#000000; stroke-width:59.0551; stroke-opacity:1; 
stroke-linecap:round; stroke-linejoin:round;">
<path d="M112465 73066
L112465 72554
L112587 72554
L112660 72578
L112708 72627
L112733 72676
L112757 72773
L112757 72846
L112733 72944
L112708 72993
L112660 73041
L112587 73066
L112465 73066
" />
</g>
<g style="fill:#000000; fill-opacity:0.0; 
stroke:#000000; stroke-width:39.3701; stroke-opacity:1; 
stroke-linecap:round; stroke-linejoin:round;">
</g>
<g style="fill:#000000; fill-opacity:0.0; 
stroke:#000000; stroke-width:59.0551; stroke-opacity:1; 
stroke-linecap:round; stroke-linejoin:round;">
<path d="M78881 76293
L78881 75703
L79022 75703
L79106 75731
L79162 75787
L79190 75843
L79219 75956
L79219 76040
L79190 76153
L79162 76209
L79106 76265
L79022 76293
L78881 76293
" />
<path d="M79725 76293
L79725 75984
L79697 75928
L79640 75899
L79528 75899
L79472 75928
" />
<path d="M79725 76265
L79669 76293
L79528 76293
L79472 76265
L79444 76209
L79444 76153
L79472 76096
L79528 76068
L79669 76068
L79725 76040
" />
<path d="M79922 75899
L80147 75899
" />
<path d="M80006 75703
L80006 76209
L80034 76265
L80090 76293
L80147 76293
" />
<path d="M80568 76265
L80512 76293
L80400 76293
L80343 76265
L80315 76209
L80315 75984
L80343 75928
L80400 75899
L80512 75899
L80568 75928
L80597 75984
L80597 76040
L80315 76096
" />
<path d="M80850 76237
L80878 76265
L80850 76293
L80822 76265
L80850 76237
L80850 76293
" />
<path d="M80850 75928
L80878 75956
L80850 75984
L80822 75956
L80850 75928
L80850 75984
" />
<path d="M81553 75759
L81581 75731
L81637 75703
L81778 75703
L81834 75731
L81862 75759
L81890 75815
L81890 75871
L81862 75956
L81525 76293
L81890 76293
" />
<path d="M82256 75703
L82312 75703
L82368 75731
L82396 75759
L82424 75815
L82453 75928
L82453 76068
L82424 76181
L82396 76237
L82368 76265
L82312 76293
L82256 76293
L82199 76265
L82171 76237
L82143 76181
L82115 76068
L82115 75928
L82143 75815
L82171 75759
L82199 75731
L82256 75703
" />
<path d="M83156 76293
L83156 75899
" />
<path d="M83156 75956
L83184 75928
L83240 75899
L83324 75899
L83381 75928
L83409 75984
L83409 76293
" />
<path d="M83409 75984
L83437 75928
L83493 75899
L83577 75899
L83634 75928
L83662 75984
L83662 76293
" />
<path d="M84196 76293
L84196 75984
L84168 75928
L84112 75899
L83999 75899
L83943 75928
" />
<path d="M84196 76265
L84140 76293
L83999 76293
L83943 76265
L83915 76209
L83915 76153
L83943 76096
L83999 76068
L84140 76068
L84196 76040
" />
<path d="M84477 76293
L84477 75899
" />
<path d="M84477 76012
L84505 75956
L84534 75928
L84590 75899
L84646 75899
" />
<path d="M85265 75759
L85293 75731
L85349 75703
L85490 75703
L85546 75731
L85574 75759
L85602 75815
L85602 75871
L85574 75956
L85237 76293
L85602 76293
" />
<path d="M85968 75703
L86024 75703
L86080 75731
L86108 75759
L86136 75815
L86165 75928
L86165 76068
L86136 76181
L86108 76237
L86080 76265
L86024 76293
L85968 76293
L85912 76265
L85883 76237
L85855 76181
L85827 76068
L85827 75928
L85855 75815
L85883 75759
L85912 75731
L85968 75703
" />
<path d="M86727 76293
L86390 76293
" />
<path d="M86558 76293
L86558 75703
L86502 75787
L86446 75843
L86390 75871
" />
<path d="M87289 76293
L86952 76293
" />
<path d="M87121 76293
L87121 75703
L87064 75787
L87008 75843
L86952 75871
" />
</g>
<g style="fill:#000000; fill-opacity:0.0; 
stroke:#000000; stroke-width:39.3701; stroke-opacity:1; 
stroke-linecap:round; stroke-linejoin:round;">
</g>
<g style="fill:#000000; fill-opacity:0.0; 
stroke:#000000; stroke-width:59.0551; stroke-opacity:1; 
stroke-linecap:round; stroke-linejoin:round;">
<path d="M69685 76577
L112205 76577
" />
</g>
<g style="fill:#000000; fill-opacity:0.0; 
stroke:#000000; stroke-width:39.3701; stroke-opacity:1; 
stroke-linecap:round; stroke-linejoin:round;">
</g>
<g style="fill:#000000; fill-opacity:0.0; 
stroke:#000000; stroke-width:59.0551; stroke-opacity:1; 
stroke-linecap:round; stroke-linejoin:round;">
<path d="M70220 77395
L70220 76805
" />
<path d="M70557 77395
L70304 77058
" />
<path d="M70557 76805
L70220 77142
" />
<path d="M70810 77395
L70810 77002
" />
<path d="M70810 76805
L70782 76833
L70810 76861
L70838 76833
L70810 76805
L70810 76861
" />
<path d="M71429 77339
L71401 77367
L71316 77395
L71260 77395
L71176 77367
L71120 77311
L71091 77255
L71063 77142
L71063 77058
L71091 76946
L71120 76889
L71176 76833
L71260 76805
L71316 76805
L71401 76833
L71429 76861
" />
<path d="M71935 77395
L71935 77086
L71907 77030
L71851 77002
L71738 77002
L71682 77030
" />
<path d="M71935 77367
L71879 77395
L71738 77395
L71682 77367
L71654 77311
L71654 77255
L71682 77199
L71738 77171
L71879 77171
L71935 77142
" />
<path d="M72469 77395
L72469 76805
" />
<path d="M72469 77367
L72413 77395
L72301 77395
L72244 77367
L72216 77339
L72188 77283
L72188 77114
L72216 77058
L72244 77030
L72301 77002
L72413 77002
L72469 77030
" />
<path d="M73201 77086
L73397 77086
" />
<path d="M73482 77395
L73201 77395
L73201 76805
L73482 76805
" />
<path d="M73735 77339
L73763 77367
L73735 77395
L73707 77367
L73735 77339
L73735 77395
" />
<path d="M74016 77395
L74016 76805
L74157 76805
L74241 76833
L74297 76889
L74325 76946
L74354 77058
L74354 77142
L74325 77255
L74297 77311
L74241 77367
L74157 77395
L74016 77395
" />
<path d="M74607 77339
L74635 77367
L74607 77395
L74579 77367
L74607 77339
L74607 77395
" />
<path d="M74860 77227
L75141 77227
" />
<path d="M74804 77395
L75000 76805
L75197 77395
" />
<path d="M75394 77339
L75422 77367
L75394 77395
L75366 77367
L75394 77339
L75394 77395
" />
<path d="M76575 77002
L76575 77592
" />
<path d="M76575 77030
L76631 77002
L76744 77002
L76800 77030
L76828 77058
L76856 77114
L76856 77283
L76828 77339
L76800 77367
L76744 77395
L76631 77395
L76575 77367
" />
<path d="M77363 77367
L77306 77395
L77194 77395
L77138 77367
L77109 77339
L77081 77283
L77081 77114
L77109 77058
L77138 77030
L77194 77002
L77306 77002
L77363 77030
" />
<path d="M77616 77395
L77616 76805
" />
<path d="M77616 77030
L77672 77002
L77784 77002
L77841 77030
L77869 77058
L77897 77114
L77897 77283
L77869 77339
L77841 77367
L77784 77395
L77672 77395
L77616 77367
" />
<path d="M78150 77002
L78150 77395
" />
<path d="M78150 77058
L78178 77030
L78234 77002
L78319 77002
L78375 77030
L78403 77086
L78403 77395
" />
<path d="M78909 77367
L78853 77395
L78741 77395
L78684 77367
L78656 77311
L78656 77086
L78684 77030
L78741 77002
L78853 77002
L78909 77030
L78937 77086
L78937 77142
L78656 77199
" />
<path d="M79134 77002
L79247 77395
L79359 77114
L79472 77395
L79584 77002
" />
<path d="M80512 77002
L80512 77395
" />
<path d="M80372 76777
L80231 77199
L80597 77199
" />
<path d="M80822 77339
L80850 77367
L80822 77395
L80793 77367
L80822 77339
L80822 77395
" />
<path d="M81215 76805
L81271 76805
L81328 76833
L81356 76861
L81384 76917
L81412 77030
L81412 77171
L81384 77283
L81356 77339
L81328 77367
L81271 77395
L81215 77395
L81159 77367
L81131 77339
L81103 77283
L81075 77171
L81075 77030
L81103 76917
L81131 76861
L81159 76833
L81215 76805
" />
<path d="M81665 77339
L81693 77367
L81665 77395
L81637 77367
L81665 77339
L81665 77395
" />
<path d="M82228 76805
L81946 76805
L81918 77086
L81946 77058
L82003 77030
L82143 77030
L82199 77058
L82228 77086
L82256 77142
L82256 77283
L82228 77339
L82199 77367
L82143 77395
L82003 77395
L81946 77367
L81918 77339
" />
<path d="M82509 77171
L82959 77171
" />
<path d="M82734 77395
L82734 76946
" />
<path d="M83493 77395
L83493 76805
" />
<path d="M83493 77367
L83437 77395
L83324 77395
L83268 77367
L83240 77339
L83212 77283
L83212 77114
L83240 77058
L83268 77030
L83324 77002
L83437 77002
L83493 77030
" />
<path d="M83690 77002
L83915 77002
" />
<path d="M83774 77395
L83774 76889
L83802 76833
L83859 76805
L83915 76805
" />
<path d="M84084 77367
L84140 77395
L84252 77395
L84309 77367
L84337 77311
L84337 77283
L84309 77227
L84252 77199
L84168 77199
L84112 77171
L84084 77114
L84084 77086
L84112 77030
L84168 77002
L84252 77002
L84309 77030
" />
<path d="M84843 77002
L84843 77480
L84815 77536
L84787 77564
L84730 77592
L84646 77592
L84590 77564
" />
<path d="M84843 77367
L84787 77395
L84674 77395
L84618 77367
L84590 77339
L84562 77283
L84562 77114
L84590 77058
L84618 77030
L84674 77002
L84787 77002
L84843 77030
" />
<path d="M85433 77395
L85096 77395
" />
<path d="M85265 77395
L85265 76805
L85208 76889
L85152 76946
L85096 76974
" />
<path d="M85687 77171
L86136 77171
" />
<path d="M86671 77002
L86671 77395
" />
<path d="M86530 76777
L86390 77199
L86755 77199
" />
<path d="M86980 77171
L87430 77171
" />
<path d="M87205 77395
L87205 76946
" />
<path d="M87964 77395
L87964 76805
" />
<path d="M87964 77367
L87908 77395
L87796 77395
L87739 77367
L87711 77339
L87683 77283
L87683 77114
L87711 77058
L87739 77030
L87796 77002
L87908 77002
L87964 77030
" />
<path d="M88471 77367
L88414 77395
L88302 77395
L88246 77367
L88217 77311
L88217 77086
L88246 77030
L88302 77002
L88414 77002
L88471 77030
L88499 77086
L88499 77142
L88217 77199
" />
<path d="M88752 77395
L88752 76805
" />
<path d="M88752 77030
L88808 77002
L88921 77002
L88977 77030
L89005 77058
L89033 77114
L89033 77283
L89005 77339
L88977 77367
L88921 77395
L88808 77395
L88752 77367
" />
<path d="M89314 77395
L89427 77395
L89483 77367
L89511 77339
L89567 77255
L89595 77142
L89595 76917
L89567 76861
L89539 76833
L89483 76805
L89370 76805
L89314 76833
L89286 76861
L89258 76917
L89258 77058
L89286 77114
L89314 77142
L89370 77171
L89483 77171
L89539 77142
L89567 77114
L89595 77058
" />
<path d="M90102 77002
L90102 77395
" />
<path d="M89849 77002
L89849 77311
L89877 77367
L89933 77395
L90017 77395
L90073 77367
L90102 77339
" />
<path d="M90692 77395
L90355 77395
" />
<path d="M90523 77395
L90523 76805
L90467 76889
L90411 76946
L90355 76974
" />
</g>
<g style="fill:#000000; fill-opacity:0.0; 
stroke:#000000; stroke-width:39.3701; stroke-opacity:1; 
stroke-linecap:round; stroke-linejoin:round;">
</g>
<g style="fill:#000000; fill-opacity:0.0; 
stroke:#000000; stroke-width:59.0551; stroke-opacity:1; 
stroke-linecap:round; stroke-linejoin:round;">
<path d="M69685 75396
L112205 75396
" />
</g>
<g style="fill:#000000; fill-opacity:0.0; 
stroke:#000000; stroke-width:39.3701; stroke-opacity:1; 
stroke-linecap:round; stroke-linejoin:round;">
</g>
<g style="fill:#000000; fill-opacity:0.0; 
stroke:#000000; stroke-width:118.11; stroke-opacity:1; 
stroke-linecap:round; stroke-linejoin:round;">
<path d="M104022 76293
L103825 76012
" />
<path d="M103684 76293
L103684 75703
L103909 75703
L103965 75731
L103994 75759
L104022 75815
L104022 75899
L103994 75956
L103965 75984
L103909 76012
L103684 76012
" />
<path d="M104500 76265
L104444 76293
L104331 76293
L104275 76265
L104247 76209
L104247 75984
L104275 75928
L104331 75899
L104444 75899
L104500 75928
L104528 75984
L104528 76040
L104247 76096
" />
<path d="M104725 75899
L104865 76293
L105006 75899
" />
<path d="M105231 76237
L105259 76265
L105231 76293
L105203 76265
L105231 76237
L105231 76293
" />
<path d="M105231 75928
L105259 75956
L105231 75984
L105203 75956
L105231 75928
L105231 75984
" />
<path d="M106271 76293
L105934 76293
" />
<path d="M106103 76293
L106103 75703
L106046 75787
L105990 75843
L105934 75871
" />
<path d="M106525 76237
L106553 76265
L106525 76293
L106496 76265
L106525 76237
L106525 76293
" />
<path d="M106918 75703
L106974 75703
L107031 75731
L107059 75759
L107087 75815
L107115 75928
L107115 76068
L107087 76181
L107059 76237
L107031 76265
L106974 76293
L106918 76293
L106862 76265
L106834 76237
L106806 76181
L106778 76068
L106778 75928
L106806 75815
L106834 75759
L106862 75731
L106918 75703
" />
</g>
<g style="fill:#000000; fill-opacity:0.0; 
stroke:#000000; stroke-width:39.3701; stroke-opacity:1; 
stroke-linecap:round; stroke-linejoin:round;">
</g>
<g style="fill:#000000; fill-opacity:0.0; 
stroke:#000000; stroke-width:59.0551; stroke-opacity:1; 
stroke-linecap:round; stroke-linejoin:round;">
<path d="M70192 76265
L70276 76293
L70417 76293
L70473 76265
L70501 76237
L70529 76181
L70529 76124
L70501 76068
L70473 76040
L70417 76012
L70304 75984
L70248 75956
L70220 75928
L70192 75871
L70192 75815
L70220 75759
L70248 75731
L70304 75703
L70445 75703
L70529 75731
" />
<path d="M70782 76293
L70782 75899
" />
<path d="M70782 75703
L70754 75731
L70782 75759
L70810 75731
L70782 75703
L70782 75759
" />
<path d="M71007 75899
L71316 75899
L71007 76293
L71316 76293
" />
<path d="M71766 76265
L71710 76293
L71598 76293
L71541 76265
L71513 76209
L71513 75984
L71541 75928
L71598 75899
L71710 75899
L71766 75928
L71795 75984
L71795 76040
L71513 76096
" />
<path d="M72048 76237
L72076 76265
L72048 76293
L72019 76265
L72048 76237
L72048 76293
" />
<path d="M72048 75928
L72076 75956
L72048 75984
L72019 75956
L72048 75928
L72048 75984
" />
<path d="M72751 76124
L73032 76124
" />
<path d="M72694 76293
L72891 75703
L73088 76293
" />
<path d="M73538 75899
L73538 76293
" />
<path d="M73397 75674
L73257 76096
L73622 76096
" />
</g>
<g style="fill:#000000; fill-opacity:0.0; 
stroke:#000000; stroke-width:39.3701; stroke-opacity:1; 
stroke-linecap:round; stroke-linejoin:round;">
</g>
<g style="fill:#000000; fill-opacity:0.0; 
stroke:#000000; stroke-width:59.0551; stroke-opacity:1; 
stroke-linecap:round; stroke-linejoin:round;">
<path d="M103684 77395
L103684 76805
" />
<path d="M104219 77395
L104219 76805
" />
<path d="M104219 77367
L104162 77395
L104050 77395
L103994 77367
L103965 77339
L103937 77283
L103937 77114
L103965 77058
L103994 77030
L104050 77002
L104162 77002
L104219 77030
" />
<path d="M104500 77339
L104528 77367
L104500 77395
L104472 77367
L104500 77339
L104500 77395
" />
<path d="M104500 77030
L104528 77058
L104500 77086
L104472 77058
L104500 77030
L104500 77086
" />
<path d="M105540 77395
L105203 77395
" />
<path d="M105372 77395
L105372 76805
L105315 76889
L105259 76946
L105203 76974
" />
<path d="M106215 76777
L105709 77536
" />
<path d="M106721 77395
L106384 77395
" />
<path d="M106553 77395
L106553 76805
L106496 76889
L106440 76946
L106384 76974
" />
</g>
<g style="fill:#000000; fill-opacity:0.0; 
stroke:#000000; stroke-width:39.3701; stroke-opacity:1; 
stroke-linecap:round; stroke-linejoin:round;">
</g>
<g style="fill:#000000; fill-opacity:0.0; 
stroke:#000000; stroke-width:59.0551; stroke-opacity:1; 
stroke-linecap:round; stroke-linejoin:round;">
<path d="M69685 73821
L112205 73821
" />
</g>
<g style="fill:#000000; fill-opacity:0.0; 
stroke:#000000; stroke-width:39.3701; stroke-opacity:1; 
stroke-linecap:round; stroke-linejoin:round;">
</g>
<g style="fill:#000000; fill-opacity:0.0; 
stroke:#000000; stroke-width:157.48; stroke-opacity:1; 
stroke-linecap:round; stroke-linejoin:round;">
<path d="M70257 74099
L70707 74099
" />
<path d="M70384 74886
L70482 74099
" />
<path d="M70871 74886
L70937 74361
" />
<path d="M70970 74099
L70927 74136
L70960 74174
L71002 74136
L70970 74099
L70960 74174
" />
<path d="M71199 74361
L71499 74361
" />
<path d="M71345 74099
L71260 74774
L71288 74849
L71359 74886
L71434 74886
" />
<path d="M71809 74886
L71738 74849
L71710 74774
L71795 74099
" />
<path d="M72413 74849
L72334 74886
L72184 74886
L72113 74849
L72085 74774
L72123 74474
L72169 74399
L72249 74361
L72399 74361
L72469 74399
L72498 74474
L72488 74549
L72104 74624
" />
<path d="M72793 74811
L72826 74849
L72783 74886
L72751 74849
L72793 74811
L72783 74886
" />
<path d="M72844 74399
L72877 74436
L72835 74474
L72802 74436
L72844 74399
L72835 74474
" />
<path d="M74218 74811
L74175 74849
L74058 74886
L73983 74886
L73876 74849
L73810 74774
L73782 74699
L73763 74549
L73777 74436
L73833 74286
L73880 74211
L73965 74136
L74082 74099
L74157 74099
L74265 74136
L74297 74174
" />
<path d="M74532 74099
L74982 74099
" />
<path d="M74658 74886
L74757 74099
" />
<path d="M75132 74099
L75582 74099
" />
<path d="M75258 74886
L75357 74099
" />
<path d="M76331 74099
L76781 74099
" />
<path d="M76458 74886
L76556 74099
" />
<path d="M76945 74886
L77011 74361
" />
<path d="M76992 74511
L77039 74436
L77081 74399
L77161 74361
L77236 74361
" />
<path d="M77770 74886
L77822 74474
L77794 74399
L77723 74361
L77573 74361
L77494 74399
" />
<path d="M77775 74849
L77695 74886
L77508 74886
L77438 74849
L77409 74774
L77419 74699
L77466 74624
L77545 74586
L77733 74586
L77813 74549
" />
<path d="M78211 74361
L78145 74886
" />
<path d="M78202 74436
L78244 74399
L78323 74361
L78436 74361
L78506 74399
L78534 74474
L78483 74886
" />
<path d="M78825 74849
L78895 74886
L79045 74886
L79125 74849
L79172 74774
L79176 74736
L79148 74661
L79078 74624
L78965 74624
L78895 74586
L78867 74511
L78872 74474
L78919 74399
L78998 74361
L79111 74361
L79181 74399
" />
<path d="M79495 74886
L79561 74361
" />
<path d="M79594 74099
L79551 74136
L79584 74174
L79626 74136
L79594 74099
L79584 74174
" />
<path d="M79837 74849
L79908 74886
L80058 74886
L80137 74849
L80184 74774
L80189 74736
L80161 74661
L80090 74624
L79978 74624
L79908 74586
L79879 74511
L79884 74474
L79931 74399
L80011 74361
L80123 74361
L80193 74399
" />
<path d="M80461 74361
L80761 74361
" />
<path d="M80606 74099
L80522 74774
L80550 74849
L80620 74886
L80695 74886
" />
<path d="M81070 74886
L81000 74849
L80967 74811
L80939 74736
L80967 74511
L81014 74436
L81056 74399
L81136 74361
L81248 74361
L81318 74399
L81351 74436
L81379 74511
L81351 74736
L81304 74811
L81262 74849
L81182 74886
L81070 74886
" />
<path d="M81670 74886
L81735 74361
" />
<path d="M81717 74511
L81764 74436
L81806 74399
L81885 74361
L81960 74361
" />
<path d="M82710 74361
L83010 74361
" />
<path d="M82856 74099
L82771 74774
L82799 74849
L82870 74886
L82945 74886
" />
<path d="M83512 74849
L83432 74886
L83282 74886
L83212 74849
L83184 74774
L83221 74474
L83268 74399
L83348 74361
L83498 74361
L83568 74399
L83596 74474
L83587 74549
L83202 74624
" />
<path d="M83849 74849
L83920 74886
L84070 74886
L84149 74849
L84196 74774
L84201 74736
L84173 74661
L84102 74624
L83990 74624
L83920 74586
L83891 74511
L83896 74474
L83943 74399
L84023 74361
L84135 74361
L84205 74399
" />
<path d="M84473 74361
L84773 74361
" />
<path d="M84618 74099
L84534 74774
L84562 74849
L84632 74886
L84707 74886
" />
<path d="M85274 74849
L85194 74886
L85044 74886
L84974 74849
L84946 74774
L84983 74474
L85030 74399
L85110 74361
L85260 74361
L85330 74399
L85358 74474
L85349 74549
L84965 74624
" />
<path d="M85644 74886
L85710 74361
" />
<path d="M85691 74511
L85738 74436
L85780 74399
L85860 74361
L85935 74361
" />
<path d="M86769 74586
L87369 74586
" />
<path d="M88766 74811
L88724 74849
L88606 74886
L88531 74886
L88424 74849
L88358 74774
L88330 74699
L88311 74549
L88325 74436
L88382 74286
L88428 74211
L88513 74136
L88630 74099
L88705 74099
L88813 74136
L88846 74174
" />
<path d="M89080 74099
L89530 74099
" />
<path d="M89206 74886
L89305 74099
" />
<path d="M89680 74099
L90130 74099
" />
<path d="M89806 74886
L89905 74099
" />
<path d="M90959 74061
L90158 75074
" />
<path d="M91109 74661
L91484 74661
" />
<path d="M91006 74886
L91367 74099
L91531 74886
" />
<path d="M91794 74886
L91892 74099
L92079 74099
L92187 74136
L92253 74211
L92281 74286
L92300 74436
L92286 74549
L92229 74699
L92183 74774
L92098 74849
L91981 74886
L91794 74886
" />
<path d="M93172 74661
L93546 74661
" />
<path d="M93068 74886
L93429 74099
L93593 74886
" />
<path d="M94521 74061
L93720 75074
" />
<path d="M94681 74886
L94779 74099
L94967 74099
L95074 74136
L95140 74211
L95168 74286
L95187 74436
L95173 74549
L95117 74699
L95070 74774
L94985 74849
L94868 74886
L94681 74886
" />
<path d="M96410 74849
L96331 74886
L96181 74886
L96110 74849
L96077 74811
L96049 74736
L96077 74511
L96124 74436
L96166 74399
L96246 74361
L96396 74361
L96466 74399
" />
<path d="M96855 74886
L96785 74849
L96752 74811
L96724 74736
L96752 74511
L96799 74436
L96841 74399
L96921 74361
L97034 74361
L97104 74399
L97137 74436
L97165 74511
L97137 74736
L97090 74811
L97048 74849
L96968 74886
L96855 74886
" />
<path d="M97521 74361
L97455 74886
" />
<path d="M97512 74436
L97554 74399
L97633 74361
L97746 74361
L97816 74399
L97844 74474
L97793 74886
" />
<path d="M98158 74361
L98280 74886
L98533 74361
" />
<path d="M99072 74849
L98993 74886
L98843 74886
L98772 74849
L98744 74774
L98782 74474
L98829 74399
L98908 74361
L99058 74361
L99129 74399
L99157 74474
L99147 74549
L98763 74624
" />
<path d="M99443 74886
L99508 74361
" />
<path d="M99489 74511
L99536 74436
L99579 74399
L99658 74361
L99733 74361
" />
<path d="M99883 74361
L100183 74361
" />
<path d="M100028 74099
L99944 74774
L99972 74849
L100043 74886
L100118 74886
" />
<path d="M100685 74849
L100605 74886
L100455 74886
L100385 74849
L100357 74774
L100394 74474
L100441 74399
L100521 74361
L100671 74361
L100741 74399
L100769 74474
L100760 74549
L100375 74624
" />
<path d="M101055 74886
L101121 74361
" />
<path d="M101102 74511
L101149 74436
L101191 74399
L101271 74361
L101346 74361
" />
<path d="M102545 74361
L102480 74886
" />
<path d="M102208 74361
L102156 74774
L102184 74849
L102255 74886
L102367 74886
L102447 74849
L102489 74811
" />
<path d="M102920 74361
L102855 74886
" />
<path d="M102911 74436
L102953 74399
L103033 74361
L103145 74361
L103216 74399
L103244 74474
L103192 74886
" />
<path d="M103567 74886
L103633 74361
" />
<path d="M103666 74099
L103623 74136
L103656 74174
L103698 74136
L103666 74099
L103656 74174
" />
<path d="M103895 74361
L104195 74361
" />
<path d="M104040 74099
L103956 74774
L103984 74849
L104055 74886
L104130 74886
" />
</g>
<g style="fill:#000000; fill-opacity:0.0; 
stroke:#000000; stroke-width:39.3701; stroke-opacity:1; 
stroke-linecap:round; stroke-linejoin:round;">
</g>
<g style="fill:#000000; fill-opacity:0.0; 
stroke:#000000; stroke-width:59.0551; stroke-opacity:1; 
stroke-linecap:round; stroke-linejoin:round;">
<path d="M70417 73070
L70220 73070
" />
<path d="M70220 73380
L70220 72789
L70501 72789
" />
<path d="M70726 73380
L70726 72986
" />
<path d="M70726 72789
L70698 72817
L70726 72845
L70754 72817
L70726 72789
L70726 72845
" />
<path d="M71091 73380
L71035 73352
L71007 73295
L71007 72789
" />
<path d="M71541 73352
L71485 73380
L71373 73380
L71316 73352
L71288 73295
L71288 73070
L71316 73014
L71373 72986
L71485 72986
L71541 73014
L71570 73070
L71570 73127
L71288 73183
" />
<path d="M71823 73323
L71851 73352
L71823 73380
L71795 73352
L71823 73323
L71823 73380
" />
<path d="M71823 73014
L71851 73042
L71823 73070
L71795 73042
L71823 73014
L71823 73070
" />
<path d="M72807 73352
L72751 73380
L72638 73380
L72582 73352
L72554 73323
L72526 73267
L72526 73099
L72554 73042
L72582 73014
L72638 72986
L72751 72986
L72807 73014
" />
<path d="M72976 72986
L73201 72986
" />
<path d="M73060 72789
L73060 73295
L73088 73352
L73144 73380
L73201 73380
" />
<path d="M73313 72986
L73538 72986
" />
<path d="M73397 72789
L73397 73295
L73426 73352
L73482 73380
L73538 73380
" />
<path d="M73594 73436
L74044 73436
" />
<path d="M74438 73380
L74438 73070
L74410 73014
L74354 72986
L74241 72986
L74185 73014
" />
<path d="M74438 73352
L74382 73380
L74241 73380
L74185 73352
L74157 73295
L74157 73239
L74185 73183
L74241 73155
L74382 73155
L74438 73127
" />
<path d="M74972 73380
L74972 72789
" />
<path d="M74972 73352
L74916 73380
L74804 73380
L74747 73352
L74719 73323
L74691 73267
L74691 73099
L74719 73042
L74747 73014
L74804 72986
L74916 72986
L74972 73014
" />
<path d="M75253 73323
L75282 73352
L75253 73380
L75225 73352
L75253 73323
L75253 73380
" />
<path d="M75535 73380
L75535 72789
" />
<path d="M75591 73155
L75760 73380
" />
<path d="M75760 72986
L75535 73211
" />
<path d="M76013 73380
L76013 72986
" />
<path d="M76013 72789
L75985 72817
L76013 72845
L76041 72817
L76013 72789
L76013 72845
" />
<path d="M76547 73352
L76491 73380
L76378 73380
L76322 73352
L76294 73323
L76266 73267
L76266 73099
L76294 73042
L76322 73014
L76378 72986
L76491 72986
L76547 73014
" />
<path d="M77053 73380
L77053 73070
L77025 73014
L76969 72986
L76856 72986
L76800 73014
" />
<path d="M77053 73352
L76997 73380
L76856 73380
L76800 73352
L76772 73295
L76772 73239
L76800 73183
L76856 73155
L76997 73155
L77053 73127
" />
<path d="M77588 73380
L77588 72789
" />
<path d="M77588 73352
L77531 73380
L77419 73380
L77363 73352
L77334 73323
L77306 73267
L77306 73099
L77334 73042
L77363 73014
L77419 72986
L77531 72986
L77588 73014
" />
<path d="M77728 73436
L78178 73436
" />
<path d="M78319 72986
L78319 73577
" />
<path d="M78319 73014
L78375 72986
L78487 72986
L78544 73014
L78572 73042
L78600 73099
L78600 73267
L78572 73323
L78544 73352
L78487 73380
L78375 73380
L78319 73352
" />
<path d="M79106 73352
L79050 73380
L78937 73380
L78881 73352
L78853 73323
L78825 73267
L78825 73099
L78853 73042
L78881 73014
L78937 72986
L79050 72986
L79106 73014
" />
<path d="M79359 73380
L79359 72789
" />
<path d="M79359 73014
L79415 72986
L79528 72986
L79584 73014
L79612 73042
L79640 73099
L79640 73267
L79612 73323
L79584 73352
L79528 73380
L79415 73380
L79359 73352
" />
</g>
<g style="fill:#000000; fill-opacity:0.0; 
stroke:#000000; stroke-width:39.3701; stroke-opacity:1; 
stroke-linecap:round; stroke-linejoin:round;">
</g>
<g style="fill:#000000; fill-opacity:0.0; 
stroke:#000000; stroke-width:59.0551; stroke-opacity:1; 
stroke-linecap:round; stroke-linejoin:round;">
<path d="M69685 71459
L112205 71459
" />
</g>
<g style="fill:#000000; fill-opacity:0.0; 
stroke:#000000; stroke-width:39.3701; stroke-opacity:1; 
stroke-linecap:round; stroke-linejoin:round;">
</g>
<g style="fill:#000000; fill-opacity:0.0; 
stroke:#000000; stroke-width:59.0551; stroke-opacity:1; 
stroke-linecap:round; stroke-linejoin:round;">
<path d="M70192 72289
L70276 72317
L70417 72317
L70473 72289
L70501 72260
L70529 72204
L70529 72148
L70501 72092
L70473 72064
L70417 72036
L70304 72007
L70248 71979
L70220 71951
L70192 71895
L70192 71839
L70220 71782
L70248 71754
L70304 71726
L70445 71726
L70529 71754
" />
<path d="M70782 72317
L70782 71726
" />
<path d="M71035 72317
L71035 72007
L71007 71951
L70951 71923
L70867 71923
L70810 71951
L70782 71979
" />
<path d="M71541 72289
L71485 72317
L71373 72317
L71316 72289
L71288 72232
L71288 72007
L71316 71951
L71373 71923
L71485 71923
L71541 71951
L71570 72007
L71570 72064
L71288 72120
" />
<path d="M72048 72289
L71991 72317
L71879 72317
L71823 72289
L71795 72232
L71795 72007
L71823 71951
L71879 71923
L71991 71923
L72048 71951
L72076 72007
L72076 72064
L71795 72120
" />
<path d="M72244 71923
L72469 71923
" />
<path d="M72329 71726
L72329 72232
L72357 72289
L72413 72317
L72469 72317
" />
<path d="M72666 72260
L72694 72289
L72666 72317
L72638 72289
L72666 72260
L72666 72317
" />
<path d="M72666 71951
L72694 71979
L72666 72007
L72638 71979
L72666 71951
L72666 72007
" />
</g>
<g style="fill:#000000; fill-opacity:0.0; 
stroke:#000000; stroke-width:39.3701; stroke-opacity:1; 
stroke-linecap:round; stroke-linejoin:round;">
</g>
<g style="fill:#000000; fill-opacity:0.0; 
stroke:#000000; stroke-width:118.11; stroke-opacity:1; 
stroke-linecap:round; stroke-linejoin:round;">
<path d="M70220 71136
L70220 70545
L70445 70545
L70501 70573
L70529 70601
L70557 70658
L70557 70742
L70529 70798
L70501 70826
L70445 70854
L70220 70854
" />
<path d="M70895 71136
L70838 71108
L70810 71079
L70782 71023
L70782 70854
L70810 70798
L70838 70770
L70895 70742
L70979 70742
L71035 70770
L71063 70798
L71091 70854
L71091 71023
L71063 71079
L71035 71108
L70979 71136
L70895 71136
" />
<path d="M71288 70742
L71598 70742
L71288 71136
L71598 71136
" />
<path d="M71795 71108
L71851 71136
L71963 71136
L72019 71108
L72048 71051
L72048 71023
L72019 70967
L71963 70939
L71879 70939
L71823 70911
L71795 70854
L71795 70826
L71823 70770
L71879 70742
L71963 70742
L72019 70770
" />
<path d="M72554 71136
L72554 70826
L72526 70770
L72469 70742
L72357 70742
L72301 70770
" />
<path d="M72554 71108
L72498 71136
L72357 71136
L72301 71108
L72273 71051
L72273 70995
L72301 70939
L72357 70911
L72498 70911
L72554 70883
" />
<path d="M72835 71136
L72835 70742
" />
<path d="M72835 70854
L72863 70798
L72891 70770
L72947 70742
L73004 70742
" />
<path d="M73594 70545
L73988 70545
L73594 71136
L73988 71136
" />
<path d="M74185 71108
L74241 71136
L74354 71136
L74410 71108
L74438 71051
L74438 71023
L74410 70967
L74354 70939
L74269 70939
L74213 70911
L74185 70854
L74185 70826
L74213 70770
L74269 70742
L74354 70742
L74410 70770
" />
<path d="M74775 71136
L74719 71108
L74691 71079
L74663 71023
L74663 70854
L74691 70798
L74719 70770
L74775 70742
L74860 70742
L74916 70770
L74944 70798
L74972 70854
L74972 71023
L74944 71079
L74916 71108
L74860 71136
L74775 71136
" />
<path d="M75310 71136
L75253 71108
L75225 71051
L75225 70545
" />
<path d="M75450 70742
L75675 70742
" />
<path d="M75535 70545
L75535 71051
L75563 71108
L75619 71136
L75675 71136
" />
</g>
<g style="fill:#000000; fill-opacity:0.0; 
stroke:#000000; stroke-width:39.3701; stroke-opacity:1; 
stroke-linecap:round; stroke-linejoin:round;">
</g>
<g style="fill:#000000; fill-opacity:0.0; 
stroke:#000000; stroke-width:59.0551; stroke-opacity:1; 
stroke-linecap:round; stroke-linejoin:round;">
<path d="M70220 69955
L70220 69364
L70360 69364
L70445 69392
L70501 69448
L70529 69505
L70557 69617
L70557 69701
L70529 69814
L70501 69870
L70445 69926
L70360 69955
L70220 69955
" />
<path d="M70810 69955
L70810 69561
" />
<path d="M70810 69673
L70838 69617
L70867 69589
L70923 69561
L70979 69561
" />
<path d="M71429 69955
L71429 69645
L71401 69589
L71345 69561
L71232 69561
L71176 69589
" />
<path d="M71429 69926
L71373 69955
L71232 69955
L71176 69926
L71148 69870
L71148 69814
L71176 69758
L71232 69730
L71373 69730
L71429 69701
" />
<path d="M71654 69561
L71766 69955
L71879 69673
L71991 69955
L72104 69561
" />
<path d="M72779 69561
L72779 69955
" />
<path d="M72779 69617
L72807 69589
L72863 69561
L72947 69561
L73004 69589
L73032 69645
L73032 69955
" />
<path d="M73566 69561
L73566 69955
" />
<path d="M73313 69561
L73313 69870
L73341 69926
L73397 69955
L73482 69955
L73538 69926
L73566 69898
" />
<path d="M73847 69955
L73847 69561
" />
<path d="M73847 69617
L73876 69589
L73932 69561
L74016 69561
L74072 69589
L74100 69645
L74100 69955
" />
<path d="M74100 69645
L74129 69589
L74185 69561
L74269 69561
L74325 69589
L74354 69645
L74354 69955
" />
<path d="M74635 69955
L74635 69364
" />
<path d="M74635 69589
L74691 69561
L74804 69561
L74860 69589
L74888 69617
L74916 69673
L74916 69842
L74888 69898
L74860 69926
L74804 69955
L74691 69955
L74635 69926
" />
<path d="M75394 69926
L75338 69955
L75225 69955
L75169 69926
L75141 69870
L75141 69645
L75169 69589
L75225 69561
L75338 69561
L75394 69589
L75422 69645
L75422 69701
L75141 69758
" />
<path d="M75675 69955
L75675 69561
" />
<path d="M75675 69673
L75703 69617
L75732 69589
L75788 69561
L75844 69561
" />
<path d="M76041 69898
L76069 69926
L76041 69955
L76013 69926
L76041 69898
L76041 69955
" />
<path d="M76041 69589
L76069 69617
L76041 69645
L76013 69617
L76041 69589
L76041 69645
" />
<path d="M77109 69898
L77081 69926
L76997 69955
L76941 69955
L76856 69926
L76800 69870
L76772 69814
L76744 69701
L76744 69617
L76772 69505
L76800 69448
L76856 69392
L76941 69364
L76997 69364
L77081 69392
L77109 69420
" />
<path d="M77278 69364
L77616 69364
" />
<path d="M77447 69955
L77447 69364
" />
<path d="M77728 69364
L78066 69364
" />
<path d="M77897 69955
L77897 69364
" />
<path d="M78684 69336
L78178 70095
" />
<path d="M79190 69955
L78853 69955
" />
<path d="M79022 69955
L79022 69364
L78965 69448
L78909 69505
L78853 69533
" />
<path d="M79753 69955
L79415 69955
" />
<path d="M79584 69955
L79584 69364
L79528 69448
L79472 69505
L79415 69533
" />
<path d="M80006 69730
L80456 69730
" />
<path d="M81046 69955
L80709 69955
" />
<path d="M80878 69955
L80878 69364
L80822 69448
L80765 69505
L80709 69533
" />
<path d="M81243 69364
L81609 69364
L81412 69589
L81496 69589
L81553 69617
L81581 69645
L81609 69701
L81609 69842
L81581 69898
L81553 69926
L81496 69955
L81328 69955
L81271 69926
L81243 69898
" />
</g>
<g style="fill:#000000; fill-opacity:0.0; 
stroke:#000000; stroke-width:39.3701; stroke-opacity:1; 
stroke-linecap:round; stroke-linejoin:round;">
</g>
<g style="fill:#000000; fill-opacity:0.0; 
stroke:#000000; stroke-width:59.0551; stroke-opacity:1; 
stroke-linecap:round; stroke-linejoin:round;">
<path d="M77559 75396
L77559 76577
" />
</g>
<g style="fill:#000000; fill-opacity:0.0; 
stroke:#000000; stroke-width:39.3701; stroke-opacity:1; 
stroke-linecap:round; stroke-linejoin:round;">
</g>
<g style="fill:#000000; fill-opacity:0.0; 
stroke:#000000; stroke-width:59.0551; stroke-opacity:1; 
stroke-linecap:round; stroke-linejoin:round;">
<path d="M102756 75396
L102756 77955
" />
</g>
<g style="fill:#000000; fill-opacity:0.0; 
stroke:#000000; stroke-width:150; stroke-opacity:1; 
stroke-linecap:round; stroke-linejoin:round;">
<path d="M29500 23500
L29500 52500
" />
<path d="M85000 23500
L29500 23500
" />
<path d="M85000 52500
L85000 23500
" />
<path d="M29500 52500
L85000 52500
" />
</g>
<g style="fill:#000000; fill-opacity:0.0; 
stroke:#000000; stroke-width:120; stroke-opacity:1; 
stroke-linecap:round; stroke-linejoin:round;">
<path d="M47100 36600
L49900 36600
" />
<path d="M49900 36600
L49900 37400
" />
<path d="M49900 37400
L47100 37400
" />
<path d="M47100 37400
L47100 36600
" />
<path d="M47100 36800
L47300 36600
" />
<path d="M53900 37400
L51100 37400
" />
<path d="M51100 37400
L51100 36600
" />
<path d="M51100 36600
L53900 36600
" />
<path d="M53900 36600
L53900 37400
" />
<path d="M53900 37200
L53700 37400
" />
<path d="M51900 42400
L49100 42400
" />
<path d="M49100 42400
L49100 41600
" />
<path d="M49100 41600
L51900 41600
" />
<path d="M51900 41600
L51900 42400
" />
<path d="M51900 42200
L51700 42400
" />
<path d="M51100 38100
L53900 38100
" />
<path d="M53900 38100
L53900 38900
" />
<path d="M53900 38900
L51100 38900
" />
<path d="M51100 38900
L51100 38100
" />
<path d="M51100 38300
L51300 38100
" />
<path d="M47100 31100
L49900 31100
" />
<path d="M49900 31100
L49900 31900
" />
<path d="M49900 31900
L47100 31900
" />
<path d="M47100 31900
L47100 31100
" />
<path d="M47100 31300
L47300 31100
" />
<path d="M71400 25900
L68600 25900
" />
<path d="M68600 25900
L68600 25100
" />
<path d="M68600 25100
L71400 25100
" />
<path d="M71400 25100
L71400 25900
" />
<path d="M71400 25700
L71200 25900
" />
<path d="M71400 38900
L68600 38900
" />
<path d="M68600 38900
L68600 38100
" />
<path d="M68600 38100
L71400 38100
" />
<path d="M71400 38100
L71400 38900
" />
<path d="M71400 38700
L71200 38900
" />
<path d="M39900 41900
L37100 41900
" />
<path d="M37100 41900
L37100 41100
" />
<path d="M37100 41100
L39900 41100
" />
<path d="M39900 41100
L39900 41900
" />
<path d="M39900 41700
L39700 41900
" />
<path d="M57100 47100
L59900 47100
" />
<path d="M59900 47100
L59900 47900
" />
<path d="M59900 47900
L57100 47900
" />
<path d="M57100 47900
L57100 47100
" />
<path d="M57100 47300
L57300 47100
" />
<path d="M39450 28500
L39450 35000
" />
<path d="M39450 35000
L43450 35000
" />
<path d="M43450 35000
L43450 28500
" />
<path d="M43450 28500
L39450 28500
" />
<path d="M39950 28500
L39950 28000
" />
<path d="M39950 28000
L40950 28000
" />
<path d="M40950 28000
L40950 28500
" />
<path d="M40450 28000
L40450 27500
" />
<path d="M42450 28500
L42450 27500
" />
<path d="M33450 28500
L33450 35000
" />
<path d="M33450 35000
L37450 35000
" />
<path d="M37450 35000
L37450 28500
" />
<path d="M37450 28500
L33450 28500
" />
<path d="M33950 28500
L33950 28000
" />
<path d="M33950 28000
L34950 28000
" />
<path d="M34950 28000
L34950 28500
" />
<path d="M34450 28000
L34450 27500
" />
<path d="M36450 28500
L36450 27500
" />
<path d="M53000 45000
L52500 45000
" />
<path d="M52500 45000
L52500 44500
" />
<path d="M52500 44500
L48500 44500
" />
<path d="M48500 44500
L48500 45000
" />
<path d="M48500 45000
L48000 45000
" />
<path d="M48500 45000
L48500 45500
" />
<path d="M48500 45500
L52500 45500
" />
<path d="M52500 45500
L52500 45000
" />
<path d="M52000 44500
L52000 45500
" />
<path d="M52100 44500
L52100 45500
" />
<path d="M48000 33000
L48500 33000
" />
<path d="M48500 33000
L48500 33500
" />
<path d="M48500 33500
L52500 33500
" />
<path d="M52500 33500
L52500 33000
" />
<path d="M52500 33000
L53000 33000
" />
<path d="M52500 33000
L52500 32500
" />
<path d="M52500 32500
L48500 32500
" />
<path d="M48500 32500
L48500 33000
" />
<path d="M49000 33500
L49000 32500
" />
<path d="M48900 33500
L48900 32500
" />
</g>
<g style="fill:#000000; fill-opacity:0.0; 
stroke:#000000; stroke-width:60; stroke-opacity:1; 
stroke-linecap:round; stroke-linejoin:round;">
<path d="M52000 30750
L51500 30250
" />
<path d="M51500 25750
L52000 25250
" />
<path d="M53000 25250
L53500 25750
" />
<path d="M53000 30750
L53500 30250
" />
<path d="M51500 30250
L51500 25750
" />
<path d="M52000 30750
L53000 30750
" />
<path d="M53500 30250
L53500 25750
" />
<path d="M53000 25250
L52000 25250
" />
</g>
<g style="fill:#000000; fill-opacity:0.0; 
stroke:#000000; stroke-width:120; stroke-opacity:1; 
stroke-linecap:round; stroke-linejoin:round;">
<path d="M53000 35500
L48000 35500
" />
<path d="M48000 35500
L48000 34500
" />
<path d="M48000 34500
L53000 34500
" />
<path d="M48000 35000
L47500 35000
" />
<path d="M53500 35000
L53000 35000
" />
<path d="M53000 35200
L52700 35500
" />
<path d="M53000 35500
L53000 34500
" />
<path d="M56000 49000
L61000 49000
" />
<path d="M61000 49000
L61000 50000
" />
<path d="M61000 50000
L56000 50000
" />
<path d="M61000 49500
L61500 49500
" />
<path d="M55500 49500
L56000 49500
" />
<path d="M56000 49300
L56300 49000
" />
<path d="M56000 49000
L56000 50000
" />
<path d="M39500 39000
L34500 39000
" />
<path d="M34500 39000
L34500 38000
" />
<path d="M34500 38000
L39500 38000
" />
<path d="M34500 38500
L34000 38500
" />
<path d="M40000 38500
L39500 38500
" />
<path d="M39500 38700
L39200 39000
" />
<path d="M39500 39000
L39500 38000
" />
<path d="M34500 36000
L39500 36000
" />
<path d="M39500 36000
L39500 37000
" />
<path d="M39500 37000
L34500 37000
" />
<path d="M39500 36500
L40000 36500
" />
<path d="M34000 36500
L34500 36500
" />
<path d="M34500 36300
L34800 36000
" />
<path d="M34500 36000
L34500 37000
" />
<path d="M44000 40500
L44000 45500
" />
<path d="M44000 45500
L43000 45500
" />
<path d="M43000 45500
L43000 40500
" />
<path d="M43500 45500
L43500 46000
" />
<path d="M43500 40000
L43500 40500
" />
<path d="M43700 40500
L44000 40800
" />
<path d="M44000 40500
L43000 40500
" />
<path d="M46500 27500
L46500 32500
" />
<path d="M46500 32500
L45500 32500
" />
<path d="M45500 32500
L45500 27500
" />
<path d="M46000 32500
L46000 33000
" />
<path d="M46000 27000
L46000 27500
" />
<path d="M46200 27500
L46500 27800
" />
<path d="M46500 27500
L45500 27500
" />
<path d="M48000 39500
L53000 39500
" />
<path d="M53000 39500
L53000 40500
" />
<path d="M53000 40500
L48000 40500
" />
<path d="M53000 40000
L53500 40000
" />
<path d="M47500 40000
L48000 40000
" />
<path d="M48000 39800
L48300 39500
" />
<path d="M48000 39500
L48000 40500
" />
</g>
<g style="fill:#000000; fill-opacity:0.0; 
stroke:#000000; stroke-width:80; stroke-opacity:1; 
stroke-linecap:round; stroke-linejoin:round;">
<circle cx="43150" cy="37500" r="1400" /> 
</g>
<g style="fill:#000000; fill-opacity:0.0; 
stroke:#000000; stroke-width:120; stroke-opacity:1; 
stroke-linecap:round; stroke-linejoin:round;">
<path d="M53000 48000
L51500 49500
" />
<path d="M51500 49500
L51500 50000
" />
<path d="M51500 50000
L52000 50500
" />
<path d="M52000 50500
L53000 50500
" />
<path d="M53000 50500
L54000 49500
" />
<path d="M54000 49500
L54000 48500
" />
<path d="M54000 48500
L53500 48000
" />
<path d="M53500 48000
L53000 48000
" />
<path d="M74500 25000
L82500 25000
" />
<path d="M82500 25000
L82500 26000
" />
<path d="M82500 26000
L74500 26000
" />
<path d="M74500 26000
L74500 25000
" />
<path d="M75500 26000
L75500 25000
" />
<path d="M63500 26000
L63500 25000
" />
<path d="M63500 25000
L66500 25000
" />
<path d="M66500 25000
L66500 26000
" />
<path d="M66500 26000
L63500 26000
" />
<path d="M64500 25000
L64500 26000
" />
<path d="M47500 26000
L47500 25000
" />
<path d="M47500 25000
L49500 25000
" />
<path d="M49500 25000
L49500 26000
" />
<path d="M49500 26000
L47500 26000
" />
<path d="M37500 26000
L37500 25000
" />
<path d="M37500 25000
L40500 25000
" />
<path d="M40500 25000
L40500 26000
" />
<path d="M40500 26000
L37500 26000
" />
<path d="M38500 25000
L38500 26000
" />
</g>
<g style="fill:#000000; fill-opacity:0.0; 
stroke:#000000; stroke-width:150; stroke-opacity:1; 
stroke-linecap:round; stroke-linejoin:round;">
<path d="M39500 42500
L39500 50500
" />
<path d="M37500 50500
L37500 42500
" />
<path d="M37500 42500
L39500 42500
" />
<path d="M39000 42500
L39000 43000
" />
<path d="M39000 43000
L38000 43000
" />
<path d="M38000 43000
L38000 42500
" />
<path d="M39500 50500
L37500 50500
" />
<path d="M58000 46000
L58000 45500
" />
<path d="M58000 45500
L59000 45500
" />
<path d="M59000 45500
L59000 46000
" />
<path d="M56000 46000
L56000 25000
" />
<path d="M56000 25000
L61000 25000
" />
<path d="M61000 25000
L61000 46000
" />
<path d="M61000 46000
L56000 46000
" />
<path d="M70500 39500
L70500 40000
" />
<path d="M70500 40000
L69500 40000
" />
<path d="M69500 40000
L69500 39500
" />
<path d="M71000 39500
L71000 50500
" />
<path d="M71000 50500
L69000 50500
" />
<path d="M69000 50500
L69000 39500
" />
<path d="M69000 39500
L71000 39500
" />
<path d="M70500 26500
L70500 27000
" />
<path d="M70500 27000
L69500 27000
" />
<path d="M69500 27000
L69500 26500
" />
<path d="M71000 26500
L71000 37500
" />
<path d="M71000 37500
L69000 37500
" />
<path d="M69000 37500
L69000 26500
" />
<path d="M69000 26500
L71000 26500
" />
</g>
<g style="fill:#000000; fill-opacity:0.0; 
stroke:#000000; stroke-width:39.3701; stroke-opacity:1; 
stroke-linecap:round; stroke-linejoin:round;">
<circle cx="47500" cy="37000" r="255.315" /> 
<circle cx="49500" cy="37000" r="255.315" /> 
<circle cx="53500" cy="37000" r="255.315" /> 
<circle cx="51500" cy="37000" r="255.315" /> 
<circle cx="51500" cy="42000" r="255.315" /> 
<circle cx="49500" cy="42000" r="255.315" /> 
<circle cx="51500" cy="38500" r="255.315" /> 
<circle cx="53500" cy="38500" r="255.315" /> 
<circle cx="47500" cy="31500" r="255.315" /> 
<circle cx="49500" cy="31500" r="255.315" /> 
<circle cx="71000" cy="25500" r="255.315" /> 
<circle cx="69000" cy="25500" r="255.315" /> 
<circle cx="71000" cy="38500" r="255.315" /> 
<circle cx="69000" cy="38500" r="255.315" /> 
<circle cx="39500" cy="41500" r="255.315" /> 
<circle cx="37500" cy="41500" r="255.315" /> 
<circle cx="57500" cy="47500" r="255.315" /> 
<circle cx="59500" cy="47500" r="255.315" /> 
<polyline fill="none;"
points="40780,27830
40119,27830
40119,27169
40780,27169
40780,27830
" /> 
<circle cx="42450" cy="27500" r="330.315" /> 
<polyline fill="none;"
points="34780,27830
34119,27830
34119,27169
34780,27169
34780,27830
" /> 
<circle cx="36450" cy="27500" r="330.315" /> 
<circle cx="48000" cy="45000" r="330.315" /> 
<polyline fill="none;"
points="52669,45330
52669,44669
53330,44669
53330,45330
52669,45330
" /> 
<circle cx="53000" cy="33000" r="330.315" /> 
<polyline fill="none;"
points="48330,32669
48330,33330
47669,33330
47669,32669
48330,32669
" /> 
<circle cx="52500" cy="29000" r="330.315" /> 
<circle cx="52500" cy="27000" r="330.315" /> 
<circle cx="53500" cy="35000" r="330.315" /> 
<circle cx="47500" cy="35000" r="330.315" /> 
<circle cx="55500" cy="49500" r="330.315" /> 
<circle cx="61500" cy="49500" r="330.315" /> 
<circle cx="40000" cy="38500" r="330.315" /> 
<circle cx="34000" cy="38500" r="330.315" /> 
<circle cx="34000" cy="36500" r="330.315" /> 
<circle cx="40000" cy="36500" r="330.315" /> 
<circle cx="43500" cy="40000" r="330.315" /> 
<circle cx="43500" cy="46000" r="330.315" /> 
<circle cx="46000" cy="27000" r="330.315" /> 
<circle cx="46000" cy="33000" r="330.315" /> 
<circle cx="47500" cy="40000" r="330.315" /> 
<circle cx="53500" cy="40000" r="330.315" /> 
<circle cx="43500" cy="38500" r="280.315" /> 
<circle cx="42500" cy="37500" r="280.315" /> 
<circle cx="43500" cy="36500" r="280.315" /> 
<polyline fill="none;"
points="52255,49244
52255,49755
51744,49755
51744,49244
52255,49244
" /> 
<circle cx="53000" cy="49500" r="255.315" /> 
<circle cx="53000" cy="48500" r="255.315" /> 
<polyline fill="none;"
points="74744,25755
74744,25244
75255,25244
75255,25755
74744,25755
" /> 
<circle cx="76000" cy="25500" r="255.315" /> 
<circle cx="77000" cy="25500" r="255.315" /> 
<circle cx="78000" cy="25500" r="255.315" /> 
<circle cx="79000" cy="25500" r="255.315" /> 
<circle cx="80000" cy="25500" r="255.315" /> 
<circle cx="81000" cy="25500" r="255.315" /> 
<circle cx="82000" cy="25500" r="255.315" /> 
<polyline fill="none;"
points="63744,25755
63744,25244
64255,25244
64255,25755
63744,25755
" /> 
<circle cx="65000" cy="25500" r="255.315" /> 
<circle cx="66000" cy="25500" r="255.315" /> 
<polyline fill="none;"
points="47744,25755
47744,25244
48255,25244
48255,25755
47744,25755
" /> 
<circle cx="49000" cy="25500" r="255.315" /> 
<polyline fill="none;"
points="37744,25755
37744,25244
38255,25244
38255,25755
37744,25755
" /> 
<circle cx="39000" cy="25500" r="255.315" /> 
<circle cx="40000" cy="25500" r="255.315" /> 
<polyline fill="none;"
points="36744,43244
37255,43244
37255,43755
36744,43755
36744,43244
" /> 
<circle cx="37000" cy="44500" r="255.315" /> 
<circle cx="37000" cy="45500" r="255.315" /> 
<circle cx="37000" cy="46500" r="255.315" /> 
<circle cx="37000" cy="47500" r="255.315" /> 
<circle cx="37000" cy="48500" r="255.315" /> 
<circle cx="37000" cy="49500" r="255.315" /> 
<circle cx="40000" cy="49500" r="255.315" /> 
<circle cx="40000" cy="48500" r="255.315" /> 
<circle cx="40000" cy="47500" r="255.315" /> 
<circle cx="40000" cy="46500" r="255.315" /> 
<circle cx="40000" cy="45500" r="255.315" /> 
<circle cx="40000" cy="44500" r="255.315" /> 
<circle cx="40000" cy="43500" r="255.315" /> 
<polyline fill="none;"
points="61755,45255
61244,45255
61244,44744
61755,44744
61755,45255
" /> 
<circle cx="61500" cy="44000" r="255.315" /> 
<circle cx="61500" cy="43000" r="255.315" /> 
<circle cx="61500" cy="42000" r="255.315" /> 
<circle cx="61500" cy="41000" r="255.315" /> 
<circle cx="61500" cy="40000" r="255.315" /> 
<circle cx="61500" cy="39000" r="255.315" /> 
<circle cx="61500" cy="38000" r="255.315" /> 
<circle cx="61500" cy="37000" r="255.315" /> 
<circle cx="61500" cy="36000" r="255.315" /> 
<circle cx="61500" cy="35000" r="255.315" /> 
<circle cx="61500" cy="34000" r="255.315" /> 
<circle cx="61500" cy="33000" r="255.315" /> 
<circle cx="61500" cy="32000" r="255.315" /> 
<circle cx="61500" cy="31000" r="255.315" /> 
<circle cx="61500" cy="30000" r="255.315" /> 
<circle cx="61500" cy="29000" r="255.315" /> 
<circle cx="61500" cy="28000" r="255.315" /> 
<circle cx="61500" cy="27000" r="255.315" /> 
<circle cx="61500" cy="26000" r="255.315" /> 
<circle cx="55500" cy="26000" r="255.315" /> 
<circle cx="55500" cy="27000" r="255.315" /> 
<circle cx="55500" cy="28000" r="255.315" /> 
<circle cx="55500" cy="29000" r="255.315" /> 
<circle cx="55500" cy="30000" r="255.315" /> 
<circle cx="55500" cy="31000" r="255.315" /> 
<circle cx="55500" cy="32000" r="255.315" /> 
<circle cx="55500" cy="33000" r="255.315" /> 
<circle cx="55500" cy="34000" r="255.315" /> 
<circle cx="55500" cy="35000" r="255.315" /> 
<circle cx="55500" cy="36000" r="255.315" /> 
<circle cx="55500" cy="37000" r="255.315" /> 
<circle cx="55500" cy="38000" r="255.315" /> 
<circle cx="55500" cy="39000" r="255.315" /> 
<circle cx="55500" cy="40000" r="255.315" /> 
<circle cx="55500" cy="41000" r="255.315" /> 
<circle cx="55500" cy="42000" r="255.315" /> 
<circle cx="55500" cy="43000" r="255.315" /> 
<circle cx="55500" cy="44000" r="255.315" /> 
<circle cx="55500" cy="45000" r="255.315" /> 
<polyline fill="none;"
points="68244,40244
68755,40244
68755,40755
68244,40755
68244,40244
" /> 
<circle cx="68500" cy="41500" r="255.315" /> 
<circle cx="68500" cy="42500" r="255.315" /> 
<circle cx="68500" cy="43500" r="255.315" /> 
<circle cx="68500" cy="44500" r="255.315" /> 
<circle cx="68500" cy="45500" r="255.315" /> 
<circle cx="68500" cy="46500" r="255.315" /> 
<circle cx="68500" cy="47500" r="255.315" /> 
<circle cx="68500" cy="48500" r="255.315" /> 
<circle cx="68500" cy="49500" r="255.315" /> 
<circle cx="71500" cy="49500" r="255.315" /> 
<circle cx="71500" cy="48500" r="255.315" /> 
<circle cx="71500" cy="47500" r="255.315" /> 
<circle cx="71500" cy="46500" r="255.315" /> 
<circle cx="71500" cy="45500" r="255.315" /> 
<circle cx="71500" cy="44500" r="255.315" /> 
<circle cx="71500" cy="43500" r="255.315" /> 
<circle cx="71500" cy="42500" r="255.315" /> 
<circle cx="71500" cy="41500" r="255.315" /> 
<circle cx="71500" cy="40500" r="255.315" /> 
<polyline fill="none;"
points="68244,27244
68755,27244
68755,27755
68244,27755
68244,27244
" /> 
<circle cx="68500" cy="28500" r="255.315" /> 
<circle cx="68500" cy="29500" r="255.315" /> 
<circle cx="68500" cy="30500" r="255.315" /> 
<circle cx="68500" cy="31500" r="255.315" /> 
<circle cx="68500" cy="32500" r="255.315" /> 
<circle cx="68500" cy="33500" r="255.315" /> 
<circle cx="68500" cy="34500" r="255.315" /> 
<circle cx="68500" cy="35500" r="255.315" /> 
<circle cx="68500" cy="36500" r="255.315" /> 
<circle cx="71500" cy="36500" r="255.315" /> 
<circle cx="71500" cy="35500" r="255.315" /> 
<circle cx="71500" cy="34500" r="255.315" /> 
<circle cx="71500" cy="33500" r="255.315" /> 
<circle cx="71500" cy="32500" r="255.315" /> 
<circle cx="71500" cy="31500" r="255.315" /> 
<circle cx="71500" cy="30500" r="255.315" /> 
<circle cx="71500" cy="29500" r="255.315" /> 
<circle cx="71500" cy="28500" r="255.315" /> 
<circle cx="71500" cy="27500" r="255.315" /> 
</g>
<g style="fill:#000000; fill-opacity:0.0; 
stroke:#000000; stroke-width:80; stroke-opacity:1; 
stroke-linecap:round; stroke-linejoin:round;">
<path d="M48242 37142
L48223 37161
L48166 37180
L48128 37180
L48071 37161
L48033 37123
L48014 37085
L47995 37009
L47995 36952
L48014 36876
L48033 36838
L48071 36800
L48128 36780
L48166 36780
L48223 36800
L48242 36819
" />
<path d="M48623 37180
L48395 37180
" />
<path d="M48509 37180
L48509 36780
L48471 36838
L48433 36876
L48395 36895
" />
<path d="M49004 37180
L48776 37180
" />
<path d="M48890 37180
L48890 36780
L48852 36838
L48814 36876
L48776 36895
" />
<path d="M52242 37142
L52223 37161
L52166 37180
L52128 37180
L52071 37161
L52033 37123
L52014 37085
L51995 37009
L51995 36952
L52014 36876
L52033 36838
L52071 36800
L52128 36780
L52166 36780
L52223 36800
L52242 36819
" />
<path d="M52623 37180
L52395 37180
" />
<path d="M52509 37180
L52509 36780
L52471 36838
L52433 36876
L52395 36895
" />
<path d="M52871 36780
L52909 36780
L52947 36800
L52966 36819
L52985 36857
L53004 36933
L53004 37028
L52985 37104
L52966 37142
L52947 37161
L52909 37180
L52871 37180
L52833 37161
L52814 37142
L52795 37104
L52776 37028
L52776 36933
L52795 36857
L52814 36819
L52833 36800
L52871 36780
" />
<path d="M50433 42142
L50414 42161
L50357 42180
L50319 42180
L50261 42161
L50223 42123
L50204 42085
L50185 42009
L50185 41952
L50204 41876
L50223 41838
L50261 41800
L50319 41780
L50357 41780
L50414 41800
L50433 41819
" />
<path d="M50623 42180
L50700 42180
L50738 42161
L50757 42142
L50795 42085
L50814 42009
L50814 41857
L50795 41819
L50776 41800
L50738 41780
L50661 41780
L50623 41800
L50604 41819
L50585 41857
L50585 41952
L50604 41990
L50623 42009
L50661 42028
L50738 42028
L50776 42009
L50795 41990
L50814 41952
" />
<path d="M52433 38642
L52414 38661
L52357 38680
L52319 38680
L52261 38661
L52223 38623
L52204 38585
L52185 38509
L52185 38452
L52204 38376
L52223 38338
L52261 38300
L52319 38280
L52357 38280
L52414 38300
L52433 38319
" />
<path d="M52661 38452
L52623 38433
L52604 38414
L52585 38376
L52585 38357
L52604 38319
L52623 38300
L52661 38280
L52738 38280
L52776 38300
L52795 38319
L52814 38357
L52814 38376
L52795 38414
L52776 38433
L52738 38452
L52661 38452
L52623 38471
L52604 38490
L52585 38528
L52585 38604
L52604 38642
L52623 38661
L52661 38680
L52738 38680
L52776 38661
L52795 38642
L52814 38604
L52814 38528
L52795 38490
L52776 38471
L52738 38452
" />
<path d="M48433 31642
L48414 31661
L48357 31680
L48319 31680
L48261 31661
L48223 31623
L48204 31585
L48185 31509
L48185 31452
L48204 31376
L48223 31338
L48261 31300
L48319 31280
L48357 31280
L48414 31300
L48433 31319
" />
<path d="M48566 31280
L48833 31280
L48661 31680
" />
<path d="M69933 25642
L69914 25661
L69857 25680
L69819 25680
L69761 25661
L69723 25623
L69704 25585
L69685 25509
L69685 25452
L69704 25376
L69723 25338
L69761 25300
L69819 25280
L69857 25280
L69914 25300
L69933 25319
" />
<path d="M70276 25280
L70200 25280
L70161 25300
L70142 25319
L70104 25376
L70085 25452
L70085 25604
L70104 25642
L70123 25661
L70161 25680
L70238 25680
L70276 25661
L70295 25642
L70314 25604
L70314 25509
L70295 25471
L70276 25452
L70238 25433
L70161 25433
L70123 25452
L70104 25471
L70085 25509
" />
<path d="M69933 38642
L69914 38661
L69857 38680
L69819 38680
L69761 38661
L69723 38623
L69704 38585
L69685 38509
L69685 38452
L69704 38376
L69723 38338
L69761 38300
L69819 38280
L69857 38280
L69914 38300
L69933 38319
" />
<path d="M70295 38280
L70104 38280
L70085 38471
L70104 38452
L70142 38433
L70238 38433
L70276 38452
L70295 38471
L70314 38509
L70314 38604
L70295 38642
L70276 38661
L70238 38680
L70142 38680
L70104 38661
L70085 38642
" />
<path d="M38433 41642
L38414 41661
L38357 41680
L38319 41680
L38261 41661
L38223 41623
L38204 41585
L38185 41509
L38185 41452
L38204 41376
L38223 41338
L38261 41300
L38319 41280
L38357 41280
L38414 41300
L38433 41319
" />
<path d="M38776 41414
L38776 41680
" />
<path d="M38680 41261
L38585 41547
L38833 41547
" />
<path d="M58433 47642
L58414 47661
L58357 47680
L58319 47680
L58261 47661
L58223 47623
L58204 47585
L58185 47509
L58185 47452
L58204 47376
L58223 47338
L58261 47300
L58319 47280
L58357 47280
L58414 47300
L58433 47319
" />
<path d="M58566 47280
L58814 47280
L58680 47433
L58738 47433
L58776 47452
L58795 47471
L58814 47509
L58814 47604
L58795 47642
L58776 47661
L58738 47680
L58623 47680
L58585 47661
L58566 47642
" />
<path d="M40714 31583
L40742 31607
L40771 31678
L40771 31726
L40742 31797
L40685 31845
L40628 31869
L40514 31892
L40428 31892
L40314 31869
L40257 31845
L40200 31797
L40171 31726
L40171 31678
L40200 31607
L40228 31583
" />
<path d="M40228 31392
L40200 31369
L40171 31321
L40171 31202
L40200 31154
L40228 31130
L40285 31107
L40342 31107
L40428 31130
L40771 31416
L40771 31107
" />
<path d="M34714 31583
L34742 31607
L34771 31678
L34771 31726
L34742 31797
L34685 31845
L34628 31869
L34514 31892
L34428 31892
L34314 31869
L34257 31845
L34200 31797
L34171 31726
L34171 31678
L34200 31607
L34228 31583
" />
<path d="M34771 31107
L34771 31392
" />
<path d="M34771 31250
L34171 31250
L34257 31297
L34314 31345
L34342 31392
" />
</g>
<g style="fill:#000000; fill-opacity:0.0; 
stroke:#000000; stroke-width:120; stroke-opacity:1; 
stroke-linecap:round; stroke-linejoin:round;">
</g>
<g style="fill:#000000; fill-opacity:0.0; 
stroke:#000000; stroke-width:100; stroke-opacity:1; 
stroke-linecap:round; stroke-linejoin:round;">
<path d="M50204 45271
L50204 44671
L50300 44671
L50357 44700
L50395 44757
L50414 44814
L50433 44928
L50433 45014
L50414 45128
L50395 45185
L50357 45242
L50300 45271
L50204 45271
" />
<path d="M50585 44728
L50604 44700
L50642 44671
L50738 44671
L50776 44700
L50795 44728
L50814 44785
L50814 44842
L50795 44928
L50566 45271
L50814 45271
" />
</g>
<g style="fill:#000000; fill-opacity:0.0; 
stroke:#000000; stroke-width:120; stroke-opacity:1; 
stroke-linecap:round; stroke-linejoin:round;">
</g>
<g style="fill:#000000; fill-opacity:0.0; 
stroke:#000000; stroke-width:100; stroke-opacity:1; 
stroke-linecap:round; stroke-linejoin:round;">
<path d="M50204 33271
L50204 32671
L50300 32671
L50357 32700
L50395 32757
L50414 32814
L50433 32928
L50433 33014
L50414 33128
L50395 33185
L50357 33242
L50300 33271
L50204 33271
" />
<path d="M50814 33271
L50585 33271
" />
<path d="M50700 33271
L50700 32671
L50661 32757
L50623 32814
L50585 32842
" />
</g>
<g style="fill:#000000; fill-opacity:0.0; 
stroke:#000000; stroke-width:120; stroke-opacity:1; 
stroke-linecap:round; stroke-linejoin:round;">
</g>
<g style="fill:#000000; fill-opacity:0.0; 
stroke:#000000; stroke-width:60; stroke-opacity:1; 
stroke-linecap:round; stroke-linejoin:round;">
<path d="M52046 28097
L52025 28145
L51982 28192
L51917 28264
L51896 28311
L51896 28359
" />
<path d="M52003 28335
L51982 28383
L51939 28430
L51853 28454
L51703 28454
L51617 28430
L51575 28383
L51553 28335
L51553 28240
L51575 28192
L51617 28145
L51703 28121
L51853 28121
L51939 28145
L51982 28192
L52003 28240
L52003 28335
" />
<path d="M52003 27645
L52003 27930
" />
<path d="M52003 27788
L51553 27788
L51617 27835
L51660 27883
L51682 27930
" />
</g>
<g style="fill:#000000; fill-opacity:0.0; 
stroke:#000000; stroke-width:80; stroke-opacity:1; 
stroke-linecap:round; stroke-linejoin:round;">
<path d="M50416 35248
L50250 34986
" />
<path d="M50130 35248
L50130 34698
L50321 34698
L50369 34725
L50392 34751
L50416 34803
L50416 34882
L50392 34934
L50369 34960
L50321 34986
L50130 34986
" />
<path d="M50583 34698
L50916 34698
L50702 35248
" />
<path d="M58416 49748
L58250 49486
" />
<path d="M58130 49748
L58130 49198
L58321 49198
L58369 49225
L58392 49251
L58416 49303
L58416 49382
L58392 49434
L58369 49460
L58321 49486
L58130 49486
" />
<path d="M58845 49198
L58750 49198
L58702 49225
L58678 49251
L58630 49329
L58607 49434
L58607 49644
L58630 49696
L58654 49722
L58702 49748
L58797 49748
L58845 49722
L58869 49696
L58892 49644
L58892 49513
L58869 49460
L58845 49434
L58797 49408
L58702 49408
L58654 49434
L58630 49460
L58607 49513
" />
<path d="M36916 38748
L36750 38486
" />
<path d="M36630 38748
L36630 38198
L36821 38198
L36869 38225
L36892 38251
L36916 38303
L36916 38382
L36892 38434
L36869 38460
L36821 38486
L36630 38486
" />
<path d="M37369 38198
L37130 38198
L37107 38460
L37130 38434
L37178 38408
L37297 38408
L37345 38434
L37369 38460
L37392 38513
L37392 38644
L37369 38696
L37345 38722
L37297 38748
L37178 38748
L37130 38722
L37107 38696
" />
<path d="M36916 36748
L36750 36486
" />
<path d="M36630 36748
L36630 36198
L36821 36198
L36869 36225
L36892 36251
L36916 36303
L36916 36382
L36892 36434
L36869 36460
L36821 36486
L36630 36486
" />
<path d="M37345 36382
L37345 36748
" />
<path d="M37226 36172
L37107 36565
L37416 36565
" />
<path d="M43748 43083
L43486 43250
" />
<path d="M43748 43369
L43198 43369
L43198 43178
L43225 43130
L43251 43107
L43303 43083
L43382 43083
L43434 43107
L43460 43130
L43486 43178
L43486 43369
" />
<path d="M43198 42916
L43198 42607
L43408 42773
L43408 42702
L43434 42654
L43460 42630
L43513 42607
L43644 42607
L43696 42630
L43722 42654
L43748 42702
L43748 42845
L43722 42892
L43696 42916
" />
<path d="M46248 30083
L45986 30250
" />
<path d="M46248 30369
L45698 30369
L45698 30178
L45725 30130
L45751 30107
L45803 30083
L45882 30083
L45934 30107
L45960 30130
L45986 30178
L45986 30369
" />
<path d="M45751 29892
L45725 29869
L45698 29821
L45698 29702
L45725 29654
L45751 29630
L45803 29607
L45855 29607
L45934 29630
L46248 29916
L46248 29607
" />
<path d="M50416 40248
L50250 39986
" />
<path d="M50130 40248
L50130 39698
L50321 39698
L50369 39725
L50392 39751
L50416 39803
L50416 39882
L50392 39934
L50369 39960
L50321 39986
L50130 39986
" />
<path d="M50892 40248
L50607 40248
" />
<path d="M50750 40248
L50750 39698
L50702 39777
L50654 39829
L50607 39855
" />
<path d="M41248 37869
L40698 37869
L40698 37678
L40725 37630
L40751 37607
L40803 37583
L40882 37583
L40934 37607
L40960 37630
L40986 37678
L40986 37869
" />
<path d="M41248 37107
L41248 37392
" />
<path d="M41248 37250
L40698 37250
L40777 37297
L40829 37345
L40855 37392
" />
<path d="M52695 47280
L52923 47280
" />
<path d="M52809 47680
L52809 47280
" />
<path d="M53266 47680
L53038 47680
" />
<path d="M53152 47680
L53152 47280
L53114 47338
L53076 47376
L53038 47395
" />
</g>
<g style="fill:#000000; fill-opacity:0.0; 
stroke:#000000; stroke-width:120; stroke-opacity:1; 
stroke-linecap:round; stroke-linejoin:round;">
</g>
<g style="fill:#000000; fill-opacity:0.0; 
stroke:#000000; stroke-width:107; stroke-opacity:1; 
stroke-linecap:round; stroke-linejoin:round;">
<path d="M75704 24743
L75684 24775
L75622 24808
L75582 24808
L75521 24775
L75480 24710
L75459 24645
L75439 24516
L75439 24418
L75459 24289
L75480 24224
L75521 24159
L75582 24127
L75622 24127
L75684 24159
L75704 24191
" />
<path d="M75887 24808
L75887 24127
L76132 24808
L76132 24127
" />
<path d="M76315 24191
L76336 24159
L76377 24127
L76478 24127
L76519 24159
L76540 24191
L76560 24256
L76560 24321
L76540 24418
L76295 24808
L76560 24808
" />
</g>
<g style="fill:#000000; fill-opacity:0.0; 
stroke:#000000; stroke-width:120; stroke-opacity:1; 
stroke-linecap:round; stroke-linejoin:round;">
</g>
<g style="fill:#000000; fill-opacity:0.0; 
stroke:#000000; stroke-width:106; stroke-opacity:1; 
stroke-linecap:round; stroke-linejoin:round;">
<path d="M64707 24751
L64687 24785
L64626 24818
L64586 24818
L64525 24785
L64485 24718
L64464 24651
L64444 24516
L64444 24416
L64464 24281
L64485 24214
L64525 24147
L64586 24113
L64626 24113
L64687 24147
L64707 24181
" />
<path d="M64888 24818
L64888 24113
L65131 24818
L65131 24113
" />
<path d="M65292 24113
L65555 24113
L65413 24382
L65474 24382
L65514 24416
L65535 24449
L65555 24516
L65555 24684
L65535 24751
L65514 24785
L65474 24818
L65353 24818
L65312 24785
L65292 24751
" />
</g>
<g style="fill:#000000; fill-opacity:0.0; 
stroke:#000000; stroke-width:120; stroke-opacity:1; 
stroke-linecap:round; stroke-linejoin:round;">
</g>
<g style="fill:#000000; fill-opacity:0.0; 
stroke:#000000; stroke-width:107; stroke-opacity:1; 
stroke-linecap:round; stroke-linejoin:round;">
<path d="M48204 24743
L48184 24775
L48122 24808
L48082 24808
L48021 24775
L47980 24710
L47959 24645
L47939 24516
L47939 24418
L47959 24289
L47980 24224
L48021 24159
L48082 24127
L48122 24127
L48184 24159
L48204 24191
" />
<path d="M48387 24808
L48387 24127
L48632 24808
L48632 24127
" />
<path d="M49060 24808
L48815 24808
" />
<path d="M48938 24808
L48938 24127
L48897 24224
L48856 24289
L48815 24321
" />
</g>
<g style="fill:#000000; fill-opacity:0.0; 
stroke:#000000; stroke-width:120; stroke-opacity:1; 
stroke-linecap:round; stroke-linejoin:round;">
</g>
<g style="fill:#000000; fill-opacity:0.0; 
stroke:#000000; stroke-width:106; stroke-opacity:1; 
stroke-linecap:round; stroke-linejoin:round;">
<path d="M38707 24751
L38687 24785
L38626 24818
L38586 24818
L38525 24785
L38485 24718
L38464 24651
L38444 24516
L38444 24416
L38464 24281
L38485 24214
L38525 24147
L38586 24113
L38626 24113
L38687 24147
L38707 24181
" />
<path d="M38888 24818
L38888 24113
L39131 24818
L39131 24113
" />
<path d="M39514 24348
L39514 24818
" />
<path d="M39413 24080
L39312 24583
L39575 24583
" />
</g>
<g style="fill:#000000; fill-opacity:0.0; 
stroke:#000000; stroke-width:120; stroke-opacity:1; 
stroke-linecap:round; stroke-linejoin:round;">
</g>
<g style="fill:#000000; fill-opacity:0.0; 
stroke:#000000; stroke-width:112.5; stroke-opacity:1; 
stroke-linecap:round; stroke-linejoin:round;">
<path d="M39271 44939
L38671 44939
" />
<path d="M39214 44467
L39242 44489
L39271 44553
L39271 44596
L39242 44660
L39185 44703
L39128 44724
L39014 44746
L38928 44746
L38814 44724
L38757 44703
L38700 44660
L38671 44596
L38671 44553
L38700 44489
L38728 44467
" />
<path d="M38728 44296
L38700 44274
L38671 44232
L38671 44124
L38700 44082
L38728 44060
L38785 44039
L38842 44039
L38928 44060
L39271 44317
L39271 44039
" />
</g>
<g style="fill:#000000; fill-opacity:0.0; 
stroke:#000000; stroke-width:120; stroke-opacity:1; 
stroke-linecap:round; stroke-linejoin:round;">
</g>
<g style="fill:#000000; fill-opacity:0.0; 
stroke:#000000; stroke-width:112.5; stroke-opacity:1; 
stroke-linecap:round; stroke-linejoin:round;">
<path d="M57316 43439
L56616 43439
" />
<path d="M57250 42967
L57283 42989
L57316 43053
L57316 43096
L57283 43160
L57216 43203
L57150 43224
L57016 43246
L56916 43246
L56783 43224
L56716 43203
L56650 43160
L56616 43096
L56616 43053
L56650 42989
L56683 42967
" />
<path d="M57316 42539
L57316 42796
" />
<path d="M57316 42667
L56616 42667
L56716 42710
L56783 42753
L56816 42796
" />
</g>
<g style="fill:#000000; fill-opacity:0.0; 
stroke:#000000; stroke-width:120; stroke-opacity:1; 
stroke-linecap:round; stroke-linejoin:round;">
</g>
<g style="fill:#000000; fill-opacity:0.0; 
stroke:#000000; stroke-width:112.5; stroke-opacity:1; 
stroke-linecap:round; stroke-linejoin:round;">
<path d="M70816 41939
L70116 41939
" />
<path d="M70750 41467
L70783 41489
L70816 41553
L70816 41596
L70783 41660
L70716 41703
L70650 41724
L70516 41746
L70416 41746
L70283 41724
L70216 41703
L70150 41660
L70116 41596
L70116 41553
L70150 41489
L70183 41467
" />
<path d="M70116 41317
L70116 41039
L70383 41189
L70383 41124
L70416 41082
L70450 41060
L70516 41039
L70683 41039
L70750 41060
L70783 41082
L70816 41124
L70816 41253
L70783 41296
L70750 41317
" />
</g>
<g style="fill:#000000; fill-opacity:0.0; 
stroke:#000000; stroke-width:120; stroke-opacity:1; 
stroke-linecap:round; stroke-linejoin:round;">
</g>
<g style="fill:#000000; fill-opacity:0.0; 
stroke:#000000; stroke-width:112.5; stroke-opacity:1; 
stroke-linecap:round; stroke-linejoin:round;">
<path d="M70816 28939
L70116 28939
" />
<path d="M70750 28467
L70783 28489
L70816 28553
L70816 28596
L70783 28660
L70716 28703
L70650 28724
L70516 28746
L70416 28746
L70283 28724
L70216 28703
L70150 28660
L70116 28596
L70116 28553
L70150 28489
L70183 28467
" />
<path d="M70350 28082
L70816 28082
" />
<path d="M70083 28189
L70583 28296
L70583 28017
" />
</g>
<g style="fill:#000000; fill-opacity:0.0; 
stroke:#000000; stroke-width:120; stroke-opacity:1; 
stroke-linecap:round; stroke-linejoin:round;">
</g> 
</svg>
