<?xml version="1.0" standalone="no"?>
 <!DOCTYPE svg PUBLIC "-//W3C//DTD SVG 1.1//EN" 
 "http://www.w3.org/Graphics/SVG/1.1/DTD/svg11.dtd"> 
<svg xmlns="http://www.w3.org/2000/svg" version="1.1" 
    width="29.7002cm" height="21.0007cm" viewBox="0 0 116930 82680 ">
<title>SVG Picture created as ctt_ps1-F.SilkS.svg date 2022/09/04 20:20:47 </title>
  <desc>Picture generated by PCBNEW </desc>
<g style="fill:#000000; fill-opacity:1;stroke:#000000; stroke-opacity:1;
stroke-linecap:round; stroke-linejoin:round; "
 transform="translate(0 0) scale(1 1)">
</g>
<g style="fill:#000000; fill-opacity:0.0; 
stroke:#000000; stroke-width:-0.000393701; stroke-opacity:1; 
stroke-linecap:round; stroke-linejoin:round;">
</g>
<g style="fill:#000000; fill-opacity:0.0; 
stroke:#000000; stroke-width:39.3701; stroke-opacity:1; 
stroke-linecap:round; stroke-linejoin:round;">
</g>
<g style="fill:#000000; fill-opacity:0.0; 
stroke:#000000; stroke-width:59.0551; stroke-opacity:1; 
stroke-linecap:round; stroke-linejoin:round;">
<rect x="69685.9" y="65357.2" width="42519.7" height="12598.4" rx="0" />
</g>
<g style="fill:#000000; fill-opacity:0.0; 
stroke:#000000; stroke-width:39.3701; stroke-opacity:1; 
stroke-linecap:round; stroke-linejoin:round;">
</g>
<g style="fill:#000000; fill-opacity:0.0; 
stroke:#000000; stroke-width:59.0551; stroke-opacity:1; 
stroke-linecap:round; stroke-linejoin:round;">
<rect x="3937.01" y="3937.01" width="109056" height="74806" rx="0" />
</g>
<g style="fill:#000000; fill-opacity:0.0; 
stroke:#000000; stroke-width:39.3701; stroke-opacity:1; 
stroke-linecap:round; stroke-linejoin:round;">
</g>
<g style="fill:#000000; fill-opacity:0.0; 
stroke:#000000; stroke-width:59.0551; stroke-opacity:1; 
stroke-linecap:round; stroke-linejoin:round;">
<rect x="4724.41" y="4724.41" width="107481" height="73231.2" rx="0" />
</g>
<g style="fill:#000000; fill-opacity:0.0; 
stroke:#000000; stroke-width:39.3701; stroke-opacity:1; 
stroke-linecap:round; stroke-linejoin:round;">
</g>
<g style="fill:#000000; fill-opacity:0.0; 
stroke:#000000; stroke-width:59.0551; stroke-opacity:1; 
stroke-linecap:round; stroke-linejoin:round;">
<path d="M23622 4724
L23622 3937
" />
</g>
<g style="fill:#000000; fill-opacity:0.0; 
stroke:#000000; stroke-width:39.3701; stroke-opacity:1; 
stroke-linecap:round; stroke-linejoin:round;">
</g>
<g style="fill:#000000; fill-opacity:0.0; 
stroke:#000000; stroke-width:59.0551; stroke-opacity:1; 
stroke-linecap:round; stroke-linejoin:round;">
<path d="M43307 4724
L43307 3937
" />
</g>
<g style="fill:#000000; fill-opacity:0.0; 
stroke:#000000; stroke-width:39.3701; stroke-opacity:1; 
stroke-linecap:round; stroke-linejoin:round;">
</g>
<g style="fill:#000000; fill-opacity:0.0; 
stroke:#000000; stroke-width:59.0551; stroke-opacity:1; 
stroke-linecap:round; stroke-linejoin:round;">
<path d="M62992 4724
L62992 3937
" />
</g>
<g style="fill:#000000; fill-opacity:0.0; 
stroke:#000000; stroke-width:39.3701; stroke-opacity:1; 
stroke-linecap:round; stroke-linejoin:round;">
</g>
<g style="fill:#000000; fill-opacity:0.0; 
stroke:#000000; stroke-width:59.0551; stroke-opacity:1; 
stroke-linecap:round; stroke-linejoin:round;">
<path d="M82677 4724
L82677 3937
" />
</g>
<g style="fill:#000000; fill-opacity:0.0; 
stroke:#000000; stroke-width:39.3701; stroke-opacity:1; 
stroke-linecap:round; stroke-linejoin:round;">
</g>
<g style="fill:#000000; fill-opacity:0.0; 
stroke:#000000; stroke-width:59.0551; stroke-opacity:1; 
stroke-linecap:round; stroke-linejoin:round;">
<path d="M102362 4724
L102362 3937
" />
</g>
<g style="fill:#000000; fill-opacity:0.0; 
stroke:#000000; stroke-width:39.3701; stroke-opacity:1; 
stroke-linecap:round; stroke-linejoin:round;">
</g>
<g style="fill:#000000; fill-opacity:0.0; 
stroke:#000000; stroke-width:59.0551; stroke-opacity:1; 
stroke-linecap:round; stroke-linejoin:round;">
<path d="M14169 4562
L13877 4562
" />
<path d="M14023 4562
L14023 4050
L13974 4123
L13925 4172
L13877 4196
" />
</g>
<g style="fill:#000000; fill-opacity:0.0; 
stroke:#000000; stroke-width:39.3701; stroke-opacity:1; 
stroke-linecap:round; stroke-linejoin:round;">
</g>
<g style="fill:#000000; fill-opacity:0.0; 
stroke:#000000; stroke-width:59.0551; stroke-opacity:1; 
stroke-linecap:round; stroke-linejoin:round;">
<path d="M33562 4099
L33586 4074
L33635 4050
L33757 4050
L33805 4074
L33830 4099
L33854 4147
L33854 4196
L33830 4269
L33537 4562
L33854 4562
" />
</g>
<g style="fill:#000000; fill-opacity:0.0; 
stroke:#000000; stroke-width:39.3701; stroke-opacity:1; 
stroke-linecap:round; stroke-linejoin:round;">
</g>
<g style="fill:#000000; fill-opacity:0.0; 
stroke:#000000; stroke-width:59.0551; stroke-opacity:1; 
stroke-linecap:round; stroke-linejoin:round;">
<path d="M53222 4050
L53539 4050
L53368 4245
L53442 4245
L53490 4269
L53515 4294
L53539 4342
L53539 4464
L53515 4513
L53490 4537
L53442 4562
L53295 4562
L53247 4537
L53222 4513
" />
</g>
<g style="fill:#000000; fill-opacity:0.0; 
stroke:#000000; stroke-width:39.3701; stroke-opacity:1; 
stroke-linecap:round; stroke-linejoin:round;">
</g>
<g style="fill:#000000; fill-opacity:0.0; 
stroke:#000000; stroke-width:59.0551; stroke-opacity:1; 
stroke-linecap:round; stroke-linejoin:round;">
<path d="M73175 4221
L73175 4562
" />
<path d="M73053 4026
L72932 4391
L73248 4391
" />
</g>
<g style="fill:#000000; fill-opacity:0.0; 
stroke:#000000; stroke-width:39.3701; stroke-opacity:1; 
stroke-linecap:round; stroke-linejoin:round;">
</g>
<g style="fill:#000000; fill-opacity:0.0; 
stroke:#000000; stroke-width:59.0551; stroke-opacity:1; 
stroke-linecap:round; stroke-linejoin:round;">
<path d="M92885 4050
L92641 4050
L92617 4294
L92641 4269
L92690 4245
L92812 4245
L92860 4269
L92885 4294
L92909 4342
L92909 4464
L92885 4513
L92860 4537
L92812 4562
L92690 4562
L92641 4537
L92617 4513
" />
</g>
<g style="fill:#000000; fill-opacity:0.0; 
stroke:#000000; stroke-width:39.3701; stroke-opacity:1; 
stroke-linecap:round; stroke-linejoin:round;">
</g>
<g style="fill:#000000; fill-opacity:0.0; 
stroke:#000000; stroke-width:59.0551; stroke-opacity:1; 
stroke-linecap:round; stroke-linejoin:round;">
<path d="M112545 4050
L112448 4050
L112399 4074
L112375 4099
L112326 4172
L112302 4269
L112302 4464
L112326 4513
L112350 4537
L112399 4562
L112497 4562
L112545 4537
L112570 4513
L112594 4464
L112594 4342
L112570 4294
L112545 4269
L112497 4245
L112399 4245
L112350 4269
L112326 4294
L112302 4342
" />
</g>
<g style="fill:#000000; fill-opacity:0.0; 
stroke:#000000; stroke-width:39.3701; stroke-opacity:1; 
stroke-linecap:round; stroke-linejoin:round;">
</g>
<g style="fill:#000000; fill-opacity:0.0; 
stroke:#000000; stroke-width:59.0551; stroke-opacity:1; 
stroke-linecap:round; stroke-linejoin:round;">
<path d="M23622 77955
L23622 78742
" />
</g>
<g style="fill:#000000; fill-opacity:0.0; 
stroke:#000000; stroke-width:39.3701; stroke-opacity:1; 
stroke-linecap:round; stroke-linejoin:round;">
</g>
<g style="fill:#000000; fill-opacity:0.0; 
stroke:#000000; stroke-width:59.0551; stroke-opacity:1; 
stroke-linecap:round; stroke-linejoin:round;">
<path d="M43307 77955
L43307 78742
" />
</g>
<g style="fill:#000000; fill-opacity:0.0; 
stroke:#000000; stroke-width:39.3701; stroke-opacity:1; 
stroke-linecap:round; stroke-linejoin:round;">
</g>
<g style="fill:#000000; fill-opacity:0.0; 
stroke:#000000; stroke-width:59.0551; stroke-opacity:1; 
stroke-linecap:round; stroke-linejoin:round;">
<path d="M62992 77955
L62992 78742
" />
</g>
<g style="fill:#000000; fill-opacity:0.0; 
stroke:#000000; stroke-width:39.3701; stroke-opacity:1; 
stroke-linecap:round; stroke-linejoin:round;">
</g>
<g style="fill:#000000; fill-opacity:0.0; 
stroke:#000000; stroke-width:59.0551; stroke-opacity:1; 
stroke-linecap:round; stroke-linejoin:round;">
<path d="M82677 77955
L82677 78742
" />
</g>
<g style="fill:#000000; fill-opacity:0.0; 
stroke:#000000; stroke-width:39.3701; stroke-opacity:1; 
stroke-linecap:round; stroke-linejoin:round;">
</g>
<g style="fill:#000000; fill-opacity:0.0; 
stroke:#000000; stroke-width:59.0551; stroke-opacity:1; 
stroke-linecap:round; stroke-linejoin:round;">
<path d="M102362 77955
L102362 78742
" />
</g>
<g style="fill:#000000; fill-opacity:0.0; 
stroke:#000000; stroke-width:39.3701; stroke-opacity:1; 
stroke-linecap:round; stroke-linejoin:round;">
</g>
<g style="fill:#000000; fill-opacity:0.0; 
stroke:#000000; stroke-width:59.0551; stroke-opacity:1; 
stroke-linecap:round; stroke-linejoin:round;">
<path d="M14169 78580
L13877 78580
" />
<path d="M14023 78580
L14023 78069
L13974 78142
L13925 78190
L13877 78215
" />
</g>
<g style="fill:#000000; fill-opacity:0.0; 
stroke:#000000; stroke-width:39.3701; stroke-opacity:1; 
stroke-linecap:round; stroke-linejoin:round;">
</g>
<g style="fill:#000000; fill-opacity:0.0; 
stroke:#000000; stroke-width:59.0551; stroke-opacity:1; 
stroke-linecap:round; stroke-linejoin:round;">
<path d="M33562 78117
L33586 78093
L33635 78069
L33757 78069
L33805 78093
L33830 78117
L33854 78166
L33854 78215
L33830 78288
L33537 78580
L33854 78580
" />
</g>
<g style="fill:#000000; fill-opacity:0.0; 
stroke:#000000; stroke-width:39.3701; stroke-opacity:1; 
stroke-linecap:round; stroke-linejoin:round;">
</g>
<g style="fill:#000000; fill-opacity:0.0; 
stroke:#000000; stroke-width:59.0551; stroke-opacity:1; 
stroke-linecap:round; stroke-linejoin:round;">
<path d="M53222 78069
L53539 78069
L53368 78263
L53442 78263
L53490 78288
L53515 78312
L53539 78361
L53539 78483
L53515 78532
L53490 78556
L53442 78580
L53295 78580
L53247 78556
L53222 78532
" />
</g>
<g style="fill:#000000; fill-opacity:0.0; 
stroke:#000000; stroke-width:39.3701; stroke-opacity:1; 
stroke-linecap:round; stroke-linejoin:round;">
</g>
<g style="fill:#000000; fill-opacity:0.0; 
stroke:#000000; stroke-width:59.0551; stroke-opacity:1; 
stroke-linecap:round; stroke-linejoin:round;">
<path d="M73175 78239
L73175 78580
" />
<path d="M73053 78044
L72932 78410
L73248 78410
" />
</g>
<g style="fill:#000000; fill-opacity:0.0; 
stroke:#000000; stroke-width:39.3701; stroke-opacity:1; 
stroke-linecap:round; stroke-linejoin:round;">
</g>
<g style="fill:#000000; fill-opacity:0.0; 
stroke:#000000; stroke-width:59.0551; stroke-opacity:1; 
stroke-linecap:round; stroke-linejoin:round;">
<path d="M92885 78069
L92641 78069
L92617 78312
L92641 78288
L92690 78263
L92812 78263
L92860 78288
L92885 78312
L92909 78361
L92909 78483
L92885 78532
L92860 78556
L92812 78580
L92690 78580
L92641 78556
L92617 78532
" />
</g>
<g style="fill:#000000; fill-opacity:0.0; 
stroke:#000000; stroke-width:39.3701; stroke-opacity:1; 
stroke-linecap:round; stroke-linejoin:round;">
</g>
<g style="fill:#000000; fill-opacity:0.0; 
stroke:#000000; stroke-width:59.0551; stroke-opacity:1; 
stroke-linecap:round; stroke-linejoin:round;">
<path d="M112545 78069
L112448 78069
L112399 78093
L112375 78117
L112326 78190
L112302 78288
L112302 78483
L112326 78532
L112350 78556
L112399 78580
L112497 78580
L112545 78556
L112570 78532
L112594 78483
L112594 78361
L112570 78312
L112545 78288
L112497 78263
L112399 78263
L112350 78288
L112326 78312
L112302 78361
" />
</g>
<g style="fill:#000000; fill-opacity:0.0; 
stroke:#000000; stroke-width:39.3701; stroke-opacity:1; 
stroke-linecap:round; stroke-linejoin:round;">
</g>
<g style="fill:#000000; fill-opacity:0.0; 
stroke:#000000; stroke-width:59.0551; stroke-opacity:1; 
stroke-linecap:round; stroke-linejoin:round;">
<path d="M3937 23622
L4724 23622
" />
</g>
<g style="fill:#000000; fill-opacity:0.0; 
stroke:#000000; stroke-width:39.3701; stroke-opacity:1; 
stroke-linecap:round; stroke-linejoin:round;">
</g>
<g style="fill:#000000; fill-opacity:0.0; 
stroke:#000000; stroke-width:59.0551; stroke-opacity:1; 
stroke-linecap:round; stroke-linejoin:round;">
<path d="M3937 43307
L4724 43307
" />
</g>
<g style="fill:#000000; fill-opacity:0.0; 
stroke:#000000; stroke-width:39.3701; stroke-opacity:1; 
stroke-linecap:round; stroke-linejoin:round;">
</g>
<g style="fill:#000000; fill-opacity:0.0; 
stroke:#000000; stroke-width:59.0551; stroke-opacity:1; 
stroke-linecap:round; stroke-linejoin:round;">
<path d="M3937 62992
L4724 62992
" />
</g>
<g style="fill:#000000; fill-opacity:0.0; 
stroke:#000000; stroke-width:39.3701; stroke-opacity:1; 
stroke-linecap:round; stroke-linejoin:round;">
</g>
<g style="fill:#000000; fill-opacity:0.0; 
stroke:#000000; stroke-width:59.0551; stroke-opacity:1; 
stroke-linecap:round; stroke-linejoin:round;">
<path d="M4208 13864
L4452 13864
" />
<path d="M4160 14011
L4330 13499
L4501 14011
" />
</g>
<g style="fill:#000000; fill-opacity:0.0; 
stroke:#000000; stroke-width:39.3701; stroke-opacity:1; 
stroke-linecap:round; stroke-linejoin:round;">
</g>
<g style="fill:#000000; fill-opacity:0.0; 
stroke:#000000; stroke-width:59.0551; stroke-opacity:1; 
stroke-linecap:round; stroke-linejoin:round;">
<path d="M4367 33428
L4440 33452
L4464 33476
L4489 33525
L4489 33598
L4464 33647
L4440 33671
L4391 33696
L4196 33696
L4196 33184
L4367 33184
L4416 33208
L4440 33233
L4464 33281
L4464 33330
L4440 33379
L4416 33403
L4367 33428
L4196 33428
" />
</g>
<g style="fill:#000000; fill-opacity:0.0; 
stroke:#000000; stroke-width:39.3701; stroke-opacity:1; 
stroke-linecap:round; stroke-linejoin:round;">
</g>
<g style="fill:#000000; fill-opacity:0.0; 
stroke:#000000; stroke-width:59.0551; stroke-opacity:1; 
stroke-linecap:round; stroke-linejoin:round;">
<path d="M4489 53332
L4464 53356
L4391 53381
L4342 53381
L4269 53356
L4221 53308
L4196 53259
L4172 53161
L4172 53088
L4196 52991
L4221 52942
L4269 52893
L4342 52869
L4391 52869
L4464 52893
L4489 52918
" />
</g>
<g style="fill:#000000; fill-opacity:0.0; 
stroke:#000000; stroke-width:39.3701; stroke-opacity:1; 
stroke-linecap:round; stroke-linejoin:round;">
</g>
<g style="fill:#000000; fill-opacity:0.0; 
stroke:#000000; stroke-width:59.0551; stroke-opacity:1; 
stroke-linecap:round; stroke-linejoin:round;">
<path d="M4196 73066
L4196 72554
L4318 72554
L4391 72578
L4440 72627
L4464 72676
L4489 72773
L4489 72846
L4464 72944
L4440 72993
L4391 73041
L4318 73066
L4196 73066
" />
</g>
<g style="fill:#000000; fill-opacity:0.0; 
stroke:#000000; stroke-width:39.3701; stroke-opacity:1; 
stroke-linecap:round; stroke-linejoin:round;">
</g>
<g style="fill:#000000; fill-opacity:0.0; 
stroke:#000000; stroke-width:59.0551; stroke-opacity:1; 
stroke-linecap:round; stroke-linejoin:round;">
<path d="M112992 23622
L112205 23622
" />
</g>
<g style="fill:#000000; fill-opacity:0.0; 
stroke:#000000; stroke-width:39.3701; stroke-opacity:1; 
stroke-linecap:round; stroke-linejoin:round;">
</g>
<g style="fill:#000000; fill-opacity:0.0; 
stroke:#000000; stroke-width:59.0551; stroke-opacity:1; 
stroke-linecap:round; stroke-linejoin:round;">
<path d="M112992 43307
L112205 43307
" />
</g>
<g style="fill:#000000; fill-opacity:0.0; 
stroke:#000000; stroke-width:39.3701; stroke-opacity:1; 
stroke-linecap:round; stroke-linejoin:round;">
</g>
<g style="fill:#000000; fill-opacity:0.0; 
stroke:#000000; stroke-width:59.0551; stroke-opacity:1; 
stroke-linecap:round; stroke-linejoin:round;">
<path d="M112992 62992
L112205 62992
" />
</g>
<g style="fill:#000000; fill-opacity:0.0; 
stroke:#000000; stroke-width:39.3701; stroke-opacity:1; 
stroke-linecap:round; stroke-linejoin:round;">
</g>
<g style="fill:#000000; fill-opacity:0.0; 
stroke:#000000; stroke-width:59.0551; stroke-opacity:1; 
stroke-linecap:round; stroke-linejoin:round;">
<path d="M112477 13864
L112721 13864
" />
<path d="M112428 14011
L112599 13499
L112769 14011
" />
</g>
<g style="fill:#000000; fill-opacity:0.0; 
stroke:#000000; stroke-width:39.3701; stroke-opacity:1; 
stroke-linecap:round; stroke-linejoin:round;">
</g>
<g style="fill:#000000; fill-opacity:0.0; 
stroke:#000000; stroke-width:59.0551; stroke-opacity:1; 
stroke-linecap:round; stroke-linejoin:round;">
<path d="M112635 33428
L112708 33452
L112733 33476
L112757 33525
L112757 33598
L112733 33647
L112708 33671
L112660 33696
L112465 33696
L112465 33184
L112635 33184
L112684 33208
L112708 33233
L112733 33281
L112733 33330
L112708 33379
L112684 33403
L112635 33428
L112465 33428
" />
</g>
<g style="fill:#000000; fill-opacity:0.0; 
stroke:#000000; stroke-width:39.3701; stroke-opacity:1; 
stroke-linecap:round; stroke-linejoin:round;">
</g>
<g style="fill:#000000; fill-opacity:0.0; 
stroke:#000000; stroke-width:59.0551; stroke-opacity:1; 
stroke-linecap:round; stroke-linejoin:round;">
<path d="M112757 53332
L112733 53356
L112660 53381
L112611 53381
L112538 53356
L112489 53308
L112465 53259
L112440 53161
L112440 53088
L112465 52991
L112489 52942
L112538 52893
L112611 52869
L112660 52869
L112733 52893
L112757 52918
" />
</g>
<g style="fill:#000000; fill-opacity:0.0; 
stroke:#000000; stroke-width:39.3701; stroke-opacity:1; 
stroke-linecap:round; stroke-linejoin:round;">
</g>
<g style="fill:#000000; fill-opacity:0.0; 
stroke:#000000; stroke-width:59.0551; stroke-opacity:1; 
stroke-linecap:round; stroke-linejoin:round;">
<path d="M112465 73066
L112465 72554
L112587 72554
L112660 72578
L112708 72627
L112733 72676
L112757 72773
L112757 72846
L112733 72944
L112708 72993
L112660 73041
L112587 73066
L112465 73066
" />
</g>
<g style="fill:#000000; fill-opacity:0.0; 
stroke:#000000; stroke-width:39.3701; stroke-opacity:1; 
stroke-linecap:round; stroke-linejoin:round;">
</g>
<g style="fill:#000000; fill-opacity:0.0; 
stroke:#000000; stroke-width:59.0551; stroke-opacity:1; 
stroke-linecap:round; stroke-linejoin:round;">
<path d="M78881 76293
L78881 75703
L79022 75703
L79106 75731
L79162 75787
L79190 75843
L79219 75956
L79219 76040
L79190 76153
L79162 76209
L79106 76265
L79022 76293
L78881 76293
" />
<path d="M79725 76293
L79725 75984
L79697 75928
L79640 75899
L79528 75899
L79472 75928
" />
<path d="M79725 76265
L79669 76293
L79528 76293
L79472 76265
L79444 76209
L79444 76153
L79472 76096
L79528 76068
L79669 76068
L79725 76040
" />
<path d="M79922 75899
L80147 75899
" />
<path d="M80006 75703
L80006 76209
L80034 76265
L80090 76293
L80147 76293
" />
<path d="M80568 76265
L80512 76293
L80400 76293
L80343 76265
L80315 76209
L80315 75984
L80343 75928
L80400 75899
L80512 75899
L80568 75928
L80597 75984
L80597 76040
L80315 76096
" />
<path d="M80850 76237
L80878 76265
L80850 76293
L80822 76265
L80850 76237
L80850 76293
" />
<path d="M80850 75928
L80878 75956
L80850 75984
L80822 75956
L80850 75928
L80850 75984
" />
<path d="M81890 76293
L81553 76293
" />
<path d="M81721 76293
L81721 75703
L81665 75787
L81609 75843
L81553 75871
" />
<path d="M82171 76293
L82284 76293
L82340 76265
L82368 76237
L82424 76153
L82453 76040
L82453 75815
L82424 75759
L82396 75731
L82340 75703
L82228 75703
L82171 75731
L82143 75759
L82115 75815
L82115 75956
L82143 76012
L82171 76040
L82228 76068
L82340 76068
L82396 76040
L82424 76012
L82453 75956
" />
<path d="M83156 75899
L83156 76406
L83127 76462
L83071 76490
L83043 76490
" />
<path d="M83156 75703
L83127 75731
L83156 75759
L83184 75731
L83156 75703
L83156 75759
" />
<path d="M83690 75899
L83690 76293
" />
<path d="M83437 75899
L83437 76209
L83465 76265
L83521 76293
L83606 76293
L83662 76265
L83690 76237
" />
<path d="M83971 75899
L83971 76293
" />
<path d="M83971 75956
L83999 75928
L84055 75899
L84140 75899
L84196 75928
L84224 75984
L84224 76293
" />
<path d="M84927 75759
L84955 75731
L85012 75703
L85152 75703
L85208 75731
L85237 75759
L85265 75815
L85265 75871
L85237 75956
L84899 76293
L85265 76293
" />
<path d="M85630 75703
L85687 75703
L85743 75731
L85771 75759
L85799 75815
L85827 75928
L85827 76068
L85799 76181
L85771 76237
L85743 76265
L85687 76293
L85630 76293
L85574 76265
L85546 76237
L85518 76181
L85490 76068
L85490 75928
L85518 75815
L85546 75759
L85574 75731
L85630 75703
" />
<path d="M86390 76293
L86052 76293
" />
<path d="M86221 76293
L86221 75703
L86165 75787
L86108 75843
L86052 75871
" />
<path d="M86952 76293
L86615 76293
" />
<path d="M86783 76293
L86783 75703
L86727 75787
L86671 75843
L86615 75871
" />
</g>
<g style="fill:#000000; fill-opacity:0.0; 
stroke:#000000; stroke-width:39.3701; stroke-opacity:1; 
stroke-linecap:round; stroke-linejoin:round;">
</g>
<g style="fill:#000000; fill-opacity:0.0; 
stroke:#000000; stroke-width:59.0551; stroke-opacity:1; 
stroke-linecap:round; stroke-linejoin:round;">
<path d="M69685 76577
L112205 76577
" />
</g>
<g style="fill:#000000; fill-opacity:0.0; 
stroke:#000000; stroke-width:39.3701; stroke-opacity:1; 
stroke-linecap:round; stroke-linejoin:round;">
</g>
<g style="fill:#000000; fill-opacity:0.0; 
stroke:#000000; stroke-width:59.0551; stroke-opacity:1; 
stroke-linecap:round; stroke-linejoin:round;">
<path d="M70220 77395
L70220 76805
" />
<path d="M70557 77395
L70304 77058
" />
<path d="M70557 76805
L70220 77142
" />
<path d="M70810 77395
L70810 77002
" />
<path d="M70810 76805
L70782 76833
L70810 76861
L70838 76833
L70810 76805
L70810 76861
" />
<path d="M71429 77339
L71401 77367
L71316 77395
L71260 77395
L71176 77367
L71120 77311
L71091 77255
L71063 77142
L71063 77058
L71091 76946
L71120 76889
L71176 76833
L71260 76805
L71316 76805
L71401 76833
L71429 76861
" />
<path d="M71935 77395
L71935 77086
L71907 77030
L71851 77002
L71738 77002
L71682 77030
" />
<path d="M71935 77367
L71879 77395
L71738 77395
L71682 77367
L71654 77311
L71654 77255
L71682 77199
L71738 77171
L71879 77171
L71935 77142
" />
<path d="M72469 77395
L72469 76805
" />
<path d="M72469 77367
L72413 77395
L72301 77395
L72244 77367
L72216 77339
L72188 77283
L72188 77114
L72216 77058
L72244 77030
L72301 77002
L72413 77002
L72469 77030
" />
<path d="M73201 77086
L73397 77086
" />
<path d="M73482 77395
L73201 77395
L73201 76805
L73482 76805
" />
<path d="M73735 77339
L73763 77367
L73735 77395
L73707 77367
L73735 77339
L73735 77395
" />
<path d="M74016 77395
L74016 76805
L74157 76805
L74241 76833
L74297 76889
L74325 76946
L74354 77058
L74354 77142
L74325 77255
L74297 77311
L74241 77367
L74157 77395
L74016 77395
" />
<path d="M74607 77339
L74635 77367
L74607 77395
L74579 77367
L74607 77339
L74607 77395
" />
<path d="M74860 77227
L75141 77227
" />
<path d="M74804 77395
L75000 76805
L75197 77395
" />
<path d="M75394 77339
L75422 77367
L75394 77395
L75366 77367
L75394 77339
L75394 77395
" />
<path d="M76575 77002
L76575 77592
" />
<path d="M76575 77030
L76631 77002
L76744 77002
L76800 77030
L76828 77058
L76856 77114
L76856 77283
L76828 77339
L76800 77367
L76744 77395
L76631 77395
L76575 77367
" />
<path d="M77363 77367
L77306 77395
L77194 77395
L77138 77367
L77109 77339
L77081 77283
L77081 77114
L77109 77058
L77138 77030
L77194 77002
L77306 77002
L77363 77030
" />
<path d="M77616 77395
L77616 76805
" />
<path d="M77616 77030
L77672 77002
L77784 77002
L77841 77030
L77869 77058
L77897 77114
L77897 77283
L77869 77339
L77841 77367
L77784 77395
L77672 77395
L77616 77367
" />
<path d="M78150 77002
L78150 77395
" />
<path d="M78150 77058
L78178 77030
L78234 77002
L78319 77002
L78375 77030
L78403 77086
L78403 77395
" />
<path d="M78909 77367
L78853 77395
L78741 77395
L78684 77367
L78656 77311
L78656 77086
L78684 77030
L78741 77002
L78853 77002
L78909 77030
L78937 77086
L78937 77142
L78656 77199
" />
<path d="M79134 77002
L79247 77395
L79359 77114
L79472 77395
L79584 77002
" />
<path d="M80512 77002
L80512 77395
" />
<path d="M80372 76777
L80231 77199
L80597 77199
" />
<path d="M80822 77339
L80850 77367
L80822 77395
L80793 77367
L80822 77339
L80822 77395
" />
<path d="M81215 76805
L81271 76805
L81328 76833
L81356 76861
L81384 76917
L81412 77030
L81412 77171
L81384 77283
L81356 77339
L81328 77367
L81271 77395
L81215 77395
L81159 77367
L81131 77339
L81103 77283
L81075 77171
L81075 77030
L81103 76917
L81131 76861
L81159 76833
L81215 76805
" />
<path d="M81665 77339
L81693 77367
L81665 77395
L81637 77367
L81665 77339
L81665 77395
" />
<path d="M82228 76805
L81946 76805
L81918 77086
L81946 77058
L82003 77030
L82143 77030
L82199 77058
L82228 77086
L82256 77142
L82256 77283
L82228 77339
L82199 77367
L82143 77395
L82003 77395
L81946 77367
L81918 77339
" />
<path d="M82509 77171
L82959 77171
" />
<path d="M82734 77395
L82734 76946
" />
<path d="M83493 77395
L83493 76805
" />
<path d="M83493 77367
L83437 77395
L83324 77395
L83268 77367
L83240 77339
L83212 77283
L83212 77114
L83240 77058
L83268 77030
L83324 77002
L83437 77002
L83493 77030
" />
<path d="M83690 77002
L83915 77002
" />
<path d="M83774 77395
L83774 76889
L83802 76833
L83859 76805
L83915 76805
" />
<path d="M84084 77367
L84140 77395
L84252 77395
L84309 77367
L84337 77311
L84337 77283
L84309 77227
L84252 77199
L84168 77199
L84112 77171
L84084 77114
L84084 77086
L84112 77030
L84168 77002
L84252 77002
L84309 77030
" />
<path d="M84843 77002
L84843 77480
L84815 77536
L84787 77564
L84730 77592
L84646 77592
L84590 77564
" />
<path d="M84843 77367
L84787 77395
L84674 77395
L84618 77367
L84590 77339
L84562 77283
L84562 77114
L84590 77058
L84618 77030
L84674 77002
L84787 77002
L84843 77030
" />
<path d="M85433 77395
L85096 77395
" />
<path d="M85265 77395
L85265 76805
L85208 76889
L85152 76946
L85096 76974
" />
<path d="M85687 77171
L86136 77171
" />
<path d="M86671 77002
L86671 77395
" />
<path d="M86530 76777
L86390 77199
L86755 77199
" />
<path d="M86980 77171
L87430 77171
" />
<path d="M87205 77395
L87205 76946
" />
<path d="M87964 77395
L87964 76805
" />
<path d="M87964 77367
L87908 77395
L87796 77395
L87739 77367
L87711 77339
L87683 77283
L87683 77114
L87711 77058
L87739 77030
L87796 77002
L87908 77002
L87964 77030
" />
<path d="M88471 77367
L88414 77395
L88302 77395
L88246 77367
L88217 77311
L88217 77086
L88246 77030
L88302 77002
L88414 77002
L88471 77030
L88499 77086
L88499 77142
L88217 77199
" />
<path d="M88752 77395
L88752 76805
" />
<path d="M88752 77030
L88808 77002
L88921 77002
L88977 77030
L89005 77058
L89033 77114
L89033 77283
L89005 77339
L88977 77367
L88921 77395
L88808 77395
L88752 77367
" />
<path d="M89314 77395
L89427 77395
L89483 77367
L89511 77339
L89567 77255
L89595 77142
L89595 76917
L89567 76861
L89539 76833
L89483 76805
L89370 76805
L89314 76833
L89286 76861
L89258 76917
L89258 77058
L89286 77114
L89314 77142
L89370 77171
L89483 77171
L89539 77142
L89567 77114
L89595 77058
" />
<path d="M90102 77002
L90102 77395
" />
<path d="M89849 77002
L89849 77311
L89877 77367
L89933 77395
L90017 77395
L90073 77367
L90102 77339
" />
<path d="M90692 77395
L90355 77395
" />
<path d="M90523 77395
L90523 76805
L90467 76889
L90411 76946
L90355 76974
" />
</g>
<g style="fill:#000000; fill-opacity:0.0; 
stroke:#000000; stroke-width:39.3701; stroke-opacity:1; 
stroke-linecap:round; stroke-linejoin:round;">
</g>
<g style="fill:#000000; fill-opacity:0.0; 
stroke:#000000; stroke-width:59.0551; stroke-opacity:1; 
stroke-linecap:round; stroke-linejoin:round;">
<path d="M69685 75396
L112205 75396
" />
</g>
<g style="fill:#000000; fill-opacity:0.0; 
stroke:#000000; stroke-width:39.3701; stroke-opacity:1; 
stroke-linecap:round; stroke-linejoin:round;">
</g>
<g style="fill:#000000; fill-opacity:0.0; 
stroke:#000000; stroke-width:118.11; stroke-opacity:1; 
stroke-linecap:round; stroke-linejoin:round;">
<path d="M104022 76293
L103825 76012
" />
<path d="M103684 76293
L103684 75703
L103909 75703
L103965 75731
L103994 75759
L104022 75815
L104022 75899
L103994 75956
L103965 75984
L103909 76012
L103684 76012
" />
<path d="M104500 76265
L104444 76293
L104331 76293
L104275 76265
L104247 76209
L104247 75984
L104275 75928
L104331 75899
L104444 75899
L104500 75928
L104528 75984
L104528 76040
L104247 76096
" />
<path d="M104725 75899
L104865 76293
L105006 75899
" />
<path d="M105231 76237
L105259 76265
L105231 76293
L105203 76265
L105231 76237
L105231 76293
" />
<path d="M105231 75928
L105259 75956
L105231 75984
L105203 75956
L105231 75928
L105231 75984
" />
<path d="M106271 76293
L105934 76293
" />
<path d="M106103 76293
L106103 75703
L106046 75787
L105990 75843
L105934 75871
" />
<path d="M106525 76237
L106553 76265
L106525 76293
L106496 76265
L106525 76237
L106525 76293
" />
<path d="M106918 75703
L106974 75703
L107031 75731
L107059 75759
L107087 75815
L107115 75928
L107115 76068
L107087 76181
L107059 76237
L107031 76265
L106974 76293
L106918 76293
L106862 76265
L106834 76237
L106806 76181
L106778 76068
L106778 75928
L106806 75815
L106834 75759
L106862 75731
L106918 75703
" />
</g>
<g style="fill:#000000; fill-opacity:0.0; 
stroke:#000000; stroke-width:39.3701; stroke-opacity:1; 
stroke-linecap:round; stroke-linejoin:round;">
</g>
<g style="fill:#000000; fill-opacity:0.0; 
stroke:#000000; stroke-width:59.0551; stroke-opacity:1; 
stroke-linecap:round; stroke-linejoin:round;">
<path d="M70192 76265
L70276 76293
L70417 76293
L70473 76265
L70501 76237
L70529 76181
L70529 76124
L70501 76068
L70473 76040
L70417 76012
L70304 75984
L70248 75956
L70220 75928
L70192 75871
L70192 75815
L70220 75759
L70248 75731
L70304 75703
L70445 75703
L70529 75731
" />
<path d="M70782 76293
L70782 75899
" />
<path d="M70782 75703
L70754 75731
L70782 75759
L70810 75731
L70782 75703
L70782 75759
" />
<path d="M71007 75899
L71316 75899
L71007 76293
L71316 76293
" />
<path d="M71766 76265
L71710 76293
L71598 76293
L71541 76265
L71513 76209
L71513 75984
L71541 75928
L71598 75899
L71710 75899
L71766 75928
L71795 75984
L71795 76040
L71513 76096
" />
<path d="M72048 76237
L72076 76265
L72048 76293
L72019 76265
L72048 76237
L72048 76293
" />
<path d="M72048 75928
L72076 75956
L72048 75984
L72019 75956
L72048 75928
L72048 75984
" />
<path d="M72751 76124
L73032 76124
" />
<path d="M72694 76293
L72891 75703
L73088 76293
" />
<path d="M73538 75899
L73538 76293
" />
<path d="M73397 75674
L73257 76096
L73622 76096
" />
</g>
<g style="fill:#000000; fill-opacity:0.0; 
stroke:#000000; stroke-width:39.3701; stroke-opacity:1; 
stroke-linecap:round; stroke-linejoin:round;">
</g>
<g style="fill:#000000; fill-opacity:0.0; 
stroke:#000000; stroke-width:59.0551; stroke-opacity:1; 
stroke-linecap:round; stroke-linejoin:round;">
<path d="M103684 77395
L103684 76805
" />
<path d="M104219 77395
L104219 76805
" />
<path d="M104219 77367
L104162 77395
L104050 77395
L103994 77367
L103965 77339
L103937 77283
L103937 77114
L103965 77058
L103994 77030
L104050 77002
L104162 77002
L104219 77030
" />
<path d="M104500 77339
L104528 77367
L104500 77395
L104472 77367
L104500 77339
L104500 77395
" />
<path d="M104500 77030
L104528 77058
L104500 77086
L104472 77058
L104500 77030
L104500 77086
" />
<path d="M105540 77395
L105203 77395
" />
<path d="M105372 77395
L105372 76805
L105315 76889
L105259 76946
L105203 76974
" />
<path d="M106215 76777
L105709 77536
" />
<path d="M106721 77395
L106384 77395
" />
<path d="M106553 77395
L106553 76805
L106496 76889
L106440 76946
L106384 76974
" />
</g>
<g style="fill:#000000; fill-opacity:0.0; 
stroke:#000000; stroke-width:39.3701; stroke-opacity:1; 
stroke-linecap:round; stroke-linejoin:round;">
</g>
<g style="fill:#000000; fill-opacity:0.0; 
stroke:#000000; stroke-width:59.0551; stroke-opacity:1; 
stroke-linecap:round; stroke-linejoin:round;">
<path d="M69685 73821
L112205 73821
" />
</g>
<g style="fill:#000000; fill-opacity:0.0; 
stroke:#000000; stroke-width:39.3701; stroke-opacity:1; 
stroke-linecap:round; stroke-linejoin:round;">
</g>
<g style="fill:#000000; fill-opacity:0.0; 
stroke:#000000; stroke-width:157.48; stroke-opacity:1; 
stroke-linecap:round; stroke-linejoin:round;">
<path d="M70257 74099
L70707 74099
" />
<path d="M70384 74886
L70482 74099
" />
<path d="M70871 74886
L70937 74361
" />
<path d="M70970 74099
L70927 74136
L70960 74174
L71002 74136
L70970 74099
L70960 74174
" />
<path d="M71199 74361
L71499 74361
" />
<path d="M71345 74099
L71260 74774
L71288 74849
L71359 74886
L71434 74886
" />
<path d="M71809 74886
L71738 74849
L71710 74774
L71795 74099
" />
<path d="M72413 74849
L72334 74886
L72184 74886
L72113 74849
L72085 74774
L72123 74474
L72169 74399
L72249 74361
L72399 74361
L72469 74399
L72498 74474
L72488 74549
L72104 74624
" />
<path d="M72793 74811
L72826 74849
L72783 74886
L72751 74849
L72793 74811
L72783 74886
" />
<path d="M72844 74399
L72877 74436
L72835 74474
L72802 74436
L72844 74399
L72835 74474
" />
<path d="M74218 74811
L74175 74849
L74058 74886
L73983 74886
L73876 74849
L73810 74774
L73782 74699
L73763 74549
L73777 74436
L73833 74286
L73880 74211
L73965 74136
L74082 74099
L74157 74099
L74265 74136
L74297 74174
" />
<path d="M74532 74099
L74982 74099
" />
<path d="M74658 74886
L74757 74099
" />
<path d="M75132 74099
L75582 74099
" />
<path d="M75258 74886
L75357 74099
" />
<path d="M76331 74099
L76781 74099
" />
<path d="M76458 74886
L76556 74099
" />
<path d="M76945 74886
L77011 74361
" />
<path d="M76992 74511
L77039 74436
L77081 74399
L77161 74361
L77236 74361
" />
<path d="M77770 74886
L77822 74474
L77794 74399
L77723 74361
L77573 74361
L77494 74399
" />
<path d="M77775 74849
L77695 74886
L77508 74886
L77438 74849
L77409 74774
L77419 74699
L77466 74624
L77545 74586
L77733 74586
L77813 74549
" />
<path d="M78211 74361
L78145 74886
" />
<path d="M78202 74436
L78244 74399
L78323 74361
L78436 74361
L78506 74399
L78534 74474
L78483 74886
" />
<path d="M78825 74849
L78895 74886
L79045 74886
L79125 74849
L79172 74774
L79176 74736
L79148 74661
L79078 74624
L78965 74624
L78895 74586
L78867 74511
L78872 74474
L78919 74399
L78998 74361
L79111 74361
L79181 74399
" />
<path d="M79495 74886
L79561 74361
" />
<path d="M79594 74099
L79551 74136
L79584 74174
L79626 74136
L79594 74099
L79584 74174
" />
<path d="M79837 74849
L79908 74886
L80058 74886
L80137 74849
L80184 74774
L80189 74736
L80161 74661
L80090 74624
L79978 74624
L79908 74586
L79879 74511
L79884 74474
L79931 74399
L80011 74361
L80123 74361
L80193 74399
" />
<path d="M80461 74361
L80761 74361
" />
<path d="M80606 74099
L80522 74774
L80550 74849
L80620 74886
L80695 74886
" />
<path d="M81070 74886
L81000 74849
L80967 74811
L80939 74736
L80967 74511
L81014 74436
L81056 74399
L81136 74361
L81248 74361
L81318 74399
L81351 74436
L81379 74511
L81351 74736
L81304 74811
L81262 74849
L81182 74886
L81070 74886
" />
<path d="M81670 74886
L81735 74361
" />
<path d="M81717 74511
L81764 74436
L81806 74399
L81885 74361
L81960 74361
" />
<path d="M82710 74361
L83010 74361
" />
<path d="M82856 74099
L82771 74774
L82799 74849
L82870 74886
L82945 74886
" />
<path d="M83512 74849
L83432 74886
L83282 74886
L83212 74849
L83184 74774
L83221 74474
L83268 74399
L83348 74361
L83498 74361
L83568 74399
L83596 74474
L83587 74549
L83202 74624
" />
<path d="M83849 74849
L83920 74886
L84070 74886
L84149 74849
L84196 74774
L84201 74736
L84173 74661
L84102 74624
L83990 74624
L83920 74586
L83891 74511
L83896 74474
L83943 74399
L84023 74361
L84135 74361
L84205 74399
" />
<path d="M84473 74361
L84773 74361
" />
<path d="M84618 74099
L84534 74774
L84562 74849
L84632 74886
L84707 74886
" />
<path d="M85274 74849
L85194 74886
L85044 74886
L84974 74849
L84946 74774
L84983 74474
L85030 74399
L85110 74361
L85260 74361
L85330 74399
L85358 74474
L85349 74549
L84965 74624
" />
<path d="M85644 74886
L85710 74361
" />
<path d="M85691 74511
L85738 74436
L85780 74399
L85860 74361
L85935 74361
" />
<path d="M86769 74586
L87369 74586
" />
<path d="M88766 74811
L88724 74849
L88606 74886
L88531 74886
L88424 74849
L88358 74774
L88330 74699
L88311 74549
L88325 74436
L88382 74286
L88428 74211
L88513 74136
L88630 74099
L88705 74099
L88813 74136
L88846 74174
" />
<path d="M89080 74099
L89530 74099
" />
<path d="M89206 74886
L89305 74099
" />
<path d="M89680 74099
L90130 74099
" />
<path d="M89806 74886
L89905 74099
" />
<path d="M90959 74061
L90158 75074
" />
<path d="M91119 74886
L91217 74099
L91517 74099
L91587 74136
L91620 74174
L91648 74249
L91634 74361
L91587 74436
L91545 74474
L91465 74511
L91166 74511
" />
<path d="M91873 74849
L91981 74886
L92169 74886
L92248 74849
L92290 74811
L92337 74736
L92347 74661
L92319 74586
L92286 74549
L92215 74511
L92070 74474
L92000 74436
L91967 74399
L91939 74324
L91948 74249
L91995 74174
L92037 74136
L92117 74099
L92304 74099
L92412 74136
" />
<path d="M93068 74886
L92618 74886
" />
<path d="M92843 74886
L92942 74099
L92853 74211
L92768 74286
L92689 74324
" />
<path d="M94006 74886
L94104 74099
L94404 74099
L94474 74136
L94507 74174
L94535 74249
L94521 74361
L94474 74436
L94432 74474
L94353 74511
L94053 74511
" />
<path d="M94906 74886
L94835 74849
L94803 74811
L94774 74736
L94803 74511
L94849 74436
L94892 74399
L94971 74361
L95084 74361
L95154 74399
L95187 74436
L95215 74511
L95187 74736
L95140 74811
L95098 74849
L95018 74886
L94906 74886
" />
<path d="M95496 74361
L95581 74886
L95777 74511
L95881 74886
L96096 74361
" />
<path d="M96635 74849
L96555 74886
L96406 74886
L96335 74849
L96307 74774
L96345 74474
L96391 74399
L96471 74361
L96621 74361
L96691 74399
L96720 74474
L96710 74549
L96326 74624
" />
<path d="M97005 74886
L97071 74361
" />
<path d="M97052 74511
L97099 74436
L97141 74399
L97221 74361
L97296 74361
" />
<path d="M98060 74849
L98130 74886
L98280 74886
L98360 74849
L98407 74774
L98412 74736
L98383 74661
L98313 74624
L98201 74624
L98130 74586
L98102 74511
L98107 74474
L98154 74399
L98233 74361
L98346 74361
L98416 74399
" />
<path d="M99133 74361
L99068 74886
" />
<path d="M98796 74361
L98744 74774
L98772 74849
L98843 74886
L98955 74886
L99035 74849
L99077 74811
" />
<path d="M99508 74361
L99410 75149
" />
<path d="M99504 74399
L99583 74361
L99733 74361
L99804 74399
L99836 74436
L99864 74511
L99836 74736
L99789 74811
L99747 74849
L99668 74886
L99518 74886
L99447 74849
" />
<path d="M100221 74361
L100122 75149
" />
<path d="M100216 74399
L100296 74361
L100446 74361
L100516 74399
L100549 74436
L100577 74511
L100549 74736
L100502 74811
L100460 74849
L100380 74886
L100230 74886
L100160 74849
" />
<path d="M100980 74886
L100910 74849
L100882 74774
L100966 74099
" />
<path d="M101271 74361
L101392 74886
" />
<path d="M101645 74361
L101392 74886
L101294 75074
L101252 75111
L101172 75149
" />
<path d="M102883 74361
L102817 74886
" />
<path d="M102545 74361
L102494 74774
L102522 74849
L102592 74886
L102705 74886
L102784 74849
L102827 74811
" />
<path d="M103258 74361
L103192 74886
" />
<path d="M103248 74436
L103291 74399
L103370 74361
L103483 74361
L103553 74399
L103581 74474
L103530 74886
" />
<path d="M103905 74886
L103970 74361
" />
<path d="M104003 74099
L103961 74136
L103994 74174
L104036 74136
L104003 74099
L103994 74174
" />
<path d="M104233 74361
L104533 74361
" />
<path d="M104378 74099
L104294 74774
L104322 74849
L104392 74886
L104467 74886
" />
</g>
<g style="fill:#000000; fill-opacity:0.0; 
stroke:#000000; stroke-width:39.3701; stroke-opacity:1; 
stroke-linecap:round; stroke-linejoin:round;">
</g>
<g style="fill:#000000; fill-opacity:0.0; 
stroke:#000000; stroke-width:59.0551; stroke-opacity:1; 
stroke-linecap:round; stroke-linejoin:round;">
<path d="M70417 73070
L70220 73070
" />
<path d="M70220 73380
L70220 72789
L70501 72789
" />
<path d="M70726 73380
L70726 72986
" />
<path d="M70726 72789
L70698 72817
L70726 72845
L70754 72817
L70726 72789
L70726 72845
" />
<path d="M71091 73380
L71035 73352
L71007 73295
L71007 72789
" />
<path d="M71541 73352
L71485 73380
L71373 73380
L71316 73352
L71288 73295
L71288 73070
L71316 73014
L71373 72986
L71485 72986
L71541 73014
L71570 73070
L71570 73127
L71288 73183
" />
<path d="M71823 73323
L71851 73352
L71823 73380
L71795 73352
L71823 73323
L71823 73380
" />
<path d="M71823 73014
L71851 73042
L71823 73070
L71795 73042
L71823 73014
L71823 73070
" />
<path d="M72807 73352
L72751 73380
L72638 73380
L72582 73352
L72554 73323
L72526 73267
L72526 73099
L72554 73042
L72582 73014
L72638 72986
L72751 72986
L72807 73014
" />
<path d="M72976 72986
L73201 72986
" />
<path d="M73060 72789
L73060 73295
L73088 73352
L73144 73380
L73201 73380
" />
<path d="M73313 72986
L73538 72986
" />
<path d="M73397 72789
L73397 73295
L73426 73352
L73482 73380
L73538 73380
" />
<path d="M73594 73436
L74044 73436
" />
<path d="M74185 72986
L74185 73577
" />
<path d="M74185 73014
L74241 72986
L74354 72986
L74410 73014
L74438 73042
L74466 73099
L74466 73267
L74438 73323
L74410 73352
L74354 73380
L74241 73380
L74185 73352
" />
<path d="M74691 73352
L74747 73380
L74860 73380
L74916 73352
L74944 73295
L74944 73267
L74916 73211
L74860 73183
L74775 73183
L74719 73155
L74691 73099
L74691 73070
L74719 73014
L74775 72986
L74860 72986
L74916 73014
" />
<path d="M75507 73380
L75169 73380
" />
<path d="M75338 73380
L75338 72789
L75282 72874
L75225 72930
L75169 72958
" />
<path d="M75760 73323
L75788 73352
L75760 73380
L75732 73352
L75760 73323
L75760 73380
" />
<path d="M76041 73380
L76041 72789
" />
<path d="M76097 73155
L76266 73380
" />
<path d="M76266 72986
L76041 73211
" />
<path d="M76519 73380
L76519 72986
" />
<path d="M76519 72789
L76491 72817
L76519 72845
L76547 72817
L76519 72789
L76519 72845
" />
<path d="M77053 73352
L76997 73380
L76885 73380
L76828 73352
L76800 73323
L76772 73267
L76772 73099
L76800 73042
L76828 73014
L76885 72986
L76997 72986
L77053 73014
" />
<path d="M77559 73380
L77559 73070
L77531 73014
L77475 72986
L77363 72986
L77306 73014
" />
<path d="M77559 73352
L77503 73380
L77363 73380
L77306 73352
L77278 73295
L77278 73239
L77306 73183
L77363 73155
L77503 73155
L77559 73127
" />
<path d="M78094 73380
L78094 72789
" />
<path d="M78094 73352
L78037 73380
L77925 73380
L77869 73352
L77841 73323
L77813 73267
L77813 73099
L77841 73042
L77869 73014
L77925 72986
L78037 72986
L78094 73014
" />
<path d="M78234 73436
L78684 73436
" />
<path d="M78825 72986
L78825 73577
" />
<path d="M78825 73014
L78881 72986
L78994 72986
L79050 73014
L79078 73042
L79106 73099
L79106 73267
L79078 73323
L79050 73352
L78994 73380
L78881 73380
L78825 73352
" />
<path d="M79612 73352
L79556 73380
L79444 73380
L79387 73352
L79359 73323
L79331 73267
L79331 73099
L79359 73042
L79387 73014
L79444 72986
L79556 72986
L79612 73014
" />
<path d="M79865 73380
L79865 72789
" />
<path d="M79865 73014
L79922 72986
L80034 72986
L80090 73014
L80118 73042
L80147 73099
L80147 73267
L80118 73323
L80090 73352
L80034 73380
L79922 73380
L79865 73352
" />
</g>
<g style="fill:#000000; fill-opacity:0.0; 
stroke:#000000; stroke-width:39.3701; stroke-opacity:1; 
stroke-linecap:round; stroke-linejoin:round;">
</g>
<g style="fill:#000000; fill-opacity:0.0; 
stroke:#000000; stroke-width:59.0551; stroke-opacity:1; 
stroke-linecap:round; stroke-linejoin:round;">
<path d="M69685 71459
L112205 71459
" />
</g>
<g style="fill:#000000; fill-opacity:0.0; 
stroke:#000000; stroke-width:39.3701; stroke-opacity:1; 
stroke-linecap:round; stroke-linejoin:round;">
</g>
<g style="fill:#000000; fill-opacity:0.0; 
stroke:#000000; stroke-width:59.0551; stroke-opacity:1; 
stroke-linecap:round; stroke-linejoin:round;">
<path d="M70192 72289
L70276 72317
L70417 72317
L70473 72289
L70501 72260
L70529 72204
L70529 72148
L70501 72092
L70473 72064
L70417 72036
L70304 72007
L70248 71979
L70220 71951
L70192 71895
L70192 71839
L70220 71782
L70248 71754
L70304 71726
L70445 71726
L70529 71754
" />
<path d="M70782 72317
L70782 71726
" />
<path d="M71035 72317
L71035 72007
L71007 71951
L70951 71923
L70867 71923
L70810 71951
L70782 71979
" />
<path d="M71541 72289
L71485 72317
L71373 72317
L71316 72289
L71288 72232
L71288 72007
L71316 71951
L71373 71923
L71485 71923
L71541 71951
L71570 72007
L71570 72064
L71288 72120
" />
<path d="M72048 72289
L71991 72317
L71879 72317
L71823 72289
L71795 72232
L71795 72007
L71823 71951
L71879 71923
L71991 71923
L72048 71951
L72076 72007
L72076 72064
L71795 72120
" />
<path d="M72244 71923
L72469 71923
" />
<path d="M72329 71726
L72329 72232
L72357 72289
L72413 72317
L72469 72317
" />
<path d="M72666 72260
L72694 72289
L72666 72317
L72638 72289
L72666 72260
L72666 72317
" />
<path d="M72666 71951
L72694 71979
L72666 72007
L72638 71979
L72666 71951
L72666 72007
" />
</g>
<g style="fill:#000000; fill-opacity:0.0; 
stroke:#000000; stroke-width:39.3701; stroke-opacity:1; 
stroke-linecap:round; stroke-linejoin:round;">
</g>
<g style="fill:#000000; fill-opacity:0.0; 
stroke:#000000; stroke-width:118.11; stroke-opacity:1; 
stroke-linecap:round; stroke-linejoin:round;">
<path d="M70220 71136
L70220 70545
L70445 70545
L70501 70573
L70529 70601
L70557 70658
L70557 70742
L70529 70798
L70501 70826
L70445 70854
L70220 70854
" />
<path d="M70895 71136
L70838 71108
L70810 71079
L70782 71023
L70782 70854
L70810 70798
L70838 70770
L70895 70742
L70979 70742
L71035 70770
L71063 70798
L71091 70854
L71091 71023
L71063 71079
L71035 71108
L70979 71136
L70895 71136
" />
<path d="M71288 70742
L71598 70742
L71288 71136
L71598 71136
" />
<path d="M71795 71108
L71851 71136
L71963 71136
L72019 71108
L72048 71051
L72048 71023
L72019 70967
L71963 70939
L71879 70939
L71823 70911
L71795 70854
L71795 70826
L71823 70770
L71879 70742
L71963 70742
L72019 70770
" />
<path d="M72554 71136
L72554 70826
L72526 70770
L72469 70742
L72357 70742
L72301 70770
" />
<path d="M72554 71108
L72498 71136
L72357 71136
L72301 71108
L72273 71051
L72273 70995
L72301 70939
L72357 70911
L72498 70911
L72554 70883
" />
<path d="M72835 71136
L72835 70742
" />
<path d="M72835 70854
L72863 70798
L72891 70770
L72947 70742
L73004 70742
" />
<path d="M73594 70545
L73988 70545
L73594 71136
L73988 71136
" />
<path d="M74185 71108
L74241 71136
L74354 71136
L74410 71108
L74438 71051
L74438 71023
L74410 70967
L74354 70939
L74269 70939
L74213 70911
L74185 70854
L74185 70826
L74213 70770
L74269 70742
L74354 70742
L74410 70770
" />
<path d="M74775 71136
L74719 71108
L74691 71079
L74663 71023
L74663 70854
L74691 70798
L74719 70770
L74775 70742
L74860 70742
L74916 70770
L74944 70798
L74972 70854
L74972 71023
L74944 71079
L74916 71108
L74860 71136
L74775 71136
" />
<path d="M75310 71136
L75253 71108
L75225 71051
L75225 70545
" />
<path d="M75450 70742
L75675 70742
" />
<path d="M75535 70545
L75535 71051
L75563 71108
L75619 71136
L75675 71136
" />
</g>
<g style="fill:#000000; fill-opacity:0.0; 
stroke:#000000; stroke-width:39.3701; stroke-opacity:1; 
stroke-linecap:round; stroke-linejoin:round;">
</g>
<g style="fill:#000000; fill-opacity:0.0; 
stroke:#000000; stroke-width:59.0551; stroke-opacity:1; 
stroke-linecap:round; stroke-linejoin:round;">
<path d="M70220 69955
L70220 69364
L70360 69364
L70445 69392
L70501 69448
L70529 69505
L70557 69617
L70557 69701
L70529 69814
L70501 69870
L70445 69926
L70360 69955
L70220 69955
" />
<path d="M70810 69955
L70810 69561
" />
<path d="M70810 69673
L70838 69617
L70867 69589
L70923 69561
L70979 69561
" />
<path d="M71429 69955
L71429 69645
L71401 69589
L71345 69561
L71232 69561
L71176 69589
" />
<path d="M71429 69926
L71373 69955
L71232 69955
L71176 69926
L71148 69870
L71148 69814
L71176 69758
L71232 69730
L71373 69730
L71429 69701
" />
<path d="M71654 69561
L71766 69955
L71879 69673
L71991 69955
L72104 69561
" />
<path d="M72779 69561
L72779 69955
" />
<path d="M72779 69617
L72807 69589
L72863 69561
L72947 69561
L73004 69589
L73032 69645
L73032 69955
" />
<path d="M73566 69561
L73566 69955
" />
<path d="M73313 69561
L73313 69870
L73341 69926
L73397 69955
L73482 69955
L73538 69926
L73566 69898
" />
<path d="M73847 69955
L73847 69561
" />
<path d="M73847 69617
L73876 69589
L73932 69561
L74016 69561
L74072 69589
L74100 69645
L74100 69955
" />
<path d="M74100 69645
L74129 69589
L74185 69561
L74269 69561
L74325 69589
L74354 69645
L74354 69955
" />
<path d="M74635 69955
L74635 69364
" />
<path d="M74635 69589
L74691 69561
L74804 69561
L74860 69589
L74888 69617
L74916 69673
L74916 69842
L74888 69898
L74860 69926
L74804 69955
L74691 69955
L74635 69926
" />
<path d="M75394 69926
L75338 69955
L75225 69955
L75169 69926
L75141 69870
L75141 69645
L75169 69589
L75225 69561
L75338 69561
L75394 69589
L75422 69645
L75422 69701
L75141 69758
" />
<path d="M75675 69955
L75675 69561
" />
<path d="M75675 69673
L75703 69617
L75732 69589
L75788 69561
L75844 69561
" />
<path d="M76041 69898
L76069 69926
L76041 69955
L76013 69926
L76041 69898
L76041 69955
" />
<path d="M76041 69589
L76069 69617
L76041 69645
L76013 69617
L76041 69589
L76041 69645
" />
<path d="M77109 69898
L77081 69926
L76997 69955
L76941 69955
L76856 69926
L76800 69870
L76772 69814
L76744 69701
L76744 69617
L76772 69505
L76800 69448
L76856 69392
L76941 69364
L76997 69364
L77081 69392
L77109 69420
" />
<path d="M77278 69364
L77616 69364
" />
<path d="M77447 69955
L77447 69364
" />
<path d="M77728 69364
L78066 69364
" />
<path d="M77897 69955
L77897 69364
" />
<path d="M78684 69336
L78178 70095
" />
<path d="M78853 69420
L78881 69392
L78937 69364
L79078 69364
L79134 69392
L79162 69420
L79190 69476
L79190 69533
L79162 69617
L78825 69955
L79190 69955
" />
<path d="M79415 69420
L79444 69392
L79500 69364
L79640 69364
L79697 69392
L79725 69420
L79753 69476
L79753 69533
L79725 69617
L79387 69955
L79753 69955
" />
<path d="M80006 69730
L80456 69730
" />
<path d="M80709 69420
L80737 69392
L80793 69364
L80934 69364
L80990 69392
L81018 69420
L81046 69476
L81046 69533
L81018 69617
L80681 69955
L81046 69955
" />
<path d="M81243 69364
L81609 69364
L81412 69589
L81496 69589
L81553 69617
L81581 69645
L81609 69701
L81609 69842
L81581 69898
L81553 69926
L81496 69955
L81328 69955
L81271 69926
L81243 69898
" />
</g>
<g style="fill:#000000; fill-opacity:0.0; 
stroke:#000000; stroke-width:39.3701; stroke-opacity:1; 
stroke-linecap:round; stroke-linejoin:round;">
</g>
<g style="fill:#000000; fill-opacity:0.0; 
stroke:#000000; stroke-width:59.0551; stroke-opacity:1; 
stroke-linecap:round; stroke-linejoin:round;">
<path d="M77559 75396
L77559 76577
" />
</g>
<g style="fill:#000000; fill-opacity:0.0; 
stroke:#000000; stroke-width:39.3701; stroke-opacity:1; 
stroke-linecap:round; stroke-linejoin:round;">
</g>
<g style="fill:#000000; fill-opacity:0.0; 
stroke:#000000; stroke-width:59.0551; stroke-opacity:1; 
stroke-linecap:round; stroke-linejoin:round;">
<path d="M102756 75396
L102756 77955
" />
</g>
<g style="fill:#000000; fill-opacity:0.0; 
stroke:#000000; stroke-width:150; stroke-opacity:1; 
stroke-linecap:round; stroke-linejoin:round;">
<circle cx="69750" cy="37500" r="900" /> 
<circle cx="69750" cy="35000" r="900" /> 
<circle cx="49750" cy="29000" r="900" /> 
<circle cx="52250" cy="29000" r="900" /> 
<circle cx="54750" cy="29000" r="900" /> 
<circle cx="58250" cy="37500" r="900" /> 
<circle cx="58250" cy="35000" r="900" /> 
<circle cx="58250" cy="32500" r="900" /> 
<circle cx="58250" cy="32500" r="900" /> 
<circle cx="58250" cy="35000" r="900" /> 
<circle cx="58250" cy="37500" r="900" /> 
<circle cx="46250" cy="37500" r="900" /> 
<circle cx="46250" cy="35000" r="900" /> 
<circle cx="46250" cy="32500" r="900" /> 
<circle cx="46250" cy="32500" r="900" /> 
<circle cx="63750" cy="50500" r="900" /> 
<circle cx="66250" cy="50500" r="900" /> 
<circle cx="57750" cy="50500" r="900" /> 
<circle cx="55250" cy="50500" r="900" /> 
<circle cx="49250" cy="50500" r="900" /> 
<circle cx="46750" cy="50500" r="900" /> 
<circle cx="46250" cy="35000" r="900" /> 
<circle cx="46250" cy="37500" r="900" /> 
</g>
<g style="fill:#000000; fill-opacity:0.0; 
stroke:#000000; stroke-width:120; stroke-opacity:1; 
stroke-linecap:round; stroke-linejoin:round;">
<path d="M48250 37980
L48250 36000
" />
<path d="M48250 36000
L49250 36000
" />
<path d="M49250 36000
L49250 38000
" />
<path d="M49250 38000
L48250 38000
" />
<path d="M48500 38000
L48250 37750
" />
<path d="M49250 32020
L49250 34000
" />
<path d="M49250 34000
L48250 34000
" />
<path d="M48250 34000
L48250 32000
" />
<path d="M48250 32000
L49250 32000
" />
<path d="M49000 32000
L49250 32250
" />
<path d="M56250 32020
L56250 34000
" />
<path d="M56250 34000
L55250 34000
" />
<path d="M55250 34000
L55250 32000
" />
<path d="M55250 32000
L56250 32000
" />
<path d="M56000 32000
L56250 32250
" />
<path d="M55250 37980
L55250 36000
" />
<path d="M55250 36000
L56250 36000
" />
<path d="M56250 36000
L56250 38000
" />
<path d="M56250 38000
L55250 38000
" />
<path d="M55500 38000
L55250 37750
" />
</g>
<g style="fill:#000000; fill-opacity:0.0; 
stroke:#000000; stroke-width:50; stroke-opacity:1; 
stroke-linecap:round; stroke-linejoin:round;">
<circle cx="69750" cy="40750" r="1001.25" /> 
<circle cx="46750" cy="29000" r="1001.25" /> 
<circle cx="57750" cy="29000" r="1001.25" /> 
<circle cx="69750" cy="46750" r="1001.25" /> 
<circle cx="60750" cy="46750" r="1001.25" /> 
<circle cx="69750" cy="43750" r="1001.25" /> 
<circle cx="60750" cy="43750" r="1001.25" /> 
<circle cx="60750" cy="40750" r="1001.25" /> 
</g>
<g style="fill:#000000; fill-opacity:0.0; 
stroke:#000000; stroke-width:120; stroke-opacity:1; 
stroke-linecap:round; stroke-linejoin:round;">
<circle cx="55750" cy="40500" r="2195.45" /> 
<circle cx="48750" cy="40500" r="2195.45" /> 
<path d="M46250 45000
L46750 45000
" />
<path d="M46750 45000
L46750 45500
" />
<path d="M46750 45500
L50750 45500
" />
<path d="M50750 45500
L50750 45000
" />
<path d="M50750 45000
L51250 45000
" />
<path d="M50750 45000
L50750 44500
" />
<path d="M50750 44500
L46750 44500
" />
<path d="M46750 44500
L46750 45000
" />
<path d="M47250 45500
L47250 44500
" />
<path d="M47150 45500
L47150 44500
" />
<path d="M51250 46500
L50750 46500
" />
<path d="M50750 46500
L50750 46000
" />
<path d="M50750 46000
L46750 46000
" />
<path d="M46750 46000
L46750 46500
" />
<path d="M46750 46500
L46250 46500
" />
<path d="M46750 46500
L46750 47000
" />
<path d="M46750 47000
L50750 47000
" />
<path d="M50750 47000
L50750 46500
" />
<path d="M50250 46000
L50250 47000
" />
<path d="M50350 46000
L50350 47000
" />
<path d="M53750 37500
L53750 37000
" />
<path d="M53750 37000
L54250 37000
" />
<path d="M54250 37000
L54250 33000
" />
<path d="M54250 33000
L53750 33000
" />
<path d="M53750 33000
L53750 32500
" />
<path d="M53750 33000
L53250 33000
" />
<path d="M53250 33000
L53250 37000
" />
<path d="M53250 37000
L53750 37000
" />
<path d="M54250 36500
L53250 36500
" />
<path d="M54250 36600
L53250 36600
" />
<path d="M51250 43500
L50750 43500
" />
<path d="M50750 43500
L50750 43000
" />
<path d="M50750 43000
L46750 43000
" />
<path d="M46750 43000
L46750 43500
" />
<path d="M46750 43500
L46250 43500
" />
<path d="M46750 43500
L46750 44000
" />
<path d="M46750 44000
L50750 44000
" />
<path d="M50750 44000
L50750 43500
" />
<path d="M50250 43000
L50250 44000
" />
<path d="M50350 43000
L50350 44000
" />
<path d="M50750 32500
L50750 33000
" />
<path d="M50750 33000
L50250 33000
" />
<path d="M50250 33000
L50250 37000
" />
<path d="M50250 37000
L50750 37000
" />
<path d="M50750 37000
L50750 37500
" />
<path d="M50750 37000
L51250 37000
" />
<path d="M51250 37000
L51250 33000
" />
<path d="M51250 33000
L50750 33000
" />
<path d="M50250 33500
L51250 33500
" />
<path d="M50250 33400
L51250 33400
" />
<path d="M51250 31000
L50750 31000
" />
<path d="M50750 31000
L50750 30500
" />
<path d="M50750 30500
L46750 30500
" />
<path d="M46750 30500
L46750 31000
" />
<path d="M46750 31000
L46250 31000
" />
<path d="M46750 31000
L46750 31500
" />
<path d="M46750 31500
L50750 31500
" />
<path d="M50750 31500
L50750 31000
" />
<path d="M50250 30500
L50250 31500
" />
<path d="M50350 30500
L50350 31500
" />
<path d="M58250 43500
L57750 43500
" />
<path d="M57750 43500
L57750 43000
" />
<path d="M57750 43000
L53750 43000
" />
<path d="M53750 43000
L53750 43500
" />
<path d="M53750 43500
L53250 43500
" />
<path d="M53750 43500
L53750 44000
" />
<path d="M53750 44000
L57750 44000
" />
<path d="M57750 44000
L57750 43500
" />
<path d="M57250 43000
L57250 44000
" />
<path d="M57350 43000
L57350 44000
" />
<path d="M53250 45000
L53750 45000
" />
<path d="M53750 45000
L53750 45500
" />
<path d="M53750 45500
L57750 45500
" />
<path d="M57750 45500
L57750 45000
" />
<path d="M57750 45000
L58250 45000
" />
<path d="M57750 45000
L57750 44500
" />
<path d="M57750 44500
L53750 44500
" />
<path d="M53750 44500
L53750 45000
" />
<path d="M54250 45500
L54250 44500
" />
<path d="M54150 45500
L54150 44500
" />
<path d="M46250 48000
L46750 48000
" />
<path d="M46750 48000
L46750 48500
" />
<path d="M46750 48500
L50750 48500
" />
<path d="M50750 48500
L50750 48000
" />
<path d="M50750 48000
L51250 48000
" />
<path d="M50750 48000
L50750 47500
" />
<path d="M50750 47500
L46750 47500
" />
<path d="M46750 47500
L46750 48000
" />
<path d="M47250 48500
L47250 47500
" />
<path d="M47150 48500
L47150 47500
" />
<path d="M58250 46500
L57750 46500
" />
<path d="M57750 46500
L57750 46000
" />
<path d="M57750 46000
L53750 46000
" />
<path d="M53750 46000
L53750 46500
" />
<path d="M53750 46500
L53250 46500
" />
<path d="M53750 46500
L53750 47000
" />
<path d="M53750 47000
L57750 47000
" />
<path d="M57750 47000
L57750 46500
" />
<path d="M57250 46000
L57250 47000
" />
<path d="M57350 46000
L57350 47000
" />
<path d="M53250 48000
L53750 48000
" />
<path d="M53750 48000
L53750 48500
" />
<path d="M53750 48500
L57750 48500
" />
<path d="M57750 48500
L57750 48000
" />
<path d="M57750 48000
L58250 48000
" />
<path d="M57750 48000
L57750 47500
" />
<path d="M57750 47500
L53750 47500
" />
<path d="M53750 47500
L53750 48000
" />
<path d="M54250 48500
L54250 47500
" />
<path d="M54150 48500
L54150 47500
" />
<path d="M60750 33500
L60750 33900
" />
<path d="M60750 38500
L60750 38100
" />
<path d="M61250 38100
L60250 38100
" />
<path d="M60250 38100
L60250 33900
" />
<path d="M60250 33900
L61250 33900
" />
<path d="M61250 33900
L61250 38100
" />
<path d="M61050 33900
L61250 34100
" />
<circle cx="65750" cy="31500" r="1839.84" /> 
<path d="M64250 30450
L63750 29950
" />
<path d="M64700 30000
L64200 29500
" />
<path d="M64200 29500
L63750 29950
" />
<path d="M60250 31500
L61750 33000
" />
<path d="M61750 33000
L62250 33000
" />
<path d="M62250 33000
L62750 32500
" />
<path d="M62750 32500
L62750 31500
" />
<path d="M62750 31500
L61750 30500
" />
<path d="M61750 30500
L60750 30500
" />
<path d="M60750 30500
L60250 31000
" />
<path d="M60250 31000
L60250 31500
" />
<path d="M67750 41500
L67250 41500
" />
<path d="M67250 41500
L67250 41000
" />
<path d="M67250 41000
L63250 41000
" />
<path d="M63250 41000
L63250 41500
" />
<path d="M63250 41500
L62750 41500
" />
<path d="M63250 41500
L63250 42000
" />
<path d="M63250 42000
L67250 42000
" />
<path d="M67250 42000
L67250 41500
" />
<path d="M66750 41000
L66750 42000
" />
<path d="M66850 41000
L66850 42000
" />
<path d="M62750 43000
L63250 43000
" />
<path d="M63250 43000
L63250 43500
" />
<path d="M63250 43500
L67250 43500
" />
<path d="M67250 43500
L67250 43000
" />
<path d="M67250 43000
L67750 43000
" />
<path d="M67250 43000
L67250 42500
" />
<path d="M67250 42500
L63250 42500
" />
<path d="M63250 42500
L63250 43000
" />
<path d="M63750 43500
L63750 42500
" />
<path d="M63650 43500
L63650 42500
" />
<path d="M67750 44500
L67250 44500
" />
<path d="M67250 44500
L67250 44000
" />
<path d="M67250 44000
L63250 44000
" />
<path d="M63250 44000
L63250 44500
" />
<path d="M63250 44500
L62750 44500
" />
<path d="M63250 44500
L63250 45000
" />
<path d="M63250 45000
L67250 45000
" />
<path d="M67250 45000
L67250 44500
" />
<path d="M66750 44000
L66750 45000
" />
<path d="M66850 44000
L66850 45000
" />
<path d="M62750 46000
L63250 46000
" />
<path d="M63250 46000
L63250 46500
" />
<path d="M63250 46500
L67250 46500
" />
<path d="M67250 46500
L67250 46000
" />
<path d="M67250 46000
L67750 46000
" />
<path d="M67250 46000
L67250 45500
" />
<path d="M67250 45500
L63250 45500
" />
<path d="M63250 45500
L63250 46000
" />
<path d="M63750 46500
L63750 45500
" />
<path d="M63650 46500
L63650 45500
" />
<path d="M67750 47500
L67250 47500
" />
<path d="M67250 47500
L67250 47000
" />
<path d="M67250 47000
L63250 47000
" />
<path d="M63250 47000
L63250 47500
" />
<path d="M63250 47500
L62750 47500
" />
<path d="M63250 47500
L63250 48000
" />
<path d="M63250 48000
L67250 48000
" />
<path d="M67250 48000
L67250 47500
" />
<path d="M66750 47000
L66750 48000
" />
<path d="M66850 47000
L66850 48000
" />
<path d="M58250 31000
L57750 31000
" />
<path d="M57750 31000
L57750 30500
" />
<path d="M57750 30500
L53750 30500
" />
<path d="M53750 30500
L53750 31000
" />
<path d="M53750 31000
L53250 31000
" />
<path d="M53750 31000
L53750 31500
" />
<path d="M53750 31500
L57750 31500
" />
<path d="M57750 31500
L57750 31000
" />
<path d="M57250 30500
L57250 31500
" />
<path d="M57350 30500
L57350 31500
" />
<path d="M62750 40000
L63250 40000
" />
<path d="M63250 40000
L63250 40500
" />
<path d="M63250 40500
L67250 40500
" />
<path d="M67250 40500
L67250 40000
" />
<path d="M67250 40000
L67750 40000
" />
<path d="M67250 40000
L67250 39500
" />
<path d="M67250 39500
L63250 39500
" />
<path d="M63250 39500
L63250 40000
" />
<path d="M63750 40500
L63750 39500
" />
<path d="M63650 40500
L63650 39500
" />
<circle cx="64750" cy="36500" r="2195.45" /> 
<path d="M70250 33000
L69250 33000
" />
<path d="M69250 33000
L69250 31000
" />
<path d="M69250 31000
L70250 31000
" />
<path d="M70250 31000
L70250 33000
" />
</g>
<g style="fill:#000000; fill-opacity:0.0; 
stroke:#000000; stroke-width:39.3701; stroke-opacity:1; 
stroke-linecap:round; stroke-linejoin:round;">
<circle cx="69750" cy="37500" r="570.815" /> 
<circle cx="69750" cy="35000" r="570.815" /> 
<circle cx="49750" cy="29000" r="570.815" /> 
<circle cx="52250" cy="29000" r="570.815" /> 
<circle cx="54750" cy="29000" r="570.815" /> 
<circle cx="58250" cy="37500" r="570.815" /> 
<circle cx="58250" cy="35000" r="570.815" /> 
<circle cx="58250" cy="32500" r="570.815" /> 
<circle cx="58250" cy="32500" r="570.815" /> 
<circle cx="58250" cy="35000" r="570.815" /> 
<circle cx="58250" cy="37500" r="570.815" /> 
<circle cx="46250" cy="37500" r="570.815" /> 
<circle cx="46250" cy="35000" r="570.815" /> 
<circle cx="46250" cy="32500" r="570.815" /> 
<circle cx="46250" cy="32500" r="570.815" /> 
<circle cx="63750" cy="50500" r="570.815" /> 
<circle cx="66250" cy="50500" r="570.815" /> 
<circle cx="57750" cy="50500" r="570.815" /> 
<circle cx="55250" cy="50500" r="570.815" /> 
<circle cx="49250" cy="50500" r="570.815" /> 
<circle cx="46750" cy="50500" r="570.815" /> 
<circle cx="46250" cy="35000" r="570.815" /> 
<circle cx="46250" cy="37500" r="570.815" /> 
<circle cx="48750" cy="37500" r="255.315" /> 
<circle cx="48750" cy="36500" r="255.315" /> 
<circle cx="48750" cy="32500" r="255.315" /> 
<circle cx="48750" cy="33500" r="255.315" /> 
<circle cx="55750" cy="32500" r="255.315" /> 
<circle cx="55750" cy="33500" r="255.315" /> 
<circle cx="55750" cy="37500" r="255.315" /> 
<circle cx="55750" cy="36500" r="255.315" /> 
<polyline fill="none;"
points="69494,39994
70005,39994
70005,40505
69494,40505
69494,39994
" /> 
<circle cx="69750" cy="41250" r="255.315" /> 
<polyline fill="none;"
points="47505,28744
47505,29255
46994,29255
46994,28744
47505,28744
" /> 
<circle cx="46250" cy="29000" r="255.315" /> 
<polyline fill="none;"
points="56994,29255
56994,28744
57505,28744
57505,29255
56994,29255
" /> 
<circle cx="58250" cy="29000" r="255.315" /> 
<polyline fill="none;"
points="69494,45994
70005,45994
70005,46505
69494,46505
69494,45994
" /> 
<circle cx="69750" cy="47250" r="255.315" /> 
<polyline fill="none;"
points="60494,45994
61005,45994
61005,46505
60494,46505
60494,45994
" /> 
<circle cx="60750" cy="47250" r="255.315" /> 
<polyline fill="none;"
points="69494,42994
70005,42994
70005,43505
69494,43505
69494,42994
" /> 
<circle cx="69750" cy="44250" r="255.315" /> 
<polyline fill="none;"
points="60494,42994
61005,42994
61005,43505
60494,43505
60494,42994
" /> 
<circle cx="60750" cy="44250" r="255.315" /> 
<polyline fill="none;"
points="60494,39994
61005,39994
61005,40505
60494,40505
60494,39994
" /> 
<circle cx="60750" cy="41250" r="255.315" /> 
<polyline fill="none;"
points="57080,40169
57080,40830
56419,40830
56419,40169
57080,40169
" /> 
<circle cx="54750" cy="40500" r="330.315" /> 
<polyline fill="none;"
points="50080,40169
50080,40830
49419,40830
49419,40169
50080,40169
" /> 
<circle cx="47750" cy="40500" r="330.315" /> 
<circle cx="51250" cy="45000" r="330.315" /> 
<polyline fill="none;"
points="46580,44669
46580,45330
45919,45330
45919,44669
46580,44669
" /> 
<circle cx="46250" cy="46500" r="330.315" /> 
<polyline fill="none;"
points="50919,46830
50919,46169
51580,46169
51580,46830
50919,46830
" /> 
<circle cx="53750" cy="32500" r="330.315" /> 
<polyline fill="none;"
points="53419,37169
54080,37169
54080,37830
53419,37830
53419,37169
" /> 
<circle cx="46250" cy="43500" r="330.315" /> 
<polyline fill="none;"
points="50919,43830
50919,43169
51580,43169
51580,43830
50919,43830
" /> 
<circle cx="50750" cy="37500" r="330.315" /> 
<polyline fill="none;"
points="51080,32830
50419,32830
50419,32169
51080,32169
51080,32830
" /> 
<circle cx="46250" cy="31000" r="330.315" /> 
<polyline fill="none;"
points="50919,31330
50919,30669
51580,30669
51580,31330
50919,31330
" /> 
<circle cx="53250" cy="43500" r="330.315" /> 
<polyline fill="none;"
points="57919,43830
57919,43169
58580,43169
58580,43830
57919,43830
" /> 
<circle cx="58250" cy="45000" r="330.315" /> 
<polyline fill="none;"
points="53580,44669
53580,45330
52919,45330
52919,44669
53580,44669
" /> 
<circle cx="51250" cy="48000" r="330.315" /> 
<polyline fill="none;"
points="46580,47669
46580,48330
45919,48330
45919,47669
46580,47669
" /> 
<circle cx="53250" cy="46500" r="330.315" /> 
<polyline fill="none;"
points="57919,46830
57919,46169
58580,46169
58580,46830
57919,46830
" /> 
<circle cx="58250" cy="48000" r="330.315" /> 
<polyline fill="none;"
points="53580,47669
53580,48330
52919,48330
52919,47669
53580,47669
" /> 
<circle cx="60750" cy="33500" r="280.315" /> 
<circle cx="60750" cy="38500" r="280.315" /> 
<circle cx="66750" cy="31500" r="305.315" /> 
<circle cx="65750" cy="32500" r="305.315" /> 
<polyline fill="none;"
points="64444,31805
64444,31194
65055,31194
65055,31805
64444,31805
" /> 
<polyline fill="none;"
points="61494,32244
62005,32244
62005,32755
61494,32755
61494,32244
" /> 
<circle cx="61750" cy="31500" r="255.315" /> 
<circle cx="60750" cy="31500" r="255.315" /> 
<circle cx="62750" cy="41500" r="330.315" /> 
<polyline fill="none;"
points="67419,41830
67419,41169
68080,41169
68080,41830
67419,41830
" /> 
<circle cx="67750" cy="43000" r="330.315" /> 
<polyline fill="none;"
points="63080,42669
63080,43330
62419,43330
62419,42669
63080,42669
" /> 
<circle cx="62750" cy="44500" r="330.315" /> 
<polyline fill="none;"
points="67419,44830
67419,44169
68080,44169
68080,44830
67419,44830
" /> 
<circle cx="67750" cy="46000" r="330.315" /> 
<polyline fill="none;"
points="63080,45669
63080,46330
62419,46330
62419,45669
63080,45669
" /> 
<circle cx="62750" cy="47500" r="330.315" /> 
<polyline fill="none;"
points="67419,47830
67419,47169
68080,47169
68080,47830
67419,47830
" /> 
<circle cx="53250" cy="31000" r="330.315" /> 
<polyline fill="none;"
points="57919,31330
57919,30669
58580,30669
58580,31330
57919,31330
" /> 
<circle cx="67750" cy="40000" r="330.315" /> 
<polyline fill="none;"
points="63080,39669
63080,40330
62419,40330
62419,39669
63080,39669
" /> 
<polyline fill="none;"
points="64419,35169
65080,35169
65080,35830
64419,35830
64419,35169
" /> 
<circle cx="64750" cy="37500" r="330.315" /> 
<polyline fill="none;"
points="70005,32755
69494,32755
69494,32244
70005,32244
70005,32755
" /> 
<circle cx="69750" cy="31500" r="255.315" /> 
</g>
<g style="fill:#000000; fill-opacity:0.0; 
stroke:#000000; stroke-width:100; stroke-opacity:1; 
stroke-linecap:round; stroke-linejoin:round;">
<path d="M57859 36480
L57630 36480
" />
<path d="M57745 36480
L57745 36080
L57707 36138
L57669 36176
L57630 36195
" />
<path d="M58030 36480
L58030 36080
L58183 36080
L58221 36100
L58240 36119
L58259 36157
L58259 36214
L58240 36252
L58221 36271
L58183 36290
L58030 36290
" />
<path d="M58430 36480
L58430 36080
" />
<path d="M58621 36480
L58621 36080
L58850 36480
L58850 36080
" />
<path d="M57859 33980
L57630 33980
" />
<path d="M57745 33980
L57745 33580
L57707 33638
L57669 33676
L57630 33695
" />
<path d="M58030 33980
L58030 33580
L58183 33580
L58221 33600
L58240 33619
L58259 33657
L58259 33714
L58240 33752
L58221 33771
L58183 33790
L58030 33790
" />
<path d="M58430 33980
L58430 33580
" />
<path d="M58621 33980
L58621 33580
L58850 33980
L58850 33580
" />
<path d="M57859 31480
L57630 31480
" />
<path d="M57745 31480
L57745 31080
L57707 31138
L57669 31176
L57630 31195
" />
<path d="M58030 31480
L58030 31080
L58183 31080
L58221 31100
L58240 31119
L58259 31157
L58259 31214
L58240 31252
L58221 31271
L58183 31290
L58030 31290
" />
<path d="M58430 31480
L58430 31080
" />
<path d="M58621 31480
L58621 31080
L58850 31480
L58850 31080
" />
<path d="M57859 31480
L57630 31480
" />
<path d="M57745 31480
L57745 31080
L57707 31138
L57669 31176
L57630 31195
" />
<path d="M58030 31480
L58030 31080
L58183 31080
L58221 31100
L58240 31119
L58259 31157
L58259 31214
L58240 31252
L58221 31271
L58183 31290
L58030 31290
" />
<path d="M58430 31480
L58430 31080
" />
<path d="M58621 31480
L58621 31080
L58850 31480
L58850 31080
" />
<path d="M57859 33980
L57630 33980
" />
<path d="M57745 33980
L57745 33580
L57707 33638
L57669 33676
L57630 33695
" />
<path d="M58030 33980
L58030 33580
L58183 33580
L58221 33600
L58240 33619
L58259 33657
L58259 33714
L58240 33752
L58221 33771
L58183 33790
L58030 33790
" />
<path d="M58430 33980
L58430 33580
" />
<path d="M58621 33980
L58621 33580
L58850 33980
L58850 33580
" />
<path d="M57859 36480
L57630 36480
" />
<path d="M57745 36480
L57745 36080
L57707 36138
L57669 36176
L57630 36195
" />
<path d="M58030 36480
L58030 36080
L58183 36080
L58221 36100
L58240 36119
L58259 36157
L58259 36214
L58240 36252
L58221 36271
L58183 36290
L58030 36290
" />
<path d="M58430 36480
L58430 36080
" />
<path d="M58621 36480
L58621 36080
L58850 36480
L58850 36080
" />
<path d="M45859 36480
L45630 36480
" />
<path d="M45745 36480
L45745 36080
L45707 36138
L45669 36176
L45630 36195
" />
<path d="M46030 36480
L46030 36080
L46183 36080
L46221 36100
L46240 36119
L46259 36157
L46259 36214
L46240 36252
L46221 36271
L46183 36290
L46030 36290
" />
<path d="M46430 36480
L46430 36080
" />
<path d="M46621 36480
L46621 36080
L46850 36480
L46850 36080
" />
<path d="M45859 33980
L45630 33980
" />
<path d="M45745 33980
L45745 33580
L45707 33638
L45669 33676
L45630 33695
" />
<path d="M46030 33980
L46030 33580
L46183 33580
L46221 33600
L46240 33619
L46259 33657
L46259 33714
L46240 33752
L46221 33771
L46183 33790
L46030 33790
" />
<path d="M46430 33980
L46430 33580
" />
<path d="M46621 33980
L46621 33580
L46850 33980
L46850 33580
" />
<path d="M45859 31480
L45630 31480
" />
<path d="M45745 31480
L45745 31080
L45707 31138
L45669 31176
L45630 31195
" />
<path d="M46030 31480
L46030 31080
L46183 31080
L46221 31100
L46240 31119
L46259 31157
L46259 31214
L46240 31252
L46221 31271
L46183 31290
L46030 31290
" />
<path d="M46430 31480
L46430 31080
" />
<path d="M46621 31480
L46621 31080
L46850 31480
L46850 31080
" />
<path d="M45859 31480
L45630 31480
" />
<path d="M45745 31480
L45745 31080
L45707 31138
L45669 31176
L45630 31195
" />
<path d="M46030 31480
L46030 31080
L46183 31080
L46221 31100
L46240 31119
L46259 31157
L46259 31214
L46240 31252
L46221 31271
L46183 31290
L46030 31290
" />
<path d="M46430 31480
L46430 31080
" />
<path d="M46621 31480
L46621 31080
L46850 31480
L46850 31080
" />
<path d="M45859 33980
L45630 33980
" />
<path d="M45745 33980
L45745 33580
L45707 33638
L45669 33676
L45630 33695
" />
<path d="M46030 33980
L46030 33580
L46183 33580
L46221 33600
L46240 33619
L46259 33657
L46259 33714
L46240 33752
L46221 33771
L46183 33790
L46030 33790
" />
<path d="M46430 33980
L46430 33580
" />
<path d="M46621 33980
L46621 33580
L46850 33980
L46850 33580
" />
<path d="M45859 36480
L45630 36480
" />
<path d="M45745 36480
L45745 36080
L45707 36138
L45669 36176
L45630 36195
" />
<path d="M46030 36480
L46030 36080
L46183 36080
L46221 36100
L46240 36119
L46259 36157
L46259 36214
L46240 36252
L46221 36271
L46183 36290
L46030 36290
" />
<path d="M46430 36480
L46430 36080
" />
<path d="M46621 36480
L46621 36080
L46850 36480
L46850 36080
" />
</g>
<g style="fill:#000000; fill-opacity:0.0; 
stroke:#000000; stroke-width:80; stroke-opacity:1; 
stroke-linecap:round; stroke-linejoin:round;">
<path d="M47992 36966
L48011 36985
L48030 37042
L48030 37080
L48011 37138
L47973 37176
L47935 37195
L47859 37214
L47802 37214
L47726 37195
L47688 37176
L47650 37138
L47630 37080
L47630 37042
L47650 36985
L47669 36966
" />
<path d="M47669 36814
L47650 36795
L47630 36757
L47630 36661
L47650 36623
L47669 36604
L47707 36585
L47745 36585
L47802 36604
L48030 36833
L48030 36585
" />
<path d="M49792 33166
L49811 33185
L49830 33242
L49830 33280
L49811 33338
L49773 33376
L49735 33395
L49659 33414
L49602 33414
L49526 33395
L49488 33376
L49450 33338
L49430 33280
L49430 33242
L49450 33185
L49469 33166
" />
<path d="M49430 33033
L49430 32785
L49583 32919
L49583 32861
L49602 32823
L49621 32804
L49659 32785
L49754 32785
L49792 32804
L49811 32823
L49830 32861
L49830 32976
L49811 33014
L49792 33033
" />
<path d="M56792 33166
L56811 33185
L56830 33242
L56830 33280
L56811 33338
L56773 33376
L56735 33395
L56659 33414
L56602 33414
L56526 33395
L56488 33376
L56450 33338
L56430 33280
L56430 33242
L56450 33185
L56469 33166
" />
<path d="M56430 33033
L56430 32766
L56830 32938
" />
<path d="M54992 36966
L55011 36985
L55030 37042
L55030 37080
L55011 37138
L54973 37176
L54935 37195
L54859 37214
L54802 37214
L54726 37195
L54688 37176
L54650 37138
L54630 37080
L54630 37042
L54650 36985
L54669 36966
" />
<path d="M54630 36623
L54630 36699
L54650 36738
L54669 36757
L54726 36795
L54802 36814
L54954 36814
L54992 36795
L55011 36776
L55030 36738
L55030 36661
L55011 36623
L54992 36604
L54954 36585
L54859 36585
L54821 36604
L54802 36623
L54783 36661
L54783 36738
L54802 36776
L54821 36795
L54859 36814
" />
</g>
<g style="fill:#000000; fill-opacity:0.0; 
stroke:#000000; stroke-width:50; stroke-opacity:1; 
stroke-linecap:round; stroke-linejoin:round;">
<path d="M70356 40942
L70370 40957
L70384 41000
L70384 41028
L70370 41071
L70341 41100
L70313 41114
L70256 41128
L70213 41128
L70156 41114
L70127 41100
L70099 41071
L70084 41028
L70084 41000
L70099 40957
L70113 40942
" />
<path d="M70384 40657
L70384 40828
" />
<path d="M70384 40742
L70084 40742
L70127 40771
L70156 40800
L70170 40828
" />
<path d="M70084 40557
L70084 40371
L70199 40471
L70199 40428
L70213 40400
L70227 40385
L70256 40371
L70327 40371
L70356 40385
L70370 40400
L70384 40428
L70384 40514
L70370 40542
L70356 40557
" />
</g>
<g style="fill:#000000; fill-opacity:0.0; 
stroke:#000000; stroke-width:75; stroke-opacity:1; 
stroke-linecap:round; stroke-linejoin:round;">
<path d="M69771 39964
L69771 39735
" />
<path d="M69885 39850
L69657 39850
" />
</g>
<g style="fill:#000000; fill-opacity:0.0; 
stroke:#000000; stroke-width:50; stroke-opacity:1; 
stroke-linecap:round; stroke-linejoin:round;">
<path d="M46700 29606
L46685 29620
L46642 29634
L46614 29634
L46571 29620
L46542 29591
L46528 29563
L46514 29506
L46514 29463
L46528 29406
L46542 29377
L46571 29349
L46614 29334
L46642 29334
L46685 29349
L46700 29363
" />
<path d="M46957 29434
L46957 29634
" />
<path d="M46885 29320
L46814 29534
L47000 29534
" />
</g>
<g style="fill:#000000; fill-opacity:0.0; 
stroke:#000000; stroke-width:75; stroke-opacity:1; 
stroke-linecap:round; stroke-linejoin:round;">
<path d="M47535 29021
L47764 29021
" />
<path d="M47650 29135
L47650 28907
" />
</g>
<g style="fill:#000000; fill-opacity:0.0; 
stroke:#000000; stroke-width:50; stroke-opacity:1; 
stroke-linecap:round; stroke-linejoin:round;">
<path d="M57700 28608
L57685 28622
L57642 28636
L57614 28636
L57571 28622
L57542 28593
L57528 28565
L57514 28508
L57514 28465
L57528 28408
L57542 28379
L57571 28351
L57614 28336
L57642 28336
L57685 28351
L57700 28365
" />
<path d="M57871 28465
L57842 28451
L57828 28436
L57814 28408
L57814 28393
L57828 28365
L57842 28351
L57871 28336
L57928 28336
L57957 28351
L57971 28365
L57985 28393
L57985 28408
L57971 28436
L57957 28451
L57928 28465
L57871 28465
L57842 28479
L57828 28493
L57814 28522
L57814 28579
L57828 28608
L57842 28622
L57871 28636
L57928 28636
L57957 28622
L57971 28608
L57985 28579
L57985 28522
L57971 28493
L57957 28479
L57928 28465
" />
</g>
<g style="fill:#000000; fill-opacity:0.0; 
stroke:#000000; stroke-width:75; stroke-opacity:1; 
stroke-linecap:round; stroke-linejoin:round;">
<path d="M56735 29021
L56964 29021
" />
<path d="M56850 29135
L56850 28907
" />
</g>
<g style="fill:#000000; fill-opacity:0.0; 
stroke:#000000; stroke-width:50; stroke-opacity:1; 
stroke-linecap:round; stroke-linejoin:round;">
<path d="M70356 46800
L70370 46814
L70384 46857
L70384 46885
L70370 46928
L70341 46957
L70313 46971
L70256 46985
L70213 46985
L70156 46971
L70127 46957
L70099 46928
L70084 46885
L70084 46857
L70099 46814
L70113 46800
" />
<path d="M70384 46657
L70384 46600
L70370 46571
L70356 46557
L70313 46528
L70256 46514
L70141 46514
L70113 46528
L70099 46542
L70084 46571
L70084 46628
L70099 46657
L70113 46671
L70141 46685
L70213 46685
L70241 46671
L70256 46657
L70270 46628
L70270 46571
L70256 46542
L70241 46528
L70213 46514
" />
</g>
<g style="fill:#000000; fill-opacity:0.0; 
stroke:#000000; stroke-width:75; stroke-opacity:1; 
stroke-linecap:round; stroke-linejoin:round;">
<path d="M69771 45964
L69771 45735
" />
<path d="M69885 45850
L69657 45850
" />
</g>
<g style="fill:#000000; fill-opacity:0.0; 
stroke:#000000; stroke-width:50; stroke-opacity:1; 
stroke-linecap:round; stroke-linejoin:round;">
<path d="M61356 46942
L61370 46957
L61384 47000
L61384 47028
L61370 47071
L61341 47100
L61313 47114
L61256 47128
L61213 47128
L61156 47114
L61127 47100
L61099 47071
L61084 47028
L61084 47000
L61099 46957
L61113 46942
" />
<path d="M61384 46657
L61384 46828
" />
<path d="M61384 46742
L61084 46742
L61127 46771
L61156 46800
L61170 46828
" />
<path d="M61084 46471
L61084 46442
L61099 46414
L61113 46400
L61141 46385
L61199 46371
L61270 46371
L61327 46385
L61356 46400
L61370 46414
L61384 46442
L61384 46471
L61370 46500
L61356 46514
L61327 46528
L61270 46542
L61199 46542
L61141 46528
L61113 46514
L61099 46500
L61084 46471
" />
</g>
<g style="fill:#000000; fill-opacity:0.0; 
stroke:#000000; stroke-width:75; stroke-opacity:1; 
stroke-linecap:round; stroke-linejoin:round;">
<path d="M60771 45964
L60771 45735
" />
<path d="M60885 45850
L60657 45850
" />
</g>
<g style="fill:#000000; fill-opacity:0.0; 
stroke:#000000; stroke-width:50; stroke-opacity:1; 
stroke-linecap:round; stroke-linejoin:round;">
<path d="M70356 43942
L70370 43957
L70384 44000
L70384 44028
L70370 44071
L70341 44100
L70313 44114
L70256 44128
L70213 44128
L70156 44114
L70127 44100
L70099 44071
L70084 44028
L70084 44000
L70099 43957
L70113 43942
" />
<path d="M70384 43657
L70384 43828
" />
<path d="M70384 43742
L70084 43742
L70127 43771
L70156 43800
L70170 43828
" />
<path d="M70384 43371
L70384 43542
" />
<path d="M70384 43457
L70084 43457
L70127 43485
L70156 43514
L70170 43542
" />
</g>
<g style="fill:#000000; fill-opacity:0.0; 
stroke:#000000; stroke-width:75; stroke-opacity:1; 
stroke-linecap:round; stroke-linejoin:round;">
<path d="M69771 42964
L69771 42735
" />
<path d="M69885 42850
L69657 42850
" />
</g>
<g style="fill:#000000; fill-opacity:0.0; 
stroke:#000000; stroke-width:50; stroke-opacity:1; 
stroke-linecap:round; stroke-linejoin:round;">
<path d="M61356 43942
L61370 43957
L61384 44000
L61384 44028
L61370 44071
L61341 44100
L61313 44114
L61256 44128
L61213 44128
L61156 44114
L61127 44100
L61099 44071
L61084 44028
L61084 44000
L61099 43957
L61113 43942
" />
<path d="M61384 43657
L61384 43828
" />
<path d="M61384 43742
L61084 43742
L61127 43771
L61156 43800
L61170 43828
" />
<path d="M61113 43542
L61099 43528
L61084 43500
L61084 43428
L61099 43400
L61113 43385
L61141 43371
L61170 43371
L61213 43385
L61384 43557
L61384 43371
" />
</g>
<g style="fill:#000000; fill-opacity:0.0; 
stroke:#000000; stroke-width:75; stroke-opacity:1; 
stroke-linecap:round; stroke-linejoin:round;">
<path d="M60771 42964
L60771 42735
" />
<path d="M60885 42850
L60657 42850
" />
</g>
<g style="fill:#000000; fill-opacity:0.0; 
stroke:#000000; stroke-width:50; stroke-opacity:1; 
stroke-linecap:round; stroke-linejoin:round;">
<path d="M61356 40942
L61370 40957
L61384 41000
L61384 41028
L61370 41071
L61341 41100
L61313 41114
L61256 41128
L61213 41128
L61156 41114
L61127 41100
L61099 41071
L61084 41028
L61084 41000
L61099 40957
L61113 40942
" />
<path d="M61384 40657
L61384 40828
" />
<path d="M61384 40742
L61084 40742
L61127 40771
L61156 40800
L61170 40828
" />
<path d="M61184 40400
L61384 40400
" />
<path d="M61070 40471
L61284 40542
L61284 40357
" />
</g>
<g style="fill:#000000; fill-opacity:0.0; 
stroke:#000000; stroke-width:75; stroke-opacity:1; 
stroke-linecap:round; stroke-linejoin:round;">
<path d="M60771 39964
L60771 39735
" />
<path d="M60885 39850
L60657 39850
" />
</g>
<g style="fill:#000000; fill-opacity:0.0; 
stroke:#000000; stroke-width:100; stroke-opacity:1; 
stroke-linecap:round; stroke-linejoin:round;">
<path d="M55666 39678
L55642 39702
L55571 39726
L55523 39726
L55452 39702
L55404 39654
L55380 39607
L55357 39511
L55357 39440
L55380 39345
L55404 39297
L55452 39250
L55523 39226
L55571 39226
L55642 39250
L55666 39273
" />
<path d="M56119 39226
L55880 39226
L55857 39464
L55880 39440
L55928 39416
L56047 39416
L56095 39440
L56119 39464
L56142 39511
L56142 39630
L56119 39678
L56095 39702
L56047 39726
L55928 39726
L55880 39702
L55857 39678
" />
<path d="M48666 39678
L48642 39702
L48571 39726
L48523 39726
L48452 39702
L48404 39654
L48380 39607
L48357 39511
L48357 39440
L48380 39345
L48404 39297
L48452 39250
L48523 39226
L48571 39226
L48642 39250
L48666 39273
" />
<path d="M49142 39726
L48857 39726
" />
<path d="M49000 39726
L49000 39226
L48952 39297
L48904 39345
L48857 39369
" />
<path d="M48454 45271
L48454 44671
L48550 44671
L48607 44700
L48645 44757
L48664 44814
L48683 44928
L48683 45014
L48664 45128
L48645 45185
L48607 45242
L48550 45271
L48454 45271
" />
<path d="M48835 44728
L48854 44700
L48892 44671
L48988 44671
L49026 44700
L49045 44728
L49064 44785
L49064 44842
L49045 44928
L48816 45271
L49064 45271
" />
<path d="M48454 46771
L48454 46171
L48550 46171
L48607 46200
L48645 46257
L48664 46314
L48683 46428
L48683 46514
L48664 46628
L48645 46685
L48607 46742
L48550 46771
L48454 46771
" />
<path d="M48816 46171
L49064 46171
L48930 46400
L48988 46400
L49026 46428
L49045 46457
L49064 46514
L49064 46657
L49045 46714
L49026 46742
L48988 46771
L48873 46771
L48835 46742
L48816 46714
" />
<path d="M54021 35485
L53421 35485
L53421 35390
L53450 35333
L53507 35295
L53564 35276
L53678 35257
L53764 35257
L53878 35276
L53935 35295
L53992 35333
L54021 35390
L54021 35485
" />
<path d="M54021 34876
L54021 35104
" />
<path d="M54021 34990
L53421 34990
L53507 35028
L53564 35066
L53592 35104
" />
<path d="M54021 34495
L54021 34723
" />
<path d="M54021 34609
L53421 34609
L53507 34647
L53564 34685
L53592 34723
" />
<path d="M48454 43771
L48454 43171
L48550 43171
L48607 43200
L48645 43257
L48664 43314
L48683 43428
L48683 43514
L48664 43628
L48645 43685
L48607 43742
L48550 43771
L48454 43771
" />
<path d="M49026 43371
L49026 43771
" />
<path d="M48930 43142
L48835 43571
L49083 43571
" />
<path d="M51021 35295
L50421 35295
L50421 35199
L50450 35142
L50507 35104
L50564 35085
L50678 35066
L50764 35066
L50878 35085
L50935 35104
L50992 35142
L51021 35199
L51021 35295
" />
<path d="M50421 34704
L50421 34895
L50707 34914
L50678 34895
L50650 34857
L50650 34761
L50678 34723
L50707 34704
L50764 34685
L50907 34685
L50964 34704
L50992 34723
L51021 34761
L51021 34857
L50992 34895
L50964 34914
" />
<path d="M48454 31271
L48454 30671
L48550 30671
L48607 30700
L48645 30757
L48664 30814
L48683 30928
L48683 31014
L48664 31128
L48645 31185
L48607 31242
L48550 31271
L48454 31271
" />
<path d="M49026 30671
L48950 30671
L48911 30700
L48892 30728
L48854 30814
L48835 30928
L48835 31157
L48854 31214
L48873 31242
L48911 31271
L48988 31271
L49026 31242
L49045 31214
L49064 31157
L49064 31014
L49045 30957
L49026 30928
L48988 30900
L48911 30900
L48873 30928
L48854 30957
L48835 31014
" />
<path d="M55264 43771
L55264 43171
L55359 43171
L55416 43200
L55454 43257
L55473 43314
L55492 43428
L55492 43514
L55473 43628
L55454 43685
L55416 43742
L55359 43771
L55264 43771
" />
<path d="M55873 43771
L55645 43771
" />
<path d="M55759 43771
L55759 43171
L55721 43257
L55683 43314
L55645 43342
" />
<path d="M56121 43171
L56159 43171
L56197 43200
L56216 43228
L56235 43285
L56254 43400
L56254 43542
L56235 43657
L56216 43714
L56197 43742
L56159 43771
L56121 43771
L56083 43742
L56064 43714
L56045 43657
L56026 43542
L56026 43400
L56045 43285
L56064 43228
L56083 43200
L56121 43171
" />
<path d="M55454 45271
L55454 44671
L55550 44671
L55607 44700
L55645 44757
L55664 44814
L55683 44928
L55683 45014
L55664 45128
L55645 45185
L55607 45242
L55550 45271
L55454 45271
" />
<path d="M55911 44928
L55873 44900
L55854 44871
L55835 44814
L55835 44785
L55854 44728
L55873 44700
L55911 44671
L55988 44671
L56026 44700
L56045 44728
L56064 44785
L56064 44814
L56045 44871
L56026 44900
L55988 44928
L55911 44928
L55873 44957
L55854 44985
L55835 45042
L55835 45157
L55854 45214
L55873 45242
L55911 45271
L55988 45271
L56026 45242
L56045 45214
L56064 45157
L56064 45042
L56045 44985
L56026 44957
L55988 44928
" />
<path d="M48454 48271
L48454 47671
L48550 47671
L48607 47700
L48645 47757
L48664 47814
L48683 47928
L48683 48014
L48664 48128
L48645 48185
L48607 48242
L48550 48271
L48454 48271
" />
<path d="M49064 48271
L48835 48271
" />
<path d="M48950 48271
L48950 47671
L48911 47757
L48873 47814
L48835 47842
" />
<path d="M55454 46771
L55454 46171
L55550 46171
L55607 46200
L55645 46257
L55664 46314
L55683 46428
L55683 46514
L55664 46628
L55645 46685
L55607 46742
L55550 46771
L55454 46771
" />
<path d="M55873 46771
L55950 46771
L55988 46742
L56007 46714
L56045 46628
L56064 46514
L56064 46285
L56045 46228
L56026 46200
L55988 46171
L55911 46171
L55873 46200
L55854 46228
L55835 46285
L55835 46428
L55854 46485
L55873 46514
L55911 46542
L55988 46542
L56026 46514
L56045 46485
L56064 46428
" />
<path d="M55454 48271
L55454 47671
L55550 47671
L55607 47700
L55645 47757
L55664 47814
L55683 47928
L55683 48014
L55664 48128
L55645 48185
L55607 48242
L55550 48271
L55454 48271
" />
<path d="M55816 47671
L56083 47671
L55911 48271
" />
</g>
<g style="fill:#000000; fill-opacity:0.0; 
stroke:#000000; stroke-width:80; stroke-opacity:1; 
stroke-linecap:round; stroke-linejoin:round;">
<path d="M60998 36083
L60736 36250
" />
<path d="M60998 36369
L60448 36369
L60448 36178
L60475 36130
L60501 36107
L60553 36083
L60632 36083
L60684 36107
L60710 36130
L60736 36178
L60736 36369
" />
<path d="M60998 35607
L60998 35892
" />
<path d="M60998 35750
L60448 35750
L60527 35797
L60579 35845
L60605 35892
" />
<path d="M65345 33453
L65573 33453
" />
<path d="M65459 33903
L65459 33453
" />
<path d="M65688 33496
L65707 33475
L65745 33453
L65840 33453
L65878 33475
L65897 33496
L65916 33539
L65916 33582
L65897 33646
L65669 33903
L65916 33903
" />
<path d="M60480 33154
L60480 32926
" />
<path d="M60880 33040
L60480 33040
" />
<path d="M60880 32583
L60880 32811
" />
<path d="M60880 32697
L60480 32697
L60538 32735
L60576 32773
L60595 32811
" />
</g>
<g style="fill:#000000; fill-opacity:0.0; 
stroke:#000000; stroke-width:100; stroke-opacity:1; 
stroke-linecap:round; stroke-linejoin:round;">
<path d="M64764 41771
L64764 41171
L64859 41171
L64916 41200
L64954 41257
L64973 41314
L64992 41428
L64992 41514
L64973 41628
L64954 41685
L64916 41742
L64859 41771
L64764 41771
" />
<path d="M65373 41771
L65145 41771
" />
<path d="M65259 41771
L65259 41171
L65221 41257
L65183 41314
L65145 41342
" />
<path d="M65507 41171
L65773 41171
L65602 41771
" />
<path d="M64764 43271
L64764 42671
L64859 42671
L64916 42700
L64954 42757
L64973 42814
L64992 42928
L64992 43014
L64973 43128
L64954 43185
L64916 43242
L64859 43271
L64764 43271
" />
<path d="M65373 43271
L65145 43271
" />
<path d="M65259 43271
L65259 42671
L65221 42757
L65183 42814
L65145 42842
" />
<path d="M65716 42671
L65640 42671
L65602 42700
L65583 42728
L65545 42814
L65526 42928
L65526 43157
L65545 43214
L65564 43242
L65602 43271
L65678 43271
L65716 43242
L65735 43214
L65754 43157
L65754 43014
L65735 42957
L65716 42928
L65678 42900
L65602 42900
L65564 42928
L65545 42957
L65526 43014
" />
<path d="M64764 44771
L64764 44171
L64859 44171
L64916 44200
L64954 44257
L64973 44314
L64992 44428
L64992 44514
L64973 44628
L64954 44685
L64916 44742
L64859 44771
L64764 44771
" />
<path d="M65373 44771
L65145 44771
" />
<path d="M65259 44771
L65259 44171
L65221 44257
L65183 44314
L65145 44342
" />
<path d="M65735 44171
L65545 44171
L65526 44457
L65545 44428
L65583 44400
L65678 44400
L65716 44428
L65735 44457
L65754 44514
L65754 44657
L65735 44714
L65716 44742
L65678 44771
L65583 44771
L65545 44742
L65526 44714
" />
<path d="M64764 46271
L64764 45671
L64859 45671
L64916 45700
L64954 45757
L64973 45814
L64992 45928
L64992 46014
L64973 46128
L64954 46185
L64916 46242
L64859 46271
L64764 46271
" />
<path d="M65373 46271
L65145 46271
" />
<path d="M65259 46271
L65259 45671
L65221 45757
L65183 45814
L65145 45842
" />
<path d="M65716 45871
L65716 46271
" />
<path d="M65621 45642
L65526 46071
L65773 46071
" />
<path d="M64764 47771
L64764 47171
L64859 47171
L64916 47200
L64954 47257
L64973 47314
L64992 47428
L64992 47514
L64973 47628
L64954 47685
L64916 47742
L64859 47771
L64764 47771
" />
<path d="M65373 47771
L65145 47771
" />
<path d="M65259 47771
L65259 47171
L65221 47257
L65183 47314
L65145 47342
" />
<path d="M65507 47171
L65754 47171
L65621 47400
L65678 47400
L65716 47428
L65735 47457
L65754 47514
L65754 47657
L65735 47714
L65716 47742
L65678 47771
L65564 47771
L65526 47742
L65507 47714
" />
<path d="M55264 31271
L55264 30671
L55359 30671
L55416 30700
L55454 30757
L55473 30814
L55492 30928
L55492 31014
L55473 31128
L55454 31185
L55416 31242
L55359 31271
L55264 31271
" />
<path d="M55873 31271
L55645 31271
" />
<path d="M55759 31271
L55759 30671
L55721 30757
L55683 30814
L55645 30842
" />
<path d="M56026 30728
L56045 30700
L56083 30671
L56178 30671
L56216 30700
L56235 30728
L56254 30785
L56254 30842
L56235 30928
L56007 31271
L56254 31271
" />
<path d="M64764 40271
L64764 39671
L64859 39671
L64916 39700
L64954 39757
L64973 39814
L64992 39928
L64992 40014
L64973 40128
L64954 40185
L64916 40242
L64859 40271
L64764 40271
" />
<path d="M65373 40271
L65145 40271
" />
<path d="M65259 40271
L65259 39671
L65221 39757
L65183 39814
L65145 39842
" />
<path d="M65602 39928
L65564 39900
L65545 39871
L65526 39814
L65526 39785
L65545 39728
L65564 39700
L65602 39671
L65678 39671
L65716 39700
L65735 39728
L65754 39785
L65754 39814
L65735 39871
L65716 39900
L65678 39928
L65602 39928
L65564 39957
L65545 39985
L65526 40042
L65526 40157
L65545 40214
L65564 40242
L65602 40271
L65678 40271
L65716 40242
L65735 40214
L65754 40157
L65754 40042
L65735 39985
L65716 39957
L65678 39928
" />
<path d="M63928 36821
L63952 36845
L63976 36916
L63976 36964
L63952 37035
L63904 37083
L63857 37107
L63761 37130
L63690 37130
L63595 37107
L63547 37083
L63500 37035
L63476 36964
L63476 36916
L63500 36845
L63523 36821
" />
<path d="M63976 36345
L63976 36630
" />
<path d="M63976 36488
L63476 36488
L63547 36535
L63595 36583
L63619 36630
" />
<path d="M63476 35892
L63476 36130
L63714 36154
L63690 36130
L63666 36083
L63666 35964
L63690 35916
L63714 35892
L63761 35869
L63880 35869
L63928 35892
L63952 35916
L63976 35964
L63976 36083
L63952 36130
L63928 36154
" />
</g> 
</svg>
