<?xml version="1.0" standalone="no"?>
 <!DOCTYPE svg PUBLIC "-//W3C//DTD SVG 1.1//EN" 
 "http://www.w3.org/Graphics/SVG/1.1/DTD/svg11.dtd"> 
<svg xmlns="http://www.w3.org/2000/svg" version="1.1" 
    width="29.7002cm" height="21.0007cm" viewBox="0 0 116930 82680 ">
<title>SVG Picture created as ctt_dp-F.SilkS.svg date 2022/09/04 20:25:28 </title>
  <desc>Picture generated by PCBNEW </desc>
<g style="fill:#000000; fill-opacity:1;stroke:#000000; stroke-opacity:1;
stroke-linecap:round; stroke-linejoin:round; "
 transform="translate(0 0) scale(1 1)">
</g>
<g style="fill:#000000; fill-opacity:0.0; 
stroke:#000000; stroke-width:-0.000393701; stroke-opacity:1; 
stroke-linecap:round; stroke-linejoin:round;">
</g>
<g style="fill:#000000; fill-opacity:0.0; 
stroke:#000000; stroke-width:39.3701; stroke-opacity:1; 
stroke-linecap:round; stroke-linejoin:round;">
</g>
<g style="fill:#000000; fill-opacity:0.0; 
stroke:#000000; stroke-width:59.0551; stroke-opacity:1; 
stroke-linecap:round; stroke-linejoin:round;">
<rect x="69685.9" y="65357.2" width="42519.7" height="12598.4" rx="0" />
</g>
<g style="fill:#000000; fill-opacity:0.0; 
stroke:#000000; stroke-width:39.3701; stroke-opacity:1; 
stroke-linecap:round; stroke-linejoin:round;">
</g>
<g style="fill:#000000; fill-opacity:0.0; 
stroke:#000000; stroke-width:59.0551; stroke-opacity:1; 
stroke-linecap:round; stroke-linejoin:round;">
<rect x="3937.01" y="3937.01" width="109056" height="74806" rx="0" />
</g>
<g style="fill:#000000; fill-opacity:0.0; 
stroke:#000000; stroke-width:39.3701; stroke-opacity:1; 
stroke-linecap:round; stroke-linejoin:round;">
</g>
<g style="fill:#000000; fill-opacity:0.0; 
stroke:#000000; stroke-width:59.0551; stroke-opacity:1; 
stroke-linecap:round; stroke-linejoin:round;">
<rect x="4724.41" y="4724.41" width="107481" height="73231.2" rx="0" />
</g>
<g style="fill:#000000; fill-opacity:0.0; 
stroke:#000000; stroke-width:39.3701; stroke-opacity:1; 
stroke-linecap:round; stroke-linejoin:round;">
</g>
<g style="fill:#000000; fill-opacity:0.0; 
stroke:#000000; stroke-width:59.0551; stroke-opacity:1; 
stroke-linecap:round; stroke-linejoin:round;">
<path d="M23622 4724
L23622 3937
" />
</g>
<g style="fill:#000000; fill-opacity:0.0; 
stroke:#000000; stroke-width:39.3701; stroke-opacity:1; 
stroke-linecap:round; stroke-linejoin:round;">
</g>
<g style="fill:#000000; fill-opacity:0.0; 
stroke:#000000; stroke-width:59.0551; stroke-opacity:1; 
stroke-linecap:round; stroke-linejoin:round;">
<path d="M43307 4724
L43307 3937
" />
</g>
<g style="fill:#000000; fill-opacity:0.0; 
stroke:#000000; stroke-width:39.3701; stroke-opacity:1; 
stroke-linecap:round; stroke-linejoin:round;">
</g>
<g style="fill:#000000; fill-opacity:0.0; 
stroke:#000000; stroke-width:59.0551; stroke-opacity:1; 
stroke-linecap:round; stroke-linejoin:round;">
<path d="M62992 4724
L62992 3937
" />
</g>
<g style="fill:#000000; fill-opacity:0.0; 
stroke:#000000; stroke-width:39.3701; stroke-opacity:1; 
stroke-linecap:round; stroke-linejoin:round;">
</g>
<g style="fill:#000000; fill-opacity:0.0; 
stroke:#000000; stroke-width:59.0551; stroke-opacity:1; 
stroke-linecap:round; stroke-linejoin:round;">
<path d="M82677 4724
L82677 3937
" />
</g>
<g style="fill:#000000; fill-opacity:0.0; 
stroke:#000000; stroke-width:39.3701; stroke-opacity:1; 
stroke-linecap:round; stroke-linejoin:round;">
</g>
<g style="fill:#000000; fill-opacity:0.0; 
stroke:#000000; stroke-width:59.0551; stroke-opacity:1; 
stroke-linecap:round; stroke-linejoin:round;">
<path d="M102362 4724
L102362 3937
" />
</g>
<g style="fill:#000000; fill-opacity:0.0; 
stroke:#000000; stroke-width:39.3701; stroke-opacity:1; 
stroke-linecap:round; stroke-linejoin:round;">
</g>
<g style="fill:#000000; fill-opacity:0.0; 
stroke:#000000; stroke-width:59.0551; stroke-opacity:1; 
stroke-linecap:round; stroke-linejoin:round;">
<path d="M14169 4562
L13877 4562
" />
<path d="M14023 4562
L14023 4050
L13974 4123
L13925 4172
L13877 4196
" />
</g>
<g style="fill:#000000; fill-opacity:0.0; 
stroke:#000000; stroke-width:39.3701; stroke-opacity:1; 
stroke-linecap:round; stroke-linejoin:round;">
</g>
<g style="fill:#000000; fill-opacity:0.0; 
stroke:#000000; stroke-width:59.0551; stroke-opacity:1; 
stroke-linecap:round; stroke-linejoin:round;">
<path d="M33562 4099
L33586 4074
L33635 4050
L33757 4050
L33805 4074
L33830 4099
L33854 4147
L33854 4196
L33830 4269
L33537 4562
L33854 4562
" />
</g>
<g style="fill:#000000; fill-opacity:0.0; 
stroke:#000000; stroke-width:39.3701; stroke-opacity:1; 
stroke-linecap:round; stroke-linejoin:round;">
</g>
<g style="fill:#000000; fill-opacity:0.0; 
stroke:#000000; stroke-width:59.0551; stroke-opacity:1; 
stroke-linecap:round; stroke-linejoin:round;">
<path d="M53222 4050
L53539 4050
L53368 4245
L53442 4245
L53490 4269
L53515 4294
L53539 4342
L53539 4464
L53515 4513
L53490 4537
L53442 4562
L53295 4562
L53247 4537
L53222 4513
" />
</g>
<g style="fill:#000000; fill-opacity:0.0; 
stroke:#000000; stroke-width:39.3701; stroke-opacity:1; 
stroke-linecap:round; stroke-linejoin:round;">
</g>
<g style="fill:#000000; fill-opacity:0.0; 
stroke:#000000; stroke-width:59.0551; stroke-opacity:1; 
stroke-linecap:round; stroke-linejoin:round;">
<path d="M73175 4221
L73175 4562
" />
<path d="M73053 4026
L72932 4391
L73248 4391
" />
</g>
<g style="fill:#000000; fill-opacity:0.0; 
stroke:#000000; stroke-width:39.3701; stroke-opacity:1; 
stroke-linecap:round; stroke-linejoin:round;">
</g>
<g style="fill:#000000; fill-opacity:0.0; 
stroke:#000000; stroke-width:59.0551; stroke-opacity:1; 
stroke-linecap:round; stroke-linejoin:round;">
<path d="M92885 4050
L92641 4050
L92617 4294
L92641 4269
L92690 4245
L92812 4245
L92860 4269
L92885 4294
L92909 4342
L92909 4464
L92885 4513
L92860 4537
L92812 4562
L92690 4562
L92641 4537
L92617 4513
" />
</g>
<g style="fill:#000000; fill-opacity:0.0; 
stroke:#000000; stroke-width:39.3701; stroke-opacity:1; 
stroke-linecap:round; stroke-linejoin:round;">
</g>
<g style="fill:#000000; fill-opacity:0.0; 
stroke:#000000; stroke-width:59.0551; stroke-opacity:1; 
stroke-linecap:round; stroke-linejoin:round;">
<path d="M112545 4050
L112448 4050
L112399 4074
L112375 4099
L112326 4172
L112302 4269
L112302 4464
L112326 4513
L112350 4537
L112399 4562
L112497 4562
L112545 4537
L112570 4513
L112594 4464
L112594 4342
L112570 4294
L112545 4269
L112497 4245
L112399 4245
L112350 4269
L112326 4294
L112302 4342
" />
</g>
<g style="fill:#000000; fill-opacity:0.0; 
stroke:#000000; stroke-width:39.3701; stroke-opacity:1; 
stroke-linecap:round; stroke-linejoin:round;">
</g>
<g style="fill:#000000; fill-opacity:0.0; 
stroke:#000000; stroke-width:59.0551; stroke-opacity:1; 
stroke-linecap:round; stroke-linejoin:round;">
<path d="M23622 77955
L23622 78742
" />
</g>
<g style="fill:#000000; fill-opacity:0.0; 
stroke:#000000; stroke-width:39.3701; stroke-opacity:1; 
stroke-linecap:round; stroke-linejoin:round;">
</g>
<g style="fill:#000000; fill-opacity:0.0; 
stroke:#000000; stroke-width:59.0551; stroke-opacity:1; 
stroke-linecap:round; stroke-linejoin:round;">
<path d="M43307 77955
L43307 78742
" />
</g>
<g style="fill:#000000; fill-opacity:0.0; 
stroke:#000000; stroke-width:39.3701; stroke-opacity:1; 
stroke-linecap:round; stroke-linejoin:round;">
</g>
<g style="fill:#000000; fill-opacity:0.0; 
stroke:#000000; stroke-width:59.0551; stroke-opacity:1; 
stroke-linecap:round; stroke-linejoin:round;">
<path d="M62992 77955
L62992 78742
" />
</g>
<g style="fill:#000000; fill-opacity:0.0; 
stroke:#000000; stroke-width:39.3701; stroke-opacity:1; 
stroke-linecap:round; stroke-linejoin:round;">
</g>
<g style="fill:#000000; fill-opacity:0.0; 
stroke:#000000; stroke-width:59.0551; stroke-opacity:1; 
stroke-linecap:round; stroke-linejoin:round;">
<path d="M82677 77955
L82677 78742
" />
</g>
<g style="fill:#000000; fill-opacity:0.0; 
stroke:#000000; stroke-width:39.3701; stroke-opacity:1; 
stroke-linecap:round; stroke-linejoin:round;">
</g>
<g style="fill:#000000; fill-opacity:0.0; 
stroke:#000000; stroke-width:59.0551; stroke-opacity:1; 
stroke-linecap:round; stroke-linejoin:round;">
<path d="M102362 77955
L102362 78742
" />
</g>
<g style="fill:#000000; fill-opacity:0.0; 
stroke:#000000; stroke-width:39.3701; stroke-opacity:1; 
stroke-linecap:round; stroke-linejoin:round;">
</g>
<g style="fill:#000000; fill-opacity:0.0; 
stroke:#000000; stroke-width:59.0551; stroke-opacity:1; 
stroke-linecap:round; stroke-linejoin:round;">
<path d="M14169 78580
L13877 78580
" />
<path d="M14023 78580
L14023 78069
L13974 78142
L13925 78190
L13877 78215
" />
</g>
<g style="fill:#000000; fill-opacity:0.0; 
stroke:#000000; stroke-width:39.3701; stroke-opacity:1; 
stroke-linecap:round; stroke-linejoin:round;">
</g>
<g style="fill:#000000; fill-opacity:0.0; 
stroke:#000000; stroke-width:59.0551; stroke-opacity:1; 
stroke-linecap:round; stroke-linejoin:round;">
<path d="M33562 78117
L33586 78093
L33635 78069
L33757 78069
L33805 78093
L33830 78117
L33854 78166
L33854 78215
L33830 78288
L33537 78580
L33854 78580
" />
</g>
<g style="fill:#000000; fill-opacity:0.0; 
stroke:#000000; stroke-width:39.3701; stroke-opacity:1; 
stroke-linecap:round; stroke-linejoin:round;">
</g>
<g style="fill:#000000; fill-opacity:0.0; 
stroke:#000000; stroke-width:59.0551; stroke-opacity:1; 
stroke-linecap:round; stroke-linejoin:round;">
<path d="M53222 78069
L53539 78069
L53368 78263
L53442 78263
L53490 78288
L53515 78312
L53539 78361
L53539 78483
L53515 78532
L53490 78556
L53442 78580
L53295 78580
L53247 78556
L53222 78532
" />
</g>
<g style="fill:#000000; fill-opacity:0.0; 
stroke:#000000; stroke-width:39.3701; stroke-opacity:1; 
stroke-linecap:round; stroke-linejoin:round;">
</g>
<g style="fill:#000000; fill-opacity:0.0; 
stroke:#000000; stroke-width:59.0551; stroke-opacity:1; 
stroke-linecap:round; stroke-linejoin:round;">
<path d="M73175 78239
L73175 78580
" />
<path d="M73053 78044
L72932 78410
L73248 78410
" />
</g>
<g style="fill:#000000; fill-opacity:0.0; 
stroke:#000000; stroke-width:39.3701; stroke-opacity:1; 
stroke-linecap:round; stroke-linejoin:round;">
</g>
<g style="fill:#000000; fill-opacity:0.0; 
stroke:#000000; stroke-width:59.0551; stroke-opacity:1; 
stroke-linecap:round; stroke-linejoin:round;">
<path d="M92885 78069
L92641 78069
L92617 78312
L92641 78288
L92690 78263
L92812 78263
L92860 78288
L92885 78312
L92909 78361
L92909 78483
L92885 78532
L92860 78556
L92812 78580
L92690 78580
L92641 78556
L92617 78532
" />
</g>
<g style="fill:#000000; fill-opacity:0.0; 
stroke:#000000; stroke-width:39.3701; stroke-opacity:1; 
stroke-linecap:round; stroke-linejoin:round;">
</g>
<g style="fill:#000000; fill-opacity:0.0; 
stroke:#000000; stroke-width:59.0551; stroke-opacity:1; 
stroke-linecap:round; stroke-linejoin:round;">
<path d="M112545 78069
L112448 78069
L112399 78093
L112375 78117
L112326 78190
L112302 78288
L112302 78483
L112326 78532
L112350 78556
L112399 78580
L112497 78580
L112545 78556
L112570 78532
L112594 78483
L112594 78361
L112570 78312
L112545 78288
L112497 78263
L112399 78263
L112350 78288
L112326 78312
L112302 78361
" />
</g>
<g style="fill:#000000; fill-opacity:0.0; 
stroke:#000000; stroke-width:39.3701; stroke-opacity:1; 
stroke-linecap:round; stroke-linejoin:round;">
</g>
<g style="fill:#000000; fill-opacity:0.0; 
stroke:#000000; stroke-width:59.0551; stroke-opacity:1; 
stroke-linecap:round; stroke-linejoin:round;">
<path d="M3937 23622
L4724 23622
" />
</g>
<g style="fill:#000000; fill-opacity:0.0; 
stroke:#000000; stroke-width:39.3701; stroke-opacity:1; 
stroke-linecap:round; stroke-linejoin:round;">
</g>
<g style="fill:#000000; fill-opacity:0.0; 
stroke:#000000; stroke-width:59.0551; stroke-opacity:1; 
stroke-linecap:round; stroke-linejoin:round;">
<path d="M3937 43307
L4724 43307
" />
</g>
<g style="fill:#000000; fill-opacity:0.0; 
stroke:#000000; stroke-width:39.3701; stroke-opacity:1; 
stroke-linecap:round; stroke-linejoin:round;">
</g>
<g style="fill:#000000; fill-opacity:0.0; 
stroke:#000000; stroke-width:59.0551; stroke-opacity:1; 
stroke-linecap:round; stroke-linejoin:round;">
<path d="M3937 62992
L4724 62992
" />
</g>
<g style="fill:#000000; fill-opacity:0.0; 
stroke:#000000; stroke-width:39.3701; stroke-opacity:1; 
stroke-linecap:round; stroke-linejoin:round;">
</g>
<g style="fill:#000000; fill-opacity:0.0; 
stroke:#000000; stroke-width:59.0551; stroke-opacity:1; 
stroke-linecap:round; stroke-linejoin:round;">
<path d="M4208 13864
L4452 13864
" />
<path d="M4160 14011
L4330 13499
L4501 14011
" />
</g>
<g style="fill:#000000; fill-opacity:0.0; 
stroke:#000000; stroke-width:39.3701; stroke-opacity:1; 
stroke-linecap:round; stroke-linejoin:round;">
</g>
<g style="fill:#000000; fill-opacity:0.0; 
stroke:#000000; stroke-width:59.0551; stroke-opacity:1; 
stroke-linecap:round; stroke-linejoin:round;">
<path d="M4367 33428
L4440 33452
L4464 33476
L4489 33525
L4489 33598
L4464 33647
L4440 33671
L4391 33696
L4196 33696
L4196 33184
L4367 33184
L4416 33208
L4440 33233
L4464 33281
L4464 33330
L4440 33379
L4416 33403
L4367 33428
L4196 33428
" />
</g>
<g style="fill:#000000; fill-opacity:0.0; 
stroke:#000000; stroke-width:39.3701; stroke-opacity:1; 
stroke-linecap:round; stroke-linejoin:round;">
</g>
<g style="fill:#000000; fill-opacity:0.0; 
stroke:#000000; stroke-width:59.0551; stroke-opacity:1; 
stroke-linecap:round; stroke-linejoin:round;">
<path d="M4489 53332
L4464 53356
L4391 53381
L4342 53381
L4269 53356
L4221 53308
L4196 53259
L4172 53161
L4172 53088
L4196 52991
L4221 52942
L4269 52893
L4342 52869
L4391 52869
L4464 52893
L4489 52918
" />
</g>
<g style="fill:#000000; fill-opacity:0.0; 
stroke:#000000; stroke-width:39.3701; stroke-opacity:1; 
stroke-linecap:round; stroke-linejoin:round;">
</g>
<g style="fill:#000000; fill-opacity:0.0; 
stroke:#000000; stroke-width:59.0551; stroke-opacity:1; 
stroke-linecap:round; stroke-linejoin:round;">
<path d="M4196 73066
L4196 72554
L4318 72554
L4391 72578
L4440 72627
L4464 72676
L4489 72773
L4489 72846
L4464 72944
L4440 72993
L4391 73041
L4318 73066
L4196 73066
" />
</g>
<g style="fill:#000000; fill-opacity:0.0; 
stroke:#000000; stroke-width:39.3701; stroke-opacity:1; 
stroke-linecap:round; stroke-linejoin:round;">
</g>
<g style="fill:#000000; fill-opacity:0.0; 
stroke:#000000; stroke-width:59.0551; stroke-opacity:1; 
stroke-linecap:round; stroke-linejoin:round;">
<path d="M112992 23622
L112205 23622
" />
</g>
<g style="fill:#000000; fill-opacity:0.0; 
stroke:#000000; stroke-width:39.3701; stroke-opacity:1; 
stroke-linecap:round; stroke-linejoin:round;">
</g>
<g style="fill:#000000; fill-opacity:0.0; 
stroke:#000000; stroke-width:59.0551; stroke-opacity:1; 
stroke-linecap:round; stroke-linejoin:round;">
<path d="M112992 43307
L112205 43307
" />
</g>
<g style="fill:#000000; fill-opacity:0.0; 
stroke:#000000; stroke-width:39.3701; stroke-opacity:1; 
stroke-linecap:round; stroke-linejoin:round;">
</g>
<g style="fill:#000000; fill-opacity:0.0; 
stroke:#000000; stroke-width:59.0551; stroke-opacity:1; 
stroke-linecap:round; stroke-linejoin:round;">
<path d="M112992 62992
L112205 62992
" />
</g>
<g style="fill:#000000; fill-opacity:0.0; 
stroke:#000000; stroke-width:39.3701; stroke-opacity:1; 
stroke-linecap:round; stroke-linejoin:round;">
</g>
<g style="fill:#000000; fill-opacity:0.0; 
stroke:#000000; stroke-width:59.0551; stroke-opacity:1; 
stroke-linecap:round; stroke-linejoin:round;">
<path d="M112477 13864
L112721 13864
" />
<path d="M112428 14011
L112599 13499
L112769 14011
" />
</g>
<g style="fill:#000000; fill-opacity:0.0; 
stroke:#000000; stroke-width:39.3701; stroke-opacity:1; 
stroke-linecap:round; stroke-linejoin:round;">
</g>
<g style="fill:#000000; fill-opacity:0.0; 
stroke:#000000; stroke-width:59.0551; stroke-opacity:1; 
stroke-linecap:round; stroke-linejoin:round;">
<path d="M112635 33428
L112708 33452
L112733 33476
L112757 33525
L112757 33598
L112733 33647
L112708 33671
L112660 33696
L112465 33696
L112465 33184
L112635 33184
L112684 33208
L112708 33233
L112733 33281
L112733 33330
L112708 33379
L112684 33403
L112635 33428
L112465 33428
" />
</g>
<g style="fill:#000000; fill-opacity:0.0; 
stroke:#000000; stroke-width:39.3701; stroke-opacity:1; 
stroke-linecap:round; stroke-linejoin:round;">
</g>
<g style="fill:#000000; fill-opacity:0.0; 
stroke:#000000; stroke-width:59.0551; stroke-opacity:1; 
stroke-linecap:round; stroke-linejoin:round;">
<path d="M112757 53332
L112733 53356
L112660 53381
L112611 53381
L112538 53356
L112489 53308
L112465 53259
L112440 53161
L112440 53088
L112465 52991
L112489 52942
L112538 52893
L112611 52869
L112660 52869
L112733 52893
L112757 52918
" />
</g>
<g style="fill:#000000; fill-opacity:0.0; 
stroke:#000000; stroke-width:39.3701; stroke-opacity:1; 
stroke-linecap:round; stroke-linejoin:round;">
</g>
<g style="fill:#000000; fill-opacity:0.0; 
stroke:#000000; stroke-width:59.0551; stroke-opacity:1; 
stroke-linecap:round; stroke-linejoin:round;">
<path d="M112465 73066
L112465 72554
L112587 72554
L112660 72578
L112708 72627
L112733 72676
L112757 72773
L112757 72846
L112733 72944
L112708 72993
L112660 73041
L112587 73066
L112465 73066
" />
</g>
<g style="fill:#000000; fill-opacity:0.0; 
stroke:#000000; stroke-width:39.3701; stroke-opacity:1; 
stroke-linecap:round; stroke-linejoin:round;">
</g>
<g style="fill:#000000; fill-opacity:0.0; 
stroke:#000000; stroke-width:59.0551; stroke-opacity:1; 
stroke-linecap:round; stroke-linejoin:round;">
<path d="M78881 76293
L78881 75703
L79022 75703
L79106 75731
L79162 75787
L79190 75843
L79219 75956
L79219 76040
L79190 76153
L79162 76209
L79106 76265
L79022 76293
L78881 76293
" />
<path d="M79725 76293
L79725 75984
L79697 75928
L79640 75899
L79528 75899
L79472 75928
" />
<path d="M79725 76265
L79669 76293
L79528 76293
L79472 76265
L79444 76209
L79444 76153
L79472 76096
L79528 76068
L79669 76068
L79725 76040
" />
<path d="M79922 75899
L80147 75899
" />
<path d="M80006 75703
L80006 76209
L80034 76265
L80090 76293
L80147 76293
" />
<path d="M80568 76265
L80512 76293
L80400 76293
L80343 76265
L80315 76209
L80315 75984
L80343 75928
L80400 75899
L80512 75899
L80568 75928
L80597 75984
L80597 76040
L80315 76096
" />
<path d="M80850 76237
L80878 76265
L80850 76293
L80822 76265
L80850 76237
L80850 76293
" />
<path d="M80850 75928
L80878 75956
L80850 75984
L80822 75956
L80850 75928
L80850 75984
" />
<path d="M81553 75759
L81581 75731
L81637 75703
L81778 75703
L81834 75731
L81862 75759
L81890 75815
L81890 75871
L81862 75956
L81525 76293
L81890 76293
" />
<path d="M82396 75899
L82396 76293
" />
<path d="M82256 75674
L82115 76096
L82481 76096
" />
<path d="M83409 76293
L83409 75703
" />
<path d="M83409 76265
L83352 76293
L83240 76293
L83184 76265
L83156 76237
L83127 76181
L83127 76012
L83156 75956
L83184 75928
L83240 75899
L83352 75899
L83409 75928
" />
<path d="M83915 76265
L83859 76293
L83746 76293
L83690 76265
L83662 76209
L83662 75984
L83690 75928
L83746 75899
L83859 75899
L83915 75928
L83943 75984
L83943 76040
L83662 76096
" />
<path d="M84449 76265
L84393 76293
L84280 76293
L84224 76265
L84196 76237
L84168 76181
L84168 76012
L84196 75956
L84224 75928
L84280 75899
L84393 75899
L84449 75928
" />
<path d="M85124 75759
L85152 75731
L85208 75703
L85349 75703
L85405 75731
L85433 75759
L85462 75815
L85462 75871
L85433 75956
L85096 76293
L85462 76293
" />
<path d="M85827 75703
L85883 75703
L85940 75731
L85968 75759
L85996 75815
L86024 75928
L86024 76068
L85996 76181
L85968 76237
L85940 76265
L85883 76293
L85827 76293
L85771 76265
L85743 76237
L85715 76181
L85687 76068
L85687 75928
L85715 75815
L85743 75759
L85771 75731
L85827 75703
" />
<path d="M86586 76293
L86249 76293
" />
<path d="M86418 76293
L86418 75703
L86361 75787
L86305 75843
L86249 75871
" />
<path d="M86952 75703
L87008 75703
L87064 75731
L87093 75759
L87121 75815
L87149 75928
L87149 76068
L87121 76181
L87093 76237
L87064 76265
L87008 76293
L86952 76293
L86896 76265
L86868 76237
L86840 76181
L86811 76068
L86811 75928
L86840 75815
L86868 75759
L86896 75731
L86952 75703
" />
</g>
<g style="fill:#000000; fill-opacity:0.0; 
stroke:#000000; stroke-width:39.3701; stroke-opacity:1; 
stroke-linecap:round; stroke-linejoin:round;">
</g>
<g style="fill:#000000; fill-opacity:0.0; 
stroke:#000000; stroke-width:59.0551; stroke-opacity:1; 
stroke-linecap:round; stroke-linejoin:round;">
<path d="M69685 76577
L112205 76577
" />
</g>
<g style="fill:#000000; fill-opacity:0.0; 
stroke:#000000; stroke-width:39.3701; stroke-opacity:1; 
stroke-linecap:round; stroke-linejoin:round;">
</g>
<g style="fill:#000000; fill-opacity:0.0; 
stroke:#000000; stroke-width:59.0551; stroke-opacity:1; 
stroke-linecap:round; stroke-linejoin:round;">
<path d="M70220 77395
L70220 76805
" />
<path d="M70557 77395
L70304 77058
" />
<path d="M70557 76805
L70220 77142
" />
<path d="M70810 77395
L70810 77002
" />
<path d="M70810 76805
L70782 76833
L70810 76861
L70838 76833
L70810 76805
L70810 76861
" />
<path d="M71429 77339
L71401 77367
L71316 77395
L71260 77395
L71176 77367
L71120 77311
L71091 77255
L71063 77142
L71063 77058
L71091 76946
L71120 76889
L71176 76833
L71260 76805
L71316 76805
L71401 76833
L71429 76861
" />
<path d="M71935 77395
L71935 77086
L71907 77030
L71851 77002
L71738 77002
L71682 77030
" />
<path d="M71935 77367
L71879 77395
L71738 77395
L71682 77367
L71654 77311
L71654 77255
L71682 77199
L71738 77171
L71879 77171
L71935 77142
" />
<path d="M72469 77395
L72469 76805
" />
<path d="M72469 77367
L72413 77395
L72301 77395
L72244 77367
L72216 77339
L72188 77283
L72188 77114
L72216 77058
L72244 77030
L72301 77002
L72413 77002
L72469 77030
" />
<path d="M73201 77086
L73397 77086
" />
<path d="M73482 77395
L73201 77395
L73201 76805
L73482 76805
" />
<path d="M73735 77339
L73763 77367
L73735 77395
L73707 77367
L73735 77339
L73735 77395
" />
<path d="M74016 77395
L74016 76805
L74157 76805
L74241 76833
L74297 76889
L74325 76946
L74354 77058
L74354 77142
L74325 77255
L74297 77311
L74241 77367
L74157 77395
L74016 77395
" />
<path d="M74607 77339
L74635 77367
L74607 77395
L74579 77367
L74607 77339
L74607 77395
" />
<path d="M74860 77227
L75141 77227
" />
<path d="M74804 77395
L75000 76805
L75197 77395
" />
<path d="M75394 77339
L75422 77367
L75394 77395
L75366 77367
L75394 77339
L75394 77395
" />
<path d="M76575 77002
L76575 77592
" />
<path d="M76575 77030
L76631 77002
L76744 77002
L76800 77030
L76828 77058
L76856 77114
L76856 77283
L76828 77339
L76800 77367
L76744 77395
L76631 77395
L76575 77367
" />
<path d="M77363 77367
L77306 77395
L77194 77395
L77138 77367
L77109 77339
L77081 77283
L77081 77114
L77109 77058
L77138 77030
L77194 77002
L77306 77002
L77363 77030
" />
<path d="M77616 77395
L77616 76805
" />
<path d="M77616 77030
L77672 77002
L77784 77002
L77841 77030
L77869 77058
L77897 77114
L77897 77283
L77869 77339
L77841 77367
L77784 77395
L77672 77395
L77616 77367
" />
<path d="M78150 77002
L78150 77395
" />
<path d="M78150 77058
L78178 77030
L78234 77002
L78319 77002
L78375 77030
L78403 77086
L78403 77395
" />
<path d="M78909 77367
L78853 77395
L78741 77395
L78684 77367
L78656 77311
L78656 77086
L78684 77030
L78741 77002
L78853 77002
L78909 77030
L78937 77086
L78937 77142
L78656 77199
" />
<path d="M79134 77002
L79247 77395
L79359 77114
L79472 77395
L79584 77002
" />
<path d="M80512 77002
L80512 77395
" />
<path d="M80372 76777
L80231 77199
L80597 77199
" />
<path d="M80822 77339
L80850 77367
L80822 77395
L80793 77367
L80822 77339
L80822 77395
" />
<path d="M81215 76805
L81271 76805
L81328 76833
L81356 76861
L81384 76917
L81412 77030
L81412 77171
L81384 77283
L81356 77339
L81328 77367
L81271 77395
L81215 77395
L81159 77367
L81131 77339
L81103 77283
L81075 77171
L81075 77030
L81103 76917
L81131 76861
L81159 76833
L81215 76805
" />
<path d="M81665 77339
L81693 77367
L81665 77395
L81637 77367
L81665 77339
L81665 77395
" />
<path d="M82228 76805
L81946 76805
L81918 77086
L81946 77058
L82003 77030
L82143 77030
L82199 77058
L82228 77086
L82256 77142
L82256 77283
L82228 77339
L82199 77367
L82143 77395
L82003 77395
L81946 77367
L81918 77339
" />
<path d="M82509 77171
L82959 77171
" />
<path d="M82734 77395
L82734 76946
" />
<path d="M83493 77395
L83493 76805
" />
<path d="M83493 77367
L83437 77395
L83324 77395
L83268 77367
L83240 77339
L83212 77283
L83212 77114
L83240 77058
L83268 77030
L83324 77002
L83437 77002
L83493 77030
" />
<path d="M83690 77002
L83915 77002
" />
<path d="M83774 77395
L83774 76889
L83802 76833
L83859 76805
L83915 76805
" />
<path d="M84084 77367
L84140 77395
L84252 77395
L84309 77367
L84337 77311
L84337 77283
L84309 77227
L84252 77199
L84168 77199
L84112 77171
L84084 77114
L84084 77086
L84112 77030
L84168 77002
L84252 77002
L84309 77030
" />
<path d="M84843 77002
L84843 77480
L84815 77536
L84787 77564
L84730 77592
L84646 77592
L84590 77564
" />
<path d="M84843 77367
L84787 77395
L84674 77395
L84618 77367
L84590 77339
L84562 77283
L84562 77114
L84590 77058
L84618 77030
L84674 77002
L84787 77002
L84843 77030
" />
<path d="M85433 77395
L85096 77395
" />
<path d="M85265 77395
L85265 76805
L85208 76889
L85152 76946
L85096 76974
" />
<path d="M85687 77171
L86136 77171
" />
<path d="M86671 77002
L86671 77395
" />
<path d="M86530 76777
L86390 77199
L86755 77199
" />
<path d="M86980 77171
L87430 77171
" />
<path d="M87205 77395
L87205 76946
" />
<path d="M87964 77395
L87964 76805
" />
<path d="M87964 77367
L87908 77395
L87796 77395
L87739 77367
L87711 77339
L87683 77283
L87683 77114
L87711 77058
L87739 77030
L87796 77002
L87908 77002
L87964 77030
" />
<path d="M88471 77367
L88414 77395
L88302 77395
L88246 77367
L88217 77311
L88217 77086
L88246 77030
L88302 77002
L88414 77002
L88471 77030
L88499 77086
L88499 77142
L88217 77199
" />
<path d="M88752 77395
L88752 76805
" />
<path d="M88752 77030
L88808 77002
L88921 77002
L88977 77030
L89005 77058
L89033 77114
L89033 77283
L89005 77339
L88977 77367
L88921 77395
L88808 77395
L88752 77367
" />
<path d="M89314 77395
L89427 77395
L89483 77367
L89511 77339
L89567 77255
L89595 77142
L89595 76917
L89567 76861
L89539 76833
L89483 76805
L89370 76805
L89314 76833
L89286 76861
L89258 76917
L89258 77058
L89286 77114
L89314 77142
L89370 77171
L89483 77171
L89539 77142
L89567 77114
L89595 77058
" />
<path d="M90102 77002
L90102 77395
" />
<path d="M89849 77002
L89849 77311
L89877 77367
L89933 77395
L90017 77395
L90073 77367
L90102 77339
" />
<path d="M90692 77395
L90355 77395
" />
<path d="M90523 77395
L90523 76805
L90467 76889
L90411 76946
L90355 76974
" />
</g>
<g style="fill:#000000; fill-opacity:0.0; 
stroke:#000000; stroke-width:39.3701; stroke-opacity:1; 
stroke-linecap:round; stroke-linejoin:round;">
</g>
<g style="fill:#000000; fill-opacity:0.0; 
stroke:#000000; stroke-width:59.0551; stroke-opacity:1; 
stroke-linecap:round; stroke-linejoin:round;">
<path d="M69685 75396
L112205 75396
" />
</g>
<g style="fill:#000000; fill-opacity:0.0; 
stroke:#000000; stroke-width:39.3701; stroke-opacity:1; 
stroke-linecap:round; stroke-linejoin:round;">
</g>
<g style="fill:#000000; fill-opacity:0.0; 
stroke:#000000; stroke-width:118.11; stroke-opacity:1; 
stroke-linecap:round; stroke-linejoin:round;">
<path d="M104022 76293
L103825 76012
" />
<path d="M103684 76293
L103684 75703
L103909 75703
L103965 75731
L103994 75759
L104022 75815
L104022 75899
L103994 75956
L103965 75984
L103909 76012
L103684 76012
" />
<path d="M104500 76265
L104444 76293
L104331 76293
L104275 76265
L104247 76209
L104247 75984
L104275 75928
L104331 75899
L104444 75899
L104500 75928
L104528 75984
L104528 76040
L104247 76096
" />
<path d="M104725 75899
L104865 76293
L105006 75899
" />
<path d="M105231 76237
L105259 76265
L105231 76293
L105203 76265
L105231 76237
L105231 76293
" />
<path d="M105231 75928
L105259 75956
L105231 75984
L105203 75956
L105231 75928
L105231 75984
" />
<path d="M106271 76293
L105934 76293
" />
<path d="M106103 76293
L106103 75703
L106046 75787
L105990 75843
L105934 75871
" />
<path d="M106525 76237
L106553 76265
L106525 76293
L106496 76265
L106525 76237
L106525 76293
" />
<path d="M106918 75703
L106974 75703
L107031 75731
L107059 75759
L107087 75815
L107115 75928
L107115 76068
L107087 76181
L107059 76237
L107031 76265
L106974 76293
L106918 76293
L106862 76265
L106834 76237
L106806 76181
L106778 76068
L106778 75928
L106806 75815
L106834 75759
L106862 75731
L106918 75703
" />
</g>
<g style="fill:#000000; fill-opacity:0.0; 
stroke:#000000; stroke-width:39.3701; stroke-opacity:1; 
stroke-linecap:round; stroke-linejoin:round;">
</g>
<g style="fill:#000000; fill-opacity:0.0; 
stroke:#000000; stroke-width:59.0551; stroke-opacity:1; 
stroke-linecap:round; stroke-linejoin:round;">
<path d="M70192 76265
L70276 76293
L70417 76293
L70473 76265
L70501 76237
L70529 76181
L70529 76124
L70501 76068
L70473 76040
L70417 76012
L70304 75984
L70248 75956
L70220 75928
L70192 75871
L70192 75815
L70220 75759
L70248 75731
L70304 75703
L70445 75703
L70529 75731
" />
<path d="M70782 76293
L70782 75899
" />
<path d="M70782 75703
L70754 75731
L70782 75759
L70810 75731
L70782 75703
L70782 75759
" />
<path d="M71007 75899
L71316 75899
L71007 76293
L71316 76293
" />
<path d="M71766 76265
L71710 76293
L71598 76293
L71541 76265
L71513 76209
L71513 75984
L71541 75928
L71598 75899
L71710 75899
L71766 75928
L71795 75984
L71795 76040
L71513 76096
" />
<path d="M72048 76237
L72076 76265
L72048 76293
L72019 76265
L72048 76237
L72048 76293
" />
<path d="M72048 75928
L72076 75956
L72048 75984
L72019 75956
L72048 75928
L72048 75984
" />
<path d="M72751 76124
L73032 76124
" />
<path d="M72694 76293
L72891 75703
L73088 76293
" />
<path d="M73538 75899
L73538 76293
" />
<path d="M73397 75674
L73257 76096
L73622 76096
" />
</g>
<g style="fill:#000000; fill-opacity:0.0; 
stroke:#000000; stroke-width:39.3701; stroke-opacity:1; 
stroke-linecap:round; stroke-linejoin:round;">
</g>
<g style="fill:#000000; fill-opacity:0.0; 
stroke:#000000; stroke-width:59.0551; stroke-opacity:1; 
stroke-linecap:round; stroke-linejoin:round;">
<path d="M103684 77395
L103684 76805
" />
<path d="M104219 77395
L104219 76805
" />
<path d="M104219 77367
L104162 77395
L104050 77395
L103994 77367
L103965 77339
L103937 77283
L103937 77114
L103965 77058
L103994 77030
L104050 77002
L104162 77002
L104219 77030
" />
<path d="M104500 77339
L104528 77367
L104500 77395
L104472 77367
L104500 77339
L104500 77395
" />
<path d="M104500 77030
L104528 77058
L104500 77086
L104472 77058
L104500 77030
L104500 77086
" />
<path d="M105540 77395
L105203 77395
" />
<path d="M105372 77395
L105372 76805
L105315 76889
L105259 76946
L105203 76974
" />
<path d="M106215 76777
L105709 77536
" />
<path d="M106721 77395
L106384 77395
" />
<path d="M106553 77395
L106553 76805
L106496 76889
L106440 76946
L106384 76974
" />
</g>
<g style="fill:#000000; fill-opacity:0.0; 
stroke:#000000; stroke-width:39.3701; stroke-opacity:1; 
stroke-linecap:round; stroke-linejoin:round;">
</g>
<g style="fill:#000000; fill-opacity:0.0; 
stroke:#000000; stroke-width:59.0551; stroke-opacity:1; 
stroke-linecap:round; stroke-linejoin:round;">
<path d="M69685 73821
L112205 73821
" />
</g>
<g style="fill:#000000; fill-opacity:0.0; 
stroke:#000000; stroke-width:39.3701; stroke-opacity:1; 
stroke-linecap:round; stroke-linejoin:round;">
</g>
<g style="fill:#000000; fill-opacity:0.0; 
stroke:#000000; stroke-width:157.48; stroke-opacity:1; 
stroke-linecap:round; stroke-linejoin:round;">
<path d="M70257 74099
L70707 74099
" />
<path d="M70384 74886
L70482 74099
" />
<path d="M70871 74886
L70937 74361
" />
<path d="M70970 74099
L70927 74136
L70960 74174
L71002 74136
L70970 74099
L70960 74174
" />
<path d="M71199 74361
L71499 74361
" />
<path d="M71345 74099
L71260 74774
L71288 74849
L71359 74886
L71434 74886
" />
<path d="M71809 74886
L71738 74849
L71710 74774
L71795 74099
" />
<path d="M72413 74849
L72334 74886
L72184 74886
L72113 74849
L72085 74774
L72123 74474
L72169 74399
L72249 74361
L72399 74361
L72469 74399
L72498 74474
L72488 74549
L72104 74624
" />
<path d="M72793 74811
L72826 74849
L72783 74886
L72751 74849
L72793 74811
L72783 74886
" />
<path d="M72844 74399
L72877 74436
L72835 74474
L72802 74436
L72844 74399
L72835 74474
" />
<path d="M74218 74811
L74175 74849
L74058 74886
L73983 74886
L73876 74849
L73810 74774
L73782 74699
L73763 74549
L73777 74436
L73833 74286
L73880 74211
L73965 74136
L74082 74099
L74157 74099
L74265 74136
L74297 74174
" />
<path d="M74532 74099
L74982 74099
" />
<path d="M74658 74886
L74757 74099
" />
<path d="M75132 74099
L75582 74099
" />
<path d="M75258 74886
L75357 74099
" />
<path d="M76331 74099
L76781 74099
" />
<path d="M76458 74886
L76556 74099
" />
<path d="M76945 74886
L77011 74361
" />
<path d="M76992 74511
L77039 74436
L77081 74399
L77161 74361
L77236 74361
" />
<path d="M77770 74886
L77822 74474
L77794 74399
L77723 74361
L77573 74361
L77494 74399
" />
<path d="M77775 74849
L77695 74886
L77508 74886
L77438 74849
L77409 74774
L77419 74699
L77466 74624
L77545 74586
L77733 74586
L77813 74549
" />
<path d="M78211 74361
L78145 74886
" />
<path d="M78202 74436
L78244 74399
L78323 74361
L78436 74361
L78506 74399
L78534 74474
L78483 74886
" />
<path d="M78825 74849
L78895 74886
L79045 74886
L79125 74849
L79172 74774
L79176 74736
L79148 74661
L79078 74624
L78965 74624
L78895 74586
L78867 74511
L78872 74474
L78919 74399
L78998 74361
L79111 74361
L79181 74399
" />
<path d="M79495 74886
L79561 74361
" />
<path d="M79594 74099
L79551 74136
L79584 74174
L79626 74136
L79594 74099
L79584 74174
" />
<path d="M79837 74849
L79908 74886
L80058 74886
L80137 74849
L80184 74774
L80189 74736
L80161 74661
L80090 74624
L79978 74624
L79908 74586
L79879 74511
L79884 74474
L79931 74399
L80011 74361
L80123 74361
L80193 74399
" />
<path d="M80461 74361
L80761 74361
" />
<path d="M80606 74099
L80522 74774
L80550 74849
L80620 74886
L80695 74886
" />
<path d="M81070 74886
L81000 74849
L80967 74811
L80939 74736
L80967 74511
L81014 74436
L81056 74399
L81136 74361
L81248 74361
L81318 74399
L81351 74436
L81379 74511
L81351 74736
L81304 74811
L81262 74849
L81182 74886
L81070 74886
" />
<path d="M81670 74886
L81735 74361
" />
<path d="M81717 74511
L81764 74436
L81806 74399
L81885 74361
L81960 74361
" />
<path d="M82710 74361
L83010 74361
" />
<path d="M82856 74099
L82771 74774
L82799 74849
L82870 74886
L82945 74886
" />
<path d="M83512 74849
L83432 74886
L83282 74886
L83212 74849
L83184 74774
L83221 74474
L83268 74399
L83348 74361
L83498 74361
L83568 74399
L83596 74474
L83587 74549
L83202 74624
" />
<path d="M83849 74849
L83920 74886
L84070 74886
L84149 74849
L84196 74774
L84201 74736
L84173 74661
L84102 74624
L83990 74624
L83920 74586
L83891 74511
L83896 74474
L83943 74399
L84023 74361
L84135 74361
L84205 74399
" />
<path d="M84473 74361
L84773 74361
" />
<path d="M84618 74099
L84534 74774
L84562 74849
L84632 74886
L84707 74886
" />
<path d="M85274 74849
L85194 74886
L85044 74886
L84974 74849
L84946 74774
L84983 74474
L85030 74399
L85110 74361
L85260 74361
L85330 74399
L85358 74474
L85349 74549
L84965 74624
" />
<path d="M85644 74886
L85710 74361
" />
<path d="M85691 74511
L85738 74436
L85780 74399
L85860 74361
L85935 74361
" />
<path d="M86769 74586
L87369 74586
" />
<path d="M88766 74811
L88724 74849
L88606 74886
L88531 74886
L88424 74849
L88358 74774
L88330 74699
L88311 74549
L88325 74436
L88382 74286
L88428 74211
L88513 74136
L88630 74099
L88705 74099
L88813 74136
L88846 74174
" />
<path d="M89080 74099
L89530 74099
" />
<path d="M89206 74886
L89305 74099
" />
<path d="M89680 74099
L90130 74099
" />
<path d="M89806 74886
L89905 74099
" />
<path d="M90959 74061
L90158 75074
" />
<path d="M91119 74886
L91217 74099
L91405 74099
L91512 74136
L91578 74211
L91606 74286
L91625 74436
L91611 74549
L91555 74699
L91508 74774
L91423 74849
L91306 74886
L91119 74886
" />
<path d="M91906 74886
L92004 74099
L92304 74099
L92375 74136
L92408 74174
L92436 74249
L92422 74361
L92375 74436
L92333 74474
L92253 74511
L91953 74511
" />
<path d="M93293 74886
L93392 74099
L93579 74099
L93687 74136
L93753 74211
L93781 74286
L93800 74436
L93786 74549
L93729 74699
L93682 74774
L93598 74849
L93481 74886
L93293 74886
" />
<path d="M94081 74886
L94146 74361
" />
<path d="M94179 74099
L94137 74136
L94170 74174
L94212 74136
L94179 74099
L94170 74174
" />
<path d="M94423 74849
L94493 74886
L94643 74886
L94723 74849
L94770 74774
L94774 74736
L94746 74661
L94676 74624
L94564 74624
L94493 74586
L94465 74511
L94470 74474
L94517 74399
L94596 74361
L94709 74361
L94779 74399
" />
<path d="M95159 74361
L95060 75149
" />
<path d="M95154 74399
L95234 74361
L95384 74361
L95454 74399
L95487 74436
L95515 74511
L95487 74736
L95440 74811
L95398 74849
L95318 74886
L95168 74886
L95098 74849
" />
<path d="M95918 74886
L95848 74849
L95820 74774
L95904 74099
" />
<path d="M96555 74886
L96607 74474
L96579 74399
L96509 74361
L96359 74361
L96279 74399
" />
<path d="M96560 74849
L96480 74886
L96293 74886
L96223 74849
L96195 74774
L96204 74699
L96251 74624
L96331 74586
L96518 74586
L96598 74549
" />
<path d="M96921 74361
L97043 74886
" />
<path d="M97296 74361
L97043 74886
L96945 75074
L96902 75111
L96823 75149
" />
<path d="M98533 74361
L98468 74886
" />
<path d="M98196 74361
L98144 74774
L98172 74849
L98243 74886
L98355 74886
L98435 74849
L98477 74811
" />
<path d="M98908 74361
L98843 74886
" />
<path d="M98899 74436
L98941 74399
L99021 74361
L99133 74361
L99204 74399
L99232 74474
L99180 74886
" />
<path d="M99555 74886
L99621 74361
" />
<path d="M99654 74099
L99611 74136
L99644 74174
L99686 74136
L99654 74099
L99644 74174
" />
<path d="M99883 74361
L100183 74361
" />
<path d="M100028 74099
L99944 74774
L99972 74849
L100043 74886
L100118 74886
" />
</g>
<g style="fill:#000000; fill-opacity:0.0; 
stroke:#000000; stroke-width:39.3701; stroke-opacity:1; 
stroke-linecap:round; stroke-linejoin:round;">
</g>
<g style="fill:#000000; fill-opacity:0.0; 
stroke:#000000; stroke-width:59.0551; stroke-opacity:1; 
stroke-linecap:round; stroke-linejoin:round;">
<path d="M70417 73070
L70220 73070
" />
<path d="M70220 73380
L70220 72789
L70501 72789
" />
<path d="M70726 73380
L70726 72986
" />
<path d="M70726 72789
L70698 72817
L70726 72845
L70754 72817
L70726 72789
L70726 72845
" />
<path d="M71091 73380
L71035 73352
L71007 73295
L71007 72789
" />
<path d="M71541 73352
L71485 73380
L71373 73380
L71316 73352
L71288 73295
L71288 73070
L71316 73014
L71373 72986
L71485 72986
L71541 73014
L71570 73070
L71570 73127
L71288 73183
" />
<path d="M71823 73323
L71851 73352
L71823 73380
L71795 73352
L71823 73323
L71823 73380
" />
<path d="M71823 73014
L71851 73042
L71823 73070
L71795 73042
L71823 73014
L71823 73070
" />
<path d="M72807 73352
L72751 73380
L72638 73380
L72582 73352
L72554 73323
L72526 73267
L72526 73099
L72554 73042
L72582 73014
L72638 72986
L72751 72986
L72807 73014
" />
<path d="M72976 72986
L73201 72986
" />
<path d="M73060 72789
L73060 73295
L73088 73352
L73144 73380
L73201 73380
" />
<path d="M73313 72986
L73538 72986
" />
<path d="M73397 72789
L73397 73295
L73426 73352
L73482 73380
L73538 73380
" />
<path d="M73594 73436
L74044 73436
" />
<path d="M74438 73380
L74438 72789
" />
<path d="M74438 73352
L74382 73380
L74269 73380
L74213 73352
L74185 73323
L74157 73267
L74157 73099
L74185 73042
L74213 73014
L74269 72986
L74382 72986
L74438 73014
" />
<path d="M74719 72986
L74719 73577
" />
<path d="M74719 73014
L74775 72986
L74888 72986
L74944 73014
L74972 73042
L75000 73099
L75000 73267
L74972 73323
L74944 73352
L74888 73380
L74775 73380
L74719 73352
" />
<path d="M75253 73323
L75282 73352
L75253 73380
L75225 73352
L75253 73323
L75253 73380
" />
<path d="M75535 73380
L75535 72789
" />
<path d="M75591 73155
L75760 73380
" />
<path d="M75760 72986
L75535 73211
" />
<path d="M76013 73380
L76013 72986
" />
<path d="M76013 72789
L75985 72817
L76013 72845
L76041 72817
L76013 72789
L76013 72845
" />
<path d="M76547 73352
L76491 73380
L76378 73380
L76322 73352
L76294 73323
L76266 73267
L76266 73099
L76294 73042
L76322 73014
L76378 72986
L76491 72986
L76547 73014
" />
<path d="M77053 73380
L77053 73070
L77025 73014
L76969 72986
L76856 72986
L76800 73014
" />
<path d="M77053 73352
L76997 73380
L76856 73380
L76800 73352
L76772 73295
L76772 73239
L76800 73183
L76856 73155
L76997 73155
L77053 73127
" />
<path d="M77588 73380
L77588 72789
" />
<path d="M77588 73352
L77531 73380
L77419 73380
L77363 73352
L77334 73323
L77306 73267
L77306 73099
L77334 73042
L77363 73014
L77419 72986
L77531 72986
L77588 73014
" />
<path d="M77728 73436
L78178 73436
" />
<path d="M78319 72986
L78319 73577
" />
<path d="M78319 73014
L78375 72986
L78487 72986
L78544 73014
L78572 73042
L78600 73099
L78600 73267
L78572 73323
L78544 73352
L78487 73380
L78375 73380
L78319 73352
" />
<path d="M79106 73352
L79050 73380
L78937 73380
L78881 73352
L78853 73323
L78825 73267
L78825 73099
L78853 73042
L78881 73014
L78937 72986
L79050 72986
L79106 73014
" />
<path d="M79359 73380
L79359 72789
" />
<path d="M79359 73014
L79415 72986
L79528 72986
L79584 73014
L79612 73042
L79640 73099
L79640 73267
L79612 73323
L79584 73352
L79528 73380
L79415 73380
L79359 73352
" />
</g>
<g style="fill:#000000; fill-opacity:0.0; 
stroke:#000000; stroke-width:39.3701; stroke-opacity:1; 
stroke-linecap:round; stroke-linejoin:round;">
</g>
<g style="fill:#000000; fill-opacity:0.0; 
stroke:#000000; stroke-width:59.0551; stroke-opacity:1; 
stroke-linecap:round; stroke-linejoin:round;">
<path d="M69685 71459
L112205 71459
" />
</g>
<g style="fill:#000000; fill-opacity:0.0; 
stroke:#000000; stroke-width:39.3701; stroke-opacity:1; 
stroke-linecap:round; stroke-linejoin:round;">
</g>
<g style="fill:#000000; fill-opacity:0.0; 
stroke:#000000; stroke-width:59.0551; stroke-opacity:1; 
stroke-linecap:round; stroke-linejoin:round;">
<path d="M70192 72289
L70276 72317
L70417 72317
L70473 72289
L70501 72260
L70529 72204
L70529 72148
L70501 72092
L70473 72064
L70417 72036
L70304 72007
L70248 71979
L70220 71951
L70192 71895
L70192 71839
L70220 71782
L70248 71754
L70304 71726
L70445 71726
L70529 71754
" />
<path d="M70782 72317
L70782 71726
" />
<path d="M71035 72317
L71035 72007
L71007 71951
L70951 71923
L70867 71923
L70810 71951
L70782 71979
" />
<path d="M71541 72289
L71485 72317
L71373 72317
L71316 72289
L71288 72232
L71288 72007
L71316 71951
L71373 71923
L71485 71923
L71541 71951
L71570 72007
L71570 72064
L71288 72120
" />
<path d="M72048 72289
L71991 72317
L71879 72317
L71823 72289
L71795 72232
L71795 72007
L71823 71951
L71879 71923
L71991 71923
L72048 71951
L72076 72007
L72076 72064
L71795 72120
" />
<path d="M72244 71923
L72469 71923
" />
<path d="M72329 71726
L72329 72232
L72357 72289
L72413 72317
L72469 72317
" />
<path d="M72666 72260
L72694 72289
L72666 72317
L72638 72289
L72666 72260
L72666 72317
" />
<path d="M72666 71951
L72694 71979
L72666 72007
L72638 71979
L72666 71951
L72666 72007
" />
</g>
<g style="fill:#000000; fill-opacity:0.0; 
stroke:#000000; stroke-width:39.3701; stroke-opacity:1; 
stroke-linecap:round; stroke-linejoin:round;">
</g>
<g style="fill:#000000; fill-opacity:0.0; 
stroke:#000000; stroke-width:118.11; stroke-opacity:1; 
stroke-linecap:round; stroke-linejoin:round;">
<path d="M70220 71136
L70220 70545
L70445 70545
L70501 70573
L70529 70601
L70557 70658
L70557 70742
L70529 70798
L70501 70826
L70445 70854
L70220 70854
" />
<path d="M70895 71136
L70838 71108
L70810 71079
L70782 71023
L70782 70854
L70810 70798
L70838 70770
L70895 70742
L70979 70742
L71035 70770
L71063 70798
L71091 70854
L71091 71023
L71063 71079
L71035 71108
L70979 71136
L70895 71136
" />
<path d="M71288 70742
L71598 70742
L71288 71136
L71598 71136
" />
<path d="M71795 71108
L71851 71136
L71963 71136
L72019 71108
L72048 71051
L72048 71023
L72019 70967
L71963 70939
L71879 70939
L71823 70911
L71795 70854
L71795 70826
L71823 70770
L71879 70742
L71963 70742
L72019 70770
" />
<path d="M72554 71136
L72554 70826
L72526 70770
L72469 70742
L72357 70742
L72301 70770
" />
<path d="M72554 71108
L72498 71136
L72357 71136
L72301 71108
L72273 71051
L72273 70995
L72301 70939
L72357 70911
L72498 70911
L72554 70883
" />
<path d="M72835 71136
L72835 70742
" />
<path d="M72835 70854
L72863 70798
L72891 70770
L72947 70742
L73004 70742
" />
<path d="M73594 70545
L73988 70545
L73594 71136
L73988 71136
" />
<path d="M74185 71108
L74241 71136
L74354 71136
L74410 71108
L74438 71051
L74438 71023
L74410 70967
L74354 70939
L74269 70939
L74213 70911
L74185 70854
L74185 70826
L74213 70770
L74269 70742
L74354 70742
L74410 70770
" />
<path d="M74775 71136
L74719 71108
L74691 71079
L74663 71023
L74663 70854
L74691 70798
L74719 70770
L74775 70742
L74860 70742
L74916 70770
L74944 70798
L74972 70854
L74972 71023
L74944 71079
L74916 71108
L74860 71136
L74775 71136
" />
<path d="M75310 71136
L75253 71108
L75225 71051
L75225 70545
" />
<path d="M75450 70742
L75675 70742
" />
<path d="M75535 70545
L75535 71051
L75563 71108
L75619 71136
L75675 71136
" />
</g>
<g style="fill:#000000; fill-opacity:0.0; 
stroke:#000000; stroke-width:39.3701; stroke-opacity:1; 
stroke-linecap:round; stroke-linejoin:round;">
</g>
<g style="fill:#000000; fill-opacity:0.0; 
stroke:#000000; stroke-width:59.0551; stroke-opacity:1; 
stroke-linecap:round; stroke-linejoin:round;">
<path d="M70220 69955
L70220 69364
L70360 69364
L70445 69392
L70501 69448
L70529 69505
L70557 69617
L70557 69701
L70529 69814
L70501 69870
L70445 69926
L70360 69955
L70220 69955
" />
<path d="M70810 69955
L70810 69561
" />
<path d="M70810 69673
L70838 69617
L70867 69589
L70923 69561
L70979 69561
" />
<path d="M71429 69955
L71429 69645
L71401 69589
L71345 69561
L71232 69561
L71176 69589
" />
<path d="M71429 69926
L71373 69955
L71232 69955
L71176 69926
L71148 69870
L71148 69814
L71176 69758
L71232 69730
L71373 69730
L71429 69701
" />
<path d="M71654 69561
L71766 69955
L71879 69673
L71991 69955
L72104 69561
" />
<path d="M72779 69561
L72779 69955
" />
<path d="M72779 69617
L72807 69589
L72863 69561
L72947 69561
L73004 69589
L73032 69645
L73032 69955
" />
<path d="M73566 69561
L73566 69955
" />
<path d="M73313 69561
L73313 69870
L73341 69926
L73397 69955
L73482 69955
L73538 69926
L73566 69898
" />
<path d="M73847 69955
L73847 69561
" />
<path d="M73847 69617
L73876 69589
L73932 69561
L74016 69561
L74072 69589
L74100 69645
L74100 69955
" />
<path d="M74100 69645
L74129 69589
L74185 69561
L74269 69561
L74325 69589
L74354 69645
L74354 69955
" />
<path d="M74635 69955
L74635 69364
" />
<path d="M74635 69589
L74691 69561
L74804 69561
L74860 69589
L74888 69617
L74916 69673
L74916 69842
L74888 69898
L74860 69926
L74804 69955
L74691 69955
L74635 69926
" />
<path d="M75394 69926
L75338 69955
L75225 69955
L75169 69926
L75141 69870
L75141 69645
L75169 69589
L75225 69561
L75338 69561
L75394 69589
L75422 69645
L75422 69701
L75141 69758
" />
<path d="M75675 69955
L75675 69561
" />
<path d="M75675 69673
L75703 69617
L75732 69589
L75788 69561
L75844 69561
" />
<path d="M76041 69898
L76069 69926
L76041 69955
L76013 69926
L76041 69898
L76041 69955
" />
<path d="M76041 69589
L76069 69617
L76041 69645
L76013 69617
L76041 69589
L76041 69645
" />
<path d="M77109 69898
L77081 69926
L76997 69955
L76941 69955
L76856 69926
L76800 69870
L76772 69814
L76744 69701
L76744 69617
L76772 69505
L76800 69448
L76856 69392
L76941 69364
L76997 69364
L77081 69392
L77109 69420
" />
<path d="M77278 69364
L77616 69364
" />
<path d="M77447 69955
L77447 69364
" />
<path d="M77728 69364
L78066 69364
" />
<path d="M77897 69955
L77897 69364
" />
<path d="M78684 69336
L78178 70095
" />
<path d="M78965 69617
L78909 69589
L78881 69561
L78853 69505
L78853 69476
L78881 69420
L78909 69392
L78965 69364
L79078 69364
L79134 69392
L79162 69420
L79190 69476
L79190 69505
L79162 69561
L79134 69589
L79078 69617
L78965 69617
L78909 69645
L78881 69673
L78853 69730
L78853 69842
L78881 69898
L78909 69926
L78965 69955
L79078 69955
L79134 69926
L79162 69898
L79190 69842
L79190 69730
L79162 69673
L79134 69645
L79078 69617
" />
<path d="M79444 69730
L79894 69730
" />
<path d="M80203 69955
L80315 69955
L80372 69926
L80400 69898
L80456 69814
L80484 69701
L80484 69476
L80456 69420
L80428 69392
L80372 69364
L80259 69364
L80203 69392
L80175 69420
L80147 69476
L80147 69617
L80175 69673
L80203 69701
L80259 69730
L80372 69730
L80428 69701
L80456 69673
L80484 69617
" />
</g>
<g style="fill:#000000; fill-opacity:0.0; 
stroke:#000000; stroke-width:39.3701; stroke-opacity:1; 
stroke-linecap:round; stroke-linejoin:round;">
</g>
<g style="fill:#000000; fill-opacity:0.0; 
stroke:#000000; stroke-width:59.0551; stroke-opacity:1; 
stroke-linecap:round; stroke-linejoin:round;">
<path d="M77559 75396
L77559 76577
" />
</g>
<g style="fill:#000000; fill-opacity:0.0; 
stroke:#000000; stroke-width:39.3701; stroke-opacity:1; 
stroke-linecap:round; stroke-linejoin:round;">
</g>
<g style="fill:#000000; fill-opacity:0.0; 
stroke:#000000; stroke-width:59.0551; stroke-opacity:1; 
stroke-linecap:round; stroke-linejoin:round;">
<path d="M102756 75396
L102756 77955
" />
</g>
<g style="fill:#000000; fill-opacity:0.0; 
stroke:#000000; stroke-width:150; stroke-opacity:1; 
stroke-linecap:round; stroke-linejoin:round;">
<path d="M72000 33000
L72000 35000
" />
<path d="M79500 33000
L79500 36000
" />
<path d="M80500 38500
L80500 48000
" />
<path d="M75000 41000
L75000 44000
" />
<path d="M72000 43000
L74000 43000
" />
<path d="M66000 37500
L66000 44000
" />
<path d="M48000 47500
L50000 47500
" />
<path d="M56000 37500
L60000 37500
" />
<path d="M57500 34500
L59500 34500
" />
<path d="M50000 38500
L52000 38500
" />
<path d="M46500 41500
L46500 38500
" />
<path d="M85500 49500
L85500 29500
" />
<path d="M42000 49500
L85500 49500
" />
<path d="M42000 39500
L42000 49500
" />
<path d="M34000 39500
L42000 39500
" />
<path d="M34000 29500
L34000 39500
" />
<path d="M52000 29500
L85500 29500
" />
<path d="M34000 29500
L52000 29500
" />
<path d="M53000 43500
L53000 43500
" />
<path d="M53000 43500
L53500 43500
" />
<path d="M53500 43500
L53500 44500
" />
<path d="M53500 44500
L53000 44500
" />
<path d="M53000 43000
L62000 43000
" />
<path d="M62000 43000
L62000 45000
" />
<path d="M62000 45000
L53000 45000
" />
<path d="M53000 45000
L53000 43000
" />
<path d="M78000 37000
L78000 37500
" />
<path d="M78000 37500
L77000 37500
" />
<path d="M77000 37500
L77000 37000
" />
<path d="M78500 37000
L78500 48000
" />
<path d="M78500 48000
L76500 48000
" />
<path d="M76500 48000
L76500 37000
" />
<path d="M76500 37000
L78500 37000
" />
</g>
<g style="fill:#000000; fill-opacity:0.0; 
stroke:#000000; stroke-width:120; stroke-opacity:1; 
stroke-linecap:round; stroke-linejoin:round;">
<path d="M63900 42600
L63900 45400
" />
<path d="M63900 45400
L63100 45400
" />
<path d="M63100 45400
L63100 42600
" />
<path d="M63100 42600
L63900 42600
" />
<path d="M63700 42600
L63900 42800
" />
<path d="M77500 31950
L71000 31950
" />
<path d="M71000 31950
L71000 35950
" />
<path d="M71000 35950
L77500 35950
" />
<path d="M77500 35950
L77500 31950
" />
<path d="M77500 32450
L78000 32450
" />
<path d="M78000 32450
L78000 33450
" />
<path d="M78000 33450
L77500 33450
" />
<path d="M78000 32950
L78500 32950
" />
<path d="M77500 34950
L78500 34950
" />
<circle cx="38000" cy="32500" r="1000" /> 
<path d="M39000 32250
L38750 32250
" />
<path d="M38750 32250
L38750 32750
" />
<path d="M38750 32750
L39000 32750
" />
<circle cx="57000" cy="32500" r="1000" /> 
<path d="M58000 32250
L57750 32250
" />
<path d="M57750 32250
L57750 32750
" />
<path d="M57750 32750
L58000 32750
" />
<circle cx="57000" cy="36500" r="1000" /> 
<path d="M58000 36250
L57750 36250
" />
<path d="M57750 36250
L57750 36750
" />
<path d="M57750 36750
L58000 36750
" />
<circle cx="69000" cy="32500" r="1000" /> 
<path d="M68000 32750
L68250 32750
" />
<path d="M68250 32750
L68250 32250
" />
<path d="M68250 32250
L68000 32250
" />
<circle cx="69000" cy="36500" r="1000" /> 
<path d="M68000 36750
L68250 36750
" />
<path d="M68250 36750
L68250 36250
" />
<path d="M68250 36250
L68000 36250
" />
<circle cx="69000" cy="40500" r="1000" /> 
<path d="M68000 40750
L68250 40750
" />
<path d="M68250 40750
L68250 40250
" />
<path d="M68250 40250
L68000 40250
" />
<circle cx="81000" cy="32500" r="1000" /> 
<path d="M82000 32250
L81750 32250
" />
<path d="M81750 32250
L81750 32750
" />
<path d="M81750 32750
L82000 32750
" />
<circle cx="45000" cy="32500" r="1000" /> 
<path d="M46000 32250
L45750 32250
" />
<path d="M45750 32250
L45750 32750
" />
<path d="M45750 32750
L46000 32750
" />
<circle cx="45000" cy="36500" r="1000" /> 
<path d="M46000 36250
L45750 36250
" />
<path d="M45750 36250
L45750 36750
" />
<path d="M45750 36750
L46000 36750
" />
<circle cx="45000" cy="44500" r="1000" /> 
<path d="M44000 44750
L44250 44750
" />
<path d="M44250 44750
L44250 44250
" />
<path d="M44250 44250
L44000 44250
" />
<circle cx="38000" cy="36500" r="1000" /> 
<path d="M37000 36750
L37250 36750
" />
<path d="M37250 36750
L37250 36250
" />
<path d="M37250 36250
L37000 36250
" />
<path d="M41000 32000
L41000 37000
" />
<path d="M41000 37000
L40000 37000
" />
<path d="M40000 37000
L40000 32000
" />
<path d="M40500 37000
L40500 37500
" />
<path d="M40500 31500
L40500 32000
" />
<path d="M40700 32000
L41000 32300
" />
<path d="M41000 32000
L40000 32000
" />
<path d="M50500 32000
L50500 37000
" />
<path d="M50500 37000
L49500 37000
" />
<path d="M49500 37000
L49500 32000
" />
<path d="M50000 37000
L50000 37500
" />
<path d="M50000 31500
L50000 32000
" />
<path d="M50200 32000
L50500 32300
" />
<path d="M50500 32000
L49500 32000
" />
<path d="M43000 32000
L43000 37000
" />
<path d="M43000 37000
L42000 37000
" />
<path d="M42000 37000
L42000 32000
" />
<path d="M42500 37000
L42500 37500
" />
<path d="M42500 31500
L42500 32000
" />
<path d="M42700 32000
L43000 32300
" />
<path d="M43000 32000
L42000 32000
" />
<path d="M52500 32000
L52500 37000
" />
<path d="M52500 37000
L51500 37000
" />
<path d="M51500 37000
L51500 32000
" />
<path d="M52000 37000
L52000 37500
" />
<path d="M52000 31500
L52000 32000
" />
<path d="M52200 32000
L52500 32300
" />
<path d="M52500 32000
L51500 32000
" />
<path d="M65500 44500
L70500 44500
" />
<path d="M70500 44500
L70500 45500
" />
<path d="M70500 45500
L65500 45500
" />
<path d="M70500 45000
L71000 45000
" />
<path d="M65000 45000
L65500 45000
" />
<path d="M65500 44800
L65800 44500
" />
<path d="M65500 44500
L65500 45500
" />
<path d="M47500 37000
L47500 32000
" />
<path d="M47500 32000
L48500 32000
" />
<path d="M48500 32000
L48500 37000
" />
<path d="M48000 32000
L48000 31500
" />
<path d="M48000 37500
L48000 37000
" />
<path d="M47800 37000
L47500 36700
" />
<path d="M47500 37000
L48500 37000
" />
<path d="M47500 41500
L49000 43000
" />
<path d="M49000 43000
L49500 43000
" />
<path d="M49500 43000
L50000 42500
" />
<path d="M50000 42500
L50000 41500
" />
<path d="M50000 41500
L49000 40500
" />
<path d="M49000 40500
L48000 40500
" />
<path d="M48000 40500
L47500 41000
" />
<path d="M47500 41000
L47500 41500
" />
<path d="M84000 47500
L83000 47500
" />
<path d="M83000 47500
L83000 38500
" />
<path d="M83000 38500
L84000 38500
" />
<path d="M84000 47500
L84000 38500
" />
<path d="M84000 39500
L83000 39500
" />
<path d="M83000 35500
L84000 35500
" />
<path d="M84000 35500
L84000 37500
" />
<path d="M84000 37500
L83000 37500
" />
<path d="M83000 37500
L83000 35500
" />
</g>
<g style="fill:#000000; fill-opacity:0.0; 
stroke:#000000; stroke-width:39.3701; stroke-opacity:1; 
stroke-linecap:round; stroke-linejoin:round;">
<polyline fill="none;"
points="53709,45930
53709,45069
54290,45069
54290,45930
53709,45930
" /> 
<path d="M54709 45360
L54709 45640
" />
<path d="M55290 45360
L55290 45640
" />
<path d="M54709.7 45640 A290.315 290.315 0.0 0 0 55290.3 45640 " />
<path d="M55290.3 45360 A290.315 290.315 0.0 0 0 54709.7 45360 " />
<path d="M55709 45360
L55709 45640
" />
<path d="M56290 45360
L56290 45640
" />
<path d="M55709.7 45640 A290.315 290.315 0.0 0 0 56290.3 45640 " />
<path d="M56290.3 45360 A290.315 290.315 0.0 0 0 55709.7 45360 " />
<path d="M56709 45360
L56709 45640
" />
<path d="M57290 45360
L57290 45640
" />
<path d="M56709.7 45640 A290.315 290.315 0.0 0 0 57290.3 45640 " />
<path d="M57290.3 45360 A290.315 290.315 0.0 0 0 56709.7 45360 " />
<path d="M57709 45360
L57709 45640
" />
<path d="M58290 45360
L58290 45640
" />
<path d="M57709.7 45640 A290.315 290.315 0.0 0 0 58290.3 45640 " />
<path d="M58290.3 45360 A290.315 290.315 0.0 0 0 57709.7 45360 " />
<path d="M58709 45360
L58709 45640
" />
<path d="M59290 45360
L59290 45640
" />
<path d="M58709.7 45640 A290.315 290.315 0.0 0 0 59290.3 45640 " />
<path d="M59290.3 45360 A290.315 290.315 0.0 0 0 58709.7 45360 " />
<path d="M59709 45360
L59709 45640
" />
<path d="M60290 45360
L60290 45640
" />
<path d="M59709.7 45640 A290.315 290.315 0.0 0 0 60290.3 45640 " />
<path d="M60290.3 45360 A290.315 290.315 0.0 0 0 59709.7 45360 " />
<path d="M60709 45360
L60709 45640
" />
<path d="M61290 45360
L61290 45640
" />
<path d="M60709.7 45640 A290.315 290.315 0.0 0 0 61290.3 45640 " />
<path d="M61290.3 45360 A290.315 290.315 0.0 0 0 60709.7 45360 " />
<path d="M60709 42360
L60709 42640
" />
<path d="M61290 42360
L61290 42640
" />
<path d="M60709.7 42640 A290.315 290.315 0.0 0 0 61290.3 42640 " />
<path d="M61290.3 42360 A290.315 290.315 0.0 0 0 60709.7 42360 " />
<path d="M59709 42360
L59709 42640
" />
<path d="M60290 42360
L60290 42640
" />
<path d="M59709.7 42640 A290.315 290.315 0.0 0 0 60290.3 42640 " />
<path d="M60290.3 42360 A290.315 290.315 0.0 0 0 59709.7 42360 " />
<path d="M58709 42360
L58709 42640
" />
<path d="M59290 42360
L59290 42640
" />
<path d="M58709.7 42640 A290.315 290.315 0.0 0 0 59290.3 42640 " />
<path d="M59290.3 42360 A290.315 290.315 0.0 0 0 58709.7 42360 " />
<path d="M57709 42360
L57709 42640
" />
<path d="M58290 42360
L58290 42640
" />
<path d="M57709.7 42640 A290.315 290.315 0.0 0 0 58290.3 42640 " />
<path d="M58290.3 42360 A290.315 290.315 0.0 0 0 57709.7 42360 " />
<path d="M56709 42360
L56709 42640
" />
<path d="M57290 42360
L57290 42640
" />
<path d="M56709.7 42640 A290.315 290.315 0.0 0 0 57290.3 42640 " />
<path d="M57290.3 42360 A290.315 290.315 0.0 0 0 56709.7 42360 " />
<path d="M55709 42360
L55709 42640
" />
<path d="M56290 42360
L56290 42640
" />
<path d="M55709.7 42640 A290.315 290.315 0.0 0 0 56290.3 42640 " />
<path d="M56290.3 42360 A290.315 290.315 0.0 0 0 55709.7 42360 " />
<path d="M54709 42360
L54709 42640
" />
<path d="M55290 42360
L55290 42640
" />
<path d="M54709.7 42640 A290.315 290.315 0.0 0 0 55290.3 42640 " />
<path d="M55290.3 42360 A290.315 290.315 0.0 0 0 54709.7 42360 " />
<path d="M53709 42360
L53709 42640
" />
<path d="M54290 42360
L54290 42640
" />
<path d="M53709.7 42640 A290.315 290.315 0.0 0 0 54290.3 42640 " />
<path d="M54290.3 42360 A290.315 290.315 0.0 0 0 53709.7 42360 " />
<polyline fill="none;"
points="75569,37709
76430,37709
76430,38290
75569,38290
75569,37709
" /> 
<path d="M76140 38709
L75860 38709
" />
<path d="M76140 39290
L75860 39290
" />
<path d="M75860 38709.7 A290.315 290.315 0.0 0 0 75860 39290.3 " />
<path d="M76140 39290.3 A290.315 290.315 0.0 0 0 76140 38709.7 " />
<path d="M76140 39709
L75860 39709
" />
<path d="M76140 40290
L75860 40290
" />
<path d="M75860 39709.7 A290.315 290.315 0.0 0 0 75860 40290.3 " />
<path d="M76140 40290.3 A290.315 290.315 0.0 0 0 76140 39709.7 " />
<path d="M76140 40709
L75860 40709
" />
<path d="M76140 41290
L75860 41290
" />
<path d="M75860 40709.7 A290.315 290.315 0.0 0 0 75860 41290.3 " />
<path d="M76140 41290.3 A290.315 290.315 0.0 0 0 76140 40709.7 " />
<path d="M76140 41709
L75860 41709
" />
<path d="M76140 42290
L75860 42290
" />
<path d="M75860 41709.7 A290.315 290.315 0.0 0 0 75860 42290.3 " />
<path d="M76140 42290.3 A290.315 290.315 0.0 0 0 76140 41709.7 " />
<path d="M76140 42709
L75860 42709
" />
<path d="M76140 43290
L75860 43290
" />
<path d="M75860 42709.7 A290.315 290.315 0.0 0 0 75860 43290.3 " />
<path d="M76140 43290.3 A290.315 290.315 0.0 0 0 76140 42709.7 " />
<path d="M76140 43709
L75860 43709
" />
<path d="M76140 44290
L75860 44290
" />
<path d="M75860 43709.7 A290.315 290.315 0.0 0 0 75860 44290.3 " />
<path d="M76140 44290.3 A290.315 290.315 0.0 0 0 76140 43709.7 " />
<path d="M76140 44709
L75860 44709
" />
<path d="M76140 45290
L75860 45290
" />
<path d="M75860 44709.7 A290.315 290.315 0.0 0 0 75860 45290.3 " />
<path d="M76140 45290.3 A290.315 290.315 0.0 0 0 76140 44709.7 " />
<path d="M76140 45709
L75860 45709
" />
<path d="M76140 46290
L75860 46290
" />
<path d="M75860 45709.7 A290.315 290.315 0.0 0 0 75860 46290.3 " />
<path d="M76140 46290.3 A290.315 290.315 0.0 0 0 76140 45709.7 " />
<path d="M76140 46709
L75860 46709
" />
<path d="M76140 47290
L75860 47290
" />
<path d="M75860 46709.7 A290.315 290.315 0.0 0 0 75860 47290.3 " />
<path d="M76140 47290.3 A290.315 290.315 0.0 0 0 76140 46709.7 " />
<path d="M79140 46709
L78860 46709
" />
<path d="M79140 47290
L78860 47290
" />
<path d="M78860 46709.7 A290.315 290.315 0.0 0 0 78860 47290.3 " />
<path d="M79140 47290.3 A290.315 290.315 0.0 0 0 79140 46709.7 " />
<path d="M79140 45709
L78860 45709
" />
<path d="M79140 46290
L78860 46290
" />
<path d="M78860 45709.7 A290.315 290.315 0.0 0 0 78860 46290.3 " />
<path d="M79140 46290.3 A290.315 290.315 0.0 0 0 79140 45709.7 " />
<path d="M79140 44709
L78860 44709
" />
<path d="M79140 45290
L78860 45290
" />
<path d="M78860 44709.7 A290.315 290.315 0.0 0 0 78860 45290.3 " />
<path d="M79140 45290.3 A290.315 290.315 0.0 0 0 79140 44709.7 " />
<path d="M79140 43709
L78860 43709
" />
<path d="M79140 44290
L78860 44290
" />
<path d="M78860 43709.7 A290.315 290.315 0.0 0 0 78860 44290.3 " />
<path d="M79140 44290.3 A290.315 290.315 0.0 0 0 79140 43709.7 " />
<path d="M79140 42709
L78860 42709
" />
<path d="M79140 43290
L78860 43290
" />
<path d="M78860 42709.7 A290.315 290.315 0.0 0 0 78860 43290.3 " />
<path d="M79140 43290.3 A290.315 290.315 0.0 0 0 79140 42709.7 " />
<path d="M79140 41709
L78860 41709
" />
<path d="M79140 42290
L78860 42290
" />
<path d="M78860 41709.7 A290.315 290.315 0.0 0 0 78860 42290.3 " />
<path d="M79140 42290.3 A290.315 290.315 0.0 0 0 79140 41709.7 " />
<path d="M79140 40709
L78860 40709
" />
<path d="M79140 41290
L78860 41290
" />
<path d="M78860 40709.7 A290.315 290.315 0.0 0 0 78860 41290.3 " />
<path d="M79140 41290.3 A290.315 290.315 0.0 0 0 79140 40709.7 " />
<path d="M79140 39709
L78860 39709
" />
<path d="M79140 40290
L78860 40290
" />
<path d="M78860 39709.7 A290.315 290.315 0.0 0 0 78860 40290.3 " />
<path d="M79140 40290.3 A290.315 290.315 0.0 0 0 79140 39709.7 " />
<path d="M79140 38709
L78860 38709
" />
<path d="M79140 39290
L78860 39290
" />
<path d="M78860 38709.7 A290.315 290.315 0.0 0 0 78860 39290.3 " />
<path d="M79140 39290.3 A290.315 290.315 0.0 0 0 79140 38709.7 " />
<path d="M79140 37709
L78860 37709
" />
<path d="M79140 38290
L78860 38290
" />
<path d="M78860 37709.7 A290.315 290.315 0.0 0 0 78860 38290.3 " />
<path d="M79140 38290.3 A290.315 290.315 0.0 0 0 79140 37709.7 " />
<circle cx="63500" cy="43000" r="255.315" /> 
<circle cx="63500" cy="45000" r="255.315" /> 
<polyline fill="none;"
points="78169,33280
78169,32619
78830,32619
78830,33280
78169,33280
" /> 
<circle cx="78500" cy="34950" r="330.315" /> 
<polyline fill="none;"
points="37244,32755
37244,32244
37755,32244
37755,32755
37244,32755
" /> 
<circle cx="38500" cy="32500" r="255.315" /> 
<polyline fill="none;"
points="56244,32755
56244,32244
56755,32244
56755,32755
56244,32755
" /> 
<circle cx="57500" cy="32500" r="255.315" /> 
<polyline fill="none;"
points="56244,36755
56244,36244
56755,36244
56755,36755
56244,36755
" /> 
<circle cx="57500" cy="36500" r="255.315" /> 
<polyline fill="none;"
points="69755,32244
69755,32755
69244,32755
69244,32244
69755,32244
" /> 
<circle cx="68500" cy="32500" r="255.315" /> 
<polyline fill="none;"
points="69755,36244
69755,36755
69244,36755
69244,36244
69755,36244
" /> 
<circle cx="68500" cy="36500" r="255.315" /> 
<polyline fill="none;"
points="69755,40244
69755,40755
69244,40755
69244,40244
69755,40244
" /> 
<circle cx="68500" cy="40500" r="255.315" /> 
<polyline fill="none;"
points="80244,32755
80244,32244
80755,32244
80755,32755
80244,32755
" /> 
<circle cx="81500" cy="32500" r="255.315" /> 
<polyline fill="none;"
points="44244,32755
44244,32244
44755,32244
44755,32755
44244,32755
" /> 
<circle cx="45500" cy="32500" r="255.315" /> 
<polyline fill="none;"
points="44244,36755
44244,36244
44755,36244
44755,36755
44244,36755
" /> 
<circle cx="45500" cy="36500" r="255.315" /> 
<polyline fill="none;"
points="45755,44244
45755,44755
45244,44755
45244,44244
45755,44244
" /> 
<circle cx="44500" cy="44500" r="255.315" /> 
<polyline fill="none;"
points="38755,36244
38755,36755
38244,36755
38244,36244
38755,36244
" /> 
<circle cx="37500" cy="36500" r="255.315" /> 
<circle cx="40500" cy="31500" r="330.315" /> 
<circle cx="40500" cy="37500" r="330.315" /> 
<circle cx="50000" cy="31500" r="330.315" /> 
<circle cx="50000" cy="37500" r="330.315" /> 
<circle cx="42500" cy="31500" r="330.315" /> 
<circle cx="42500" cy="37500" r="330.315" /> 
<circle cx="52000" cy="31500" r="330.315" /> 
<circle cx="52000" cy="37500" r="330.315" /> 
<circle cx="65000" cy="45000" r="330.315" /> 
<circle cx="71000" cy="45000" r="330.315" /> 
<circle cx="48000" cy="37500" r="330.315" /> 
<circle cx="48000" cy="31500" r="330.315" /> 
<polyline fill="none;"
points="48744,42244
49255,42244
49255,42755
48744,42755
48744,42244
" /> 
<circle cx="49000" cy="41500" r="255.315" /> 
<circle cx="48000" cy="41500" r="255.315" /> 
<polyline fill="none;"
points="83244,38744
83755,38744
83755,39255
83244,39255
83244,38744
" /> 
<circle cx="83500" cy="40000" r="255.315" /> 
<circle cx="83500" cy="41000" r="255.315" /> 
<circle cx="83500" cy="42000" r="255.315" /> 
<circle cx="83500" cy="43000" r="255.315" /> 
<circle cx="83500" cy="44000" r="255.315" /> 
<circle cx="83500" cy="45000" r="255.315" /> 
<circle cx="83500" cy="46000" r="255.315" /> 
<circle cx="83500" cy="47000" r="255.315" /> 
<polyline fill="none;"
points="83244,35744
83755,35744
83755,36255
83244,36255
83244,35744
" /> 
<circle cx="83500" cy="37000" r="255.315" /> 
</g>
<g style="fill:#000000; fill-opacity:0.0; 
stroke:#000000; stroke-width:120; stroke-opacity:1; 
stroke-linecap:round; stroke-linejoin:round;">
</g>
<g style="fill:#000000; fill-opacity:0.0; 
stroke:#000000; stroke-width:112.5; stroke-opacity:1; 
stroke-linecap:round; stroke-linejoin:round;">
<path d="M54560 43771
L54560 43171
" />
<path d="M55032 43714
L55010 43742
L54946 43771
L54903 43771
L54839 43742
L54796 43685
L54775 43628
L54753 43514
L54753 43428
L54775 43314
L54796 43257
L54839 43200
L54903 43171
L54946 43171
L55010 43200
L55032 43228
" />
<path d="M55203 43228
L55225 43200
L55267 43171
L55375 43171
L55417 43200
L55439 43228
L55460 43285
L55460 43342
L55439 43428
L55182 43771
L55460 43771
" />
</g>
<g style="fill:#000000; fill-opacity:0.0; 
stroke:#000000; stroke-width:120; stroke-opacity:1; 
stroke-linecap:round; stroke-linejoin:round;">
</g>
<g style="fill:#000000; fill-opacity:0.0; 
stroke:#000000; stroke-width:112.5; stroke-opacity:1; 
stroke-linecap:round; stroke-linejoin:round;">
<path d="M78316 39439
L77616 39439
" />
<path d="M78250 38967
L78283 38989
L78316 39053
L78316 39096
L78283 39160
L78216 39203
L78150 39224
L78016 39246
L77916 39246
L77783 39224
L77716 39203
L77650 39160
L77616 39096
L77616 39053
L77650 38989
L77683 38967
" />
<path d="M78316 38539
L78316 38796
" />
<path d="M78316 38667
L77616 38667
L77716 38710
L77783 38753
L77816 38796
" />
</g>
<g style="fill:#000000; fill-opacity:0.0; 
stroke:#000000; stroke-width:120; stroke-opacity:1; 
stroke-linecap:round; stroke-linejoin:round;">
</g>
<g style="fill:#000000; fill-opacity:0.0; 
stroke:#000000; stroke-width:80; stroke-opacity:1; 
stroke-linecap:round; stroke-linejoin:round;">
<path d="M63642 44066
L63661 44085
L63680 44142
L63680 44180
L63661 44238
L63623 44276
L63585 44295
L63509 44314
L63452 44314
L63376 44295
L63338 44276
L63300 44238
L63280 44180
L63280 44142
L63300 44085
L63319 44066
" />
<path d="M63680 43685
L63680 43914
" />
<path d="M63680 43799
L63280 43799
L63338 43838
L63376 43876
L63395 43914
" />
<path d="M74416 33214
L74392 33242
L74321 33271
L74273 33271
L74202 33242
L74154 33185
L74130 33128
L74107 33014
L74107 32928
L74130 32814
L74154 32757
L74202 32700
L74273 32671
L74321 32671
L74392 32700
L74416 32728
" />
<path d="M74607 32728
L74630 32700
L74678 32671
L74797 32671
L74845 32700
L74869 32728
L74892 32785
L74892 32842
L74869 32928
L74583 33271
L74892 33271
" />
</g>
<g style="fill:#000000; fill-opacity:0.0; 
stroke:#000000; stroke-width:120; stroke-opacity:1; 
stroke-linecap:round; stroke-linejoin:round;">
<path d="M37271 31271
L37271 30671
L37414 30671
L37500 30700
L37557 30757
L37585 30814
L37614 30928
L37614 31014
L37585 31128
L37557 31185
L37500 31242
L37414 31271
L37271 31271
" />
<path d="M38185 31271
L37842 31271
" />
<path d="M38014 31271
L38014 30671
L37957 30757
L37900 30814
L37842 30842
" />
<path d="M38757 31271
L38414 31271
" />
<path d="M38585 31271
L38585 30671
L38528 30757
L38471 30814
L38414 30842
" />
<path d="M56271 31271
L56271 30671
L56414 30671
L56500 30700
L56557 30757
L56585 30814
L56614 30928
L56614 31014
L56585 31128
L56557 31185
L56500 31242
L56414 31271
L56271 31271
" />
<path d="M57185 31271
L56842 31271
" />
<path d="M57014 31271
L57014 30671
L56957 30757
L56900 30814
L56842 30842
" />
<path d="M57557 30671
L57614 30671
L57671 30700
L57700 30728
L57728 30785
L57757 30900
L57757 31042
L57728 31157
L57700 31214
L57671 31242
L57614 31271
L57557 31271
L57500 31242
L57471 31214
L57442 31157
L57414 31042
L57414 30900
L57442 30785
L57471 30728
L57500 30700
L57557 30671
" />
<path d="M56557 35271
L56557 34671
L56700 34671
L56785 34700
L56842 34757
L56871 34814
L56900 34928
L56900 35014
L56871 35128
L56842 35185
L56785 35242
L56700 35271
L56557 35271
" />
<path d="M57185 35271
L57300 35271
L57357 35242
L57385 35214
L57442 35128
L57471 35014
L57471 34785
L57442 34728
L57414 34700
L57357 34671
L57242 34671
L57185 34700
L57157 34728
L57128 34785
L57128 34928
L57157 34985
L57185 35014
L57242 35042
L57357 35042
L57414 35014
L57442 34985
L57471 34928
" />
<path d="M68557 34271
L68557 33671
L68700 33671
L68785 33700
L68842 33757
L68871 33814
L68900 33928
L68900 34014
L68871 34128
L68842 34185
L68785 34242
L68700 34271
L68557 34271
" />
<path d="M69242 33928
L69185 33900
L69157 33871
L69128 33814
L69128 33785
L69157 33728
L69185 33700
L69242 33671
L69357 33671
L69414 33700
L69442 33728
L69471 33785
L69471 33814
L69442 33871
L69414 33900
L69357 33928
L69242 33928
L69185 33957
L69157 33985
L69128 34042
L69128 34157
L69157 34214
L69185 34242
L69242 34271
L69357 34271
L69414 34242
L69442 34214
L69471 34157
L69471 34042
L69442 33985
L69414 33957
L69357 33928
" />
<path d="M68557 38271
L68557 37671
L68700 37671
L68785 37700
L68842 37757
L68871 37814
L68900 37928
L68900 38014
L68871 38128
L68842 38185
L68785 38242
L68700 38271
L68557 38271
" />
<path d="M69100 37671
L69500 37671
L69242 38271
" />
<path d="M68557 42271
L68557 41671
L68700 41671
L68785 41700
L68842 41757
L68871 41814
L68900 41928
L68900 42014
L68871 42128
L68842 42185
L68785 42242
L68700 42271
L68557 42271
" />
<path d="M69414 41671
L69300 41671
L69242 41700
L69214 41728
L69157 41814
L69128 41928
L69128 42157
L69157 42214
L69185 42242
L69242 42271
L69357 42271
L69414 42242
L69442 42214
L69471 42157
L69471 42014
L69442 41957
L69414 41928
L69357 41900
L69242 41900
L69185 41928
L69157 41957
L69128 42014
" />
<path d="M80557 31271
L80557 30671
L80700 30671
L80785 30700
L80842 30757
L80871 30814
L80900 30928
L80900 31014
L80871 31128
L80842 31185
L80785 31242
L80700 31271
L80557 31271
" />
<path d="M81442 30671
L81157 30671
L81128 30957
L81157 30928
L81214 30900
L81357 30900
L81414 30928
L81442 30957
L81471 31014
L81471 31157
L81442 31214
L81414 31242
L81357 31271
L81214 31271
L81157 31242
L81128 31214
" />
<path d="M44557 31271
L44557 30671
L44700 30671
L44785 30700
L44842 30757
L44871 30814
L44900 30928
L44900 31014
L44871 31128
L44842 31185
L44785 31242
L44700 31271
L44557 31271
" />
<path d="M45414 30871
L45414 31271
" />
<path d="M45271 30642
L45128 31071
L45500 31071
" />
<path d="M44557 35271
L44557 34671
L44700 34671
L44785 34700
L44842 34757
L44871 34814
L44900 34928
L44900 35014
L44871 35128
L44842 35185
L44785 35242
L44700 35271
L44557 35271
" />
<path d="M45100 34671
L45471 34671
L45271 34900
L45357 34900
L45414 34928
L45442 34957
L45471 35014
L45471 35157
L45442 35214
L45414 35242
L45357 35271
L45185 35271
L45128 35242
L45100 35214
" />
<path d="M44557 46271
L44557 45671
L44700 45671
L44785 45700
L44842 45757
L44871 45814
L44900 45928
L44900 46014
L44871 46128
L44842 46185
L44785 46242
L44700 46271
L44557 46271
" />
<path d="M45128 45728
L45157 45700
L45214 45671
L45357 45671
L45414 45700
L45442 45728
L45471 45785
L45471 45842
L45442 45928
L45100 46271
L45471 46271
" />
<path d="M37557 38271
L37557 37671
L37700 37671
L37785 37700
L37842 37757
L37871 37814
L37900 37928
L37900 38014
L37871 38128
L37842 38185
L37785 38242
L37700 38271
L37557 38271
" />
<path d="M38471 38271
L38128 38271
" />
<path d="M38300 38271
L38300 37671
L38242 37757
L38185 37814
L38128 37842
" />
</g>
<g style="fill:#000000; fill-opacity:0.0; 
stroke:#000000; stroke-width:80; stroke-opacity:1; 
stroke-linecap:round; stroke-linejoin:round;">
<path d="M40748 34583
L40486 34750
" />
<path d="M40748 34869
L40198 34869
L40198 34678
L40225 34630
L40251 34607
L40303 34583
L40382 34583
L40434 34607
L40460 34630
L40486 34678
L40486 34869
" />
<path d="M40198 34154
L40198 34250
L40225 34297
L40251 34321
L40329 34369
L40434 34392
L40644 34392
L40696 34369
L40722 34345
L40748 34297
L40748 34202
L40722 34154
L40696 34130
L40644 34107
L40513 34107
L40460 34130
L40434 34154
L40408 34202
L40408 34297
L40434 34345
L40460 34369
L40513 34392
" />
<path d="M50248 34583
L49986 34750
" />
<path d="M50248 34869
L49698 34869
L49698 34678
L49725 34630
L49751 34607
L49803 34583
L49882 34583
L49934 34607
L49960 34630
L49986 34678
L49986 34869
" />
<path d="M49698 34130
L49698 34369
L49960 34392
L49934 34369
L49908 34321
L49908 34202
L49934 34154
L49960 34130
L50013 34107
L50144 34107
L50196 34130
L50222 34154
L50248 34202
L50248 34321
L50222 34369
L50196 34392
" />
<path d="M42748 34583
L42486 34750
" />
<path d="M42748 34869
L42198 34869
L42198 34678
L42225 34630
L42251 34607
L42303 34583
L42382 34583
L42434 34607
L42460 34630
L42486 34678
L42486 34869
" />
<path d="M42382 34154
L42748 34154
" />
<path d="M42172 34273
L42565 34392
L42565 34083
" />
<path d="M52248 34583
L51986 34750
" />
<path d="M52248 34869
L51698 34869
L51698 34678
L51725 34630
L51751 34607
L51803 34583
L51882 34583
L51934 34607
L51960 34630
L51986 34678
L51986 34869
" />
<path d="M51698 34416
L51698 34107
L51908 34273
L51908 34202
L51934 34154
L51960 34130
L52013 34107
L52144 34107
L52196 34130
L52222 34154
L52248 34202
L52248 34345
L52222 34392
L52196 34416
" />
<path d="M67916 45248
L67750 44986
" />
<path d="M67630 45248
L67630 44698
L67821 44698
L67869 44725
L67892 44751
L67916 44803
L67916 44882
L67892 44934
L67869 44960
L67821 44986
L67630 44986
" />
<path d="M68107 44751
L68130 44725
L68178 44698
L68297 44698
L68345 44725
L68369 44751
L68392 44803
L68392 44855
L68369 44934
L68083 45248
L68392 45248
" />
<path d="M48248 34583
L47986 34750
" />
<path d="M48248 34869
L47698 34869
L47698 34678
L47725 34630
L47751 34607
L47803 34583
L47882 34583
L47934 34607
L47960 34630
L47986 34678
L47986 34869
" />
<path d="M48248 34107
L48248 34392
" />
<path d="M48248 34250
L47698 34250
L47777 34297
L47829 34345
L47855 34392
" />
<path d="M46780 41804
L46780 41576
" />
<path d="M47180 41690
L46780 41690
" />
<path d="M47180 41233
L47180 41461
" />
<path d="M47180 41347
L46780 41347
L46838 41385
L46876 41423
L46895 41461
" />
</g>
<g style="fill:#000000; fill-opacity:0.0; 
stroke:#000000; stroke-width:120; stroke-opacity:1; 
stroke-linecap:round; stroke-linejoin:round;">
</g>
<g style="fill:#000000; fill-opacity:0.0; 
stroke:#000000; stroke-width:107; stroke-opacity:1; 
stroke-linecap:round; stroke-linejoin:round;">
<path d="M84775 40866
L84808 40805
L84808 40703
L84775 40662
L84743 40642
L84678 40621
L84613 40621
L84548 40642
L84516 40662
L84483 40703
L84451 40784
L84418 40825
L84386 40845
L84321 40866
L84256 40866
L84191 40845
L84159 40825
L84127 40784
L84127 40682
L84159 40621
" />
<path d="M84808 40438
L84127 40438
" />
<path d="M84808 40030
L84808 40234
L84127 40234
" />
<path d="M84548 39887
L84548 39561
" />
<path d="M84808 39337
L84808 39256
L84775 39215
L84743 39194
L84645 39154
L84516 39133
L84256 39133
L84191 39154
L84159 39174
L84127 39215
L84127 39296
L84159 39337
L84191 39358
L84256 39378
L84418 39378
L84483 39358
L84516 39337
L84548 39296
L84548 39215
L84516 39174
L84483 39154
L84418 39133
" />
</g>
<g style="fill:#000000; fill-opacity:0.0; 
stroke:#000000; stroke-width:120; stroke-opacity:1; 
stroke-linecap:round; stroke-linejoin:round;">
</g>
<g style="fill:#000000; fill-opacity:0.0; 
stroke:#000000; stroke-width:107; stroke-opacity:1; 
stroke-linecap:round; stroke-linejoin:round;">
<path d="M84775 37366
L84808 37305
L84808 37203
L84775 37162
L84743 37142
L84678 37121
L84613 37121
L84548 37142
L84516 37162
L84483 37203
L84451 37284
L84418 37325
L84386 37345
L84321 37366
L84256 37366
L84191 37345
L84159 37325
L84127 37284
L84127 37182
L84159 37121
" />
<path d="M84808 36938
L84127 36938
" />
<path d="M84808 36530
L84808 36734
L84127 36734
" />
<path d="M84548 36387
L84548 36061
" />
<path d="M84191 35878
L84159 35858
L84127 35817
L84127 35715
L84159 35674
L84191 35654
L84256 35633
L84321 35633
L84418 35654
L84808 35898
L84808 35633
" />
</g>
<g style="fill:#000000; fill-opacity:0.0; 
stroke:#000000; stroke-width:120; stroke-opacity:1; 
stroke-linecap:round; stroke-linejoin:round;">
</g> 
</svg>
