<?xml version="1.0" standalone="no"?>
 <!DOCTYPE svg PUBLIC "-//W3C//DTD SVG 1.1//EN" 
 "http://www.w3.org/Graphics/SVG/1.1/DTD/svg11.dtd"> 
<svg xmlns="http://www.w3.org/2000/svg" version="1.1" 
    width="29.7002cm" height="21.0007cm" viewBox="0 0 116930 82680 ">
<title>SVG Picture created as ctt_sc-Back.svg date 2022/09/04 20:18:30 </title>
  <desc>Picture generated by PCBNEW </desc>
<g style="fill:#000000; fill-opacity:1;stroke:#000000; stroke-opacity:1;
stroke-linecap:round; stroke-linejoin:round; "
 transform="translate(0 0) scale(1 1)">
</g>
<g style="fill:#000000; fill-opacity:0.0; 
stroke:#000000; stroke-width:-0.000393701; stroke-opacity:1; 
stroke-linecap:round; stroke-linejoin:round;">
</g>
<g style="fill:#000000; fill-opacity:0.0; 
stroke:#000000; stroke-width:39.3701; stroke-opacity:1; 
stroke-linecap:round; stroke-linejoin:round;">
</g>
<g style="fill:#000000; fill-opacity:0.0; 
stroke:#000000; stroke-width:59.0551; stroke-opacity:1; 
stroke-linecap:round; stroke-linejoin:round;">
<rect x="69685.9" y="65357.2" width="42519.7" height="12598.4" rx="0" />
</g>
<g style="fill:#000000; fill-opacity:0.0; 
stroke:#000000; stroke-width:39.3701; stroke-opacity:1; 
stroke-linecap:round; stroke-linejoin:round;">
</g>
<g style="fill:#000000; fill-opacity:0.0; 
stroke:#000000; stroke-width:59.0551; stroke-opacity:1; 
stroke-linecap:round; stroke-linejoin:round;">
<rect x="3937.01" y="3937.01" width="109056" height="74806" rx="0" />
</g>
<g style="fill:#000000; fill-opacity:0.0; 
stroke:#000000; stroke-width:39.3701; stroke-opacity:1; 
stroke-linecap:round; stroke-linejoin:round;">
</g>
<g style="fill:#000000; fill-opacity:0.0; 
stroke:#000000; stroke-width:59.0551; stroke-opacity:1; 
stroke-linecap:round; stroke-linejoin:round;">
<rect x="4724.41" y="4724.41" width="107481" height="73231.2" rx="0" />
</g>
<g style="fill:#000000; fill-opacity:0.0; 
stroke:#000000; stroke-width:39.3701; stroke-opacity:1; 
stroke-linecap:round; stroke-linejoin:round;">
</g>
<g style="fill:#000000; fill-opacity:0.0; 
stroke:#000000; stroke-width:59.0551; stroke-opacity:1; 
stroke-linecap:round; stroke-linejoin:round;">
<path d="M23622 4724
L23622 3937
" />
</g>
<g style="fill:#000000; fill-opacity:0.0; 
stroke:#000000; stroke-width:39.3701; stroke-opacity:1; 
stroke-linecap:round; stroke-linejoin:round;">
</g>
<g style="fill:#000000; fill-opacity:0.0; 
stroke:#000000; stroke-width:59.0551; stroke-opacity:1; 
stroke-linecap:round; stroke-linejoin:round;">
<path d="M43307 4724
L43307 3937
" />
</g>
<g style="fill:#000000; fill-opacity:0.0; 
stroke:#000000; stroke-width:39.3701; stroke-opacity:1; 
stroke-linecap:round; stroke-linejoin:round;">
</g>
<g style="fill:#000000; fill-opacity:0.0; 
stroke:#000000; stroke-width:59.0551; stroke-opacity:1; 
stroke-linecap:round; stroke-linejoin:round;">
<path d="M62992 4724
L62992 3937
" />
</g>
<g style="fill:#000000; fill-opacity:0.0; 
stroke:#000000; stroke-width:39.3701; stroke-opacity:1; 
stroke-linecap:round; stroke-linejoin:round;">
</g>
<g style="fill:#000000; fill-opacity:0.0; 
stroke:#000000; stroke-width:59.0551; stroke-opacity:1; 
stroke-linecap:round; stroke-linejoin:round;">
<path d="M82677 4724
L82677 3937
" />
</g>
<g style="fill:#000000; fill-opacity:0.0; 
stroke:#000000; stroke-width:39.3701; stroke-opacity:1; 
stroke-linecap:round; stroke-linejoin:round;">
</g>
<g style="fill:#000000; fill-opacity:0.0; 
stroke:#000000; stroke-width:59.0551; stroke-opacity:1; 
stroke-linecap:round; stroke-linejoin:round;">
<path d="M102362 4724
L102362 3937
" />
</g>
<g style="fill:#000000; fill-opacity:0.0; 
stroke:#000000; stroke-width:39.3701; stroke-opacity:1; 
stroke-linecap:round; stroke-linejoin:round;">
</g>
<g style="fill:#000000; fill-opacity:0.0; 
stroke:#000000; stroke-width:59.0551; stroke-opacity:1; 
stroke-linecap:round; stroke-linejoin:round;">
<path d="M14169 4562
L13877 4562
" />
<path d="M14023 4562
L14023 4050
L13974 4123
L13925 4172
L13877 4196
" />
</g>
<g style="fill:#000000; fill-opacity:0.0; 
stroke:#000000; stroke-width:39.3701; stroke-opacity:1; 
stroke-linecap:round; stroke-linejoin:round;">
</g>
<g style="fill:#000000; fill-opacity:0.0; 
stroke:#000000; stroke-width:59.0551; stroke-opacity:1; 
stroke-linecap:round; stroke-linejoin:round;">
<path d="M33562 4099
L33586 4074
L33635 4050
L33757 4050
L33805 4074
L33830 4099
L33854 4147
L33854 4196
L33830 4269
L33537 4562
L33854 4562
" />
</g>
<g style="fill:#000000; fill-opacity:0.0; 
stroke:#000000; stroke-width:39.3701; stroke-opacity:1; 
stroke-linecap:round; stroke-linejoin:round;">
</g>
<g style="fill:#000000; fill-opacity:0.0; 
stroke:#000000; stroke-width:59.0551; stroke-opacity:1; 
stroke-linecap:round; stroke-linejoin:round;">
<path d="M53222 4050
L53539 4050
L53368 4245
L53442 4245
L53490 4269
L53515 4294
L53539 4342
L53539 4464
L53515 4513
L53490 4537
L53442 4562
L53295 4562
L53247 4537
L53222 4513
" />
</g>
<g style="fill:#000000; fill-opacity:0.0; 
stroke:#000000; stroke-width:39.3701; stroke-opacity:1; 
stroke-linecap:round; stroke-linejoin:round;">
</g>
<g style="fill:#000000; fill-opacity:0.0; 
stroke:#000000; stroke-width:59.0551; stroke-opacity:1; 
stroke-linecap:round; stroke-linejoin:round;">
<path d="M73175 4221
L73175 4562
" />
<path d="M73053 4026
L72932 4391
L73248 4391
" />
</g>
<g style="fill:#000000; fill-opacity:0.0; 
stroke:#000000; stroke-width:39.3701; stroke-opacity:1; 
stroke-linecap:round; stroke-linejoin:round;">
</g>
<g style="fill:#000000; fill-opacity:0.0; 
stroke:#000000; stroke-width:59.0551; stroke-opacity:1; 
stroke-linecap:round; stroke-linejoin:round;">
<path d="M92885 4050
L92641 4050
L92617 4294
L92641 4269
L92690 4245
L92812 4245
L92860 4269
L92885 4294
L92909 4342
L92909 4464
L92885 4513
L92860 4537
L92812 4562
L92690 4562
L92641 4537
L92617 4513
" />
</g>
<g style="fill:#000000; fill-opacity:0.0; 
stroke:#000000; stroke-width:39.3701; stroke-opacity:1; 
stroke-linecap:round; stroke-linejoin:round;">
</g>
<g style="fill:#000000; fill-opacity:0.0; 
stroke:#000000; stroke-width:59.0551; stroke-opacity:1; 
stroke-linecap:round; stroke-linejoin:round;">
<path d="M112545 4050
L112448 4050
L112399 4074
L112375 4099
L112326 4172
L112302 4269
L112302 4464
L112326 4513
L112350 4537
L112399 4562
L112497 4562
L112545 4537
L112570 4513
L112594 4464
L112594 4342
L112570 4294
L112545 4269
L112497 4245
L112399 4245
L112350 4269
L112326 4294
L112302 4342
" />
</g>
<g style="fill:#000000; fill-opacity:0.0; 
stroke:#000000; stroke-width:39.3701; stroke-opacity:1; 
stroke-linecap:round; stroke-linejoin:round;">
</g>
<g style="fill:#000000; fill-opacity:0.0; 
stroke:#000000; stroke-width:59.0551; stroke-opacity:1; 
stroke-linecap:round; stroke-linejoin:round;">
<path d="M23622 77955
L23622 78742
" />
</g>
<g style="fill:#000000; fill-opacity:0.0; 
stroke:#000000; stroke-width:39.3701; stroke-opacity:1; 
stroke-linecap:round; stroke-linejoin:round;">
</g>
<g style="fill:#000000; fill-opacity:0.0; 
stroke:#000000; stroke-width:59.0551; stroke-opacity:1; 
stroke-linecap:round; stroke-linejoin:round;">
<path d="M43307 77955
L43307 78742
" />
</g>
<g style="fill:#000000; fill-opacity:0.0; 
stroke:#000000; stroke-width:39.3701; stroke-opacity:1; 
stroke-linecap:round; stroke-linejoin:round;">
</g>
<g style="fill:#000000; fill-opacity:0.0; 
stroke:#000000; stroke-width:59.0551; stroke-opacity:1; 
stroke-linecap:round; stroke-linejoin:round;">
<path d="M62992 77955
L62992 78742
" />
</g>
<g style="fill:#000000; fill-opacity:0.0; 
stroke:#000000; stroke-width:39.3701; stroke-opacity:1; 
stroke-linecap:round; stroke-linejoin:round;">
</g>
<g style="fill:#000000; fill-opacity:0.0; 
stroke:#000000; stroke-width:59.0551; stroke-opacity:1; 
stroke-linecap:round; stroke-linejoin:round;">
<path d="M82677 77955
L82677 78742
" />
</g>
<g style="fill:#000000; fill-opacity:0.0; 
stroke:#000000; stroke-width:39.3701; stroke-opacity:1; 
stroke-linecap:round; stroke-linejoin:round;">
</g>
<g style="fill:#000000; fill-opacity:0.0; 
stroke:#000000; stroke-width:59.0551; stroke-opacity:1; 
stroke-linecap:round; stroke-linejoin:round;">
<path d="M102362 77955
L102362 78742
" />
</g>
<g style="fill:#000000; fill-opacity:0.0; 
stroke:#000000; stroke-width:39.3701; stroke-opacity:1; 
stroke-linecap:round; stroke-linejoin:round;">
</g>
<g style="fill:#000000; fill-opacity:0.0; 
stroke:#000000; stroke-width:59.0551; stroke-opacity:1; 
stroke-linecap:round; stroke-linejoin:round;">
<path d="M14169 78580
L13877 78580
" />
<path d="M14023 78580
L14023 78069
L13974 78142
L13925 78190
L13877 78215
" />
</g>
<g style="fill:#000000; fill-opacity:0.0; 
stroke:#000000; stroke-width:39.3701; stroke-opacity:1; 
stroke-linecap:round; stroke-linejoin:round;">
</g>
<g style="fill:#000000; fill-opacity:0.0; 
stroke:#000000; stroke-width:59.0551; stroke-opacity:1; 
stroke-linecap:round; stroke-linejoin:round;">
<path d="M33562 78117
L33586 78093
L33635 78069
L33757 78069
L33805 78093
L33830 78117
L33854 78166
L33854 78215
L33830 78288
L33537 78580
L33854 78580
" />
</g>
<g style="fill:#000000; fill-opacity:0.0; 
stroke:#000000; stroke-width:39.3701; stroke-opacity:1; 
stroke-linecap:round; stroke-linejoin:round;">
</g>
<g style="fill:#000000; fill-opacity:0.0; 
stroke:#000000; stroke-width:59.0551; stroke-opacity:1; 
stroke-linecap:round; stroke-linejoin:round;">
<path d="M53222 78069
L53539 78069
L53368 78263
L53442 78263
L53490 78288
L53515 78312
L53539 78361
L53539 78483
L53515 78532
L53490 78556
L53442 78580
L53295 78580
L53247 78556
L53222 78532
" />
</g>
<g style="fill:#000000; fill-opacity:0.0; 
stroke:#000000; stroke-width:39.3701; stroke-opacity:1; 
stroke-linecap:round; stroke-linejoin:round;">
</g>
<g style="fill:#000000; fill-opacity:0.0; 
stroke:#000000; stroke-width:59.0551; stroke-opacity:1; 
stroke-linecap:round; stroke-linejoin:round;">
<path d="M73175 78239
L73175 78580
" />
<path d="M73053 78044
L72932 78410
L73248 78410
" />
</g>
<g style="fill:#000000; fill-opacity:0.0; 
stroke:#000000; stroke-width:39.3701; stroke-opacity:1; 
stroke-linecap:round; stroke-linejoin:round;">
</g>
<g style="fill:#000000; fill-opacity:0.0; 
stroke:#000000; stroke-width:59.0551; stroke-opacity:1; 
stroke-linecap:round; stroke-linejoin:round;">
<path d="M92885 78069
L92641 78069
L92617 78312
L92641 78288
L92690 78263
L92812 78263
L92860 78288
L92885 78312
L92909 78361
L92909 78483
L92885 78532
L92860 78556
L92812 78580
L92690 78580
L92641 78556
L92617 78532
" />
</g>
<g style="fill:#000000; fill-opacity:0.0; 
stroke:#000000; stroke-width:39.3701; stroke-opacity:1; 
stroke-linecap:round; stroke-linejoin:round;">
</g>
<g style="fill:#000000; fill-opacity:0.0; 
stroke:#000000; stroke-width:59.0551; stroke-opacity:1; 
stroke-linecap:round; stroke-linejoin:round;">
<path d="M112545 78069
L112448 78069
L112399 78093
L112375 78117
L112326 78190
L112302 78288
L112302 78483
L112326 78532
L112350 78556
L112399 78580
L112497 78580
L112545 78556
L112570 78532
L112594 78483
L112594 78361
L112570 78312
L112545 78288
L112497 78263
L112399 78263
L112350 78288
L112326 78312
L112302 78361
" />
</g>
<g style="fill:#000000; fill-opacity:0.0; 
stroke:#000000; stroke-width:39.3701; stroke-opacity:1; 
stroke-linecap:round; stroke-linejoin:round;">
</g>
<g style="fill:#000000; fill-opacity:0.0; 
stroke:#000000; stroke-width:59.0551; stroke-opacity:1; 
stroke-linecap:round; stroke-linejoin:round;">
<path d="M3937 23622
L4724 23622
" />
</g>
<g style="fill:#000000; fill-opacity:0.0; 
stroke:#000000; stroke-width:39.3701; stroke-opacity:1; 
stroke-linecap:round; stroke-linejoin:round;">
</g>
<g style="fill:#000000; fill-opacity:0.0; 
stroke:#000000; stroke-width:59.0551; stroke-opacity:1; 
stroke-linecap:round; stroke-linejoin:round;">
<path d="M3937 43307
L4724 43307
" />
</g>
<g style="fill:#000000; fill-opacity:0.0; 
stroke:#000000; stroke-width:39.3701; stroke-opacity:1; 
stroke-linecap:round; stroke-linejoin:round;">
</g>
<g style="fill:#000000; fill-opacity:0.0; 
stroke:#000000; stroke-width:59.0551; stroke-opacity:1; 
stroke-linecap:round; stroke-linejoin:round;">
<path d="M3937 62992
L4724 62992
" />
</g>
<g style="fill:#000000; fill-opacity:0.0; 
stroke:#000000; stroke-width:39.3701; stroke-opacity:1; 
stroke-linecap:round; stroke-linejoin:round;">
</g>
<g style="fill:#000000; fill-opacity:0.0; 
stroke:#000000; stroke-width:59.0551; stroke-opacity:1; 
stroke-linecap:round; stroke-linejoin:round;">
<path d="M4208 13864
L4452 13864
" />
<path d="M4160 14011
L4330 13499
L4501 14011
" />
</g>
<g style="fill:#000000; fill-opacity:0.0; 
stroke:#000000; stroke-width:39.3701; stroke-opacity:1; 
stroke-linecap:round; stroke-linejoin:round;">
</g>
<g style="fill:#000000; fill-opacity:0.0; 
stroke:#000000; stroke-width:59.0551; stroke-opacity:1; 
stroke-linecap:round; stroke-linejoin:round;">
<path d="M4367 33428
L4440 33452
L4464 33476
L4489 33525
L4489 33598
L4464 33647
L4440 33671
L4391 33696
L4196 33696
L4196 33184
L4367 33184
L4416 33208
L4440 33233
L4464 33281
L4464 33330
L4440 33379
L4416 33403
L4367 33428
L4196 33428
" />
</g>
<g style="fill:#000000; fill-opacity:0.0; 
stroke:#000000; stroke-width:39.3701; stroke-opacity:1; 
stroke-linecap:round; stroke-linejoin:round;">
</g>
<g style="fill:#000000; fill-opacity:0.0; 
stroke:#000000; stroke-width:59.0551; stroke-opacity:1; 
stroke-linecap:round; stroke-linejoin:round;">
<path d="M4489 53332
L4464 53356
L4391 53381
L4342 53381
L4269 53356
L4221 53308
L4196 53259
L4172 53161
L4172 53088
L4196 52991
L4221 52942
L4269 52893
L4342 52869
L4391 52869
L4464 52893
L4489 52918
" />
</g>
<g style="fill:#000000; fill-opacity:0.0; 
stroke:#000000; stroke-width:39.3701; stroke-opacity:1; 
stroke-linecap:round; stroke-linejoin:round;">
</g>
<g style="fill:#000000; fill-opacity:0.0; 
stroke:#000000; stroke-width:59.0551; stroke-opacity:1; 
stroke-linecap:round; stroke-linejoin:round;">
<path d="M4196 73066
L4196 72554
L4318 72554
L4391 72578
L4440 72627
L4464 72676
L4489 72773
L4489 72846
L4464 72944
L4440 72993
L4391 73041
L4318 73066
L4196 73066
" />
</g>
<g style="fill:#000000; fill-opacity:0.0; 
stroke:#000000; stroke-width:39.3701; stroke-opacity:1; 
stroke-linecap:round; stroke-linejoin:round;">
</g>
<g style="fill:#000000; fill-opacity:0.0; 
stroke:#000000; stroke-width:59.0551; stroke-opacity:1; 
stroke-linecap:round; stroke-linejoin:round;">
<path d="M112992 23622
L112205 23622
" />
</g>
<g style="fill:#000000; fill-opacity:0.0; 
stroke:#000000; stroke-width:39.3701; stroke-opacity:1; 
stroke-linecap:round; stroke-linejoin:round;">
</g>
<g style="fill:#000000; fill-opacity:0.0; 
stroke:#000000; stroke-width:59.0551; stroke-opacity:1; 
stroke-linecap:round; stroke-linejoin:round;">
<path d="M112992 43307
L112205 43307
" />
</g>
<g style="fill:#000000; fill-opacity:0.0; 
stroke:#000000; stroke-width:39.3701; stroke-opacity:1; 
stroke-linecap:round; stroke-linejoin:round;">
</g>
<g style="fill:#000000; fill-opacity:0.0; 
stroke:#000000; stroke-width:59.0551; stroke-opacity:1; 
stroke-linecap:round; stroke-linejoin:round;">
<path d="M112992 62992
L112205 62992
" />
</g>
<g style="fill:#000000; fill-opacity:0.0; 
stroke:#000000; stroke-width:39.3701; stroke-opacity:1; 
stroke-linecap:round; stroke-linejoin:round;">
</g>
<g style="fill:#000000; fill-opacity:0.0; 
stroke:#000000; stroke-width:59.0551; stroke-opacity:1; 
stroke-linecap:round; stroke-linejoin:round;">
<path d="M112477 13864
L112721 13864
" />
<path d="M112428 14011
L112599 13499
L112769 14011
" />
</g>
<g style="fill:#000000; fill-opacity:0.0; 
stroke:#000000; stroke-width:39.3701; stroke-opacity:1; 
stroke-linecap:round; stroke-linejoin:round;">
</g>
<g style="fill:#000000; fill-opacity:0.0; 
stroke:#000000; stroke-width:59.0551; stroke-opacity:1; 
stroke-linecap:round; stroke-linejoin:round;">
<path d="M112635 33428
L112708 33452
L112733 33476
L112757 33525
L112757 33598
L112733 33647
L112708 33671
L112660 33696
L112465 33696
L112465 33184
L112635 33184
L112684 33208
L112708 33233
L112733 33281
L112733 33330
L112708 33379
L112684 33403
L112635 33428
L112465 33428
" />
</g>
<g style="fill:#000000; fill-opacity:0.0; 
stroke:#000000; stroke-width:39.3701; stroke-opacity:1; 
stroke-linecap:round; stroke-linejoin:round;">
</g>
<g style="fill:#000000; fill-opacity:0.0; 
stroke:#000000; stroke-width:59.0551; stroke-opacity:1; 
stroke-linecap:round; stroke-linejoin:round;">
<path d="M112757 53332
L112733 53356
L112660 53381
L112611 53381
L112538 53356
L112489 53308
L112465 53259
L112440 53161
L112440 53088
L112465 52991
L112489 52942
L112538 52893
L112611 52869
L112660 52869
L112733 52893
L112757 52918
" />
</g>
<g style="fill:#000000; fill-opacity:0.0; 
stroke:#000000; stroke-width:39.3701; stroke-opacity:1; 
stroke-linecap:round; stroke-linejoin:round;">
</g>
<g style="fill:#000000; fill-opacity:0.0; 
stroke:#000000; stroke-width:59.0551; stroke-opacity:1; 
stroke-linecap:round; stroke-linejoin:round;">
<path d="M112465 73066
L112465 72554
L112587 72554
L112660 72578
L112708 72627
L112733 72676
L112757 72773
L112757 72846
L112733 72944
L112708 72993
L112660 73041
L112587 73066
L112465 73066
" />
</g>
<g style="fill:#000000; fill-opacity:0.0; 
stroke:#000000; stroke-width:39.3701; stroke-opacity:1; 
stroke-linecap:round; stroke-linejoin:round;">
</g>
<g style="fill:#000000; fill-opacity:0.0; 
stroke:#000000; stroke-width:59.0551; stroke-opacity:1; 
stroke-linecap:round; stroke-linejoin:round;">
<path d="M78881 76293
L78881 75703
L79022 75703
L79106 75731
L79162 75787
L79190 75843
L79219 75956
L79219 76040
L79190 76153
L79162 76209
L79106 76265
L79022 76293
L78881 76293
" />
<path d="M79725 76293
L79725 75984
L79697 75928
L79640 75899
L79528 75899
L79472 75928
" />
<path d="M79725 76265
L79669 76293
L79528 76293
L79472 76265
L79444 76209
L79444 76153
L79472 76096
L79528 76068
L79669 76068
L79725 76040
" />
<path d="M79922 75899
L80147 75899
" />
<path d="M80006 75703
L80006 76209
L80034 76265
L80090 76293
L80147 76293
" />
<path d="M80568 76265
L80512 76293
L80400 76293
L80343 76265
L80315 76209
L80315 75984
L80343 75928
L80400 75899
L80512 75899
L80568 75928
L80597 75984
L80597 76040
L80315 76096
" />
<path d="M80850 76237
L80878 76265
L80850 76293
L80822 76265
L80850 76237
L80850 76293
" />
<path d="M80850 75928
L80878 75956
L80850 75984
L80822 75956
L80850 75928
L80850 75984
" />
<path d="M81862 75703
L81581 75703
L81553 75984
L81581 75956
L81637 75928
L81778 75928
L81834 75956
L81862 75984
L81890 76040
L81890 76181
L81862 76237
L81834 76265
L81778 76293
L81637 76293
L81581 76265
L81553 76237
" />
<path d="M82593 75899
L82593 76406
L82565 76462
L82509 76490
L82481 76490
" />
<path d="M82593 75703
L82565 75731
L82593 75759
L82621 75731
L82593 75703
L82593 75759
" />
<path d="M83127 75899
L83127 76293
" />
<path d="M82874 75899
L82874 76209
L82903 76265
L82959 76293
L83043 76293
L83099 76265
L83127 76237
" />
<path d="M83409 75899
L83409 76293
" />
<path d="M83409 75956
L83437 75928
L83493 75899
L83577 75899
L83634 75928
L83662 75984
L83662 76293
" />
<path d="M84365 75759
L84393 75731
L84449 75703
L84590 75703
L84646 75731
L84674 75759
L84702 75815
L84702 75871
L84674 75956
L84337 76293
L84702 76293
" />
<path d="M85068 75703
L85124 75703
L85180 75731
L85208 75759
L85237 75815
L85265 75928
L85265 76068
L85237 76181
L85208 76237
L85180 76265
L85124 76293
L85068 76293
L85012 76265
L84983 76237
L84955 76181
L84927 76068
L84927 75928
L84955 75815
L84983 75759
L85012 75731
L85068 75703
" />
<path d="M85827 76293
L85490 76293
" />
<path d="M85658 76293
L85658 75703
L85602 75787
L85546 75843
L85490 75871
" />
<path d="M86390 76293
L86052 76293
" />
<path d="M86221 76293
L86221 75703
L86165 75787
L86108 75843
L86052 75871
" />
</g>
<g style="fill:#000000; fill-opacity:0.0; 
stroke:#000000; stroke-width:39.3701; stroke-opacity:1; 
stroke-linecap:round; stroke-linejoin:round;">
</g>
<g style="fill:#000000; fill-opacity:0.0; 
stroke:#000000; stroke-width:59.0551; stroke-opacity:1; 
stroke-linecap:round; stroke-linejoin:round;">
<path d="M69685 76577
L112205 76577
" />
</g>
<g style="fill:#000000; fill-opacity:0.0; 
stroke:#000000; stroke-width:39.3701; stroke-opacity:1; 
stroke-linecap:round; stroke-linejoin:round;">
</g>
<g style="fill:#000000; fill-opacity:0.0; 
stroke:#000000; stroke-width:59.0551; stroke-opacity:1; 
stroke-linecap:round; stroke-linejoin:round;">
<path d="M70220 77395
L70220 76805
" />
<path d="M70557 77395
L70304 77058
" />
<path d="M70557 76805
L70220 77142
" />
<path d="M70810 77395
L70810 77002
" />
<path d="M70810 76805
L70782 76833
L70810 76861
L70838 76833
L70810 76805
L70810 76861
" />
<path d="M71429 77339
L71401 77367
L71316 77395
L71260 77395
L71176 77367
L71120 77311
L71091 77255
L71063 77142
L71063 77058
L71091 76946
L71120 76889
L71176 76833
L71260 76805
L71316 76805
L71401 76833
L71429 76861
" />
<path d="M71935 77395
L71935 77086
L71907 77030
L71851 77002
L71738 77002
L71682 77030
" />
<path d="M71935 77367
L71879 77395
L71738 77395
L71682 77367
L71654 77311
L71654 77255
L71682 77199
L71738 77171
L71879 77171
L71935 77142
" />
<path d="M72469 77395
L72469 76805
" />
<path d="M72469 77367
L72413 77395
L72301 77395
L72244 77367
L72216 77339
L72188 77283
L72188 77114
L72216 77058
L72244 77030
L72301 77002
L72413 77002
L72469 77030
" />
<path d="M73201 77086
L73397 77086
" />
<path d="M73482 77395
L73201 77395
L73201 76805
L73482 76805
" />
<path d="M73735 77339
L73763 77367
L73735 77395
L73707 77367
L73735 77339
L73735 77395
" />
<path d="M74016 77395
L74016 76805
L74157 76805
L74241 76833
L74297 76889
L74325 76946
L74354 77058
L74354 77142
L74325 77255
L74297 77311
L74241 77367
L74157 77395
L74016 77395
" />
<path d="M74607 77339
L74635 77367
L74607 77395
L74579 77367
L74607 77339
L74607 77395
" />
<path d="M74860 77227
L75141 77227
" />
<path d="M74804 77395
L75000 76805
L75197 77395
" />
<path d="M75394 77339
L75422 77367
L75394 77395
L75366 77367
L75394 77339
L75394 77395
" />
<path d="M76575 77002
L76575 77592
" />
<path d="M76575 77030
L76631 77002
L76744 77002
L76800 77030
L76828 77058
L76856 77114
L76856 77283
L76828 77339
L76800 77367
L76744 77395
L76631 77395
L76575 77367
" />
<path d="M77363 77367
L77306 77395
L77194 77395
L77138 77367
L77109 77339
L77081 77283
L77081 77114
L77109 77058
L77138 77030
L77194 77002
L77306 77002
L77363 77030
" />
<path d="M77616 77395
L77616 76805
" />
<path d="M77616 77030
L77672 77002
L77784 77002
L77841 77030
L77869 77058
L77897 77114
L77897 77283
L77869 77339
L77841 77367
L77784 77395
L77672 77395
L77616 77367
" />
<path d="M78150 77002
L78150 77395
" />
<path d="M78150 77058
L78178 77030
L78234 77002
L78319 77002
L78375 77030
L78403 77086
L78403 77395
" />
<path d="M78909 77367
L78853 77395
L78741 77395
L78684 77367
L78656 77311
L78656 77086
L78684 77030
L78741 77002
L78853 77002
L78909 77030
L78937 77086
L78937 77142
L78656 77199
" />
<path d="M79134 77002
L79247 77395
L79359 77114
L79472 77395
L79584 77002
" />
<path d="M80512 77002
L80512 77395
" />
<path d="M80372 76777
L80231 77199
L80597 77199
" />
<path d="M80822 77339
L80850 77367
L80822 77395
L80793 77367
L80822 77339
L80822 77395
" />
<path d="M81215 76805
L81271 76805
L81328 76833
L81356 76861
L81384 76917
L81412 77030
L81412 77171
L81384 77283
L81356 77339
L81328 77367
L81271 77395
L81215 77395
L81159 77367
L81131 77339
L81103 77283
L81075 77171
L81075 77030
L81103 76917
L81131 76861
L81159 76833
L81215 76805
" />
<path d="M81665 77339
L81693 77367
L81665 77395
L81637 77367
L81665 77339
L81665 77395
" />
<path d="M82228 76805
L81946 76805
L81918 77086
L81946 77058
L82003 77030
L82143 77030
L82199 77058
L82228 77086
L82256 77142
L82256 77283
L82228 77339
L82199 77367
L82143 77395
L82003 77395
L81946 77367
L81918 77339
" />
<path d="M82509 77171
L82959 77171
" />
<path d="M82734 77395
L82734 76946
" />
<path d="M83493 77395
L83493 76805
" />
<path d="M83493 77367
L83437 77395
L83324 77395
L83268 77367
L83240 77339
L83212 77283
L83212 77114
L83240 77058
L83268 77030
L83324 77002
L83437 77002
L83493 77030
" />
<path d="M83690 77002
L83915 77002
" />
<path d="M83774 77395
L83774 76889
L83802 76833
L83859 76805
L83915 76805
" />
<path d="M84084 77367
L84140 77395
L84252 77395
L84309 77367
L84337 77311
L84337 77283
L84309 77227
L84252 77199
L84168 77199
L84112 77171
L84084 77114
L84084 77086
L84112 77030
L84168 77002
L84252 77002
L84309 77030
" />
<path d="M84843 77002
L84843 77480
L84815 77536
L84787 77564
L84730 77592
L84646 77592
L84590 77564
" />
<path d="M84843 77367
L84787 77395
L84674 77395
L84618 77367
L84590 77339
L84562 77283
L84562 77114
L84590 77058
L84618 77030
L84674 77002
L84787 77002
L84843 77030
" />
<path d="M85433 77395
L85096 77395
" />
<path d="M85265 77395
L85265 76805
L85208 76889
L85152 76946
L85096 76974
" />
<path d="M85687 77171
L86136 77171
" />
<path d="M86671 77002
L86671 77395
" />
<path d="M86530 76777
L86390 77199
L86755 77199
" />
<path d="M86980 77171
L87430 77171
" />
<path d="M87205 77395
L87205 76946
" />
<path d="M87964 77395
L87964 76805
" />
<path d="M87964 77367
L87908 77395
L87796 77395
L87739 77367
L87711 77339
L87683 77283
L87683 77114
L87711 77058
L87739 77030
L87796 77002
L87908 77002
L87964 77030
" />
<path d="M88471 77367
L88414 77395
L88302 77395
L88246 77367
L88217 77311
L88217 77086
L88246 77030
L88302 77002
L88414 77002
L88471 77030
L88499 77086
L88499 77142
L88217 77199
" />
<path d="M88752 77395
L88752 76805
" />
<path d="M88752 77030
L88808 77002
L88921 77002
L88977 77030
L89005 77058
L89033 77114
L89033 77283
L89005 77339
L88977 77367
L88921 77395
L88808 77395
L88752 77367
" />
<path d="M89314 77395
L89427 77395
L89483 77367
L89511 77339
L89567 77255
L89595 77142
L89595 76917
L89567 76861
L89539 76833
L89483 76805
L89370 76805
L89314 76833
L89286 76861
L89258 76917
L89258 77058
L89286 77114
L89314 77142
L89370 77171
L89483 77171
L89539 77142
L89567 77114
L89595 77058
" />
<path d="M90102 77002
L90102 77395
" />
<path d="M89849 77002
L89849 77311
L89877 77367
L89933 77395
L90017 77395
L90073 77367
L90102 77339
" />
<path d="M90692 77395
L90355 77395
" />
<path d="M90523 77395
L90523 76805
L90467 76889
L90411 76946
L90355 76974
" />
</g>
<g style="fill:#000000; fill-opacity:0.0; 
stroke:#000000; stroke-width:39.3701; stroke-opacity:1; 
stroke-linecap:round; stroke-linejoin:round;">
</g>
<g style="fill:#000000; fill-opacity:0.0; 
stroke:#000000; stroke-width:59.0551; stroke-opacity:1; 
stroke-linecap:round; stroke-linejoin:round;">
<path d="M69685 75396
L112205 75396
" />
</g>
<g style="fill:#000000; fill-opacity:0.0; 
stroke:#000000; stroke-width:39.3701; stroke-opacity:1; 
stroke-linecap:round; stroke-linejoin:round;">
</g>
<g style="fill:#000000; fill-opacity:0.0; 
stroke:#000000; stroke-width:118.11; stroke-opacity:1; 
stroke-linecap:round; stroke-linejoin:round;">
<path d="M104022 76293
L103825 76012
" />
<path d="M103684 76293
L103684 75703
L103909 75703
L103965 75731
L103994 75759
L104022 75815
L104022 75899
L103994 75956
L103965 75984
L103909 76012
L103684 76012
" />
<path d="M104500 76265
L104444 76293
L104331 76293
L104275 76265
L104247 76209
L104247 75984
L104275 75928
L104331 75899
L104444 75899
L104500 75928
L104528 75984
L104528 76040
L104247 76096
" />
<path d="M104725 75899
L104865 76293
L105006 75899
" />
<path d="M105231 76237
L105259 76265
L105231 76293
L105203 76265
L105231 76237
L105231 76293
" />
<path d="M105231 75928
L105259 75956
L105231 75984
L105203 75956
L105231 75928
L105231 75984
" />
<path d="M106271 76293
L105934 76293
" />
<path d="M106103 76293
L106103 75703
L106046 75787
L105990 75843
L105934 75871
" />
<path d="M106525 76237
L106553 76265
L106525 76293
L106496 76265
L106525 76237
L106525 76293
" />
<path d="M106918 75703
L106974 75703
L107031 75731
L107059 75759
L107087 75815
L107115 75928
L107115 76068
L107087 76181
L107059 76237
L107031 76265
L106974 76293
L106918 76293
L106862 76265
L106834 76237
L106806 76181
L106778 76068
L106778 75928
L106806 75815
L106834 75759
L106862 75731
L106918 75703
" />
</g>
<g style="fill:#000000; fill-opacity:0.0; 
stroke:#000000; stroke-width:39.3701; stroke-opacity:1; 
stroke-linecap:round; stroke-linejoin:round;">
</g>
<g style="fill:#000000; fill-opacity:0.0; 
stroke:#000000; stroke-width:59.0551; stroke-opacity:1; 
stroke-linecap:round; stroke-linejoin:round;">
<path d="M70192 76265
L70276 76293
L70417 76293
L70473 76265
L70501 76237
L70529 76181
L70529 76124
L70501 76068
L70473 76040
L70417 76012
L70304 75984
L70248 75956
L70220 75928
L70192 75871
L70192 75815
L70220 75759
L70248 75731
L70304 75703
L70445 75703
L70529 75731
" />
<path d="M70782 76293
L70782 75899
" />
<path d="M70782 75703
L70754 75731
L70782 75759
L70810 75731
L70782 75703
L70782 75759
" />
<path d="M71007 75899
L71316 75899
L71007 76293
L71316 76293
" />
<path d="M71766 76265
L71710 76293
L71598 76293
L71541 76265
L71513 76209
L71513 75984
L71541 75928
L71598 75899
L71710 75899
L71766 75928
L71795 75984
L71795 76040
L71513 76096
" />
<path d="M72048 76237
L72076 76265
L72048 76293
L72019 76265
L72048 76237
L72048 76293
" />
<path d="M72048 75928
L72076 75956
L72048 75984
L72019 75956
L72048 75928
L72048 75984
" />
<path d="M72751 76124
L73032 76124
" />
<path d="M72694 76293
L72891 75703
L73088 76293
" />
<path d="M73538 75899
L73538 76293
" />
<path d="M73397 75674
L73257 76096
L73622 76096
" />
</g>
<g style="fill:#000000; fill-opacity:0.0; 
stroke:#000000; stroke-width:39.3701; stroke-opacity:1; 
stroke-linecap:round; stroke-linejoin:round;">
</g>
<g style="fill:#000000; fill-opacity:0.0; 
stroke:#000000; stroke-width:59.0551; stroke-opacity:1; 
stroke-linecap:round; stroke-linejoin:round;">
<path d="M103684 77395
L103684 76805
" />
<path d="M104219 77395
L104219 76805
" />
<path d="M104219 77367
L104162 77395
L104050 77395
L103994 77367
L103965 77339
L103937 77283
L103937 77114
L103965 77058
L103994 77030
L104050 77002
L104162 77002
L104219 77030
" />
<path d="M104500 77339
L104528 77367
L104500 77395
L104472 77367
L104500 77339
L104500 77395
" />
<path d="M104500 77030
L104528 77058
L104500 77086
L104472 77058
L104500 77030
L104500 77086
" />
<path d="M105540 77395
L105203 77395
" />
<path d="M105372 77395
L105372 76805
L105315 76889
L105259 76946
L105203 76974
" />
<path d="M106215 76777
L105709 77536
" />
<path d="M106721 77395
L106384 77395
" />
<path d="M106553 77395
L106553 76805
L106496 76889
L106440 76946
L106384 76974
" />
</g>
<g style="fill:#000000; fill-opacity:0.0; 
stroke:#000000; stroke-width:39.3701; stroke-opacity:1; 
stroke-linecap:round; stroke-linejoin:round;">
</g>
<g style="fill:#000000; fill-opacity:0.0; 
stroke:#000000; stroke-width:59.0551; stroke-opacity:1; 
stroke-linecap:round; stroke-linejoin:round;">
<path d="M69685 73821
L112205 73821
" />
</g>
<g style="fill:#000000; fill-opacity:0.0; 
stroke:#000000; stroke-width:39.3701; stroke-opacity:1; 
stroke-linecap:round; stroke-linejoin:round;">
</g>
<g style="fill:#000000; fill-opacity:0.0; 
stroke:#000000; stroke-width:157.48; stroke-opacity:1; 
stroke-linecap:round; stroke-linejoin:round;">
<path d="M70257 74099
L70707 74099
" />
<path d="M70384 74886
L70482 74099
" />
<path d="M70871 74886
L70937 74361
" />
<path d="M70970 74099
L70927 74136
L70960 74174
L71002 74136
L70970 74099
L70960 74174
" />
<path d="M71199 74361
L71499 74361
" />
<path d="M71345 74099
L71260 74774
L71288 74849
L71359 74886
L71434 74886
" />
<path d="M71809 74886
L71738 74849
L71710 74774
L71795 74099
" />
<path d="M72413 74849
L72334 74886
L72184 74886
L72113 74849
L72085 74774
L72123 74474
L72169 74399
L72249 74361
L72399 74361
L72469 74399
L72498 74474
L72488 74549
L72104 74624
" />
<path d="M72793 74811
L72826 74849
L72783 74886
L72751 74849
L72793 74811
L72783 74886
" />
<path d="M72844 74399
L72877 74436
L72835 74474
L72802 74436
L72844 74399
L72835 74474
" />
<path d="M74218 74811
L74175 74849
L74058 74886
L73983 74886
L73876 74849
L73810 74774
L73782 74699
L73763 74549
L73777 74436
L73833 74286
L73880 74211
L73965 74136
L74082 74099
L74157 74099
L74265 74136
L74297 74174
" />
<path d="M74532 74099
L74982 74099
" />
<path d="M74658 74886
L74757 74099
" />
<path d="M75132 74099
L75582 74099
" />
<path d="M75258 74886
L75357 74099
" />
<path d="M76331 74099
L76781 74099
" />
<path d="M76458 74886
L76556 74099
" />
<path d="M76945 74886
L77011 74361
" />
<path d="M76992 74511
L77039 74436
L77081 74399
L77161 74361
L77236 74361
" />
<path d="M77770 74886
L77822 74474
L77794 74399
L77723 74361
L77573 74361
L77494 74399
" />
<path d="M77775 74849
L77695 74886
L77508 74886
L77438 74849
L77409 74774
L77419 74699
L77466 74624
L77545 74586
L77733 74586
L77813 74549
" />
<path d="M78211 74361
L78145 74886
" />
<path d="M78202 74436
L78244 74399
L78323 74361
L78436 74361
L78506 74399
L78534 74474
L78483 74886
" />
<path d="M78825 74849
L78895 74886
L79045 74886
L79125 74849
L79172 74774
L79176 74736
L79148 74661
L79078 74624
L78965 74624
L78895 74586
L78867 74511
L78872 74474
L78919 74399
L78998 74361
L79111 74361
L79181 74399
" />
<path d="M79495 74886
L79561 74361
" />
<path d="M79594 74099
L79551 74136
L79584 74174
L79626 74136
L79594 74099
L79584 74174
" />
<path d="M79837 74849
L79908 74886
L80058 74886
L80137 74849
L80184 74774
L80189 74736
L80161 74661
L80090 74624
L79978 74624
L79908 74586
L79879 74511
L79884 74474
L79931 74399
L80011 74361
L80123 74361
L80193 74399
" />
<path d="M80461 74361
L80761 74361
" />
<path d="M80606 74099
L80522 74774
L80550 74849
L80620 74886
L80695 74886
" />
<path d="M81070 74886
L81000 74849
L80967 74811
L80939 74736
L80967 74511
L81014 74436
L81056 74399
L81136 74361
L81248 74361
L81318 74399
L81351 74436
L81379 74511
L81351 74736
L81304 74811
L81262 74849
L81182 74886
L81070 74886
" />
<path d="M81670 74886
L81735 74361
" />
<path d="M81717 74511
L81764 74436
L81806 74399
L81885 74361
L81960 74361
" />
<path d="M82710 74361
L83010 74361
" />
<path d="M82856 74099
L82771 74774
L82799 74849
L82870 74886
L82945 74886
" />
<path d="M83512 74849
L83432 74886
L83282 74886
L83212 74849
L83184 74774
L83221 74474
L83268 74399
L83348 74361
L83498 74361
L83568 74399
L83596 74474
L83587 74549
L83202 74624
" />
<path d="M83849 74849
L83920 74886
L84070 74886
L84149 74849
L84196 74774
L84201 74736
L84173 74661
L84102 74624
L83990 74624
L83920 74586
L83891 74511
L83896 74474
L83943 74399
L84023 74361
L84135 74361
L84205 74399
" />
<path d="M84473 74361
L84773 74361
" />
<path d="M84618 74099
L84534 74774
L84562 74849
L84632 74886
L84707 74886
" />
<path d="M85274 74849
L85194 74886
L85044 74886
L84974 74849
L84946 74774
L84983 74474
L85030 74399
L85110 74361
L85260 74361
L85330 74399
L85358 74474
L85349 74549
L84965 74624
" />
<path d="M85644 74886
L85710 74361
" />
<path d="M85691 74511
L85738 74436
L85780 74399
L85860 74361
L85935 74361
" />
<path d="M86769 74586
L87369 74586
" />
<path d="M88766 74811
L88724 74849
L88606 74886
L88531 74886
L88424 74849
L88358 74774
L88330 74699
L88311 74549
L88325 74436
L88382 74286
L88428 74211
L88513 74136
L88630 74099
L88705 74099
L88813 74136
L88846 74174
" />
<path d="M89080 74099
L89530 74099
" />
<path d="M89206 74886
L89305 74099
" />
<path d="M89680 74099
L90130 74099
" />
<path d="M89806 74886
L89905 74099
" />
<path d="M90959 74061
L90158 75074
" />
<path d="M91086 74849
L91194 74886
L91381 74886
L91461 74849
L91503 74811
L91550 74736
L91559 74661
L91531 74586
L91498 74549
L91428 74511
L91283 74474
L91212 74436
L91180 74399
L91151 74324
L91161 74249
L91208 74174
L91250 74136
L91330 74099
L91517 74099
L91625 74136
" />
<path d="M92328 74811
L92286 74849
L92169 74886
L92094 74886
L91986 74849
L91920 74774
L91892 74699
L91873 74549
L91887 74436
L91944 74286
L91990 74211
L92075 74136
L92192 74099
L92267 74099
L92375 74136
L92408 74174
" />
<path d="M93223 74849
L93331 74886
L93518 74886
L93598 74849
L93640 74811
L93687 74736
L93696 74661
L93668 74586
L93636 74549
L93565 74511
L93420 74474
L93350 74436
L93317 74399
L93289 74324
L93298 74249
L93345 74174
L93387 74136
L93467 74099
L93654 74099
L93762 74136
" />
<path d="M93959 74361
L94259 74361
" />
<path d="M94104 74099
L94020 74774
L94048 74849
L94118 74886
L94193 74886
" />
<path d="M94793 74886
L94845 74474
L94817 74399
L94746 74361
L94596 74361
L94517 74399
" />
<path d="M94798 74849
L94718 74886
L94531 74886
L94460 74849
L94432 74774
L94442 74699
L94489 74624
L94568 74586
L94756 74586
L94835 74549
" />
<path d="M95121 74361
L95421 74361
" />
<path d="M95267 74099
L95182 74774
L95210 74849
L95281 74886
L95356 74886
" />
<path d="M96021 74361
L95956 74886
" />
<path d="M95684 74361
L95632 74774
L95660 74849
L95731 74886
L95843 74886
L95923 74849
L95965 74811
" />
<path d="M96298 74849
L96368 74886
L96518 74886
L96598 74849
L96645 74774
L96649 74736
L96621 74661
L96551 74624
L96438 74624
L96368 74586
L96340 74511
L96345 74474
L96391 74399
L96471 74361
L96584 74361
L96654 74399
" />
<path d="M97910 74849
L97830 74886
L97680 74886
L97610 74849
L97577 74811
L97549 74736
L97577 74511
L97624 74436
L97666 74399
L97746 74361
L97896 74361
L97966 74399
" />
<path d="M98355 74886
L98285 74849
L98252 74811
L98224 74736
L98252 74511
L98299 74436
L98341 74399
L98421 74361
L98533 74361
L98604 74399
L98636 74436
L98665 74511
L98636 74736
L98590 74811
L98547 74849
L98468 74886
L98355 74886
" />
<path d="M99068 74886
L98997 74849
L98969 74774
L99054 74099
" />
<path d="M99480 74886
L99410 74849
L99382 74774
L99466 74099
" />
<path d="M100085 74849
L100005 74886
L99855 74886
L99785 74849
L99757 74774
L99794 74474
L99841 74399
L99921 74361
L100071 74361
L100141 74399
L100169 74474
L100160 74549
L99775 74624
" />
<path d="M100797 74849
L100717 74886
L100567 74886
L100497 74849
L100464 74811
L100436 74736
L100464 74511
L100511 74436
L100553 74399
L100633 74361
L100783 74361
L100853 74399
" />
<path d="M101083 74361
L101383 74361
" />
<path d="M101228 74099
L101144 74774
L101172 74849
L101242 74886
L101317 74886
" />
<path d="M101692 74886
L101622 74849
L101589 74811
L101561 74736
L101589 74511
L101636 74436
L101678 74399
L101758 74361
L101870 74361
L101941 74399
L101974 74436
L102002 74511
L101974 74736
L101927 74811
L101885 74849
L101805 74886
L101692 74886
" />
<path d="M102292 74886
L102358 74361
" />
<path d="M102339 74511
L102386 74436
L102428 74399
L102508 74361
L102583 74361
" />
<path d="M103783 74361
L103717 74886
" />
<path d="M103445 74361
L103394 74774
L103422 74849
L103492 74886
L103605 74886
L103684 74849
L103726 74811
" />
<path d="M104158 74361
L104092 74886
" />
<path d="M104148 74436
L104190 74399
L104270 74361
L104383 74361
L104453 74399
L104481 74474
L104430 74886
" />
<path d="M104804 74886
L104870 74361
" />
<path d="M104903 74099
L104861 74136
L104894 74174
L104936 74136
L104903 74099
L104894 74174
" />
<path d="M105133 74361
L105433 74361
" />
<path d="M105278 74099
L105193 74774
L105222 74849
L105292 74886
L105367 74886
" />
</g>
<g style="fill:#000000; fill-opacity:0.0; 
stroke:#000000; stroke-width:39.3701; stroke-opacity:1; 
stroke-linecap:round; stroke-linejoin:round;">
</g>
<g style="fill:#000000; fill-opacity:0.0; 
stroke:#000000; stroke-width:59.0551; stroke-opacity:1; 
stroke-linecap:round; stroke-linejoin:round;">
<path d="M70417 73070
L70220 73070
" />
<path d="M70220 73380
L70220 72789
L70501 72789
" />
<path d="M70726 73380
L70726 72986
" />
<path d="M70726 72789
L70698 72817
L70726 72845
L70754 72817
L70726 72789
L70726 72845
" />
<path d="M71091 73380
L71035 73352
L71007 73295
L71007 72789
" />
<path d="M71541 73352
L71485 73380
L71373 73380
L71316 73352
L71288 73295
L71288 73070
L71316 73014
L71373 72986
L71485 72986
L71541 73014
L71570 73070
L71570 73127
L71288 73183
" />
<path d="M71823 73323
L71851 73352
L71823 73380
L71795 73352
L71823 73323
L71823 73380
" />
<path d="M71823 73014
L71851 73042
L71823 73070
L71795 73042
L71823 73014
L71823 73070
" />
<path d="M72807 73352
L72751 73380
L72638 73380
L72582 73352
L72554 73323
L72526 73267
L72526 73099
L72554 73042
L72582 73014
L72638 72986
L72751 72986
L72807 73014
" />
<path d="M72976 72986
L73201 72986
" />
<path d="M73060 72789
L73060 73295
L73088 73352
L73144 73380
L73201 73380
" />
<path d="M73313 72986
L73538 72986
" />
<path d="M73397 72789
L73397 73295
L73426 73352
L73482 73380
L73538 73380
" />
<path d="M73594 73436
L74044 73436
" />
<path d="M74157 73352
L74213 73380
L74325 73380
L74382 73352
L74410 73295
L74410 73267
L74382 73211
L74325 73183
L74241 73183
L74185 73155
L74157 73099
L74157 73070
L74185 73014
L74241 72986
L74325 72986
L74382 73014
" />
<path d="M74916 73352
L74860 73380
L74747 73380
L74691 73352
L74663 73323
L74635 73267
L74635 73099
L74663 73042
L74691 73014
L74747 72986
L74860 72986
L74916 73014
" />
<path d="M75169 73323
L75197 73352
L75169 73380
L75141 73352
L75169 73323
L75169 73380
" />
<path d="M75450 73380
L75450 72789
" />
<path d="M75507 73155
L75675 73380
" />
<path d="M75675 72986
L75450 73211
" />
<path d="M75928 73380
L75928 72986
" />
<path d="M75928 72789
L75900 72817
L75928 72845
L75956 72817
L75928 72789
L75928 72845
" />
<path d="M76463 73352
L76406 73380
L76294 73380
L76238 73352
L76210 73323
L76181 73267
L76181 73099
L76210 73042
L76238 73014
L76294 72986
L76406 72986
L76463 73014
" />
<path d="M76969 73380
L76969 73070
L76941 73014
L76885 72986
L76772 72986
L76716 73014
" />
<path d="M76969 73352
L76913 73380
L76772 73380
L76716 73352
L76688 73295
L76688 73239
L76716 73183
L76772 73155
L76913 73155
L76969 73127
" />
<path d="M77503 73380
L77503 72789
" />
<path d="M77503 73352
L77447 73380
L77334 73380
L77278 73352
L77250 73323
L77222 73267
L77222 73099
L77250 73042
L77278 73014
L77334 72986
L77447 72986
L77503 73014
" />
<path d="M77644 73436
L78094 73436
" />
<path d="M78234 72986
L78234 73577
" />
<path d="M78234 73014
L78291 72986
L78403 72986
L78459 73014
L78487 73042
L78516 73099
L78516 73267
L78487 73323
L78459 73352
L78403 73380
L78291 73380
L78234 73352
" />
<path d="M79022 73352
L78965 73380
L78853 73380
L78797 73352
L78769 73323
L78741 73267
L78741 73099
L78769 73042
L78797 73014
L78853 72986
L78965 72986
L79022 73014
" />
<path d="M79275 73380
L79275 72789
" />
<path d="M79275 73014
L79331 72986
L79444 72986
L79500 73014
L79528 73042
L79556 73099
L79556 73267
L79528 73323
L79500 73352
L79444 73380
L79331 73380
L79275 73352
" />
</g>
<g style="fill:#000000; fill-opacity:0.0; 
stroke:#000000; stroke-width:39.3701; stroke-opacity:1; 
stroke-linecap:round; stroke-linejoin:round;">
</g>
<g style="fill:#000000; fill-opacity:0.0; 
stroke:#000000; stroke-width:59.0551; stroke-opacity:1; 
stroke-linecap:round; stroke-linejoin:round;">
<path d="M69685 71459
L112205 71459
" />
</g>
<g style="fill:#000000; fill-opacity:0.0; 
stroke:#000000; stroke-width:39.3701; stroke-opacity:1; 
stroke-linecap:round; stroke-linejoin:round;">
</g>
<g style="fill:#000000; fill-opacity:0.0; 
stroke:#000000; stroke-width:59.0551; stroke-opacity:1; 
stroke-linecap:round; stroke-linejoin:round;">
<path d="M70192 72289
L70276 72317
L70417 72317
L70473 72289
L70501 72260
L70529 72204
L70529 72148
L70501 72092
L70473 72064
L70417 72036
L70304 72007
L70248 71979
L70220 71951
L70192 71895
L70192 71839
L70220 71782
L70248 71754
L70304 71726
L70445 71726
L70529 71754
" />
<path d="M70782 72317
L70782 71726
" />
<path d="M71035 72317
L71035 72007
L71007 71951
L70951 71923
L70867 71923
L70810 71951
L70782 71979
" />
<path d="M71541 72289
L71485 72317
L71373 72317
L71316 72289
L71288 72232
L71288 72007
L71316 71951
L71373 71923
L71485 71923
L71541 71951
L71570 72007
L71570 72064
L71288 72120
" />
<path d="M72048 72289
L71991 72317
L71879 72317
L71823 72289
L71795 72232
L71795 72007
L71823 71951
L71879 71923
L71991 71923
L72048 71951
L72076 72007
L72076 72064
L71795 72120
" />
<path d="M72244 71923
L72469 71923
" />
<path d="M72329 71726
L72329 72232
L72357 72289
L72413 72317
L72469 72317
" />
<path d="M72666 72260
L72694 72289
L72666 72317
L72638 72289
L72666 72260
L72666 72317
" />
<path d="M72666 71951
L72694 71979
L72666 72007
L72638 71979
L72666 71951
L72666 72007
" />
</g>
<g style="fill:#000000; fill-opacity:0.0; 
stroke:#000000; stroke-width:39.3701; stroke-opacity:1; 
stroke-linecap:round; stroke-linejoin:round;">
</g>
<g style="fill:#000000; fill-opacity:0.0; 
stroke:#000000; stroke-width:118.11; stroke-opacity:1; 
stroke-linecap:round; stroke-linejoin:round;">
<path d="M70220 71136
L70220 70545
L70445 70545
L70501 70573
L70529 70601
L70557 70658
L70557 70742
L70529 70798
L70501 70826
L70445 70854
L70220 70854
" />
<path d="M70895 71136
L70838 71108
L70810 71079
L70782 71023
L70782 70854
L70810 70798
L70838 70770
L70895 70742
L70979 70742
L71035 70770
L71063 70798
L71091 70854
L71091 71023
L71063 71079
L71035 71108
L70979 71136
L70895 71136
" />
<path d="M71288 70742
L71598 70742
L71288 71136
L71598 71136
" />
<path d="M71795 71108
L71851 71136
L71963 71136
L72019 71108
L72048 71051
L72048 71023
L72019 70967
L71963 70939
L71879 70939
L71823 70911
L71795 70854
L71795 70826
L71823 70770
L71879 70742
L71963 70742
L72019 70770
" />
<path d="M72554 71136
L72554 70826
L72526 70770
L72469 70742
L72357 70742
L72301 70770
" />
<path d="M72554 71108
L72498 71136
L72357 71136
L72301 71108
L72273 71051
L72273 70995
L72301 70939
L72357 70911
L72498 70911
L72554 70883
" />
<path d="M72835 71136
L72835 70742
" />
<path d="M72835 70854
L72863 70798
L72891 70770
L72947 70742
L73004 70742
" />
<path d="M73594 70545
L73988 70545
L73594 71136
L73988 71136
" />
<path d="M74185 71108
L74241 71136
L74354 71136
L74410 71108
L74438 71051
L74438 71023
L74410 70967
L74354 70939
L74269 70939
L74213 70911
L74185 70854
L74185 70826
L74213 70770
L74269 70742
L74354 70742
L74410 70770
" />
<path d="M74775 71136
L74719 71108
L74691 71079
L74663 71023
L74663 70854
L74691 70798
L74719 70770
L74775 70742
L74860 70742
L74916 70770
L74944 70798
L74972 70854
L74972 71023
L74944 71079
L74916 71108
L74860 71136
L74775 71136
" />
<path d="M75310 71136
L75253 71108
L75225 71051
L75225 70545
" />
<path d="M75450 70742
L75675 70742
" />
<path d="M75535 70545
L75535 71051
L75563 71108
L75619 71136
L75675 71136
" />
</g>
<g style="fill:#000000; fill-opacity:0.0; 
stroke:#000000; stroke-width:39.3701; stroke-opacity:1; 
stroke-linecap:round; stroke-linejoin:round;">
</g>
<g style="fill:#000000; fill-opacity:0.0; 
stroke:#000000; stroke-width:59.0551; stroke-opacity:1; 
stroke-linecap:round; stroke-linejoin:round;">
<path d="M70220 69955
L70220 69364
L70360 69364
L70445 69392
L70501 69448
L70529 69505
L70557 69617
L70557 69701
L70529 69814
L70501 69870
L70445 69926
L70360 69955
L70220 69955
" />
<path d="M70810 69955
L70810 69561
" />
<path d="M70810 69673
L70838 69617
L70867 69589
L70923 69561
L70979 69561
" />
<path d="M71429 69955
L71429 69645
L71401 69589
L71345 69561
L71232 69561
L71176 69589
" />
<path d="M71429 69926
L71373 69955
L71232 69955
L71176 69926
L71148 69870
L71148 69814
L71176 69758
L71232 69730
L71373 69730
L71429 69701
" />
<path d="M71654 69561
L71766 69955
L71879 69673
L71991 69955
L72104 69561
" />
<path d="M72779 69561
L72779 69955
" />
<path d="M72779 69617
L72807 69589
L72863 69561
L72947 69561
L73004 69589
L73032 69645
L73032 69955
" />
<path d="M73566 69561
L73566 69955
" />
<path d="M73313 69561
L73313 69870
L73341 69926
L73397 69955
L73482 69955
L73538 69926
L73566 69898
" />
<path d="M73847 69955
L73847 69561
" />
<path d="M73847 69617
L73876 69589
L73932 69561
L74016 69561
L74072 69589
L74100 69645
L74100 69955
" />
<path d="M74100 69645
L74129 69589
L74185 69561
L74269 69561
L74325 69589
L74354 69645
L74354 69955
" />
<path d="M74635 69955
L74635 69364
" />
<path d="M74635 69589
L74691 69561
L74804 69561
L74860 69589
L74888 69617
L74916 69673
L74916 69842
L74888 69898
L74860 69926
L74804 69955
L74691 69955
L74635 69926
" />
<path d="M75394 69926
L75338 69955
L75225 69955
L75169 69926
L75141 69870
L75141 69645
L75169 69589
L75225 69561
L75338 69561
L75394 69589
L75422 69645
L75422 69701
L75141 69758
" />
<path d="M75675 69955
L75675 69561
" />
<path d="M75675 69673
L75703 69617
L75732 69589
L75788 69561
L75844 69561
" />
<path d="M76041 69898
L76069 69926
L76041 69955
L76013 69926
L76041 69898
L76041 69955
" />
<path d="M76041 69589
L76069 69617
L76041 69645
L76013 69617
L76041 69589
L76041 69645
" />
<path d="M77109 69898
L77081 69926
L76997 69955
L76941 69955
L76856 69926
L76800 69870
L76772 69814
L76744 69701
L76744 69617
L76772 69505
L76800 69448
L76856 69392
L76941 69364
L76997 69364
L77081 69392
L77109 69420
" />
<path d="M77278 69364
L77616 69364
" />
<path d="M77447 69955
L77447 69364
" />
<path d="M77728 69364
L78066 69364
" />
<path d="M77897 69955
L77897 69364
" />
<path d="M78684 69336
L78178 70095
" />
<path d="M79134 69561
L79134 69955
" />
<path d="M78994 69336
L78853 69758
L79219 69758
" />
<path d="M79753 69955
L79415 69955
" />
<path d="M79584 69955
L79584 69364
L79528 69448
L79472 69505
L79415 69533
" />
<path d="M80006 69730
L80456 69730
" />
<path d="M80990 69561
L80990 69955
" />
<path d="M80850 69336
L80709 69758
L81075 69758
" />
<path d="M81271 69420
L81300 69392
L81356 69364
L81496 69364
L81553 69392
L81581 69420
L81609 69476
L81609 69533
L81581 69617
L81243 69955
L81609 69955
" />
</g>
<g style="fill:#000000; fill-opacity:0.0; 
stroke:#000000; stroke-width:39.3701; stroke-opacity:1; 
stroke-linecap:round; stroke-linejoin:round;">
</g>
<g style="fill:#000000; fill-opacity:0.0; 
stroke:#000000; stroke-width:59.0551; stroke-opacity:1; 
stroke-linecap:round; stroke-linejoin:round;">
<path d="M77559 75396
L77559 76577
" />
</g>
<g style="fill:#000000; fill-opacity:0.0; 
stroke:#000000; stroke-width:39.3701; stroke-opacity:1; 
stroke-linecap:round; stroke-linejoin:round;">
</g>
<g style="fill:#000000; fill-opacity:0.0; 
stroke:#000000; stroke-width:59.0551; stroke-opacity:1; 
stroke-linecap:round; stroke-linejoin:round;">
<path d="M102756 75396
L102756 77955
" />
</g>
<g style="fill:#000000; fill-opacity:0.0; 
stroke:#000000; stroke-width:150; stroke-opacity:1; 
stroke-linecap:round; stroke-linejoin:round;">
<path d="M51430 41250
L51430 38250
" />
</g>
<g style="fill:#000000; fill-opacity:0.0; 
stroke:#000000; stroke-width:120; stroke-opacity:1; 
stroke-linecap:round; stroke-linejoin:round;">
<path d="M50251 44111
L50251 43311
L50394 43311
L50480 43350
L50537 43426
L50565 43502
L50594 43654
L50594 43769
L50565 43921
L50537 43997
L50480 44073
L50394 44111
L50251 44111
" />
<path d="M50851 44111
L50851 43311
L51194 44111
L51194 43311
" />
<path d="M51479 44035
L51508 44073
L51479 44111
L51451 44073
L51479 44035
L51479 44111
" />
<path d="M51479 43616
L51508 43654
L51479 43692
L51451 43654
L51479 43616
L51479 43692
" />
<path d="M52565 44035
L52537 44073
L52451 44111
L52394 44111
L52308 44073
L52251 43997
L52222 43921
L52194 43769
L52194 43654
L52222 43502
L52251 43426
L52308 43350
L52394 43311
L52451 43311
L52537 43350
L52565 43388
" />
<path d="M52737 43311
L53079 43311
" />
<path d="M52908 44111
L52908 43311
" />
<path d="M53194 43311
L53537 43311
" />
<path d="M53365 44111
L53365 43311
" />
<path d="M54165 43273
L53651 44302
" />
<path d="M54622 43578
L54622 44111
" />
<path d="M54479 43273
L54337 43845
L54708 43845
" />
<path d="M55251 44111
L54908 44111
" />
<path d="M55079 44111
L55079 43311
L55022 43426
L54965 43502
L54908 43540
" />
<path d="M55508 43807
L55965 43807
" />
<path d="M56508 43578
L56508 44111
" />
<path d="M56365 43273
L56222 43845
L56594 43845
" />
<path d="M56794 43388
L56822 43350
L56880 43311
L57022 43311
L57080 43350
L57108 43388
L57137 43464
L57137 43540
L57108 43654
L56765 44111
L57137 44111
" />
<path d="M52258 36535
L52230 36573
L52144 36611
L52087 36611
L52001 36573
L51944 36497
L51915 36421
L51887 36269
L51887 36154
L51915 36002
L51944 35926
L52001 35850
L52087 35811
L52144 35811
L52230 35850
L52258 35888
" />
<path d="M52430 35811
L52772 35811
" />
<path d="M52601 36611
L52601 35811
" />
<path d="M52887 35811
L53230 35811
" />
<path d="M53058 36611
L53058 35811
" />
<path d="M53858 35773
L53344 36802
" />
<path d="M54030 36573
L54115 36611
L54258 36611
L54315 36573
L54344 36535
L54372 36459
L54372 36383
L54344 36307
L54315 36269
L54258 36230
L54144 36192
L54087 36154
L54058 36116
L54030 36040
L54030 35964
L54058 35888
L54087 35850
L54144 35811
L54287 35811
L54372 35850
" />
<path d="M54972 36535
L54944 36573
L54858 36611
L54801 36611
L54715 36573
L54658 36497
L54630 36421
L54601 36269
L54601 36154
L54630 36002
L54658 35926
L54715 35850
L54801 35811
L54858 35811
L54944 35850
L54972 35888
" />
</g>
<g style="fill:#000000; fill-opacity:0.0; 
stroke:#000000; stroke-width:150; stroke-opacity:1; 
stroke-linecap:round; stroke-linejoin:round;">
<path d="M48430 44750
L66930 44750
" />
<path d="M66930 34750
L48430 34750
" />
<path d="M48430 44750
L48430 34750
" />
<path d="M66930 42750
L66930 44750
" />
<path d="M66930 34750
L66930 42750
" />
</g>
<g style="fill:#000000; fill-opacity:0.0; 
stroke:#000000; stroke-width:0; stroke-opacity:1; 
stroke-linecap:round; stroke-linejoin:round;">
</g>
<g style="fill:#000000; fill-opacity:1.0; 
stroke:#000000; stroke-width:0; stroke-opacity:1; 
stroke-linecap:round; stroke-linejoin:round;">
<polyline style="fill-rule:evenodd;"
points="65205,38975
64655,38975
64655,39525
65205,39525
65205,38975
" /> 
<circle cx="64930" cy="40250" r="275" /> 
</g>
<g style="fill:#000000; fill-opacity:1.0; 
stroke:#000000; stroke-width:39.3701; stroke-opacity:1; 
stroke-linecap:round; stroke-linejoin:round;">
</g>
<g style="fill:#000000; fill-opacity:1.0; 
stroke:#000000; stroke-width:0; stroke-opacity:1; 
stroke-linecap:round; stroke-linejoin:round;">
<polyline style="fill-rule:evenodd;"
points="62705,41525
62705,40975
62155,40975
62155,41525
62705,41525
" /> 
<circle cx="61430" cy="41250" r="275" /> 
</g>
<g style="fill:#000000; fill-opacity:1.0; 
stroke:#000000; stroke-width:39.3701; stroke-opacity:1; 
stroke-linecap:round; stroke-linejoin:round;">
</g>
<g style="fill:#000000; fill-opacity:1.0; 
stroke:#000000; stroke-width:0; stroke-opacity:1; 
stroke-linecap:round; stroke-linejoin:round;">
<circle cx="60430" cy="41250" r="275" /> 
</g>
<g style="fill:#000000; fill-opacity:1.0; 
stroke:#000000; stroke-width:39.3701; stroke-opacity:1; 
stroke-linecap:round; stroke-linejoin:round;">
</g>
<g style="fill:#000000; fill-opacity:1.0; 
stroke:#000000; stroke-width:0; stroke-opacity:1; 
stroke-linecap:round; stroke-linejoin:round;">
<circle cx="59430" cy="41250" r="275" /> 
</g>
<g style="fill:#000000; fill-opacity:1.0; 
stroke:#000000; stroke-width:39.3701; stroke-opacity:1; 
stroke-linecap:round; stroke-linejoin:round;">
</g>
<g style="fill:#000000; fill-opacity:1.0; 
stroke:#000000; stroke-width:0; stroke-opacity:1; 
stroke-linecap:round; stroke-linejoin:round;">
<circle cx="58430" cy="41250" r="275" /> 
</g>
<g style="fill:#000000; fill-opacity:1.0; 
stroke:#000000; stroke-width:39.3701; stroke-opacity:1; 
stroke-linecap:round; stroke-linejoin:round;">
</g>
<g style="fill:#000000; fill-opacity:1.0; 
stroke:#000000; stroke-width:0; stroke-opacity:1; 
stroke-linecap:round; stroke-linejoin:round;">
<circle cx="57430" cy="41250" r="275" /> 
</g>
<g style="fill:#000000; fill-opacity:1.0; 
stroke:#000000; stroke-width:39.3701; stroke-opacity:1; 
stroke-linecap:round; stroke-linejoin:round;">
</g>
<g style="fill:#000000; fill-opacity:1.0; 
stroke:#000000; stroke-width:0; stroke-opacity:1; 
stroke-linecap:round; stroke-linejoin:round;">
<circle cx="56430" cy="41250" r="275" /> 
</g>
<g style="fill:#000000; fill-opacity:1.0; 
stroke:#000000; stroke-width:39.3701; stroke-opacity:1; 
stroke-linecap:round; stroke-linejoin:round;">
</g>
<g style="fill:#000000; fill-opacity:1.0; 
stroke:#000000; stroke-width:0; stroke-opacity:1; 
stroke-linecap:round; stroke-linejoin:round;">
<circle cx="55430" cy="41250" r="275" /> 
</g>
<g style="fill:#000000; fill-opacity:1.0; 
stroke:#000000; stroke-width:39.3701; stroke-opacity:1; 
stroke-linecap:round; stroke-linejoin:round;">
</g>
<g style="fill:#000000; fill-opacity:1.0; 
stroke:#000000; stroke-width:0; stroke-opacity:1; 
stroke-linecap:round; stroke-linejoin:round;">
<circle cx="54430" cy="41250" r="275" /> 
</g>
<g style="fill:#000000; fill-opacity:1.0; 
stroke:#000000; stroke-width:39.3701; stroke-opacity:1; 
stroke-linecap:round; stroke-linejoin:round;">
</g>
<g style="fill:#000000; fill-opacity:1.0; 
stroke:#000000; stroke-width:0; stroke-opacity:1; 
stroke-linecap:round; stroke-linejoin:round;">
<circle cx="53430" cy="41250" r="275" /> 
</g>
<g style="fill:#000000; fill-opacity:1.0; 
stroke:#000000; stroke-width:39.3701; stroke-opacity:1; 
stroke-linecap:round; stroke-linejoin:round;">
</g>
<g style="fill:#000000; fill-opacity:1.0; 
stroke:#000000; stroke-width:0; stroke-opacity:1; 
stroke-linecap:round; stroke-linejoin:round;">
<circle cx="53430" cy="38250" r="275" /> 
</g>
<g style="fill:#000000; fill-opacity:1.0; 
stroke:#000000; stroke-width:39.3701; stroke-opacity:1; 
stroke-linecap:round; stroke-linejoin:round;">
</g>
<g style="fill:#000000; fill-opacity:1.0; 
stroke:#000000; stroke-width:0; stroke-opacity:1; 
stroke-linecap:round; stroke-linejoin:round;">
<circle cx="54430" cy="38250" r="275" /> 
</g>
<g style="fill:#000000; fill-opacity:1.0; 
stroke:#000000; stroke-width:39.3701; stroke-opacity:1; 
stroke-linecap:round; stroke-linejoin:round;">
</g>
<g style="fill:#000000; fill-opacity:1.0; 
stroke:#000000; stroke-width:0; stroke-opacity:1; 
stroke-linecap:round; stroke-linejoin:round;">
<circle cx="55430" cy="38250" r="275" /> 
</g>
<g style="fill:#000000; fill-opacity:1.0; 
stroke:#000000; stroke-width:39.3701; stroke-opacity:1; 
stroke-linecap:round; stroke-linejoin:round;">
</g>
<g style="fill:#000000; fill-opacity:1.0; 
stroke:#000000; stroke-width:0; stroke-opacity:1; 
stroke-linecap:round; stroke-linejoin:round;">
<circle cx="56430" cy="38250" r="275" /> 
</g>
<g style="fill:#000000; fill-opacity:1.0; 
stroke:#000000; stroke-width:39.3701; stroke-opacity:1; 
stroke-linecap:round; stroke-linejoin:round;">
</g>
<g style="fill:#000000; fill-opacity:1.0; 
stroke:#000000; stroke-width:0; stroke-opacity:1; 
stroke-linecap:round; stroke-linejoin:round;">
<circle cx="57430" cy="38250" r="275" /> 
</g>
<g style="fill:#000000; fill-opacity:1.0; 
stroke:#000000; stroke-width:39.3701; stroke-opacity:1; 
stroke-linecap:round; stroke-linejoin:round;">
</g>
<g style="fill:#000000; fill-opacity:1.0; 
stroke:#000000; stroke-width:0; stroke-opacity:1; 
stroke-linecap:round; stroke-linejoin:round;">
<circle cx="58430" cy="38250" r="275" /> 
</g>
<g style="fill:#000000; fill-opacity:1.0; 
stroke:#000000; stroke-width:39.3701; stroke-opacity:1; 
stroke-linecap:round; stroke-linejoin:round;">
</g>
<g style="fill:#000000; fill-opacity:1.0; 
stroke:#000000; stroke-width:0; stroke-opacity:1; 
stroke-linecap:round; stroke-linejoin:round;">
<circle cx="59430" cy="38250" r="275" /> 
</g>
<g style="fill:#000000; fill-opacity:1.0; 
stroke:#000000; stroke-width:39.3701; stroke-opacity:1; 
stroke-linecap:round; stroke-linejoin:round;">
</g>
<g style="fill:#000000; fill-opacity:1.0; 
stroke:#000000; stroke-width:0; stroke-opacity:1; 
stroke-linecap:round; stroke-linejoin:round;">
<circle cx="60430" cy="38250" r="275" /> 
</g>
<g style="fill:#000000; fill-opacity:1.0; 
stroke:#000000; stroke-width:39.3701; stroke-opacity:1; 
stroke-linecap:round; stroke-linejoin:round;">
</g>
<g style="fill:#000000; fill-opacity:1.0; 
stroke:#000000; stroke-width:0; stroke-opacity:1; 
stroke-linecap:round; stroke-linejoin:round;">
<circle cx="61430" cy="38250" r="275" /> 
</g>
<g style="fill:#000000; fill-opacity:1.0; 
stroke:#000000; stroke-width:39.3701; stroke-opacity:1; 
stroke-linecap:round; stroke-linejoin:round;">
</g>
<g style="fill:#000000; fill-opacity:1.0; 
stroke:#000000; stroke-width:0; stroke-opacity:1; 
stroke-linecap:round; stroke-linejoin:round;">
<circle cx="62430" cy="38250" r="275" /> 
</g>
<g style="fill:#000000; fill-opacity:1.0; 
stroke:#000000; stroke-width:39.3701; stroke-opacity:1; 
stroke-linecap:round; stroke-linejoin:round;">
</g>
<g style="fill:#000000; fill-opacity:1.0; 
stroke:#000000; stroke-width:0; stroke-opacity:1; 
stroke-linecap:round; stroke-linejoin:round;">
<polyline style="fill-rule:evenodd;"
points="60205,36525
60205,35975
59655,35975
59655,36525
60205,36525
" /> 
<circle cx="58930" cy="36250" r="275" /> 
</g>
<g style="fill:#000000; fill-opacity:1.0; 
stroke:#000000; stroke-width:39.3701; stroke-opacity:1; 
stroke-linecap:round; stroke-linejoin:round;">
</g>
<g style="fill:#000000; fill-opacity:1.0; 
stroke:#000000; stroke-width:0; stroke-opacity:1; 
stroke-linecap:round; stroke-linejoin:round;">
<circle cx="57930" cy="36250" r="275" /> 
</g>
<g style="fill:#000000; fill-opacity:1.0; 
stroke:#000000; stroke-width:39.3701; stroke-opacity:1; 
stroke-linecap:round; stroke-linejoin:round;">
</g>
<g style="fill:#000000; fill-opacity:1.0; 
stroke:#000000; stroke-width:0; stroke-opacity:1; 
stroke-linecap:round; stroke-linejoin:round;">
<circle cx="56930" cy="36250" r="275" /> 
</g>
<g style="fill:#000000; fill-opacity:1.0; 
stroke:#000000; stroke-width:39.3701; stroke-opacity:1; 
stroke-linecap:round; stroke-linejoin:round;">
</g>
<g style="fill:#000000; fill-opacity:1.0; 
stroke:#000000; stroke-width:0; stroke-opacity:1; 
stroke-linecap:round; stroke-linejoin:round;">
<circle cx="55930" cy="36250" r="275" /> 
</g>
<g style="fill:#000000; fill-opacity:1.0; 
stroke:#000000; stroke-width:39.3701; stroke-opacity:1; 
stroke-linecap:round; stroke-linejoin:round;">
</g>
<g style="fill:#000000; fill-opacity:1.0; 
stroke:#000000; stroke-width:0; stroke-opacity:1; 
stroke-linecap:round; stroke-linejoin:round;">
<polyline style="fill-rule:evenodd;"
points="50205,37975
49655,37975
49655,38525
50205,38525
50205,37975
" /> 
<circle cx="49930" cy="39250" r="275" /> 
</g>
<g style="fill:#000000; fill-opacity:1.0; 
stroke:#000000; stroke-width:39.3701; stroke-opacity:1; 
stroke-linecap:round; stroke-linejoin:round;">
</g>
<g style="fill:#000000; fill-opacity:1.0; 
stroke:#000000; stroke-width:0; stroke-opacity:1; 
stroke-linecap:round; stroke-linejoin:round;">
<circle cx="49930" cy="40250" r="275" /> 
</g>
<g style="fill:#000000; fill-opacity:1.0; 
stroke:#000000; stroke-width:39.3701; stroke-opacity:1; 
stroke-linecap:round; stroke-linejoin:round;">
</g>
<g style="fill:#000000; fill-opacity:1.0; 
stroke:#000000; stroke-width:0; stroke-opacity:1; 
stroke-linecap:round; stroke-linejoin:round;">
<circle cx="49930" cy="41250" r="275" /> 
</g>
<g style="fill:#000000; fill-opacity:1.0; 
stroke:#000000; stroke-width:39.3701; stroke-opacity:1; 
stroke-linecap:round; stroke-linejoin:round;">
</g>
<g style="fill:#000000; fill-opacity:1.0; 
stroke:#000000; stroke-width:0; stroke-opacity:1; 
stroke-linecap:round; stroke-linejoin:round;">
<polyline style="fill-rule:evenodd;"
points="64155,35975
64155,36525
64705,36525
64705,35975
64155,35975
" /> 
<circle cx="65430" cy="36250" r="275" /> 
</g>
<g style="fill:#000000; fill-opacity:1.0; 
stroke:#000000; stroke-width:39.3701; stroke-opacity:1; 
stroke-linecap:round; stroke-linejoin:round;">
</g>
<g style="fill:#000000; fill-opacity:1.0; 
stroke:#000000; stroke-width:0; stroke-opacity:1; 
stroke-linecap:round; stroke-linejoin:round;">
<circle cx="51430" cy="41250" r="175" /> 
</g>
<g style="fill:#000000; fill-opacity:1.0; 
stroke:#000000; stroke-width:39.3701; stroke-opacity:1; 
stroke-linecap:round; stroke-linejoin:round;">
</g>
<g style="fill:#000000; fill-opacity:1.0; 
stroke:#000000; stroke-width:0; stroke-opacity:1; 
stroke-linecap:round; stroke-linejoin:round;">
<circle cx="51430" cy="38250" r="175" /> 
</g>
<g style="fill:#000000; fill-opacity:1.0; 
stroke:#000000; stroke-width:39.3701; stroke-opacity:1; 
stroke-linecap:round; stroke-linejoin:round;">
</g>
<g style="fill:#000000; fill-opacity:1.0; 
stroke:#000000; stroke-width:80; stroke-opacity:1; 
stroke-linecap:round; stroke-linejoin:round;">
</g>
<g style="fill:#000000; fill-opacity:0.0; 
stroke:#000000; stroke-width:80; stroke-opacity:1; 
stroke-linecap:round; stroke-linejoin:round;">
<path d="M61430 40250
L60930 39750
" />
<path d="M60930 39750
L52430 39750
" />
<path d="M61430 41250
L61430 40250
" />
<path d="M62430 40250
L60930 38750
" />
<path d="M60930 38750
L60930 37250
" />
<path d="M60930 37250
L59930 36250
" />
<path d="M62430 41250
L62430 40250
" />
<path d="M60430 37750
L58930 36250
" />
<path d="M60430 38250
L60430 37750
" />
<path d="M58430 36750
L57930 36250
" />
<path d="M58430 38250
L58430 36750
" />
<path d="M56430 36750
L56930 36250
" />
<path d="M56430 38250
L56430 36750
" />
<path d="M54430 37750
L55930 36250
" />
<path d="M54430 38250
L54430 37750
" />
<path d="M57430 41250
L57430 42250
" />
<path d="M56930 42750
L52430 42750
" />
<path d="M57430 42250
L56930 42750
" />
<path d="M53930 42250
L54930 42250
" />
<path d="M55430 41750
L55430 41250
" />
<path d="M54930 42250
L55430 41750
" />
<path d="M53930 42250
L52930 42250
" />
<path d="M58930 40250
L51930 40250
" />
<path d="M59430 41250
L59430 40750
" />
<path d="M59430 40750
L58930 40250
" />
</g>
<g style="fill:#000000; fill-opacity:0.0; 
stroke:#000000; stroke-width:83; stroke-opacity:1; 
stroke-linecap:round; stroke-linejoin:round;">
<path d="M51430 42750
L50430 42750
" />
<path d="M50430 42750
L49930 42250
" />
<path d="M49930 42250
L49930 41250
" />
<path d="M52430 42750
L51430 42750
" />
<path d="M51430 42250
L50930 41750
" />
<path d="M50930 41750
L50930 40750
" />
<path d="M50930 40750
L50430 40250
" />
<path d="M50430 40250
L49930 40250
" />
<path d="M52930 42250
L51430 42250
" />
<path d="M50930 40250
L49930 39250
" />
<path d="M51930 40250
L50930 40250
" />
<path d="M51430 39750
L49930 38250
" />
<path d="M52430 39750
L51430 39750
" />
</g>
<g style="fill:#000000; fill-opacity:0.0; 
stroke:#000000; stroke-width:80; stroke-opacity:1; 
stroke-linecap:round; stroke-linejoin:round;">
<path d="M53430 38750
L53930 39250
" />
<path d="M58930 39250
L59430 38750
" />
<path d="M59430 38750
L59430 38250
" />
<path d="M53430 38250
L53430 38750
" />
<path d="M57430 38250
L57430 39250
" />
<path d="M53930 39250
L55430 39250
" />
</g>
<g style="fill:#000000; fill-opacity:0.0; 
stroke:#000000; stroke-width:394; stroke-opacity:1; 
stroke-linecap:round; stroke-linejoin:round;">
<path d="M65930 40250
L64930 40250
" />
<path d="M65930 38250
L65930 40250
" />
<path d="M65430 36250
L65430 37750
" />
<path d="M65430 37750
L65930 38250
" />
</g>
<g style="fill:#000000; fill-opacity:0.0; 
stroke:#000000; stroke-width:80; stroke-opacity:1; 
stroke-linecap:round; stroke-linejoin:round;">
<path d="M55430 39250
L57430 39250
" />
<path d="M57430 39250
L58930 39250
" />
<path d="M55430 38250
L55430 39250
" />
</g>
<g style="fill:#000000; fill-opacity:0.0; 
stroke:#000000; stroke-width:394; stroke-opacity:1; 
stroke-linecap:round; stroke-linejoin:round;">
<path d="M51430 41250
L53430 41250
" />
<path d="M51930 35250
L53430 35250
" />
<path d="M51430 35750
L51930 35250
" />
<path d="M65430 35750
L65430 36250
" />
<path d="M53430 35250
L61930 35250
" />
<path d="M61930 35250
L64930 35250
" />
<path d="M64930 35250
L65430 35750
" />
<path d="M51430 38250
L51430 35750
" />
</g>
<g style="fill:#000000; fill-opacity:0.0; 
stroke:#000000; stroke-width:83; stroke-opacity:1; 
stroke-linecap:round; stroke-linejoin:round;">
<path d="M53430 38250
L51430 38250
" />
</g>
<g style="fill:#000000; fill-opacity:0.0; 
stroke:#000000; stroke-width:394; stroke-opacity:1; 
stroke-linecap:round; stroke-linejoin:round;">
<path d="M64430 38750
L64930 39250
" />
<path d="M64430 36250
L64430 38250
" />
<path d="M64430 38250
L64430 38750
" />
<path d="M62430 38250
L64430 38250
" />
</g>
<g style="fill:#FFFFFF; fill-opacity:0.0; 
stroke:#FFFFFF; stroke-width:394; stroke-opacity:1; 
stroke-linecap:round; stroke-linejoin:round;">
</g>
<g style="fill:#FFFFFF; fill-opacity:1.0; 
stroke:#FFFFFF; stroke-width:0; stroke-opacity:1; 
stroke-linecap:round; stroke-linejoin:round;">
<circle cx="51430" cy="41250" r="68.8976" /> 
</g>
<g style="fill:#FFFFFF; fill-opacity:1.0; 
stroke:#FFFFFF; stroke-width:39.3701; stroke-opacity:1; 
stroke-linecap:round; stroke-linejoin:round;">
</g>
<g style="fill:#FFFFFF; fill-opacity:1.0; 
stroke:#FFFFFF; stroke-width:0; stroke-opacity:1; 
stroke-linecap:round; stroke-linejoin:round;">
<circle cx="51430" cy="38250" r="68.8976" /> 
</g>
<g style="fill:#FFFFFF; fill-opacity:1.0; 
stroke:#FFFFFF; stroke-width:39.3701; stroke-opacity:1; 
stroke-linecap:round; stroke-linejoin:round;">
</g>
<g style="fill:#FFFFFF; fill-opacity:1.0; 
stroke:#FFFFFF; stroke-width:0; stroke-opacity:1; 
stroke-linecap:round; stroke-linejoin:round;">
<circle cx="64930" cy="39250" r="68.8976" /> 
</g>
<g style="fill:#FFFFFF; fill-opacity:1.0; 
stroke:#FFFFFF; stroke-width:39.3701; stroke-opacity:1; 
stroke-linecap:round; stroke-linejoin:round;">
</g>
<g style="fill:#FFFFFF; fill-opacity:1.0; 
stroke:#FFFFFF; stroke-width:0; stroke-opacity:1; 
stroke-linecap:round; stroke-linejoin:round;">
<circle cx="64930" cy="40250" r="68.8976" /> 
</g>
<g style="fill:#FFFFFF; fill-opacity:1.0; 
stroke:#FFFFFF; stroke-width:39.3701; stroke-opacity:1; 
stroke-linecap:round; stroke-linejoin:round;">
</g>
<g style="fill:#FFFFFF; fill-opacity:1.0; 
stroke:#FFFFFF; stroke-width:0; stroke-opacity:1; 
stroke-linecap:round; stroke-linejoin:round;">
<circle cx="62430" cy="41250" r="68.8976" /> 
</g>
<g style="fill:#FFFFFF; fill-opacity:1.0; 
stroke:#FFFFFF; stroke-width:39.3701; stroke-opacity:1; 
stroke-linecap:round; stroke-linejoin:round;">
</g>
<g style="fill:#FFFFFF; fill-opacity:1.0; 
stroke:#FFFFFF; stroke-width:0; stroke-opacity:1; 
stroke-linecap:round; stroke-linejoin:round;">
<circle cx="61430" cy="41250" r="68.8976" /> 
</g>
<g style="fill:#FFFFFF; fill-opacity:1.0; 
stroke:#FFFFFF; stroke-width:39.3701; stroke-opacity:1; 
stroke-linecap:round; stroke-linejoin:round;">
</g>
<g style="fill:#FFFFFF; fill-opacity:1.0; 
stroke:#FFFFFF; stroke-width:0; stroke-opacity:1; 
stroke-linecap:round; stroke-linejoin:round;">
<circle cx="60430" cy="41250" r="68.8976" /> 
</g>
<g style="fill:#FFFFFF; fill-opacity:1.0; 
stroke:#FFFFFF; stroke-width:39.3701; stroke-opacity:1; 
stroke-linecap:round; stroke-linejoin:round;">
</g>
<g style="fill:#FFFFFF; fill-opacity:1.0; 
stroke:#FFFFFF; stroke-width:0; stroke-opacity:1; 
stroke-linecap:round; stroke-linejoin:round;">
<circle cx="59430" cy="41250" r="68.8976" /> 
</g>
<g style="fill:#FFFFFF; fill-opacity:1.0; 
stroke:#FFFFFF; stroke-width:39.3701; stroke-opacity:1; 
stroke-linecap:round; stroke-linejoin:round;">
</g>
<g style="fill:#FFFFFF; fill-opacity:1.0; 
stroke:#FFFFFF; stroke-width:0; stroke-opacity:1; 
stroke-linecap:round; stroke-linejoin:round;">
<circle cx="58430" cy="41250" r="68.8976" /> 
</g>
<g style="fill:#FFFFFF; fill-opacity:1.0; 
stroke:#FFFFFF; stroke-width:39.3701; stroke-opacity:1; 
stroke-linecap:round; stroke-linejoin:round;">
</g>
<g style="fill:#FFFFFF; fill-opacity:1.0; 
stroke:#FFFFFF; stroke-width:0; stroke-opacity:1; 
stroke-linecap:round; stroke-linejoin:round;">
<circle cx="57430" cy="41250" r="68.8976" /> 
</g>
<g style="fill:#FFFFFF; fill-opacity:1.0; 
stroke:#FFFFFF; stroke-width:39.3701; stroke-opacity:1; 
stroke-linecap:round; stroke-linejoin:round;">
</g>
<g style="fill:#FFFFFF; fill-opacity:1.0; 
stroke:#FFFFFF; stroke-width:0; stroke-opacity:1; 
stroke-linecap:round; stroke-linejoin:round;">
<circle cx="56430" cy="41250" r="68.8976" /> 
</g>
<g style="fill:#FFFFFF; fill-opacity:1.0; 
stroke:#FFFFFF; stroke-width:39.3701; stroke-opacity:1; 
stroke-linecap:round; stroke-linejoin:round;">
</g>
<g style="fill:#FFFFFF; fill-opacity:1.0; 
stroke:#FFFFFF; stroke-width:0; stroke-opacity:1; 
stroke-linecap:round; stroke-linejoin:round;">
<circle cx="55430" cy="41250" r="68.8976" /> 
</g>
<g style="fill:#FFFFFF; fill-opacity:1.0; 
stroke:#FFFFFF; stroke-width:39.3701; stroke-opacity:1; 
stroke-linecap:round; stroke-linejoin:round;">
</g>
<g style="fill:#FFFFFF; fill-opacity:1.0; 
stroke:#FFFFFF; stroke-width:0; stroke-opacity:1; 
stroke-linecap:round; stroke-linejoin:round;">
<circle cx="54430" cy="41250" r="68.8976" /> 
</g>
<g style="fill:#FFFFFF; fill-opacity:1.0; 
stroke:#FFFFFF; stroke-width:39.3701; stroke-opacity:1; 
stroke-linecap:round; stroke-linejoin:round;">
</g>
<g style="fill:#FFFFFF; fill-opacity:1.0; 
stroke:#FFFFFF; stroke-width:0; stroke-opacity:1; 
stroke-linecap:round; stroke-linejoin:round;">
<circle cx="53430" cy="41250" r="68.8976" /> 
</g>
<g style="fill:#FFFFFF; fill-opacity:1.0; 
stroke:#FFFFFF; stroke-width:39.3701; stroke-opacity:1; 
stroke-linecap:round; stroke-linejoin:round;">
</g>
<g style="fill:#FFFFFF; fill-opacity:1.0; 
stroke:#FFFFFF; stroke-width:0; stroke-opacity:1; 
stroke-linecap:round; stroke-linejoin:round;">
<circle cx="53430" cy="38250" r="68.8976" /> 
</g>
<g style="fill:#FFFFFF; fill-opacity:1.0; 
stroke:#FFFFFF; stroke-width:39.3701; stroke-opacity:1; 
stroke-linecap:round; stroke-linejoin:round;">
</g>
<g style="fill:#FFFFFF; fill-opacity:1.0; 
stroke:#FFFFFF; stroke-width:0; stroke-opacity:1; 
stroke-linecap:round; stroke-linejoin:round;">
<circle cx="54430" cy="38250" r="68.8976" /> 
</g>
<g style="fill:#FFFFFF; fill-opacity:1.0; 
stroke:#FFFFFF; stroke-width:39.3701; stroke-opacity:1; 
stroke-linecap:round; stroke-linejoin:round;">
</g>
<g style="fill:#FFFFFF; fill-opacity:1.0; 
stroke:#FFFFFF; stroke-width:0; stroke-opacity:1; 
stroke-linecap:round; stroke-linejoin:round;">
<circle cx="55430" cy="38250" r="68.8976" /> 
</g>
<g style="fill:#FFFFFF; fill-opacity:1.0; 
stroke:#FFFFFF; stroke-width:39.3701; stroke-opacity:1; 
stroke-linecap:round; stroke-linejoin:round;">
</g>
<g style="fill:#FFFFFF; fill-opacity:1.0; 
stroke:#FFFFFF; stroke-width:0; stroke-opacity:1; 
stroke-linecap:round; stroke-linejoin:round;">
<circle cx="56430" cy="38250" r="68.8976" /> 
</g>
<g style="fill:#FFFFFF; fill-opacity:1.0; 
stroke:#FFFFFF; stroke-width:39.3701; stroke-opacity:1; 
stroke-linecap:round; stroke-linejoin:round;">
</g>
<g style="fill:#FFFFFF; fill-opacity:1.0; 
stroke:#FFFFFF; stroke-width:0; stroke-opacity:1; 
stroke-linecap:round; stroke-linejoin:round;">
<circle cx="57430" cy="38250" r="68.8976" /> 
</g>
<g style="fill:#FFFFFF; fill-opacity:1.0; 
stroke:#FFFFFF; stroke-width:39.3701; stroke-opacity:1; 
stroke-linecap:round; stroke-linejoin:round;">
</g>
<g style="fill:#FFFFFF; fill-opacity:1.0; 
stroke:#FFFFFF; stroke-width:0; stroke-opacity:1; 
stroke-linecap:round; stroke-linejoin:round;">
<circle cx="58430" cy="38250" r="68.8976" /> 
</g>
<g style="fill:#FFFFFF; fill-opacity:1.0; 
stroke:#FFFFFF; stroke-width:39.3701; stroke-opacity:1; 
stroke-linecap:round; stroke-linejoin:round;">
</g>
<g style="fill:#FFFFFF; fill-opacity:1.0; 
stroke:#FFFFFF; stroke-width:0; stroke-opacity:1; 
stroke-linecap:round; stroke-linejoin:round;">
<circle cx="59430" cy="38250" r="68.8976" /> 
</g>
<g style="fill:#FFFFFF; fill-opacity:1.0; 
stroke:#FFFFFF; stroke-width:39.3701; stroke-opacity:1; 
stroke-linecap:round; stroke-linejoin:round;">
</g>
<g style="fill:#FFFFFF; fill-opacity:1.0; 
stroke:#FFFFFF; stroke-width:0; stroke-opacity:1; 
stroke-linecap:round; stroke-linejoin:round;">
<circle cx="60430" cy="38250" r="68.8976" /> 
</g>
<g style="fill:#FFFFFF; fill-opacity:1.0; 
stroke:#FFFFFF; stroke-width:39.3701; stroke-opacity:1; 
stroke-linecap:round; stroke-linejoin:round;">
</g>
<g style="fill:#FFFFFF; fill-opacity:1.0; 
stroke:#FFFFFF; stroke-width:0; stroke-opacity:1; 
stroke-linecap:round; stroke-linejoin:round;">
<circle cx="61430" cy="38250" r="68.8976" /> 
</g>
<g style="fill:#FFFFFF; fill-opacity:1.0; 
stroke:#FFFFFF; stroke-width:39.3701; stroke-opacity:1; 
stroke-linecap:round; stroke-linejoin:round;">
</g>
<g style="fill:#FFFFFF; fill-opacity:1.0; 
stroke:#FFFFFF; stroke-width:0; stroke-opacity:1; 
stroke-linecap:round; stroke-linejoin:round;">
<circle cx="62430" cy="38250" r="68.8976" /> 
</g>
<g style="fill:#FFFFFF; fill-opacity:1.0; 
stroke:#FFFFFF; stroke-width:39.3701; stroke-opacity:1; 
stroke-linecap:round; stroke-linejoin:round;">
</g>
<g style="fill:#FFFFFF; fill-opacity:1.0; 
stroke:#FFFFFF; stroke-width:0; stroke-opacity:1; 
stroke-linecap:round; stroke-linejoin:round;">
<circle cx="59930" cy="36250" r="68.8976" /> 
</g>
<g style="fill:#FFFFFF; fill-opacity:1.0; 
stroke:#FFFFFF; stroke-width:39.3701; stroke-opacity:1; 
stroke-linecap:round; stroke-linejoin:round;">
</g>
<g style="fill:#FFFFFF; fill-opacity:1.0; 
stroke:#FFFFFF; stroke-width:0; stroke-opacity:1; 
stroke-linecap:round; stroke-linejoin:round;">
<circle cx="58930" cy="36250" r="68.8976" /> 
</g>
<g style="fill:#FFFFFF; fill-opacity:1.0; 
stroke:#FFFFFF; stroke-width:39.3701; stroke-opacity:1; 
stroke-linecap:round; stroke-linejoin:round;">
</g>
<g style="fill:#FFFFFF; fill-opacity:1.0; 
stroke:#FFFFFF; stroke-width:0; stroke-opacity:1; 
stroke-linecap:round; stroke-linejoin:round;">
<circle cx="57930" cy="36250" r="68.8976" /> 
</g>
<g style="fill:#FFFFFF; fill-opacity:1.0; 
stroke:#FFFFFF; stroke-width:39.3701; stroke-opacity:1; 
stroke-linecap:round; stroke-linejoin:round;">
</g>
<g style="fill:#FFFFFF; fill-opacity:1.0; 
stroke:#FFFFFF; stroke-width:0; stroke-opacity:1; 
stroke-linecap:round; stroke-linejoin:round;">
<circle cx="56930" cy="36250" r="68.8976" /> 
</g>
<g style="fill:#FFFFFF; fill-opacity:1.0; 
stroke:#FFFFFF; stroke-width:39.3701; stroke-opacity:1; 
stroke-linecap:round; stroke-linejoin:round;">
</g>
<g style="fill:#FFFFFF; fill-opacity:1.0; 
stroke:#FFFFFF; stroke-width:0; stroke-opacity:1; 
stroke-linecap:round; stroke-linejoin:round;">
<circle cx="55930" cy="36250" r="68.8976" /> 
</g>
<g style="fill:#FFFFFF; fill-opacity:1.0; 
stroke:#FFFFFF; stroke-width:39.3701; stroke-opacity:1; 
stroke-linecap:round; stroke-linejoin:round;">
</g>
<g style="fill:#FFFFFF; fill-opacity:1.0; 
stroke:#FFFFFF; stroke-width:0; stroke-opacity:1; 
stroke-linecap:round; stroke-linejoin:round;">
<circle cx="49930" cy="38250" r="68.8976" /> 
</g>
<g style="fill:#FFFFFF; fill-opacity:1.0; 
stroke:#FFFFFF; stroke-width:39.3701; stroke-opacity:1; 
stroke-linecap:round; stroke-linejoin:round;">
</g>
<g style="fill:#FFFFFF; fill-opacity:1.0; 
stroke:#FFFFFF; stroke-width:0; stroke-opacity:1; 
stroke-linecap:round; stroke-linejoin:round;">
<circle cx="49930" cy="39250" r="68.8976" /> 
</g>
<g style="fill:#FFFFFF; fill-opacity:1.0; 
stroke:#FFFFFF; stroke-width:39.3701; stroke-opacity:1; 
stroke-linecap:round; stroke-linejoin:round;">
</g>
<g style="fill:#FFFFFF; fill-opacity:1.0; 
stroke:#FFFFFF; stroke-width:0; stroke-opacity:1; 
stroke-linecap:round; stroke-linejoin:round;">
<circle cx="49930" cy="40250" r="68.8976" /> 
</g>
<g style="fill:#FFFFFF; fill-opacity:1.0; 
stroke:#FFFFFF; stroke-width:39.3701; stroke-opacity:1; 
stroke-linecap:round; stroke-linejoin:round;">
</g>
<g style="fill:#FFFFFF; fill-opacity:1.0; 
stroke:#FFFFFF; stroke-width:0; stroke-opacity:1; 
stroke-linecap:round; stroke-linejoin:round;">
<circle cx="49930" cy="41250" r="68.8976" /> 
</g>
<g style="fill:#FFFFFF; fill-opacity:1.0; 
stroke:#FFFFFF; stroke-width:39.3701; stroke-opacity:1; 
stroke-linecap:round; stroke-linejoin:round;">
</g>
<g style="fill:#FFFFFF; fill-opacity:1.0; 
stroke:#FFFFFF; stroke-width:0; stroke-opacity:1; 
stroke-linecap:round; stroke-linejoin:round;">
<circle cx="64430" cy="36250" r="68.8976" /> 
</g>
<g style="fill:#FFFFFF; fill-opacity:1.0; 
stroke:#FFFFFF; stroke-width:39.3701; stroke-opacity:1; 
stroke-linecap:round; stroke-linejoin:round;">
</g>
<g style="fill:#FFFFFF; fill-opacity:1.0; 
stroke:#FFFFFF; stroke-width:0; stroke-opacity:1; 
stroke-linecap:round; stroke-linejoin:round;">
<circle cx="65430" cy="36250" r="68.8976" /> 
</g>
<g style="fill:#FFFFFF; fill-opacity:1.0; 
stroke:#FFFFFF; stroke-width:39.3701; stroke-opacity:1; 
stroke-linecap:round; stroke-linejoin:round;">
</g>
<g style="fill:#000000; fill-opacity:1.0; 
stroke:#000000; stroke-width:39.3701; stroke-opacity:1; 
stroke-linecap:round; stroke-linejoin:round;">
</g> 
</svg>
