<?xml version="1.0" standalone="no"?>
 <!DOCTYPE svg PUBLIC "-//W3C//DTD SVG 1.1//EN" 
 "http://www.w3.org/Graphics/SVG/1.1/DTD/svg11.dtd"> 
<svg xmlns="http://www.w3.org/2000/svg" version="1.1" 
    width="29.7002cm" height="21.0007cm" viewBox="0 0 116929 82679 ">
<title>SVG Picture created as ctt_sc.sch.svg date 2022/09/02 20:54:59 </title>
  <desc>Picture generated by Eeschema-SVG </desc>
<g style="fill:#000000; fill-opacity:1;stroke:#000000; stroke-opacity:1;
stroke-linecap:round; stroke-linejoin:round; "
 transform="translate(0 0) scale(1 1)">
</g>
<g style="fill:#000000; fill-opacity:0.0; 
stroke:#000000; stroke-width:-10; stroke-opacity:1; 
stroke-linecap:round; stroke-linejoin:round;">
</g>
<g style="fill:#000000; fill-opacity:0.0; 
stroke:#000000; stroke-width:100; stroke-opacity:1; 
stroke-linecap:round; stroke-linejoin:round;">
</g>
<g style="fill:#000000; fill-opacity:0.0; 
stroke:#000000; stroke-width:60; stroke-opacity:1; 
stroke-linecap:round; stroke-linejoin:round;">
<rect x="69690" y="65360" width="42520" height="12600" rx="0" />
</g>
<g style="fill:#000000; fill-opacity:0.0; 
stroke:#000000; stroke-width:100; stroke-opacity:1; 
stroke-linecap:round; stroke-linejoin:round;">
</g>
<g style="fill:#000000; fill-opacity:0.0; 
stroke:#000000; stroke-width:60; stroke-opacity:1; 
stroke-linecap:round; stroke-linejoin:round;">
<rect x="3940" y="3940" width="109050" height="74800" rx="0" />
</g>
<g style="fill:#000000; fill-opacity:0.0; 
stroke:#000000; stroke-width:100; stroke-opacity:1; 
stroke-linecap:round; stroke-linejoin:round;">
</g>
<g style="fill:#000000; fill-opacity:0.0; 
stroke:#000000; stroke-width:60; stroke-opacity:1; 
stroke-linecap:round; stroke-linejoin:round;">
<rect x="4720" y="4720" width="107490" height="73240" rx="0" />
</g>
<g style="fill:#000000; fill-opacity:0.0; 
stroke:#000000; stroke-width:100; stroke-opacity:1; 
stroke-linecap:round; stroke-linejoin:round;">
</g>
<g style="fill:#000000; fill-opacity:0.0; 
stroke:#000000; stroke-width:60; stroke-opacity:1; 
stroke-linecap:round; stroke-linejoin:round;">
<path d="M23620 4720
L23620 3940
" />
</g>
<g style="fill:#000000; fill-opacity:0.0; 
stroke:#000000; stroke-width:100; stroke-opacity:1; 
stroke-linecap:round; stroke-linejoin:round;">
</g>
<g style="fill:#000000; fill-opacity:0.0; 
stroke:#000000; stroke-width:60; stroke-opacity:1; 
stroke-linecap:round; stroke-linejoin:round;">
<path d="M43310 4720
L43310 3940
" />
</g>
<g style="fill:#000000; fill-opacity:0.0; 
stroke:#000000; stroke-width:100; stroke-opacity:1; 
stroke-linecap:round; stroke-linejoin:round;">
</g>
<g style="fill:#000000; fill-opacity:0.0; 
stroke:#000000; stroke-width:60; stroke-opacity:1; 
stroke-linecap:round; stroke-linejoin:round;">
<path d="M62990 4720
L62990 3940
" />
</g>
<g style="fill:#000000; fill-opacity:0.0; 
stroke:#000000; stroke-width:100; stroke-opacity:1; 
stroke-linecap:round; stroke-linejoin:round;">
</g>
<g style="fill:#000000; fill-opacity:0.0; 
stroke:#000000; stroke-width:60; stroke-opacity:1; 
stroke-linecap:round; stroke-linejoin:round;">
<path d="M82680 4720
L82680 3940
" />
</g>
<g style="fill:#000000; fill-opacity:0.0; 
stroke:#000000; stroke-width:100; stroke-opacity:1; 
stroke-linecap:round; stroke-linejoin:round;">
</g>
<g style="fill:#000000; fill-opacity:0.0; 
stroke:#000000; stroke-width:60; stroke-opacity:1; 
stroke-linecap:round; stroke-linejoin:round;">
<path d="M102360 4720
L102360 3940
" />
</g>
<g style="fill:#000000; fill-opacity:0.0; 
stroke:#000000; stroke-width:100; stroke-opacity:1; 
stroke-linecap:round; stroke-linejoin:round;">
</g>
<g style="fill:#000000; fill-opacity:0.0; 
stroke:#000000; stroke-width:60; stroke-opacity:1; 
stroke-linecap:round; stroke-linejoin:round;">
<path d="M14170 4560
L13880 4560
" />
<path d="M14020 4560
L14020 4050
L13970 4120
L13930 4170
L13880 4190
" />
</g>
<g style="fill:#000000; fill-opacity:0.0; 
stroke:#000000; stroke-width:100; stroke-opacity:1; 
stroke-linecap:round; stroke-linejoin:round;">
</g>
<g style="fill:#000000; fill-opacity:0.0; 
stroke:#000000; stroke-width:60; stroke-opacity:1; 
stroke-linecap:round; stroke-linejoin:round;">
<path d="M33560 4090
L33580 4070
L33630 4050
L33750 4050
L33800 4070
L33820 4090
L33850 4140
L33850 4190
L33820 4260
L33530 4560
L33850 4560
" />
</g>
<g style="fill:#000000; fill-opacity:0.0; 
stroke:#000000; stroke-width:100; stroke-opacity:1; 
stroke-linecap:round; stroke-linejoin:round;">
</g>
<g style="fill:#000000; fill-opacity:0.0; 
stroke:#000000; stroke-width:60; stroke-opacity:1; 
stroke-linecap:round; stroke-linejoin:round;">
<path d="M53220 4050
L53540 4050
L53370 4240
L53440 4240
L53490 4260
L53510 4290
L53540 4340
L53540 4460
L53510 4510
L53490 4530
L53440 4560
L53300 4560
L53250 4530
L53220 4510
" />
</g>
<g style="fill:#000000; fill-opacity:0.0; 
stroke:#000000; stroke-width:100; stroke-opacity:1; 
stroke-linecap:round; stroke-linejoin:round;">
</g>
<g style="fill:#000000; fill-opacity:0.0; 
stroke:#000000; stroke-width:60; stroke-opacity:1; 
stroke-linecap:round; stroke-linejoin:round;">
<path d="M73170 4220
L73170 4560
" />
<path d="M73050 4020
L72930 4390
L73240 4390
" />
</g>
<g style="fill:#000000; fill-opacity:0.0; 
stroke:#000000; stroke-width:100; stroke-opacity:1; 
stroke-linecap:round; stroke-linejoin:round;">
</g>
<g style="fill:#000000; fill-opacity:0.0; 
stroke:#000000; stroke-width:60; stroke-opacity:1; 
stroke-linecap:round; stroke-linejoin:round;">
<path d="M92880 4050
L92640 4050
L92620 4290
L92640 4260
L92690 4240
L92810 4240
L92860 4260
L92880 4290
L92910 4340
L92910 4460
L92880 4510
L92860 4530
L92810 4560
L92690 4560
L92640 4530
L92620 4510
" />
</g>
<g style="fill:#000000; fill-opacity:0.0; 
stroke:#000000; stroke-width:100; stroke-opacity:1; 
stroke-linecap:round; stroke-linejoin:round;">
</g>
<g style="fill:#000000; fill-opacity:0.0; 
stroke:#000000; stroke-width:60; stroke-opacity:1; 
stroke-linecap:round; stroke-linejoin:round;">
<path d="M112540 4050
L112440 4050
L112390 4070
L112370 4090
L112320 4170
L112300 4260
L112300 4460
L112320 4510
L112350 4530
L112390 4560
L112490 4560
L112540 4530
L112560 4510
L112590 4460
L112590 4340
L112560 4290
L112540 4260
L112490 4240
L112390 4240
L112350 4260
L112320 4290
L112300 4340
" />
</g>
<g style="fill:#000000; fill-opacity:0.0; 
stroke:#000000; stroke-width:100; stroke-opacity:1; 
stroke-linecap:round; stroke-linejoin:round;">
</g>
<g style="fill:#000000; fill-opacity:0.0; 
stroke:#000000; stroke-width:60; stroke-opacity:1; 
stroke-linecap:round; stroke-linejoin:round;">
<path d="M23620 77960
L23620 78740
" />
</g>
<g style="fill:#000000; fill-opacity:0.0; 
stroke:#000000; stroke-width:100; stroke-opacity:1; 
stroke-linecap:round; stroke-linejoin:round;">
</g>
<g style="fill:#000000; fill-opacity:0.0; 
stroke:#000000; stroke-width:60; stroke-opacity:1; 
stroke-linecap:round; stroke-linejoin:round;">
<path d="M43310 77960
L43310 78740
" />
</g>
<g style="fill:#000000; fill-opacity:0.0; 
stroke:#000000; stroke-width:100; stroke-opacity:1; 
stroke-linecap:round; stroke-linejoin:round;">
</g>
<g style="fill:#000000; fill-opacity:0.0; 
stroke:#000000; stroke-width:60; stroke-opacity:1; 
stroke-linecap:round; stroke-linejoin:round;">
<path d="M62990 77960
L62990 78740
" />
</g>
<g style="fill:#000000; fill-opacity:0.0; 
stroke:#000000; stroke-width:100; stroke-opacity:1; 
stroke-linecap:round; stroke-linejoin:round;">
</g>
<g style="fill:#000000; fill-opacity:0.0; 
stroke:#000000; stroke-width:60; stroke-opacity:1; 
stroke-linecap:round; stroke-linejoin:round;">
<path d="M82680 77960
L82680 78740
" />
</g>
<g style="fill:#000000; fill-opacity:0.0; 
stroke:#000000; stroke-width:100; stroke-opacity:1; 
stroke-linecap:round; stroke-linejoin:round;">
</g>
<g style="fill:#000000; fill-opacity:0.0; 
stroke:#000000; stroke-width:60; stroke-opacity:1; 
stroke-linecap:round; stroke-linejoin:round;">
<path d="M102360 77960
L102360 78740
" />
</g>
<g style="fill:#000000; fill-opacity:0.0; 
stroke:#000000; stroke-width:100; stroke-opacity:1; 
stroke-linecap:round; stroke-linejoin:round;">
</g>
<g style="fill:#000000; fill-opacity:0.0; 
stroke:#000000; stroke-width:60; stroke-opacity:1; 
stroke-linecap:round; stroke-linejoin:round;">
<path d="M14170 78580
L13880 78580
" />
<path d="M14020 78580
L14020 78070
L13970 78140
L13930 78190
L13880 78210
" />
</g>
<g style="fill:#000000; fill-opacity:0.0; 
stroke:#000000; stroke-width:100; stroke-opacity:1; 
stroke-linecap:round; stroke-linejoin:round;">
</g>
<g style="fill:#000000; fill-opacity:0.0; 
stroke:#000000; stroke-width:60; stroke-opacity:1; 
stroke-linecap:round; stroke-linejoin:round;">
<path d="M33560 78110
L33580 78090
L33630 78070
L33750 78070
L33800 78090
L33820 78110
L33850 78160
L33850 78210
L33820 78280
L33530 78580
L33850 78580
" />
</g>
<g style="fill:#000000; fill-opacity:0.0; 
stroke:#000000; stroke-width:100; stroke-opacity:1; 
stroke-linecap:round; stroke-linejoin:round;">
</g>
<g style="fill:#000000; fill-opacity:0.0; 
stroke:#000000; stroke-width:60; stroke-opacity:1; 
stroke-linecap:round; stroke-linejoin:round;">
<path d="M53220 78070
L53540 78070
L53370 78260
L53440 78260
L53490 78280
L53510 78310
L53540 78360
L53540 78480
L53510 78530
L53490 78550
L53440 78580
L53300 78580
L53250 78550
L53220 78530
" />
</g>
<g style="fill:#000000; fill-opacity:0.0; 
stroke:#000000; stroke-width:100; stroke-opacity:1; 
stroke-linecap:round; stroke-linejoin:round;">
</g>
<g style="fill:#000000; fill-opacity:0.0; 
stroke:#000000; stroke-width:60; stroke-opacity:1; 
stroke-linecap:round; stroke-linejoin:round;">
<path d="M73170 78240
L73170 78580
" />
<path d="M73050 78040
L72930 78410
L73240 78410
" />
</g>
<g style="fill:#000000; fill-opacity:0.0; 
stroke:#000000; stroke-width:100; stroke-opacity:1; 
stroke-linecap:round; stroke-linejoin:round;">
</g>
<g style="fill:#000000; fill-opacity:0.0; 
stroke:#000000; stroke-width:60; stroke-opacity:1; 
stroke-linecap:round; stroke-linejoin:round;">
<path d="M92880 78070
L92640 78070
L92620 78310
L92640 78280
L92690 78260
L92810 78260
L92860 78280
L92880 78310
L92910 78360
L92910 78480
L92880 78530
L92860 78550
L92810 78580
L92690 78580
L92640 78550
L92620 78530
" />
</g>
<g style="fill:#000000; fill-opacity:0.0; 
stroke:#000000; stroke-width:100; stroke-opacity:1; 
stroke-linecap:round; stroke-linejoin:round;">
</g>
<g style="fill:#000000; fill-opacity:0.0; 
stroke:#000000; stroke-width:60; stroke-opacity:1; 
stroke-linecap:round; stroke-linejoin:round;">
<path d="M112540 78070
L112440 78070
L112390 78090
L112370 78110
L112320 78190
L112300 78280
L112300 78480
L112320 78530
L112350 78550
L112390 78580
L112490 78580
L112540 78550
L112560 78530
L112590 78480
L112590 78360
L112560 78310
L112540 78280
L112490 78260
L112390 78260
L112350 78280
L112320 78310
L112300 78360
" />
</g>
<g style="fill:#000000; fill-opacity:0.0; 
stroke:#000000; stroke-width:100; stroke-opacity:1; 
stroke-linecap:round; stroke-linejoin:round;">
</g>
<g style="fill:#000000; fill-opacity:0.0; 
stroke:#000000; stroke-width:60; stroke-opacity:1; 
stroke-linecap:round; stroke-linejoin:round;">
<path d="M3940 23620
L4720 23620
" />
</g>
<g style="fill:#000000; fill-opacity:0.0; 
stroke:#000000; stroke-width:100; stroke-opacity:1; 
stroke-linecap:round; stroke-linejoin:round;">
</g>
<g style="fill:#000000; fill-opacity:0.0; 
stroke:#000000; stroke-width:60; stroke-opacity:1; 
stroke-linecap:round; stroke-linejoin:round;">
<path d="M3940 43310
L4720 43310
" />
</g>
<g style="fill:#000000; fill-opacity:0.0; 
stroke:#000000; stroke-width:100; stroke-opacity:1; 
stroke-linecap:round; stroke-linejoin:round;">
</g>
<g style="fill:#000000; fill-opacity:0.0; 
stroke:#000000; stroke-width:60; stroke-opacity:1; 
stroke-linecap:round; stroke-linejoin:round;">
<path d="M3940 62990
L4720 62990
" />
</g>
<g style="fill:#000000; fill-opacity:0.0; 
stroke:#000000; stroke-width:100; stroke-opacity:1; 
stroke-linecap:round; stroke-linejoin:round;">
</g>
<g style="fill:#000000; fill-opacity:0.0; 
stroke:#000000; stroke-width:60; stroke-opacity:1; 
stroke-linecap:round; stroke-linejoin:round;">
<path d="M4210 13860
L4450 13860
" />
<path d="M4160 14010
L4330 13500
L4500 14010
" />
</g>
<g style="fill:#000000; fill-opacity:0.0; 
stroke:#000000; stroke-width:100; stroke-opacity:1; 
stroke-linecap:round; stroke-linejoin:round;">
</g>
<g style="fill:#000000; fill-opacity:0.0; 
stroke:#000000; stroke-width:60; stroke-opacity:1; 
stroke-linecap:round; stroke-linejoin:round;">
<path d="M4370 33420
L4440 33440
L4470 33470
L4490 33520
L4490 33590
L4470 33640
L4440 33660
L4400 33690
L4200 33690
L4200 33180
L4370 33180
L4420 33200
L4440 33220
L4470 33270
L4470 33320
L4440 33370
L4420 33390
L4370 33420
L4200 33420
" />
</g>
<g style="fill:#000000; fill-opacity:0.0; 
stroke:#000000; stroke-width:100; stroke-opacity:1; 
stroke-linecap:round; stroke-linejoin:round;">
</g>
<g style="fill:#000000; fill-opacity:0.0; 
stroke:#000000; stroke-width:60; stroke-opacity:1; 
stroke-linecap:round; stroke-linejoin:round;">
<path d="M4490 53330
L4470 53350
L4400 53380
L4350 53380
L4270 53350
L4230 53300
L4200 53250
L4180 53160
L4180 53080
L4200 52990
L4230 52940
L4270 52890
L4350 52870
L4400 52870
L4470 52890
L4490 52910
" />
</g>
<g style="fill:#000000; fill-opacity:0.0; 
stroke:#000000; stroke-width:100; stroke-opacity:1; 
stroke-linecap:round; stroke-linejoin:round;">
</g>
<g style="fill:#000000; fill-opacity:0.0; 
stroke:#000000; stroke-width:60; stroke-opacity:1; 
stroke-linecap:round; stroke-linejoin:round;">
<path d="M4200 73060
L4200 72550
L4320 72550
L4400 72570
L4440 72620
L4470 72670
L4490 72760
L4490 72840
L4470 72930
L4440 72980
L4400 73030
L4320 73060
L4200 73060
" />
</g>
<g style="fill:#000000; fill-opacity:0.0; 
stroke:#000000; stroke-width:100; stroke-opacity:1; 
stroke-linecap:round; stroke-linejoin:round;">
</g>
<g style="fill:#000000; fill-opacity:0.0; 
stroke:#000000; stroke-width:60; stroke-opacity:1; 
stroke-linecap:round; stroke-linejoin:round;">
<path d="M112990 23620
L112210 23620
" />
</g>
<g style="fill:#000000; fill-opacity:0.0; 
stroke:#000000; stroke-width:100; stroke-opacity:1; 
stroke-linecap:round; stroke-linejoin:round;">
</g>
<g style="fill:#000000; fill-opacity:0.0; 
stroke:#000000; stroke-width:60; stroke-opacity:1; 
stroke-linecap:round; stroke-linejoin:round;">
<path d="M112990 43310
L112210 43310
" />
</g>
<g style="fill:#000000; fill-opacity:0.0; 
stroke:#000000; stroke-width:100; stroke-opacity:1; 
stroke-linecap:round; stroke-linejoin:round;">
</g>
<g style="fill:#000000; fill-opacity:0.0; 
stroke:#000000; stroke-width:60; stroke-opacity:1; 
stroke-linecap:round; stroke-linejoin:round;">
<path d="M112990 62990
L112210 62990
" />
</g>
<g style="fill:#000000; fill-opacity:0.0; 
stroke:#000000; stroke-width:100; stroke-opacity:1; 
stroke-linecap:round; stroke-linejoin:round;">
</g>
<g style="fill:#000000; fill-opacity:0.0; 
stroke:#000000; stroke-width:60; stroke-opacity:1; 
stroke-linecap:round; stroke-linejoin:round;">
<path d="M112480 13860
L112720 13860
" />
<path d="M112430 14010
L112600 13500
L112770 14010
" />
</g>
<g style="fill:#000000; fill-opacity:0.0; 
stroke:#000000; stroke-width:100; stroke-opacity:1; 
stroke-linecap:round; stroke-linejoin:round;">
</g>
<g style="fill:#000000; fill-opacity:0.0; 
stroke:#000000; stroke-width:60; stroke-opacity:1; 
stroke-linecap:round; stroke-linejoin:round;">
<path d="M112640 33420
L112710 33440
L112740 33470
L112760 33520
L112760 33590
L112740 33640
L112710 33660
L112670 33690
L112470 33690
L112470 33180
L112640 33180
L112690 33200
L112710 33220
L112740 33270
L112740 33320
L112710 33370
L112690 33390
L112640 33420
L112470 33420
" />
</g>
<g style="fill:#000000; fill-opacity:0.0; 
stroke:#000000; stroke-width:100; stroke-opacity:1; 
stroke-linecap:round; stroke-linejoin:round;">
</g>
<g style="fill:#000000; fill-opacity:0.0; 
stroke:#000000; stroke-width:60; stroke-opacity:1; 
stroke-linecap:round; stroke-linejoin:round;">
<path d="M112760 53330
L112740 53350
L112670 53380
L112620 53380
L112540 53350
L112500 53300
L112470 53250
L112450 53160
L112450 53080
L112470 52990
L112500 52940
L112540 52890
L112620 52870
L112670 52870
L112740 52890
L112760 52910
" />
</g>
<g style="fill:#000000; fill-opacity:0.0; 
stroke:#000000; stroke-width:100; stroke-opacity:1; 
stroke-linecap:round; stroke-linejoin:round;">
</g>
<g style="fill:#000000; fill-opacity:0.0; 
stroke:#000000; stroke-width:60; stroke-opacity:1; 
stroke-linecap:round; stroke-linejoin:round;">
<path d="M112470 73060
L112470 72550
L112590 72550
L112670 72570
L112710 72620
L112740 72670
L112760 72760
L112760 72840
L112740 72930
L112710 72980
L112670 73030
L112590 73060
L112470 73060
" />
</g>
<g style="fill:#000000; fill-opacity:0.0; 
stroke:#000000; stroke-width:100; stroke-opacity:1; 
stroke-linecap:round; stroke-linejoin:round;">
</g>
<g style="fill:#000000; fill-opacity:0.0; 
stroke:#000000; stroke-width:60; stroke-opacity:1; 
stroke-linecap:round; stroke-linejoin:round;">
<path d="M78880 76290
L78880 75700
L79020 75700
L79110 75730
L79160 75790
L79190 75840
L79220 75950
L79220 76040
L79190 76150
L79160 76210
L79110 76260
L79020 76290
L78880 76290
" />
<path d="M79720 76290
L79720 75980
L79700 75930
L79640 75900
L79530 75900
L79470 75930
" />
<path d="M79720 76260
L79670 76290
L79530 76290
L79470 76260
L79440 76210
L79440 76150
L79470 76100
L79530 76070
L79670 76070
L79720 76040
" />
<path d="M79920 75900
L80140 75900
" />
<path d="M80000 75700
L80000 76210
L80030 76260
L80080 76290
L80140 76290
" />
<path d="M80570 76260
L80510 76290
L80400 76290
L80340 76260
L80310 76210
L80310 75980
L80340 75930
L80400 75900
L80510 75900
L80570 75930
L80590 75980
L80590 76040
L80310 76100
" />
<path d="M80850 76240
L80880 76260
L80850 76290
L80820 76260
L80850 76240
L80850 76290
" />
<path d="M80850 75930
L80880 75950
L80850 75980
L80820 75950
L80850 75930
L80850 75980
" />
<path d="M81550 75760
L81580 75730
L81640 75700
L81780 75700
L81830 75730
L81860 75760
L81890 75810
L81890 75870
L81860 75950
L81520 76290
L81890 76290
" />
<path d="M82220 75950
L82170 75930
L82140 75900
L82110 75840
L82110 75810
L82140 75760
L82170 75730
L82220 75700
L82340 75700
L82390 75730
L82420 75760
L82450 75810
L82450 75840
L82420 75900
L82390 75930
L82340 75950
L82220 75950
L82170 75980
L82140 76010
L82110 76070
L82110 76180
L82140 76240
L82170 76260
L82220 76290
L82340 76290
L82390 76260
L82420 76240
L82450 76180
L82450 76070
L82420 76010
L82390 75980
L82340 75950
" />
<path d="M83150 75900
L83150 76400
L83120 76460
L83070 76490
L83040 76490
" />
<path d="M83150 75700
L83120 75730
L83150 75760
L83180 75730
L83150 75700
L83150 75760
" />
<path d="M83680 76290
L83680 75980
L83660 75930
L83600 75900
L83490 75900
L83430 75930
" />
<path d="M83680 76260
L83630 76290
L83490 76290
L83430 76260
L83400 76210
L83400 76150
L83430 76100
L83490 76070
L83630 76070
L83680 76040
" />
<path d="M83960 75900
L83960 76290
" />
<path d="M83960 75950
L83990 75930
L84040 75900
L84130 75900
L84190 75930
L84210 75980
L84210 76290
" />
<path d="M84910 75760
L84940 75730
L85000 75700
L85140 75700
L85190 75730
L85220 75760
L85250 75810
L85250 75870
L85220 75950
L84880 76290
L85250 76290
" />
<path d="M85610 75700
L85670 75700
L85730 75730
L85750 75760
L85780 75810
L85810 75930
L85810 76070
L85780 76180
L85750 76240
L85730 76260
L85670 76290
L85610 76290
L85560 76260
L85530 76240
L85500 76180
L85470 76070
L85470 75930
L85500 75810
L85530 75760
L85560 75730
L85610 75700
" />
<path d="M86370 76290
L86030 76290
" />
<path d="M86200 76290
L86200 75700
L86140 75790
L86090 75840
L86030 75870
" />
<path d="M86590 75760
L86620 75730
L86680 75700
L86820 75700
L86870 75730
L86900 75760
L86930 75810
L86930 75870
L86900 75950
L86560 76290
L86930 76290
" />
</g>
<g style="fill:#000000; fill-opacity:0.0; 
stroke:#000000; stroke-width:100; stroke-opacity:1; 
stroke-linecap:round; stroke-linejoin:round;">
</g>
<g style="fill:#000000; fill-opacity:0.0; 
stroke:#000000; stroke-width:60; stroke-opacity:1; 
stroke-linecap:round; stroke-linejoin:round;">
<path d="M69690 76580
L112210 76580
" />
</g>
<g style="fill:#000000; fill-opacity:0.0; 
stroke:#000000; stroke-width:100; stroke-opacity:1; 
stroke-linecap:round; stroke-linejoin:round;">
</g>
<g style="fill:#000000; fill-opacity:0.0; 
stroke:#000000; stroke-width:60; stroke-opacity:1; 
stroke-linecap:round; stroke-linejoin:round;">
<path d="M70220 77390
L70220 76800
" />
<path d="M70560 77390
L70300 77050
" />
<path d="M70560 76800
L70220 77140
" />
<path d="M70810 77390
L70810 77000
" />
<path d="M70810 76800
L70780 76830
L70810 76860
L70840 76830
L70810 76800
L70810 76860
" />
<path d="M71430 77340
L71400 77360
L71320 77390
L71260 77390
L71170 77360
L71120 77310
L71090 77250
L71060 77140
L71060 77050
L71090 76940
L71120 76890
L71170 76830
L71260 76800
L71320 76800
L71400 76830
L71430 76860
" />
<path d="M71930 77390
L71930 77080
L71910 77030
L71850 77000
L71740 77000
L71680 77030
" />
<path d="M71930 77360
L71880 77390
L71740 77390
L71680 77360
L71650 77310
L71650 77250
L71680 77200
L71740 77170
L71880 77170
L71930 77140
" />
<path d="M72460 77390
L72460 76800
" />
<path d="M72460 77360
L72410 77390
L72290 77390
L72240 77360
L72210 77340
L72180 77280
L72180 77110
L72210 77050
L72240 77030
L72290 77000
L72410 77000
L72460 77030
" />
<path d="M73190 77080
L73390 77080
" />
<path d="M73470 77390
L73190 77390
L73190 76800
L73470 76800
" />
<path d="M73720 77340
L73750 77360
L73720 77390
L73690 77360
L73720 77340
L73720 77390
" />
<path d="M74000 77390
L74000 76800
L74140 76800
L74230 76830
L74280 76890
L74310 76940
L74340 77050
L74340 77140
L74310 77250
L74280 77310
L74230 77360
L74140 77390
L74000 77390
" />
<path d="M74590 77340
L74620 77360
L74590 77390
L74560 77360
L74590 77340
L74590 77390
" />
<path d="M74840 77220
L75120 77220
" />
<path d="M74790 77390
L74980 76800
L75180 77390
" />
<path d="M75380 77340
L75410 77360
L75380 77390
L75350 77360
L75380 77340
L75380 77390
" />
<path d="M76560 77390
L76560 76800
" />
<path d="M76620 77170
L76790 77390
" />
<path d="M76790 77000
L76560 77220
" />
<path d="M77040 77390
L77040 77000
" />
<path d="M77040 76800
L77010 76830
L77040 76860
L77070 76830
L77040 76800
L77040 76860
" />
<path d="M77570 77360
L77520 77390
L77400 77390
L77350 77360
L77320 77340
L77290 77280
L77290 77110
L77320 77050
L77350 77030
L77400 77000
L77520 77000
L77570 77030
" />
<path d="M78080 77390
L78080 77080
L78060 77030
L78000 77000
L77890 77000
L77830 77030
" />
<path d="M78080 77360
L78030 77390
L77890 77390
L77830 77360
L77800 77310
L77800 77250
L77830 77200
L77890 77170
L78030 77170
L78080 77140
" />
<path d="M78610 77390
L78610 76800
" />
<path d="M78610 77360
L78560 77390
L78440 77390
L78390 77360
L78360 77340
L78330 77280
L78330 77110
L78360 77050
L78390 77030
L78440 77000
L78560 77000
L78610 77030
" />
<path d="M79590 77000
L79590 77390
" />
<path d="M79450 76770
L79310 77200
L79680 77200
" />
<path d="M79900 77340
L79930 77360
L79900 77390
L79870 77360
L79900 77340
L79900 77390
" />
<path d="M80290 76800
L80350 76800
L80410 76830
L80430 76860
L80460 76910
L80490 77030
L80490 77170
L80460 77280
L80430 77340
L80410 77360
L80350 77390
L80290 77390
L80240 77360
L80210 77340
L80180 77280
L80150 77170
L80150 77030
L80180 76910
L80210 76860
L80240 76830
L80290 76800
" />
<path d="M80740 77340
L80770 77360
L80740 77390
L80710 77360
L80740 77340
L80740 77390
" />
<path d="M81300 76800
L81020 76800
L80990 77080
L81020 77050
L81080 77030
L81220 77030
L81270 77050
L81300 77080
L81330 77140
L81330 77280
L81300 77340
L81270 77360
L81220 77390
L81080 77390
L81020 77360
L80990 77340
" />
<path d="M81580 77170
L82030 77170
" />
<path d="M81810 77390
L81810 76940
" />
<path d="M82560 77390
L82560 76800
" />
<path d="M82560 77360
L82510 77390
L82390 77390
L82340 77360
L82310 77340
L82280 77280
L82280 77110
L82310 77050
L82340 77030
L82390 77000
L82510 77000
L82560 77030
" />
<path d="M82760 77000
L82980 77000
" />
<path d="M82840 77390
L82840 76890
L82870 76830
L82920 76800
L82980 76800
" />
<path d="M83150 77360
L83210 77390
L83320 77390
L83380 77360
L83410 77310
L83410 77280
L83380 77220
L83320 77200
L83240 77200
L83180 77170
L83150 77110
L83150 77080
L83180 77030
L83240 77000
L83320 77000
L83380 77030
" />
<path d="M83910 77000
L83910 77480
L83890 77530
L83860 77560
L83800 77590
L83720 77590
L83660 77560
" />
<path d="M83910 77360
L83860 77390
L83740 77390
L83690 77360
L83660 77340
L83630 77280
L83630 77110
L83660 77050
L83690 77030
L83740 77000
L83860 77000
L83910 77030
" />
<path d="M84500 77390
L84160 77390
" />
<path d="M84330 77390
L84330 76800
L84270 76890
L84220 76940
L84160 76970
" />
<path d="M84750 77170
L85200 77170
" />
<path d="M85730 77000
L85730 77390
" />
<path d="M85590 76770
L85450 77200
L85820 77200
" />
<path d="M86040 77170
L86490 77170
" />
<path d="M86270 77390
L86270 76940
" />
<path d="M87020 77390
L87020 76800
" />
<path d="M87020 77360
L86970 77390
L86850 77390
L86800 77360
L86770 77340
L86740 77280
L86740 77110
L86770 77050
L86800 77030
L86850 77000
L86970 77000
L87020 77030
" />
<path d="M87530 77360
L87470 77390
L87360 77390
L87300 77360
L87270 77310
L87270 77080
L87300 77030
L87360 77000
L87470 77000
L87530 77030
L87550 77080
L87550 77140
L87270 77200
" />
<path d="M87810 77390
L87810 76800
" />
<path d="M87810 77030
L87870 77000
L87980 77000
L88040 77030
L88060 77050
L88090 77110
L88090 77280
L88060 77340
L88040 77360
L87980 77390
L87870 77390
L87810 77360
" />
<path d="M88370 77390
L88480 77390
L88540 77360
L88570 77340
L88620 77250
L88650 77140
L88650 76910
L88620 76860
L88590 76830
L88540 76800
L88420 76800
L88370 76830
L88340 76860
L88310 76910
L88310 77050
L88340 77110
L88370 77140
L88420 77170
L88540 77170
L88590 77140
L88620 77110
L88650 77050
" />
<path d="M89150 77000
L89150 77390
" />
<path d="M88900 77000
L88900 77310
L88930 77360
L88980 77390
L89070 77390
L89130 77360
L89150 77340
" />
<path d="M89740 77390
L89400 77390
" />
<path d="M89570 77390
L89570 76800
L89510 76890
L89460 76940
L89400 76970
" />
</g>
<g style="fill:#000000; fill-opacity:0.0; 
stroke:#000000; stroke-width:100; stroke-opacity:1; 
stroke-linecap:round; stroke-linejoin:round;">
</g>
<g style="fill:#000000; fill-opacity:0.0; 
stroke:#000000; stroke-width:60; stroke-opacity:1; 
stroke-linecap:round; stroke-linejoin:round;">
<path d="M69690 75400
L112210 75400
" />
</g>
<g style="fill:#000000; fill-opacity:0.0; 
stroke:#000000; stroke-width:100; stroke-opacity:1; 
stroke-linecap:round; stroke-linejoin:round;">
</g>
<g style="fill:#000000; fill-opacity:0.0; 
stroke:#000000; stroke-width:120; stroke-opacity:1; 
stroke-linecap:round; stroke-linejoin:round;">
<path d="M104020 76290
L103820 76010
" />
<path d="M103680 76290
L103680 75700
L103910 75700
L103960 75730
L103990 75760
L104020 75810
L104020 75900
L103990 75950
L103960 75980
L103910 76010
L103680 76010
" />
<path d="M104500 76260
L104440 76290
L104330 76290
L104270 76260
L104240 76210
L104240 75980
L104270 75930
L104330 75900
L104440 75900
L104500 75930
L104520 75980
L104520 76040
L104240 76100
" />
<path d="M104720 75900
L104860 76290
L105010 75900
" />
<path d="M105230 76240
L105260 76260
L105230 76290
L105200 76260
L105230 76240
L105230 76290
" />
<path d="M105230 75930
L105260 75950
L105230 75980
L105200 75950
L105230 75930
L105230 75980
" />
<path d="M106270 76290
L105930 76290
" />
<path d="M106100 76290
L106100 75700
L106040 75790
L105990 75840
L105930 75870
" />
<path d="M106520 76240
L106550 76260
L106520 76290
L106490 76260
L106520 76240
L106520 76290
" />
<path d="M106910 75700
L106970 75700
L107030 75730
L107050 75760
L107080 75810
L107110 75930
L107110 76070
L107080 76180
L107050 76240
L107030 76260
L106970 76290
L106910 76290
L106860 76260
L106830 76240
L106800 76180
L106770 76070
L106770 75930
L106800 75810
L106830 75760
L106860 75730
L106910 75700
" />
</g>
<g style="fill:#000000; fill-opacity:0.0; 
stroke:#000000; stroke-width:100; stroke-opacity:1; 
stroke-linecap:round; stroke-linejoin:round;">
</g>
<g style="fill:#000000; fill-opacity:0.0; 
stroke:#000000; stroke-width:60; stroke-opacity:1; 
stroke-linecap:round; stroke-linejoin:round;">
<path d="M70190 76260
L70280 76290
L70420 76290
L70470 76260
L70500 76240
L70530 76180
L70530 76120
L70500 76070
L70470 76040
L70420 76010
L70300 75980
L70250 75950
L70220 75930
L70190 75870
L70190 75810
L70220 75760
L70250 75730
L70300 75700
L70450 75700
L70530 75730
" />
<path d="M70780 76290
L70780 75900
" />
<path d="M70780 75700
L70750 75730
L70780 75760
L70810 75730
L70780 75700
L70780 75760
" />
<path d="M71000 75900
L71310 75900
L71000 76290
L71310 76290
" />
<path d="M71770 76260
L71710 76290
L71600 76290
L71540 76260
L71510 76210
L71510 75980
L71540 75930
L71600 75900
L71710 75900
L71770 75930
L71790 75980
L71790 76040
L71510 76100
" />
<path d="M72050 76240
L72080 76260
L72050 76290
L72020 76260
L72050 76240
L72050 76290
" />
<path d="M72050 75930
L72080 75950
L72050 75980
L72020 75950
L72050 75930
L72050 75980
" />
<path d="M72750 76120
L73030 76120
" />
<path d="M72700 76290
L72890 75700
L73090 76290
" />
<path d="M73540 75900
L73540 76290
" />
<path d="M73400 75670
L73260 76100
L73630 76100
" />
</g>
<g style="fill:#000000; fill-opacity:0.0; 
stroke:#000000; stroke-width:100; stroke-opacity:1; 
stroke-linecap:round; stroke-linejoin:round;">
</g>
<g style="fill:#000000; fill-opacity:0.0; 
stroke:#000000; stroke-width:60; stroke-opacity:1; 
stroke-linecap:round; stroke-linejoin:round;">
<path d="M103680 77390
L103680 76800
" />
<path d="M104210 77390
L104210 76800
" />
<path d="M104210 77360
L104160 77390
L104040 77390
L103990 77360
L103960 77340
L103930 77280
L103930 77110
L103960 77050
L103990 77030
L104040 77000
L104160 77000
L104210 77030
" />
<path d="M104490 77340
L104520 77360
L104490 77390
L104460 77360
L104490 77340
L104490 77390
" />
<path d="M104490 77030
L104520 77050
L104490 77080
L104460 77050
L104490 77030
L104490 77080
" />
<path d="M105160 76800
L105530 76800
L105330 77030
L105420 77030
L105470 77050
L105500 77080
L105530 77140
L105530 77280
L105500 77340
L105470 77360
L105420 77390
L105250 77390
L105190 77360
L105160 77340
" />
<path d="M106200 76770
L105700 77530
" />
<path d="M106710 77390
L106370 77390
" />
<path d="M106540 77390
L106540 76800
L106480 76890
L106430 76940
L106370 76970
" />
<path d="M107270 77390
L106930 77390
" />
<path d="M107100 77390
L107100 76800
L107040 76890
L106990 76940
L106930 76970
" />
</g>
<g style="fill:#000000; fill-opacity:0.0; 
stroke:#000000; stroke-width:100; stroke-opacity:1; 
stroke-linecap:round; stroke-linejoin:round;">
</g>
<g style="fill:#000000; fill-opacity:0.0; 
stroke:#000000; stroke-width:60; stroke-opacity:1; 
stroke-linecap:round; stroke-linejoin:round;">
<path d="M69690 73820
L112210 73820
" />
</g>
<g style="fill:#000000; fill-opacity:0.0; 
stroke:#000000; stroke-width:100; stroke-opacity:1; 
stroke-linecap:round; stroke-linejoin:round;">
</g>
<g style="fill:#000000; fill-opacity:0.0; 
stroke:#000000; stroke-width:160; stroke-opacity:1; 
stroke-linecap:round; stroke-linejoin:round;">
<path d="M70260 74090
L70710 74090
" />
<path d="M70390 74880
L70480 74090
" />
<path d="M70880 74880
L70940 74360
" />
<path d="M70970 74090
L70930 74130
L70960 74170
L71010 74130
L70970 74090
L70960 74170
" />
<path d="M71210 74360
L71510 74360
" />
<path d="M71350 74090
L71270 74770
L71300 74840
L71370 74880
L71450 74880
" />
<path d="M71820 74880
L71750 74840
L71720 74770
L71800 74090
" />
<path d="M72420 74840
L72340 74880
L72190 74880
L72120 74840
L72090 74770
L72130 74470
L72180 74390
L72250 74360
L72400 74360
L72480 74390
L72510 74470
L72500 74540
L72110 74620
" />
<path d="M72800 74810
L72840 74840
L72800 74880
L72760 74840
L72800 74810
L72800 74880
" />
<path d="M72860 74390
L72890 74430
L72850 74470
L72810 74430
L72860 74390
L72850 74470
" />
<path d="M74230 74810
L74190 74840
L74080 74880
L74000 74880
L73890 74840
L73830 74770
L73800 74690
L73780 74540
L73790 74430
L73850 74280
L73900 74210
L73980 74130
L74090 74090
L74170 74090
L74280 74130
L74310 74170
" />
<path d="M74550 74090
L75000 74090
" />
<path d="M74680 74880
L74770 74090
" />
<path d="M75150 74090
L75600 74090
" />
<path d="M75280 74880
L75370 74090
" />
<path d="M76350 74090
L76800 74090
" />
<path d="M76480 74880
L76570 74090
" />
<path d="M76970 74880
L77030 74360
" />
<path d="M77010 74510
L77060 74430
L77100 74390
L77180 74360
L77250 74360
" />
<path d="M77800 74880
L77850 74470
L77820 74390
L77740 74360
L77590 74360
L77520 74390
" />
<path d="M77800 74840
L77720 74880
L77530 74880
L77460 74840
L77430 74770
L77440 74690
L77490 74620
L77560 74580
L77750 74580
L77840 74540
" />
<path d="M78230 74360
L78170 74880
" />
<path d="M78220 74430
L78270 74390
L78340 74360
L78450 74360
L78530 74390
L78560 74470
L78510 74880
" />
<path d="M78840 74840
L78920 74880
L79070 74880
L79140 74840
L79190 74770
L79190 74730
L79160 74660
L79100 74620
L78980 74620
L78910 74580
L78880 74510
L78890 74470
L78940 74390
L79010 74360
L79130 74360
L79200 74390
" />
<path d="M79520 74880
L79580 74360
" />
<path d="M79610 74090
L79570 74130
L79600 74170
L79650 74130
L79610 74090
L79600 74170
" />
<path d="M79860 74840
L79940 74880
L80090 74880
L80160 74840
L80210 74770
L80210 74730
L80180 74660
L80120 74620
L80000 74620
L79930 74580
L79900 74510
L79910 74470
L79960 74390
L80030 74360
L80150 74360
L80220 74390
" />
<path d="M80490 74360
L80790 74360
" />
<path d="M80630 74090
L80550 74770
L80580 74840
L80650 74880
L80730 74880
" />
<path d="M81100 74880
L81030 74840
L80990 74810
L80960 74730
L80990 74510
L81040 74430
L81090 74390
L81160 74360
L81270 74360
L81350 74390
L81380 74430
L81400 74510
L81370 74730
L81330 74810
L81290 74840
L81210 74880
L81100 74880
" />
<path d="M81700 74880
L81760 74360
" />
<path d="M81740 74510
L81790 74430
L81830 74390
L81910 74360
L81980 74360
" />
<path d="M82740 74360
L83040 74360
" />
<path d="M82880 74090
L82800 74770
L82830 74840
L82900 74880
L82980 74880
" />
<path d="M83540 74840
L83460 74880
L83310 74880
L83240 74840
L83210 74770
L83250 74470
L83300 74390
L83370 74360
L83520 74360
L83600 74390
L83630 74470
L83620 74540
L83230 74620
" />
<path d="M83880 74840
L83960 74880
L84110 74880
L84180 74840
L84230 74770
L84230 74730
L84200 74660
L84140 74620
L84020 74620
L83950 74580
L83920 74510
L83930 74470
L83980 74390
L84050 74360
L84170 74360
L84240 74390
" />
<path d="M84510 74360
L84810 74360
" />
<path d="M84650 74090
L84570 74770
L84600 74840
L84670 74880
L84750 74880
" />
<path d="M85310 74840
L85230 74880
L85080 74880
L85010 74840
L84980 74770
L85020 74470
L85070 74390
L85140 74360
L85290 74360
L85370 74390
L85400 74470
L85390 74540
L85000 74620
" />
<path d="M85690 74880
L85750 74360
" />
<path d="M85730 74510
L85780 74430
L85820 74390
L85900 74360
L85970 74360
" />
<path d="M86810 74580
L87410 74580
" />
<path d="M88810 74810
L88770 74840
L88660 74880
L88580 74880
L88470 74840
L88410 74770
L88380 74690
L88360 74540
L88370 74430
L88430 74280
L88480 74210
L88560 74130
L88670 74090
L88750 74090
L88860 74130
L88890 74170
" />
<path d="M89130 74090
L89580 74090
" />
<path d="M89260 74880
L89350 74090
" />
<path d="M89730 74090
L90180 74090
" />
<path d="M89860 74880
L89950 74090
" />
<path d="M91010 74050
L90210 75070
" />
<path d="M91140 74840
L91250 74880
L91440 74880
L91520 74840
L91550 74810
L91600 74730
L91610 74660
L91580 74580
L91560 74540
L91480 74510
L91340 74470
L91270 74430
L91240 74390
L91210 74320
L91220 74240
L91260 74170
L91310 74130
L91380 74090
L91570 74090
L91680 74130
" />
<path d="M92380 74810
L92340 74840
L92230 74880
L92150 74880
L92040 74840
L91980 74770
L91950 74690
L91930 74540
L91940 74430
L92000 74280
L92050 74210
L92130 74130
L92240 74090
L92320 74090
L92430 74130
L92460 74170
" />
<path d="M93280 74840
L93390 74880
L93580 74880
L93660 74840
L93690 74810
L93740 74730
L93750 74660
L93720 74580
L93700 74540
L93620 74510
L93480 74470
L93410 74430
L93380 74390
L93350 74320
L93360 74240
L93400 74170
L93450 74130
L93520 74090
L93710 74090
L93820 74130
" />
<path d="M94020 74360
L94320 74360
" />
<path d="M94160 74090
L94080 74770
L94110 74840
L94180 74880
L94260 74880
" />
<path d="M94860 74880
L94910 74470
L94880 74390
L94800 74360
L94650 74360
L94580 74390
" />
<path d="M94860 74840
L94780 74880
L94590 74880
L94520 74840
L94490 74770
L94500 74690
L94550 74620
L94620 74580
L94810 74580
L94900 74540
" />
<path d="M95180 74360
L95480 74360
" />
<path d="M95320 74090
L95240 74770
L95270 74840
L95340 74880
L95420 74880
" />
<path d="M96080 74360
L96020 74880
" />
<path d="M95740 74360
L95690 74770
L95720 74840
L95790 74880
L95900 74880
L95980 74840
L96020 74810
" />
<path d="M96350 74840
L96430 74880
L96580 74880
L96650 74840
L96700 74770
L96700 74730
L96670 74660
L96610 74620
L96490 74620
L96420 74580
L96390 74510
L96400 74470
L96450 74390
L96520 74360
L96640 74360
L96710 74390
" />
<path d="M97970 74840
L97890 74880
L97740 74880
L97670 74840
L97630 74810
L97600 74730
L97630 74510
L97680 74430
L97730 74390
L97800 74360
L97950 74360
L98030 74390
" />
<path d="M98420 74880
L98350 74840
L98310 74810
L98280 74730
L98310 74510
L98360 74430
L98410 74390
L98480 74360
L98590 74360
L98670 74390
L98700 74430
L98720 74510
L98690 74730
L98650 74810
L98610 74840
L98530 74880
L98420 74880
" />
<path d="M99130 74880
L99060 74840
L99030 74770
L99110 74090
" />
<path d="M99540 74880
L99470 74840
L99440 74770
L99520 74090
" />
<path d="M100140 74840
L100060 74880
L99910 74880
L99840 74840
L99810 74770
L99850 74470
L99900 74390
L99970 74360
L100120 74360
L100200 74390
L100230 74470
L100220 74540
L99830 74620
" />
<path d="M100860 74840
L100780 74880
L100630 74880
L100560 74840
L100520 74810
L100490 74730
L100520 74510
L100570 74430
L100620 74390
L100690 74360
L100840 74360
L100920 74390
" />
<path d="M101150 74360
L101450 74360
" />
<path d="M101290 74090
L101210 74770
L101240 74840
L101310 74880
L101390 74880
" />
<path d="M101760 74880
L101690 74840
L101650 74810
L101620 74730
L101650 74510
L101700 74430
L101750 74390
L101820 74360
L101930 74360
L102010 74390
L102040 74430
L102060 74510
L102030 74730
L101990 74810
L101950 74840
L101870 74880
L101760 74880
" />
<path d="M102360 74880
L102420 74360
" />
<path d="M102400 74510
L102450 74430
L102490 74390
L102570 74360
L102640 74360
" />
<path d="M103850 74360
L103790 74880
" />
<path d="M103510 74360
L103460 74770
L103490 74840
L103560 74880
L103670 74880
L103750 74840
L103790 74810
" />
<path d="M104220 74360
L104160 74880
" />
<path d="M104210 74430
L104260 74390
L104330 74360
L104440 74360
L104520 74390
L104550 74470
L104500 74880
" />
<path d="M104870 74880
L104930 74360
" />
<path d="M104960 74090
L104920 74130
L104950 74170
L105000 74130
L104960 74090
L104950 74170
" />
<path d="M105200 74360
L105500 74360
" />
<path d="M105340 74090
L105260 74770
L105290 74840
L105360 74880
L105440 74880
" />
</g>
<g style="fill:#000000; fill-opacity:0.0; 
stroke:#000000; stroke-width:100; stroke-opacity:1; 
stroke-linecap:round; stroke-linejoin:round;">
</g>
<g style="fill:#000000; fill-opacity:0.0; 
stroke:#000000; stroke-width:60; stroke-opacity:1; 
stroke-linecap:round; stroke-linejoin:round;">
<path d="M70420 73060
L70220 73060
" />
<path d="M70220 73370
L70220 72780
L70500 72780
" />
<path d="M70730 73370
L70730 72980
" />
<path d="M70730 72780
L70700 72810
L70730 72840
L70760 72810
L70730 72780
L70730 72840
" />
<path d="M71090 73370
L71040 73340
L71010 73290
L71010 72780
" />
<path d="M71550 73340
L71490 73370
L71380 73370
L71320 73340
L71290 73290
L71290 73060
L71320 73010
L71380 72980
L71490 72980
L71550 73010
L71570 73060
L71570 73120
L71290 73180
" />
<path d="M71830 73320
L71860 73340
L71830 73370
L71800 73340
L71830 73320
L71830 73370
" />
<path d="M71830 73010
L71860 73030
L71830 73060
L71800 73030
L71830 73010
L71830 73060
" />
<path d="M72810 73340
L72760 73370
L72640 73370
L72590 73340
L72560 73320
L72530 73260
L72530 73090
L72560 73030
L72590 73010
L72640 72980
L72760 72980
L72810 73010
" />
<path d="M72990 72980
L73210 72980
" />
<path d="M73070 72780
L73070 73290
L73100 73340
L73150 73370
L73210 73370
" />
<path d="M73330 72980
L73550 72980
" />
<path d="M73410 72780
L73410 73290
L73440 73340
L73490 73370
L73550 73370
" />
<path d="M73610 73430
L74060 73430
" />
<path d="M74170 73340
L74230 73370
L74340 73370
L74400 73340
L74430 73290
L74430 73260
L74400 73200
L74340 73180
L74260 73180
L74200 73150
L74170 73090
L74170 73060
L74200 73010
L74260 72980
L74340 72980
L74400 73010
" />
<path d="M74930 73340
L74880 73370
L74760 73370
L74710 73340
L74680 73320
L74650 73260
L74650 73090
L74680 73030
L74710 73010
L74760 72980
L74880 72980
L74930 73010
" />
<path d="M75190 73320
L75220 73340
L75190 73370
L75160 73340
L75190 73320
L75190 73370
" />
<path d="M75440 73340
L75500 73370
L75610 73370
L75670 73340
L75700 73290
L75700 73260
L75670 73200
L75610 73180
L75530 73180
L75470 73150
L75440 73090
L75440 73060
L75470 73010
L75530 72980
L75610 72980
L75670 73010
" />
<path d="M76200 73340
L76150 73370
L76030 73370
L75980 73340
L75950 73320
L75920 73260
L75920 73090
L75950 73030
L75980 73010
L76030 72980
L76150 72980
L76200 73010
" />
<path d="M76460 73370
L76460 72780
" />
<path d="M76710 73370
L76710 73060
L76690 73010
L76630 72980
L76540 72980
L76490 73010
L76460 73030
" />
</g>
<g style="fill:#000000; fill-opacity:0.0; 
stroke:#000000; stroke-width:100; stroke-opacity:1; 
stroke-linecap:round; stroke-linejoin:round;">
</g>
<g style="fill:#000000; fill-opacity:0.0; 
stroke:#000000; stroke-width:60; stroke-opacity:1; 
stroke-linecap:round; stroke-linejoin:round;">
<path d="M69690 71460
L112210 71460
" />
</g>
<g style="fill:#000000; fill-opacity:0.0; 
stroke:#000000; stroke-width:100; stroke-opacity:1; 
stroke-linecap:round; stroke-linejoin:round;">
</g>
<g style="fill:#000000; fill-opacity:0.0; 
stroke:#000000; stroke-width:60; stroke-opacity:1; 
stroke-linecap:round; stroke-linejoin:round;">
<path d="M70190 72280
L70280 72310
L70420 72310
L70470 72280
L70500 72260
L70530 72200
L70530 72140
L70500 72090
L70470 72060
L70420 72030
L70300 72000
L70250 71970
L70220 71950
L70190 71890
L70190 71830
L70220 71780
L70250 71750
L70300 71720
L70450 71720
L70530 71750
" />
<path d="M70780 72310
L70780 71720
" />
<path d="M71030 72310
L71030 72000
L71010 71950
L70950 71920
L70860 71920
L70810 71950
L70780 71970
" />
<path d="M71540 72280
L71480 72310
L71370 72310
L71310 72280
L71280 72230
L71280 72000
L71310 71950
L71370 71920
L71480 71920
L71540 71950
L71560 72000
L71560 72060
L71280 72120
" />
<path d="M72050 72280
L71990 72310
L71880 72310
L71820 72280
L71790 72230
L71790 72000
L71820 71950
L71880 71920
L71990 71920
L72050 71950
L72070 72000
L72070 72060
L71790 72120
" />
<path d="M72250 71920
L72470 71920
" />
<path d="M72330 71720
L72330 72230
L72360 72280
L72410 72310
L72470 72310
" />
<path d="M72670 72260
L72700 72280
L72670 72310
L72640 72280
L72670 72260
L72670 72310
" />
<path d="M72670 71950
L72700 71970
L72670 72000
L72640 71970
L72670 71950
L72670 72000
" />
<path d="M73820 71690
L73320 72450
" />
<path d="M74360 72260
L74330 72280
L74250 72310
L74190 72310
L74100 72280
L74050 72230
L74020 72170
L73990 72060
L73990 71970
L74020 71860
L74050 71810
L74100 71750
L74190 71720
L74250 71720
L74330 71750
L74360 71780
" />
<path d="M74530 71720
L74860 71720
" />
<path d="M74690 72310
L74690 71720
" />
<path d="M74980 71720
L75310 71720
" />
<path d="M75140 72310
L75140 71720
" />
<path d="M75930 71690
L75430 72450
" />
<path d="M76100 72280
L76190 72310
L76330 72310
L76380 72280
L76410 72260
L76440 72200
L76440 72140
L76410 72090
L76380 72060
L76330 72030
L76210 72000
L76160 71970
L76130 71950
L76100 71890
L76100 71830
L76130 71780
L76160 71750
L76210 71720
L76360 71720
L76440 71750
" />
<path d="M77030 72260
L77000 72280
L76920 72310
L76860 72310
L76770 72280
L76720 72230
L76690 72170
L76660 72060
L76660 71970
L76690 71860
L76720 71810
L76770 71750
L76860 71720
L76920 71720
L77000 71750
L77030 71780
" />
<path d="M77700 71690
L77200 72450
" />
</g>
<g style="fill:#000000; fill-opacity:0.0; 
stroke:#000000; stroke-width:100; stroke-opacity:1; 
stroke-linecap:round; stroke-linejoin:round;">
</g>
<g style="fill:#000000; fill-opacity:0.0; 
stroke:#000000; stroke-width:120; stroke-opacity:1; 
stroke-linecap:round; stroke-linejoin:round;">
<path d="M70220 71130
L70220 70540
L70450 70540
L70500 70570
L70530 70600
L70560 70650
L70560 70740
L70530 70790
L70500 70820
L70450 70850
L70220 70850
" />
<path d="M70890 71130
L70840 71100
L70810 71080
L70780 71020
L70780 70850
L70810 70790
L70840 70770
L70890 70740
L70980 70740
L71040 70770
L71060 70790
L71090 70850
L71090 71020
L71060 71080
L71040 71100
L70980 71130
L70890 71130
" />
<path d="M71280 70740
L71590 70740
L71280 71130
L71590 71130
" />
<path d="M71790 71100
L71850 71130
L71960 71130
L72020 71100
L72050 71050
L72050 71020
L72020 70960
L71960 70940
L71880 70940
L71820 70910
L71790 70850
L71790 70820
L71820 70770
L71880 70740
L71960 70740
L72020 70770
" />
<path d="M72550 71130
L72550 70820
L72530 70770
L72470 70740
L72360 70740
L72300 70770
" />
<path d="M72550 71100
L72500 71130
L72360 71130
L72300 71100
L72270 71050
L72270 70990
L72300 70940
L72360 70910
L72500 70910
L72550 70880
" />
<path d="M72830 71130
L72830 70740
" />
<path d="M72830 70850
L72860 70790
L72890 70770
L72940 70740
L73000 70740
" />
<path d="M73590 70540
L73990 70540
L73590 71130
L73990 71130
" />
<path d="M74180 71100
L74240 71130
L74350 71130
L74410 71100
L74440 71050
L74440 71020
L74410 70960
L74350 70940
L74270 70940
L74210 70910
L74180 70850
L74180 70820
L74210 70770
L74270 70740
L74350 70740
L74410 70770
" />
<path d="M74770 71130
L74720 71100
L74690 71080
L74660 71020
L74660 70850
L74690 70790
L74720 70770
L74770 70740
L74860 70740
L74920 70770
L74940 70790
L74970 70850
L74970 71020
L74940 71080
L74920 71100
L74860 71130
L74770 71130
" />
<path d="M75300 71130
L75250 71100
L75220 71050
L75220 70540
" />
<path d="M75450 70740
L75670 70740
" />
<path d="M75530 70540
L75530 71050
L75560 71100
L75610 71130
L75670 71130
" />
</g>
<g style="fill:#000000; fill-opacity:0.0; 
stroke:#000000; stroke-width:100; stroke-opacity:1; 
stroke-linecap:round; stroke-linejoin:round;">
</g>
<g style="fill:#000000; fill-opacity:0.0; 
stroke:#000000; stroke-width:60; stroke-opacity:1; 
stroke-linecap:round; stroke-linejoin:round;">
<path d="M70220 69950
L70220 69360
L70360 69360
L70450 69390
L70500 69450
L70530 69500
L70560 69610
L70560 69700
L70530 69810
L70500 69870
L70450 69920
L70360 69950
L70220 69950
" />
<path d="M70810 69950
L70810 69560
" />
<path d="M70810 69670
L70840 69610
L70870 69590
L70920 69560
L70980 69560
" />
<path d="M71430 69950
L71430 69640
L71410 69590
L71350 69560
L71240 69560
L71180 69590
" />
<path d="M71430 69920
L71380 69950
L71240 69950
L71180 69920
L71150 69870
L71150 69810
L71180 69760
L71240 69730
L71380 69730
L71430 69700
" />
<path d="M71650 69560
L71770 69950
L71880 69670
L71990 69950
L72100 69560
" />
<path d="M72780 69560
L72780 69950
" />
<path d="M72780 69610
L72810 69590
L72860 69560
L72950 69560
L73010 69590
L73030 69640
L73030 69950
" />
<path d="M73560 69560
L73560 69950
" />
<path d="M73310 69560
L73310 69870
L73340 69920
L73390 69950
L73480 69950
L73540 69920
L73560 69900
" />
<path d="M73840 69950
L73840 69560
" />
<path d="M73840 69610
L73870 69590
L73920 69560
L74010 69560
L74070 69590
L74090 69640
L74090 69950
" />
<path d="M74090 69640
L74120 69590
L74180 69560
L74260 69560
L74320 69590
L74350 69640
L74350 69950
" />
<path d="M74630 69950
L74630 69360
" />
<path d="M74630 69590
L74690 69560
L74800 69560
L74860 69590
L74880 69610
L74910 69670
L74910 69840
L74880 69900
L74860 69920
L74800 69950
L74690 69950
L74630 69920
" />
<path d="M75390 69920
L75330 69950
L75220 69950
L75160 69920
L75130 69870
L75130 69640
L75160 69590
L75220 69560
L75330 69560
L75390 69590
L75410 69640
L75410 69700
L75130 69760
" />
<path d="M75670 69950
L75670 69560
" />
<path d="M75670 69670
L75700 69610
L75730 69590
L75780 69560
L75840 69560
" />
<path d="M76040 69900
L76070 69920
L76040 69950
L76010 69920
L76040 69900
L76040 69950
" />
<path d="M76040 69590
L76070 69610
L76040 69640
L76010 69610
L76040 69590
L76040 69640
" />
<path d="M77110 69900
L77080 69920
L77000 69950
L76940 69950
L76850 69920
L76800 69870
L76770 69810
L76740 69700
L76740 69610
L76770 69500
L76800 69450
L76850 69390
L76940 69360
L77000 69360
L77080 69390
L77110 69420
" />
<path d="M77280 69360
L77610 69360
" />
<path d="M77440 69950
L77440 69360
" />
<path d="M77730 69360
L78060 69360
" />
<path d="M77890 69950
L77890 69360
" />
<path d="M78680 69330
L78180 70090
" />
<path d="M79130 69560
L79130 69950
" />
<path d="M78990 69330
L78850 69760
L79220 69760
" />
<path d="M79550 69360
L79610 69360
L79670 69390
L79690 69420
L79720 69470
L79750 69590
L79750 69730
L79720 69840
L79690 69900
L79670 69920
L79610 69950
L79550 69950
L79500 69920
L79470 69900
L79440 69840
L79410 69730
L79410 69590
L79440 69470
L79470 69420
L79500 69390
L79550 69360
" />
</g>
<g style="fill:#000000; fill-opacity:0.0; 
stroke:#000000; stroke-width:100; stroke-opacity:1; 
stroke-linecap:round; stroke-linejoin:round;">
</g>
<g style="fill:#000000; fill-opacity:0.0; 
stroke:#000000; stroke-width:60; stroke-opacity:1; 
stroke-linecap:round; stroke-linejoin:round;">
<path d="M77560 75400
L77560 76580
" />
</g>
<g style="fill:#000000; fill-opacity:0.0; 
stroke:#000000; stroke-width:100; stroke-opacity:1; 
stroke-linecap:round; stroke-linejoin:round;">
</g>
<g style="fill:#000000; fill-opacity:0.0; 
stroke:#000000; stroke-width:60; stroke-opacity:1; 
stroke-linecap:round; stroke-linejoin:round;">
<path d="M102760 75400
L102760 77960
" />
<path d="M63000 47500
L63000 44000
" />
<path d="M53000 45500
L53000 42500
" />
<path d="M53000 45500
L68000 45500
" />
<path d="M68000 45500
L68000 42500
" />
<path d="M68000 42500
L67000 42500
" />
</g>
<g style="fill:#000000; fill-opacity:0.0; 
stroke:#000000; stroke-width:0; stroke-opacity:1; 
stroke-linecap:round; stroke-linejoin:round;">
</g>
<g style="fill:#000000; fill-opacity:1.0; 
stroke:#000000; stroke-width:100; stroke-opacity:1; 
stroke-linecap:round; stroke-linejoin:round;">
<circle cx="63000" cy="30500" r="200" /> 
</g>
<g style="fill:#000000; fill-opacity:1.0; 
stroke:#000000; stroke-width:60; stroke-opacity:1; 
stroke-linecap:round; stroke-linejoin:round;">
</g>
<g style="fill:#000000; fill-opacity:0.0; 
stroke:#000000; stroke-width:60; stroke-opacity:1; 
stroke-linecap:round; stroke-linejoin:round;">
<path d="M64000 30500
L51000 30500
" />
</g>
<g style="fill:#000000; fill-opacity:0.0; 
stroke:#000000; stroke-width:0; stroke-opacity:1; 
stroke-linecap:round; stroke-linejoin:round;">
</g>
<g style="fill:#000000; fill-opacity:1.0; 
stroke:#000000; stroke-width:100; stroke-opacity:1; 
stroke-linecap:round; stroke-linejoin:round;">
<circle cx="68500" cy="40500" r="200" /> 
</g>
<g style="fill:#000000; fill-opacity:1.0; 
stroke:#000000; stroke-width:60; stroke-opacity:1; 
stroke-linecap:round; stroke-linejoin:round;">
</g>
<g style="fill:#000000; fill-opacity:0.0; 
stroke:#000000; stroke-width:60; stroke-opacity:1; 
stroke-linecap:round; stroke-linejoin:round;">
<path d="M67000 40500
L68500 40500
" />
</g>
<g style="fill:#000000; fill-opacity:0.0; 
stroke:#000000; stroke-width:0; stroke-opacity:1; 
stroke-linecap:round; stroke-linejoin:round;">
</g>
<g style="fill:#000000; fill-opacity:1.0; 
stroke:#000000; stroke-width:100; stroke-opacity:1; 
stroke-linecap:round; stroke-linejoin:round;">
<circle cx="68500" cy="38500" r="200" /> 
</g>
<g style="fill:#000000; fill-opacity:1.0; 
stroke:#000000; stroke-width:60; stroke-opacity:1; 
stroke-linecap:round; stroke-linejoin:round;">
</g>
<g style="fill:#000000; fill-opacity:0.0; 
stroke:#000000; stroke-width:60; stroke-opacity:1; 
stroke-linecap:round; stroke-linejoin:round;">
<path d="M68500 38500
L67000 38500
" />
<path d="M70500 36500
L67000 36500
" />
<path d="M70500 34500
L67000 34500
" />
<path d="M53000 33500
L51000 33500
" />
<path d="M53000 35500
L51000 35500
" />
<path d="M53000 36500
L51000 36500
" />
<path d="M53000 34500
L51000 34500
" />
<path d="M53000 42500
L51000 42500
" />
<path d="M67000 33500
L70500 33500
" />
<path d="M67000 35500
L70500 35500
" />
<path d="M68500 46500
L68500 30500
" />
<path d="M68500 46500
L51000 46500
" />
<path d="M68500 37500
L67000 37500
" />
</g>
<g style="fill:#000000; fill-opacity:0.0; 
stroke:#000000; stroke-width:0; stroke-opacity:1; 
stroke-linecap:round; stroke-linejoin:round;">
</g>
<g style="fill:#000000; fill-opacity:1.0; 
stroke:#000000; stroke-width:100; stroke-opacity:1; 
stroke-linecap:round; stroke-linejoin:round;">
<circle cx="68500" cy="37500" r="200" /> 
</g>
<g style="fill:#000000; fill-opacity:1.0; 
stroke:#000000; stroke-width:60; stroke-opacity:1; 
stroke-linecap:round; stroke-linejoin:round;">
</g>
<g style="fill:#000000; fill-opacity:0.0; 
stroke:#000000; stroke-width:60; stroke-opacity:1; 
stroke-linecap:round; stroke-linejoin:round;">
<path d="M68500 39500
L67000 39500
" />
</g>
<g style="fill:#000000; fill-opacity:0.0; 
stroke:#000000; stroke-width:0; stroke-opacity:1; 
stroke-linecap:round; stroke-linejoin:round;">
</g>
<g style="fill:#000000; fill-opacity:1.0; 
stroke:#000000; stroke-width:100; stroke-opacity:1; 
stroke-linecap:round; stroke-linejoin:round;">
<circle cx="68500" cy="39500" r="200" /> 
</g>
<g style="fill:#000000; fill-opacity:1.0; 
stroke:#000000; stroke-width:60; stroke-opacity:1; 
stroke-linecap:round; stroke-linejoin:round;">
</g>
<g style="fill:#000000; fill-opacity:0.0; 
stroke:#000000; stroke-width:60; stroke-opacity:1; 
stroke-linecap:round; stroke-linejoin:round;">
<path d="M63000 30500
L63000 33000
" />
</g>
<g style="fill:#000000; fill-opacity:0.0; 
stroke:#000000; stroke-width:0; stroke-opacity:1; 
stroke-linecap:round; stroke-linejoin:round;">
</g>
<g style="fill:#000000; fill-opacity:1.0; 
stroke:#000000; stroke-width:100; stroke-opacity:1; 
stroke-linecap:round; stroke-linejoin:round;">
<circle cx="63000" cy="46500" r="200" /> 
</g>
<g style="fill:#000000; fill-opacity:1.0; 
stroke:#000000; stroke-width:60; stroke-opacity:1; 
stroke-linecap:round; stroke-linejoin:round;">
</g>
<g style="fill:#000000; fill-opacity:0.0; 
stroke:#000000; stroke-width:60; stroke-opacity:1; 
stroke-linecap:round; stroke-linejoin:round;">
<path d="M68500 30500
L68000 30500
" />
</g>
<g style="fill:#000000; fill-opacity:0.0; 
stroke:#000000; stroke-width:0; stroke-opacity:1; 
stroke-linecap:round; stroke-linejoin:round;">
</g>
<g style="fill:#000000; fill-opacity:0.0; 
stroke:#000000; stroke-width:60; stroke-opacity:1; 
stroke-linecap:round; stroke-linejoin:round;">
<polyline fill="none;"
points="62500,47500
63000,48000
63500,47500
62500,47500
" /> 
<path d="M69590 35870
L69960 35870
L69760 36100
L69840 36100
L69900 36130
L69930 36160
L69960 36210
L69960 36360
L69930 36410
L69900 36440
L69840 36470
L69670 36470
L69610 36440
L69590 36410
" />
<path d="M69900 35070
L69900 35470
" />
<path d="M69760 34840
L69610 35270
L69990 35270
" />
<path d="M69610 33930
L69640 33900
L69700 33870
L69840 33870
L69900 33900
L69930 33930
L69960 33990
L69960 34040
L69930 34130
L69590 34470
L69960 34470
" />
<path d="M69960 33470
L69610 33470
" />
<path d="M69790 33470
L69790 32870
L69730 32960
L69670 33010
L69610 33040
" />
<path d="M51930 35870
L51640 35870
L51610 36160
L51640 36130
L51700 36100
L51840 36100
L51900 36130
L51930 36160
L51960 36210
L51960 36360
L51930 36410
L51900 36440
L51840 36470
L51700 36470
L51640 36440
L51610 36410
" />
<path d="M51900 35070
L51900 35470
" />
<path d="M51760 34840
L51610 35270
L51990 35270
" />
<path d="M51590 33870
L51960 33870
L51760 34100
L51840 34100
L51900 34130
L51930 34160
L51960 34210
L51960 34360
L51930 34410
L51900 34440
L51840 34470
L51670 34470
L51610 34440
L51590 34410
" />
<path d="M51610 32930
L51640 32900
L51700 32870
L51840 32870
L51900 32900
L51930 32930
L51960 32990
L51960 33040
L51930 33130
L51590 33470
L51960 33470
" />
<path d="M51960 42470
L51610 42470
" />
<path d="M51790 42470
L51790 41870
L51730 41960
L51670 42010
L51610 42040
" />
<path d="M51960 30470
L51610 30470
" />
<path d="M51790 30470
L51790 29870
L51730 29960
L51670 30010
L51610 30040
" />
<path d="M51610 45930
L51640 45900
L51700 45870
L51840 45870
L51900 45900
L51930 45930
L51960 45990
L51960 46040
L51930 46130
L51590 46470
L51960 46470
" />
<path d="M45990 46910
L45960 46940
L45870 46970
L45810 46970
L45730 46940
L45670 46890
L45640 46830
L45610 46710
L45610 46630
L45640 46510
L45670 46460
L45730 46400
L45810 46370
L45870 46370
L45960 46400
L45990 46430
" />
<path d="M46240 46970
L46240 46370
L46590 46970
L46590 46370
" />
<path d="M46840 46430
L46870 46400
L46930 46370
L47070 46370
L47130 46400
L47160 46430
L47190 46490
L47190 46540
L47160 46630
L46820 46970
L47190 46970
" />
<path d="M45990 39410
L45960 39440
L45870 39470
L45810 39470
L45730 39440
L45670 39390
L45640 39330
L45610 39210
L45610 39130
L45640 39010
L45670 38960
L45730 38900
L45810 38870
L45870 38870
L45960 38900
L45990 38930
" />
<path d="M46240 39470
L46240 38870
L46590 39470
L46590 38870
" />
<path d="M47190 39470
L46840 39470
" />
<path d="M47020 39470
L47020 38870
L46960 38960
L46900 39010
L46840 39040
" />
<path d="M45990 30910
L45960 30940
L45870 30970
L45810 30970
L45730 30940
L45670 30890
L45640 30830
L45610 30710
L45610 30630
L45640 30510
L45670 30460
L45730 30400
L45810 30370
L45870 30370
L45960 30400
L45990 30430
" />
<path d="M46240 30970
L46240 30370
L46590 30970
L46590 30370
" />
<path d="M46840 30430
L46870 30400
L46930 30370
L47070 30370
L47130 30400
L47160 30430
L47190 30490
L47190 30540
L47160 30630
L46820 30970
L47190 30970
" />
<path d="M74490 35410
L74460 35440
L74370 35470
L74310 35470
L74230 35440
L74170 35390
L74140 35330
L74110 35210
L74110 35130
L74140 35010
L74170 34960
L74230 34900
L74310 34870
L74370 34870
L74460 34900
L74490 34930
" />
<path d="M74740 35470
L74740 34870
L75090 35470
L75090 34870
" />
<path d="M75320 34870
L75690 34870
L75490 35100
L75570 35100
L75630 35130
L75660 35160
L75690 35210
L75690 35360
L75660 35410
L75630 35440
L75570 35470
L75400 35470
L75340 35440
L75320 35410
" />
<path d="M48870 46200
L48810 46170
L48720 46170
L48640 46200
L48580 46260
L48550 46310
L48520 46430
L48520 46510
L48550 46630
L48580 46690
L48640 46740
L48720 46770
L48780 46770
L48870 46740
L48900 46710
L48900 46510
L48780 46510
" />
<path d="M49150 46770
L49150 46170
L49500 46770
L49500 46170
" />
<path d="M49780 46770
L49780 46170
L49930 46170
L50010 46200
L50070 46260
L50100 46310
L50130 46430
L50130 46510
L50100 46630
L50070 46690
L50010 46740
L49930 46770
L49780 46770
" />
</g>
<g style="fill:#000000; fill-opacity:0.0; 
stroke:#000000; stroke-width:100; stroke-opacity:1; 
stroke-linecap:round; stroke-linejoin:round;">
<polyline fill="none;"
points="51000,46200
50400,46200
50400,46800
51000,46800
51000,46200
" /> 
</g>
<g style="fill:#000000; fill-opacity:0.0; 
stroke:#000000; stroke-width:60; stroke-opacity:1; 
stroke-linecap:round; stroke-linejoin:round;">
<path d="M48560 30540
L49020 30540
" />
<path d="M48790 30770
L48790 30310
" />
<path d="M49590 30170
L49300 30170
L49270 30460
L49300 30430
L49360 30400
L49500 30400
L49560 30430
L49590 30460
L49620 30510
L49620 30660
L49590 30710
L49560 30740
L49500 30770
L49360 30770
L49300 30740
L49270 30710
" />
<path d="M49790 30170
L49990 30770
L50190 30170
" />
</g>
<g style="fill:#000000; fill-opacity:0.0; 
stroke:#000000; stroke-width:100; stroke-opacity:1; 
stroke-linecap:round; stroke-linejoin:round;">
<polyline fill="none;"
points="51000,30500
50700,30200
50400,30200
50400,30800
50700,30800
51000,30500
" /> 
</g>
<g style="fill:#000000; fill-opacity:0.0; 
stroke:#000000; stroke-width:60; stroke-opacity:1; 
stroke-linecap:round; stroke-linejoin:round;">
<path d="M71370 36740
L71460 36770
L71600 36770
L71660 36740
L71690 36710
L71720 36660
L71720 36600
L71690 36540
L71660 36510
L71600 36490
L71490 36460
L71430 36430
L71400 36400
L71370 36340
L71370 36290
L71400 36230
L71430 36200
L71490 36170
L71630 36170
L71720 36200
" />
<path d="M71890 36170
L72230 36170
" />
<path d="M72060 36770
L72060 36170
" />
<path d="M72380 36170
L72750 36170
L72550 36400
L72630 36400
L72690 36430
L72720 36460
L72750 36510
L72750 36660
L72720 36710
L72690 36740
L72630 36770
L72460 36770
L72400 36740
L72380 36710
" />
</g>
<g style="fill:#000000; fill-opacity:0.0; 
stroke:#000000; stroke-width:100; stroke-opacity:1; 
stroke-linecap:round; stroke-linejoin:round;">
<polyline fill="none;"
points="70500,36500
70800,36800
71100,36800
71100,36200
70800,36200
70500,36500
" /> 
</g>
<g style="fill:#000000; fill-opacity:0.0; 
stroke:#000000; stroke-width:60; stroke-opacity:1; 
stroke-linecap:round; stroke-linejoin:round;">
<path d="M71370 35740
L71460 35770
L71600 35770
L71660 35740
L71690 35710
L71720 35660
L71720 35600
L71690 35540
L71660 35510
L71600 35490
L71490 35460
L71430 35430
L71400 35400
L71370 35340
L71370 35290
L71400 35230
L71430 35200
L71490 35170
L71630 35170
L71720 35200
" />
<path d="M71890 35170
L72230 35170
" />
<path d="M72060 35770
L72060 35170
" />
<path d="M72400 35230
L72430 35200
L72490 35170
L72630 35170
L72690 35200
L72720 35230
L72750 35290
L72750 35340
L72720 35430
L72380 35770
L72750 35770
" />
</g>
<g style="fill:#000000; fill-opacity:0.0; 
stroke:#000000; stroke-width:100; stroke-opacity:1; 
stroke-linecap:round; stroke-linejoin:round;">
<polyline fill="none;"
points="70500,35500
70800,35800
71100,35800
71100,35200
70800,35200
70500,35500
" /> 
</g>
<g style="fill:#000000; fill-opacity:0.0; 
stroke:#000000; stroke-width:60; stroke-opacity:1; 
stroke-linecap:round; stroke-linejoin:round;">
<path d="M71370 34740
L71460 34770
L71600 34770
L71660 34740
L71690 34710
L71720 34660
L71720 34600
L71690 34540
L71660 34510
L71600 34490
L71490 34460
L71430 34430
L71400 34400
L71370 34340
L71370 34290
L71400 34230
L71430 34200
L71490 34170
L71630 34170
L71720 34200
" />
<path d="M71890 34170
L72230 34170
" />
<path d="M72060 34770
L72060 34170
" />
<path d="M72750 34770
L72400 34770
" />
<path d="M72580 34770
L72580 34170
L72520 34260
L72460 34310
L72400 34340
" />
</g>
<g style="fill:#000000; fill-opacity:0.0; 
stroke:#000000; stroke-width:100; stroke-opacity:1; 
stroke-linecap:round; stroke-linejoin:round;">
<polyline fill="none;"
points="70500,34500
70800,34800
71100,34800
71100,34200
70800,34200
70500,34500
" /> 
</g>
<g style="fill:#000000; fill-opacity:0.0; 
stroke:#000000; stroke-width:60; stroke-opacity:1; 
stroke-linecap:round; stroke-linejoin:round;">
<path d="M71370 33740
L71460 33770
L71600 33770
L71660 33740
L71690 33710
L71720 33660
L71720 33600
L71690 33540
L71660 33510
L71600 33490
L71490 33460
L71430 33430
L71400 33400
L71370 33340
L71370 33290
L71400 33230
L71430 33200
L71490 33170
L71630 33170
L71720 33200
" />
<path d="M71890 33170
L72230 33170
" />
<path d="M72060 33770
L72060 33170
" />
<path d="M72550 33170
L72600 33170
L72660 33200
L72690 33230
L72720 33290
L72750 33400
L72750 33540
L72720 33660
L72690 33710
L72660 33740
L72600 33770
L72550 33770
L72490 33740
L72460 33710
L72430 33660
L72400 33540
L72400 33400
L72430 33290
L72460 33230
L72490 33200
L72550 33170
" />
</g>
<g style="fill:#000000; fill-opacity:0.0; 
stroke:#000000; stroke-width:100; stroke-opacity:1; 
stroke-linecap:round; stroke-linejoin:round;">
<polyline fill="none;"
points="70500,33500
70800,33800
71100,33800
71100,33200
70800,33200
70500,33500
" /> 
</g>
<g style="fill:#000000; fill-opacity:0.0; 
stroke:#000000; stroke-width:60; stroke-opacity:1; 
stroke-linecap:round; stroke-linejoin:round;">
<path d="M48010 42540
L48470 42540
" />
<path d="M48720 42740
L48810 42770
L48950 42770
L49010 42740
L49040 42710
L49070 42660
L49070 42600
L49040 42540
L49010 42510
L48950 42490
L48840 42460
L48780 42430
L48750 42400
L48720 42340
L48720 42290
L48750 42230
L48780 42200
L48840 42170
L48980 42170
L49070 42200
" />
<path d="M49610 42770
L49320 42770
L49320 42170
" />
<path d="M50130 42770
L49780 42770
" />
<path d="M49960 42770
L49960 42170
L49900 42260
L49840 42310
L49780 42340
" />
</g>
<g style="fill:#000000; fill-opacity:0.0; 
stroke:#000000; stroke-width:100; stroke-opacity:1; 
stroke-linecap:round; stroke-linejoin:round;">
<polyline fill="none;"
points="51000,42500
50700,42200
50400,42200
50400,42800
50700,42800
51000,42500
" /> 
</g>
<g style="fill:#000000; fill-opacity:0.0; 
stroke:#000000; stroke-width:60; stroke-opacity:1; 
stroke-linecap:round; stroke-linejoin:round;">
<path d="M48920 36770
L48920 36170
L49070 36170
L49150 36200
L49210 36260
L49240 36310
L49270 36430
L49270 36510
L49240 36630
L49210 36690
L49150 36740
L49070 36770
L48920 36770
" />
<path d="M49520 36770
L49520 36170
" />
<path d="M49760 36170
L50130 36170
L49930 36400
L50010 36400
L50070 36430
L50100 36460
L50130 36510
L50130 36660
L50100 36710
L50070 36740
L50010 36770
L49840 36770
L49780 36740
L49760 36710
" />
</g>
<g style="fill:#000000; fill-opacity:0.0; 
stroke:#000000; stroke-width:100; stroke-opacity:1; 
stroke-linecap:round; stroke-linejoin:round;">
<polyline fill="none;"
points="51000,36500
50700,36200
50400,36200
50400,36800
50700,36800
51000,36500
" /> 
</g>
<g style="fill:#000000; fill-opacity:0.0; 
stroke:#000000; stroke-width:60; stroke-opacity:1; 
stroke-linecap:round; stroke-linejoin:round;">
<path d="M48920 35770
L48920 35170
L49070 35170
L49150 35200
L49210 35260
L49240 35310
L49270 35430
L49270 35510
L49240 35630
L49210 35690
L49150 35740
L49070 35770
L48920 35770
" />
<path d="M49520 35770
L49520 35170
" />
<path d="M49780 35230
L49810 35200
L49870 35170
L50010 35170
L50070 35200
L50100 35230
L50130 35290
L50130 35340
L50100 35430
L49760 35770
L50130 35770
" />
</g>
<g style="fill:#000000; fill-opacity:0.0; 
stroke:#000000; stroke-width:100; stroke-opacity:1; 
stroke-linecap:round; stroke-linejoin:round;">
<polyline fill="none;"
points="51000,35500
50700,35200
50400,35200
50400,35800
50700,35800
51000,35500
" /> 
</g>
<g style="fill:#000000; fill-opacity:0.0; 
stroke:#000000; stroke-width:60; stroke-opacity:1; 
stroke-linecap:round; stroke-linejoin:round;">
<path d="M48920 34770
L48920 34170
L49070 34170
L49150 34200
L49210 34260
L49240 34310
L49270 34430
L49270 34510
L49240 34630
L49210 34690
L49150 34740
L49070 34770
L48920 34770
" />
<path d="M49520 34770
L49520 34170
" />
<path d="M50130 34770
L49780 34770
" />
<path d="M49960 34770
L49960 34170
L49900 34260
L49840 34310
L49780 34340
" />
</g>
<g style="fill:#000000; fill-opacity:0.0; 
stroke:#000000; stroke-width:100; stroke-opacity:1; 
stroke-linecap:round; stroke-linejoin:round;">
<polyline fill="none;"
points="51000,34500
50700,34200
50400,34200
50400,34800
50700,34800
51000,34500
" /> 
</g>
<g style="fill:#000000; fill-opacity:0.0; 
stroke:#000000; stroke-width:60; stroke-opacity:1; 
stroke-linecap:round; stroke-linejoin:round;">
<path d="M48920 33770
L48920 33170
L49070 33170
L49150 33200
L49210 33260
L49240 33310
L49270 33430
L49270 33510
L49240 33630
L49210 33690
L49150 33740
L49070 33770
L48920 33770
" />
<path d="M49520 33770
L49520 33170
" />
<path d="M49930 33170
L49980 33170
L50040 33200
L50070 33230
L50100 33290
L50130 33400
L50130 33540
L50100 33660
L50070 33710
L50040 33740
L49980 33770
L49930 33770
L49870 33740
L49840 33710
L49810 33660
L49780 33540
L49780 33400
L49810 33290
L49840 33230
L49870 33200
L49930 33170
" />
</g>
<g style="fill:#000000; fill-opacity:0.0; 
stroke:#000000; stroke-width:100; stroke-opacity:1; 
stroke-linecap:round; stroke-linejoin:round;">
<polyline fill="none;"
points="51000,33500
50700,33200
50400,33200
50400,33800
50700,33800
51000,33500
" /> 
</g>
<g style="fill:#000000; fill-opacity:0.0; 
stroke:#000000; stroke-width:0; stroke-opacity:1; 
stroke-linecap:round; stroke-linejoin:round;">
</g>
<g style="fill:#000000; fill-opacity:0.0; 
stroke:#000000; stroke-width:60; stroke-opacity:1; 
stroke-linecap:round; stroke-linejoin:round;">
<rect x="56000" y="33000" width="8000" height="11000" rx="0" />
<polyline fill="none;"
points="59500,37500
60000,39500
61000,39500
" /> 
<polyline fill="none;"
points="59000,37500
60500,37500
61000,39500
61500,39500
" /> 
<circle cx="64250" cy="42500" r="250" /> 
<path d="M64500 42500
L67000 42500
" />
<path d="M62690 42230
L62790 42230
L62840 42250
L62880 42300
L62910 42390
L62910 42560
L62880 42650
L62840 42700
L62790 42730
L62690 42730
L62650 42700
L62600 42650
L62580 42560
L62580 42390
L62600 42300
L62650 42250
L62690 42230
" />
<path d="M63120 42460
L63290 42460
" />
<path d="M63360 42730
L63120 42730
L63120 42230
L63360 42230
" />
<path d="M63780 42730
L63780 42460
L63760 42420
L63710 42390
L63620 42390
L63570 42420
" />
<path d="M63780 42700
L63740 42730
L63620 42730
L63570 42700
L63550 42650
L63550 42610
L63570 42560
L63620 42540
L63740 42540
L63780 42510
" />
<path d="M65640 42380
L65360 42380
" />
<path d="M65500 42380
L65500 41880
L65450 41950
L65400 42000
L65360 42020
" />
<path d="M64000 33500
L67000 33500
" />
<path d="M62850 33730
L62850 33230
" />
<path d="M63180 33230
L63230 33230
L63280 33250
L63300 33270
L63330 33320
L63350 33420
L63350 33540
L63330 33630
L63300 33680
L63280 33700
L63230 33730
L63180 33730
L63140 33700
L63110 33680
L63090 33630
L63070 33540
L63070 33420
L63090 33320
L63110 33270
L63140 33250
L63180 33230
" />
<path d="M63780 33730
L63780 33460
L63760 33420
L63710 33390
L63620 33390
L63570 33420
" />
<path d="M63780 33700
L63740 33730
L63620 33730
L63570 33700
L63550 33650
L63550 33610
L63570 33560
L63620 33540
L63740 33540
L63780 33510
" />
<path d="M65360 32920
L65380 32900
L65430 32880
L65550 32880
L65590 32900
L65620 32920
L65640 32970
L65640 33020
L65620 33090
L65330 33380
L65640 33380
" />
<path d="M56000 40500
L53000 40500
" />
<path d="M56310 40230
L56410 40230
L56460 40250
L56500 40300
L56530 40390
L56530 40560
L56500 40650
L56460 40700
L56410 40730
L56310 40730
L56270 40700
L56220 40650
L56200 40560
L56200 40390
L56220 40300
L56270 40250
L56310 40230
" />
<path d="M56690 40230
L57000 40230
L56830 40420
L56910 40420
L56950 40440
L56980 40460
L57000 40510
L57000 40630
L56980 40680
L56950 40700
L56910 40730
L56760 40730
L56720 40700
L56690 40680
" />
<path d="M57220 40730
L57220 40230
" />
<path d="M57220 40420
L57270 40390
L57360 40390
L57410 40420
L57430 40440
L57460 40490
L57460 40630
L57430 40680
L57410 40700
L57360 40730
L57270 40730
L57220 40700
" />
<path d="M54330 39880
L54640 39880
L54470 40070
L54550 40070
L54590 40090
L54620 40110
L54640 40160
L54640 40280
L54620 40330
L54590 40350
L54550 40380
L54400 40380
L54360 40350
L54330 40330
" />
<path d="M64000 34500
L67000 34500
" />
<path d="M62850 34730
L62850 34230
" />
<path d="M63350 34730
L63070 34730
" />
<path d="M63210 34730
L63210 34230
L63160 34300
L63110 34350
L63070 34370
" />
<path d="M63780 34730
L63780 34460
L63760 34420
L63710 34390
L63620 34390
L63570 34420
" />
<path d="M63780 34700
L63740 34730
L63620 34730
L63570 34700
L63550 34650
L63550 34610
L63570 34560
L63620 34540
L63740 34540
L63780 34510
" />
<path d="M65590 34040
L65590 34380
" />
<path d="M65470 33850
L65360 34210
L65660 34210
" />
<path d="M56000 39500
L53000 39500
" />
<path d="M56310 39230
L56410 39230
L56460 39250
L56500 39300
L56530 39390
L56530 39560
L56500 39650
L56460 39700
L56410 39730
L56310 39730
L56270 39700
L56220 39650
L56200 39560
L56200 39390
L56220 39300
L56270 39250
L56310 39230
" />
<path d="M56720 39270
L56740 39250
L56790 39230
L56910 39230
L56950 39250
L56980 39270
L57000 39320
L57000 39370
L56980 39440
L56690 39730
L57000 39730
" />
<path d="M57220 39730
L57220 39230
" />
<path d="M57220 39420
L57270 39390
L57360 39390
L57410 39420
L57430 39440
L57460 39490
L57460 39630
L57430 39680
L57410 39700
L57360 39730
L57270 39730
L57220 39700
" />
<path d="M54620 38880
L54380 38880
L54360 39110
L54380 39090
L54430 39070
L54550 39070
L54590 39090
L54620 39110
L54640 39160
L54640 39280
L54620 39330
L54590 39350
L54550 39380
L54430 39380
L54380 39350
L54360 39330
" />
<path d="M64000 35500
L67000 35500
" />
<path d="M62850 35730
L62850 35230
" />
<path d="M63070 35270
L63090 35250
L63140 35230
L63260 35230
L63300 35250
L63330 35270
L63350 35320
L63350 35370
L63330 35440
L63040 35730
L63350 35730
" />
<path d="M63780 35730
L63780 35460
L63760 35420
L63710 35390
L63620 35390
L63570 35420
" />
<path d="M63780 35700
L63740 35730
L63620 35730
L63570 35700
L63550 35650
L63550 35610
L63570 35560
L63620 35540
L63740 35540
L63780 35510
" />
<path d="M65590 34880
L65500 34880
L65450 34900
L65430 34920
L65380 35000
L65360 35090
L65360 35280
L65380 35330
L65400 35350
L65450 35380
L65550 35380
L65590 35350
L65620 35330
L65640 35280
L65640 35160
L65620 35110
L65590 35090
L65550 35070
L65450 35070
L65400 35090
L65380 35110
L65360 35160
" />
<path d="M56000 38500
L53000 38500
" />
<path d="M56310 38230
L56410 38230
L56460 38250
L56500 38300
L56530 38390
L56530 38560
L56500 38650
L56460 38700
L56410 38730
L56310 38730
L56270 38700
L56220 38650
L56200 38560
L56200 38390
L56220 38300
L56270 38250
L56310 38230
" />
<path d="M57000 38730
L56720 38730
" />
<path d="M56860 38730
L56860 38230
L56810 38300
L56760 38350
L56720 38370
" />
<path d="M57220 38730
L57220 38230
" />
<path d="M57220 38420
L57270 38390
L57360 38390
L57410 38420
L57430 38440
L57460 38490
L57460 38630
L57430 38680
L57410 38700
L57360 38730
L57270 38730
L57220 38700
" />
<path d="M54330 37880
L54660 37880
L54450 38380
" />
<path d="M64000 36500
L67000 36500
" />
<path d="M62850 36730
L62850 36230
" />
<path d="M63040 36230
L63350 36230
L63180 36420
L63260 36420
L63300 36440
L63330 36460
L63350 36510
L63350 36630
L63330 36680
L63300 36700
L63260 36730
L63110 36730
L63070 36700
L63040 36680
" />
<path d="M63780 36730
L63780 36460
L63760 36420
L63710 36390
L63620 36390
L63570 36420
" />
<path d="M63780 36700
L63740 36730
L63620 36730
L63570 36700
L63550 36650
L63550 36610
L63570 36560
L63620 36540
L63740 36540
L63780 36510
" />
<path d="M65450 36090
L65400 36070
L65380 36040
L65360 36000
L65360 35970
L65380 35920
L65400 35900
L65450 35880
L65550 35880
L65590 35900
L65620 35920
L65640 35970
L65640 36000
L65620 36040
L65590 36070
L65550 36090
L65450 36090
L65400 36110
L65380 36140
L65360 36190
L65360 36280
L65380 36330
L65400 36350
L65450 36380
L65550 36380
L65590 36350
L65620 36330
L65640 36280
L65640 36190
L65620 36140
L65590 36110
L65550 36090
" />
<path d="M56000 37500
L53000 37500
" />
<path d="M56310 37230
L56410 37230
L56460 37250
L56500 37300
L56530 37390
L56530 37560
L56500 37650
L56460 37700
L56410 37730
L56310 37730
L56270 37700
L56220 37650
L56200 37560
L56200 37390
L56220 37300
L56270 37250
L56310 37230
" />
<path d="M56830 37230
L56880 37230
L56930 37250
L56950 37270
L56980 37320
L57000 37420
L57000 37540
L56980 37630
L56950 37680
L56930 37700
L56880 37730
L56830 37730
L56790 37700
L56760 37680
L56740 37630
L56720 37540
L56720 37420
L56740 37320
L56760 37270
L56790 37250
L56830 37230
" />
<path d="M57220 37730
L57220 37230
" />
<path d="M57220 37420
L57270 37390
L57360 37390
L57410 37420
L57430 37440
L57460 37490
L57460 37630
L57430 37680
L57410 37700
L57360 37730
L57270 37730
L57220 37700
" />
<path d="M54400 37380
L54500 37380
L54550 37350
L54570 37330
L54620 37260
L54640 37160
L54640 36970
L54620 36920
L54590 36900
L54550 36880
L54450 36880
L54400 36900
L54380 36920
L54360 36970
L54360 37090
L54380 37140
L54400 37160
L54450 37190
L54550 37190
L54590 37160
L54620 37140
L54640 37090
" />
<path d="M64000 37500
L67000 37500
" />
<path d="M62850 37730
L62850 37230
" />
<path d="M63180 37230
L63230 37230
L63280 37250
L63300 37270
L63330 37320
L63350 37420
L63350 37540
L63330 37630
L63300 37680
L63280 37700
L63230 37730
L63180 37730
L63140 37700
L63110 37680
L63090 37630
L63070 37540
L63070 37420
L63090 37320
L63110 37270
L63140 37250
L63180 37230
" />
<path d="M63570 37730
L63570 37230
" />
<path d="M63570 37420
L63620 37390
L63710 37390
L63760 37420
L63780 37440
L63810 37490
L63810 37630
L63780 37680
L63760 37700
L63710 37730
L63620 37730
L63570 37700
" />
<path d="M65400 37380
L65120 37380
" />
<path d="M65260 37380
L65260 36880
L65210 36950
L65160 37000
L65120 37020
" />
<path d="M65880 37380
L65600 37380
" />
<path d="M65740 37380
L65740 36880
L65690 36950
L65640 37000
L65600 37020
" />
<path d="M56000 36500
L53000 36500
" />
<path d="M56310 36230
L56410 36230
L56460 36250
L56500 36300
L56530 36390
L56530 36560
L56500 36650
L56460 36700
L56410 36730
L56310 36730
L56270 36700
L56220 36650
L56200 36560
L56200 36390
L56220 36300
L56270 36250
L56310 36230
" />
<path d="M56690 36230
L57000 36230
L56830 36420
L56910 36420
L56950 36440
L56980 36460
L57000 36510
L57000 36630
L56980 36680
L56950 36700
L56910 36730
L56760 36730
L56720 36700
L56690 36680
" />
<path d="M57430 36730
L57430 36460
L57410 36420
L57360 36390
L57270 36390
L57220 36420
" />
<path d="M57430 36700
L57390 36730
L57270 36730
L57220 36700
L57200 36650
L57200 36610
L57220 36560
L57270 36540
L57390 36540
L57430 36510
" />
<path d="M54400 36380
L54120 36380
" />
<path d="M54260 36380
L54260 35880
L54210 35950
L54160 36000
L54120 36020
" />
<path d="M54600 35920
L54620 35900
L54670 35880
L54790 35880
L54830 35900
L54860 35920
L54880 35970
L54880 36020
L54860 36090
L54570 36380
L54880 36380
" />
<path d="M64000 38500
L67000 38500
" />
<path d="M62850 38730
L62850 38230
" />
<path d="M63350 38730
L63070 38730
" />
<path d="M63210 38730
L63210 38230
L63160 38300
L63110 38350
L63070 38370
" />
<path d="M63570 38730
L63570 38230
" />
<path d="M63570 38420
L63620 38390
L63710 38390
L63760 38420
L63780 38440
L63810 38490
L63810 38630
L63780 38680
L63760 38700
L63710 38730
L63620 38730
L63570 38700
" />
<path d="M65400 38380
L65120 38380
" />
<path d="M65260 38380
L65260 37880
L65210 37950
L65160 38000
L65120 38020
" />
<path d="M65570 37880
L65880 37880
L65710 38070
L65790 38070
L65830 38090
L65860 38110
L65880 38160
L65880 38280
L65860 38330
L65830 38350
L65790 38380
L65640 38380
L65600 38350
L65570 38330
" />
<path d="M56000 35500
L53000 35500
" />
<path d="M56310 35230
L56410 35230
L56460 35250
L56500 35300
L56530 35390
L56530 35560
L56500 35650
L56460 35700
L56410 35730
L56310 35730
L56270 35700
L56220 35650
L56200 35560
L56200 35390
L56220 35300
L56270 35250
L56310 35230
" />
<path d="M56720 35270
L56740 35250
L56790 35230
L56910 35230
L56950 35250
L56980 35270
L57000 35320
L57000 35370
L56980 35440
L56690 35730
L57000 35730
" />
<path d="M57430 35730
L57430 35460
L57410 35420
L57360 35390
L57270 35390
L57220 35420
" />
<path d="M57430 35700
L57390 35730
L57270 35730
L57220 35700
L57200 35650
L57200 35610
L57220 35560
L57270 35540
L57390 35540
L57430 35510
" />
<path d="M54400 35380
L54120 35380
" />
<path d="M54260 35380
L54260 34880
L54210 34950
L54160 35000
L54120 35020
" />
<path d="M54830 35040
L54830 35380
" />
<path d="M54710 34850
L54600 35210
L54900 35210
" />
<path d="M64000 39500
L67000 39500
" />
<path d="M62850 39730
L62850 39230
" />
<path d="M63070 39270
L63090 39250
L63140 39230
L63260 39230
L63300 39250
L63330 39270
L63350 39320
L63350 39370
L63330 39440
L63040 39730
L63350 39730
" />
<path d="M63570 39730
L63570 39230
" />
<path d="M63570 39420
L63620 39390
L63710 39390
L63760 39420
L63780 39440
L63810 39490
L63810 39630
L63780 39680
L63760 39700
L63710 39730
L63620 39730
L63570 39700
" />
<path d="M65400 39380
L65120 39380
" />
<path d="M65260 39380
L65260 38880
L65210 38950
L65160 39000
L65120 39020
" />
<path d="M65860 38880
L65620 38880
L65600 39110
L65620 39090
L65670 39070
L65790 39070
L65830 39090
L65860 39110
L65880 39160
L65880 39280
L65860 39330
L65830 39350
L65790 39380
L65670 39380
L65620 39350
L65600 39330
" />
<path d="M56000 34500
L53000 34500
" />
<path d="M56310 34230
L56410 34230
L56460 34250
L56500 34300
L56530 34390
L56530 34560
L56500 34650
L56460 34700
L56410 34730
L56310 34730
L56270 34700
L56220 34650
L56200 34560
L56200 34390
L56220 34300
L56270 34250
L56310 34230
" />
<path d="M57000 34730
L56720 34730
" />
<path d="M56860 34730
L56860 34230
L56810 34300
L56760 34350
L56720 34370
" />
<path d="M57430 34730
L57430 34460
L57410 34420
L57360 34390
L57270 34390
L57220 34420
" />
<path d="M57430 34700
L57390 34730
L57270 34730
L57220 34700
L57200 34650
L57200 34610
L57220 34560
L57270 34540
L57390 34540
L57430 34510
" />
<path d="M54400 34380
L54120 34380
" />
<path d="M54260 34380
L54260 33880
L54210 33950
L54160 34000
L54120 34020
" />
<path d="M54830 33880
L54740 33880
L54690 33900
L54670 33920
L54620 34000
L54600 34090
L54600 34280
L54620 34330
L54640 34350
L54690 34380
L54790 34380
L54830 34350
L54860 34330
L54880 34280
L54880 34160
L54860 34110
L54830 34090
L54790 34070
L54690 34070
L54640 34090
L54620 34110
L54600 34160
" />
<path d="M64000 40500
L67000 40500
" />
<path d="M62850 40730
L62850 40230
" />
<path d="M63040 40230
L63350 40230
L63180 40420
L63260 40420
L63300 40440
L63330 40460
L63350 40510
L63350 40630
L63330 40680
L63300 40700
L63260 40730
L63110 40730
L63070 40700
L63040 40680
" />
<path d="M63570 40730
L63570 40230
" />
<path d="M63570 40420
L63620 40390
L63710 40390
L63760 40420
L63780 40440
L63810 40490
L63810 40630
L63780 40680
L63760 40700
L63710 40730
L63620 40730
L63570 40700
" />
<path d="M65400 40380
L65120 40380
" />
<path d="M65260 40380
L65260 39880
L65210 39950
L65160 40000
L65120 40020
" />
<path d="M65570 39880
L65900 39880
L65690 40380
" />
<path d="M56000 33500
L53000 33500
" />
<path d="M56310 33230
L56410 33230
L56460 33250
L56500 33300
L56530 33390
L56530 33560
L56500 33650
L56460 33700
L56410 33730
L56310 33730
L56270 33700
L56220 33650
L56200 33560
L56200 33390
L56220 33300
L56270 33250
L56310 33230
" />
<path d="M56830 33230
L56880 33230
L56930 33250
L56950 33270
L56980 33320
L57000 33420
L57000 33540
L56980 33630
L56950 33680
L56930 33700
L56880 33730
L56830 33730
L56790 33700
L56760 33680
L56740 33630
L56720 33540
L56720 33420
L56740 33320
L56760 33270
L56790 33250
L56830 33230
" />
<path d="M57430 33730
L57430 33460
L57410 33420
L57360 33390
L57270 33390
L57220 33420
" />
<path d="M57430 33700
L57390 33730
L57270 33730
L57220 33700
L57200 33650
L57200 33610
L57220 33560
L57270 33540
L57390 33540
L57430 33510
" />
<path d="M54400 33380
L54120 33380
" />
<path d="M54260 33380
L54260 32880
L54210 32950
L54160 33000
L54120 33020
" />
<path d="M54690 33090
L54640 33070
L54620 33040
L54600 33000
L54600 32970
L54620 32920
L54640 32900
L54690 32880
L54790 32880
L54830 32900
L54860 32920
L54880 32970
L54880 33000
L54860 33040
L54830 33070
L54790 33090
L54690 33090
L54640 33110
L54620 33140
L54600 33190
L54600 33280
L54620 33330
L54640 33350
L54690 33380
L54790 33380
L54830 33350
L54860 33330
L54880 33280
L54880 33190
L54860 33140
L54830 33110
L54790 33090
" />
<circle cx="64250" cy="43500" r="250" /> 
<path d="M64500 43500
L67000 43500
" />
<path d="M62690 43230
L62790 43230
L62840 43250
L62880 43300
L62910 43390
L62910 43560
L62880 43650
L62840 43700
L62790 43730
L62690 43730
L62650 43700
L62600 43650
L62580 43560
L62580 43390
L62600 43300
L62650 43250
L62690 43230
" />
<path d="M63120 43460
L63290 43460
" />
<path d="M63360 43730
L63120 43730
L63120 43230
L63360 43230
" />
<path d="M63570 43730
L63570 43230
" />
<path d="M63570 43420
L63620 43390
L63710 43390
L63760 43420
L63780 43440
L63810 43490
L63810 43630
L63780 43680
L63760 43700
L63710 43730
L63620 43730
L63570 43700
" />
<path d="M65400 43380
L65120 43380
" />
<path d="M65260 43380
L65260 42880
L65210 42950
L65160 43000
L65120 43020
" />
<path d="M65640 43380
L65740 43380
L65790 43350
L65810 43330
L65860 43260
L65880 43160
L65880 42970
L65860 42920
L65830 42900
L65790 42880
L65690 42880
L65640 42900
L65620 42920
L65600 42970
L65600 43090
L65620 43140
L65640 43160
L65690 43190
L65790 43190
L65830 43160
L65860 43140
L65880 43090
" />
<path d="M59410 36310
L59410 35710
" />
<path d="M60050 36250
L60020 36280
L59930 36310
L59870 36310
L59790 36280
L59730 36230
L59700 36170
L59670 36050
L59670 35970
L59700 35850
L59730 35800
L59790 35740
L59870 35710
L59930 35710
L60020 35740
L60050 35770
" />
<path d="M60620 36310
L60270 36310
" />
<path d="M60450 36310
L60450 35710
L60390 35800
L60330 35850
L60270 35880
" />
<path d="M58130 47710
L58530 47710
L58270 48310
" />
<path d="M59010 47910
L59010 48310
" />
<path d="M58870 47680
L58720 48110
L59100 48110
" />
<path d="M59610 48310
L59320 48310
L59320 47710
" />
<path d="M59780 48280
L59870 48310
L60010 48310
L60070 48280
L60100 48250
L60130 48200
L60130 48140
L60100 48080
L60070 48050
L60010 48030
L59900 48000
L59840 47970
L59810 47940
L59780 47880
L59780 47830
L59810 47770
L59840 47740
L59900 47710
L60040 47710
L60130 47740
" />
<path d="M60350 47770
L60380 47740
L60440 47710
L60580 47710
L60640 47740
L60670 47770
L60700 47830
L60700 47880
L60670 47970
L60330 48310
L60700 48310
" />
<path d="M61210 47910
L61210 48310
" />
<path d="M61070 47680
L60920 48110
L61300 48110
" />
<path d="M61780 47910
L61780 48310
" />
<path d="M61640 47680
L61490 48110
L61870 48110
" />
</g>
<g style="fill:#000000; fill-opacity:0.0; 
stroke:#000000; stroke-width:0; stroke-opacity:1; 
stroke-linecap:round; stroke-linejoin:round;">
</g>
<g style="fill:#000000; fill-opacity:0.0; 
stroke:#000000; stroke-width:80; stroke-opacity:1; 
stroke-linecap:round; stroke-linejoin:round;">
<polyline fill="none;"
points="65500,31500
66500,31500
66500,29500
65500,29500
" /> 
</g>
<g style="fill:#000000; fill-opacity:1.0; 
stroke:#000000; stroke-width:60; stroke-opacity:1; 
stroke-linecap:round; stroke-linejoin:round;">
<polyline style="fill-rule:evenodd;"
points="65500,31000
66200,31000
66200,30000
65500,30000
" /> 
</g>
<g style="fill:#000000; fill-opacity:0.0; 
stroke:#000000; stroke-width:60; stroke-opacity:1; 
stroke-linecap:round; stroke-linejoin:round;">
<path d="M65500 30500
L64000 30500
" />
<path d="M66500 30500
L68000 30500
" />
<path d="M63920 29640
L63900 29660
L63830 29690
L63780 29690
L63710 29660
L63660 29610
L63640 29570
L63620 29470
L63620 29400
L63640 29310
L63660 29260
L63710 29210
L63780 29190
L63830 29190
L63900 29210
L63920 29230
" />
<path d="M64400 29690
L64120 29690
" />
<path d="M64260 29690
L64260 29190
L64210 29260
L64160 29310
L64120 29330
" />
<path d="M66180 31850
L66180 32190
" />
<path d="M66060 31660
L65950 32020
L66250 32020
" />
<path d="M66450 32140
L66470 32160
L66450 32190
L66430 32160
L66450 32140
L66450 32190
" />
<path d="M66640 31690
L66970 31690
L66760 32190
" />
<path d="M67380 31850
L67380 32190
" />
<path d="M67170 31850
L67170 32110
L67190 32160
L67240 32190
L67310 32190
L67360 32160
L67380 32140
" />
<path d="M52760 40260
L53240 40740
" />
<path d="M53240 40260
L52760 40740
" />
<path d="M52760 39260
L53240 39740
" />
<path d="M53240 39260
L52760 39740
" />
<path d="M52760 38260
L53240 38740
" />
<path d="M53240 38260
L52760 38740
" />
<path d="M52760 37260
L53240 37740
" />
<path d="M53240 37260
L52760 37740
" />
<path d="M66760 43260
L67240 43740
" />
<path d="M67240 43260
L66760 43740
" />
</g> 
</svg>
