<?xml version="1.0" standalone="no"?>
 <!DOCTYPE svg PUBLIC "-//W3C//DTD SVG 1.1//EN" 
 "http://www.w3.org/Graphics/SVG/1.1/DTD/svg11.dtd"> 
<svg xmlns="http://www.w3.org/2000/svg" version="1.1" 
    width="29.7002cm" height="21.0007cm" viewBox="0 0 116929 82679 ">
<title>SVG Picture created as ctt_ps4.sch.svg date 2022/09/15 09:47:59 </title>
  <desc>Picture generated by Eeschema-SVG </desc>
<g style="fill:#000000; fill-opacity:1;stroke:#000000; stroke-opacity:1;
stroke-linecap:round; stroke-linejoin:round; "
 transform="translate(0 0) scale(1 1)">
</g>
<g style="fill:#000000; fill-opacity:0.0; 
stroke:#000000; stroke-width:-10; stroke-opacity:1; 
stroke-linecap:round; stroke-linejoin:round;">
</g>
<g style="fill:#000000; fill-opacity:0.0; 
stroke:#000000; stroke-width:100; stroke-opacity:1; 
stroke-linecap:round; stroke-linejoin:round;">
</g>
<g style="fill:#000000; fill-opacity:0.0; 
stroke:#000000; stroke-width:60; stroke-opacity:1; 
stroke-linecap:round; stroke-linejoin:round;">
<rect x="69690" y="65360" width="42520" height="12600" rx="0" />
</g>
<g style="fill:#000000; fill-opacity:0.0; 
stroke:#000000; stroke-width:100; stroke-opacity:1; 
stroke-linecap:round; stroke-linejoin:round;">
</g>
<g style="fill:#000000; fill-opacity:0.0; 
stroke:#000000; stroke-width:60; stroke-opacity:1; 
stroke-linecap:round; stroke-linejoin:round;">
<rect x="3940" y="3940" width="109050" height="74800" rx="0" />
</g>
<g style="fill:#000000; fill-opacity:0.0; 
stroke:#000000; stroke-width:100; stroke-opacity:1; 
stroke-linecap:round; stroke-linejoin:round;">
</g>
<g style="fill:#000000; fill-opacity:0.0; 
stroke:#000000; stroke-width:60; stroke-opacity:1; 
stroke-linecap:round; stroke-linejoin:round;">
<rect x="4720" y="4720" width="107490" height="73240" rx="0" />
</g>
<g style="fill:#000000; fill-opacity:0.0; 
stroke:#000000; stroke-width:100; stroke-opacity:1; 
stroke-linecap:round; stroke-linejoin:round;">
</g>
<g style="fill:#000000; fill-opacity:0.0; 
stroke:#000000; stroke-width:60; stroke-opacity:1; 
stroke-linecap:round; stroke-linejoin:round;">
<path d="M23620 4720
L23620 3940
" />
</g>
<g style="fill:#000000; fill-opacity:0.0; 
stroke:#000000; stroke-width:100; stroke-opacity:1; 
stroke-linecap:round; stroke-linejoin:round;">
</g>
<g style="fill:#000000; fill-opacity:0.0; 
stroke:#000000; stroke-width:60; stroke-opacity:1; 
stroke-linecap:round; stroke-linejoin:round;">
<path d="M43310 4720
L43310 3940
" />
</g>
<g style="fill:#000000; fill-opacity:0.0; 
stroke:#000000; stroke-width:100; stroke-opacity:1; 
stroke-linecap:round; stroke-linejoin:round;">
</g>
<g style="fill:#000000; fill-opacity:0.0; 
stroke:#000000; stroke-width:60; stroke-opacity:1; 
stroke-linecap:round; stroke-linejoin:round;">
<path d="M62990 4720
L62990 3940
" />
</g>
<g style="fill:#000000; fill-opacity:0.0; 
stroke:#000000; stroke-width:100; stroke-opacity:1; 
stroke-linecap:round; stroke-linejoin:round;">
</g>
<g style="fill:#000000; fill-opacity:0.0; 
stroke:#000000; stroke-width:60; stroke-opacity:1; 
stroke-linecap:round; stroke-linejoin:round;">
<path d="M82680 4720
L82680 3940
" />
</g>
<g style="fill:#000000; fill-opacity:0.0; 
stroke:#000000; stroke-width:100; stroke-opacity:1; 
stroke-linecap:round; stroke-linejoin:round;">
</g>
<g style="fill:#000000; fill-opacity:0.0; 
stroke:#000000; stroke-width:60; stroke-opacity:1; 
stroke-linecap:round; stroke-linejoin:round;">
<path d="M102360 4720
L102360 3940
" />
</g>
<g style="fill:#000000; fill-opacity:0.0; 
stroke:#000000; stroke-width:100; stroke-opacity:1; 
stroke-linecap:round; stroke-linejoin:round;">
</g>
<g style="fill:#000000; fill-opacity:0.0; 
stroke:#000000; stroke-width:60; stroke-opacity:1; 
stroke-linecap:round; stroke-linejoin:round;">
<path d="M14170 4560
L13880 4560
" />
<path d="M14020 4560
L14020 4050
L13970 4120
L13930 4170
L13880 4190
" />
</g>
<g style="fill:#000000; fill-opacity:0.0; 
stroke:#000000; stroke-width:100; stroke-opacity:1; 
stroke-linecap:round; stroke-linejoin:round;">
</g>
<g style="fill:#000000; fill-opacity:0.0; 
stroke:#000000; stroke-width:60; stroke-opacity:1; 
stroke-linecap:round; stroke-linejoin:round;">
<path d="M33560 4090
L33580 4070
L33630 4050
L33750 4050
L33800 4070
L33820 4090
L33850 4140
L33850 4190
L33820 4260
L33530 4560
L33850 4560
" />
</g>
<g style="fill:#000000; fill-opacity:0.0; 
stroke:#000000; stroke-width:100; stroke-opacity:1; 
stroke-linecap:round; stroke-linejoin:round;">
</g>
<g style="fill:#000000; fill-opacity:0.0; 
stroke:#000000; stroke-width:60; stroke-opacity:1; 
stroke-linecap:round; stroke-linejoin:round;">
<path d="M53220 4050
L53540 4050
L53370 4240
L53440 4240
L53490 4260
L53510 4290
L53540 4340
L53540 4460
L53510 4510
L53490 4530
L53440 4560
L53300 4560
L53250 4530
L53220 4510
" />
</g>
<g style="fill:#000000; fill-opacity:0.0; 
stroke:#000000; stroke-width:100; stroke-opacity:1; 
stroke-linecap:round; stroke-linejoin:round;">
</g>
<g style="fill:#000000; fill-opacity:0.0; 
stroke:#000000; stroke-width:60; stroke-opacity:1; 
stroke-linecap:round; stroke-linejoin:round;">
<path d="M73170 4220
L73170 4560
" />
<path d="M73050 4020
L72930 4390
L73240 4390
" />
</g>
<g style="fill:#000000; fill-opacity:0.0; 
stroke:#000000; stroke-width:100; stroke-opacity:1; 
stroke-linecap:round; stroke-linejoin:round;">
</g>
<g style="fill:#000000; fill-opacity:0.0; 
stroke:#000000; stroke-width:60; stroke-opacity:1; 
stroke-linecap:round; stroke-linejoin:round;">
<path d="M92880 4050
L92640 4050
L92620 4290
L92640 4260
L92690 4240
L92810 4240
L92860 4260
L92880 4290
L92910 4340
L92910 4460
L92880 4510
L92860 4530
L92810 4560
L92690 4560
L92640 4530
L92620 4510
" />
</g>
<g style="fill:#000000; fill-opacity:0.0; 
stroke:#000000; stroke-width:100; stroke-opacity:1; 
stroke-linecap:round; stroke-linejoin:round;">
</g>
<g style="fill:#000000; fill-opacity:0.0; 
stroke:#000000; stroke-width:60; stroke-opacity:1; 
stroke-linecap:round; stroke-linejoin:round;">
<path d="M112540 4050
L112440 4050
L112390 4070
L112370 4090
L112320 4170
L112300 4260
L112300 4460
L112320 4510
L112350 4530
L112390 4560
L112490 4560
L112540 4530
L112560 4510
L112590 4460
L112590 4340
L112560 4290
L112540 4260
L112490 4240
L112390 4240
L112350 4260
L112320 4290
L112300 4340
" />
</g>
<g style="fill:#000000; fill-opacity:0.0; 
stroke:#000000; stroke-width:100; stroke-opacity:1; 
stroke-linecap:round; stroke-linejoin:round;">
</g>
<g style="fill:#000000; fill-opacity:0.0; 
stroke:#000000; stroke-width:60; stroke-opacity:1; 
stroke-linecap:round; stroke-linejoin:round;">
<path d="M23620 77960
L23620 78740
" />
</g>
<g style="fill:#000000; fill-opacity:0.0; 
stroke:#000000; stroke-width:100; stroke-opacity:1; 
stroke-linecap:round; stroke-linejoin:round;">
</g>
<g style="fill:#000000; fill-opacity:0.0; 
stroke:#000000; stroke-width:60; stroke-opacity:1; 
stroke-linecap:round; stroke-linejoin:round;">
<path d="M43310 77960
L43310 78740
" />
</g>
<g style="fill:#000000; fill-opacity:0.0; 
stroke:#000000; stroke-width:100; stroke-opacity:1; 
stroke-linecap:round; stroke-linejoin:round;">
</g>
<g style="fill:#000000; fill-opacity:0.0; 
stroke:#000000; stroke-width:60; stroke-opacity:1; 
stroke-linecap:round; stroke-linejoin:round;">
<path d="M62990 77960
L62990 78740
" />
</g>
<g style="fill:#000000; fill-opacity:0.0; 
stroke:#000000; stroke-width:100; stroke-opacity:1; 
stroke-linecap:round; stroke-linejoin:round;">
</g>
<g style="fill:#000000; fill-opacity:0.0; 
stroke:#000000; stroke-width:60; stroke-opacity:1; 
stroke-linecap:round; stroke-linejoin:round;">
<path d="M82680 77960
L82680 78740
" />
</g>
<g style="fill:#000000; fill-opacity:0.0; 
stroke:#000000; stroke-width:100; stroke-opacity:1; 
stroke-linecap:round; stroke-linejoin:round;">
</g>
<g style="fill:#000000; fill-opacity:0.0; 
stroke:#000000; stroke-width:60; stroke-opacity:1; 
stroke-linecap:round; stroke-linejoin:round;">
<path d="M102360 77960
L102360 78740
" />
</g>
<g style="fill:#000000; fill-opacity:0.0; 
stroke:#000000; stroke-width:100; stroke-opacity:1; 
stroke-linecap:round; stroke-linejoin:round;">
</g>
<g style="fill:#000000; fill-opacity:0.0; 
stroke:#000000; stroke-width:60; stroke-opacity:1; 
stroke-linecap:round; stroke-linejoin:round;">
<path d="M14170 78580
L13880 78580
" />
<path d="M14020 78580
L14020 78070
L13970 78140
L13930 78190
L13880 78210
" />
</g>
<g style="fill:#000000; fill-opacity:0.0; 
stroke:#000000; stroke-width:100; stroke-opacity:1; 
stroke-linecap:round; stroke-linejoin:round;">
</g>
<g style="fill:#000000; fill-opacity:0.0; 
stroke:#000000; stroke-width:60; stroke-opacity:1; 
stroke-linecap:round; stroke-linejoin:round;">
<path d="M33560 78110
L33580 78090
L33630 78070
L33750 78070
L33800 78090
L33820 78110
L33850 78160
L33850 78210
L33820 78280
L33530 78580
L33850 78580
" />
</g>
<g style="fill:#000000; fill-opacity:0.0; 
stroke:#000000; stroke-width:100; stroke-opacity:1; 
stroke-linecap:round; stroke-linejoin:round;">
</g>
<g style="fill:#000000; fill-opacity:0.0; 
stroke:#000000; stroke-width:60; stroke-opacity:1; 
stroke-linecap:round; stroke-linejoin:round;">
<path d="M53220 78070
L53540 78070
L53370 78260
L53440 78260
L53490 78280
L53510 78310
L53540 78360
L53540 78480
L53510 78530
L53490 78550
L53440 78580
L53300 78580
L53250 78550
L53220 78530
" />
</g>
<g style="fill:#000000; fill-opacity:0.0; 
stroke:#000000; stroke-width:100; stroke-opacity:1; 
stroke-linecap:round; stroke-linejoin:round;">
</g>
<g style="fill:#000000; fill-opacity:0.0; 
stroke:#000000; stroke-width:60; stroke-opacity:1; 
stroke-linecap:round; stroke-linejoin:round;">
<path d="M73170 78240
L73170 78580
" />
<path d="M73050 78040
L72930 78410
L73240 78410
" />
</g>
<g style="fill:#000000; fill-opacity:0.0; 
stroke:#000000; stroke-width:100; stroke-opacity:1; 
stroke-linecap:round; stroke-linejoin:round;">
</g>
<g style="fill:#000000; fill-opacity:0.0; 
stroke:#000000; stroke-width:60; stroke-opacity:1; 
stroke-linecap:round; stroke-linejoin:round;">
<path d="M92880 78070
L92640 78070
L92620 78310
L92640 78280
L92690 78260
L92810 78260
L92860 78280
L92880 78310
L92910 78360
L92910 78480
L92880 78530
L92860 78550
L92810 78580
L92690 78580
L92640 78550
L92620 78530
" />
</g>
<g style="fill:#000000; fill-opacity:0.0; 
stroke:#000000; stroke-width:100; stroke-opacity:1; 
stroke-linecap:round; stroke-linejoin:round;">
</g>
<g style="fill:#000000; fill-opacity:0.0; 
stroke:#000000; stroke-width:60; stroke-opacity:1; 
stroke-linecap:round; stroke-linejoin:round;">
<path d="M112540 78070
L112440 78070
L112390 78090
L112370 78110
L112320 78190
L112300 78280
L112300 78480
L112320 78530
L112350 78550
L112390 78580
L112490 78580
L112540 78550
L112560 78530
L112590 78480
L112590 78360
L112560 78310
L112540 78280
L112490 78260
L112390 78260
L112350 78280
L112320 78310
L112300 78360
" />
</g>
<g style="fill:#000000; fill-opacity:0.0; 
stroke:#000000; stroke-width:100; stroke-opacity:1; 
stroke-linecap:round; stroke-linejoin:round;">
</g>
<g style="fill:#000000; fill-opacity:0.0; 
stroke:#000000; stroke-width:60; stroke-opacity:1; 
stroke-linecap:round; stroke-linejoin:round;">
<path d="M3940 23620
L4720 23620
" />
</g>
<g style="fill:#000000; fill-opacity:0.0; 
stroke:#000000; stroke-width:100; stroke-opacity:1; 
stroke-linecap:round; stroke-linejoin:round;">
</g>
<g style="fill:#000000; fill-opacity:0.0; 
stroke:#000000; stroke-width:60; stroke-opacity:1; 
stroke-linecap:round; stroke-linejoin:round;">
<path d="M3940 43310
L4720 43310
" />
</g>
<g style="fill:#000000; fill-opacity:0.0; 
stroke:#000000; stroke-width:100; stroke-opacity:1; 
stroke-linecap:round; stroke-linejoin:round;">
</g>
<g style="fill:#000000; fill-opacity:0.0; 
stroke:#000000; stroke-width:60; stroke-opacity:1; 
stroke-linecap:round; stroke-linejoin:round;">
<path d="M3940 62990
L4720 62990
" />
</g>
<g style="fill:#000000; fill-opacity:0.0; 
stroke:#000000; stroke-width:100; stroke-opacity:1; 
stroke-linecap:round; stroke-linejoin:round;">
</g>
<g style="fill:#000000; fill-opacity:0.0; 
stroke:#000000; stroke-width:60; stroke-opacity:1; 
stroke-linecap:round; stroke-linejoin:round;">
<path d="M4210 13860
L4450 13860
" />
<path d="M4160 14010
L4330 13500
L4500 14010
" />
</g>
<g style="fill:#000000; fill-opacity:0.0; 
stroke:#000000; stroke-width:100; stroke-opacity:1; 
stroke-linecap:round; stroke-linejoin:round;">
</g>
<g style="fill:#000000; fill-opacity:0.0; 
stroke:#000000; stroke-width:60; stroke-opacity:1; 
stroke-linecap:round; stroke-linejoin:round;">
<path d="M4370 33420
L4440 33440
L4470 33470
L4490 33520
L4490 33590
L4470 33640
L4440 33660
L4400 33690
L4200 33690
L4200 33180
L4370 33180
L4420 33200
L4440 33220
L4470 33270
L4470 33320
L4440 33370
L4420 33390
L4370 33420
L4200 33420
" />
</g>
<g style="fill:#000000; fill-opacity:0.0; 
stroke:#000000; stroke-width:100; stroke-opacity:1; 
stroke-linecap:round; stroke-linejoin:round;">
</g>
<g style="fill:#000000; fill-opacity:0.0; 
stroke:#000000; stroke-width:60; stroke-opacity:1; 
stroke-linecap:round; stroke-linejoin:round;">
<path d="M4490 53330
L4470 53350
L4400 53380
L4350 53380
L4270 53350
L4230 53300
L4200 53250
L4180 53160
L4180 53080
L4200 52990
L4230 52940
L4270 52890
L4350 52870
L4400 52870
L4470 52890
L4490 52910
" />
</g>
<g style="fill:#000000; fill-opacity:0.0; 
stroke:#000000; stroke-width:100; stroke-opacity:1; 
stroke-linecap:round; stroke-linejoin:round;">
</g>
<g style="fill:#000000; fill-opacity:0.0; 
stroke:#000000; stroke-width:60; stroke-opacity:1; 
stroke-linecap:round; stroke-linejoin:round;">
<path d="M4200 73060
L4200 72550
L4320 72550
L4400 72570
L4440 72620
L4470 72670
L4490 72760
L4490 72840
L4470 72930
L4440 72980
L4400 73030
L4320 73060
L4200 73060
" />
</g>
<g style="fill:#000000; fill-opacity:0.0; 
stroke:#000000; stroke-width:100; stroke-opacity:1; 
stroke-linecap:round; stroke-linejoin:round;">
</g>
<g style="fill:#000000; fill-opacity:0.0; 
stroke:#000000; stroke-width:60; stroke-opacity:1; 
stroke-linecap:round; stroke-linejoin:round;">
<path d="M112990 23620
L112210 23620
" />
</g>
<g style="fill:#000000; fill-opacity:0.0; 
stroke:#000000; stroke-width:100; stroke-opacity:1; 
stroke-linecap:round; stroke-linejoin:round;">
</g>
<g style="fill:#000000; fill-opacity:0.0; 
stroke:#000000; stroke-width:60; stroke-opacity:1; 
stroke-linecap:round; stroke-linejoin:round;">
<path d="M112990 43310
L112210 43310
" />
</g>
<g style="fill:#000000; fill-opacity:0.0; 
stroke:#000000; stroke-width:100; stroke-opacity:1; 
stroke-linecap:round; stroke-linejoin:round;">
</g>
<g style="fill:#000000; fill-opacity:0.0; 
stroke:#000000; stroke-width:60; stroke-opacity:1; 
stroke-linecap:round; stroke-linejoin:round;">
<path d="M112990 62990
L112210 62990
" />
</g>
<g style="fill:#000000; fill-opacity:0.0; 
stroke:#000000; stroke-width:100; stroke-opacity:1; 
stroke-linecap:round; stroke-linejoin:round;">
</g>
<g style="fill:#000000; fill-opacity:0.0; 
stroke:#000000; stroke-width:60; stroke-opacity:1; 
stroke-linecap:round; stroke-linejoin:round;">
<path d="M112480 13860
L112720 13860
" />
<path d="M112430 14010
L112600 13500
L112770 14010
" />
</g>
<g style="fill:#000000; fill-opacity:0.0; 
stroke:#000000; stroke-width:100; stroke-opacity:1; 
stroke-linecap:round; stroke-linejoin:round;">
</g>
<g style="fill:#000000; fill-opacity:0.0; 
stroke:#000000; stroke-width:60; stroke-opacity:1; 
stroke-linecap:round; stroke-linejoin:round;">
<path d="M112640 33420
L112710 33440
L112740 33470
L112760 33520
L112760 33590
L112740 33640
L112710 33660
L112670 33690
L112470 33690
L112470 33180
L112640 33180
L112690 33200
L112710 33220
L112740 33270
L112740 33320
L112710 33370
L112690 33390
L112640 33420
L112470 33420
" />
</g>
<g style="fill:#000000; fill-opacity:0.0; 
stroke:#000000; stroke-width:100; stroke-opacity:1; 
stroke-linecap:round; stroke-linejoin:round;">
</g>
<g style="fill:#000000; fill-opacity:0.0; 
stroke:#000000; stroke-width:60; stroke-opacity:1; 
stroke-linecap:round; stroke-linejoin:round;">
<path d="M112760 53330
L112740 53350
L112670 53380
L112620 53380
L112540 53350
L112500 53300
L112470 53250
L112450 53160
L112450 53080
L112470 52990
L112500 52940
L112540 52890
L112620 52870
L112670 52870
L112740 52890
L112760 52910
" />
</g>
<g style="fill:#000000; fill-opacity:0.0; 
stroke:#000000; stroke-width:100; stroke-opacity:1; 
stroke-linecap:round; stroke-linejoin:round;">
</g>
<g style="fill:#000000; fill-opacity:0.0; 
stroke:#000000; stroke-width:60; stroke-opacity:1; 
stroke-linecap:round; stroke-linejoin:round;">
<path d="M112470 73060
L112470 72550
L112590 72550
L112670 72570
L112710 72620
L112740 72670
L112760 72760
L112760 72840
L112740 72930
L112710 72980
L112670 73030
L112590 73060
L112470 73060
" />
</g>
<g style="fill:#000000; fill-opacity:0.0; 
stroke:#000000; stroke-width:100; stroke-opacity:1; 
stroke-linecap:round; stroke-linejoin:round;">
</g>
<g style="fill:#000000; fill-opacity:0.0; 
stroke:#000000; stroke-width:60; stroke-opacity:1; 
stroke-linecap:round; stroke-linejoin:round;">
<path d="M78880 76290
L78880 75700
L79020 75700
L79110 75730
L79160 75790
L79190 75840
L79220 75950
L79220 76040
L79190 76150
L79160 76210
L79110 76260
L79020 76290
L78880 76290
" />
<path d="M79720 76290
L79720 75980
L79700 75930
L79640 75900
L79530 75900
L79470 75930
" />
<path d="M79720 76260
L79670 76290
L79530 76290
L79470 76260
L79440 76210
L79440 76150
L79470 76100
L79530 76070
L79670 76070
L79720 76040
" />
<path d="M79920 75900
L80140 75900
" />
<path d="M80000 75700
L80000 76210
L80030 76260
L80080 76290
L80140 76290
" />
<path d="M80570 76260
L80510 76290
L80400 76290
L80340 76260
L80310 76210
L80310 75980
L80340 75930
L80400 75900
L80510 75900
L80570 75930
L80590 75980
L80590 76040
L80310 76100
" />
<path d="M80850 76240
L80880 76260
L80850 76290
L80820 76260
L80850 76240
L80850 76290
" />
<path d="M80850 75930
L80880 75950
L80850 75980
L80820 75950
L80850 75930
L80850 75980
" />
<path d="M81550 75760
L81580 75730
L81640 75700
L81780 75700
L81830 75730
L81860 75760
L81890 75810
L81890 75870
L81860 75950
L81520 76290
L81890 76290
" />
<path d="M82220 75950
L82170 75930
L82140 75900
L82110 75840
L82110 75810
L82140 75760
L82170 75730
L82220 75700
L82340 75700
L82390 75730
L82420 75760
L82450 75810
L82450 75840
L82420 75900
L82390 75930
L82340 75950
L82220 75950
L82170 75980
L82140 76010
L82110 76070
L82110 76180
L82140 76240
L82170 76260
L82220 76290
L82340 76290
L82390 76260
L82420 76240
L82450 76180
L82450 76070
L82420 76010
L82390 75980
L82340 75950
" />
<path d="M83150 75900
L83150 76400
L83120 76460
L83070 76490
L83040 76490
" />
<path d="M83150 75700
L83120 75730
L83150 75760
L83180 75730
L83150 75700
L83150 75760
" />
<path d="M83680 76290
L83680 75980
L83660 75930
L83600 75900
L83490 75900
L83430 75930
" />
<path d="M83680 76260
L83630 76290
L83490 76290
L83430 76260
L83400 76210
L83400 76150
L83430 76100
L83490 76070
L83630 76070
L83680 76040
" />
<path d="M83960 75900
L83960 76290
" />
<path d="M83960 75950
L83990 75930
L84040 75900
L84130 75900
L84190 75930
L84210 75980
L84210 76290
" />
<path d="M84910 75760
L84940 75730
L85000 75700
L85140 75700
L85190 75730
L85220 75760
L85250 75810
L85250 75870
L85220 75950
L84880 76290
L85250 76290
" />
<path d="M85610 75700
L85670 75700
L85730 75730
L85750 75760
L85780 75810
L85810 75930
L85810 76070
L85780 76180
L85750 76240
L85730 76260
L85670 76290
L85610 76290
L85560 76260
L85530 76240
L85500 76180
L85470 76070
L85470 75930
L85500 75810
L85530 75760
L85560 75730
L85610 75700
" />
<path d="M86370 76290
L86030 76290
" />
<path d="M86200 76290
L86200 75700
L86140 75790
L86090 75840
L86030 75870
" />
<path d="M86590 75760
L86620 75730
L86680 75700
L86820 75700
L86870 75730
L86900 75760
L86930 75810
L86930 75870
L86900 75950
L86560 76290
L86930 76290
" />
</g>
<g style="fill:#000000; fill-opacity:0.0; 
stroke:#000000; stroke-width:100; stroke-opacity:1; 
stroke-linecap:round; stroke-linejoin:round;">
</g>
<g style="fill:#000000; fill-opacity:0.0; 
stroke:#000000; stroke-width:60; stroke-opacity:1; 
stroke-linecap:round; stroke-linejoin:round;">
<path d="M69690 76580
L112210 76580
" />
</g>
<g style="fill:#000000; fill-opacity:0.0; 
stroke:#000000; stroke-width:100; stroke-opacity:1; 
stroke-linecap:round; stroke-linejoin:round;">
</g>
<g style="fill:#000000; fill-opacity:0.0; 
stroke:#000000; stroke-width:60; stroke-opacity:1; 
stroke-linecap:round; stroke-linejoin:round;">
<path d="M70220 77390
L70220 76800
" />
<path d="M70560 77390
L70300 77050
" />
<path d="M70560 76800
L70220 77140
" />
<path d="M70810 77390
L70810 77000
" />
<path d="M70810 76800
L70780 76830
L70810 76860
L70840 76830
L70810 76800
L70810 76860
" />
<path d="M71430 77340
L71400 77360
L71320 77390
L71260 77390
L71170 77360
L71120 77310
L71090 77250
L71060 77140
L71060 77050
L71090 76940
L71120 76890
L71170 76830
L71260 76800
L71320 76800
L71400 76830
L71430 76860
" />
<path d="M71930 77390
L71930 77080
L71910 77030
L71850 77000
L71740 77000
L71680 77030
" />
<path d="M71930 77360
L71880 77390
L71740 77390
L71680 77360
L71650 77310
L71650 77250
L71680 77200
L71740 77170
L71880 77170
L71930 77140
" />
<path d="M72460 77390
L72460 76800
" />
<path d="M72460 77360
L72410 77390
L72290 77390
L72240 77360
L72210 77340
L72180 77280
L72180 77110
L72210 77050
L72240 77030
L72290 77000
L72410 77000
L72460 77030
" />
<path d="M73190 77080
L73390 77080
" />
<path d="M73470 77390
L73190 77390
L73190 76800
L73470 76800
" />
<path d="M73720 77340
L73750 77360
L73720 77390
L73690 77360
L73720 77340
L73720 77390
" />
<path d="M74000 77390
L74000 76800
L74140 76800
L74230 76830
L74280 76890
L74310 76940
L74340 77050
L74340 77140
L74310 77250
L74280 77310
L74230 77360
L74140 77390
L74000 77390
" />
<path d="M74590 77340
L74620 77360
L74590 77390
L74560 77360
L74590 77340
L74590 77390
" />
<path d="M74840 77220
L75120 77220
" />
<path d="M74790 77390
L74980 76800
L75180 77390
" />
<path d="M75380 77340
L75410 77360
L75380 77390
L75350 77360
L75380 77340
L75380 77390
" />
<path d="M76560 77390
L76560 76800
" />
<path d="M76620 77170
L76790 77390
" />
<path d="M76790 77000
L76560 77220
" />
<path d="M77040 77390
L77040 77000
" />
<path d="M77040 76800
L77010 76830
L77040 76860
L77070 76830
L77040 76800
L77040 76860
" />
<path d="M77570 77360
L77520 77390
L77400 77390
L77350 77360
L77320 77340
L77290 77280
L77290 77110
L77320 77050
L77350 77030
L77400 77000
L77520 77000
L77570 77030
" />
<path d="M78080 77390
L78080 77080
L78060 77030
L78000 77000
L77890 77000
L77830 77030
" />
<path d="M78080 77360
L78030 77390
L77890 77390
L77830 77360
L77800 77310
L77800 77250
L77830 77200
L77890 77170
L78030 77170
L78080 77140
" />
<path d="M78610 77390
L78610 76800
" />
<path d="M78610 77360
L78560 77390
L78440 77390
L78390 77360
L78360 77340
L78330 77280
L78330 77110
L78360 77050
L78390 77030
L78440 77000
L78560 77000
L78610 77030
" />
<path d="M79590 77000
L79590 77390
" />
<path d="M79450 76770
L79310 77200
L79680 77200
" />
<path d="M79900 77340
L79930 77360
L79900 77390
L79870 77360
L79900 77340
L79900 77390
" />
<path d="M80290 76800
L80350 76800
L80410 76830
L80430 76860
L80460 76910
L80490 77030
L80490 77170
L80460 77280
L80430 77340
L80410 77360
L80350 77390
L80290 77390
L80240 77360
L80210 77340
L80180 77280
L80150 77170
L80150 77030
L80180 76910
L80210 76860
L80240 76830
L80290 76800
" />
<path d="M80740 77340
L80770 77360
L80740 77390
L80710 77360
L80740 77340
L80740 77390
" />
<path d="M81300 76800
L81020 76800
L80990 77080
L81020 77050
L81080 77030
L81220 77030
L81270 77050
L81300 77080
L81330 77140
L81330 77280
L81300 77340
L81270 77360
L81220 77390
L81080 77390
L81020 77360
L80990 77340
" />
<path d="M81580 77170
L82030 77170
" />
<path d="M81810 77390
L81810 76940
" />
<path d="M82560 77390
L82560 76800
" />
<path d="M82560 77360
L82510 77390
L82390 77390
L82340 77360
L82310 77340
L82280 77280
L82280 77110
L82310 77050
L82340 77030
L82390 77000
L82510 77000
L82560 77030
" />
<path d="M82760 77000
L82980 77000
" />
<path d="M82840 77390
L82840 76890
L82870 76830
L82920 76800
L82980 76800
" />
<path d="M83150 77360
L83210 77390
L83320 77390
L83380 77360
L83410 77310
L83410 77280
L83380 77220
L83320 77200
L83240 77200
L83180 77170
L83150 77110
L83150 77080
L83180 77030
L83240 77000
L83320 77000
L83380 77030
" />
<path d="M83910 77000
L83910 77480
L83890 77530
L83860 77560
L83800 77590
L83720 77590
L83660 77560
" />
<path d="M83910 77360
L83860 77390
L83740 77390
L83690 77360
L83660 77340
L83630 77280
L83630 77110
L83660 77050
L83690 77030
L83740 77000
L83860 77000
L83910 77030
" />
<path d="M84500 77390
L84160 77390
" />
<path d="M84330 77390
L84330 76800
L84270 76890
L84220 76940
L84160 76970
" />
<path d="M84750 77170
L85200 77170
" />
<path d="M85730 77000
L85730 77390
" />
<path d="M85590 76770
L85450 77200
L85820 77200
" />
<path d="M86040 77170
L86490 77170
" />
<path d="M86270 77390
L86270 76940
" />
<path d="M87020 77390
L87020 76800
" />
<path d="M87020 77360
L86970 77390
L86850 77390
L86800 77360
L86770 77340
L86740 77280
L86740 77110
L86770 77050
L86800 77030
L86850 77000
L86970 77000
L87020 77030
" />
<path d="M87530 77360
L87470 77390
L87360 77390
L87300 77360
L87270 77310
L87270 77080
L87300 77030
L87360 77000
L87470 77000
L87530 77030
L87550 77080
L87550 77140
L87270 77200
" />
<path d="M87810 77390
L87810 76800
" />
<path d="M87810 77030
L87870 77000
L87980 77000
L88040 77030
L88060 77050
L88090 77110
L88090 77280
L88060 77340
L88040 77360
L87980 77390
L87870 77390
L87810 77360
" />
<path d="M88370 77390
L88480 77390
L88540 77360
L88570 77340
L88620 77250
L88650 77140
L88650 76910
L88620 76860
L88590 76830
L88540 76800
L88420 76800
L88370 76830
L88340 76860
L88310 76910
L88310 77050
L88340 77110
L88370 77140
L88420 77170
L88540 77170
L88590 77140
L88620 77110
L88650 77050
" />
<path d="M89150 77000
L89150 77390
" />
<path d="M88900 77000
L88900 77310
L88930 77360
L88980 77390
L89070 77390
L89130 77360
L89150 77340
" />
<path d="M89740 77390
L89400 77390
" />
<path d="M89570 77390
L89570 76800
L89510 76890
L89460 76940
L89400 76970
" />
</g>
<g style="fill:#000000; fill-opacity:0.0; 
stroke:#000000; stroke-width:100; stroke-opacity:1; 
stroke-linecap:round; stroke-linejoin:round;">
</g>
<g style="fill:#000000; fill-opacity:0.0; 
stroke:#000000; stroke-width:60; stroke-opacity:1; 
stroke-linecap:round; stroke-linejoin:round;">
<path d="M69690 75400
L112210 75400
" />
</g>
<g style="fill:#000000; fill-opacity:0.0; 
stroke:#000000; stroke-width:100; stroke-opacity:1; 
stroke-linecap:round; stroke-linejoin:round;">
</g>
<g style="fill:#000000; fill-opacity:0.0; 
stroke:#000000; stroke-width:120; stroke-opacity:1; 
stroke-linecap:round; stroke-linejoin:round;">
<path d="M104020 76290
L103820 76010
" />
<path d="M103680 76290
L103680 75700
L103910 75700
L103960 75730
L103990 75760
L104020 75810
L104020 75900
L103990 75950
L103960 75980
L103910 76010
L103680 76010
" />
<path d="M104500 76260
L104440 76290
L104330 76290
L104270 76260
L104240 76210
L104240 75980
L104270 75930
L104330 75900
L104440 75900
L104500 75930
L104520 75980
L104520 76040
L104240 76100
" />
<path d="M104720 75900
L104860 76290
L105010 75900
" />
<path d="M105230 76240
L105260 76260
L105230 76290
L105200 76260
L105230 76240
L105230 76290
" />
<path d="M105230 75930
L105260 75950
L105230 75980
L105200 75950
L105230 75930
L105230 75980
" />
<path d="M106270 76290
L105930 76290
" />
<path d="M106100 76290
L106100 75700
L106040 75790
L105990 75840
L105930 75870
" />
<path d="M106520 76240
L106550 76260
L106520 76290
L106490 76260
L106520 76240
L106520 76290
" />
<path d="M106910 75700
L106970 75700
L107030 75730
L107050 75760
L107080 75810
L107110 75930
L107110 76070
L107080 76180
L107050 76240
L107030 76260
L106970 76290
L106910 76290
L106860 76260
L106830 76240
L106800 76180
L106770 76070
L106770 75930
L106800 75810
L106830 75760
L106860 75730
L106910 75700
" />
</g>
<g style="fill:#000000; fill-opacity:0.0; 
stroke:#000000; stroke-width:100; stroke-opacity:1; 
stroke-linecap:round; stroke-linejoin:round;">
</g>
<g style="fill:#000000; fill-opacity:0.0; 
stroke:#000000; stroke-width:60; stroke-opacity:1; 
stroke-linecap:round; stroke-linejoin:round;">
<path d="M70190 76260
L70280 76290
L70420 76290
L70470 76260
L70500 76240
L70530 76180
L70530 76120
L70500 76070
L70470 76040
L70420 76010
L70300 75980
L70250 75950
L70220 75930
L70190 75870
L70190 75810
L70220 75760
L70250 75730
L70300 75700
L70450 75700
L70530 75730
" />
<path d="M70780 76290
L70780 75900
" />
<path d="M70780 75700
L70750 75730
L70780 75760
L70810 75730
L70780 75700
L70780 75760
" />
<path d="M71000 75900
L71310 75900
L71000 76290
L71310 76290
" />
<path d="M71770 76260
L71710 76290
L71600 76290
L71540 76260
L71510 76210
L71510 75980
L71540 75930
L71600 75900
L71710 75900
L71770 75930
L71790 75980
L71790 76040
L71510 76100
" />
<path d="M72050 76240
L72080 76260
L72050 76290
L72020 76260
L72050 76240
L72050 76290
" />
<path d="M72050 75930
L72080 75950
L72050 75980
L72020 75950
L72050 75930
L72050 75980
" />
<path d="M72750 76120
L73030 76120
" />
<path d="M72700 76290
L72890 75700
L73090 76290
" />
<path d="M73540 75900
L73540 76290
" />
<path d="M73400 75670
L73260 76100
L73630 76100
" />
</g>
<g style="fill:#000000; fill-opacity:0.0; 
stroke:#000000; stroke-width:100; stroke-opacity:1; 
stroke-linecap:round; stroke-linejoin:round;">
</g>
<g style="fill:#000000; fill-opacity:0.0; 
stroke:#000000; stroke-width:60; stroke-opacity:1; 
stroke-linecap:round; stroke-linejoin:round;">
<path d="M103680 77390
L103680 76800
" />
<path d="M104210 77390
L104210 76800
" />
<path d="M104210 77360
L104160 77390
L104040 77390
L103990 77360
L103960 77340
L103930 77280
L103930 77110
L103960 77050
L103990 77030
L104040 77000
L104160 77000
L104210 77030
" />
<path d="M104490 77340
L104520 77360
L104490 77390
L104460 77360
L104490 77340
L104490 77390
" />
<path d="M104490 77030
L104520 77050
L104490 77080
L104460 77050
L104490 77030
L104490 77080
" />
<path d="M105530 77390
L105190 77390
" />
<path d="M105360 77390
L105360 76800
L105300 76890
L105250 76940
L105190 76970
" />
<path d="M105890 76800
L105950 76800
L106010 76830
L106030 76860
L106060 76910
L106090 77030
L106090 77170
L106060 77280
L106030 77340
L106010 77360
L105950 77390
L105890 77390
L105840 77360
L105810 77340
L105780 77280
L105750 77170
L105750 77030
L105780 76910
L105810 76860
L105840 76830
L105890 76800
" />
<path d="M106760 76770
L106260 77530
" />
<path d="M107270 77390
L106930 77390
" />
<path d="M107100 77390
L107100 76800
L107040 76890
L106990 76940
L106930 76970
" />
<path d="M107830 77390
L107490 77390
" />
<path d="M107660 77390
L107660 76800
L107600 76890
L107550 76940
L107490 76970
" />
</g>
<g style="fill:#000000; fill-opacity:0.0; 
stroke:#000000; stroke-width:100; stroke-opacity:1; 
stroke-linecap:round; stroke-linejoin:round;">
</g>
<g style="fill:#000000; fill-opacity:0.0; 
stroke:#000000; stroke-width:60; stroke-opacity:1; 
stroke-linecap:round; stroke-linejoin:round;">
<path d="M69690 73820
L112210 73820
" />
</g>
<g style="fill:#000000; fill-opacity:0.0; 
stroke:#000000; stroke-width:100; stroke-opacity:1; 
stroke-linecap:round; stroke-linejoin:round;">
</g>
<g style="fill:#000000; fill-opacity:0.0; 
stroke:#000000; stroke-width:160; stroke-opacity:1; 
stroke-linecap:round; stroke-linejoin:round;">
<path d="M70260 74090
L70710 74090
" />
<path d="M70390 74880
L70480 74090
" />
<path d="M70880 74880
L70940 74360
" />
<path d="M70970 74090
L70930 74130
L70960 74170
L71010 74130
L70970 74090
L70960 74170
" />
<path d="M71210 74360
L71510 74360
" />
<path d="M71350 74090
L71270 74770
L71300 74840
L71370 74880
L71450 74880
" />
<path d="M71820 74880
L71750 74840
L71720 74770
L71800 74090
" />
<path d="M72420 74840
L72340 74880
L72190 74880
L72120 74840
L72090 74770
L72130 74470
L72180 74390
L72250 74360
L72400 74360
L72480 74390
L72510 74470
L72500 74540
L72110 74620
" />
<path d="M72800 74810
L72840 74840
L72800 74880
L72760 74840
L72800 74810
L72800 74880
" />
<path d="M72860 74390
L72890 74430
L72850 74470
L72810 74430
L72860 74390
L72850 74470
" />
<path d="M74230 74810
L74190 74840
L74080 74880
L74000 74880
L73890 74840
L73830 74770
L73800 74690
L73780 74540
L73790 74430
L73850 74280
L73900 74210
L73980 74130
L74090 74090
L74170 74090
L74280 74130
L74310 74170
" />
<path d="M74550 74090
L75000 74090
" />
<path d="M74680 74880
L74770 74090
" />
<path d="M75150 74090
L75600 74090
" />
<path d="M75280 74880
L75370 74090
" />
<path d="M76350 74090
L76800 74090
" />
<path d="M76480 74880
L76570 74090
" />
<path d="M76970 74880
L77030 74360
" />
<path d="M77010 74510
L77060 74430
L77100 74390
L77180 74360
L77250 74360
" />
<path d="M77800 74880
L77850 74470
L77820 74390
L77740 74360
L77590 74360
L77520 74390
" />
<path d="M77800 74840
L77720 74880
L77530 74880
L77460 74840
L77430 74770
L77440 74690
L77490 74620
L77560 74580
L77750 74580
L77840 74540
" />
<path d="M78230 74360
L78170 74880
" />
<path d="M78220 74430
L78270 74390
L78340 74360
L78450 74360
L78530 74390
L78560 74470
L78510 74880
" />
<path d="M78840 74840
L78920 74880
L79070 74880
L79140 74840
L79190 74770
L79190 74730
L79160 74660
L79100 74620
L78980 74620
L78910 74580
L78880 74510
L78890 74470
L78940 74390
L79010 74360
L79130 74360
L79200 74390
" />
<path d="M79520 74880
L79580 74360
" />
<path d="M79610 74090
L79570 74130
L79600 74170
L79650 74130
L79610 74090
L79600 74170
" />
<path d="M79860 74840
L79940 74880
L80090 74880
L80160 74840
L80210 74770
L80210 74730
L80180 74660
L80120 74620
L80000 74620
L79930 74580
L79900 74510
L79910 74470
L79960 74390
L80030 74360
L80150 74360
L80220 74390
" />
<path d="M80490 74360
L80790 74360
" />
<path d="M80630 74090
L80550 74770
L80580 74840
L80650 74880
L80730 74880
" />
<path d="M81100 74880
L81030 74840
L80990 74810
L80960 74730
L80990 74510
L81040 74430
L81090 74390
L81160 74360
L81270 74360
L81350 74390
L81380 74430
L81400 74510
L81370 74730
L81330 74810
L81290 74840
L81210 74880
L81100 74880
" />
<path d="M81700 74880
L81760 74360
" />
<path d="M81740 74510
L81790 74430
L81830 74390
L81910 74360
L81980 74360
" />
<path d="M82740 74360
L83040 74360
" />
<path d="M82880 74090
L82800 74770
L82830 74840
L82900 74880
L82980 74880
" />
<path d="M83540 74840
L83460 74880
L83310 74880
L83240 74840
L83210 74770
L83250 74470
L83300 74390
L83370 74360
L83520 74360
L83600 74390
L83630 74470
L83620 74540
L83230 74620
" />
<path d="M83880 74840
L83960 74880
L84110 74880
L84180 74840
L84230 74770
L84230 74730
L84200 74660
L84140 74620
L84020 74620
L83950 74580
L83920 74510
L83930 74470
L83980 74390
L84050 74360
L84170 74360
L84240 74390
" />
<path d="M84510 74360
L84810 74360
" />
<path d="M84650 74090
L84570 74770
L84600 74840
L84670 74880
L84750 74880
" />
<path d="M85310 74840
L85230 74880
L85080 74880
L85010 74840
L84980 74770
L85020 74470
L85070 74390
L85140 74360
L85290 74360
L85370 74390
L85400 74470
L85390 74540
L85000 74620
" />
<path d="M85690 74880
L85750 74360
" />
<path d="M85730 74510
L85780 74430
L85820 74390
L85900 74360
L85970 74360
" />
<path d="M86810 74580
L87410 74580
" />
<path d="M88810 74810
L88770 74840
L88660 74880
L88580 74880
L88470 74840
L88410 74770
L88380 74690
L88360 74540
L88370 74430
L88430 74280
L88480 74210
L88560 74130
L88670 74090
L88750 74090
L88860 74130
L88890 74170
" />
<path d="M89130 74090
L89580 74090
" />
<path d="M89260 74880
L89350 74090
" />
<path d="M89730 74090
L90180 74090
" />
<path d="M89860 74880
L89950 74090
" />
<path d="M91010 74050
L90210 75070
" />
<path d="M91180 74880
L91270 74090
L91570 74090
L91640 74130
L91670 74170
L91710 74240
L91690 74360
L91640 74430
L91600 74470
L91520 74510
L91220 74510
" />
<path d="M91930 74840
L92040 74880
L92230 74880
L92310 74840
L92340 74810
L92390 74730
L92400 74660
L92370 74580
L92350 74540
L92270 74510
L92130 74470
L92060 74430
L92030 74390
L92000 74320
L92010 74240
L92050 74170
L92100 74130
L92170 74090
L92360 74090
L92470 74130
" />
<path d="M93120 74360
L93060 74880
" />
<path d="M92970 74050
L92710 74620
L93200 74620
" />
<path d="M94130 74360
L94030 75150
" />
<path d="M94130 74390
L94200 74360
L94350 74360
L94430 74390
L94460 74430
L94480 74510
L94450 74730
L94410 74810
L94370 74840
L94290 74880
L94140 74880
L94070 74840
" />
<path d="M94890 74880
L94820 74840
L94780 74810
L94750 74730
L94780 74510
L94830 74430
L94880 74390
L94950 74360
L95060 74360
L95140 74390
L95170 74430
L95190 74510
L95160 74730
L95120 74810
L95080 74840
L95000 74880
L94890 74880
" />
<path d="M95470 74360
L95560 74880
L95750 74510
L95860 74880
L96070 74360
" />
<path d="M96620 74840
L96540 74880
L96390 74880
L96320 74840
L96290 74770
L96330 74470
L96380 74390
L96450 74360
L96600 74360
L96680 74390
L96710 74470
L96700 74540
L96310 74620
" />
<path d="M97000 74880
L97060 74360
" />
<path d="M97040 74510
L97090 74430
L97130 74390
L97210 74360
L97280 74360
" />
<path d="M98050 74840
L98130 74880
L98280 74880
L98350 74840
L98400 74770
L98400 74730
L98370 74660
L98310 74620
L98190 74620
L98120 74580
L98090 74510
L98100 74470
L98150 74390
L98220 74360
L98340 74360
L98410 74390
" />
<path d="M99130 74360
L99070 74880
" />
<path d="M98790 74360
L98740 74770
L98770 74840
L98840 74880
L98950 74880
L99030 74840
L99070 74810
" />
<path d="M99500 74360
L99400 75150
" />
<path d="M99500 74390
L99570 74360
L99720 74360
L99800 74390
L99830 74430
L99850 74510
L99820 74730
L99780 74810
L99740 74840
L99660 74880
L99510 74880
L99440 74840
" />
<path d="M100210 74360
L100110 75150
" />
<path d="M100210 74390
L100280 74360
L100430 74360
L100510 74390
L100540 74430
L100560 74510
L100530 74730
L100490 74810
L100450 74840
L100370 74880
L100220 74880
L100150 74840
" />
<path d="M100970 74880
L100900 74840
L100870 74770
L100950 74090
" />
<path d="M101250 74360
L101380 74880
" />
<path d="M101630 74360
L101380 74880
L101280 75070
L101240 75110
L101150 75150
" />
<path d="M102870 74360
L102810 74880
" />
<path d="M102530 74360
L102480 74770
L102510 74840
L102580 74880
L102690 74880
L102770 74840
L102810 74810
" />
<path d="M103240 74360
L103180 74880
" />
<path d="M103230 74430
L103280 74390
L103350 74360
L103460 74360
L103540 74390
L103570 74470
L103520 74880
" />
<path d="M103890 74880
L103950 74360
" />
<path d="M103980 74090
L103940 74130
L103970 74170
L104020 74130
L103980 74090
L103970 74170
" />
<path d="M104220 74360
L104520 74360
" />
<path d="M104360 74090
L104280 74770
L104310 74840
L104380 74880
L104460 74880
" />
</g>
<g style="fill:#000000; fill-opacity:0.0; 
stroke:#000000; stroke-width:100; stroke-opacity:1; 
stroke-linecap:round; stroke-linejoin:round;">
</g>
<g style="fill:#000000; fill-opacity:0.0; 
stroke:#000000; stroke-width:60; stroke-opacity:1; 
stroke-linecap:round; stroke-linejoin:round;">
<path d="M70420 73060
L70220 73060
" />
<path d="M70220 73370
L70220 72780
L70500 72780
" />
<path d="M70730 73370
L70730 72980
" />
<path d="M70730 72780
L70700 72810
L70730 72840
L70760 72810
L70730 72780
L70730 72840
" />
<path d="M71090 73370
L71040 73340
L71010 73290
L71010 72780
" />
<path d="M71550 73340
L71490 73370
L71380 73370
L71320 73340
L71290 73290
L71290 73060
L71320 73010
L71380 72980
L71490 72980
L71550 73010
L71570 73060
L71570 73120
L71290 73180
" />
<path d="M71830 73320
L71860 73340
L71830 73370
L71800 73340
L71830 73320
L71830 73370
" />
<path d="M71830 73010
L71860 73030
L71830 73060
L71800 73030
L71830 73010
L71830 73060
" />
<path d="M72810 73340
L72760 73370
L72640 73370
L72590 73340
L72560 73320
L72530 73260
L72530 73090
L72560 73030
L72590 73010
L72640 72980
L72760 72980
L72810 73010
" />
<path d="M72990 72980
L73210 72980
" />
<path d="M73070 72780
L73070 73290
L73100 73340
L73150 73370
L73210 73370
" />
<path d="M73330 72980
L73550 72980
" />
<path d="M73410 72780
L73410 73290
L73440 73340
L73490 73370
L73550 73370
" />
<path d="M73610 73430
L74060 73430
" />
<path d="M74200 72980
L74200 73570
" />
<path d="M74200 73010
L74260 72980
L74370 72980
L74430 73010
L74450 73030
L74480 73090
L74480 73260
L74450 73320
L74430 73340
L74370 73370
L74260 73370
L74200 73340
" />
<path d="M74700 73340
L74760 73370
L74870 73370
L74930 73340
L74960 73290
L74960 73260
L74930 73200
L74870 73180
L74790 73180
L74730 73150
L74700 73090
L74700 73060
L74730 73010
L74790 72980
L74870 72980
L74930 73010
" />
<path d="M75460 72980
L75460 73370
" />
<path d="M75320 72750
L75180 73180
L75550 73180
" />
<path d="M75770 73320
L75800 73340
L75770 73370
L75740 73340
L75770 73320
L75770 73370
" />
<path d="M76020 73340
L76080 73370
L76190 73370
L76250 73340
L76280 73290
L76280 73260
L76250 73200
L76190 73180
L76110 73180
L76050 73150
L76020 73090
L76020 73060
L76050 73010
L76110 72980
L76190 72980
L76250 73010
" />
<path d="M76780 73340
L76730 73370
L76610 73370
L76560 73340
L76530 73320
L76500 73260
L76500 73090
L76530 73030
L76560 73010
L76610 72980
L76730 72980
L76780 73010
" />
<path d="M77040 73370
L77040 72780
" />
<path d="M77290 73370
L77290 73060
L77270 73010
L77210 72980
L77120 72980
L77070 73010
L77040 73030
" />
</g>
<g style="fill:#000000; fill-opacity:0.0; 
stroke:#000000; stroke-width:100; stroke-opacity:1; 
stroke-linecap:round; stroke-linejoin:round;">
</g>
<g style="fill:#000000; fill-opacity:0.0; 
stroke:#000000; stroke-width:60; stroke-opacity:1; 
stroke-linecap:round; stroke-linejoin:round;">
<path d="M69690 71460
L112210 71460
" />
</g>
<g style="fill:#000000; fill-opacity:0.0; 
stroke:#000000; stroke-width:100; stroke-opacity:1; 
stroke-linecap:round; stroke-linejoin:round;">
</g>
<g style="fill:#000000; fill-opacity:0.0; 
stroke:#000000; stroke-width:60; stroke-opacity:1; 
stroke-linecap:round; stroke-linejoin:round;">
<path d="M70190 72280
L70280 72310
L70420 72310
L70470 72280
L70500 72260
L70530 72200
L70530 72140
L70500 72090
L70470 72060
L70420 72030
L70300 72000
L70250 71970
L70220 71950
L70190 71890
L70190 71830
L70220 71780
L70250 71750
L70300 71720
L70450 71720
L70530 71750
" />
<path d="M70780 72310
L70780 71720
" />
<path d="M71030 72310
L71030 72000
L71010 71950
L70950 71920
L70860 71920
L70810 71950
L70780 71970
" />
<path d="M71540 72280
L71480 72310
L71370 72310
L71310 72280
L71280 72230
L71280 72000
L71310 71950
L71370 71920
L71480 71920
L71540 71950
L71560 72000
L71560 72060
L71280 72120
" />
<path d="M72050 72280
L71990 72310
L71880 72310
L71820 72280
L71790 72230
L71790 72000
L71820 71950
L71880 71920
L71990 71920
L72050 71950
L72070 72000
L72070 72060
L71790 72120
" />
<path d="M72250 71920
L72470 71920
" />
<path d="M72330 71720
L72330 72230
L72360 72280
L72410 72310
L72470 72310
" />
<path d="M72670 72260
L72700 72280
L72670 72310
L72640 72280
L72670 72260
L72670 72310
" />
<path d="M72670 71950
L72700 71970
L72670 72000
L72640 71970
L72670 71950
L72670 72000
" />
<path d="M73820 71690
L73320 72450
" />
<path d="M74360 72260
L74330 72280
L74250 72310
L74190 72310
L74100 72280
L74050 72230
L74020 72170
L73990 72060
L73990 71970
L74020 71860
L74050 71810
L74100 71750
L74190 71720
L74250 71720
L74330 71750
L74360 71780
" />
<path d="M74530 71720
L74860 71720
" />
<path d="M74690 72310
L74690 71720
" />
<path d="M74980 71720
L75310 71720
" />
<path d="M75140 72310
L75140 71720
" />
<path d="M75930 71690
L75430 72450
" />
<path d="M76130 72310
L76130 71720
L76360 71720
L76410 71750
L76440 71780
L76470 71830
L76470 71920
L76440 71970
L76410 72000
L76360 72030
L76130 72030
" />
<path d="M76690 72280
L76780 72310
L76920 72310
L76970 72280
L77000 72260
L77030 72200
L77030 72140
L77000 72090
L76970 72060
L76920 72030
L76800 72000
L76750 71970
L76720 71950
L76690 71890
L76690 71830
L76720 71780
L76750 71750
L76800 71720
L76950 71720
L77030 71750
" />
<path d="M77530 71920
L77530 72310
" />
<path d="M77390 71690
L77250 72120
L77620 72120
" />
<path d="M78260 71690
L77760 72450
" />
</g>
<g style="fill:#000000; fill-opacity:0.0; 
stroke:#000000; stroke-width:100; stroke-opacity:1; 
stroke-linecap:round; stroke-linejoin:round;">
</g>
<g style="fill:#000000; fill-opacity:0.0; 
stroke:#000000; stroke-width:120; stroke-opacity:1; 
stroke-linecap:round; stroke-linejoin:round;">
<path d="M70220 71130
L70220 70540
L70450 70540
L70500 70570
L70530 70600
L70560 70650
L70560 70740
L70530 70790
L70500 70820
L70450 70850
L70220 70850
" />
<path d="M70890 71130
L70840 71100
L70810 71080
L70780 71020
L70780 70850
L70810 70790
L70840 70770
L70890 70740
L70980 70740
L71040 70770
L71060 70790
L71090 70850
L71090 71020
L71060 71080
L71040 71100
L70980 71130
L70890 71130
" />
<path d="M71280 70740
L71590 70740
L71280 71130
L71590 71130
" />
<path d="M71790 71100
L71850 71130
L71960 71130
L72020 71100
L72050 71050
L72050 71020
L72020 70960
L71960 70940
L71880 70940
L71820 70910
L71790 70850
L71790 70820
L71820 70770
L71880 70740
L71960 70740
L72020 70770
" />
<path d="M72550 71130
L72550 70820
L72530 70770
L72470 70740
L72360 70740
L72300 70770
" />
<path d="M72550 71100
L72500 71130
L72360 71130
L72300 71100
L72270 71050
L72270 70990
L72300 70940
L72360 70910
L72500 70910
L72550 70880
" />
<path d="M72830 71130
L72830 70740
" />
<path d="M72830 70850
L72860 70790
L72890 70770
L72940 70740
L73000 70740
" />
<path d="M73590 70540
L73990 70540
L73590 71130
L73990 71130
" />
<path d="M74180 71100
L74240 71130
L74350 71130
L74410 71100
L74440 71050
L74440 71020
L74410 70960
L74350 70940
L74270 70940
L74210 70910
L74180 70850
L74180 70820
L74210 70770
L74270 70740
L74350 70740
L74410 70770
" />
<path d="M74770 71130
L74720 71100
L74690 71080
L74660 71020
L74660 70850
L74690 70790
L74720 70770
L74770 70740
L74860 70740
L74920 70770
L74940 70790
L74970 70850
L74970 71020
L74940 71080
L74920 71100
L74860 71130
L74770 71130
" />
<path d="M75300 71130
L75250 71100
L75220 71050
L75220 70540
" />
<path d="M75450 70740
L75670 70740
" />
<path d="M75530 70540
L75530 71050
L75560 71100
L75610 71130
L75670 71130
" />
</g>
<g style="fill:#000000; fill-opacity:0.0; 
stroke:#000000; stroke-width:100; stroke-opacity:1; 
stroke-linecap:round; stroke-linejoin:round;">
</g>
<g style="fill:#000000; fill-opacity:0.0; 
stroke:#000000; stroke-width:60; stroke-opacity:1; 
stroke-linecap:round; stroke-linejoin:round;">
<path d="M70220 69950
L70220 69360
L70360 69360
L70450 69390
L70500 69450
L70530 69500
L70560 69610
L70560 69700
L70530 69810
L70500 69870
L70450 69920
L70360 69950
L70220 69950
" />
<path d="M70810 69950
L70810 69560
" />
<path d="M70810 69670
L70840 69610
L70870 69590
L70920 69560
L70980 69560
" />
<path d="M71430 69950
L71430 69640
L71410 69590
L71350 69560
L71240 69560
L71180 69590
" />
<path d="M71430 69920
L71380 69950
L71240 69950
L71180 69920
L71150 69870
L71150 69810
L71180 69760
L71240 69730
L71380 69730
L71430 69700
" />
<path d="M71650 69560
L71770 69950
L71880 69670
L71990 69950
L72100 69560
" />
<path d="M72780 69560
L72780 69950
" />
<path d="M72780 69610
L72810 69590
L72860 69560
L72950 69560
L73010 69590
L73030 69640
L73030 69950
" />
<path d="M73560 69560
L73560 69950
" />
<path d="M73310 69560
L73310 69870
L73340 69920
L73390 69950
L73480 69950
L73540 69920
L73560 69900
" />
<path d="M73840 69950
L73840 69560
" />
<path d="M73840 69610
L73870 69590
L73920 69560
L74010 69560
L74070 69590
L74090 69640
L74090 69950
" />
<path d="M74090 69640
L74120 69590
L74180 69560
L74260 69560
L74320 69590
L74350 69640
L74350 69950
" />
<path d="M74630 69950
L74630 69360
" />
<path d="M74630 69590
L74690 69560
L74800 69560
L74860 69590
L74880 69610
L74910 69670
L74910 69840
L74880 69900
L74860 69920
L74800 69950
L74690 69950
L74630 69920
" />
<path d="M75390 69920
L75330 69950
L75220 69950
L75160 69920
L75130 69870
L75130 69640
L75160 69590
L75220 69560
L75330 69560
L75390 69590
L75410 69640
L75410 69700
L75130 69760
" />
<path d="M75670 69950
L75670 69560
" />
<path d="M75670 69670
L75700 69610
L75730 69590
L75780 69560
L75840 69560
" />
<path d="M76040 69900
L76070 69920
L76040 69950
L76010 69920
L76040 69900
L76040 69950
" />
<path d="M76040 69590
L76070 69610
L76040 69640
L76010 69610
L76040 69590
L76040 69640
" />
<path d="M77110 69900
L77080 69920
L77000 69950
L76940 69950
L76850 69920
L76800 69870
L76770 69810
L76740 69700
L76740 69610
L76770 69500
L76800 69450
L76850 69390
L76940 69360
L77000 69360
L77080 69390
L77110 69420
" />
<path d="M77280 69360
L77610 69360
" />
<path d="M77440 69950
L77440 69360
" />
<path d="M77730 69360
L78060 69360
" />
<path d="M77890 69950
L77890 69360
" />
<path d="M78680 69330
L78180 70090
" />
<path d="M78850 69420
L78880 69390
L78940 69360
L79080 69360
L79130 69390
L79160 69420
L79190 69470
L79190 69530
L79160 69610
L78820 69950
L79190 69950
" />
<path d="M79550 69360
L79610 69360
L79670 69390
L79690 69420
L79720 69470
L79750 69590
L79750 69730
L79720 69840
L79690 69900
L79670 69920
L79610 69950
L79550 69950
L79500 69920
L79470 69900
L79440 69840
L79410 69730
L79410 69590
L79440 69470
L79470 69420
L79500 69390
L79550 69360
" />
</g>
<g style="fill:#000000; fill-opacity:0.0; 
stroke:#000000; stroke-width:100; stroke-opacity:1; 
stroke-linecap:round; stroke-linejoin:round;">
</g>
<g style="fill:#000000; fill-opacity:0.0; 
stroke:#000000; stroke-width:60; stroke-opacity:1; 
stroke-linecap:round; stroke-linejoin:round;">
<path d="M77560 75400
L77560 76580
" />
</g>
<g style="fill:#000000; fill-opacity:0.0; 
stroke:#000000; stroke-width:100; stroke-opacity:1; 
stroke-linecap:round; stroke-linejoin:round;">
</g>
<g style="fill:#000000; fill-opacity:0.0; 
stroke:#000000; stroke-width:60; stroke-opacity:1; 
stroke-linecap:round; stroke-linejoin:round;">
<path d="M102760 75400
L102760 77960
" />
<path d="M65000 19500
L54500 19500
" />
<path d="M74000 16000
L74000 24000
" />
</g>
<g style="fill:#000000; fill-opacity:0.0; 
stroke:#000000; stroke-width:60; stroke-opacity:1; 
stroke-linecap:round; stroke-linejoin:round;stroke-dasharray:136.85,158.425;">
<path d="M67500 12500
L67500 18500
" />
</g>
<g style="fill:#000000; fill-opacity:0.0; 
stroke:#000000; stroke-width:60; stroke-opacity:1; 
stroke-linecap:round; stroke-linejoin:round;">
<path d="M76000 19500
L70000 19500
" />
<path d="M57000 12500
L54500 12500
" />
<path d="M54500 12500
L54500 13000
" />
</g>
<g style="fill:#000000; fill-opacity:0.0; 
stroke:#000000; stroke-width:0; stroke-opacity:1; 
stroke-linecap:round; stroke-linejoin:round;">
</g>
<g style="fill:#000000; fill-opacity:1.0; 
stroke:#000000; stroke-width:100; stroke-opacity:1; 
stroke-linecap:round; stroke-linejoin:round;">
<circle cx="52500" cy="45000" r="200" /> 
</g>
<g style="fill:#000000; fill-opacity:1.0; 
stroke:#000000; stroke-width:0; stroke-opacity:1; 
stroke-linecap:round; stroke-linejoin:round;">
</g>
<g style="fill:#000000; fill-opacity:1.0; 
stroke:#000000; stroke-width:100; stroke-opacity:1; 
stroke-linecap:round; stroke-linejoin:round;">
<circle cx="52500" cy="60500" r="200" /> 
</g>
<g style="fill:#000000; fill-opacity:1.0; 
stroke:#000000; stroke-width:60; stroke-opacity:1; 
stroke-linecap:round; stroke-linejoin:round;">
</g>
<g style="fill:#000000; fill-opacity:0.0; 
stroke:#000000; stroke-width:60; stroke-opacity:1; 
stroke-linecap:round; stroke-linejoin:round;">
<path d="M47500 60500
L52500 60500
" />
<path d="M47500 53500
L52500 53500
" />
<path d="M52500 53500
L52500 54000
" />
<path d="M52500 60000
L52500 61000
" />
<path d="M52500 67000
L52500 67500
" />
<path d="M52500 67500
L47500 67500
" />
<path d="M47500 52000
L52500 52000
" />
<path d="M52500 52000
L52500 51500
" />
<path d="M52500 38500
L52500 38000
" />
<path d="M52500 38000
L47500 38000
" />
<path d="M52500 44500
L52500 45500
" />
<path d="M47500 45000
L52500 45000
" />
<path d="M47500 36500
L52500 36500
" />
<path d="M52500 36500
L52500 36000
" />
<path d="M47500 29500
L52500 29500
" />
<path d="M52500 29500
L52500 30000
" />
<path d="M52500 21500
L52500 21000
" />
<path d="M52500 21000
L47500 21000
" />
<path d="M52500 27500
L52500 28000
" />
<path d="M52500 28000
L47500 28000
" />
<path d="M47500 19500
L52500 19500
" />
<path d="M52500 19500
L52500 19000
" />
<path d="M47500 12500
L52500 12500
" />
<path d="M52500 12500
L52500 13000
" />
</g>
<g style="fill:#000000; fill-opacity:0.0; 
stroke:#000000; stroke-width:60; stroke-opacity:1; 
stroke-linecap:round; stroke-linejoin:round;stroke-dasharray:136.85,158.425;">
<path d="M53500 14000
L53500 66000
" />
</g>
<g style="fill:#000000; fill-opacity:0.0; 
stroke:#000000; stroke-width:60; stroke-opacity:1; 
stroke-linecap:round; stroke-linejoin:round;">
<path d="M54500 19500
L54500 19000
" />
<path d="M70000 12500
L76000 12500
" />
<path d="M47500 69000
L58000 69000
" />
<path d="M58000 69000
L58000 22500
" />
<path d="M58000 22500
L74000 22500
" />
<path d="M74000 16000
L76000 16000
" />
</g>
<g style="fill:#000000; fill-opacity:0.0; 
stroke:#000000; stroke-width:0; stroke-opacity:1; 
stroke-linecap:round; stroke-linejoin:round;">
</g>
<g style="fill:#000000; fill-opacity:1.0; 
stroke:#000000; stroke-width:100; stroke-opacity:1; 
stroke-linecap:round; stroke-linejoin:round;">
<circle cx="74000" cy="22500" r="200" /> 
</g>
<g style="fill:#000000; fill-opacity:1.0; 
stroke:#000000; stroke-width:60; stroke-opacity:1; 
stroke-linecap:round; stroke-linejoin:round;">
</g>
<g style="fill:#000000; fill-opacity:0.0; 
stroke:#000000; stroke-width:60; stroke-opacity:1; 
stroke-linecap:round; stroke-linejoin:round;">
<path d="M65000 12500
L62000 12500
" />
</g>
<g style="fill:#000000; fill-opacity:0.0; 
stroke:#000000; stroke-width:0; stroke-opacity:1; 
stroke-linecap:round; stroke-linejoin:round;">
</g>
<g style="fill:#000000; fill-opacity:0.0; 
stroke:#000000; stroke-width:60; stroke-opacity:1; 
stroke-linecap:round; stroke-linejoin:round;">
<polyline fill="none;"
points="73500,24000
74000,24500
74500,24000
73500,24000
" /> 
</g>
<g style="fill:#000000; fill-opacity:0.0; 
stroke:#000000; stroke-width:0; stroke-opacity:1; 
stroke-linecap:round; stroke-linejoin:round;">
</g>
<g style="fill:#000000; fill-opacity:0.0; 
stroke:#000000; stroke-width:60; stroke-opacity:1; 
stroke-linecap:round; stroke-linejoin:round;">
<circle cx="66500" cy="19500" r="250" /> 
<circle cx="68500" cy="19500" r="250" /> 
<polyline fill="none;"
points="66000,19500
66200,19500
" /> 
<polyline fill="none;"
points="66800,19300
68300,18600
" /> 
<polyline fill="none;"
points="69000,19500
68800,19500
" /> 
<path d="M66000 19500
L65000 19500
" />
<path d="M69000 19500
L70000 19500
" />
<path d="M66610 21230
L66680 21260
L66800 21260
L66840 21230
L66870 21210
L66890 21160
L66890 21110
L66870 21070
L66840 21040
L66800 21020
L66700 20990
L66650 20970
L66630 20950
L66610 20900
L66610 20850
L66630 20800
L66650 20780
L66700 20760
L66820 20760
L66890 20780
" />
<path d="M67060 20760
L67180 21260
L67280 20900
L67370 21260
L67490 20760
" />
<path d="M67940 21260
L67660 21260
" />
<path d="M67800 21260
L67800 20760
L67750 20830
L67700 20880
L67660 20900
" />
<path d="M68160 21260
L68160 20760
" />
<path d="M68160 20950
L68210 20920
L68300 20920
L68350 20950
L68370 20970
L68400 21020
L68400 21160
L68370 21210
L68350 21230
L68300 21260
L68210 21260
L68160 21230
" />
</g>
<g style="fill:#000000; fill-opacity:0.0; 
stroke:#000000; stroke-width:0; stroke-opacity:1; 
stroke-linecap:round; stroke-linejoin:round;">
</g>
<g style="fill:#000000; fill-opacity:0.0; 
stroke:#000000; stroke-width:60; stroke-opacity:1; 
stroke-linecap:round; stroke-linejoin:round;">
<circle cx="66500" cy="12500" r="250" /> 
<circle cx="68500" cy="12500" r="250" /> 
<polyline fill="none;"
points="66000,12500
66200,12500
" /> 
<polyline fill="none;"
points="66800,12300
68300,11600
" /> 
<polyline fill="none;"
points="69000,12500
68800,12500
" /> 
<path d="M66000 12500
L65000 12500
" />
<path d="M69000 12500
L70000 12500
" />
<path d="M66610 10730
L66680 10760
L66800 10760
L66840 10730
L66870 10710
L66890 10660
L66890 10610
L66870 10570
L66840 10540
L66800 10520
L66700 10490
L66650 10470
L66630 10450
L66610 10400
L66610 10350
L66630 10300
L66650 10280
L66700 10260
L66820 10260
L66890 10280
" />
<path d="M67060 10260
L67180 10760
L67280 10400
L67370 10760
L67490 10260
" />
<path d="M67940 10760
L67660 10760
" />
<path d="M67800 10760
L67800 10260
L67750 10330
L67700 10380
L67660 10400
" />
<path d="M68370 10760
L68370 10490
L68350 10450
L68300 10420
L68210 10420
L68160 10450
" />
<path d="M68370 10730
L68330 10760
L68210 10760
L68160 10730
L68140 10680
L68140 10640
L68160 10590
L68210 10570
L68330 10570
L68370 10540
" />
</g>
<g style="fill:#000000; fill-opacity:0.0; 
stroke:#000000; stroke-width:0; stroke-opacity:1; 
stroke-linecap:round; stroke-linejoin:round;">
</g>
<g style="fill:#000000; fill-opacity:0.0; 
stroke:#000000; stroke-width:80; stroke-opacity:1; 
stroke-linecap:round; stroke-linejoin:round;">
<rect x="58000" y="12100" width="3000" height="800" rx="0" />
</g>
<g style="fill:#000000; fill-opacity:0.0; 
stroke:#000000; stroke-width:60; stroke-opacity:1; 
stroke-linecap:round; stroke-linejoin:round;">
<line x1="58000" y1="12500" x2="61000" y2="12500" />
<path d="M61000 12500
L62000 12500
" />
<path d="M58000 12500
L57000 12500
" />
<path d="M59340 11420
L59170 11420
" />
<path d="M59170 11690
L59170 11190
L59410 11190
" />
<path d="M59860 11690
L59580 11690
" />
<path d="M59720 11690
L59720 11190
L59670 11260
L59620 11310
L59580 11330
" />
<path d="M58020 13190
L57780 13190
L57760 13420
L57780 13400
L57830 13380
L57950 13380
L57990 13400
L58020 13420
L58040 13470
L58040 13590
L58020 13640
L57990 13660
L57950 13690
L57830 13690
L57780 13660
L57760 13640
" />
<path d="M58350 13190
L58400 13190
L58450 13210
L58470 13230
L58500 13280
L58520 13380
L58520 13500
L58500 13590
L58470 13640
L58450 13660
L58400 13690
L58350 13690
L58310 13660
L58280 13640
L58260 13590
L58240 13500
L58240 13380
L58260 13280
L58280 13230
L58310 13210
L58350 13190
" />
<path d="M58830 13190
L58880 13190
L58930 13210
L58950 13230
L58980 13280
L59000 13380
L59000 13500
L58980 13590
L58950 13640
L58930 13660
L58880 13690
L58830 13690
L58790 13660
L58760 13640
L58740 13590
L58720 13500
L58720 13380
L58740 13280
L58760 13230
L58790 13210
L58830 13190
" />
<path d="M59600 13690
L59600 13350
" />
<path d="M59600 13400
L59620 13380
L59670 13350
L59740 13350
L59790 13380
L59810 13420
L59810 13690
" />
<path d="M59810 13420
L59840 13380
L59880 13350
L59960 13350
L60000 13380
L60030 13420
L60030 13690
" />
<path d="M60250 13540
L60480 13540
" />
<path d="M60200 13690
L60360 13190
L60530 13690
" />
<path d="M61010 13190
L61290 13190
" />
<path d="M61150 13690
L61150 13190
" />
<path d="M52800 10730
L53080 10730
" />
<path d="M52940 11230
L52940 10730
" />
<path d="M53250 11230
L53250 10890
" />
<path d="M53250 10990
L53270 10940
L53300 10920
L53340 10890
L53390 10890
" />
<path d="M53820 11230
L53540 11230
" />
<path d="M53680 11230
L53680 10730
L53630 10800
L53580 10850
L53540 10870
" />
<path d="M51210 67470
L50860 67470
" />
<path d="M51040 67470
L51040 66870
L50980 66960
L50920 67010
L50860 67040
" />
<path d="M51720 67070
L51720 67470
" />
<path d="M51580 66840
L51430 67270
L51810 67270
" />
<path d="M51210 60470
L50860 60470
" />
<path d="M51040 60470
L51040 59870
L50980 59960
L50920 60010
L50860 60040
" />
<path d="M51410 59870
L51780 59870
L51580 60100
L51660 60100
L51720 60130
L51750 60160
L51780 60210
L51780 60360
L51750 60410
L51720 60440
L51660 60470
L51490 60470
L51430 60440
L51410 60410
" />
<path d="M55110 18930
L55140 18900
L55200 18870
L55340 18870
L55400 18900
L55430 18930
L55460 18990
L55460 19040
L55430 19130
L55090 19470
L55460 19470
" />
<path d="M55460 12470
L55110 12470
" />
<path d="M55290 12470
L55290 11870
L55230 11960
L55170 12010
L55110 12040
" />
<path d="M51210 51970
L50860 51970
" />
<path d="M51040 51970
L51040 51370
L50980 51460
L50920 51510
L50860 51540
" />
<path d="M51780 51970
L51430 51970
" />
<path d="M51610 51970
L51610 51370
L51550 51460
L51490 51510
L51430 51540
" />
<path d="M51210 44970
L50860 44970
" />
<path d="M51040 44970
L51040 44370
L50980 44460
L50920 44510
L50860 44540
" />
<path d="M51580 44370
L51630 44370
L51690 44400
L51720 44430
L51750 44490
L51780 44600
L51780 44740
L51750 44860
L51720 44910
L51690 44940
L51630 44970
L51580 44970
L51520 44940
L51490 44910
L51460 44860
L51430 44740
L51430 44600
L51460 44490
L51490 44430
L51520 44400
L51580 44370
" />
</g>
<g style="fill:#000000; fill-opacity:0.0; 
stroke:#000000; stroke-width:0; stroke-opacity:1; 
stroke-linecap:round; stroke-linejoin:round;">
</g>
<g style="fill:#000000; fill-opacity:0.0; 
stroke:#000000; stroke-width:60; stroke-opacity:1; 
stroke-linecap:round; stroke-linejoin:round;">
<path d="M52509.6 55999.9 A500 500 0.0 0 0 52509.6 55000.1 " />
<path d="M52509.8 57019.9 A510 510 0.0 0 0 52509.8 56000.1 " />
<path d="M52509.8 58019.9 A510 510 0.0 0 0 52509.8 57000.1 " />
<path d="M52509.2 58959.9 A480 480 0.0 0 0 52509.2 58000.1 " />
<path d="M52500 59000
L52500 60000
" />
<path d="M52500 55000
L52500 54000
" />
<path d="M51690 57300
L51710 57250
L51710 57150
L51690 57110
L51670 57090
L51630 57080
L51600 57080
L51560 57090
L51540 57110
L51520 57150
L51500 57230
L51480 57270
L51460 57280
L51430 57300
L51390 57300
L51350 57280
L51330 57270
L51310 57230
L51310 57130
L51330 57080
" />
<path d="M51310 56730
L51310 56810
L51330 56850
L51350 56870
L51410 56900
L51480 56920
L51630 56920
L51670 56900
L51690 56890
L51710 56850
L51710 56770
L51690 56730
L51670 56710
L51630 56700
L51540 56700
L51500 56710
L51480 56730
L51460 56770
L51460 56850
L51480 56890
L51500 56900
L51540 56920
" />
</g>
<g style="fill:#000000; fill-opacity:0.0; 
stroke:#000000; stroke-width:0; stroke-opacity:1; 
stroke-linecap:round; stroke-linejoin:round;">
</g>
<g style="fill:#000000; fill-opacity:0.0; 
stroke:#000000; stroke-width:60; stroke-opacity:1; 
stroke-linecap:round; stroke-linejoin:round;">
<path d="M52509.6 62999.9 A500 500 0.0 0 0 52509.6 62000.1 " />
<path d="M52509.8 64019.9 A510 510 0.0 0 0 52509.8 63000.1 " />
<path d="M52509.8 65019.9 A510 510 0.0 0 0 52509.8 64000.1 " />
<path d="M52509.2 65959.9 A480 480 0.0 0 0 52509.2 65000.1 " />
<path d="M52500 66000
L52500 67000
" />
<path d="M52500 62000
L52500 61000
" />
<path d="M51690 64300
L51710 64250
L51710 64150
L51690 64110
L51670 64090
L51630 64080
L51600 64080
L51560 64090
L51540 64110
L51520 64150
L51500 64230
L51480 64270
L51460 64280
L51430 64300
L51390 64300
L51350 64280
L51330 64270
L51310 64230
L51310 64130
L51330 64080
" />
<path d="M51310 63940
L51310 63680
L51710 63850
" />
<path d="M51210 53470
L50860 53470
" />
<path d="M51040 53470
L51040 52870
L50980 52960
L50920 53010
L50860 53040
" />
<path d="M51430 52930
L51460 52900
L51520 52870
L51660 52870
L51720 52900
L51750 52930
L51780 52990
L51780 53040
L51750 53130
L51410 53470
L51780 53470
" />
<path d="M51670 37970
L51790 37970
L51840 37940
L51870 37910
L51930 37830
L51960 37710
L51960 37490
L51930 37430
L51900 37400
L51840 37370
L51730 37370
L51670 37400
L51640 37430
L51610 37490
L51610 37630
L51640 37690
L51670 37710
L51730 37740
L51840 37740
L51900 37710
L51930 37690
L51960 37630
" />
</g>
<g style="fill:#000000; fill-opacity:0.0; 
stroke:#000000; stroke-width:0; stroke-opacity:1; 
stroke-linecap:round; stroke-linejoin:round;">
</g>
<g style="fill:#000000; fill-opacity:0.0; 
stroke:#000000; stroke-width:60; stroke-opacity:1; 
stroke-linecap:round; stroke-linejoin:round;">
<path d="M52509.6 47499.9 A500 500 0.0 0 0 52509.6 46500.1 " />
<path d="M52509.8 48519.9 A510 510 0.0 0 0 52509.8 47500.1 " />
<path d="M52509.8 49519.9 A510 510 0.0 0 0 52509.8 48500.1 " />
<path d="M52509.2 50459.9 A480 480 0.0 0 0 52509.2 49500.1 " />
<path d="M52500 50500
L52500 51500
" />
<path d="M52500 46500
L52500 45500
" />
<path d="M51690 48800
L51710 48750
L51710 48650
L51690 48610
L51670 48590
L51630 48580
L51600 48580
L51560 48590
L51540 48610
L51520 48650
L51500 48730
L51480 48770
L51460 48780
L51430 48800
L51390 48800
L51350 48780
L51330 48770
L51310 48730
L51310 48630
L51330 48580
" />
<path d="M51310 48210
L51310 48400
L51500 48420
L51480 48400
L51460 48370
L51460 48270
L51480 48230
L51500 48210
L51540 48200
L51630 48200
L51670 48210
L51690 48230
L51710 48270
L51710 48370
L51690 48400
L51670 48420
" />
</g>
<g style="fill:#000000; fill-opacity:0.0; 
stroke:#000000; stroke-width:0; stroke-opacity:1; 
stroke-linecap:round; stroke-linejoin:round;">
</g>
<g style="fill:#000000; fill-opacity:0.0; 
stroke:#000000; stroke-width:60; stroke-opacity:1; 
stroke-linecap:round; stroke-linejoin:round;">
<path d="M52509.6 40499.9 A500 500 0.0 0 0 52509.6 39500.1 " />
<path d="M52509.8 41519.9 A510 510 0.0 0 0 52509.8 40500.1 " />
<path d="M52509.8 42519.9 A510 510 0.0 0 0 52509.8 41500.1 " />
<path d="M52509.2 43459.9 A480 480 0.0 0 0 52509.2 42500.1 " />
<path d="M52500 43500
L52500 44500
" />
<path d="M52500 39500
L52500 38500
" />
<path d="M51690 41800
L51710 41750
L51710 41650
L51690 41610
L51670 41590
L51630 41580
L51600 41580
L51560 41590
L51540 41610
L51520 41650
L51500 41730
L51480 41770
L51460 41780
L51430 41800
L51390 41800
L51350 41780
L51330 41770
L51310 41730
L51310 41630
L51330 41580
" />
<path d="M51440 41230
L51710 41230
" />
<path d="M51290 41330
L51580 41420
L51580 41180
" />
<path d="M51590 28870
L51990 28870
L51730 29470
" />
<path d="M51730 36130
L51670 36100
L51640 36070
L51610 36010
L51610 35990
L51640 35930
L51670 35900
L51730 35870
L51840 35870
L51900 35900
L51930 35930
L51960 35990
L51960 36010
L51930 36070
L51900 36100
L51840 36130
L51730 36130
L51670 36160
L51640 36190
L51610 36240
L51610 36360
L51640 36410
L51670 36440
L51730 36470
L51840 36470
L51900 36440
L51930 36410
L51960 36360
L51960 36240
L51930 36190
L51900 36160
L51840 36130
" />
<path d="M51900 27370
L51790 27370
L51730 27400
L51700 27430
L51640 27510
L51610 27630
L51610 27860
L51640 27910
L51670 27940
L51730 27970
L51840 27970
L51900 27940
L51930 27910
L51960 27860
L51960 27710
L51930 27660
L51900 27630
L51840 27600
L51730 27600
L51670 27630
L51640 27660
L51610 27710
" />
<path d="M51930 20370
L51640 20370
L51610 20660
L51640 20630
L51700 20600
L51840 20600
L51900 20630
L51930 20660
L51960 20710
L51960 20860
L51930 20910
L51900 20940
L51840 20970
L51700 20970
L51640 20940
L51610 20910
" />
</g>
<g style="fill:#000000; fill-opacity:0.0; 
stroke:#000000; stroke-width:0; stroke-opacity:1; 
stroke-linecap:round; stroke-linejoin:round;">
</g>
<g style="fill:#000000; fill-opacity:0.0; 
stroke:#000000; stroke-width:60; stroke-opacity:1; 
stroke-linecap:round; stroke-linejoin:round;">
<path d="M52509.6 31999.9 A500 500 0.0 0 0 52509.6 31000.1 " />
<path d="M52509.8 33019.9 A510 510 0.0 0 0 52509.8 32000.1 " />
<path d="M52509.8 34019.9 A510 510 0.0 0 0 52509.8 33000.1 " />
<path d="M52509.2 34959.9 A480 480 0.0 0 0 52509.2 34000.1 " />
<path d="M52500 35000
L52500 36000
" />
<path d="M52500 31000
L52500 30000
" />
<path d="M51690 33300
L51710 33250
L51710 33150
L51690 33110
L51670 33090
L51630 33080
L51600 33080
L51560 33090
L51540 33110
L51520 33150
L51500 33230
L51480 33270
L51460 33280
L51430 33300
L51390 33300
L51350 33280
L51330 33270
L51310 33230
L51310 33130
L51330 33080
" />
<path d="M51310 32940
L51310 32700
L51460 32830
L51460 32770
L51480 32730
L51500 32710
L51540 32700
L51630 32700
L51670 32710
L51690 32730
L51710 32770
L51710 32890
L51690 32920
L51670 32940
" />
</g>
<g style="fill:#000000; fill-opacity:0.0; 
stroke:#000000; stroke-width:0; stroke-opacity:1; 
stroke-linecap:round; stroke-linejoin:round;">
</g>
<g style="fill:#000000; fill-opacity:0.0; 
stroke:#000000; stroke-width:60; stroke-opacity:1; 
stroke-linecap:round; stroke-linejoin:round;">
<path d="M52509.6 23499.9 A500 500 0.0 0 0 52509.6 22500.1 " />
<path d="M52509.8 24519.9 A510 510 0.0 0 0 52509.8 23500.1 " />
<path d="M52509.8 25519.9 A510 510 0.0 0 0 52509.8 24500.1 " />
<path d="M52509.2 26459.9 A480 480 0.0 0 0 52509.2 25500.1 " />
<path d="M52500 26500
L52500 27500
" />
<path d="M52500 22500
L52500 21500
" />
<path d="M51690 24800
L51710 24750
L51710 24650
L51690 24610
L51670 24590
L51630 24580
L51600 24580
L51560 24590
L51540 24610
L51520 24650
L51500 24730
L51480 24770
L51460 24780
L51430 24800
L51390 24800
L51350 24780
L51330 24770
L51310 24730
L51310 24630
L51330 24580
" />
<path d="M51350 24420
L51330 24400
L51310 24370
L51310 24270
L51330 24230
L51350 24210
L51390 24200
L51430 24200
L51480 24210
L51710 24440
L51710 24200
" />
<path d="M51590 11870
L51960 11870
L51760 12100
L51840 12100
L51900 12130
L51930 12160
L51960 12210
L51960 12360
L51930 12410
L51900 12440
L51840 12470
L51670 12470
L51610 12440
L51590 12410
" />
<path d="M51900 19070
L51900 19470
" />
<path d="M51760 18840
L51610 19270
L51990 19270
" />
</g>
<g style="fill:#000000; fill-opacity:0.0; 
stroke:#000000; stroke-width:0; stroke-opacity:1; 
stroke-linecap:round; stroke-linejoin:round;">
</g>
<g style="fill:#000000; fill-opacity:0.0; 
stroke:#000000; stroke-width:60; stroke-opacity:1; 
stroke-linecap:round; stroke-linejoin:round;">
<path d="M54490.4 14000.1 A500 500 0.0 0 0 54490.4 14999.9 " />
<path d="M54490.2 15000.1 A510 510 0.0 0 0 54490.2 16019.9 " />
<path d="M54490.2 16000.1 A510 510 0.0 0 0 54490.2 17019.9 " />
<path d="M54490.8 17000.1 A480 480 0.0 0 0 54490.8 17959.9 " />
<path d="M54500 18000
L54500 19000
" />
<path d="M54500 14000
L54500 13000
" />
<path d="M55650 16100
L55250 16100
L55250 15950
L55270 15910
L55290 15900
L55330 15880
L55380 15880
L55420 15900
L55440 15910
L55460 15950
L55460 16100
" />
</g>
<g style="fill:#000000; fill-opacity:0.0; 
stroke:#000000; stroke-width:0; stroke-opacity:1; 
stroke-linecap:round; stroke-linejoin:round;">
</g>
<g style="fill:#000000; fill-opacity:0.0; 
stroke:#000000; stroke-width:60; stroke-opacity:1; 
stroke-linecap:round; stroke-linejoin:round;">
<path d="M52509.6 14999.9 A500 500 0.0 0 0 52509.6 14000.1 " />
<path d="M52509.8 16019.9 A510 510 0.0 0 0 52509.8 15000.1 " />
<path d="M52509.8 17019.9 A510 510 0.0 0 0 52509.8 16000.1 " />
<path d="M52509.2 17959.9 A480 480 0.0 0 0 52509.2 17000.1 " />
<path d="M52500 18000
L52500 19000
" />
<path d="M52500 14000
L52500 13000
" />
<path d="M51690 16300
L51710 16250
L51710 16150
L51690 16110
L51670 16090
L51630 16080
L51600 16080
L51560 16090
L51540 16110
L51520 16150
L51500 16230
L51480 16270
L51460 16280
L51430 16300
L51390 16300
L51350 16280
L51330 16270
L51310 16230
L51310 16130
L51330 16080
" />
<path d="M51710 15700
L51710 15920
" />
<path d="M51710 15810
L51310 15810
L51370 15850
L51410 15890
L51430 15920
" />
<path d="M45370 68700
L45310 68670
L45220 68670
L45140 68700
L45080 68760
L45050 68810
L45020 68930
L45020 69010
L45050 69130
L45080 69190
L45140 69240
L45220 69270
L45280 69270
L45370 69240
L45400 69210
L45400 69010
L45280 69010
" />
<path d="M45650 69270
L45650 68670
L46000 69270
L46000 68670
" />
<path d="M46280 69270
L46280 68670
L46430 68670
L46510 68700
L46570 68760
L46600 68810
L46630 68930
L46630 69010
L46600 69130
L46570 69190
L46510 69240
L46430 69270
L46280 69270
" />
</g>
<g style="fill:#000000; fill-opacity:0.0; 
stroke:#000000; stroke-width:100; stroke-opacity:1; 
stroke-linecap:round; stroke-linejoin:round;">
<polyline fill="none;"
points="47500,68700
46900,68700
46900,69300
47500,69300
47500,68700
" /> 
</g>
<g style="fill:#000000; fill-opacity:0.0; 
stroke:#000000; stroke-width:60; stroke-opacity:1; 
stroke-linecap:round; stroke-linejoin:round;">
<path d="M41040 67170
L40750 67170
L40720 67460
L40750 67430
L40810 67400
L40950 67400
L41010 67430
L41040 67460
L41070 67510
L41070 67660
L41040 67710
L41010 67740
L40950 67770
L40810 67770
L40750 67740
L40720 67710
" />
<path d="M41240 67170
L41440 67770
L41640 67170
" />
<path d="M42610 67770
L42260 67770
" />
<path d="M42440 67770
L42440 67170
L42380 67260
L42320 67310
L42260 67340
" />
<path d="M42980 67170
L43030 67170
L43090 67200
L43120 67230
L43150 67290
L43180 67400
L43180 67540
L43150 67660
L43120 67710
L43090 67740
L43030 67770
L42980 67770
L42920 67740
L42890 67710
L42860 67660
L42830 67540
L42830 67400
L42860 67290
L42890 67230
L42920 67200
L42980 67170
" />
<path d="M43550 67170
L43600 67170
L43660 67200
L43690 67230
L43720 67290
L43750 67400
L43750 67540
L43720 67660
L43690 67710
L43660 67740
L43600 67770
L43550 67770
L43490 67740
L43460 67710
L43430 67660
L43400 67540
L43400 67400
L43430 67290
L43460 67230
L43490 67200
L43550 67170
" />
<path d="M44000 67770
L44000 67370
" />
<path d="M44000 67430
L44030 67400
L44090 67370
L44170 67370
L44230 67400
L44260 67460
L44260 67770
" />
<path d="M44260 67460
L44290 67400
L44350 67370
L44430 67370
L44490 67400
L44520 67460
L44520 67770
" />
<path d="M44770 67600
L45060 67600
" />
<path d="M44720 67770
L44920 67170
L45120 67770
" />
<path d="M45740 67600
L46030 67600
" />
<path d="M45690 67770
L45890 67170
L46090 67770
" />
<path d="M46630 67710
L46600 67740
L46510 67770
L46450 67770
L46370 67740
L46310 67690
L46280 67630
L46250 67510
L46250 67430
L46280 67310
L46310 67260
L46370 67200
L46450 67170
L46510 67170
L46600 67200
L46630 67230
" />
</g>
<g style="fill:#000000; fill-opacity:0.0; 
stroke:#000000; stroke-width:100; stroke-opacity:1; 
stroke-linecap:round; stroke-linejoin:round;">
<polyline fill="none;"
points="46900,67500
47200,67800
47500,67800
47500,67200
47200,67200
46900,67500
" /> 
</g>
<g style="fill:#000000; fill-opacity:0.0; 
stroke:#000000; stroke-width:60; stroke-opacity:1; 
stroke-linecap:round; stroke-linejoin:round;">
<path d="M38660 60170
L38370 60170
L38340 60460
L38370 60430
L38430 60400
L38570 60400
L38630 60430
L38660 60460
L38690 60510
L38690 60660
L38660 60710
L38630 60740
L38570 60770
L38430 60770
L38370 60740
L38340 60710
" />
<path d="M38860 60170
L39060 60770
L39260 60170
" />
<path d="M40230 60770
L39880 60770
" />
<path d="M40060 60770
L40060 60170
L40000 60260
L39940 60310
L39880 60340
" />
<path d="M40600 60170
L40650 60170
L40710 60200
L40740 60230
L40770 60290
L40800 60400
L40800 60540
L40770 60660
L40740 60710
L40710 60740
L40650 60770
L40600 60770
L40540 60740
L40510 60710
L40480 60660
L40450 60540
L40450 60400
L40480 60290
L40510 60230
L40540 60200
L40600 60170
" />
<path d="M41170 60170
L41220 60170
L41280 60200
L41310 60230
L41340 60290
L41370 60400
L41370 60540
L41340 60660
L41310 60710
L41280 60740
L41220 60770
L41170 60770
L41110 60740
L41080 60710
L41050 60660
L41020 60540
L41020 60400
L41050 60290
L41080 60230
L41110 60200
L41170 60170
" />
<path d="M41620 60770
L41620 60370
" />
<path d="M41620 60430
L41650 60400
L41710 60370
L41790 60370
L41850 60400
L41880 60460
L41880 60770
" />
<path d="M41880 60460
L41910 60400
L41970 60370
L42050 60370
L42110 60400
L42140 60460
L42140 60770
" />
<path d="M42390 60600
L42680 60600
" />
<path d="M42340 60770
L42540 60170
L42740 60770
" />
<path d="M43360 60600
L43650 60600
" />
<path d="M43310 60770
L43510 60170
L43710 60770
" />
<path d="M44250 60710
L44220 60740
L44130 60770
L44070 60770
L43990 60740
L43930 60690
L43900 60630
L43870 60510
L43870 60430
L43900 60310
L43930 60260
L43990 60200
L44070 60170
L44130 60170
L44220 60200
L44250 60230
" />
<path d="M45310 60710
L45280 60740
L45190 60770
L45130 60770
L45050 60740
L44990 60690
L44960 60630
L44930 60510
L44930 60430
L44960 60310
L44990 60260
L45050 60200
L45130 60170
L45190 60170
L45280 60200
L45310 60230
" />
<path d="M45680 60170
L45790 60170
L45850 60200
L45910 60260
L45930 60370
L45930 60570
L45910 60690
L45850 60740
L45790 60770
L45680 60770
L45620 60740
L45560 60690
L45530 60570
L45530 60370
L45560 60260
L45620 60200
L45680 60170
" />
<path d="M46190 60770
L46190 60170
L46390 60600
L46590 60170
L46590 60770
" />
</g>
<g style="fill:#000000; fill-opacity:0.0; 
stroke:#000000; stroke-width:100; stroke-opacity:1; 
stroke-linecap:round; stroke-linejoin:round;">
<polyline fill="none;"
points="47500,60200
46900,60200
46900,60800
47500,60800
47500,60200
" /> 
</g>
<g style="fill:#000000; fill-opacity:0.0; 
stroke:#000000; stroke-width:60; stroke-opacity:1; 
stroke-linecap:round; stroke-linejoin:round;">
<path d="M41040 53170
L40750 53170
L40720 53460
L40750 53430
L40810 53400
L40950 53400
L41010 53430
L41040 53460
L41070 53510
L41070 53660
L41040 53710
L41010 53740
L40950 53770
L40810 53770
L40750 53740
L40720 53710
" />
<path d="M41240 53170
L41440 53770
L41640 53170
" />
<path d="M42610 53770
L42260 53770
" />
<path d="M42440 53770
L42440 53170
L42380 53260
L42320 53310
L42260 53340
" />
<path d="M42980 53170
L43030 53170
L43090 53200
L43120 53230
L43150 53290
L43180 53400
L43180 53540
L43150 53660
L43120 53710
L43090 53740
L43030 53770
L42980 53770
L42920 53740
L42890 53710
L42860 53660
L42830 53540
L42830 53400
L42860 53290
L42890 53230
L42920 53200
L42980 53170
" />
<path d="M43550 53170
L43600 53170
L43660 53200
L43690 53230
L43720 53290
L43750 53400
L43750 53540
L43720 53660
L43690 53710
L43660 53740
L43600 53770
L43550 53770
L43490 53740
L43460 53710
L43430 53660
L43400 53540
L43400 53400
L43430 53290
L43460 53230
L43490 53200
L43550 53170
" />
<path d="M44000 53770
L44000 53370
" />
<path d="M44000 53430
L44030 53400
L44090 53370
L44170 53370
L44230 53400
L44260 53460
L44260 53770
" />
<path d="M44260 53460
L44290 53400
L44350 53370
L44430 53370
L44490 53400
L44520 53460
L44520 53770
" />
<path d="M44770 53600
L45060 53600
" />
<path d="M44720 53770
L44920 53170
L45120 53770
" />
<path d="M45740 53600
L46030 53600
" />
<path d="M45690 53770
L45890 53170
L46090 53770
" />
<path d="M46630 53710
L46600 53740
L46510 53770
L46450 53770
L46370 53740
L46310 53690
L46280 53630
L46250 53510
L46250 53430
L46280 53310
L46310 53260
L46370 53200
L46450 53170
L46510 53170
L46600 53200
L46630 53230
" />
</g>
<g style="fill:#000000; fill-opacity:0.0; 
stroke:#000000; stroke-width:100; stroke-opacity:1; 
stroke-linecap:round; stroke-linejoin:round;">
<polyline fill="none;"
points="46900,53500
47200,53800
47500,53800
47500,53200
47200,53200
46900,53500
" /> 
</g>
<g style="fill:#000000; fill-opacity:0.0; 
stroke:#000000; stroke-width:60; stroke-opacity:1; 
stroke-linecap:round; stroke-linejoin:round;">
<path d="M42090 51730
L42120 51700
L42180 51670
L42320 51670
L42380 51700
L42410 51730
L42440 51790
L42440 51840
L42410 51930
L42070 52270
L42440 52270
" />
<path d="M42980 51670
L42690 51670
L42660 51960
L42690 51930
L42750 51900
L42890 51900
L42950 51930
L42980 51960
L43010 52010
L43010 52160
L42980 52210
L42950 52240
L42890 52270
L42750 52270
L42690 52240
L42660 52210
" />
<path d="M43180 51670
L43380 52270
L43580 51670
" />
<path d="M44550 52270
L44200 52270
" />
<path d="M44380 52270
L44380 51670
L44320 51760
L44260 51810
L44200 51840
" />
<path d="M44770 52100
L45060 52100
" />
<path d="M44720 52270
L44920 51670
L45120 52270
" />
<path d="M45740 52100
L46030 52100
" />
<path d="M45690 52270
L45890 51670
L46090 52270
" />
<path d="M46630 52210
L46600 52240
L46510 52270
L46450 52270
L46370 52240
L46310 52190
L46280 52130
L46250 52010
L46250 51930
L46280 51810
L46310 51760
L46370 51700
L46450 51670
L46510 51670
L46600 51700
L46630 51730
" />
</g>
<g style="fill:#000000; fill-opacity:0.0; 
stroke:#000000; stroke-width:100; stroke-opacity:1; 
stroke-linecap:round; stroke-linejoin:round;">
<polyline fill="none;"
points="46900,52000
47200,52300
47500,52300
47500,51700
47200,51700
46900,52000
" /> 
</g>
<g style="fill:#000000; fill-opacity:0.0; 
stroke:#000000; stroke-width:60; stroke-opacity:1; 
stroke-linecap:round; stroke-linejoin:round;">
<path d="M39710 44730
L39740 44700
L39800 44670
L39940 44670
L40000 44700
L40030 44730
L40060 44790
L40060 44840
L40030 44930
L39690 45270
L40060 45270
" />
<path d="M40600 44670
L40310 44670
L40280 44960
L40310 44930
L40370 44900
L40510 44900
L40570 44930
L40600 44960
L40630 45010
L40630 45160
L40600 45210
L40570 45240
L40510 45270
L40370 45270
L40310 45240
L40280 45210
" />
<path d="M40800 44670
L41000 45270
L41200 44670
" />
<path d="M42170 45270
L41820 45270
" />
<path d="M42000 45270
L42000 44670
L41940 44760
L41880 44810
L41820 44840
" />
<path d="M42390 45100
L42680 45100
" />
<path d="M42340 45270
L42540 44670
L42740 45270
" />
<path d="M43360 45100
L43650 45100
" />
<path d="M43310 45270
L43510 44670
L43710 45270
" />
<path d="M44250 45210
L44220 45240
L44130 45270
L44070 45270
L43990 45240
L43930 45190
L43900 45130
L43870 45010
L43870 44930
L43900 44810
L43930 44760
L43990 44700
L44070 44670
L44130 44670
L44220 44700
L44250 44730
" />
<path d="M45310 45210
L45280 45240
L45190 45270
L45130 45270
L45050 45240
L44990 45190
L44960 45130
L44930 45010
L44930 44930
L44960 44810
L44990 44760
L45050 44700
L45130 44670
L45190 44670
L45280 44700
L45310 44730
" />
<path d="M45680 44670
L45790 44670
L45850 44700
L45910 44760
L45930 44870
L45930 45070
L45910 45190
L45850 45240
L45790 45270
L45680 45270
L45620 45240
L45560 45190
L45530 45070
L45530 44870
L45560 44760
L45620 44700
L45680 44670
" />
<path d="M46190 45270
L46190 44670
L46390 45100
L46590 44670
L46590 45270
" />
</g>
<g style="fill:#000000; fill-opacity:0.0; 
stroke:#000000; stroke-width:100; stroke-opacity:1; 
stroke-linecap:round; stroke-linejoin:round;">
<polyline fill="none;"
points="47500,44700
46900,44700
46900,45300
47500,45300
47500,44700
" /> 
</g>
<g style="fill:#000000; fill-opacity:0.0; 
stroke:#000000; stroke-width:60; stroke-opacity:1; 
stroke-linecap:round; stroke-linejoin:round;">
<path d="M42090 37730
L42120 37700
L42180 37670
L42320 37670
L42380 37700
L42410 37730
L42440 37790
L42440 37840
L42410 37930
L42070 38270
L42440 38270
" />
<path d="M42980 37670
L42690 37670
L42660 37960
L42690 37930
L42750 37900
L42890 37900
L42950 37930
L42980 37960
L43010 38010
L43010 38160
L42980 38210
L42950 38240
L42890 38270
L42750 38270
L42690 38240
L42660 38210
" />
<path d="M43180 37670
L43380 38270
L43580 37670
" />
<path d="M44550 38270
L44200 38270
" />
<path d="M44380 38270
L44380 37670
L44320 37760
L44260 37810
L44200 37840
" />
<path d="M44770 38100
L45060 38100
" />
<path d="M44720 38270
L44920 37670
L45120 38270
" />
<path d="M45740 38100
L46030 38100
" />
<path d="M45690 38270
L45890 37670
L46090 38270
" />
<path d="M46630 38210
L46600 38240
L46510 38270
L46450 38270
L46370 38240
L46310 38190
L46280 38130
L46250 38010
L46250 37930
L46280 37810
L46310 37760
L46370 37700
L46450 37670
L46510 37670
L46600 37700
L46630 37730
" />
</g>
<g style="fill:#000000; fill-opacity:0.0; 
stroke:#000000; stroke-width:100; stroke-opacity:1; 
stroke-linecap:round; stroke-linejoin:round;">
<polyline fill="none;"
points="46900,38000
47200,38300
47500,38300
47500,37700
47200,37700
46900,38000
" /> 
</g>
<g style="fill:#000000; fill-opacity:0.0; 
stroke:#000000; stroke-width:60; stroke-opacity:1; 
stroke-linecap:round; stroke-linejoin:round;">
<path d="M41070 36770
L40720 36770
" />
<path d="M40900 36770
L40900 36170
L40840 36260
L40780 36310
L40720 36340
" />
<path d="M41410 36430
L41350 36400
L41320 36370
L41290 36310
L41290 36290
L41320 36230
L41350 36200
L41410 36170
L41520 36170
L41580 36200
L41610 36230
L41640 36290
L41640 36310
L41610 36370
L41580 36400
L41520 36430
L41410 36430
L41350 36460
L41320 36490
L41290 36540
L41290 36660
L41320 36710
L41350 36740
L41410 36770
L41520 36770
L41580 36740
L41610 36710
L41640 36660
L41640 36540
L41610 36490
L41580 36460
L41520 36430
" />
<path d="M41810 36170
L42010 36770
L42210 36170
" />
<path d="M43180 36770
L42830 36770
" />
<path d="M43010 36770
L43010 36170
L42950 36260
L42890 36310
L42830 36340
" />
<path d="M43550 36170
L43600 36170
L43660 36200
L43690 36230
L43720 36290
L43750 36400
L43750 36540
L43720 36660
L43690 36710
L43660 36740
L43600 36770
L43550 36770
L43490 36740
L43460 36710
L43430 36660
L43400 36540
L43400 36400
L43430 36290
L43460 36230
L43490 36200
L43550 36170
" />
<path d="M44000 36770
L44000 36370
" />
<path d="M44000 36430
L44030 36400
L44090 36370
L44170 36370
L44230 36400
L44260 36460
L44260 36770
" />
<path d="M44260 36460
L44290 36400
L44350 36370
L44430 36370
L44490 36400
L44520 36460
L44520 36770
" />
<path d="M44770 36600
L45060 36600
" />
<path d="M44720 36770
L44920 36170
L45120 36770
" />
<path d="M45740 36600
L46030 36600
" />
<path d="M45690 36770
L45890 36170
L46090 36770
" />
<path d="M46630 36710
L46600 36740
L46510 36770
L46450 36770
L46370 36740
L46310 36690
L46280 36630
L46250 36510
L46250 36430
L46280 36310
L46310 36260
L46370 36200
L46450 36170
L46510 36170
L46600 36200
L46630 36230
" />
</g>
<g style="fill:#000000; fill-opacity:0.0; 
stroke:#000000; stroke-width:100; stroke-opacity:1; 
stroke-linecap:round; stroke-linejoin:round;">
<polyline fill="none;"
points="46900,36500
47200,36800
47500,36800
47500,36200
47200,36200
46900,36500
" /> 
</g>
<g style="fill:#000000; fill-opacity:0.0; 
stroke:#000000; stroke-width:60; stroke-opacity:1; 
stroke-linecap:round; stroke-linejoin:round;">
<path d="M41070 29770
L40720 29770
" />
<path d="M40900 29770
L40900 29170
L40840 29260
L40780 29310
L40720 29340
" />
<path d="M41410 29430
L41350 29400
L41320 29370
L41290 29310
L41290 29290
L41320 29230
L41350 29200
L41410 29170
L41520 29170
L41580 29200
L41610 29230
L41640 29290
L41640 29310
L41610 29370
L41580 29400
L41520 29430
L41410 29430
L41350 29460
L41320 29490
L41290 29540
L41290 29660
L41320 29710
L41350 29740
L41410 29770
L41520 29770
L41580 29740
L41610 29710
L41640 29660
L41640 29540
L41610 29490
L41580 29460
L41520 29430
" />
<path d="M41810 29170
L42010 29770
L42210 29170
" />
<path d="M43180 29770
L42830 29770
" />
<path d="M43010 29770
L43010 29170
L42950 29260
L42890 29310
L42830 29340
" />
<path d="M43550 29170
L43600 29170
L43660 29200
L43690 29230
L43720 29290
L43750 29400
L43750 29540
L43720 29660
L43690 29710
L43660 29740
L43600 29770
L43550 29770
L43490 29740
L43460 29710
L43430 29660
L43400 29540
L43400 29400
L43430 29290
L43460 29230
L43490 29200
L43550 29170
" />
<path d="M44000 29770
L44000 29370
" />
<path d="M44000 29430
L44030 29400
L44090 29370
L44170 29370
L44230 29400
L44260 29460
L44260 29770
" />
<path d="M44260 29460
L44290 29400
L44350 29370
L44430 29370
L44490 29400
L44520 29460
L44520 29770
" />
<path d="M44770 29600
L45060 29600
" />
<path d="M44720 29770
L44920 29170
L45120 29770
" />
<path d="M45740 29600
L46030 29600
" />
<path d="M45690 29770
L45890 29170
L46090 29770
" />
<path d="M46630 29710
L46600 29740
L46510 29770
L46450 29770
L46370 29740
L46310 29690
L46280 29630
L46250 29510
L46250 29430
L46280 29310
L46310 29260
L46370 29200
L46450 29170
L46510 29170
L46600 29200
L46630 29230
" />
</g>
<g style="fill:#000000; fill-opacity:0.0; 
stroke:#000000; stroke-width:100; stroke-opacity:1; 
stroke-linecap:round; stroke-linejoin:round;">
<polyline fill="none;"
points="46900,29500
47200,29800
47500,29800
47500,29200
47200,29200
46900,29500
" /> 
</g>
<g style="fill:#000000; fill-opacity:0.0; 
stroke:#000000; stroke-width:60; stroke-opacity:1; 
stroke-linecap:round; stroke-linejoin:round;">
<path d="M40840 27930
L40780 27900
L40750 27870
L40720 27810
L40720 27790
L40750 27730
L40780 27700
L40840 27670
L40950 27670
L41010 27700
L41040 27730
L41070 27790
L41070 27810
L41040 27870
L41010 27900
L40950 27930
L40840 27930
L40780 27960
L40750 27990
L40720 28040
L40720 28160
L40750 28210
L40780 28240
L40840 28270
L40950 28270
L41010 28240
L41040 28210
L41070 28160
L41070 28040
L41040 27990
L41010 27960
L40950 27930
" />
<path d="M41240 27670
L41440 28270
L41640 27670
" />
<path d="M42580 27670
L42290 27670
L42260 27960
L42290 27930
L42350 27900
L42490 27900
L42550 27930
L42580 27960
L42610 28010
L42610 28160
L42580 28210
L42550 28240
L42490 28270
L42350 28270
L42290 28240
L42260 28210
" />
<path d="M42980 27670
L43030 27670
L43090 27700
L43120 27730
L43150 27790
L43180 27900
L43180 28040
L43150 28160
L43120 28210
L43090 28240
L43030 28270
L42980 28270
L42920 28240
L42890 28210
L42860 28160
L42830 28040
L42830 27900
L42860 27790
L42890 27730
L42920 27700
L42980 27670
" />
<path d="M43550 27670
L43600 27670
L43660 27700
L43690 27730
L43720 27790
L43750 27900
L43750 28040
L43720 28160
L43690 28210
L43660 28240
L43600 28270
L43550 28270
L43490 28240
L43460 28210
L43430 28160
L43400 28040
L43400 27900
L43430 27790
L43460 27730
L43490 27700
L43550 27670
" />
<path d="M44000 28270
L44000 27870
" />
<path d="M44000 27930
L44030 27900
L44090 27870
L44170 27870
L44230 27900
L44260 27960
L44260 28270
" />
<path d="M44260 27960
L44290 27900
L44350 27870
L44430 27870
L44490 27900
L44520 27960
L44520 28270
" />
<path d="M44770 28100
L45060 28100
" />
<path d="M44720 28270
L44920 27670
L45120 28270
" />
<path d="M45740 28100
L46030 28100
" />
<path d="M45690 28270
L45890 27670
L46090 28270
" />
<path d="M46630 28210
L46600 28240
L46510 28270
L46450 28270
L46370 28240
L46310 28190
L46280 28130
L46250 28010
L46250 27930
L46280 27810
L46310 27760
L46370 27700
L46450 27670
L46510 27670
L46600 27700
L46630 27730
" />
</g>
<g style="fill:#000000; fill-opacity:0.0; 
stroke:#000000; stroke-width:100; stroke-opacity:1; 
stroke-linecap:round; stroke-linejoin:round;">
<polyline fill="none;"
points="46900,28000
47200,28300
47500,28300
47500,27700
47200,27700
46900,28000
" /> 
</g>
<g style="fill:#000000; fill-opacity:0.0; 
stroke:#000000; stroke-width:60; stroke-opacity:1; 
stroke-linecap:round; stroke-linejoin:round;">
<path d="M40840 20930
L40780 20900
L40750 20870
L40720 20810
L40720 20790
L40750 20730
L40780 20700
L40840 20670
L40950 20670
L41010 20700
L41040 20730
L41070 20790
L41070 20810
L41040 20870
L41010 20900
L40950 20930
L40840 20930
L40780 20960
L40750 20990
L40720 21040
L40720 21160
L40750 21210
L40780 21240
L40840 21270
L40950 21270
L41010 21240
L41040 21210
L41070 21160
L41070 21040
L41040 20990
L41010 20960
L40950 20930
" />
<path d="M41240 20670
L41440 21270
L41640 20670
" />
<path d="M42580 20670
L42290 20670
L42260 20960
L42290 20930
L42350 20900
L42490 20900
L42550 20930
L42580 20960
L42610 21010
L42610 21160
L42580 21210
L42550 21240
L42490 21270
L42350 21270
L42290 21240
L42260 21210
" />
<path d="M42980 20670
L43030 20670
L43090 20700
L43120 20730
L43150 20790
L43180 20900
L43180 21040
L43150 21160
L43120 21210
L43090 21240
L43030 21270
L42980 21270
L42920 21240
L42890 21210
L42860 21160
L42830 21040
L42830 20900
L42860 20790
L42890 20730
L42920 20700
L42980 20670
" />
<path d="M43550 20670
L43600 20670
L43660 20700
L43690 20730
L43720 20790
L43750 20900
L43750 21040
L43720 21160
L43690 21210
L43660 21240
L43600 21270
L43550 21270
L43490 21240
L43460 21210
L43430 21160
L43400 21040
L43400 20900
L43430 20790
L43460 20730
L43490 20700
L43550 20670
" />
<path d="M44000 21270
L44000 20870
" />
<path d="M44000 20930
L44030 20900
L44090 20870
L44170 20870
L44230 20900
L44260 20960
L44260 21270
" />
<path d="M44260 20960
L44290 20900
L44350 20870
L44430 20870
L44490 20900
L44520 20960
L44520 21270
" />
<path d="M44770 21100
L45060 21100
" />
<path d="M44720 21270
L44920 20670
L45120 21270
" />
<path d="M45740 21100
L46030 21100
" />
<path d="M45690 21270
L45890 20670
L46090 21270
" />
<path d="M46630 21210
L46600 21240
L46510 21270
L46450 21270
L46370 21240
L46310 21190
L46280 21130
L46250 21010
L46250 20930
L46280 20810
L46310 20760
L46370 20700
L46450 20670
L46510 20670
L46600 20700
L46630 20730
" />
</g>
<g style="fill:#000000; fill-opacity:0.0; 
stroke:#000000; stroke-width:100; stroke-opacity:1; 
stroke-linecap:round; stroke-linejoin:round;">
<polyline fill="none;"
points="46900,21000
47200,21300
47500,21300
47500,20700
47200,20700
46900,21000
" /> 
</g>
<g style="fill:#000000; fill-opacity:0.0; 
stroke:#000000; stroke-width:60; stroke-opacity:1; 
stroke-linecap:round; stroke-linejoin:round;">
<path d="M42780 19430
L42720 19400
L42690 19370
L42660 19310
L42660 19290
L42690 19230
L42720 19200
L42780 19170
L42890 19170
L42950 19200
L42980 19230
L43010 19290
L43010 19310
L42980 19370
L42950 19400
L42890 19430
L42780 19430
L42720 19460
L42690 19490
L42660 19540
L42660 19660
L42690 19710
L42720 19740
L42780 19770
L42890 19770
L42950 19740
L42980 19710
L43010 19660
L43010 19540
L42980 19490
L42950 19460
L42890 19430
" />
<path d="M43180 19170
L43380 19770
L43580 19170
" />
<path d="M44200 19230
L44230 19200
L44290 19170
L44430 19170
L44490 19200
L44520 19230
L44550 19290
L44550 19340
L44520 19430
L44180 19770
L44550 19770
" />
<path d="M44770 19600
L45060 19600
" />
<path d="M44720 19770
L44920 19170
L45120 19770
" />
<path d="M45740 19600
L46030 19600
" />
<path d="M45690 19770
L45890 19170
L46090 19770
" />
<path d="M46630 19710
L46600 19740
L46510 19770
L46450 19770
L46370 19740
L46310 19690
L46280 19630
L46250 19510
L46250 19430
L46280 19310
L46310 19260
L46370 19200
L46450 19170
L46510 19170
L46600 19200
L46630 19230
" />
</g>
<g style="fill:#000000; fill-opacity:0.0; 
stroke:#000000; stroke-width:100; stroke-opacity:1; 
stroke-linecap:round; stroke-linejoin:round;">
<polyline fill="none;"
points="46900,19500
47200,19800
47500,19800
47500,19200
47200,19200
46900,19500
" /> 
</g>
<g style="fill:#000000; fill-opacity:0.0; 
stroke:#000000; stroke-width:60; stroke-opacity:1; 
stroke-linecap:round; stroke-linejoin:round;">
<path d="M42780 12430
L42720 12400
L42690 12370
L42660 12310
L42660 12290
L42690 12230
L42720 12200
L42780 12170
L42890 12170
L42950 12200
L42980 12230
L43010 12290
L43010 12310
L42980 12370
L42950 12400
L42890 12430
L42780 12430
L42720 12460
L42690 12490
L42660 12540
L42660 12660
L42690 12710
L42720 12740
L42780 12770
L42890 12770
L42950 12740
L42980 12710
L43010 12660
L43010 12540
L42980 12490
L42950 12460
L42890 12430
" />
<path d="M43180 12170
L43380 12770
L43580 12170
" />
<path d="M44200 12230
L44230 12200
L44290 12170
L44430 12170
L44490 12200
L44520 12230
L44550 12290
L44550 12340
L44520 12430
L44180 12770
L44550 12770
" />
<path d="M44770 12600
L45060 12600
" />
<path d="M44720 12770
L44920 12170
L45120 12770
" />
<path d="M45740 12600
L46030 12600
" />
<path d="M45690 12770
L45890 12170
L46090 12770
" />
<path d="M46630 12710
L46600 12740
L46510 12770
L46450 12770
L46370 12740
L46310 12690
L46280 12630
L46250 12510
L46250 12430
L46280 12310
L46310 12260
L46370 12200
L46450 12170
L46510 12170
L46600 12200
L46630 12230
" />
</g>
<g style="fill:#000000; fill-opacity:0.0; 
stroke:#000000; stroke-width:100; stroke-opacity:1; 
stroke-linecap:round; stroke-linejoin:round;">
<polyline fill="none;"
points="46900,12500
47200,12800
47500,12800
47500,12200
47200,12200
46900,12500
" /> 
</g>
<g style="fill:#000000; fill-opacity:0.0; 
stroke:#000000; stroke-width:60; stroke-opacity:1; 
stroke-linecap:round; stroke-linejoin:round;">
<path d="M76900 16270
L76900 15670
L77130 15670
L77190 15700
L77220 15730
L77250 15790
L77250 15870
L77220 15930
L77190 15960
L77130 15990
L76900 15990
" />
<path d="M77850 16270
L77650 15990
" />
<path d="M77500 16270
L77500 15670
L77730 15670
L77790 15700
L77820 15730
L77850 15790
L77850 15870
L77820 15930
L77790 15960
L77730 15990
L77500 15990
" />
<path d="M78020 15670
L78360 15670
" />
<path d="M78190 16270
L78190 15670
" />
<path d="M79340 15700
L79280 15670
L79190 15670
L79110 15700
L79050 15760
L79020 15810
L78990 15930
L78990 16010
L79020 16130
L79050 16190
L79110 16240
L79190 16270
L79250 16270
L79340 16240
L79370 16210
L79370 16010
L79250 16010
" />
<path d="M79620 16270
L79620 15670
L79970 16270
L79970 15670
" />
<path d="M80250 16270
L80250 15670
L80400 15670
L80480 15700
L80540 15760
L80570 15810
L80600 15930
L80600 16010
L80570 16130
L80540 16190
L80480 16240
L80400 16270
L80250 16270
" />
</g>
<g style="fill:#000000; fill-opacity:0.0; 
stroke:#000000; stroke-width:100; stroke-opacity:1; 
stroke-linecap:round; stroke-linejoin:round;">
<polyline fill="none;"
points="76000,16000
76300,16300
76600,16300
76600,15700
76300,15700
76000,16000
" /> 
</g>
<g style="fill:#000000; fill-opacity:0.0; 
stroke:#000000; stroke-width:60; stroke-opacity:1; 
stroke-linecap:round; stroke-linejoin:round;">
<path d="M76870 19230
L76900 19200
L76960 19170
L77100 19170
L77160 19200
L77190 19230
L77220 19290
L77220 19340
L77190 19430
L76850 19770
L77220 19770
" />
<path d="M77420 19170
L77790 19170
L77590 19400
L77670 19400
L77730 19430
L77760 19460
L77790 19510
L77790 19660
L77760 19710
L77730 19740
L77670 19770
L77500 19770
L77440 19740
L77420 19710
" />
<path d="M78160 19170
L78210 19170
L78270 19200
L78300 19230
L78330 19290
L78360 19400
L78360 19540
L78330 19660
L78300 19710
L78270 19740
L78210 19770
L78160 19770
L78100 19740
L78070 19710
L78040 19660
L78010 19540
L78010 19400
L78040 19290
L78070 19230
L78100 19200
L78160 19170
" />
<path d="M78530 19170
L78730 19770
L78930 19170
" />
<path d="M79550 19600
L79840 19600
" />
<path d="M79500 19770
L79700 19170
L79900 19770
" />
<path d="M80440 19710
L80410 19740
L80320 19770
L80260 19770
L80180 19740
L80120 19690
L80090 19630
L80060 19510
L80060 19430
L80090 19310
L80120 19260
L80180 19200
L80260 19170
L80320 19170
L80410 19200
L80440 19230
" />
</g>
<g style="fill:#000000; fill-opacity:0.0; 
stroke:#000000; stroke-width:100; stroke-opacity:1; 
stroke-linecap:round; stroke-linejoin:round;">
<polyline fill="none;"
points="76000,19500
76300,19800
76600,19800
76600,19200
76300,19200
76000,19500
" /> 
</g>
<g style="fill:#000000; fill-opacity:0.0; 
stroke:#000000; stroke-width:60; stroke-opacity:1; 
stroke-linecap:round; stroke-linejoin:round;">
<path d="M76870 12230
L76900 12200
L76960 12170
L77100 12170
L77160 12200
L77190 12230
L77220 12290
L77220 12340
L77190 12430
L76850 12770
L77220 12770
" />
<path d="M77420 12170
L77790 12170
L77590 12400
L77670 12400
L77730 12430
L77760 12460
L77790 12510
L77790 12660
L77760 12710
L77730 12740
L77670 12770
L77500 12770
L77440 12740
L77420 12710
" />
<path d="M78160 12170
L78210 12170
L78270 12200
L78300 12230
L78330 12290
L78360 12400
L78360 12540
L78330 12660
L78300 12710
L78270 12740
L78210 12770
L78160 12770
L78100 12740
L78070 12710
L78040 12660
L78010 12540
L78010 12400
L78040 12290
L78070 12230
L78100 12200
L78160 12170
" />
<path d="M78530 12170
L78730 12770
L78930 12170
" />
<path d="M79550 12600
L79840 12600
" />
<path d="M79500 12770
L79700 12170
L79900 12770
" />
<path d="M80440 12710
L80410 12740
L80320 12770
L80260 12770
L80180 12740
L80120 12690
L80090 12630
L80060 12510
L80060 12430
L80090 12310
L80120 12260
L80180 12200
L80260 12170
L80320 12170
L80410 12200
L80440 12230
" />
</g>
<g style="fill:#000000; fill-opacity:0.0; 
stroke:#000000; stroke-width:100; stroke-opacity:1; 
stroke-linecap:round; stroke-linejoin:round;">
<polyline fill="none;"
points="76000,12500
76300,12800
76600,12800
76600,12200
76300,12200
76000,12500
" /> 
</g> 
</svg>
