%FSLAX45Y45*%
G04 Gerber Fmt 4.5, Leading zero omitted, Abs format (unit mm)*
G04 Created by KiCad (PCBNEW 4.0.5+dfsg1-4+deb9u1) date Mon Sep 26 08:33:15 2022*
%MOMM*%
%LPD*%
G01*
G04 APERTURE LIST*
%ADD10C,0.127000*%
%ADD11C,0.381000*%
%ADD12C,0.200000*%
%ADD13C,0.300000*%
G04 APERTURE END LIST*
D10*
D11*
X21717000Y-12573000D02*
X21717000Y-7493000D01*
X10668000Y-12573000D02*
X21717000Y-12573000D01*
X10668000Y-10033000D02*
X10668000Y-12573000D01*
X8636000Y-10033000D02*
X10668000Y-10033000D01*
X8636000Y-7493000D02*
X8636000Y-10033000D01*
X13208000Y-7493000D02*
X21717000Y-7493000D01*
X8636000Y-7493000D02*
X13208000Y-7493000D01*
D12*
X9484360Y-8214360D02*
X9565640Y-8295640D01*
X9565640Y-8214360D02*
X9484360Y-8295640D01*
X9484360Y-9230360D02*
X9565640Y-9311640D01*
X9565640Y-9230360D02*
X9484360Y-9311640D01*
X9738360Y-8214360D02*
X9819640Y-8295640D01*
X9819640Y-8214360D02*
X9738360Y-8295640D01*
X9738360Y-9230360D02*
X9819640Y-9311640D01*
X9819640Y-9230360D02*
X9738360Y-9311640D01*
X11262360Y-8214360D02*
X11343640Y-8295640D01*
X11343640Y-8214360D02*
X11262360Y-8295640D01*
X11262360Y-9230360D02*
X11343640Y-9311640D01*
X11343640Y-9230360D02*
X11262360Y-9311640D01*
X11262360Y-11262360D02*
X11343640Y-11343640D01*
X11343640Y-11262360D02*
X11262360Y-11343640D01*
X11516360Y-8214360D02*
X11597640Y-8295640D01*
X11597640Y-8214360D02*
X11516360Y-8295640D01*
X11516360Y-9230360D02*
X11597640Y-9311640D01*
X11597640Y-9230360D02*
X11516360Y-9311640D01*
X11516360Y-11262360D02*
X11597640Y-11343640D01*
X11597640Y-11262360D02*
X11516360Y-11343640D01*
X12151360Y-10500360D02*
X12232640Y-10581640D01*
X12232640Y-10500360D02*
X12151360Y-10581640D01*
X12405360Y-10500360D02*
X12486640Y-10581640D01*
X12486640Y-10500360D02*
X12405360Y-10581640D01*
X12405360Y-10754360D02*
X12486640Y-10835640D01*
X12486640Y-10754360D02*
X12405360Y-10835640D01*
X13675360Y-10754360D02*
X13756640Y-10835640D01*
X13756640Y-10754360D02*
X13675360Y-10835640D01*
X13675360Y-11516360D02*
X13756640Y-11597640D01*
X13756640Y-11516360D02*
X13675360Y-11597640D01*
X13929360Y-10754360D02*
X14010640Y-10835640D01*
X14010640Y-10754360D02*
X13929360Y-10835640D01*
X13929360Y-11516360D02*
X14010640Y-11597640D01*
X14010640Y-11516360D02*
X13929360Y-11597640D01*
X14183360Y-10754360D02*
X14264640Y-10835640D01*
X14264640Y-10754360D02*
X14183360Y-10835640D01*
X14183360Y-11516360D02*
X14264640Y-11597640D01*
X14264640Y-11516360D02*
X14183360Y-11597640D01*
X14310360Y-8214360D02*
X14391640Y-8295640D01*
X14391640Y-8214360D02*
X14310360Y-8295640D01*
X14310360Y-9230360D02*
X14391640Y-9311640D01*
X14391640Y-9230360D02*
X14310360Y-9311640D01*
X14437360Y-10754360D02*
X14518640Y-10835640D01*
X14518640Y-10754360D02*
X14437360Y-10835640D01*
X14437360Y-11516360D02*
X14518640Y-11597640D01*
X14518640Y-11516360D02*
X14437360Y-11597640D01*
X14564360Y-8214360D02*
X14645640Y-8295640D01*
X14645640Y-8214360D02*
X14564360Y-8295640D01*
X14564360Y-9230360D02*
X14645640Y-9311640D01*
X14645640Y-9230360D02*
X14564360Y-9311640D01*
X14691360Y-10754360D02*
X14772640Y-10835640D01*
X14772640Y-10754360D02*
X14691360Y-10835640D01*
X14691360Y-11516360D02*
X14772640Y-11597640D01*
X14772640Y-11516360D02*
X14691360Y-11597640D01*
X14945360Y-10754360D02*
X15026640Y-10835640D01*
X15026640Y-10754360D02*
X14945360Y-10835640D01*
X14945360Y-11516360D02*
X15026640Y-11597640D01*
X15026640Y-11516360D02*
X14945360Y-11597640D01*
X15199360Y-10754360D02*
X15280640Y-10835640D01*
X15280640Y-10754360D02*
X15199360Y-10835640D01*
X15199360Y-11516360D02*
X15280640Y-11597640D01*
X15280640Y-11516360D02*
X15199360Y-11597640D01*
X15453360Y-10754360D02*
X15534640Y-10835640D01*
X15534640Y-10754360D02*
X15453360Y-10835640D01*
X15453360Y-11516360D02*
X15534640Y-11597640D01*
X15534640Y-11516360D02*
X15453360Y-11597640D01*
X16088360Y-10881360D02*
X16169640Y-10962640D01*
X16169640Y-10881360D02*
X16088360Y-10962640D01*
X16088360Y-11389360D02*
X16169640Y-11470640D01*
X16169640Y-11389360D02*
X16088360Y-11470640D01*
X17358360Y-8214360D02*
X17439640Y-8295640D01*
X17439640Y-8214360D02*
X17358360Y-8295640D01*
X17358360Y-9230360D02*
X17439640Y-9311640D01*
X17439640Y-9230360D02*
X17358360Y-9311640D01*
X17358360Y-10246360D02*
X17439640Y-10327640D01*
X17439640Y-10246360D02*
X17358360Y-10327640D01*
X17612360Y-8214360D02*
X17693640Y-8295640D01*
X17693640Y-8214360D02*
X17612360Y-8295640D01*
X17612360Y-9230360D02*
X17693640Y-9311640D01*
X17693640Y-9230360D02*
X17612360Y-9311640D01*
X17612360Y-10246360D02*
X17693640Y-10327640D01*
X17693640Y-10246360D02*
X17612360Y-10327640D01*
X19263360Y-9611360D02*
X19344640Y-9692640D01*
X19344640Y-9611360D02*
X19263360Y-9692640D01*
X19263360Y-9865360D02*
X19344640Y-9946640D01*
X19344640Y-9865360D02*
X19263360Y-9946640D01*
X19263360Y-10119360D02*
X19344640Y-10200640D01*
X19344640Y-10119360D02*
X19263360Y-10200640D01*
X19263360Y-10373360D02*
X19344640Y-10454640D01*
X19344640Y-10373360D02*
X19263360Y-10454640D01*
X19263360Y-10627360D02*
X19344640Y-10708640D01*
X19344640Y-10627360D02*
X19263360Y-10708640D01*
X19263360Y-10881360D02*
X19344640Y-10962640D01*
X19344640Y-10881360D02*
X19263360Y-10962640D01*
X19263360Y-11135360D02*
X19344640Y-11216640D01*
X19344640Y-11135360D02*
X19263360Y-11216640D01*
X19263360Y-11389360D02*
X19344640Y-11470640D01*
X19344640Y-11389360D02*
X19263360Y-11470640D01*
X19263360Y-11643360D02*
X19344640Y-11724640D01*
X19344640Y-11643360D02*
X19263360Y-11724640D01*
X19263360Y-11897360D02*
X19344640Y-11978640D01*
X19344640Y-11897360D02*
X19263360Y-11978640D01*
X20025360Y-9611360D02*
X20106640Y-9692640D01*
X20106640Y-9611360D02*
X20025360Y-9692640D01*
X20025360Y-9865360D02*
X20106640Y-9946640D01*
X20106640Y-9865360D02*
X20025360Y-9946640D01*
X20025360Y-10119360D02*
X20106640Y-10200640D01*
X20106640Y-10119360D02*
X20025360Y-10200640D01*
X20025360Y-10373360D02*
X20106640Y-10454640D01*
X20106640Y-10373360D02*
X20025360Y-10454640D01*
X20025360Y-10627360D02*
X20106640Y-10708640D01*
X20106640Y-10627360D02*
X20025360Y-10708640D01*
X20025360Y-10881360D02*
X20106640Y-10962640D01*
X20106640Y-10881360D02*
X20025360Y-10962640D01*
X20025360Y-11135360D02*
X20106640Y-11216640D01*
X20106640Y-11135360D02*
X20025360Y-11216640D01*
X20025360Y-11389360D02*
X20106640Y-11470640D01*
X20106640Y-11389360D02*
X20025360Y-11470640D01*
X20025360Y-11643360D02*
X20106640Y-11724640D01*
X20106640Y-11643360D02*
X20025360Y-11724640D01*
X20025360Y-11897360D02*
X20106640Y-11978640D01*
X20106640Y-11897360D02*
X20025360Y-11978640D01*
X20406360Y-8214360D02*
X20487640Y-8295640D01*
X20487640Y-8214360D02*
X20406360Y-8295640D01*
X20660360Y-8214360D02*
X20741640Y-8295640D01*
X20741640Y-8214360D02*
X20660360Y-8295640D01*
X21168360Y-9103360D02*
X21249640Y-9184640D01*
X21249640Y-9103360D02*
X21168360Y-9184640D01*
X21168360Y-9357360D02*
X21249640Y-9438640D01*
X21249640Y-9357360D02*
X21168360Y-9438640D01*
X21168360Y-9865360D02*
X21249640Y-9946640D01*
X21249640Y-9865360D02*
X21168360Y-9946640D01*
X21168360Y-10119360D02*
X21249640Y-10200640D01*
X21249640Y-10119360D02*
X21168360Y-10200640D01*
X21168360Y-10373360D02*
X21249640Y-10454640D01*
X21249640Y-10373360D02*
X21168360Y-10454640D01*
X21168360Y-10627360D02*
X21249640Y-10708640D01*
X21249640Y-10627360D02*
X21168360Y-10708640D01*
X21168360Y-10881360D02*
X21249640Y-10962640D01*
X21249640Y-10881360D02*
X21168360Y-10962640D01*
X21168360Y-11135360D02*
X21249640Y-11216640D01*
X21249640Y-11135360D02*
X21168360Y-11216640D01*
X21168360Y-11389360D02*
X21249640Y-11470640D01*
X21249640Y-11389360D02*
X21168360Y-11470640D01*
X21168360Y-11643360D02*
X21249640Y-11724640D01*
X21249640Y-11643360D02*
X21168360Y-11724640D01*
X21168360Y-11897360D02*
X21249640Y-11978640D01*
X21249640Y-11897360D02*
X21168360Y-11978640D01*
X19989800Y-8369300D02*
G75*
G03X19989800Y-8369300I-50800J0D01*
G01*
X19989800Y-8877300D02*
G75*
G03X19989800Y-8877300I-50800J0D01*
G01*
X10287000Y-7943850D02*
X10287000Y-8058150D01*
X10229850Y-8001000D02*
X10344150Y-8001000D01*
X10287000Y-9467850D02*
X10287000Y-9582150D01*
X10229850Y-9525000D02*
X10344150Y-9525000D01*
X10795000Y-7943850D02*
X10795000Y-8058150D01*
X10737850Y-8001000D02*
X10852150Y-8001000D01*
X10795000Y-9467850D02*
X10795000Y-9582150D01*
X10737850Y-9525000D02*
X10852150Y-9525000D01*
X12192000Y-7943850D02*
X12192000Y-8058150D01*
X12134850Y-8001000D02*
X12249150Y-8001000D01*
X12192000Y-9467850D02*
X12192000Y-9582150D01*
X12134850Y-9525000D02*
X12249150Y-9525000D01*
X12700000Y-7943850D02*
X12700000Y-8058150D01*
X12642850Y-8001000D02*
X12757150Y-8001000D01*
X12700000Y-9467850D02*
X12700000Y-9582150D01*
X12642850Y-9525000D02*
X12757150Y-9525000D01*
X13208000Y-7943850D02*
X13208000Y-8058150D01*
X13150850Y-8001000D02*
X13265150Y-8001000D01*
X13208000Y-9467850D02*
X13208000Y-9582150D01*
X13150850Y-9525000D02*
X13265150Y-9525000D01*
X16510000Y-11372850D02*
X16510000Y-11487150D01*
X16452850Y-11430000D02*
X16567150Y-11430000D01*
X18034000Y-11372850D02*
X18034000Y-11487150D01*
X17976850Y-11430000D02*
X18091150Y-11430000D01*
D13*
X8888379Y-13057764D02*
X8888379Y-12757764D01*
X8959807Y-12757764D01*
X9002664Y-12772050D01*
X9031236Y-12800621D01*
X9045521Y-12829193D01*
X9059807Y-12886336D01*
X9059807Y-12929193D01*
X9045521Y-12986336D01*
X9031236Y-13014907D01*
X9002664Y-13043479D01*
X8959807Y-13057764D01*
X8888379Y-13057764D01*
X9188379Y-13057764D02*
X9188379Y-12857764D01*
X9188379Y-12914907D02*
X9202664Y-12886336D01*
X9216950Y-12872050D01*
X9245521Y-12857764D01*
X9274093Y-12857764D01*
X9374093Y-13057764D02*
X9374093Y-12857764D01*
X9374093Y-12757764D02*
X9359807Y-12772050D01*
X9374093Y-12786336D01*
X9388379Y-12772050D01*
X9374093Y-12757764D01*
X9374093Y-12786336D01*
X9559807Y-13057764D02*
X9531236Y-13043479D01*
X9516950Y-13014907D01*
X9516950Y-12757764D01*
X9716950Y-13057764D02*
X9688379Y-13043479D01*
X9674093Y-13014907D01*
X9674093Y-12757764D01*
X10059807Y-13057764D02*
X10059807Y-12757764D01*
X10159807Y-12972050D01*
X10259807Y-12757764D01*
X10259807Y-13057764D01*
X10531236Y-13057764D02*
X10531236Y-12900621D01*
X10516950Y-12872050D01*
X10488379Y-12857764D01*
X10431236Y-12857764D01*
X10402664Y-12872050D01*
X10531236Y-13043479D02*
X10502664Y-13057764D01*
X10431236Y-13057764D01*
X10402664Y-13043479D01*
X10388379Y-13014907D01*
X10388379Y-12986336D01*
X10402664Y-12957764D01*
X10431236Y-12943479D01*
X10502664Y-12943479D01*
X10531236Y-12929193D01*
X10674093Y-12857764D02*
X10674093Y-13157764D01*
X10674093Y-12872050D02*
X10702664Y-12857764D01*
X10759807Y-12857764D01*
X10788379Y-12872050D01*
X10802664Y-12886336D01*
X10816950Y-12914907D01*
X10816950Y-13000621D01*
X10802664Y-13029193D01*
X10788379Y-13043479D01*
X10759807Y-13057764D01*
X10702664Y-13057764D01*
X10674093Y-13043479D01*
X10945521Y-13029193D02*
X10959807Y-13043479D01*
X10945521Y-13057764D01*
X10931236Y-13043479D01*
X10945521Y-13029193D01*
X10945521Y-13057764D01*
X10945521Y-12872050D02*
X10959807Y-12886336D01*
X10945521Y-12900621D01*
X10931236Y-12886336D01*
X10945521Y-12872050D01*
X10945521Y-12900621D01*
X8535670Y-13511410D02*
X8616950Y-13592690D01*
X8616950Y-13511410D02*
X8535670Y-13592690D01*
X8945521Y-13387764D02*
X8974093Y-13387764D01*
X9002664Y-13402050D01*
X9016950Y-13416336D01*
X9031236Y-13444907D01*
X9045521Y-13502050D01*
X9045521Y-13573479D01*
X9031236Y-13630621D01*
X9016950Y-13659193D01*
X9002664Y-13673479D01*
X8974093Y-13687764D01*
X8945521Y-13687764D01*
X8916950Y-13673479D01*
X8902664Y-13659193D01*
X8888379Y-13630621D01*
X8874093Y-13573479D01*
X8874093Y-13502050D01*
X8888379Y-13444907D01*
X8902664Y-13416336D01*
X8916950Y-13402050D01*
X8945521Y-13387764D01*
X9174093Y-13659193D02*
X9188379Y-13673479D01*
X9174093Y-13687764D01*
X9159807Y-13673479D01*
X9174093Y-13659193D01*
X9174093Y-13687764D01*
X9359807Y-13516336D02*
X9331236Y-13502050D01*
X9316950Y-13487764D01*
X9302664Y-13459193D01*
X9302664Y-13444907D01*
X9316950Y-13416336D01*
X9331236Y-13402050D01*
X9359807Y-13387764D01*
X9416950Y-13387764D01*
X9445521Y-13402050D01*
X9459807Y-13416336D01*
X9474093Y-13444907D01*
X9474093Y-13459193D01*
X9459807Y-13487764D01*
X9445521Y-13502050D01*
X9416950Y-13516336D01*
X9359807Y-13516336D01*
X9331236Y-13530621D01*
X9316950Y-13544907D01*
X9302664Y-13573479D01*
X9302664Y-13630621D01*
X9316950Y-13659193D01*
X9331236Y-13673479D01*
X9359807Y-13687764D01*
X9416950Y-13687764D01*
X9445521Y-13673479D01*
X9459807Y-13659193D01*
X9474093Y-13630621D01*
X9474093Y-13573479D01*
X9459807Y-13544907D01*
X9445521Y-13530621D01*
X9416950Y-13516336D01*
X9759807Y-13687764D02*
X9588379Y-13687764D01*
X9674093Y-13687764D02*
X9674093Y-13387764D01*
X9645521Y-13430621D01*
X9616950Y-13459193D01*
X9588379Y-13473479D01*
X9888379Y-13687764D02*
X9888379Y-13487764D01*
X9888379Y-13516336D02*
X9902664Y-13502050D01*
X9931236Y-13487764D01*
X9974093Y-13487764D01*
X10002664Y-13502050D01*
X10016950Y-13530621D01*
X10016950Y-13687764D01*
X10016950Y-13530621D02*
X10031236Y-13502050D01*
X10059807Y-13487764D01*
X10102664Y-13487764D01*
X10131236Y-13502050D01*
X10145521Y-13530621D01*
X10145521Y-13687764D01*
X10288379Y-13687764D02*
X10288379Y-13487764D01*
X10288379Y-13516336D02*
X10302664Y-13502050D01*
X10331236Y-13487764D01*
X10374093Y-13487764D01*
X10402664Y-13502050D01*
X10416950Y-13530621D01*
X10416950Y-13687764D01*
X10416950Y-13530621D02*
X10431236Y-13502050D01*
X10459807Y-13487764D01*
X10502664Y-13487764D01*
X10531236Y-13502050D01*
X10545521Y-13530621D01*
X10545521Y-13687764D01*
X11131236Y-13373479D02*
X10874093Y-13759193D01*
X11516950Y-13387764D02*
X11545521Y-13387764D01*
X11574093Y-13402050D01*
X11588378Y-13416336D01*
X11602664Y-13444907D01*
X11616950Y-13502050D01*
X11616950Y-13573479D01*
X11602664Y-13630621D01*
X11588378Y-13659193D01*
X11574093Y-13673479D01*
X11545521Y-13687764D01*
X11516950Y-13687764D01*
X11488378Y-13673479D01*
X11474093Y-13659193D01*
X11459807Y-13630621D01*
X11445521Y-13573479D01*
X11445521Y-13502050D01*
X11459807Y-13444907D01*
X11474093Y-13416336D01*
X11488378Y-13402050D01*
X11516950Y-13387764D01*
X11745521Y-13659193D02*
X11759807Y-13673479D01*
X11745521Y-13687764D01*
X11731236Y-13673479D01*
X11745521Y-13659193D01*
X11745521Y-13687764D01*
X11945521Y-13387764D02*
X11974093Y-13387764D01*
X12002664Y-13402050D01*
X12016950Y-13416336D01*
X12031235Y-13444907D01*
X12045521Y-13502050D01*
X12045521Y-13573479D01*
X12031235Y-13630621D01*
X12016950Y-13659193D01*
X12002664Y-13673479D01*
X11974093Y-13687764D01*
X11945521Y-13687764D01*
X11916950Y-13673479D01*
X11902664Y-13659193D01*
X11888378Y-13630621D01*
X11874093Y-13573479D01*
X11874093Y-13502050D01*
X11888378Y-13444907D01*
X11902664Y-13416336D01*
X11916950Y-13402050D01*
X11945521Y-13387764D01*
X12145521Y-13387764D02*
X12331235Y-13387764D01*
X12231235Y-13502050D01*
X12274093Y-13502050D01*
X12302664Y-13516336D01*
X12316950Y-13530621D01*
X12331235Y-13559193D01*
X12331235Y-13630621D01*
X12316950Y-13659193D01*
X12302664Y-13673479D01*
X12274093Y-13687764D01*
X12188378Y-13687764D01*
X12159807Y-13673479D01*
X12145521Y-13659193D01*
X12445521Y-13416336D02*
X12459807Y-13402050D01*
X12488378Y-13387764D01*
X12559807Y-13387764D01*
X12588378Y-13402050D01*
X12602664Y-13416336D01*
X12616950Y-13444907D01*
X12616950Y-13473479D01*
X12602664Y-13516336D01*
X12431235Y-13687764D01*
X12616950Y-13687764D01*
X12731236Y-13387764D02*
X12731236Y-13444907D01*
X12845521Y-13387764D02*
X12845521Y-13444907D01*
X13288378Y-13802050D02*
X13274093Y-13787764D01*
X13245521Y-13744907D01*
X13231235Y-13716336D01*
X13216950Y-13673479D01*
X13202664Y-13602050D01*
X13202664Y-13544907D01*
X13216950Y-13473479D01*
X13231235Y-13430621D01*
X13245521Y-13402050D01*
X13274093Y-13359193D01*
X13288378Y-13344907D01*
X13374093Y-13387764D02*
X13574093Y-13387764D01*
X13445521Y-13687764D01*
X13816950Y-13487764D02*
X13816950Y-13687764D01*
X13745521Y-13373479D02*
X13674093Y-13587764D01*
X13859807Y-13587764D01*
X14202664Y-13687764D02*
X14202664Y-13387764D01*
X14331235Y-13687764D02*
X14331235Y-13530621D01*
X14316950Y-13502050D01*
X14288378Y-13487764D01*
X14245521Y-13487764D01*
X14216950Y-13502050D01*
X14202664Y-13516336D01*
X14516950Y-13687764D02*
X14488378Y-13673479D01*
X14474093Y-13659193D01*
X14459807Y-13630621D01*
X14459807Y-13544907D01*
X14474093Y-13516336D01*
X14488378Y-13502050D01*
X14516950Y-13487764D01*
X14559807Y-13487764D01*
X14588378Y-13502050D01*
X14602664Y-13516336D01*
X14616950Y-13544907D01*
X14616950Y-13630621D01*
X14602664Y-13659193D01*
X14588378Y-13673479D01*
X14559807Y-13687764D01*
X14516950Y-13687764D01*
X14788378Y-13687764D02*
X14759807Y-13673479D01*
X14745521Y-13644907D01*
X14745521Y-13387764D01*
X15016950Y-13673479D02*
X14988378Y-13687764D01*
X14931236Y-13687764D01*
X14902664Y-13673479D01*
X14888378Y-13644907D01*
X14888378Y-13530621D01*
X14902664Y-13502050D01*
X14931236Y-13487764D01*
X14988378Y-13487764D01*
X15016950Y-13502050D01*
X15031236Y-13530621D01*
X15031236Y-13559193D01*
X14888378Y-13587764D01*
X15145521Y-13673479D02*
X15174093Y-13687764D01*
X15231236Y-13687764D01*
X15259807Y-13673479D01*
X15274093Y-13644907D01*
X15274093Y-13630621D01*
X15259807Y-13602050D01*
X15231236Y-13587764D01*
X15188378Y-13587764D01*
X15159807Y-13573479D01*
X15145521Y-13544907D01*
X15145521Y-13530621D01*
X15159807Y-13502050D01*
X15188378Y-13487764D01*
X15231236Y-13487764D01*
X15259807Y-13502050D01*
X15374093Y-13802050D02*
X15388378Y-13787764D01*
X15416950Y-13744907D01*
X15431236Y-13716336D01*
X15445521Y-13673479D01*
X15459807Y-13602050D01*
X15459807Y-13544907D01*
X15445521Y-13473479D01*
X15431236Y-13430621D01*
X15416950Y-13402050D01*
X15388378Y-13359193D01*
X15374093Y-13344907D01*
X8616950Y-13948050D02*
G75*
G03X8616950Y-13948050I-50800J0D01*
G01*
X9045521Y-14083764D02*
X8874093Y-14083764D01*
X8959807Y-14083764D02*
X8959807Y-13783764D01*
X8931236Y-13826621D01*
X8902664Y-13855193D01*
X8874093Y-13869479D01*
X9174093Y-14055193D02*
X9188379Y-14069479D01*
X9174093Y-14083764D01*
X9159807Y-14069479D01*
X9174093Y-14055193D01*
X9174093Y-14083764D01*
X9374093Y-13783764D02*
X9402664Y-13783764D01*
X9431236Y-13798050D01*
X9445521Y-13812336D01*
X9459807Y-13840907D01*
X9474093Y-13898050D01*
X9474093Y-13969479D01*
X9459807Y-14026621D01*
X9445521Y-14055193D01*
X9431236Y-14069479D01*
X9402664Y-14083764D01*
X9374093Y-14083764D01*
X9345521Y-14069479D01*
X9331236Y-14055193D01*
X9316950Y-14026621D01*
X9302664Y-13969479D01*
X9302664Y-13898050D01*
X9316950Y-13840907D01*
X9331236Y-13812336D01*
X9345521Y-13798050D01*
X9374093Y-13783764D01*
X9588379Y-13812336D02*
X9602664Y-13798050D01*
X9631236Y-13783764D01*
X9702664Y-13783764D01*
X9731236Y-13798050D01*
X9745521Y-13812336D01*
X9759807Y-13840907D01*
X9759807Y-13869479D01*
X9745521Y-13912336D01*
X9574093Y-14083764D01*
X9759807Y-14083764D01*
X9888379Y-14083764D02*
X9888379Y-13883764D01*
X9888379Y-13912336D02*
X9902664Y-13898050D01*
X9931236Y-13883764D01*
X9974093Y-13883764D01*
X10002664Y-13898050D01*
X10016950Y-13926621D01*
X10016950Y-14083764D01*
X10016950Y-13926621D02*
X10031236Y-13898050D01*
X10059807Y-13883764D01*
X10102664Y-13883764D01*
X10131236Y-13898050D01*
X10145521Y-13926621D01*
X10145521Y-14083764D01*
X10288379Y-14083764D02*
X10288379Y-13883764D01*
X10288379Y-13912336D02*
X10302664Y-13898050D01*
X10331236Y-13883764D01*
X10374093Y-13883764D01*
X10402664Y-13898050D01*
X10416950Y-13926621D01*
X10416950Y-14083764D01*
X10416950Y-13926621D02*
X10431236Y-13898050D01*
X10459807Y-13883764D01*
X10502664Y-13883764D01*
X10531236Y-13898050D01*
X10545521Y-13926621D01*
X10545521Y-14083764D01*
X11131236Y-13769479D02*
X10874093Y-14155193D01*
X11516950Y-13783764D02*
X11545521Y-13783764D01*
X11574093Y-13798050D01*
X11588378Y-13812336D01*
X11602664Y-13840907D01*
X11616950Y-13898050D01*
X11616950Y-13969479D01*
X11602664Y-14026621D01*
X11588378Y-14055193D01*
X11574093Y-14069479D01*
X11545521Y-14083764D01*
X11516950Y-14083764D01*
X11488378Y-14069479D01*
X11474093Y-14055193D01*
X11459807Y-14026621D01*
X11445521Y-13969479D01*
X11445521Y-13898050D01*
X11459807Y-13840907D01*
X11474093Y-13812336D01*
X11488378Y-13798050D01*
X11516950Y-13783764D01*
X11745521Y-14055193D02*
X11759807Y-14069479D01*
X11745521Y-14083764D01*
X11731236Y-14069479D01*
X11745521Y-14055193D01*
X11745521Y-14083764D01*
X11945521Y-13783764D02*
X11974093Y-13783764D01*
X12002664Y-13798050D01*
X12016950Y-13812336D01*
X12031235Y-13840907D01*
X12045521Y-13898050D01*
X12045521Y-13969479D01*
X12031235Y-14026621D01*
X12016950Y-14055193D01*
X12002664Y-14069479D01*
X11974093Y-14083764D01*
X11945521Y-14083764D01*
X11916950Y-14069479D01*
X11902664Y-14055193D01*
X11888378Y-14026621D01*
X11874093Y-13969479D01*
X11874093Y-13898050D01*
X11888378Y-13840907D01*
X11902664Y-13812336D01*
X11916950Y-13798050D01*
X11945521Y-13783764D01*
X12302664Y-13883764D02*
X12302664Y-14083764D01*
X12231235Y-13769479D02*
X12159807Y-13983764D01*
X12345521Y-13983764D01*
X12516950Y-13783764D02*
X12545521Y-13783764D01*
X12574093Y-13798050D01*
X12588378Y-13812336D01*
X12602664Y-13840907D01*
X12616950Y-13898050D01*
X12616950Y-13969479D01*
X12602664Y-14026621D01*
X12588378Y-14055193D01*
X12574093Y-14069479D01*
X12545521Y-14083764D01*
X12516950Y-14083764D01*
X12488378Y-14069479D01*
X12474093Y-14055193D01*
X12459807Y-14026621D01*
X12445521Y-13969479D01*
X12445521Y-13898050D01*
X12459807Y-13840907D01*
X12474093Y-13812336D01*
X12488378Y-13798050D01*
X12516950Y-13783764D01*
X12731236Y-13783764D02*
X12731236Y-13840907D01*
X12845521Y-13783764D02*
X12845521Y-13840907D01*
X13288378Y-14198050D02*
X13274093Y-14183764D01*
X13245521Y-14140907D01*
X13231235Y-14112336D01*
X13216950Y-14069479D01*
X13202664Y-13998050D01*
X13202664Y-13940907D01*
X13216950Y-13869479D01*
X13231235Y-13826621D01*
X13245521Y-13798050D01*
X13274093Y-13755193D01*
X13288378Y-13740907D01*
X13388378Y-13812336D02*
X13402664Y-13798050D01*
X13431235Y-13783764D01*
X13502664Y-13783764D01*
X13531235Y-13798050D01*
X13545521Y-13812336D01*
X13559807Y-13840907D01*
X13559807Y-13869479D01*
X13545521Y-13912336D01*
X13374093Y-14083764D01*
X13559807Y-14083764D01*
X13916950Y-14083764D02*
X13916950Y-13783764D01*
X14045521Y-14083764D02*
X14045521Y-13926621D01*
X14031235Y-13898050D01*
X14002664Y-13883764D01*
X13959807Y-13883764D01*
X13931235Y-13898050D01*
X13916950Y-13912336D01*
X14231235Y-14083764D02*
X14202664Y-14069479D01*
X14188378Y-14055193D01*
X14174093Y-14026621D01*
X14174093Y-13940907D01*
X14188378Y-13912336D01*
X14202664Y-13898050D01*
X14231235Y-13883764D01*
X14274093Y-13883764D01*
X14302664Y-13898050D01*
X14316950Y-13912336D01*
X14331235Y-13940907D01*
X14331235Y-14026621D01*
X14316950Y-14055193D01*
X14302664Y-14069479D01*
X14274093Y-14083764D01*
X14231235Y-14083764D01*
X14502664Y-14083764D02*
X14474093Y-14069479D01*
X14459807Y-14040907D01*
X14459807Y-13783764D01*
X14731236Y-14069479D02*
X14702664Y-14083764D01*
X14645521Y-14083764D01*
X14616950Y-14069479D01*
X14602664Y-14040907D01*
X14602664Y-13926621D01*
X14616950Y-13898050D01*
X14645521Y-13883764D01*
X14702664Y-13883764D01*
X14731236Y-13898050D01*
X14745521Y-13926621D01*
X14745521Y-13955193D01*
X14602664Y-13983764D01*
X14859807Y-14069479D02*
X14888378Y-14083764D01*
X14945521Y-14083764D01*
X14974093Y-14069479D01*
X14988378Y-14040907D01*
X14988378Y-14026621D01*
X14974093Y-13998050D01*
X14945521Y-13983764D01*
X14902664Y-13983764D01*
X14874093Y-13969479D01*
X14859807Y-13940907D01*
X14859807Y-13926621D01*
X14874093Y-13898050D01*
X14902664Y-13883764D01*
X14945521Y-13883764D01*
X14974093Y-13898050D01*
X15088378Y-14198050D02*
X15102664Y-14183764D01*
X15131236Y-14140907D01*
X15145521Y-14112336D01*
X15159807Y-14069479D01*
X15174093Y-13998050D01*
X15174093Y-13940907D01*
X15159807Y-13869479D01*
X15145521Y-13826621D01*
X15131236Y-13798050D01*
X15102664Y-13755193D01*
X15088378Y-13740907D01*
X8559800Y-14286900D02*
X8559800Y-14401200D01*
X8502650Y-14344050D02*
X8616950Y-14344050D01*
X9045521Y-14479764D02*
X8874093Y-14479764D01*
X8959807Y-14479764D02*
X8959807Y-14179764D01*
X8931236Y-14222621D01*
X8902664Y-14251193D01*
X8874093Y-14265479D01*
X9174093Y-14451193D02*
X9188379Y-14465479D01*
X9174093Y-14479764D01*
X9159807Y-14465479D01*
X9174093Y-14451193D01*
X9174093Y-14479764D01*
X9474093Y-14479764D02*
X9302664Y-14479764D01*
X9388378Y-14479764D02*
X9388378Y-14179764D01*
X9359807Y-14222621D01*
X9331236Y-14251193D01*
X9302664Y-14265479D01*
X9731236Y-14279764D02*
X9731236Y-14479764D01*
X9659807Y-14165479D02*
X9588379Y-14379764D01*
X9774093Y-14379764D01*
X9888379Y-14479764D02*
X9888379Y-14279764D01*
X9888379Y-14308336D02*
X9902664Y-14294050D01*
X9931236Y-14279764D01*
X9974093Y-14279764D01*
X10002664Y-14294050D01*
X10016950Y-14322621D01*
X10016950Y-14479764D01*
X10016950Y-14322621D02*
X10031236Y-14294050D01*
X10059807Y-14279764D01*
X10102664Y-14279764D01*
X10131236Y-14294050D01*
X10145521Y-14322621D01*
X10145521Y-14479764D01*
X10288379Y-14479764D02*
X10288379Y-14279764D01*
X10288379Y-14308336D02*
X10302664Y-14294050D01*
X10331236Y-14279764D01*
X10374093Y-14279764D01*
X10402664Y-14294050D01*
X10416950Y-14322621D01*
X10416950Y-14479764D01*
X10416950Y-14322621D02*
X10431236Y-14294050D01*
X10459807Y-14279764D01*
X10502664Y-14279764D01*
X10531236Y-14294050D01*
X10545521Y-14322621D01*
X10545521Y-14479764D01*
X11131236Y-14165479D02*
X10874093Y-14551193D01*
X11516950Y-14179764D02*
X11545521Y-14179764D01*
X11574093Y-14194050D01*
X11588378Y-14208336D01*
X11602664Y-14236907D01*
X11616950Y-14294050D01*
X11616950Y-14365479D01*
X11602664Y-14422621D01*
X11588378Y-14451193D01*
X11574093Y-14465479D01*
X11545521Y-14479764D01*
X11516950Y-14479764D01*
X11488378Y-14465479D01*
X11474093Y-14451193D01*
X11459807Y-14422621D01*
X11445521Y-14365479D01*
X11445521Y-14294050D01*
X11459807Y-14236907D01*
X11474093Y-14208336D01*
X11488378Y-14194050D01*
X11516950Y-14179764D01*
X11745521Y-14451193D02*
X11759807Y-14465479D01*
X11745521Y-14479764D01*
X11731236Y-14465479D01*
X11745521Y-14451193D01*
X11745521Y-14479764D01*
X11945521Y-14179764D02*
X11974093Y-14179764D01*
X12002664Y-14194050D01*
X12016950Y-14208336D01*
X12031235Y-14236907D01*
X12045521Y-14294050D01*
X12045521Y-14365479D01*
X12031235Y-14422621D01*
X12016950Y-14451193D01*
X12002664Y-14465479D01*
X11974093Y-14479764D01*
X11945521Y-14479764D01*
X11916950Y-14465479D01*
X11902664Y-14451193D01*
X11888378Y-14422621D01*
X11874093Y-14365479D01*
X11874093Y-14294050D01*
X11888378Y-14236907D01*
X11902664Y-14208336D01*
X11916950Y-14194050D01*
X11945521Y-14179764D01*
X12302664Y-14279764D02*
X12302664Y-14479764D01*
X12231235Y-14165479D02*
X12159807Y-14379764D01*
X12345521Y-14379764D01*
X12602664Y-14179764D02*
X12459807Y-14179764D01*
X12445521Y-14322621D01*
X12459807Y-14308336D01*
X12488378Y-14294050D01*
X12559807Y-14294050D01*
X12588378Y-14308336D01*
X12602664Y-14322621D01*
X12616950Y-14351193D01*
X12616950Y-14422621D01*
X12602664Y-14451193D01*
X12588378Y-14465479D01*
X12559807Y-14479764D01*
X12488378Y-14479764D01*
X12459807Y-14465479D01*
X12445521Y-14451193D01*
X12731236Y-14179764D02*
X12731236Y-14236907D01*
X12845521Y-14179764D02*
X12845521Y-14236907D01*
X13288378Y-14594050D02*
X13274093Y-14579764D01*
X13245521Y-14536907D01*
X13231235Y-14508336D01*
X13216950Y-14465479D01*
X13202664Y-14394050D01*
X13202664Y-14336907D01*
X13216950Y-14265479D01*
X13231235Y-14222621D01*
X13245521Y-14194050D01*
X13274093Y-14151193D01*
X13288378Y-14136907D01*
X13559807Y-14479764D02*
X13388378Y-14479764D01*
X13474093Y-14479764D02*
X13474093Y-14179764D01*
X13445521Y-14222621D01*
X13416950Y-14251193D01*
X13388378Y-14265479D01*
X13674093Y-14208336D02*
X13688378Y-14194050D01*
X13716950Y-14179764D01*
X13788378Y-14179764D01*
X13816950Y-14194050D01*
X13831235Y-14208336D01*
X13845521Y-14236907D01*
X13845521Y-14265479D01*
X13831235Y-14308336D01*
X13659807Y-14479764D01*
X13845521Y-14479764D01*
X14202664Y-14479764D02*
X14202664Y-14179764D01*
X14331235Y-14479764D02*
X14331235Y-14322621D01*
X14316950Y-14294050D01*
X14288378Y-14279764D01*
X14245521Y-14279764D01*
X14216950Y-14294050D01*
X14202664Y-14308336D01*
X14516950Y-14479764D02*
X14488378Y-14465479D01*
X14474093Y-14451193D01*
X14459807Y-14422621D01*
X14459807Y-14336907D01*
X14474093Y-14308336D01*
X14488378Y-14294050D01*
X14516950Y-14279764D01*
X14559807Y-14279764D01*
X14588378Y-14294050D01*
X14602664Y-14308336D01*
X14616950Y-14336907D01*
X14616950Y-14422621D01*
X14602664Y-14451193D01*
X14588378Y-14465479D01*
X14559807Y-14479764D01*
X14516950Y-14479764D01*
X14788378Y-14479764D02*
X14759807Y-14465479D01*
X14745521Y-14436907D01*
X14745521Y-14179764D01*
X15016950Y-14465479D02*
X14988378Y-14479764D01*
X14931236Y-14479764D01*
X14902664Y-14465479D01*
X14888378Y-14436907D01*
X14888378Y-14322621D01*
X14902664Y-14294050D01*
X14931236Y-14279764D01*
X14988378Y-14279764D01*
X15016950Y-14294050D01*
X15031236Y-14322621D01*
X15031236Y-14351193D01*
X14888378Y-14379764D01*
X15145521Y-14465479D02*
X15174093Y-14479764D01*
X15231236Y-14479764D01*
X15259807Y-14465479D01*
X15274093Y-14436907D01*
X15274093Y-14422621D01*
X15259807Y-14394050D01*
X15231236Y-14379764D01*
X15188378Y-14379764D01*
X15159807Y-14365479D01*
X15145521Y-14336907D01*
X15145521Y-14322621D01*
X15159807Y-14294050D01*
X15188378Y-14279764D01*
X15231236Y-14279764D01*
X15259807Y-14294050D01*
X15374093Y-14594050D02*
X15388378Y-14579764D01*
X15416950Y-14536907D01*
X15431236Y-14508336D01*
X15445521Y-14465479D01*
X15459807Y-14394050D01*
X15459807Y-14336907D01*
X15445521Y-14265479D01*
X15431236Y-14222621D01*
X15416950Y-14194050D01*
X15388378Y-14151193D01*
X15374093Y-14136907D01*
M02*
