G04 #@! TF.FileFunction,Copper,L1,Top,Signal*
%FSLAX46Y46*%
G04 Gerber Fmt 4.6, Leading zero omitted, Abs format (unit mm)*
G04 Created by KiCad (PCBNEW 4.0.5+dfsg1-4+deb9u1) date Mon Sep 26 08:34:44 2022*
%MOMM*%
%LPD*%
G01*
G04 APERTURE LIST*
%ADD10C,0.100000*%
%ADD11C,0.381000*%
%ADD12R,1.574800X2.286000*%
%ADD13O,1.574800X2.286000*%
%ADD14R,2.286000X1.574800*%
%ADD15O,2.286000X1.574800*%
%ADD16C,1.397000*%
%ADD17R,1.778000X1.778000*%
%ADD18C,1.778000*%
%ADD19R,1.397000X1.397000*%
%ADD20C,1.000760*%
%ADD21C,1.000760*%
G04 APERTURE END LIST*
D10*
D11*
X217170000Y-125730000D02*
X217170000Y-74930000D01*
X106680000Y-125730000D02*
X217170000Y-125730000D01*
X106680000Y-100330000D02*
X106680000Y-125730000D01*
X86360000Y-100330000D02*
X106680000Y-100330000D01*
X86360000Y-74930000D02*
X86360000Y-100330000D01*
X132080000Y-74930000D02*
X217170000Y-74930000D01*
X86360000Y-74930000D02*
X132080000Y-74930000D01*
D12*
X137160000Y-115570000D03*
D13*
X139700000Y-115570000D03*
X142240000Y-115570000D03*
X144780000Y-115570000D03*
X147320000Y-115570000D03*
X149860000Y-115570000D03*
X152400000Y-115570000D03*
X154940000Y-115570000D03*
X154940000Y-107950000D03*
X152400000Y-107950000D03*
X149860000Y-107950000D03*
X147320000Y-107950000D03*
X144780000Y-107950000D03*
X142240000Y-107950000D03*
X139700000Y-107950000D03*
X137160000Y-107950000D03*
D14*
X193040000Y-96520000D03*
D15*
X193040000Y-99060000D03*
X193040000Y-101600000D03*
X193040000Y-104140000D03*
X193040000Y-106680000D03*
X193040000Y-109220000D03*
X193040000Y-111760000D03*
X193040000Y-114300000D03*
X193040000Y-116840000D03*
X193040000Y-119380000D03*
X200660000Y-119380000D03*
X200660000Y-116840000D03*
X200660000Y-114300000D03*
X200660000Y-111760000D03*
X200660000Y-109220000D03*
X200660000Y-106680000D03*
X200660000Y-104140000D03*
X200660000Y-101600000D03*
X200660000Y-99060000D03*
X200660000Y-96520000D03*
D16*
X161290000Y-109220000D03*
X161290000Y-114300000D03*
D17*
X199390000Y-83693000D03*
D18*
X199390000Y-88773000D03*
D19*
X95250000Y-82550000D03*
D16*
X97790000Y-82550000D03*
D19*
X143510000Y-82550000D03*
D16*
X146050000Y-82550000D03*
D19*
X143510000Y-92710000D03*
D16*
X146050000Y-92710000D03*
D19*
X176530000Y-82550000D03*
D16*
X173990000Y-82550000D03*
D19*
X176530000Y-92710000D03*
D16*
X173990000Y-92710000D03*
D19*
X176530000Y-102870000D03*
D16*
X173990000Y-102870000D03*
D19*
X204470000Y-82550000D03*
D16*
X207010000Y-82550000D03*
D19*
X113030000Y-82550000D03*
D16*
X115570000Y-82550000D03*
D19*
X113030000Y-92710000D03*
D16*
X115570000Y-92710000D03*
D19*
X115570000Y-113030000D03*
D16*
X113030000Y-113030000D03*
D19*
X97790000Y-92710000D03*
D16*
X95250000Y-92710000D03*
D18*
X102870000Y-80010000D03*
X102870000Y-95250000D03*
X127000000Y-80010000D03*
X127000000Y-95250000D03*
X107950000Y-80010000D03*
X107950000Y-95250000D03*
X132080000Y-80010000D03*
X132080000Y-95250000D03*
X165100000Y-114300000D03*
X180340000Y-114300000D03*
X121920000Y-95250000D03*
X121920000Y-80010000D03*
D19*
X124460000Y-107950000D03*
D16*
X124460000Y-105410000D03*
X121920000Y-105410000D03*
D19*
X212090000Y-99060000D03*
D16*
X212090000Y-101600000D03*
X212090000Y-104140000D03*
X212090000Y-106680000D03*
X212090000Y-109220000D03*
X212090000Y-111760000D03*
X212090000Y-114300000D03*
X212090000Y-116840000D03*
X212090000Y-119380000D03*
D19*
X212090000Y-91440000D03*
D16*
X212090000Y-93980000D03*
D20*
X190500000Y-111760000D03*
X190500000Y-104140000D03*
X182880000Y-109220000D03*
X187960000Y-109220000D03*
X146050000Y-87630000D03*
X151130000Y-87630000D03*
X182880000Y-88900000D03*
X182880000Y-83820000D03*
X201930000Y-91440000D03*
X201930000Y-83820000D03*
X167640000Y-111760000D03*
X167640000Y-95250000D03*
X152400000Y-95250000D03*
X142240000Y-95250000D03*
X132080000Y-97790000D03*
X127000000Y-97790000D03*
X121920000Y-120650000D03*
X127000000Y-120650000D03*
X204470000Y-121920000D03*
X204470000Y-97790000D03*
X118110000Y-105410000D03*
X118110000Y-97790000D03*
D21*
X190500000Y-111760000D02*
X190500000Y-104140000D01*
X182880000Y-109220000D02*
X187960000Y-109220000D01*
X146050000Y-87630000D02*
X151130000Y-87630000D01*
X182880000Y-88900000D02*
X182880000Y-83820000D01*
X201930000Y-83820000D02*
X201930000Y-91440000D01*
X167640000Y-95250000D02*
X167640000Y-111760000D01*
X142240000Y-95250000D02*
X152400000Y-95250000D01*
X127000000Y-97790000D02*
X132080000Y-97790000D01*
X127000000Y-120650000D02*
X121920000Y-120650000D01*
X204470000Y-97790000D02*
X204470000Y-121920000D01*
X118110000Y-105410000D02*
X118110000Y-97790000D01*
M02*
