G04 #@! TF.FileFunction,Legend,Top*
%FSLAX46Y46*%
G04 Gerber Fmt 4.6, Leading zero omitted, Abs format (unit mm)*
G04 Created by KiCad (PCBNEW 4.0.5+dfsg1-4+deb9u1) date Sun Sep  4 20:05:12 2022*
%MOMM*%
%LPD*%
G01*
G04 APERTURE LIST*
%ADD10C,0.100000*%
%ADD11C,0.381000*%
%ADD12C,0.304800*%
%ADD13C,0.285750*%
%ADD14C,0.203200*%
%ADD15C,0.271780*%
%ADD16C,0.254000*%
G04 APERTURE END LIST*
D10*
D11*
X182880000Y-83820000D02*
X182880000Y-88900000D01*
X201930000Y-83820000D02*
X201930000Y-91440000D01*
X204470000Y-97790000D02*
X204470000Y-121920000D01*
X190500000Y-104140000D02*
X190500000Y-111760000D01*
X182880000Y-109220000D02*
X187960000Y-109220000D01*
X167640000Y-95250000D02*
X167640000Y-111760000D01*
X121920000Y-120650000D02*
X127000000Y-120650000D01*
X142240000Y-95250000D02*
X152400000Y-95250000D01*
X146050000Y-87630000D02*
X151130000Y-87630000D01*
X127000000Y-97790000D02*
X132080000Y-97790000D01*
X118110000Y-105410000D02*
X118110000Y-97790000D01*
X134620000Y-110490000D02*
X134620000Y-110490000D01*
X134620000Y-110490000D02*
X135890000Y-110490000D01*
X135890000Y-110490000D02*
X135890000Y-113030000D01*
X135890000Y-113030000D02*
X134620000Y-113030000D01*
X134620000Y-109220000D02*
X157480000Y-109220000D01*
X157480000Y-109220000D02*
X157480000Y-114300000D01*
X157480000Y-114300000D02*
X134620000Y-114300000D01*
X134620000Y-114300000D02*
X134620000Y-109220000D01*
X198120000Y-93980000D02*
X198120000Y-95250000D01*
X198120000Y-95250000D02*
X195580000Y-95250000D01*
X195580000Y-95250000D02*
X195580000Y-93980000D01*
X199390000Y-93980000D02*
X199390000Y-121920000D01*
X199390000Y-121920000D02*
X194310000Y-121920000D01*
X194310000Y-121920000D02*
X194310000Y-93980000D01*
X194310000Y-93980000D02*
X199390000Y-93980000D01*
D12*
X162306000Y-108204000D02*
X162306000Y-115316000D01*
X162306000Y-115316000D02*
X160274000Y-115316000D01*
X160274000Y-115316000D02*
X160274000Y-108204000D01*
X160274000Y-108204000D02*
X162306000Y-108204000D01*
X161798000Y-108204000D02*
X162306000Y-108712000D01*
X196850000Y-81153000D02*
X180340000Y-81153000D01*
X180340000Y-81153000D02*
X180340000Y-91313000D01*
X180340000Y-91313000D02*
X196850000Y-91313000D01*
X196850000Y-91313000D02*
X196850000Y-81153000D01*
X196850000Y-82423000D02*
X198120000Y-82423000D01*
X198120000Y-82423000D02*
X198120000Y-84963000D01*
X198120000Y-84963000D02*
X196850000Y-84963000D01*
X198120000Y-83693000D02*
X199390000Y-83693000D01*
X196850000Y-88773000D02*
X199390000Y-88773000D01*
X99060000Y-82550000D02*
G75*
G03X99060000Y-82550000I-2540000J0D01*
G01*
X99060000Y-81915000D02*
X98425000Y-81915000D01*
X98425000Y-81915000D02*
X98425000Y-83185000D01*
X98425000Y-83185000D02*
X99060000Y-83185000D01*
X147320000Y-82550000D02*
G75*
G03X147320000Y-82550000I-2540000J0D01*
G01*
X147320000Y-81915000D02*
X146685000Y-81915000D01*
X146685000Y-81915000D02*
X146685000Y-83185000D01*
X146685000Y-83185000D02*
X147320000Y-83185000D01*
X147320000Y-92710000D02*
G75*
G03X147320000Y-92710000I-2540000J0D01*
G01*
X147320000Y-92075000D02*
X146685000Y-92075000D01*
X146685000Y-92075000D02*
X146685000Y-93345000D01*
X146685000Y-93345000D02*
X147320000Y-93345000D01*
X177800000Y-82550000D02*
G75*
G03X177800000Y-82550000I-2540000J0D01*
G01*
X172720000Y-83185000D02*
X173355000Y-83185000D01*
X173355000Y-83185000D02*
X173355000Y-81915000D01*
X173355000Y-81915000D02*
X172720000Y-81915000D01*
X177800000Y-92710000D02*
G75*
G03X177800000Y-92710000I-2540000J0D01*
G01*
X172720000Y-93345000D02*
X173355000Y-93345000D01*
X173355000Y-93345000D02*
X173355000Y-92075000D01*
X173355000Y-92075000D02*
X172720000Y-92075000D01*
X177800000Y-102870000D02*
G75*
G03X177800000Y-102870000I-2540000J0D01*
G01*
X172720000Y-103505000D02*
X173355000Y-103505000D01*
X173355000Y-103505000D02*
X173355000Y-102235000D01*
X173355000Y-102235000D02*
X172720000Y-102235000D01*
X208280000Y-82550000D02*
G75*
G03X208280000Y-82550000I-2540000J0D01*
G01*
X208280000Y-81915000D02*
X207645000Y-81915000D01*
X207645000Y-81915000D02*
X207645000Y-83185000D01*
X207645000Y-83185000D02*
X208280000Y-83185000D01*
X116840000Y-82550000D02*
G75*
G03X116840000Y-82550000I-2540000J0D01*
G01*
X116840000Y-81915000D02*
X116205000Y-81915000D01*
X116205000Y-81915000D02*
X116205000Y-83185000D01*
X116205000Y-83185000D02*
X116840000Y-83185000D01*
X116840000Y-92710000D02*
G75*
G03X116840000Y-92710000I-2540000J0D01*
G01*
X116840000Y-92075000D02*
X116205000Y-92075000D01*
X116205000Y-92075000D02*
X116205000Y-93345000D01*
X116205000Y-93345000D02*
X116840000Y-93345000D01*
X116840000Y-113030000D02*
G75*
G03X116840000Y-113030000I-2540000J0D01*
G01*
X111760000Y-113665000D02*
X112395000Y-113665000D01*
X112395000Y-113665000D02*
X112395000Y-112395000D01*
X112395000Y-112395000D02*
X111760000Y-112395000D01*
X99060000Y-92710000D02*
G75*
G03X99060000Y-92710000I-2540000J0D01*
G01*
X93980000Y-93345000D02*
X94615000Y-93345000D01*
X94615000Y-93345000D02*
X94615000Y-92075000D01*
X94615000Y-92075000D02*
X93980000Y-92075000D01*
X104140000Y-81280000D02*
X104140000Y-93980000D01*
X104140000Y-93980000D02*
X101600000Y-93980000D01*
X101600000Y-93980000D02*
X101600000Y-81280000D01*
X102870000Y-93980000D02*
X102870000Y-95250000D01*
X102870000Y-80010000D02*
X102870000Y-81280000D01*
X103378000Y-81280000D02*
X104140000Y-82042000D01*
X104140000Y-81280000D02*
X101600000Y-81280000D01*
X128270000Y-81280000D02*
X128270000Y-93980000D01*
X128270000Y-93980000D02*
X125730000Y-93980000D01*
X125730000Y-93980000D02*
X125730000Y-81280000D01*
X127000000Y-93980000D02*
X127000000Y-95250000D01*
X127000000Y-80010000D02*
X127000000Y-81280000D01*
X127508000Y-81280000D02*
X128270000Y-82042000D01*
X128270000Y-81280000D02*
X125730000Y-81280000D01*
X109220000Y-81280000D02*
X109220000Y-93980000D01*
X109220000Y-93980000D02*
X106680000Y-93980000D01*
X106680000Y-93980000D02*
X106680000Y-81280000D01*
X107950000Y-93980000D02*
X107950000Y-95250000D01*
X107950000Y-80010000D02*
X107950000Y-81280000D01*
X108458000Y-81280000D02*
X109220000Y-82042000D01*
X109220000Y-81280000D02*
X106680000Y-81280000D01*
X133350000Y-81280000D02*
X133350000Y-93980000D01*
X133350000Y-93980000D02*
X130810000Y-93980000D01*
X130810000Y-93980000D02*
X130810000Y-81280000D01*
X132080000Y-93980000D02*
X132080000Y-95250000D01*
X132080000Y-80010000D02*
X132080000Y-81280000D01*
X132588000Y-81280000D02*
X133350000Y-82042000D01*
X133350000Y-81280000D02*
X130810000Y-81280000D01*
X166370000Y-113030000D02*
X179070000Y-113030000D01*
X179070000Y-113030000D02*
X179070000Y-115570000D01*
X179070000Y-115570000D02*
X166370000Y-115570000D01*
X179070000Y-114300000D02*
X180340000Y-114300000D01*
X165100000Y-114300000D02*
X166370000Y-114300000D01*
X166370000Y-113792000D02*
X167132000Y-113030000D01*
X166370000Y-113030000D02*
X166370000Y-115570000D01*
X120650000Y-93980000D02*
X120650000Y-81280000D01*
X120650000Y-81280000D02*
X123190000Y-81280000D01*
X123190000Y-81280000D02*
X123190000Y-93980000D01*
X121920000Y-81280000D02*
X121920000Y-80010000D01*
X121920000Y-95250000D02*
X121920000Y-93980000D01*
X121412000Y-93980000D02*
X120650000Y-93218000D01*
X120650000Y-93980000D02*
X123190000Y-93980000D01*
X120650000Y-105410000D02*
X124460000Y-109220000D01*
X124460000Y-109220000D02*
X125730000Y-109220000D01*
X125730000Y-109220000D02*
X127000000Y-107950000D01*
X127000000Y-107950000D02*
X127000000Y-105410000D01*
X127000000Y-105410000D02*
X124460000Y-102870000D01*
X124460000Y-102870000D02*
X121920000Y-102870000D01*
X121920000Y-102870000D02*
X120650000Y-104140000D01*
X120650000Y-104140000D02*
X120650000Y-105410000D01*
X213360000Y-120650000D02*
X210820000Y-120650000D01*
X210820000Y-120650000D02*
X210820000Y-97790000D01*
X210820000Y-97790000D02*
X213360000Y-97790000D01*
X213360000Y-120650000D02*
X213360000Y-97790000D01*
X213360000Y-100330000D02*
X210820000Y-100330000D01*
X210820000Y-90170000D02*
X213360000Y-90170000D01*
X213360000Y-90170000D02*
X213360000Y-95250000D01*
X213360000Y-95250000D02*
X210820000Y-95250000D01*
X210820000Y-95250000D02*
X210820000Y-90170000D01*
D13*
X138584215Y-111179429D02*
X138584215Y-109655429D01*
X139781644Y-111034286D02*
X139727215Y-111106857D01*
X139563929Y-111179429D01*
X139455072Y-111179429D01*
X139291787Y-111106857D01*
X139182929Y-110961714D01*
X139128501Y-110816571D01*
X139074072Y-110526286D01*
X139074072Y-110308571D01*
X139128501Y-110018286D01*
X139182929Y-109873143D01*
X139291787Y-109728000D01*
X139455072Y-109655429D01*
X139563929Y-109655429D01*
X139727215Y-109728000D01*
X139781644Y-109800571D01*
X140217072Y-109800571D02*
X140271501Y-109728000D01*
X140380358Y-109655429D01*
X140652501Y-109655429D01*
X140761358Y-109728000D01*
X140815787Y-109800571D01*
X140870215Y-109945714D01*
X140870215Y-110090857D01*
X140815787Y-110308571D01*
X140162644Y-111179429D01*
X140870215Y-111179429D01*
D12*
D13*
X143754930Y-112195429D02*
X144516930Y-112195429D01*
X144027073Y-113719429D01*
X145442215Y-112703429D02*
X145442215Y-113719429D01*
X145170072Y-112122857D02*
X144897929Y-113211429D01*
X145605501Y-113211429D01*
X146585215Y-113719429D02*
X146040929Y-113719429D01*
X146040929Y-112195429D01*
X146911786Y-113646857D02*
X147075072Y-113719429D01*
X147347215Y-113719429D01*
X147456072Y-113646857D01*
X147510501Y-113574286D01*
X147564929Y-113429143D01*
X147564929Y-113284000D01*
X147510501Y-113138857D01*
X147456072Y-113066286D01*
X147347215Y-112993714D01*
X147129501Y-112921143D01*
X147020643Y-112848571D01*
X146966215Y-112776000D01*
X146911786Y-112630857D01*
X146911786Y-112485714D01*
X146966215Y-112340571D01*
X147020643Y-112268000D01*
X147129501Y-112195429D01*
X147401643Y-112195429D01*
X147564929Y-112268000D01*
X148653500Y-113719429D02*
X148000357Y-113719429D01*
X148326929Y-113719429D02*
X148326929Y-112195429D01*
X148218072Y-112413143D01*
X148109214Y-112558286D01*
X148000357Y-112630857D01*
X149034500Y-112195429D02*
X149742071Y-112195429D01*
X149361071Y-112776000D01*
X149524357Y-112776000D01*
X149633214Y-112848571D01*
X149687643Y-112921143D01*
X149742071Y-113066286D01*
X149742071Y-113429143D01*
X149687643Y-113574286D01*
X149633214Y-113646857D01*
X149524357Y-113719429D01*
X149197785Y-113719429D01*
X149088928Y-113646857D01*
X149034500Y-113574286D01*
X150395214Y-112848571D02*
X150286356Y-112776000D01*
X150231928Y-112703429D01*
X150177499Y-112558286D01*
X150177499Y-112485714D01*
X150231928Y-112340571D01*
X150286356Y-112268000D01*
X150395214Y-112195429D01*
X150612928Y-112195429D01*
X150721785Y-112268000D01*
X150776214Y-112340571D01*
X150830642Y-112485714D01*
X150830642Y-112558286D01*
X150776214Y-112703429D01*
X150721785Y-112776000D01*
X150612928Y-112848571D01*
X150395214Y-112848571D01*
X150286356Y-112921143D01*
X150231928Y-112993714D01*
X150177499Y-113138857D01*
X150177499Y-113429143D01*
X150231928Y-113574286D01*
X150286356Y-113646857D01*
X150395214Y-113719429D01*
X150612928Y-113719429D01*
X150721785Y-113646857D01*
X150776214Y-113574286D01*
X150830642Y-113429143D01*
X150830642Y-113138857D01*
X150776214Y-112993714D01*
X150721785Y-112921143D01*
X150612928Y-112848571D01*
D12*
D13*
X198924333Y-100175785D02*
X197146333Y-100175785D01*
X198755000Y-98978356D02*
X198839667Y-99032785D01*
X198924333Y-99196071D01*
X198924333Y-99304928D01*
X198839667Y-99468213D01*
X198670333Y-99577071D01*
X198501000Y-99631499D01*
X198162333Y-99685928D01*
X197908333Y-99685928D01*
X197569667Y-99631499D01*
X197400333Y-99577071D01*
X197231000Y-99468213D01*
X197146333Y-99304928D01*
X197146333Y-99196071D01*
X197231000Y-99032785D01*
X197315667Y-98978356D01*
X198924333Y-97889785D02*
X198924333Y-98542928D01*
X198924333Y-98216356D02*
X197146333Y-98216356D01*
X197400333Y-98325213D01*
X197569667Y-98434071D01*
X197654333Y-98542928D01*
D12*
D13*
X194860333Y-115071070D02*
X194860333Y-114309070D01*
X196638333Y-114798927D01*
X195453000Y-113383785D02*
X196638333Y-113383785D01*
X194775667Y-113655928D02*
X196045667Y-113928071D01*
X196045667Y-113220499D01*
X196638333Y-112240785D02*
X196638333Y-112785071D01*
X194860333Y-112785071D01*
X196553667Y-111914214D02*
X196638333Y-111750928D01*
X196638333Y-111478785D01*
X196553667Y-111369928D01*
X196469000Y-111315499D01*
X196299667Y-111261071D01*
X196130333Y-111261071D01*
X195961000Y-111315499D01*
X195876333Y-111369928D01*
X195791667Y-111478785D01*
X195707000Y-111696499D01*
X195622333Y-111805357D01*
X195537667Y-111859785D01*
X195368333Y-111914214D01*
X195199000Y-111914214D01*
X195029667Y-111859785D01*
X194945000Y-111805357D01*
X194860333Y-111696499D01*
X194860333Y-111424357D01*
X194945000Y-111261071D01*
X194860333Y-110880071D02*
X194860333Y-110172500D01*
X195537667Y-110553500D01*
X195537667Y-110390214D01*
X195622333Y-110281357D01*
X195707000Y-110226928D01*
X195876333Y-110172500D01*
X196299667Y-110172500D01*
X196469000Y-110226928D01*
X196553667Y-110281357D01*
X196638333Y-110390214D01*
X196638333Y-110716786D01*
X196553667Y-110825643D01*
X196469000Y-110880071D01*
X194860333Y-109791500D02*
X194860333Y-109029500D01*
X196638333Y-109519357D01*
X195453000Y-108104215D02*
X196638333Y-108104215D01*
X194775667Y-108376358D02*
X196045667Y-108648501D01*
X196045667Y-107940929D01*
D12*
D14*
X161652857Y-111929333D02*
X161701238Y-111977714D01*
X161749619Y-112122857D01*
X161749619Y-112219619D01*
X161701238Y-112364761D01*
X161604476Y-112461523D01*
X161507714Y-112509904D01*
X161314190Y-112558285D01*
X161169048Y-112558285D01*
X160975524Y-112509904D01*
X160878762Y-112461523D01*
X160782000Y-112364761D01*
X160733619Y-112219619D01*
X160733619Y-112122857D01*
X160782000Y-111977714D01*
X160830381Y-111929333D01*
X161749619Y-110961714D02*
X161749619Y-111542285D01*
X161749619Y-111251999D02*
X160733619Y-111251999D01*
X160878762Y-111348761D01*
X160975524Y-111445523D01*
X161023905Y-111542285D01*
X189018333Y-84364286D02*
X188957857Y-84436857D01*
X188776428Y-84509429D01*
X188655476Y-84509429D01*
X188474048Y-84436857D01*
X188353095Y-84291714D01*
X188292619Y-84146571D01*
X188232143Y-83856286D01*
X188232143Y-83638571D01*
X188292619Y-83348286D01*
X188353095Y-83203143D01*
X188474048Y-83058000D01*
X188655476Y-82985429D01*
X188776428Y-82985429D01*
X188957857Y-83058000D01*
X189018333Y-83130571D01*
X189502143Y-83130571D02*
X189562619Y-83058000D01*
X189683571Y-82985429D01*
X189985952Y-82985429D01*
X190106905Y-83058000D01*
X190167381Y-83130571D01*
X190227857Y-83275714D01*
X190227857Y-83420857D01*
X190167381Y-83638571D01*
X189441667Y-84509429D01*
X190227857Y-84509429D01*
X189018333Y-89589429D02*
X188292619Y-89589429D01*
X188655476Y-89589429D02*
X188655476Y-88065429D01*
X188534524Y-88283143D01*
X188413571Y-88428286D01*
X188292619Y-88500857D01*
X190106905Y-88573429D02*
X190106905Y-89589429D01*
X189562619Y-88573429D02*
X189562619Y-89371714D01*
X189623095Y-89516857D01*
X189744048Y-89589429D01*
X189925476Y-89589429D01*
X190046428Y-89516857D01*
X190106905Y-89444286D01*
D12*
X94669428Y-79429429D02*
X94669428Y-77905429D01*
X95032285Y-77905429D01*
X95250000Y-77978000D01*
X95395142Y-78123143D01*
X95467714Y-78268286D01*
X95540285Y-78558571D01*
X95540285Y-78776286D01*
X95467714Y-79066571D01*
X95395142Y-79211714D01*
X95250000Y-79356857D01*
X95032285Y-79429429D01*
X94669428Y-79429429D01*
X96991714Y-79429429D02*
X96120857Y-79429429D01*
X96556285Y-79429429D02*
X96556285Y-77905429D01*
X96411142Y-78123143D01*
X96266000Y-78268286D01*
X96120857Y-78340857D01*
X98443143Y-79429429D02*
X97572286Y-79429429D01*
X98007714Y-79429429D02*
X98007714Y-77905429D01*
X97862571Y-78123143D01*
X97717429Y-78268286D01*
X97572286Y-78340857D01*
X142929428Y-79429429D02*
X142929428Y-77905429D01*
X143292285Y-77905429D01*
X143510000Y-77978000D01*
X143655142Y-78123143D01*
X143727714Y-78268286D01*
X143800285Y-78558571D01*
X143800285Y-78776286D01*
X143727714Y-79066571D01*
X143655142Y-79211714D01*
X143510000Y-79356857D01*
X143292285Y-79429429D01*
X142929428Y-79429429D01*
X145251714Y-79429429D02*
X144380857Y-79429429D01*
X144816285Y-79429429D02*
X144816285Y-77905429D01*
X144671142Y-78123143D01*
X144526000Y-78268286D01*
X144380857Y-78340857D01*
X146195143Y-77905429D02*
X146340286Y-77905429D01*
X146485429Y-77978000D01*
X146558000Y-78050571D01*
X146630571Y-78195714D01*
X146703143Y-78486000D01*
X146703143Y-78848857D01*
X146630571Y-79139143D01*
X146558000Y-79284286D01*
X146485429Y-79356857D01*
X146340286Y-79429429D01*
X146195143Y-79429429D01*
X146050000Y-79356857D01*
X145977429Y-79284286D01*
X145904857Y-79139143D01*
X145832286Y-78848857D01*
X145832286Y-78486000D01*
X145904857Y-78195714D01*
X145977429Y-78050571D01*
X146050000Y-77978000D01*
X146195143Y-77905429D01*
X143655143Y-89589429D02*
X143655143Y-88065429D01*
X144018000Y-88065429D01*
X144235715Y-88138000D01*
X144380857Y-88283143D01*
X144453429Y-88428286D01*
X144526000Y-88718571D01*
X144526000Y-88936286D01*
X144453429Y-89226571D01*
X144380857Y-89371714D01*
X144235715Y-89516857D01*
X144018000Y-89589429D01*
X143655143Y-89589429D01*
X145251715Y-89589429D02*
X145542000Y-89589429D01*
X145687143Y-89516857D01*
X145759715Y-89444286D01*
X145904857Y-89226571D01*
X145977429Y-88936286D01*
X145977429Y-88355714D01*
X145904857Y-88210571D01*
X145832286Y-88138000D01*
X145687143Y-88065429D01*
X145396857Y-88065429D01*
X145251715Y-88138000D01*
X145179143Y-88210571D01*
X145106572Y-88355714D01*
X145106572Y-88718571D01*
X145179143Y-88863714D01*
X145251715Y-88936286D01*
X145396857Y-89008857D01*
X145687143Y-89008857D01*
X145832286Y-88936286D01*
X145904857Y-88863714D01*
X145977429Y-88718571D01*
X174135143Y-87049429D02*
X174135143Y-85525429D01*
X174498000Y-85525429D01*
X174715715Y-85598000D01*
X174860857Y-85743143D01*
X174933429Y-85888286D01*
X175006000Y-86178571D01*
X175006000Y-86396286D01*
X174933429Y-86686571D01*
X174860857Y-86831714D01*
X174715715Y-86976857D01*
X174498000Y-87049429D01*
X174135143Y-87049429D01*
X175876857Y-86178571D02*
X175731715Y-86106000D01*
X175659143Y-86033429D01*
X175586572Y-85888286D01*
X175586572Y-85815714D01*
X175659143Y-85670571D01*
X175731715Y-85598000D01*
X175876857Y-85525429D01*
X176167143Y-85525429D01*
X176312286Y-85598000D01*
X176384857Y-85670571D01*
X176457429Y-85815714D01*
X176457429Y-85888286D01*
X176384857Y-86033429D01*
X176312286Y-86106000D01*
X176167143Y-86178571D01*
X175876857Y-86178571D01*
X175731715Y-86251143D01*
X175659143Y-86323714D01*
X175586572Y-86468857D01*
X175586572Y-86759143D01*
X175659143Y-86904286D01*
X175731715Y-86976857D01*
X175876857Y-87049429D01*
X176167143Y-87049429D01*
X176312286Y-86976857D01*
X176384857Y-86904286D01*
X176457429Y-86759143D01*
X176457429Y-86468857D01*
X176384857Y-86323714D01*
X176312286Y-86251143D01*
X176167143Y-86178571D01*
X174135143Y-97209429D02*
X174135143Y-95685429D01*
X174498000Y-95685429D01*
X174715715Y-95758000D01*
X174860857Y-95903143D01*
X174933429Y-96048286D01*
X175006000Y-96338571D01*
X175006000Y-96556286D01*
X174933429Y-96846571D01*
X174860857Y-96991714D01*
X174715715Y-97136857D01*
X174498000Y-97209429D01*
X174135143Y-97209429D01*
X175514000Y-95685429D02*
X176530000Y-95685429D01*
X175876857Y-97209429D01*
X174135143Y-107369429D02*
X174135143Y-105845429D01*
X174498000Y-105845429D01*
X174715715Y-105918000D01*
X174860857Y-106063143D01*
X174933429Y-106208286D01*
X175006000Y-106498571D01*
X175006000Y-106716286D01*
X174933429Y-107006571D01*
X174860857Y-107151714D01*
X174715715Y-107296857D01*
X174498000Y-107369429D01*
X174135143Y-107369429D01*
X176312286Y-105845429D02*
X176022000Y-105845429D01*
X175876857Y-105918000D01*
X175804286Y-105990571D01*
X175659143Y-106208286D01*
X175586572Y-106498571D01*
X175586572Y-107079143D01*
X175659143Y-107224286D01*
X175731715Y-107296857D01*
X175876857Y-107369429D01*
X176167143Y-107369429D01*
X176312286Y-107296857D01*
X176384857Y-107224286D01*
X176457429Y-107079143D01*
X176457429Y-106716286D01*
X176384857Y-106571143D01*
X176312286Y-106498571D01*
X176167143Y-106426000D01*
X175876857Y-106426000D01*
X175731715Y-106498571D01*
X175659143Y-106571143D01*
X175586572Y-106716286D01*
X204615143Y-79429429D02*
X204615143Y-77905429D01*
X204978000Y-77905429D01*
X205195715Y-77978000D01*
X205340857Y-78123143D01*
X205413429Y-78268286D01*
X205486000Y-78558571D01*
X205486000Y-78776286D01*
X205413429Y-79066571D01*
X205340857Y-79211714D01*
X205195715Y-79356857D01*
X204978000Y-79429429D01*
X204615143Y-79429429D01*
X206864857Y-77905429D02*
X206139143Y-77905429D01*
X206066572Y-78631143D01*
X206139143Y-78558571D01*
X206284286Y-78486000D01*
X206647143Y-78486000D01*
X206792286Y-78558571D01*
X206864857Y-78631143D01*
X206937429Y-78776286D01*
X206937429Y-79139143D01*
X206864857Y-79284286D01*
X206792286Y-79356857D01*
X206647143Y-79429429D01*
X206284286Y-79429429D01*
X206139143Y-79356857D01*
X206066572Y-79284286D01*
X113175143Y-79429429D02*
X113175143Y-77905429D01*
X113538000Y-77905429D01*
X113755715Y-77978000D01*
X113900857Y-78123143D01*
X113973429Y-78268286D01*
X114046000Y-78558571D01*
X114046000Y-78776286D01*
X113973429Y-79066571D01*
X113900857Y-79211714D01*
X113755715Y-79356857D01*
X113538000Y-79429429D01*
X113175143Y-79429429D01*
X115352286Y-78413429D02*
X115352286Y-79429429D01*
X114989429Y-77832857D02*
X114626572Y-78921429D01*
X115570000Y-78921429D01*
X113175143Y-89589429D02*
X113175143Y-88065429D01*
X113538000Y-88065429D01*
X113755715Y-88138000D01*
X113900857Y-88283143D01*
X113973429Y-88428286D01*
X114046000Y-88718571D01*
X114046000Y-88936286D01*
X113973429Y-89226571D01*
X113900857Y-89371714D01*
X113755715Y-89516857D01*
X113538000Y-89589429D01*
X113175143Y-89589429D01*
X114554000Y-88065429D02*
X115497429Y-88065429D01*
X114989429Y-88646000D01*
X115207143Y-88646000D01*
X115352286Y-88718571D01*
X115424857Y-88791143D01*
X115497429Y-88936286D01*
X115497429Y-89299143D01*
X115424857Y-89444286D01*
X115352286Y-89516857D01*
X115207143Y-89589429D01*
X114771715Y-89589429D01*
X114626572Y-89516857D01*
X114554000Y-89444286D01*
X113175143Y-117529429D02*
X113175143Y-116005429D01*
X113538000Y-116005429D01*
X113755715Y-116078000D01*
X113900857Y-116223143D01*
X113973429Y-116368286D01*
X114046000Y-116658571D01*
X114046000Y-116876286D01*
X113973429Y-117166571D01*
X113900857Y-117311714D01*
X113755715Y-117456857D01*
X113538000Y-117529429D01*
X113175143Y-117529429D01*
X114626572Y-116150571D02*
X114699143Y-116078000D01*
X114844286Y-116005429D01*
X115207143Y-116005429D01*
X115352286Y-116078000D01*
X115424857Y-116150571D01*
X115497429Y-116295714D01*
X115497429Y-116440857D01*
X115424857Y-116658571D01*
X114554000Y-117529429D01*
X115497429Y-117529429D01*
X95395143Y-97209429D02*
X95395143Y-95685429D01*
X95758000Y-95685429D01*
X95975715Y-95758000D01*
X96120857Y-95903143D01*
X96193429Y-96048286D01*
X96266000Y-96338571D01*
X96266000Y-96556286D01*
X96193429Y-96846571D01*
X96120857Y-96991714D01*
X95975715Y-97136857D01*
X95758000Y-97209429D01*
X95395143Y-97209429D01*
X97717429Y-97209429D02*
X96846572Y-97209429D01*
X97282000Y-97209429D02*
X97282000Y-95685429D01*
X97136857Y-95903143D01*
X96991715Y-96048286D01*
X96846572Y-96120857D01*
D14*
X103501976Y-87841667D02*
X102836738Y-88265000D01*
X103501976Y-88567381D02*
X102104976Y-88567381D01*
X102104976Y-88083572D01*
X102171500Y-87962619D01*
X102238024Y-87902143D01*
X102371071Y-87841667D01*
X102570643Y-87841667D01*
X102703690Y-87902143D01*
X102770214Y-87962619D01*
X102836738Y-88083572D01*
X102836738Y-88567381D01*
X102104976Y-86753095D02*
X102104976Y-86995000D01*
X102171500Y-87115952D01*
X102238024Y-87176429D01*
X102437595Y-87297381D01*
X102703690Y-87357857D01*
X103235881Y-87357857D01*
X103368929Y-87297381D01*
X103435452Y-87236905D01*
X103501976Y-87115952D01*
X103501976Y-86874048D01*
X103435452Y-86753095D01*
X103368929Y-86692619D01*
X103235881Y-86632143D01*
X102903262Y-86632143D01*
X102770214Y-86692619D01*
X102703690Y-86753095D01*
X102637167Y-86874048D01*
X102637167Y-87115952D01*
X102703690Y-87236905D01*
X102770214Y-87297381D01*
X102903262Y-87357857D01*
X127631976Y-87841667D02*
X126966738Y-88265000D01*
X127631976Y-88567381D02*
X126234976Y-88567381D01*
X126234976Y-88083572D01*
X126301500Y-87962619D01*
X126368024Y-87902143D01*
X126501071Y-87841667D01*
X126700643Y-87841667D01*
X126833690Y-87902143D01*
X126900214Y-87962619D01*
X126966738Y-88083572D01*
X126966738Y-88567381D01*
X126234976Y-86692619D02*
X126234976Y-87297381D01*
X126900214Y-87357857D01*
X126833690Y-87297381D01*
X126767167Y-87176429D01*
X126767167Y-86874048D01*
X126833690Y-86753095D01*
X126900214Y-86692619D01*
X127033262Y-86632143D01*
X127365881Y-86632143D01*
X127498929Y-86692619D01*
X127565452Y-86753095D01*
X127631976Y-86874048D01*
X127631976Y-87176429D01*
X127565452Y-87297381D01*
X127498929Y-87357857D01*
X108581976Y-87841667D02*
X107916738Y-88265000D01*
X108581976Y-88567381D02*
X107184976Y-88567381D01*
X107184976Y-88083572D01*
X107251500Y-87962619D01*
X107318024Y-87902143D01*
X107451071Y-87841667D01*
X107650643Y-87841667D01*
X107783690Y-87902143D01*
X107850214Y-87962619D01*
X107916738Y-88083572D01*
X107916738Y-88567381D01*
X107650643Y-86753095D02*
X108581976Y-86753095D01*
X107118452Y-87055476D02*
X108116310Y-87357857D01*
X108116310Y-86571667D01*
X132711976Y-87841667D02*
X132046738Y-88265000D01*
X132711976Y-88567381D02*
X131314976Y-88567381D01*
X131314976Y-88083572D01*
X131381500Y-87962619D01*
X131448024Y-87902143D01*
X131581071Y-87841667D01*
X131780643Y-87841667D01*
X131913690Y-87902143D01*
X131980214Y-87962619D01*
X132046738Y-88083572D01*
X132046738Y-88567381D01*
X131314976Y-87418333D02*
X131314976Y-86632143D01*
X131847167Y-87055476D01*
X131847167Y-86874048D01*
X131913690Y-86753095D01*
X131980214Y-86692619D01*
X132113262Y-86632143D01*
X132445881Y-86632143D01*
X132578929Y-86692619D01*
X132645452Y-86753095D01*
X132711976Y-86874048D01*
X132711976Y-87236905D01*
X132645452Y-87357857D01*
X132578929Y-87418333D01*
X172508333Y-114931976D02*
X172085000Y-114266738D01*
X171782619Y-114931976D02*
X171782619Y-113534976D01*
X172266428Y-113534976D01*
X172387381Y-113601500D01*
X172447857Y-113668024D01*
X172508333Y-113801071D01*
X172508333Y-114000643D01*
X172447857Y-114133690D01*
X172387381Y-114200214D01*
X172266428Y-114266738D01*
X171782619Y-114266738D01*
X172992143Y-113668024D02*
X173052619Y-113601500D01*
X173173571Y-113534976D01*
X173475952Y-113534976D01*
X173596905Y-113601500D01*
X173657381Y-113668024D01*
X173717857Y-113801071D01*
X173717857Y-113934119D01*
X173657381Y-114133690D01*
X172931667Y-114931976D01*
X173717857Y-114931976D01*
X122551976Y-87841667D02*
X121886738Y-88265000D01*
X122551976Y-88567381D02*
X121154976Y-88567381D01*
X121154976Y-88083572D01*
X121221500Y-87962619D01*
X121288024Y-87902143D01*
X121421071Y-87841667D01*
X121620643Y-87841667D01*
X121753690Y-87902143D01*
X121820214Y-87962619D01*
X121886738Y-88083572D01*
X121886738Y-88567381D01*
X122551976Y-86632143D02*
X122551976Y-87357857D01*
X122551976Y-86995000D02*
X121154976Y-86995000D01*
X121354548Y-87115952D01*
X121487595Y-87236905D01*
X121554119Y-87357857D01*
X118823619Y-106184095D02*
X118823619Y-105603524D01*
X119839619Y-105893809D02*
X118823619Y-105893809D01*
X119839619Y-104732667D02*
X119839619Y-105313238D01*
X119839619Y-105022952D02*
X118823619Y-105022952D01*
X118968762Y-105119714D01*
X119065524Y-105216476D01*
X119113905Y-105313238D01*
X128197429Y-107296857D02*
X128245810Y-107151714D01*
X128294190Y-107103333D01*
X128390952Y-107054952D01*
X128536095Y-107054952D01*
X128632857Y-107103333D01*
X128681238Y-107151714D01*
X128729619Y-107248476D01*
X128729619Y-107635523D01*
X127713619Y-107635523D01*
X127713619Y-107296857D01*
X127762000Y-107200095D01*
X127810381Y-107151714D01*
X127907143Y-107103333D01*
X128003905Y-107103333D01*
X128100667Y-107151714D01*
X128149048Y-107200095D01*
X128197429Y-107296857D01*
X128197429Y-107635523D01*
X128632857Y-106038952D02*
X128681238Y-106087333D01*
X128729619Y-106232476D01*
X128729619Y-106329238D01*
X128681238Y-106474380D01*
X128584476Y-106571142D01*
X128487714Y-106619523D01*
X128294190Y-106667904D01*
X128149048Y-106667904D01*
X127955524Y-106619523D01*
X127858762Y-106571142D01*
X127762000Y-106474380D01*
X127713619Y-106329238D01*
X127713619Y-106232476D01*
X127762000Y-106087333D01*
X127810381Y-106038952D01*
X128729619Y-105071333D02*
X128729619Y-105651904D01*
X128729619Y-105361618D02*
X127713619Y-105361618D01*
X127858762Y-105458380D01*
X127955524Y-105555142D01*
X128003905Y-105651904D01*
X128149048Y-104490761D02*
X128100667Y-104587523D01*
X128052286Y-104635904D01*
X127955524Y-104684285D01*
X127907143Y-104684285D01*
X127810381Y-104635904D01*
X127762000Y-104587523D01*
X127713619Y-104490761D01*
X127713619Y-104297238D01*
X127762000Y-104200476D01*
X127810381Y-104152095D01*
X127907143Y-104103714D01*
X127955524Y-104103714D01*
X128052286Y-104152095D01*
X128100667Y-104200476D01*
X128149048Y-104297238D01*
X128149048Y-104490761D01*
X128197429Y-104587523D01*
X128245810Y-104635904D01*
X128342571Y-104684285D01*
X128536095Y-104684285D01*
X128632857Y-104635904D01*
X128681238Y-104587523D01*
X128729619Y-104490761D01*
X128729619Y-104297238D01*
X128681238Y-104200476D01*
X128632857Y-104152095D01*
X128536095Y-104103714D01*
X128342571Y-104103714D01*
X128245810Y-104152095D01*
X128197429Y-104200476D01*
X128149048Y-104297238D01*
X127810381Y-103716666D02*
X127762000Y-103668285D01*
X127713619Y-103571523D01*
X127713619Y-103329619D01*
X127762000Y-103232857D01*
X127810381Y-103184476D01*
X127907143Y-103136095D01*
X128003905Y-103136095D01*
X128149048Y-103184476D01*
X128729619Y-103765047D01*
X128729619Y-103136095D01*
D15*
X215330133Y-103800124D02*
X215412501Y-103644821D01*
X215412501Y-103385983D01*
X215330133Y-103282447D01*
X215247764Y-103230680D01*
X215083027Y-103178912D01*
X214918290Y-103178912D01*
X214753553Y-103230680D01*
X214671184Y-103282447D01*
X214588816Y-103385983D01*
X214506447Y-103593053D01*
X214424079Y-103696588D01*
X214341710Y-103748356D01*
X214176973Y-103800124D01*
X214012236Y-103800124D01*
X213847499Y-103748356D01*
X213765130Y-103696588D01*
X213682761Y-103593053D01*
X213682761Y-103334215D01*
X213765130Y-103178912D01*
X215412501Y-102713004D02*
X213682761Y-102713004D01*
X215412501Y-101677652D02*
X215412501Y-102195328D01*
X213682761Y-102195328D01*
X214753553Y-101315278D02*
X214753553Y-100486996D01*
X215412501Y-99917552D02*
X215412501Y-99710482D01*
X215330133Y-99606947D01*
X215247764Y-99555179D01*
X215000659Y-99451644D01*
X214671184Y-99399876D01*
X214012236Y-99399876D01*
X213847499Y-99451644D01*
X213765130Y-99503411D01*
X213682761Y-99606947D01*
X213682761Y-99814017D01*
X213765130Y-99917552D01*
X213847499Y-99969320D01*
X214012236Y-100021088D01*
X214424079Y-100021088D01*
X214588816Y-99969320D01*
X214671184Y-99917552D01*
X214753553Y-99814017D01*
X214753553Y-99606947D01*
X214671184Y-99503411D01*
X214588816Y-99451644D01*
X214424079Y-99399876D01*
D12*
D16*
X213795429Y-116138475D02*
X215319429Y-115799808D01*
X213795429Y-115461142D01*
X215319429Y-114687047D02*
X214521143Y-114687047D01*
X214376000Y-114735428D01*
X214303429Y-114832190D01*
X214303429Y-115025713D01*
X214376000Y-115122475D01*
X215246857Y-114687047D02*
X215319429Y-114783809D01*
X215319429Y-115025713D01*
X215246857Y-115122475D01*
X215101714Y-115170856D01*
X214956571Y-115170856D01*
X214811429Y-115122475D01*
X214738857Y-115025713D01*
X214738857Y-114783809D01*
X214666286Y-114687047D01*
X215319429Y-114058094D02*
X215246857Y-114154856D01*
X215101714Y-114203237D01*
X213795429Y-114203237D01*
X213795429Y-113525904D02*
X214158286Y-113525904D01*
X214013143Y-113767809D02*
X214158286Y-113525904D01*
X214013143Y-113284000D01*
X214448571Y-113671047D02*
X214158286Y-113525904D01*
X214448571Y-113380762D01*
X213795429Y-112751809D02*
X214158286Y-112751809D01*
X214013143Y-112993714D02*
X214158286Y-112751809D01*
X214013143Y-112509905D01*
X214448571Y-112896952D02*
X214158286Y-112751809D01*
X214448571Y-112606667D01*
D12*
D15*
X215330133Y-94910124D02*
X215412501Y-94754821D01*
X215412501Y-94495983D01*
X215330133Y-94392447D01*
X215247764Y-94340680D01*
X215083027Y-94288912D01*
X214918290Y-94288912D01*
X214753553Y-94340680D01*
X214671184Y-94392447D01*
X214588816Y-94495983D01*
X214506447Y-94703053D01*
X214424079Y-94806588D01*
X214341710Y-94858356D01*
X214176973Y-94910124D01*
X214012236Y-94910124D01*
X213847499Y-94858356D01*
X213765130Y-94806588D01*
X213682761Y-94703053D01*
X213682761Y-94444215D01*
X213765130Y-94288912D01*
X215412501Y-93823004D02*
X213682761Y-93823004D01*
X215412501Y-92787652D02*
X215412501Y-93305328D01*
X213682761Y-93305328D01*
X214753553Y-92425278D02*
X214753553Y-91596996D01*
X213847499Y-91131088D02*
X213765130Y-91079320D01*
X213682761Y-90975785D01*
X213682761Y-90716947D01*
X213765130Y-90613411D01*
X213847499Y-90561644D01*
X214012236Y-90509876D01*
X214176973Y-90509876D01*
X214424079Y-90561644D01*
X215412501Y-91182855D01*
X215412501Y-90509876D01*
D12*
M02*
