G04 #@! TF.FileFunction,Copper,L2,Bot,Signal*
%FSLAX46Y46*%
G04 Gerber Fmt 4.6, Leading zero omitted, Abs format (unit mm)*
G04 Created by KiCad (PCBNEW 4.0.5+dfsg1-4+deb9u1) date Sun Sep  4 20:05:12 2022*
%MOMM*%
%LPD*%
G01*
G04 APERTURE LIST*
%ADD10C,0.100000*%
%ADD11C,0.304800*%
%ADD12R,1.574800X2.286000*%
%ADD13O,1.574800X2.286000*%
%ADD14R,2.286000X1.574800*%
%ADD15O,2.286000X1.574800*%
%ADD16C,1.397000*%
%ADD17R,1.778000X1.778000*%
%ADD18C,1.778000*%
%ADD19R,1.397000X1.397000*%
%ADD20C,1.000760*%
%ADD21C,0.431800*%
%ADD22C,1.000760*%
G04 APERTURE END LIST*
D10*
D11*
X89250762Y-94887143D02*
X91282762Y-94887143D01*
X91282762Y-94524286D01*
X91186000Y-94306571D01*
X90992476Y-94161429D01*
X90798952Y-94088857D01*
X90411905Y-94016286D01*
X90121619Y-94016286D01*
X89734571Y-94088857D01*
X89541048Y-94161429D01*
X89347524Y-94306571D01*
X89250762Y-94524286D01*
X89250762Y-94887143D01*
X89250762Y-93363143D02*
X91282762Y-93363143D01*
X89250762Y-92492286D01*
X91282762Y-92492286D01*
X89444286Y-91766572D02*
X89347524Y-91694000D01*
X89250762Y-91766572D01*
X89347524Y-91839143D01*
X89444286Y-91766572D01*
X89250762Y-91766572D01*
X90508667Y-91766572D02*
X90411905Y-91694000D01*
X90315143Y-91766572D01*
X90411905Y-91839143D01*
X90508667Y-91766572D01*
X90315143Y-91766572D01*
X89444286Y-89008858D02*
X89347524Y-89081429D01*
X89250762Y-89299143D01*
X89250762Y-89444286D01*
X89347524Y-89662001D01*
X89541048Y-89807143D01*
X89734571Y-89879715D01*
X90121619Y-89952286D01*
X90411905Y-89952286D01*
X90798952Y-89879715D01*
X90992476Y-89807143D01*
X91186000Y-89662001D01*
X91282762Y-89444286D01*
X91282762Y-89299143D01*
X91186000Y-89081429D01*
X91089238Y-89008858D01*
X91282762Y-88573429D02*
X91282762Y-87702572D01*
X89250762Y-88138001D02*
X91282762Y-88138001D01*
X91282762Y-87412286D02*
X91282762Y-86541429D01*
X89250762Y-86976858D02*
X91282762Y-86976858D01*
X91379524Y-84944857D02*
X88766952Y-86251143D01*
X90411905Y-84219144D02*
X90508667Y-84364286D01*
X90605429Y-84436858D01*
X90798952Y-84509429D01*
X90895714Y-84509429D01*
X91089238Y-84436858D01*
X91186000Y-84364286D01*
X91282762Y-84219144D01*
X91282762Y-83928858D01*
X91186000Y-83783715D01*
X91089238Y-83711144D01*
X90895714Y-83638572D01*
X90798952Y-83638572D01*
X90605429Y-83711144D01*
X90508667Y-83783715D01*
X90411905Y-83928858D01*
X90411905Y-84219144D01*
X90315143Y-84364286D01*
X90218381Y-84436858D01*
X90024857Y-84509429D01*
X89637810Y-84509429D01*
X89444286Y-84436858D01*
X89347524Y-84364286D01*
X89250762Y-84219144D01*
X89250762Y-83928858D01*
X89347524Y-83783715D01*
X89444286Y-83711144D01*
X89637810Y-83638572D01*
X90024857Y-83638572D01*
X90218381Y-83711144D01*
X90315143Y-83783715D01*
X90411905Y-83928858D01*
X90024857Y-82985429D02*
X90024857Y-81824286D01*
X89250762Y-81026000D02*
X89250762Y-80735715D01*
X89347524Y-80590572D01*
X89444286Y-80518000D01*
X89734571Y-80372858D01*
X90121619Y-80300286D01*
X90895714Y-80300286D01*
X91089238Y-80372858D01*
X91186000Y-80445429D01*
X91282762Y-80590572D01*
X91282762Y-80880858D01*
X91186000Y-81026000D01*
X91089238Y-81098572D01*
X90895714Y-81171143D01*
X90411905Y-81171143D01*
X90218381Y-81098572D01*
X90121619Y-81026000D01*
X90024857Y-80880858D01*
X90024857Y-80590572D01*
X90121619Y-80445429D01*
X90218381Y-80372858D01*
X90411905Y-80300286D01*
X166406285Y-79574571D02*
X166406285Y-81606571D01*
X166406285Y-79671333D02*
X166261142Y-79574571D01*
X165970856Y-79574571D01*
X165825713Y-79671333D01*
X165753142Y-79768095D01*
X165680571Y-79961619D01*
X165680571Y-80542190D01*
X165753142Y-80735714D01*
X165825713Y-80832476D01*
X165970856Y-80929238D01*
X166261142Y-80929238D01*
X166406285Y-80832476D01*
X164809714Y-80929238D02*
X164954856Y-80832476D01*
X165027428Y-80735714D01*
X165099999Y-80542190D01*
X165099999Y-79961619D01*
X165027428Y-79768095D01*
X164954856Y-79671333D01*
X164809714Y-79574571D01*
X164591999Y-79574571D01*
X164446856Y-79671333D01*
X164374285Y-79768095D01*
X164301714Y-79961619D01*
X164301714Y-80542190D01*
X164374285Y-80735714D01*
X164446856Y-80832476D01*
X164591999Y-80929238D01*
X164809714Y-80929238D01*
X163793714Y-79574571D02*
X162995428Y-79574571D01*
X163793714Y-80929238D01*
X162995428Y-80929238D01*
X162487428Y-80832476D02*
X162342285Y-80929238D01*
X162052000Y-80929238D01*
X161906857Y-80832476D01*
X161834285Y-80638952D01*
X161834285Y-80542190D01*
X161906857Y-80348667D01*
X162052000Y-80251905D01*
X162269714Y-80251905D01*
X162414857Y-80155143D01*
X162487428Y-79961619D01*
X162487428Y-79864857D01*
X162414857Y-79671333D01*
X162269714Y-79574571D01*
X162052000Y-79574571D01*
X161906857Y-79671333D01*
X160528000Y-80929238D02*
X160528000Y-79864857D01*
X160600571Y-79671333D01*
X160745714Y-79574571D01*
X161036000Y-79574571D01*
X161181143Y-79671333D01*
X160528000Y-80832476D02*
X160673143Y-80929238D01*
X161036000Y-80929238D01*
X161181143Y-80832476D01*
X161253714Y-80638952D01*
X161253714Y-80445429D01*
X161181143Y-80251905D01*
X161036000Y-80155143D01*
X160673143Y-80155143D01*
X160528000Y-80058381D01*
X159802286Y-80929238D02*
X159802286Y-79574571D01*
X159802286Y-79961619D02*
X159729714Y-79768095D01*
X159657143Y-79671333D01*
X159512000Y-79574571D01*
X159366857Y-79574571D01*
X159004000Y-79574571D02*
X158205714Y-79574571D01*
X159004000Y-80929238D01*
X158205714Y-80929238D01*
X157697714Y-80832476D02*
X157552571Y-80929238D01*
X157262286Y-80929238D01*
X157117143Y-80832476D01*
X157044571Y-80638952D01*
X157044571Y-80542190D01*
X157117143Y-80348667D01*
X157262286Y-80251905D01*
X157480000Y-80251905D01*
X157625143Y-80155143D01*
X157697714Y-79961619D01*
X157697714Y-79864857D01*
X157625143Y-79671333D01*
X157480000Y-79574571D01*
X157262286Y-79574571D01*
X157117143Y-79671333D01*
X156391429Y-80735714D02*
X156318857Y-80832476D01*
X156391429Y-80929238D01*
X156464000Y-80832476D01*
X156391429Y-80735714D01*
X156391429Y-80929238D01*
X155665715Y-80929238D02*
X155665715Y-78897238D01*
X155012572Y-80929238D02*
X155012572Y-79864857D01*
X155085143Y-79671333D01*
X155230286Y-79574571D01*
X155448001Y-79574571D01*
X155593143Y-79671333D01*
X155665715Y-79768095D01*
X153633715Y-79574571D02*
X153633715Y-80929238D01*
X154286858Y-79574571D02*
X154286858Y-80638952D01*
X154214286Y-80832476D01*
X154069144Y-80929238D01*
X153851429Y-80929238D01*
X153706286Y-80832476D01*
X153633715Y-80735714D01*
X162632572Y-86710762D02*
X162560001Y-86614000D01*
X162414858Y-86517238D01*
X162052001Y-86517238D01*
X161906858Y-86614000D01*
X161834287Y-86710762D01*
X161761715Y-86904286D01*
X161761715Y-87097810D01*
X161834287Y-87388095D01*
X162705144Y-88549238D01*
X161761715Y-88549238D01*
X160818286Y-86517238D02*
X160673143Y-86517238D01*
X160528000Y-86614000D01*
X160455429Y-86710762D01*
X160382858Y-86904286D01*
X160310286Y-87291333D01*
X160310286Y-87775143D01*
X160382858Y-88162190D01*
X160455429Y-88355714D01*
X160528000Y-88452476D01*
X160673143Y-88549238D01*
X160818286Y-88549238D01*
X160963429Y-88452476D01*
X161036000Y-88355714D01*
X161108572Y-88162190D01*
X161181143Y-87775143D01*
X161181143Y-87291333D01*
X161108572Y-86904286D01*
X161036000Y-86710762D01*
X160963429Y-86614000D01*
X160818286Y-86517238D01*
X158858857Y-88549238D02*
X159729714Y-88549238D01*
X159294286Y-88549238D02*
X159294286Y-86517238D01*
X159439429Y-86807524D01*
X159584571Y-87001048D01*
X159729714Y-87097810D01*
X157915428Y-86517238D02*
X157770285Y-86517238D01*
X157625142Y-86614000D01*
X157552571Y-86710762D01*
X157480000Y-86904286D01*
X157407428Y-87291333D01*
X157407428Y-87775143D01*
X157480000Y-88162190D01*
X157552571Y-88355714D01*
X157625142Y-88452476D01*
X157770285Y-88549238D01*
X157915428Y-88549238D01*
X158060571Y-88452476D01*
X158133142Y-88355714D01*
X158205714Y-88162190D01*
X158278285Y-87775143D01*
X158278285Y-87291333D01*
X158205714Y-86904286D01*
X158133142Y-86710762D01*
X158060571Y-86614000D01*
X157915428Y-86517238D01*
X111034286Y-104611714D02*
X110937524Y-104684285D01*
X110840762Y-104901999D01*
X110840762Y-105047142D01*
X110937524Y-105264857D01*
X111131048Y-105409999D01*
X111324571Y-105482571D01*
X111711619Y-105555142D01*
X112001905Y-105555142D01*
X112388952Y-105482571D01*
X112582476Y-105409999D01*
X112776000Y-105264857D01*
X112872762Y-105047142D01*
X112872762Y-104901999D01*
X112776000Y-104684285D01*
X112679238Y-104611714D01*
X112872762Y-104176285D02*
X112872762Y-103305428D01*
X110840762Y-103740857D02*
X112872762Y-103740857D01*
X112872762Y-103015142D02*
X112872762Y-102144285D01*
X110840762Y-102579714D02*
X112872762Y-102579714D01*
X112969524Y-100547713D02*
X110356952Y-101853999D01*
X110840762Y-100039714D02*
X112872762Y-100039714D01*
X112872762Y-99676857D01*
X112776000Y-99459142D01*
X112582476Y-99314000D01*
X112388952Y-99241428D01*
X112001905Y-99168857D01*
X111711619Y-99168857D01*
X111324571Y-99241428D01*
X111131048Y-99314000D01*
X110937524Y-99459142D01*
X110840762Y-99676857D01*
X110840762Y-100039714D01*
X110840762Y-98515714D02*
X112872762Y-98515714D01*
X112872762Y-97935142D01*
X112776000Y-97790000D01*
X112679238Y-97717428D01*
X112485714Y-97644857D01*
X112195429Y-97644857D01*
X112001905Y-97717428D01*
X111905143Y-97790000D01*
X111808381Y-97935142D01*
X111808381Y-98515714D01*
D12*
X137160000Y-115570000D03*
D13*
X139700000Y-115570000D03*
X142240000Y-115570000D03*
X144780000Y-115570000D03*
X147320000Y-115570000D03*
X149860000Y-115570000D03*
X152400000Y-115570000D03*
X154940000Y-115570000D03*
X154940000Y-107950000D03*
X152400000Y-107950000D03*
X149860000Y-107950000D03*
X147320000Y-107950000D03*
X144780000Y-107950000D03*
X142240000Y-107950000D03*
X139700000Y-107950000D03*
X137160000Y-107950000D03*
D14*
X193040000Y-96520000D03*
D15*
X193040000Y-99060000D03*
X193040000Y-101600000D03*
X193040000Y-104140000D03*
X193040000Y-106680000D03*
X193040000Y-109220000D03*
X193040000Y-111760000D03*
X193040000Y-114300000D03*
X193040000Y-116840000D03*
X193040000Y-119380000D03*
X200660000Y-119380000D03*
X200660000Y-116840000D03*
X200660000Y-114300000D03*
X200660000Y-111760000D03*
X200660000Y-109220000D03*
X200660000Y-106680000D03*
X200660000Y-104140000D03*
X200660000Y-101600000D03*
X200660000Y-99060000D03*
X200660000Y-96520000D03*
D16*
X161290000Y-109220000D03*
X161290000Y-114300000D03*
D17*
X199390000Y-83693000D03*
D18*
X199390000Y-88773000D03*
D19*
X95250000Y-82550000D03*
D16*
X97790000Y-82550000D03*
D19*
X143510000Y-82550000D03*
D16*
X146050000Y-82550000D03*
D19*
X143510000Y-92710000D03*
D16*
X146050000Y-92710000D03*
D19*
X176530000Y-82550000D03*
D16*
X173990000Y-82550000D03*
D19*
X176530000Y-92710000D03*
D16*
X173990000Y-92710000D03*
D19*
X176530000Y-102870000D03*
D16*
X173990000Y-102870000D03*
D19*
X204470000Y-82550000D03*
D16*
X207010000Y-82550000D03*
D19*
X113030000Y-82550000D03*
D16*
X115570000Y-82550000D03*
D19*
X113030000Y-92710000D03*
D16*
X115570000Y-92710000D03*
D19*
X115570000Y-113030000D03*
D16*
X113030000Y-113030000D03*
D19*
X97790000Y-92710000D03*
D16*
X95250000Y-92710000D03*
D18*
X102870000Y-80010000D03*
X102870000Y-95250000D03*
X127000000Y-80010000D03*
X127000000Y-95250000D03*
X107950000Y-80010000D03*
X107950000Y-95250000D03*
X132080000Y-80010000D03*
X132080000Y-95250000D03*
X165100000Y-114300000D03*
X180340000Y-114300000D03*
X121920000Y-95250000D03*
X121920000Y-80010000D03*
D19*
X124460000Y-107950000D03*
D16*
X124460000Y-105410000D03*
X121920000Y-105410000D03*
D19*
X212090000Y-99060000D03*
D16*
X212090000Y-101600000D03*
X212090000Y-104140000D03*
X212090000Y-106680000D03*
X212090000Y-109220000D03*
X212090000Y-111760000D03*
X212090000Y-114300000D03*
X212090000Y-116840000D03*
X212090000Y-119380000D03*
D19*
X212090000Y-91440000D03*
D16*
X212090000Y-93980000D03*
D20*
X190500000Y-111760000D03*
X190500000Y-104140000D03*
X182880000Y-109220000D03*
X187960000Y-109220000D03*
X146050000Y-87630000D03*
X151130000Y-87630000D03*
X182880000Y-88900000D03*
X182880000Y-83820000D03*
X201930000Y-91440000D03*
X201930000Y-83820000D03*
X167640000Y-111760000D03*
X167640000Y-95250000D03*
X152400000Y-95250000D03*
X142240000Y-95250000D03*
X132080000Y-97790000D03*
X127000000Y-97790000D03*
X121920000Y-120650000D03*
X127000000Y-120650000D03*
X204470000Y-121920000D03*
X204470000Y-97790000D03*
X118110000Y-105410000D03*
X118110000Y-97790000D03*
D21*
X195580000Y-101600000D02*
X196850000Y-100330000D01*
X196850000Y-100330000D02*
X207010000Y-100330000D01*
X207010000Y-100330000D02*
X208280000Y-99060000D01*
X208280000Y-99060000D02*
X212090000Y-99060000D01*
X193040000Y-101600000D02*
X195580000Y-101600000D01*
X200660000Y-101600000D02*
X212090000Y-101600000D01*
X195580000Y-104140000D02*
X196850000Y-102870000D01*
X196850000Y-102870000D02*
X207010000Y-102870000D01*
X207010000Y-102870000D02*
X208280000Y-104140000D01*
X208280000Y-104140000D02*
X212090000Y-104140000D01*
X193040000Y-104140000D02*
X195580000Y-104140000D01*
X205740000Y-104140000D02*
X208280000Y-106680000D01*
X208280000Y-106680000D02*
X212090000Y-106680000D01*
X200660000Y-104140000D02*
X205740000Y-104140000D01*
X196850000Y-111760000D02*
X198120000Y-110490000D01*
X198120000Y-110490000D02*
X207010000Y-110490000D01*
X207010000Y-110490000D02*
X208280000Y-109220000D01*
X208280000Y-109220000D02*
X212090000Y-109220000D01*
X193040000Y-111760000D02*
X196850000Y-111760000D01*
X200660000Y-111760000D02*
X212090000Y-111760000D01*
X200660000Y-119380000D02*
X212090000Y-119380000D01*
X205740000Y-114300000D02*
X208280000Y-116840000D01*
X208280000Y-116840000D02*
X212090000Y-116840000D01*
X200660000Y-114300000D02*
X205740000Y-114300000D01*
X196850000Y-114300000D02*
X198120000Y-113030000D01*
X198120000Y-113030000D02*
X207010000Y-113030000D01*
X207010000Y-113030000D02*
X208280000Y-114300000D01*
X208280000Y-114300000D02*
X212090000Y-114300000D01*
X193040000Y-114300000D02*
X196850000Y-114300000D01*
D22*
X137160000Y-119380000D02*
X139700000Y-121920000D01*
X139700000Y-121920000D02*
X185420000Y-121920000D01*
X185420000Y-121920000D02*
X186690000Y-120650000D01*
X186690000Y-120650000D02*
X186690000Y-113030000D01*
X186690000Y-113030000D02*
X187960000Y-111760000D01*
X187960000Y-111760000D02*
X190500000Y-111760000D01*
X190500000Y-104140000D02*
X190500000Y-100330000D01*
X190500000Y-100330000D02*
X191770000Y-99060000D01*
X191770000Y-99060000D02*
X193040000Y-99060000D01*
X137160000Y-115570000D02*
X137160000Y-119380000D01*
X142240000Y-120650000D02*
X168910000Y-120650000D01*
X139700000Y-118110000D02*
X142240000Y-120650000D01*
X186690000Y-106680000D02*
X193040000Y-106680000D01*
X186690000Y-106680000D02*
X185420000Y-107950000D01*
X185420000Y-107950000D02*
X185420000Y-119380000D01*
X185420000Y-119380000D02*
X184150000Y-120650000D01*
X184150000Y-120650000D02*
X168910000Y-120650000D01*
X139700000Y-115570000D02*
X139700000Y-118110000D01*
X182880000Y-118110000D02*
X182880000Y-109220000D01*
X181610000Y-119380000D02*
X182880000Y-118110000D01*
X168910000Y-119380000D02*
X181610000Y-119380000D01*
X142240000Y-118110000D02*
X143510000Y-119380000D01*
X167640000Y-119380000D02*
X168910000Y-119380000D01*
X143510000Y-119380000D02*
X167640000Y-119380000D01*
X187960000Y-109220000D02*
X193040000Y-109220000D01*
X142240000Y-115570000D02*
X142240000Y-118110000D01*
X147320000Y-115570000D02*
X147320000Y-113030000D01*
X154940000Y-115570000D02*
X154940000Y-113030000D01*
X124460000Y-113030000D02*
X124460000Y-111760000D01*
X124460000Y-124460000D02*
X124460000Y-113030000D01*
X193040000Y-119380000D02*
X193040000Y-124460000D01*
X95250000Y-97790000D02*
X96520000Y-99060000D01*
X96520000Y-99060000D02*
X106680000Y-99060000D01*
X106680000Y-99060000D02*
X107950000Y-100330000D01*
X107950000Y-100330000D02*
X107950000Y-123190000D01*
X107950000Y-123190000D02*
X109220000Y-124460000D01*
X194310000Y-124460000D02*
X214630000Y-124460000D01*
X193040000Y-124460000D02*
X194310000Y-124460000D01*
X109220000Y-124460000D02*
X124460000Y-124460000D01*
X214630000Y-124460000D02*
X215900000Y-123190000D01*
X215900000Y-93980000D02*
X215900000Y-90170000D01*
X215900000Y-95250000D02*
X215900000Y-93980000D01*
X215900000Y-123190000D02*
X215900000Y-95250000D01*
X215900000Y-90170000D02*
X214503000Y-88773000D01*
X214503000Y-88773000D02*
X199390000Y-88773000D01*
X95250000Y-92710000D02*
X95250000Y-97790000D01*
X195580000Y-96520000D02*
X196850000Y-95250000D01*
X196850000Y-95250000D02*
X196850000Y-91313000D01*
X196850000Y-91313000D02*
X199390000Y-88773000D01*
X193040000Y-96520000D02*
X195580000Y-96520000D01*
X124460000Y-107950000D02*
X124460000Y-111760000D01*
X160020000Y-113030000D02*
X161290000Y-114300000D01*
X154940000Y-113030000D02*
X160020000Y-113030000D01*
X147320000Y-113030000D02*
X154940000Y-113030000D01*
X144780000Y-113030000D02*
X124460000Y-113030000D01*
X144780000Y-115570000D02*
X144780000Y-113030000D01*
X144780000Y-113030000D02*
X147320000Y-113030000D01*
X184150000Y-124460000D02*
X194310000Y-124460000D01*
X148590000Y-124460000D02*
X184150000Y-124460000D01*
X124460000Y-124460000D02*
X148590000Y-124460000D01*
X212090000Y-93980000D02*
X215900000Y-93980000D01*
X149860000Y-116840000D02*
X151130000Y-118110000D01*
X151130000Y-118110000D02*
X179070000Y-118110000D01*
X179070000Y-118110000D02*
X180340000Y-116840000D01*
X180340000Y-116840000D02*
X180340000Y-114300000D01*
X149860000Y-115570000D02*
X149860000Y-116840000D01*
X154940000Y-106680000D02*
X156210000Y-105410000D01*
X156210000Y-105410000D02*
X179070000Y-105410000D01*
X179070000Y-105410000D02*
X180340000Y-104140000D01*
X180340000Y-104140000D02*
X180340000Y-87630000D01*
X180340000Y-87630000D02*
X181610000Y-86360000D01*
X181610000Y-86360000D02*
X205740000Y-86360000D01*
X205740000Y-86360000D02*
X207010000Y-85090000D01*
X207010000Y-85090000D02*
X207010000Y-82550000D01*
X154940000Y-107950000D02*
X154940000Y-106680000D01*
X152400000Y-104140000D02*
X153670000Y-102870000D01*
X153670000Y-102870000D02*
X173990000Y-102870000D01*
X152400000Y-107950000D02*
X152400000Y-104140000D01*
X149860000Y-102870000D02*
X152400000Y-100330000D01*
X152400000Y-100330000D02*
X171450000Y-100330000D01*
X171450000Y-100330000D02*
X172720000Y-100330000D01*
X172720000Y-100330000D02*
X173990000Y-99060000D01*
X173990000Y-99060000D02*
X173990000Y-92710000D01*
X149860000Y-107950000D02*
X149860000Y-102870000D01*
X171450000Y-83820000D02*
X172720000Y-82550000D01*
X171450000Y-96520000D02*
X171450000Y-83820000D01*
X170180000Y-97790000D02*
X171450000Y-96520000D01*
X151130000Y-97790000D02*
X170180000Y-97790000D01*
X147320000Y-101600000D02*
X151130000Y-97790000D01*
X172720000Y-82550000D02*
X173990000Y-82550000D01*
X147320000Y-107950000D02*
X147320000Y-101600000D01*
X144780000Y-100330000D02*
X149860000Y-95250000D01*
X146050000Y-87630000D02*
X146050000Y-92710000D01*
X151130000Y-87630000D02*
X151130000Y-93980000D01*
X151130000Y-93980000D02*
X149860000Y-95250000D01*
X144780000Y-107950000D02*
X144780000Y-100330000D01*
X142240000Y-99060000D02*
X148590000Y-92710000D01*
X148590000Y-92710000D02*
X148590000Y-83820000D01*
X148590000Y-83820000D02*
X147320000Y-82550000D01*
X147320000Y-82550000D02*
X146050000Y-82550000D01*
X142240000Y-107950000D02*
X142240000Y-99060000D01*
D21*
X130810000Y-90170000D02*
X130810000Y-100330000D01*
X133350000Y-87630000D02*
X130810000Y-90170000D01*
D22*
X97790000Y-78740000D02*
X99060000Y-77470000D01*
X99060000Y-77470000D02*
X134620000Y-77470000D01*
X134620000Y-77470000D02*
X135890000Y-78740000D01*
X135890000Y-78740000D02*
X135890000Y-86360000D01*
X135890000Y-86360000D02*
X134620000Y-87630000D01*
X134620000Y-87630000D02*
X133350000Y-87630000D01*
X139700000Y-106680000D02*
X139700000Y-107950000D01*
X139700000Y-106680000D02*
X138430000Y-105410000D01*
X138430000Y-105410000D02*
X135890000Y-105410000D01*
X135890000Y-105410000D02*
X130810000Y-100330000D01*
X97790000Y-82550000D02*
X97790000Y-78740000D01*
X179070000Y-109220000D02*
X182880000Y-105410000D01*
X182880000Y-105410000D02*
X182880000Y-88900000D01*
X182880000Y-83820000D02*
X183007000Y-83693000D01*
X183007000Y-83693000D02*
X199390000Y-83693000D01*
X165100000Y-109220000D02*
X179070000Y-109220000D01*
X201803000Y-83693000D02*
X201930000Y-83820000D01*
X199390000Y-83693000D02*
X201803000Y-83693000D01*
X200660000Y-92710000D02*
X201930000Y-91440000D01*
X201930000Y-91440000D02*
X212090000Y-91440000D01*
X200660000Y-96520000D02*
X200660000Y-92710000D01*
X102870000Y-80010000D02*
X107950000Y-80010000D01*
X139700000Y-110490000D02*
X137160000Y-107950000D01*
X160020000Y-110490000D02*
X139700000Y-110490000D01*
X161290000Y-109220000D02*
X160020000Y-110490000D01*
X162560000Y-109220000D02*
X161290000Y-109220000D01*
X165100000Y-114300000D02*
X165100000Y-109220000D01*
X165100000Y-109220000D02*
X162560000Y-109220000D01*
X129540000Y-80010000D02*
X132080000Y-80010000D01*
X125730000Y-78740000D02*
X127000000Y-80010000D01*
D21*
X124460000Y-78740000D02*
X119380000Y-78740000D01*
D22*
X107950000Y-80010000D02*
X109220000Y-78740000D01*
X127000000Y-80010000D02*
X129540000Y-80010000D01*
X109220000Y-78740000D02*
X119380000Y-78740000D01*
D21*
X129540000Y-88900000D02*
X129540000Y-101600000D01*
D22*
X129540000Y-88900000D02*
X129540000Y-80010000D01*
X137160000Y-107950000D02*
X135890000Y-107950000D01*
X135890000Y-107950000D02*
X129540000Y-101600000D01*
X124460000Y-78740000D02*
X125730000Y-78740000D01*
X116840000Y-80010000D02*
X115570000Y-81280000D01*
X121920000Y-80010000D02*
X116840000Y-80010000D01*
D21*
X196850000Y-106680000D02*
X195580000Y-105410000D01*
X196850000Y-106680000D02*
X200660000Y-106680000D01*
X121920000Y-80010000D02*
X124460000Y-80010000D01*
D22*
X179070000Y-111760000D02*
X180340000Y-110490000D01*
X167640000Y-111760000D02*
X179070000Y-111760000D01*
X152400000Y-95250000D02*
X167640000Y-95250000D01*
X137160000Y-95250000D02*
X142240000Y-95250000D01*
X134620000Y-97790000D02*
X137160000Y-95250000D01*
X132080000Y-97790000D02*
X134620000Y-97790000D01*
D21*
X128270000Y-96520000D02*
X127000000Y-97790000D01*
X128270000Y-83820000D02*
X128270000Y-96520000D01*
X124460000Y-80010000D02*
X128270000Y-83820000D01*
X180340000Y-110490000D02*
X185420000Y-105410000D01*
X185420000Y-105410000D02*
X186690000Y-105410000D01*
X195580000Y-105410000D02*
X186690000Y-105410000D01*
D22*
X115570000Y-82550000D02*
X115570000Y-81280000D01*
X190500000Y-118110000D02*
X189230000Y-119380000D01*
X189230000Y-120650000D02*
X189230000Y-119380000D01*
X186690000Y-123190000D02*
X189230000Y-120650000D01*
X184150000Y-123190000D02*
X186690000Y-123190000D01*
X113030000Y-119380000D02*
X113030000Y-113030000D01*
X114300000Y-120650000D02*
X113030000Y-119380000D01*
X121920000Y-120650000D02*
X114300000Y-120650000D01*
X134620000Y-120650000D02*
X127000000Y-120650000D01*
X137160000Y-123190000D02*
X134620000Y-120650000D01*
X138430000Y-123190000D02*
X137160000Y-123190000D01*
X184150000Y-123190000D02*
X148590000Y-123190000D01*
X200660000Y-99060000D02*
X203200000Y-99060000D01*
X196850000Y-119380000D02*
X195580000Y-118110000D01*
X196850000Y-121920000D02*
X196850000Y-119380000D01*
X198120000Y-123190000D02*
X196850000Y-121920000D01*
X203200000Y-123190000D02*
X198120000Y-123190000D01*
X204470000Y-121920000D02*
X203200000Y-123190000D01*
X203200000Y-99060000D02*
X204470000Y-97790000D01*
D21*
X190500000Y-118110000D02*
X195580000Y-118110000D01*
D22*
X148590000Y-123190000D02*
X138430000Y-123190000D01*
X143510000Y-92710000D02*
X143510000Y-90170000D01*
D21*
X176530000Y-81280000D02*
X176530000Y-82550000D01*
D22*
X95250000Y-77470000D02*
X96520000Y-76200000D01*
X96520000Y-76200000D02*
X142240000Y-76200000D01*
X142240000Y-76200000D02*
X143510000Y-77470000D01*
X95250000Y-82550000D02*
X95250000Y-77470000D01*
X176530000Y-102870000D02*
X176530000Y-92710000D01*
X201930000Y-77470000D02*
X203200000Y-77470000D01*
X203200000Y-77470000D02*
X204470000Y-78740000D01*
X204470000Y-78740000D02*
X204470000Y-82550000D01*
X176530000Y-77470000D02*
X201930000Y-77470000D01*
X176530000Y-77470000D02*
X143510000Y-77470000D01*
X176530000Y-81280000D02*
X176530000Y-77470000D01*
X176530000Y-92710000D02*
X176530000Y-81280000D01*
X143510000Y-90170000D02*
X143510000Y-77470000D01*
X133350000Y-90170000D02*
X143510000Y-90170000D01*
X132080000Y-91440000D02*
X133350000Y-90170000D01*
X132080000Y-95250000D02*
X132080000Y-91440000D01*
X110490000Y-95250000D02*
X113030000Y-92710000D01*
X107950000Y-95250000D02*
X110490000Y-95250000D01*
X113030000Y-92710000D02*
X113030000Y-82550000D01*
X115570000Y-99060000D02*
X121920000Y-105410000D01*
X115570000Y-92710000D02*
X115570000Y-99060000D01*
X115570000Y-107950000D02*
X118110000Y-105410000D01*
X118110000Y-97790000D02*
X118110000Y-92710000D01*
X118110000Y-92710000D02*
X119380000Y-91440000D01*
X119380000Y-91440000D02*
X125730000Y-91440000D01*
X125730000Y-91440000D02*
X127000000Y-92710000D01*
X127000000Y-92710000D02*
X127000000Y-95250000D01*
X115570000Y-113030000D02*
X115570000Y-107950000D01*
X100330000Y-95250000D02*
X97790000Y-92710000D01*
X102870000Y-95250000D02*
X100330000Y-95250000D01*
X124460000Y-102870000D02*
X121920000Y-100330000D01*
X121920000Y-100330000D02*
X121920000Y-95250000D01*
X124460000Y-105410000D02*
X124460000Y-102870000D01*
M02*
