M48
;DRILL file {KiCad 4.0.5+dfsg1-4+deb9u1} date Sun Sep  4 20:05:11 2022
;FORMAT={-:-/ absolute / metric / decimal}
FMAT,2
METRIC,TZ
T1C0.813
T2C1.016
T3C1.143
%
G90
G05
M71
T1
X95.25Y-82.55
X95.25Y-92.71
X97.79Y-82.55
X97.79Y-92.71
X113.03Y-82.55
X113.03Y-92.71
X113.03Y-113.03
X115.57Y-82.55
X115.57Y-92.71
X115.57Y-113.03
X121.92Y-105.41
X124.46Y-105.41
X124.46Y-107.95
X137.16Y-107.95
X137.16Y-115.57
X139.7Y-107.95
X139.7Y-115.57
X142.24Y-107.95
X142.24Y-115.57
X143.51Y-82.55
X143.51Y-92.71
X144.78Y-107.95
X144.78Y-115.57
X146.05Y-82.55
X146.05Y-92.71
X147.32Y-107.95
X147.32Y-115.57
X149.86Y-107.95
X149.86Y-115.57
X152.4Y-107.95
X152.4Y-115.57
X154.94Y-107.95
X154.94Y-115.57
X161.29Y-109.22
X161.29Y-114.3
X173.99Y-82.55
X173.99Y-92.71
X173.99Y-102.87
X176.53Y-82.55
X176.53Y-92.71
X176.53Y-102.87
X193.04Y-96.52
X193.04Y-99.06
X193.04Y-101.6
X193.04Y-104.14
X193.04Y-106.68
X193.04Y-109.22
X193.04Y-111.76
X193.04Y-114.3
X193.04Y-116.84
X193.04Y-119.38
X200.66Y-96.52
X200.66Y-99.06
X200.66Y-101.6
X200.66Y-104.14
X200.66Y-106.68
X200.66Y-109.22
X200.66Y-111.76
X200.66Y-114.3
X200.66Y-116.84
X200.66Y-119.38
X204.47Y-82.55
X207.01Y-82.55
X212.09Y-91.44
X212.09Y-93.98
X212.09Y-99.06
X212.09Y-101.6
X212.09Y-104.14
X212.09Y-106.68
X212.09Y-109.22
X212.09Y-111.76
X212.09Y-114.3
X212.09Y-116.84
X212.09Y-119.38
T2
X199.39Y-83.693
X199.39Y-88.773
T3
X102.87Y-80.01
X102.87Y-95.25
X107.95Y-80.01
X107.95Y-95.25
X121.92Y-80.01
X121.92Y-95.25
X127.Y-80.01
X127.Y-95.25
X132.08Y-80.01
X132.08Y-95.25
X165.1Y-114.3
X180.34Y-114.3
T0
M30
