G04 #@! TF.FileFunction,Soldermask,Bot*
%FSLAX46Y46*%
G04 Gerber Fmt 4.6, Leading zero omitted, Abs format (unit mm)*
G04 Created by KiCad (PCBNEW 4.0.5+dfsg1-4+deb9u1) date Sun Sep  4 20:05:12 2022*
%MOMM*%
%LPD*%
G01*
G04 APERTURE LIST*
%ADD10C,0.100000*%
%ADD11R,1.974800X2.686000*%
%ADD12O,1.974800X2.686000*%
%ADD13R,2.686000X1.974800*%
%ADD14O,2.686000X1.974800*%
%ADD15C,1.797000*%
%ADD16R,2.178000X2.178000*%
%ADD17C,2.178000*%
%ADD18R,1.797000X1.797000*%
G04 APERTURE END LIST*
D10*
D11*
X137160000Y-115570000D03*
D12*
X139700000Y-115570000D03*
X142240000Y-115570000D03*
X144780000Y-115570000D03*
X147320000Y-115570000D03*
X149860000Y-115570000D03*
X152400000Y-115570000D03*
X154940000Y-115570000D03*
X154940000Y-107950000D03*
X152400000Y-107950000D03*
X149860000Y-107950000D03*
X147320000Y-107950000D03*
X144780000Y-107950000D03*
X142240000Y-107950000D03*
X139700000Y-107950000D03*
X137160000Y-107950000D03*
D13*
X193040000Y-96520000D03*
D14*
X193040000Y-99060000D03*
X193040000Y-101600000D03*
X193040000Y-104140000D03*
X193040000Y-106680000D03*
X193040000Y-109220000D03*
X193040000Y-111760000D03*
X193040000Y-114300000D03*
X193040000Y-116840000D03*
X193040000Y-119380000D03*
X200660000Y-119380000D03*
X200660000Y-116840000D03*
X200660000Y-114300000D03*
X200660000Y-111760000D03*
X200660000Y-109220000D03*
X200660000Y-106680000D03*
X200660000Y-104140000D03*
X200660000Y-101600000D03*
X200660000Y-99060000D03*
X200660000Y-96520000D03*
D15*
X161290000Y-109220000D03*
X161290000Y-114300000D03*
D16*
X199390000Y-83693000D03*
D17*
X199390000Y-88773000D03*
D18*
X95250000Y-82550000D03*
D15*
X97790000Y-82550000D03*
D18*
X143510000Y-82550000D03*
D15*
X146050000Y-82550000D03*
D18*
X143510000Y-92710000D03*
D15*
X146050000Y-92710000D03*
D18*
X176530000Y-82550000D03*
D15*
X173990000Y-82550000D03*
D18*
X176530000Y-92710000D03*
D15*
X173990000Y-92710000D03*
D18*
X176530000Y-102870000D03*
D15*
X173990000Y-102870000D03*
D18*
X204470000Y-82550000D03*
D15*
X207010000Y-82550000D03*
D18*
X113030000Y-82550000D03*
D15*
X115570000Y-82550000D03*
D18*
X113030000Y-92710000D03*
D15*
X115570000Y-92710000D03*
D18*
X115570000Y-113030000D03*
D15*
X113030000Y-113030000D03*
D18*
X97790000Y-92710000D03*
D15*
X95250000Y-92710000D03*
D17*
X102870000Y-80010000D03*
X102870000Y-95250000D03*
X127000000Y-80010000D03*
X127000000Y-95250000D03*
X107950000Y-80010000D03*
X107950000Y-95250000D03*
X132080000Y-80010000D03*
X132080000Y-95250000D03*
X165100000Y-114300000D03*
X180340000Y-114300000D03*
X121920000Y-95250000D03*
X121920000Y-80010000D03*
D18*
X124460000Y-107950000D03*
D15*
X124460000Y-105410000D03*
X121920000Y-105410000D03*
D18*
X212090000Y-99060000D03*
D15*
X212090000Y-101600000D03*
X212090000Y-104140000D03*
X212090000Y-106680000D03*
X212090000Y-109220000D03*
X212090000Y-111760000D03*
X212090000Y-114300000D03*
X212090000Y-116840000D03*
X212090000Y-119380000D03*
D18*
X212090000Y-91440000D03*
D15*
X212090000Y-93980000D03*
M02*
