G04 #@! TF.FileFunction,Copper,L2,Bot,Signal*
%FSLAX46Y46*%
G04 Gerber Fmt 4.6, Leading zero omitted, Abs format (unit mm)*
G04 Created by KiCad (PCBNEW 4.0.5+dfsg1-4+deb9u1) date Mon Sep 26 08:47:16 2022*
%MOMM*%
%LPD*%
G01*
G04 APERTURE LIST*
%ADD10C,0.100000*%
%ADD11C,0.304800*%
%ADD12C,0.381000*%
%ADD13C,1.397000*%
%ADD14R,1.778000X1.778000*%
%ADD15C,1.778000*%
%ADD16R,1.397000X1.397000*%
%ADD17C,1.524000*%
%ADD18C,1.099820*%
%ADD19C,0.350520*%
%ADD20C,1.000760*%
G04 APERTURE END LIST*
D10*
D11*
X210838140Y-135539238D02*
X210838140Y-133507238D01*
X210184997Y-135539238D02*
X210184997Y-134474857D01*
X210257568Y-134281333D01*
X210402711Y-134184571D01*
X210620426Y-134184571D01*
X210765568Y-134281333D01*
X210838140Y-134378095D01*
X209676997Y-134184571D02*
X209096426Y-134184571D01*
X209459283Y-133507238D02*
X209459283Y-135248952D01*
X209386711Y-135442476D01*
X209241569Y-135539238D01*
X209096426Y-135539238D01*
X208806140Y-134184571D02*
X208225569Y-134184571D01*
X208588426Y-133507238D02*
X208588426Y-135248952D01*
X208515854Y-135442476D01*
X208370712Y-135539238D01*
X208225569Y-135539238D01*
X207717569Y-134184571D02*
X207717569Y-136216571D01*
X207717569Y-134281333D02*
X207572426Y-134184571D01*
X207282140Y-134184571D01*
X207136997Y-134281333D01*
X207064426Y-134378095D01*
X206991855Y-134571619D01*
X206991855Y-135152190D01*
X207064426Y-135345714D01*
X207136997Y-135442476D01*
X207282140Y-135539238D01*
X207572426Y-135539238D01*
X207717569Y-135442476D01*
X206338712Y-135345714D02*
X206266140Y-135442476D01*
X206338712Y-135539238D01*
X206411283Y-135442476D01*
X206338712Y-135345714D01*
X206338712Y-135539238D01*
X206338712Y-134281333D02*
X206266140Y-134378095D01*
X206338712Y-134474857D01*
X206411283Y-134378095D01*
X206338712Y-134281333D01*
X206338712Y-134474857D01*
X204524426Y-133410476D02*
X205830712Y-136023048D01*
X202927855Y-133410476D02*
X204234141Y-136023048D01*
X202564999Y-134184571D02*
X202274713Y-135539238D01*
X201984427Y-134571619D01*
X201694142Y-135539238D01*
X201403856Y-134184571D01*
X200968428Y-134184571D02*
X200678142Y-135539238D01*
X200387856Y-134571619D01*
X200097571Y-135539238D01*
X199807285Y-134184571D01*
X199371857Y-134184571D02*
X199081571Y-135539238D01*
X198791285Y-134571619D01*
X198501000Y-135539238D01*
X198210714Y-134184571D01*
X197630143Y-135345714D02*
X197557571Y-135442476D01*
X197630143Y-135539238D01*
X197702714Y-135442476D01*
X197630143Y-135345714D01*
X197630143Y-135539238D01*
X196904429Y-134184571D02*
X196904429Y-136216571D01*
X196904429Y-134281333D02*
X196759286Y-134184571D01*
X196469000Y-134184571D01*
X196323857Y-134281333D01*
X196251286Y-134378095D01*
X196178715Y-134571619D01*
X196178715Y-135152190D01*
X196251286Y-135345714D01*
X196323857Y-135442476D01*
X196469000Y-135539238D01*
X196759286Y-135539238D01*
X196904429Y-135442476D01*
X195307858Y-135539238D02*
X195453000Y-135442476D01*
X195525572Y-135345714D01*
X195598143Y-135152190D01*
X195598143Y-134571619D01*
X195525572Y-134378095D01*
X195453000Y-134281333D01*
X195307858Y-134184571D01*
X195090143Y-134184571D01*
X194945000Y-134281333D01*
X194872429Y-134378095D01*
X194799858Y-134571619D01*
X194799858Y-135152190D01*
X194872429Y-135345714D01*
X194945000Y-135442476D01*
X195090143Y-135539238D01*
X195307858Y-135539238D01*
X194291858Y-134184571D02*
X193493572Y-134184571D01*
X194291858Y-135539238D01*
X193493572Y-135539238D01*
X192985572Y-135442476D02*
X192840429Y-135539238D01*
X192550144Y-135539238D01*
X192405001Y-135442476D01*
X192332429Y-135248952D01*
X192332429Y-135152190D01*
X192405001Y-134958667D01*
X192550144Y-134861905D01*
X192767858Y-134861905D01*
X192913001Y-134765143D01*
X192985572Y-134571619D01*
X192985572Y-134474857D01*
X192913001Y-134281333D01*
X192767858Y-134184571D01*
X192550144Y-134184571D01*
X192405001Y-134281333D01*
X191026144Y-135539238D02*
X191026144Y-134474857D01*
X191098715Y-134281333D01*
X191243858Y-134184571D01*
X191534144Y-134184571D01*
X191679287Y-134281333D01*
X191026144Y-135442476D02*
X191171287Y-135539238D01*
X191534144Y-135539238D01*
X191679287Y-135442476D01*
X191751858Y-135248952D01*
X191751858Y-135055429D01*
X191679287Y-134861905D01*
X191534144Y-134765143D01*
X191171287Y-134765143D01*
X191026144Y-134668381D01*
X190300430Y-135539238D02*
X190300430Y-134184571D01*
X190300430Y-134571619D02*
X190227858Y-134378095D01*
X190155287Y-134281333D01*
X190010144Y-134184571D01*
X189865001Y-134184571D01*
X189502144Y-134184571D02*
X188703858Y-134184571D01*
X189502144Y-135539238D01*
X188703858Y-135539238D01*
X188195858Y-135442476D02*
X188050715Y-135539238D01*
X187760430Y-135539238D01*
X187615287Y-135442476D01*
X187542715Y-135248952D01*
X187542715Y-135152190D01*
X187615287Y-134958667D01*
X187760430Y-134861905D01*
X187978144Y-134861905D01*
X188123287Y-134765143D01*
X188195858Y-134571619D01*
X188195858Y-134474857D01*
X188123287Y-134281333D01*
X187978144Y-134184571D01*
X187760430Y-134184571D01*
X187615287Y-134281333D01*
X186889573Y-135345714D02*
X186817001Y-135442476D01*
X186889573Y-135539238D01*
X186962144Y-135442476D01*
X186889573Y-135345714D01*
X186889573Y-135539238D01*
X186163859Y-135539238D02*
X186163859Y-133507238D01*
X185510716Y-135539238D02*
X185510716Y-134474857D01*
X185583287Y-134281333D01*
X185728430Y-134184571D01*
X185946145Y-134184571D01*
X186091287Y-134281333D01*
X186163859Y-134378095D01*
X184131859Y-134184571D02*
X184131859Y-135539238D01*
X184785002Y-134184571D02*
X184785002Y-135248952D01*
X184712430Y-135442476D01*
X184567288Y-135539238D01*
X184349573Y-135539238D01*
X184204430Y-135442476D01*
X184131859Y-135345714D01*
D12*
X82550000Y-139700000D02*
X82550000Y-66040000D01*
X223520000Y-139700000D02*
X82550000Y-139700000D01*
X223520000Y-66040000D02*
X223520000Y-139700000D01*
X82550000Y-66040000D02*
X223520000Y-66040000D01*
D13*
X186690000Y-81280000D03*
X186690000Y-86360000D03*
X186690000Y-96520000D03*
X186690000Y-101600000D03*
X186690000Y-111760000D03*
X186690000Y-116840000D03*
D14*
X163830000Y-120142000D03*
D15*
X163830000Y-115062000D03*
X134620000Y-132080000D03*
D14*
X134620000Y-119380000D03*
D15*
X130810000Y-132080000D03*
D14*
X130810000Y-119380000D03*
D15*
X138430000Y-132080000D03*
D14*
X138430000Y-119380000D03*
D15*
X107950000Y-132080000D03*
D14*
X107950000Y-119380000D03*
D15*
X127000000Y-132080000D03*
D14*
X127000000Y-119380000D03*
D15*
X104140000Y-132080000D03*
D14*
X104140000Y-119380000D03*
D15*
X115570000Y-132080000D03*
D14*
X115570000Y-119380000D03*
D15*
X96520000Y-132080000D03*
D14*
X96520000Y-119380000D03*
D15*
X111760000Y-132080000D03*
D14*
X111760000Y-119380000D03*
D15*
X100330000Y-132080000D03*
D14*
X100330000Y-119380000D03*
D15*
X119380000Y-132080000D03*
D14*
X119380000Y-119380000D03*
D15*
X88900000Y-132080000D03*
D14*
X88900000Y-119380000D03*
D15*
X92710000Y-132080000D03*
D14*
X92710000Y-119380000D03*
D15*
X123190000Y-132080000D03*
D14*
X123190000Y-119380000D03*
D15*
X152400000Y-96520000D03*
D14*
X139700000Y-96520000D03*
D16*
X214630000Y-110490000D03*
D13*
X212090000Y-110490000D03*
X209550000Y-110490000D03*
X207010000Y-110490000D03*
X204470000Y-110490000D03*
X201930000Y-110490000D03*
X199390000Y-110490000D03*
X199390000Y-118110000D03*
X201930000Y-118110000D03*
X204470000Y-118110000D03*
X207010000Y-118110000D03*
X209550000Y-118110000D03*
X212090000Y-118110000D03*
X214630000Y-118110000D03*
D16*
X214630000Y-95250000D03*
D13*
X212090000Y-95250000D03*
X209550000Y-95250000D03*
X207010000Y-95250000D03*
X204470000Y-95250000D03*
X201930000Y-95250000D03*
X199390000Y-95250000D03*
X196850000Y-95250000D03*
X196850000Y-102870000D03*
X199390000Y-102870000D03*
X201930000Y-102870000D03*
X204470000Y-102870000D03*
X207010000Y-102870000D03*
X209550000Y-102870000D03*
X212090000Y-102870000D03*
X214630000Y-102870000D03*
D16*
X214630000Y-80010000D03*
D13*
X212090000Y-80010000D03*
X209550000Y-80010000D03*
X207010000Y-80010000D03*
X204470000Y-80010000D03*
X201930000Y-80010000D03*
X199390000Y-80010000D03*
X196850000Y-80010000D03*
X194310000Y-80010000D03*
X191770000Y-80010000D03*
X191770000Y-87630000D03*
X194310000Y-87630000D03*
X196850000Y-87630000D03*
X199390000Y-87630000D03*
X201930000Y-87630000D03*
X204470000Y-87630000D03*
X207010000Y-87630000D03*
X209550000Y-87630000D03*
X212090000Y-87630000D03*
X214630000Y-87630000D03*
D15*
X153670000Y-81280000D03*
X138430000Y-81280000D03*
X138430000Y-86360000D03*
X153670000Y-86360000D03*
X138430000Y-91440000D03*
X153670000Y-91440000D03*
X181610000Y-110490000D03*
X166370000Y-110490000D03*
X181610000Y-104140000D03*
X166370000Y-104140000D03*
X181610000Y-76200000D03*
X166370000Y-76200000D03*
X138430000Y-76200000D03*
X153670000Y-76200000D03*
X181610000Y-82550000D03*
X166370000Y-82550000D03*
D16*
X138430000Y-104140000D03*
D13*
X138430000Y-101600000D03*
D16*
X138430000Y-109220000D03*
D13*
X138430000Y-111760000D03*
X138430000Y-114300000D03*
D17*
X125730000Y-93980000D03*
X127000000Y-92710000D03*
X124460000Y-92710000D03*
X102870000Y-87630000D03*
X104140000Y-86360000D03*
X101600000Y-86360000D03*
X129540000Y-87630000D03*
X130810000Y-86360000D03*
X128270000Y-86360000D03*
X111760000Y-87630000D03*
X113030000Y-86360000D03*
X110490000Y-86360000D03*
X97790000Y-81280000D03*
X99060000Y-80010000D03*
X96520000Y-80010000D03*
X120650000Y-87630000D03*
X121920000Y-86360000D03*
X119380000Y-86360000D03*
X107950000Y-93980000D03*
X109220000Y-92710000D03*
X106680000Y-92710000D03*
X124460000Y-81280000D03*
X125730000Y-80010000D03*
X123190000Y-80010000D03*
X116840000Y-93980000D03*
X118110000Y-92710000D03*
X115570000Y-92710000D03*
X99060000Y-93980000D03*
X100330000Y-92710000D03*
X97790000Y-92710000D03*
X93980000Y-87630000D03*
X95250000Y-86360000D03*
X92710000Y-86360000D03*
X88900000Y-81280000D03*
X90170000Y-80010000D03*
X87630000Y-80010000D03*
X144780000Y-102870000D03*
X146050000Y-104140000D03*
X146050000Y-101600000D03*
X115570000Y-81280000D03*
X116840000Y-80010000D03*
X114300000Y-80010000D03*
X106680000Y-81280000D03*
X107950000Y-80010000D03*
X105410000Y-80010000D03*
D16*
X88265000Y-71120000D03*
D13*
X90805000Y-71120000D03*
X93345000Y-71120000D03*
X95885000Y-71120000D03*
X98425000Y-71120000D03*
X100965000Y-71120000D03*
X103505000Y-71120000D03*
X106045000Y-71120000D03*
X108585000Y-71120000D03*
X111125000Y-71120000D03*
X113665000Y-71120000D03*
X116205000Y-71120000D03*
X118745000Y-71120000D03*
X121285000Y-71120000D03*
D16*
X149225000Y-71120000D03*
D13*
X146685000Y-71120000D03*
D16*
X194310000Y-71120000D03*
D13*
X196850000Y-71120000D03*
X199390000Y-71120000D03*
X201930000Y-71120000D03*
X204470000Y-71120000D03*
X207010000Y-71120000D03*
X209550000Y-71120000D03*
X212090000Y-71120000D03*
D16*
X185420000Y-71120000D03*
D13*
X187960000Y-71120000D03*
D16*
X157480000Y-71120000D03*
D13*
X154940000Y-71120000D03*
D16*
X161290000Y-102870000D03*
D13*
X161290000Y-100330000D03*
X158750000Y-100330000D03*
D16*
X161290000Y-110490000D03*
D13*
X161290000Y-107950000D03*
X158750000Y-107950000D03*
D16*
X161290000Y-87630000D03*
D13*
X161290000Y-85090000D03*
X158750000Y-85090000D03*
D16*
X161290000Y-95250000D03*
D13*
X161290000Y-92710000D03*
X158750000Y-92710000D03*
D16*
X161290000Y-80010000D03*
D13*
X161290000Y-77470000D03*
X158750000Y-77470000D03*
D15*
X111760000Y-100330000D03*
X111760000Y-115570000D03*
X88900000Y-115570000D03*
X88900000Y-100330000D03*
X181610000Y-88900000D03*
X166370000Y-88900000D03*
X96520000Y-115570000D03*
X96520000Y-100330000D03*
X92710000Y-115570000D03*
X92710000Y-100330000D03*
X107950000Y-115570000D03*
X107950000Y-100330000D03*
X130810000Y-115570000D03*
X130810000Y-100330000D03*
X100330000Y-100330000D03*
X100330000Y-115570000D03*
X123190000Y-115570000D03*
X123190000Y-100330000D03*
X119380000Y-115570000D03*
X119380000Y-100330000D03*
X104140000Y-115570000D03*
X104140000Y-100330000D03*
X127000000Y-115570000D03*
X127000000Y-100330000D03*
X115570000Y-115570000D03*
X115570000Y-100330000D03*
D18*
X118745000Y-74295000D03*
X193040000Y-90170000D03*
X208280000Y-125730000D03*
X193040000Y-125730000D03*
X139700000Y-125730000D03*
X195580000Y-124460000D03*
X142240000Y-124460000D03*
X102235000Y-124460000D03*
X158750000Y-107950000D03*
X158750000Y-136525000D03*
X149860000Y-91440000D03*
X154940000Y-99060000D03*
X154940000Y-106680000D03*
X96520000Y-104140000D03*
D19*
X116205000Y-73025000D02*
X117475000Y-74295000D01*
X117475000Y-74295000D02*
X118745000Y-74295000D01*
X116205000Y-71120000D02*
X116205000Y-73025000D01*
X113665000Y-73025000D02*
X116205000Y-75565000D01*
X116205000Y-75565000D02*
X118745000Y-75565000D01*
X118745000Y-75565000D02*
X120650000Y-77470000D01*
X120650000Y-77470000D02*
X120650000Y-85090000D01*
X120650000Y-85090000D02*
X121920000Y-86360000D01*
X113665000Y-71120000D02*
X113665000Y-73025000D01*
X118745000Y-72390000D02*
X120015000Y-73660000D01*
X120015000Y-73660000D02*
X124460000Y-73660000D01*
X124460000Y-73660000D02*
X125730000Y-74930000D01*
X125730000Y-74930000D02*
X125730000Y-79375000D01*
X125730000Y-79375000D02*
X125730000Y-80010000D01*
X118745000Y-71120000D02*
X118745000Y-72390000D01*
X129540000Y-71120000D02*
X130810000Y-72390000D01*
X130810000Y-72390000D02*
X130810000Y-77470000D01*
X121285000Y-71120000D02*
X129540000Y-71120000D01*
X111125000Y-75565000D02*
X113665000Y-78105000D01*
X113665000Y-78105000D02*
X116205000Y-78105000D01*
X116205000Y-78105000D02*
X116840000Y-78740000D01*
X116840000Y-78740000D02*
X116840000Y-80010000D01*
X111125000Y-71120000D02*
X111125000Y-75565000D01*
X116840000Y-76835000D02*
X118745000Y-78740000D01*
X114935000Y-76835000D02*
X116840000Y-76835000D01*
X112395000Y-74295000D02*
X114935000Y-76835000D01*
X108585000Y-69850000D02*
X109220000Y-69215000D01*
X109220000Y-69215000D02*
X111760000Y-69215000D01*
X111760000Y-69215000D02*
X112395000Y-69850000D01*
X112395000Y-69850000D02*
X112395000Y-74295000D01*
X118110000Y-90170000D02*
X118110000Y-92710000D01*
X118110000Y-90170000D02*
X116840000Y-88900000D01*
X116840000Y-88900000D02*
X116840000Y-83820000D01*
X116840000Y-83820000D02*
X118745000Y-81915000D01*
X118745000Y-81915000D02*
X118745000Y-78740000D01*
X108585000Y-71120000D02*
X108585000Y-69850000D01*
X106045000Y-73025000D02*
X111125000Y-78105000D01*
X111125000Y-78105000D02*
X111125000Y-84455000D01*
X111125000Y-84455000D02*
X113030000Y-86360000D01*
X106045000Y-71120000D02*
X106045000Y-73025000D01*
X98425000Y-73025000D02*
X102870000Y-77470000D01*
X102870000Y-77470000D02*
X102870000Y-85090000D01*
X102870000Y-85090000D02*
X104140000Y-86360000D01*
X98425000Y-71120000D02*
X98425000Y-73025000D01*
X103505000Y-75565000D02*
X105410000Y-77470000D01*
X103505000Y-71120000D02*
X103505000Y-75565000D01*
X105410000Y-77470000D02*
X104775000Y-76835000D01*
X107950000Y-80010000D02*
X105410000Y-77470000D01*
X104775000Y-74295000D02*
X109220000Y-78740000D01*
X100965000Y-69850000D02*
X101600000Y-69215000D01*
X101600000Y-69215000D02*
X104140000Y-69215000D01*
X104140000Y-69215000D02*
X104775000Y-69850000D01*
X104775000Y-69850000D02*
X104775000Y-74295000D01*
X109220000Y-78740000D02*
X109220000Y-81280000D01*
X109220000Y-81280000D02*
X106680000Y-83820000D01*
X106680000Y-83820000D02*
X106680000Y-87630000D01*
X106680000Y-87630000D02*
X109220000Y-90170000D01*
X109220000Y-90170000D02*
X109220000Y-92710000D01*
X100965000Y-71120000D02*
X100965000Y-69850000D01*
X100330000Y-88900000D02*
X99060000Y-87630000D01*
X99060000Y-87630000D02*
X99060000Y-83820000D01*
X99060000Y-83820000D02*
X101600000Y-81280000D01*
X101600000Y-81280000D02*
X101600000Y-78740000D01*
X101600000Y-78740000D02*
X97155000Y-74295000D01*
X97155000Y-74295000D02*
X97155000Y-69850000D01*
X97155000Y-69850000D02*
X96520000Y-69215000D01*
X96520000Y-69215000D02*
X93980000Y-69215000D01*
X93980000Y-69215000D02*
X93345000Y-69850000D01*
X93345000Y-69850000D02*
X93345000Y-71120000D01*
X100330000Y-92710000D02*
X100330000Y-88900000D01*
X130810000Y-77470000D02*
X130810000Y-86360000D01*
X95885000Y-71120000D02*
X95885000Y-76835000D01*
X95885000Y-76835000D02*
X99060000Y-80010000D01*
X95250000Y-83820000D02*
X95250000Y-86360000D01*
X92710000Y-81280000D02*
X95250000Y-83820000D01*
X92710000Y-78740000D02*
X92710000Y-81280000D01*
X90805000Y-76835000D02*
X92710000Y-78740000D01*
X88265000Y-71120000D02*
X88265000Y-76835000D01*
X90170000Y-78740000D02*
X90170000Y-80010000D01*
X88265000Y-76835000D02*
X90170000Y-78740000D01*
X90805000Y-71120000D02*
X90805000Y-76835000D01*
X209550000Y-80010000D02*
X209550000Y-71120000D01*
X210820000Y-73660000D02*
X212090000Y-72390000D01*
X212090000Y-72390000D02*
X212090000Y-71120000D01*
X209550000Y-87630000D02*
X209550000Y-86360000D01*
X209550000Y-86360000D02*
X210820000Y-85090000D01*
X210820000Y-85090000D02*
X210820000Y-73660000D01*
X207010000Y-71120000D02*
X207010000Y-80010000D01*
X204470000Y-72390000D02*
X205740000Y-73660000D01*
X205740000Y-73660000D02*
X205740000Y-85090000D01*
X205740000Y-85090000D02*
X207010000Y-86360000D01*
X207010000Y-86360000D02*
X207010000Y-87630000D01*
X204470000Y-71120000D02*
X204470000Y-72390000D01*
X196850000Y-71120000D02*
X196850000Y-80010000D01*
X199390000Y-80010000D02*
X199390000Y-71120000D01*
X201930000Y-72390000D02*
X200660000Y-73660000D01*
X200660000Y-73660000D02*
X200660000Y-85090000D01*
X200660000Y-85090000D02*
X199390000Y-86360000D01*
X199390000Y-86360000D02*
X199390000Y-87630000D01*
X201930000Y-71120000D02*
X201930000Y-72390000D01*
X196850000Y-86360000D02*
X195580000Y-85090000D01*
X195580000Y-85090000D02*
X195580000Y-73660000D01*
X195580000Y-73660000D02*
X194310000Y-72390000D01*
X194310000Y-72390000D02*
X194310000Y-71120000D01*
X196850000Y-87630000D02*
X196850000Y-86360000D01*
X190500000Y-87630000D02*
X189230000Y-86360000D01*
X189230000Y-86360000D02*
X189230000Y-77470000D01*
X189230000Y-77470000D02*
X187960000Y-76200000D01*
X187960000Y-76200000D02*
X186690000Y-76200000D01*
X186690000Y-76200000D02*
X185420000Y-74930000D01*
X185420000Y-74930000D02*
X185420000Y-71120000D01*
X191770000Y-87630000D02*
X190500000Y-87630000D01*
X193040000Y-90170000D02*
X193040000Y-77470000D01*
X193040000Y-77470000D02*
X193040000Y-76200000D01*
X193040000Y-76200000D02*
X191770000Y-74930000D01*
X191770000Y-74930000D02*
X189230000Y-74930000D01*
X189230000Y-74930000D02*
X187960000Y-73660000D01*
X187960000Y-73660000D02*
X187960000Y-71120000D01*
X162560000Y-110490000D02*
X163830000Y-110490000D01*
X163830000Y-110490000D02*
X163830000Y-115062000D01*
X163830000Y-109220000D02*
X163830000Y-110490000D01*
X162560000Y-95250000D02*
X163830000Y-95250000D01*
X162560000Y-102870000D02*
X163830000Y-102870000D01*
X163830000Y-102870000D02*
X163830000Y-104140000D01*
X163830000Y-95250000D02*
X163830000Y-102870000D01*
X163830000Y-93980000D02*
X163830000Y-95250000D01*
X165100000Y-86360000D02*
X166370000Y-85090000D01*
X166370000Y-85090000D02*
X167640000Y-85090000D01*
X167640000Y-85090000D02*
X168910000Y-83820000D01*
X168910000Y-83820000D02*
X168910000Y-81280000D01*
X168910000Y-81280000D02*
X167640000Y-80010000D01*
X167640000Y-80010000D02*
X161290000Y-80010000D01*
X163830000Y-87630000D02*
X165100000Y-86360000D01*
X161290000Y-87630000D02*
X163830000Y-87630000D01*
X163830000Y-87630000D02*
X163830000Y-88900000D01*
X207010000Y-95250000D02*
X204470000Y-95250000D01*
X163830000Y-93980000D02*
X163830000Y-88900000D01*
X161290000Y-95250000D02*
X162560000Y-95250000D01*
X161290000Y-110490000D02*
X162560000Y-110490000D01*
X163830000Y-109220000D02*
X163830000Y-104140000D01*
X162560000Y-102870000D02*
X161290000Y-102870000D01*
D20*
X214630000Y-87630000D02*
X221615000Y-87630000D01*
X214630000Y-102870000D02*
X221615000Y-102870000D01*
X221615000Y-102870000D02*
X221615000Y-118110000D01*
X221615000Y-118110000D02*
X214630000Y-118110000D01*
X221615000Y-87630000D02*
X221615000Y-102870000D01*
X221615000Y-69215000D02*
X221615000Y-74930000D01*
X220345000Y-67945000D02*
X221615000Y-69215000D01*
X199390000Y-67945000D02*
X220345000Y-67945000D01*
X157480000Y-67945000D02*
X199390000Y-67945000D01*
X149225000Y-67945000D02*
X157480000Y-67945000D01*
X146685000Y-67945000D02*
X149225000Y-67945000D01*
X138430000Y-67945000D02*
X146685000Y-67945000D01*
X221615000Y-74930000D02*
X221615000Y-87630000D01*
X138430000Y-76200000D02*
X138430000Y-67945000D01*
D19*
X138430000Y-86360000D02*
X138430000Y-91440000D01*
X138430000Y-96520000D02*
X138430000Y-101600000D01*
X138430000Y-91440000D02*
X138430000Y-96520000D01*
X139700000Y-96520000D02*
X138430000Y-96520000D01*
X137160000Y-86360000D02*
X135890000Y-85090000D01*
X135890000Y-85090000D02*
X135890000Y-77470000D01*
X135890000Y-77470000D02*
X137160000Y-76200000D01*
X137160000Y-76200000D02*
X138430000Y-76200000D01*
X138430000Y-86360000D02*
X137160000Y-86360000D01*
X182880000Y-101600000D02*
X181610000Y-102870000D01*
X181610000Y-102870000D02*
X181610000Y-104140000D01*
X186690000Y-101600000D02*
X182880000Y-101600000D01*
D20*
X157480000Y-71120000D02*
X157480000Y-67945000D01*
X149225000Y-71120000D02*
X149225000Y-67945000D01*
D19*
X134620000Y-132080000D02*
X138430000Y-132080000D01*
X130810000Y-132080000D02*
X134620000Y-132080000D01*
X213360000Y-116840000D02*
X212090000Y-115570000D01*
X213360000Y-129540000D02*
X213360000Y-116840000D01*
X138430000Y-132080000D02*
X139700000Y-130810000D01*
X212090000Y-130810000D02*
X213360000Y-129540000D01*
X139700000Y-130810000D02*
X212090000Y-130810000D01*
X212090000Y-115570000D02*
X212090000Y-110490000D01*
X111760000Y-119380000D02*
X115570000Y-119380000D01*
X115570000Y-115570000D02*
X115570000Y-119380000D01*
X127000000Y-115570000D02*
X127000000Y-119380000D01*
X127000000Y-119380000D02*
X130810000Y-119380000D01*
X104140000Y-115570000D02*
X104140000Y-119380000D01*
X209550000Y-128270000D02*
X208280000Y-129540000D01*
X209550000Y-128270000D02*
X209550000Y-127000000D01*
X209550000Y-127000000D02*
X209550000Y-118110000D01*
X128270000Y-129540000D02*
X207645000Y-129540000D01*
X127000000Y-130810000D02*
X128270000Y-129540000D01*
X207645000Y-129540000D02*
X208280000Y-129540000D01*
X127000000Y-132080000D02*
X127000000Y-130810000D01*
X125730000Y-136525000D02*
X109220000Y-136525000D01*
X104140000Y-132080000D02*
X107950000Y-132080000D01*
X127000000Y-132080000D02*
X127000000Y-134620000D01*
X127000000Y-134620000D02*
X127000000Y-135255000D01*
X127000000Y-135255000D02*
X125730000Y-136525000D01*
X107950000Y-135255000D02*
X107950000Y-132080000D01*
X109220000Y-136525000D02*
X107950000Y-135255000D01*
X107950000Y-120650000D02*
X109220000Y-121920000D01*
X109220000Y-121920000D02*
X118110000Y-121920000D01*
X118110000Y-121920000D02*
X119380000Y-120650000D01*
X119380000Y-120650000D02*
X119380000Y-119380000D01*
X107950000Y-119380000D02*
X107950000Y-120650000D01*
X123190000Y-119380000D02*
X119380000Y-119380000D01*
X119380000Y-115570000D02*
X119380000Y-119380000D01*
X208280000Y-116840000D02*
X208280000Y-125730000D01*
X207010000Y-115570000D02*
X208280000Y-116840000D01*
X193040000Y-125730000D02*
X152400000Y-125730000D01*
X152400000Y-125730000D02*
X139700000Y-125730000D01*
X207010000Y-110490000D02*
X207010000Y-115570000D01*
X125095000Y-125730000D02*
X125095000Y-117475000D01*
X125095000Y-127000000D02*
X125095000Y-125730000D01*
X123825000Y-128270000D02*
X125095000Y-127000000D01*
X116840000Y-128270000D02*
X123825000Y-128270000D01*
X116205000Y-128905000D02*
X116840000Y-128270000D01*
X115570000Y-132080000D02*
X115570000Y-129540000D01*
X125095000Y-117475000D02*
X123190000Y-115570000D01*
X115570000Y-129540000D02*
X116205000Y-128905000D01*
X100330000Y-115570000D02*
X100330000Y-119380000D01*
X96520000Y-119380000D02*
X100330000Y-119380000D01*
X179070000Y-124460000D02*
X142240000Y-124460000D01*
X179070000Y-124460000D02*
X195580000Y-124460000D01*
X102235000Y-124460000D02*
X102235000Y-127635000D01*
X100330000Y-129540000D02*
X102235000Y-127635000D01*
X100330000Y-132080000D02*
X100330000Y-129540000D01*
X106045000Y-117475000D02*
X106045000Y-121920000D01*
X106045000Y-121920000D02*
X107315000Y-123190000D01*
X107315000Y-123190000D02*
X108585000Y-123190000D01*
X108585000Y-123190000D02*
X109855000Y-124460000D01*
X107950000Y-115570000D02*
X106045000Y-117475000D01*
X119380000Y-135255000D02*
X119380000Y-133985000D01*
X119380000Y-135255000D02*
X118110000Y-135255000D01*
X120650000Y-135255000D02*
X119380000Y-135255000D01*
X120650000Y-135255000D02*
X123825000Y-135255000D01*
X123825000Y-135255000D02*
X125095000Y-133985000D01*
X125095000Y-133985000D02*
X125095000Y-130810000D01*
X125095000Y-130810000D02*
X127635000Y-128270000D01*
X127635000Y-128270000D02*
X201930000Y-128270000D01*
X201930000Y-128270000D02*
X203200000Y-127000000D01*
X203200000Y-127000000D02*
X203200000Y-116840000D01*
X203200000Y-116840000D02*
X201930000Y-115570000D01*
X201930000Y-115570000D02*
X201930000Y-110490000D01*
X119380000Y-133985000D02*
X119380000Y-132080000D01*
X111125000Y-135255000D02*
X118110000Y-135255000D01*
X109855000Y-130175000D02*
X109855000Y-133985000D01*
X109855000Y-124460000D02*
X109855000Y-130175000D01*
X109855000Y-133985000D02*
X111125000Y-135255000D01*
X88900000Y-119380000D02*
X92710000Y-119380000D01*
X92710000Y-115570000D02*
X92710000Y-119380000D01*
X158750000Y-107315000D02*
X158750000Y-107950000D01*
X158750000Y-107950000D02*
X158750000Y-107315000D01*
X92710000Y-136525000D02*
X93980000Y-137795000D01*
X93980000Y-137795000D02*
X157480000Y-137795000D01*
X157480000Y-137795000D02*
X158750000Y-136525000D01*
X92710000Y-132080000D02*
X92710000Y-136525000D01*
X151130000Y-76200000D02*
X149860000Y-77470000D01*
X149860000Y-77470000D02*
X149860000Y-91440000D01*
X153670000Y-76200000D02*
X151130000Y-76200000D01*
X158750000Y-107950000D02*
X158750000Y-100330000D01*
X136525000Y-127000000D02*
X136525000Y-125730000D01*
X124460000Y-129540000D02*
X125730000Y-128270000D01*
X123190000Y-130810000D02*
X124460000Y-129540000D01*
X141605000Y-112395000D02*
X140970000Y-111760000D01*
X141605000Y-116205000D02*
X141605000Y-112395000D01*
X140970000Y-116840000D02*
X141605000Y-116205000D01*
X137160000Y-116840000D02*
X140970000Y-116840000D01*
X136525000Y-117475000D02*
X137160000Y-116840000D01*
X136525000Y-125730000D02*
X136525000Y-117475000D01*
X140970000Y-111760000D02*
X138430000Y-111760000D01*
X123190000Y-132080000D02*
X123190000Y-130810000D01*
X127000000Y-127000000D02*
X125730000Y-128270000D01*
X136525000Y-127000000D02*
X127000000Y-127000000D01*
X146050000Y-127000000D02*
X196850000Y-127000000D01*
X196850000Y-127000000D02*
X197485000Y-127000000D01*
X197485000Y-127000000D02*
X198120000Y-127000000D01*
X198120000Y-127000000D02*
X199390000Y-125730000D01*
X199390000Y-125730000D02*
X199390000Y-118110000D01*
X136525000Y-127000000D02*
X146050000Y-127000000D01*
X151130000Y-104140000D02*
X146050000Y-104140000D01*
X152400000Y-96520000D02*
X152400000Y-102870000D01*
X146050000Y-104140000D02*
X138430000Y-104140000D01*
X152400000Y-102870000D02*
X151130000Y-104140000D01*
X209550000Y-102870000D02*
X209550000Y-104140000D01*
X209550000Y-104140000D02*
X214630000Y-109220000D01*
X214630000Y-109220000D02*
X214630000Y-110490000D01*
X209550000Y-110490000D02*
X209550000Y-109220000D01*
X209550000Y-109220000D02*
X204470000Y-104140000D01*
X204470000Y-104140000D02*
X204470000Y-102870000D01*
X204470000Y-109220000D02*
X204470000Y-110490000D01*
X199390000Y-104140000D02*
X204470000Y-109220000D01*
X199390000Y-102870000D02*
X199390000Y-104140000D01*
X201930000Y-116840000D02*
X201930000Y-118110000D01*
X196850000Y-102870000D02*
X196850000Y-104140000D01*
X200660000Y-107950000D02*
X200660000Y-115570000D01*
X196850000Y-104140000D02*
X200660000Y-107950000D01*
X200660000Y-115570000D02*
X201930000Y-116840000D01*
X201930000Y-104140000D02*
X205740000Y-107950000D01*
X205740000Y-115570000D02*
X207010000Y-116840000D01*
X207010000Y-116840000D02*
X207010000Y-118110000D01*
X205740000Y-107950000D02*
X205740000Y-115570000D01*
X201930000Y-102870000D02*
X201930000Y-104140000D01*
X212090000Y-116840000D02*
X212090000Y-118110000D01*
X210820000Y-115570000D02*
X212090000Y-116840000D01*
X210820000Y-107950000D02*
X210820000Y-115570000D01*
X207010000Y-104140000D02*
X210820000Y-107950000D01*
X207010000Y-102870000D02*
X207010000Y-104140000D01*
X213360000Y-82550000D02*
X213360000Y-91440000D01*
X212090000Y-81280000D02*
X213360000Y-82550000D01*
X212090000Y-80010000D02*
X212090000Y-81280000D01*
X213360000Y-91440000D02*
X214630000Y-92710000D01*
X214630000Y-92710000D02*
X214630000Y-95250000D01*
X204470000Y-85090000D02*
X204470000Y-80010000D01*
X210820000Y-91440000D02*
X207010000Y-91440000D01*
X212090000Y-92710000D02*
X210820000Y-91440000D01*
X207010000Y-91440000D02*
X205740000Y-90170000D01*
X205740000Y-90170000D02*
X205740000Y-86360000D01*
X205740000Y-86360000D02*
X204470000Y-85090000D01*
X212090000Y-95250000D02*
X212090000Y-92710000D01*
X208280000Y-92710000D02*
X209550000Y-93980000D01*
X209550000Y-93980000D02*
X209550000Y-95250000D01*
X204470000Y-92710000D02*
X208280000Y-92710000D01*
X201930000Y-85090000D02*
X203200000Y-86360000D01*
X201930000Y-80010000D02*
X201930000Y-85090000D01*
X203200000Y-86360000D02*
X203200000Y-91440000D01*
X203200000Y-91440000D02*
X204470000Y-92710000D01*
X181610000Y-82550000D02*
X181610000Y-76200000D01*
X184150000Y-83820000D02*
X182880000Y-82550000D01*
X182880000Y-82550000D02*
X181610000Y-82550000D01*
X194310000Y-87630000D02*
X195580000Y-88900000D01*
X185420000Y-91440000D02*
X184150000Y-90170000D01*
X194310000Y-91440000D02*
X185420000Y-91440000D01*
X195580000Y-90170000D02*
X194310000Y-91440000D01*
X195580000Y-88900000D02*
X195580000Y-90170000D01*
X184150000Y-90170000D02*
X184150000Y-83820000D01*
X181610000Y-108585000D02*
X182880000Y-107315000D01*
X182880000Y-107315000D02*
X187960000Y-107315000D01*
X187960000Y-107315000D02*
X189230000Y-106045000D01*
X189230000Y-106045000D02*
X189230000Y-93980000D01*
X189230000Y-93980000D02*
X190500000Y-92710000D01*
X190500000Y-92710000D02*
X200660000Y-92710000D01*
X200660000Y-92710000D02*
X201930000Y-91440000D01*
X201930000Y-91440000D02*
X201930000Y-87630000D01*
X181610000Y-110490000D02*
X181610000Y-108585000D01*
X158750000Y-77470000D02*
X158750000Y-80010000D01*
X153670000Y-81280000D02*
X153670000Y-86360000D01*
X158750000Y-80010000D02*
X157480000Y-81280000D01*
X157480000Y-81280000D02*
X153670000Y-81280000D01*
X140970000Y-81280000D02*
X138430000Y-81280000D01*
X161290000Y-100330000D02*
X154940000Y-93980000D01*
X154940000Y-93980000D02*
X143510000Y-93980000D01*
X143510000Y-93980000D02*
X142240000Y-92710000D01*
X142240000Y-92710000D02*
X142240000Y-82550000D01*
X142240000Y-82550000D02*
X140970000Y-81280000D01*
X154940000Y-99060000D02*
X154940000Y-106680000D01*
X96520000Y-104140000D02*
X96520000Y-115570000D01*
X158750000Y-91440000D02*
X158750000Y-85090000D01*
X158750000Y-92710000D02*
X158750000Y-91440000D01*
X153670000Y-91440000D02*
X158750000Y-91440000D01*
X166370000Y-76200000D02*
X162560000Y-76200000D01*
X162560000Y-76200000D02*
X161290000Y-77470000D01*
X166370000Y-82550000D02*
X162560000Y-82550000D01*
X162560000Y-82550000D02*
X161290000Y-83820000D01*
X161290000Y-83820000D02*
X161290000Y-85090000D01*
X123190000Y-97790000D02*
X125730000Y-95250000D01*
X125730000Y-95250000D02*
X125730000Y-93980000D01*
X123190000Y-100330000D02*
X123190000Y-97790000D01*
X100330000Y-100330000D02*
X100330000Y-97790000D01*
X102870000Y-95250000D02*
X102870000Y-87630000D01*
X100330000Y-97790000D02*
X102870000Y-95250000D01*
X130810000Y-88900000D02*
X129540000Y-87630000D01*
X130810000Y-100330000D02*
X130810000Y-88900000D01*
X111760000Y-93980000D02*
X111760000Y-87630000D01*
X107950000Y-97790000D02*
X111760000Y-93980000D01*
X107950000Y-100330000D02*
X107950000Y-97790000D01*
X97790000Y-87630000D02*
X97790000Y-81280000D01*
X92710000Y-92710000D02*
X97790000Y-87630000D01*
X92710000Y-100330000D02*
X92710000Y-92710000D01*
X120650000Y-96520000D02*
X120650000Y-87630000D01*
X119380000Y-100330000D02*
X119380000Y-97790000D01*
X119380000Y-97790000D02*
X120650000Y-96520000D01*
X104140000Y-100330000D02*
X104140000Y-97790000D01*
X104140000Y-97790000D02*
X107950000Y-93980000D01*
X127000000Y-100330000D02*
X127000000Y-97790000D01*
X127000000Y-97790000D02*
X129540000Y-95250000D01*
X129540000Y-95250000D02*
X129540000Y-92710000D01*
X124460000Y-87630000D02*
X124460000Y-81280000D01*
X124460000Y-87630000D02*
X129540000Y-92710000D01*
X115570000Y-100330000D02*
X115570000Y-97790000D01*
X115570000Y-97790000D02*
X116840000Y-96520000D01*
X116840000Y-96520000D02*
X116840000Y-93980000D01*
X96520000Y-100330000D02*
X96520000Y-97790000D01*
X99060000Y-95250000D02*
X99060000Y-93980000D01*
X96520000Y-97790000D02*
X99060000Y-95250000D01*
X93980000Y-87630000D02*
X88900000Y-87630000D01*
X88900000Y-100330000D02*
X88900000Y-87630000D01*
X88900000Y-87630000D02*
X88900000Y-81280000D01*
X113030000Y-96520000D02*
X113030000Y-90170000D01*
X115570000Y-87630000D02*
X115570000Y-81280000D01*
X113030000Y-90170000D02*
X115570000Y-87630000D01*
X111760000Y-97790000D02*
X113030000Y-96520000D01*
X111760000Y-100330000D02*
X111760000Y-97790000D01*
M02*
