%FSLAX45Y45*%
G04 Gerber Fmt 4.5, Leading zero omitted, Abs format (unit mm)*
G04 Created by KiCad (PCBNEW 4.0.5+dfsg1-4+deb9u1) date Mon Sep 26 08:47:18 2022*
%MOMM*%
%LPD*%
G01*
G04 APERTURE LIST*
%ADD10C,0.127000*%
%ADD11C,0.381000*%
%ADD12C,0.200000*%
%ADD13C,0.300000*%
G04 APERTURE END LIST*
D10*
D11*
X8255000Y-13970000D02*
X8255000Y-6604000D01*
X22352000Y-13970000D02*
X8255000Y-13970000D01*
X22352000Y-6604000D02*
X22352000Y-13970000D01*
X8255000Y-6604000D02*
X22352000Y-6604000D01*
D12*
X9620250Y-10382250D02*
X9683750Y-10445750D01*
X9683750Y-10382250D02*
X9620250Y-10445750D01*
X10191750Y-12414250D02*
X10255250Y-12477750D01*
X10255250Y-12414250D02*
X10191750Y-12477750D01*
X11842750Y-7397750D02*
X11906250Y-7461250D01*
X11906250Y-7397750D02*
X11842750Y-7461250D01*
X13938250Y-12541250D02*
X14001750Y-12604750D01*
X14001750Y-12541250D02*
X13938250Y-12604750D01*
X14192250Y-12414250D02*
X14255750Y-12477750D01*
X14255750Y-12414250D02*
X14192250Y-12477750D01*
X14954250Y-9112250D02*
X15017750Y-9175750D01*
X15017750Y-9112250D02*
X14954250Y-9175750D01*
X15462250Y-9874250D02*
X15525750Y-9937750D01*
X15525750Y-9874250D02*
X15462250Y-9937750D01*
X15462250Y-10636250D02*
X15525750Y-10699750D01*
X15525750Y-10636250D02*
X15462250Y-10699750D01*
X15843250Y-10763250D02*
X15906750Y-10826750D01*
X15906750Y-10763250D02*
X15843250Y-10826750D01*
X15843250Y-13620750D02*
X15906750Y-13684250D01*
X15906750Y-13620750D02*
X15843250Y-13684250D01*
X19272250Y-8985250D02*
X19335750Y-9048750D01*
X19335750Y-8985250D02*
X19272250Y-9048750D01*
X19272250Y-12541250D02*
X19335750Y-12604750D01*
X19335750Y-12541250D02*
X19272250Y-12604750D01*
X19526250Y-12414250D02*
X19589750Y-12477750D01*
X19589750Y-12414250D02*
X19526250Y-12477750D01*
X20796250Y-12541250D02*
X20859750Y-12604750D01*
X20859750Y-12541250D02*
X20796250Y-12604750D01*
X8802370Y-8001000D02*
G75*
G03X8802370Y-8001000I-39370J0D01*
G01*
X8929370Y-8128000D02*
G75*
G03X8929370Y-8128000I-39370J0D01*
G01*
X9056370Y-8001000D02*
G75*
G03X9056370Y-8001000I-39370J0D01*
G01*
X9310370Y-8636000D02*
G75*
G03X9310370Y-8636000I-39370J0D01*
G01*
X9437370Y-8763000D02*
G75*
G03X9437370Y-8763000I-39370J0D01*
G01*
X9564370Y-8636000D02*
G75*
G03X9564370Y-8636000I-39370J0D01*
G01*
X9691370Y-8001000D02*
G75*
G03X9691370Y-8001000I-39370J0D01*
G01*
X9818370Y-8128000D02*
G75*
G03X9818370Y-8128000I-39370J0D01*
G01*
X9818370Y-9271000D02*
G75*
G03X9818370Y-9271000I-39370J0D01*
G01*
X9945370Y-8001000D02*
G75*
G03X9945370Y-8001000I-39370J0D01*
G01*
X9945370Y-9398000D02*
G75*
G03X9945370Y-9398000I-39370J0D01*
G01*
X10072370Y-9271000D02*
G75*
G03X10072370Y-9271000I-39370J0D01*
G01*
X10199370Y-8636000D02*
G75*
G03X10199370Y-8636000I-39370J0D01*
G01*
X10326370Y-8763000D02*
G75*
G03X10326370Y-8763000I-39370J0D01*
G01*
X10453370Y-8636000D02*
G75*
G03X10453370Y-8636000I-39370J0D01*
G01*
X10580370Y-8001000D02*
G75*
G03X10580370Y-8001000I-39370J0D01*
G01*
X10707370Y-8128000D02*
G75*
G03X10707370Y-8128000I-39370J0D01*
G01*
X10707370Y-9271000D02*
G75*
G03X10707370Y-9271000I-39370J0D01*
G01*
X10834370Y-8001000D02*
G75*
G03X10834370Y-8001000I-39370J0D01*
G01*
X10834370Y-9398000D02*
G75*
G03X10834370Y-9398000I-39370J0D01*
G01*
X10961370Y-9271000D02*
G75*
G03X10961370Y-9271000I-39370J0D01*
G01*
X11088370Y-8636000D02*
G75*
G03X11088370Y-8636000I-39370J0D01*
G01*
X11215370Y-8763000D02*
G75*
G03X11215370Y-8763000I-39370J0D01*
G01*
X11342370Y-8636000D02*
G75*
G03X11342370Y-8636000I-39370J0D01*
G01*
X11469370Y-8001000D02*
G75*
G03X11469370Y-8001000I-39370J0D01*
G01*
X11596370Y-8128000D02*
G75*
G03X11596370Y-8128000I-39370J0D01*
G01*
X11596370Y-9271000D02*
G75*
G03X11596370Y-9271000I-39370J0D01*
G01*
X11723370Y-8001000D02*
G75*
G03X11723370Y-8001000I-39370J0D01*
G01*
X11723370Y-9398000D02*
G75*
G03X11723370Y-9398000I-39370J0D01*
G01*
X11850370Y-9271000D02*
G75*
G03X11850370Y-9271000I-39370J0D01*
G01*
X11977370Y-8636000D02*
G75*
G03X11977370Y-8636000I-39370J0D01*
G01*
X12104370Y-8763000D02*
G75*
G03X12104370Y-8763000I-39370J0D01*
G01*
X12231370Y-8636000D02*
G75*
G03X12231370Y-8636000I-39370J0D01*
G01*
X12358370Y-8001000D02*
G75*
G03X12358370Y-8001000I-39370J0D01*
G01*
X12485370Y-8128000D02*
G75*
G03X12485370Y-8128000I-39370J0D01*
G01*
X12485370Y-9271000D02*
G75*
G03X12485370Y-9271000I-39370J0D01*
G01*
X12612370Y-8001000D02*
G75*
G03X12612370Y-8001000I-39370J0D01*
G01*
X12612370Y-9398000D02*
G75*
G03X12612370Y-9398000I-39370J0D01*
G01*
X12739370Y-9271000D02*
G75*
G03X12739370Y-9271000I-39370J0D01*
G01*
X12866370Y-8636000D02*
G75*
G03X12866370Y-8636000I-39370J0D01*
G01*
X12993370Y-8763000D02*
G75*
G03X12993370Y-8763000I-39370J0D01*
G01*
X13120370Y-8636000D02*
G75*
G03X13120370Y-8636000I-39370J0D01*
G01*
X14517370Y-10287000D02*
G75*
G03X14517370Y-10287000I-39370J0D01*
G01*
X14644370Y-10160000D02*
G75*
G03X14644370Y-10160000I-39370J0D01*
G01*
X14644370Y-10414000D02*
G75*
G03X14644370Y-10414000I-39370J0D01*
G01*
X8826500Y-7071360D02*
X8826500Y-7152640D01*
X8785860Y-7112000D02*
X8867140Y-7112000D01*
X9080500Y-7071360D02*
X9080500Y-7152640D01*
X9039860Y-7112000D02*
X9121140Y-7112000D01*
X9334500Y-7071360D02*
X9334500Y-7152640D01*
X9293860Y-7112000D02*
X9375140Y-7112000D01*
X9588500Y-7071360D02*
X9588500Y-7152640D01*
X9547860Y-7112000D02*
X9629140Y-7112000D01*
X9842500Y-7071360D02*
X9842500Y-7152640D01*
X9801860Y-7112000D02*
X9883140Y-7112000D01*
X10096500Y-7071360D02*
X10096500Y-7152640D01*
X10055860Y-7112000D02*
X10137140Y-7112000D01*
X10350500Y-7071360D02*
X10350500Y-7152640D01*
X10309860Y-7112000D02*
X10391140Y-7112000D01*
X10604500Y-7071360D02*
X10604500Y-7152640D01*
X10563860Y-7112000D02*
X10645140Y-7112000D01*
X10858500Y-7071360D02*
X10858500Y-7152640D01*
X10817860Y-7112000D02*
X10899140Y-7112000D01*
X11112500Y-7071360D02*
X11112500Y-7152640D01*
X11071860Y-7112000D02*
X11153140Y-7112000D01*
X11366500Y-7071360D02*
X11366500Y-7152640D01*
X11325860Y-7112000D02*
X11407140Y-7112000D01*
X11620500Y-7071360D02*
X11620500Y-7152640D01*
X11579860Y-7112000D02*
X11661140Y-7112000D01*
X11874500Y-7071360D02*
X11874500Y-7152640D01*
X11833860Y-7112000D02*
X11915140Y-7112000D01*
X12128500Y-7071360D02*
X12128500Y-7152640D01*
X12087860Y-7112000D02*
X12169140Y-7112000D01*
X13843000Y-10119360D02*
X13843000Y-10200640D01*
X13802360Y-10160000D02*
X13883640Y-10160000D01*
X13843000Y-10373360D02*
X13843000Y-10454640D01*
X13802360Y-10414000D02*
X13883640Y-10414000D01*
X13843000Y-10881360D02*
X13843000Y-10962640D01*
X13802360Y-10922000D02*
X13883640Y-10922000D01*
X13843000Y-11135360D02*
X13843000Y-11216640D01*
X13802360Y-11176000D02*
X13883640Y-11176000D01*
X13843000Y-11389360D02*
X13843000Y-11470640D01*
X13802360Y-11430000D02*
X13883640Y-11430000D01*
X14668500Y-7071360D02*
X14668500Y-7152640D01*
X14627860Y-7112000D02*
X14709140Y-7112000D01*
X14922500Y-7071360D02*
X14922500Y-7152640D01*
X14881860Y-7112000D02*
X14963140Y-7112000D01*
X15494000Y-7071360D02*
X15494000Y-7152640D01*
X15453360Y-7112000D02*
X15534640Y-7112000D01*
X15748000Y-7071360D02*
X15748000Y-7152640D01*
X15707360Y-7112000D02*
X15788640Y-7112000D01*
X15875000Y-7706360D02*
X15875000Y-7787640D01*
X15834360Y-7747000D02*
X15915640Y-7747000D01*
X15875000Y-8468360D02*
X15875000Y-8549640D01*
X15834360Y-8509000D02*
X15915640Y-8509000D01*
X15875000Y-9230360D02*
X15875000Y-9311640D01*
X15834360Y-9271000D02*
X15915640Y-9271000D01*
X15875000Y-9992360D02*
X15875000Y-10073640D01*
X15834360Y-10033000D02*
X15915640Y-10033000D01*
X15875000Y-10754360D02*
X15875000Y-10835640D01*
X15834360Y-10795000D02*
X15915640Y-10795000D01*
X16129000Y-7706360D02*
X16129000Y-7787640D01*
X16088360Y-7747000D02*
X16169640Y-7747000D01*
X16129000Y-7960360D02*
X16129000Y-8041640D01*
X16088360Y-8001000D02*
X16169640Y-8001000D01*
X16129000Y-8468360D02*
X16129000Y-8549640D01*
X16088360Y-8509000D02*
X16169640Y-8509000D01*
X16129000Y-8722360D02*
X16129000Y-8803640D01*
X16088360Y-8763000D02*
X16169640Y-8763000D01*
X16129000Y-9230360D02*
X16129000Y-9311640D01*
X16088360Y-9271000D02*
X16169640Y-9271000D01*
X16129000Y-9484360D02*
X16129000Y-9565640D01*
X16088360Y-9525000D02*
X16169640Y-9525000D01*
X16129000Y-9992360D02*
X16129000Y-10073640D01*
X16088360Y-10033000D02*
X16169640Y-10033000D01*
X16129000Y-10246360D02*
X16129000Y-10327640D01*
X16088360Y-10287000D02*
X16169640Y-10287000D01*
X16129000Y-10754360D02*
X16129000Y-10835640D01*
X16088360Y-10795000D02*
X16169640Y-10795000D01*
X16129000Y-11008360D02*
X16129000Y-11089640D01*
X16088360Y-11049000D02*
X16169640Y-11049000D01*
X18542000Y-7071360D02*
X18542000Y-7152640D01*
X18501360Y-7112000D02*
X18582640Y-7112000D01*
X18669000Y-8087360D02*
X18669000Y-8168640D01*
X18628360Y-8128000D02*
X18709640Y-8128000D01*
X18669000Y-8595360D02*
X18669000Y-8676640D01*
X18628360Y-8636000D02*
X18709640Y-8636000D01*
X18669000Y-9611360D02*
X18669000Y-9692640D01*
X18628360Y-9652000D02*
X18709640Y-9652000D01*
X18669000Y-10119360D02*
X18669000Y-10200640D01*
X18628360Y-10160000D02*
X18709640Y-10160000D01*
X18669000Y-11135360D02*
X18669000Y-11216640D01*
X18628360Y-11176000D02*
X18709640Y-11176000D01*
X18669000Y-11643360D02*
X18669000Y-11724640D01*
X18628360Y-11684000D02*
X18709640Y-11684000D01*
X18796000Y-7071360D02*
X18796000Y-7152640D01*
X18755360Y-7112000D02*
X18836640Y-7112000D01*
X19177000Y-7960360D02*
X19177000Y-8041640D01*
X19136360Y-8001000D02*
X19217640Y-8001000D01*
X19177000Y-8722360D02*
X19177000Y-8803640D01*
X19136360Y-8763000D02*
X19217640Y-8763000D01*
X19431000Y-7071360D02*
X19431000Y-7152640D01*
X19390360Y-7112000D02*
X19471640Y-7112000D01*
X19431000Y-7960360D02*
X19431000Y-8041640D01*
X19390360Y-8001000D02*
X19471640Y-8001000D01*
X19431000Y-8722360D02*
X19431000Y-8803640D01*
X19390360Y-8763000D02*
X19471640Y-8763000D01*
X19685000Y-7071360D02*
X19685000Y-7152640D01*
X19644360Y-7112000D02*
X19725640Y-7112000D01*
X19685000Y-7960360D02*
X19685000Y-8041640D01*
X19644360Y-8001000D02*
X19725640Y-8001000D01*
X19685000Y-8722360D02*
X19685000Y-8803640D01*
X19644360Y-8763000D02*
X19725640Y-8763000D01*
X19685000Y-9484360D02*
X19685000Y-9565640D01*
X19644360Y-9525000D02*
X19725640Y-9525000D01*
X19685000Y-10246360D02*
X19685000Y-10327640D01*
X19644360Y-10287000D02*
X19725640Y-10287000D01*
X19939000Y-7071360D02*
X19939000Y-7152640D01*
X19898360Y-7112000D02*
X19979640Y-7112000D01*
X19939000Y-7960360D02*
X19939000Y-8041640D01*
X19898360Y-8001000D02*
X19979640Y-8001000D01*
X19939000Y-8722360D02*
X19939000Y-8803640D01*
X19898360Y-8763000D02*
X19979640Y-8763000D01*
X19939000Y-9484360D02*
X19939000Y-9565640D01*
X19898360Y-9525000D02*
X19979640Y-9525000D01*
X19939000Y-10246360D02*
X19939000Y-10327640D01*
X19898360Y-10287000D02*
X19979640Y-10287000D01*
X19939000Y-11008360D02*
X19939000Y-11089640D01*
X19898360Y-11049000D02*
X19979640Y-11049000D01*
X19939000Y-11770360D02*
X19939000Y-11851640D01*
X19898360Y-11811000D02*
X19979640Y-11811000D01*
X20193000Y-7071360D02*
X20193000Y-7152640D01*
X20152360Y-7112000D02*
X20233640Y-7112000D01*
X20193000Y-7960360D02*
X20193000Y-8041640D01*
X20152360Y-8001000D02*
X20233640Y-8001000D01*
X20193000Y-8722360D02*
X20193000Y-8803640D01*
X20152360Y-8763000D02*
X20233640Y-8763000D01*
X20193000Y-9484360D02*
X20193000Y-9565640D01*
X20152360Y-9525000D02*
X20233640Y-9525000D01*
X20193000Y-10246360D02*
X20193000Y-10327640D01*
X20152360Y-10287000D02*
X20233640Y-10287000D01*
X20193000Y-11008360D02*
X20193000Y-11089640D01*
X20152360Y-11049000D02*
X20233640Y-11049000D01*
X20193000Y-11770360D02*
X20193000Y-11851640D01*
X20152360Y-11811000D02*
X20233640Y-11811000D01*
X20447000Y-7071360D02*
X20447000Y-7152640D01*
X20406360Y-7112000D02*
X20487640Y-7112000D01*
X20447000Y-7960360D02*
X20447000Y-8041640D01*
X20406360Y-8001000D02*
X20487640Y-8001000D01*
X20447000Y-8722360D02*
X20447000Y-8803640D01*
X20406360Y-8763000D02*
X20487640Y-8763000D01*
X20447000Y-9484360D02*
X20447000Y-9565640D01*
X20406360Y-9525000D02*
X20487640Y-9525000D01*
X20447000Y-10246360D02*
X20447000Y-10327640D01*
X20406360Y-10287000D02*
X20487640Y-10287000D01*
X20447000Y-11008360D02*
X20447000Y-11089640D01*
X20406360Y-11049000D02*
X20487640Y-11049000D01*
X20447000Y-11770360D02*
X20447000Y-11851640D01*
X20406360Y-11811000D02*
X20487640Y-11811000D01*
X20701000Y-7071360D02*
X20701000Y-7152640D01*
X20660360Y-7112000D02*
X20741640Y-7112000D01*
X20701000Y-7960360D02*
X20701000Y-8041640D01*
X20660360Y-8001000D02*
X20741640Y-8001000D01*
X20701000Y-8722360D02*
X20701000Y-8803640D01*
X20660360Y-8763000D02*
X20741640Y-8763000D01*
X20701000Y-9484360D02*
X20701000Y-9565640D01*
X20660360Y-9525000D02*
X20741640Y-9525000D01*
X20701000Y-10246360D02*
X20701000Y-10327640D01*
X20660360Y-10287000D02*
X20741640Y-10287000D01*
X20701000Y-11008360D02*
X20701000Y-11089640D01*
X20660360Y-11049000D02*
X20741640Y-11049000D01*
X20701000Y-11770360D02*
X20701000Y-11851640D01*
X20660360Y-11811000D02*
X20741640Y-11811000D01*
X20955000Y-7071360D02*
X20955000Y-7152640D01*
X20914360Y-7112000D02*
X20995640Y-7112000D01*
X20955000Y-7960360D02*
X20955000Y-8041640D01*
X20914360Y-8001000D02*
X20995640Y-8001000D01*
X20955000Y-8722360D02*
X20955000Y-8803640D01*
X20914360Y-8763000D02*
X20995640Y-8763000D01*
X20955000Y-9484360D02*
X20955000Y-9565640D01*
X20914360Y-9525000D02*
X20995640Y-9525000D01*
X20955000Y-10246360D02*
X20955000Y-10327640D01*
X20914360Y-10287000D02*
X20995640Y-10287000D01*
X20955000Y-11008360D02*
X20955000Y-11089640D01*
X20914360Y-11049000D02*
X20995640Y-11049000D01*
X20955000Y-11770360D02*
X20955000Y-11851640D01*
X20914360Y-11811000D02*
X20995640Y-11811000D01*
X21209000Y-7071360D02*
X21209000Y-7152640D01*
X21168360Y-7112000D02*
X21249640Y-7112000D01*
X21209000Y-7960360D02*
X21209000Y-8041640D01*
X21168360Y-8001000D02*
X21249640Y-8001000D01*
X21209000Y-8722360D02*
X21209000Y-8803640D01*
X21168360Y-8763000D02*
X21249640Y-8763000D01*
X21209000Y-9484360D02*
X21209000Y-9565640D01*
X21168360Y-9525000D02*
X21249640Y-9525000D01*
X21209000Y-10246360D02*
X21209000Y-10327640D01*
X21168360Y-10287000D02*
X21249640Y-10287000D01*
X21209000Y-11008360D02*
X21209000Y-11089640D01*
X21168360Y-11049000D02*
X21249640Y-11049000D01*
X21209000Y-11770360D02*
X21209000Y-11851640D01*
X21168360Y-11811000D02*
X21249640Y-11811000D01*
X21463000Y-7960360D02*
X21463000Y-8041640D01*
X21422360Y-8001000D02*
X21503640Y-8001000D01*
X21463000Y-8722360D02*
X21463000Y-8803640D01*
X21422360Y-8763000D02*
X21503640Y-8763000D01*
X21463000Y-9484360D02*
X21463000Y-9565640D01*
X21422360Y-9525000D02*
X21503640Y-9525000D01*
X21463000Y-10246360D02*
X21463000Y-10327640D01*
X21422360Y-10287000D02*
X21503640Y-10287000D01*
X21463000Y-11008360D02*
X21463000Y-11089640D01*
X21422360Y-11049000D02*
X21503640Y-11049000D01*
X21463000Y-11770360D02*
X21463000Y-11851640D01*
X21422360Y-11811000D02*
X21503640Y-11811000D01*
X16418921Y-11542121D02*
X16418921Y-11470279D01*
X16347079Y-11470279D01*
X16347079Y-11542121D01*
X16418921Y-11542121D01*
X16418921Y-12050121D02*
X16418921Y-11978279D01*
X16347079Y-11978279D01*
X16347079Y-12050121D01*
X16418921Y-12050121D01*
X8890000Y-10090150D02*
X8947150Y-10033000D01*
X8890000Y-9975850D01*
X8832850Y-10033000D01*
X8890000Y-10090150D01*
X8890000Y-11614150D02*
X8947150Y-11557000D01*
X8890000Y-11499850D01*
X8832850Y-11557000D01*
X8890000Y-11614150D01*
X8890000Y-11995150D02*
X8947150Y-11938000D01*
X8890000Y-11880850D01*
X8832850Y-11938000D01*
X8890000Y-11995150D01*
X8890000Y-13265150D02*
X8947150Y-13208000D01*
X8890000Y-13150850D01*
X8832850Y-13208000D01*
X8890000Y-13265150D01*
X9271000Y-10090150D02*
X9328150Y-10033000D01*
X9271000Y-9975850D01*
X9213850Y-10033000D01*
X9271000Y-10090150D01*
X9271000Y-11614150D02*
X9328150Y-11557000D01*
X9271000Y-11499850D01*
X9213850Y-11557000D01*
X9271000Y-11614150D01*
X9271000Y-11995150D02*
X9328150Y-11938000D01*
X9271000Y-11880850D01*
X9213850Y-11938000D01*
X9271000Y-11995150D01*
X9271000Y-13265150D02*
X9328150Y-13208000D01*
X9271000Y-13150850D01*
X9213850Y-13208000D01*
X9271000Y-13265150D01*
X9652000Y-10090150D02*
X9709150Y-10033000D01*
X9652000Y-9975850D01*
X9594850Y-10033000D01*
X9652000Y-10090150D01*
X9652000Y-11614150D02*
X9709150Y-11557000D01*
X9652000Y-11499850D01*
X9594850Y-11557000D01*
X9652000Y-11614150D01*
X9652000Y-11995150D02*
X9709150Y-11938000D01*
X9652000Y-11880850D01*
X9594850Y-11938000D01*
X9652000Y-11995150D01*
X9652000Y-13265150D02*
X9709150Y-13208000D01*
X9652000Y-13150850D01*
X9594850Y-13208000D01*
X9652000Y-13265150D01*
X10033000Y-10090150D02*
X10090150Y-10033000D01*
X10033000Y-9975850D01*
X9975850Y-10033000D01*
X10033000Y-10090150D01*
X10033000Y-11614150D02*
X10090150Y-11557000D01*
X10033000Y-11499850D01*
X9975850Y-11557000D01*
X10033000Y-11614150D01*
X10033000Y-11995150D02*
X10090150Y-11938000D01*
X10033000Y-11880850D01*
X9975850Y-11938000D01*
X10033000Y-11995150D01*
X10033000Y-13265150D02*
X10090150Y-13208000D01*
X10033000Y-13150850D01*
X9975850Y-13208000D01*
X10033000Y-13265150D01*
X10414000Y-10090150D02*
X10471150Y-10033000D01*
X10414000Y-9975850D01*
X10356850Y-10033000D01*
X10414000Y-10090150D01*
X10414000Y-11614150D02*
X10471150Y-11557000D01*
X10414000Y-11499850D01*
X10356850Y-11557000D01*
X10414000Y-11614150D01*
X10414000Y-11995150D02*
X10471150Y-11938000D01*
X10414000Y-11880850D01*
X10356850Y-11938000D01*
X10414000Y-11995150D01*
X10414000Y-13265150D02*
X10471150Y-13208000D01*
X10414000Y-13150850D01*
X10356850Y-13208000D01*
X10414000Y-13265150D01*
X10795000Y-10090150D02*
X10852150Y-10033000D01*
X10795000Y-9975850D01*
X10737850Y-10033000D01*
X10795000Y-10090150D01*
X10795000Y-11614150D02*
X10852150Y-11557000D01*
X10795000Y-11499850D01*
X10737850Y-11557000D01*
X10795000Y-11614150D01*
X10795000Y-11995150D02*
X10852150Y-11938000D01*
X10795000Y-11880850D01*
X10737850Y-11938000D01*
X10795000Y-11995150D01*
X10795000Y-13265150D02*
X10852150Y-13208000D01*
X10795000Y-13150850D01*
X10737850Y-13208000D01*
X10795000Y-13265150D01*
X11176000Y-10090150D02*
X11233150Y-10033000D01*
X11176000Y-9975850D01*
X11118850Y-10033000D01*
X11176000Y-10090150D01*
X11176000Y-11614150D02*
X11233150Y-11557000D01*
X11176000Y-11499850D01*
X11118850Y-11557000D01*
X11176000Y-11614150D01*
X11176000Y-11995150D02*
X11233150Y-11938000D01*
X11176000Y-11880850D01*
X11118850Y-11938000D01*
X11176000Y-11995150D01*
X11176000Y-13265150D02*
X11233150Y-13208000D01*
X11176000Y-13150850D01*
X11118850Y-13208000D01*
X11176000Y-13265150D01*
X11557000Y-10090150D02*
X11614150Y-10033000D01*
X11557000Y-9975850D01*
X11499850Y-10033000D01*
X11557000Y-10090150D01*
X11557000Y-11614150D02*
X11614150Y-11557000D01*
X11557000Y-11499850D01*
X11499850Y-11557000D01*
X11557000Y-11614150D01*
X11557000Y-11995150D02*
X11614150Y-11938000D01*
X11557000Y-11880850D01*
X11499850Y-11938000D01*
X11557000Y-11995150D01*
X11557000Y-13265150D02*
X11614150Y-13208000D01*
X11557000Y-13150850D01*
X11499850Y-13208000D01*
X11557000Y-13265150D01*
X11938000Y-10090150D02*
X11995150Y-10033000D01*
X11938000Y-9975850D01*
X11880850Y-10033000D01*
X11938000Y-10090150D01*
X11938000Y-11614150D02*
X11995150Y-11557000D01*
X11938000Y-11499850D01*
X11880850Y-11557000D01*
X11938000Y-11614150D01*
X11938000Y-11995150D02*
X11995150Y-11938000D01*
X11938000Y-11880850D01*
X11880850Y-11938000D01*
X11938000Y-11995150D01*
X11938000Y-13265150D02*
X11995150Y-13208000D01*
X11938000Y-13150850D01*
X11880850Y-13208000D01*
X11938000Y-13265150D01*
X12319000Y-10090150D02*
X12376150Y-10033000D01*
X12319000Y-9975850D01*
X12261850Y-10033000D01*
X12319000Y-10090150D01*
X12319000Y-11614150D02*
X12376150Y-11557000D01*
X12319000Y-11499850D01*
X12261850Y-11557000D01*
X12319000Y-11614150D01*
X12319000Y-11995150D02*
X12376150Y-11938000D01*
X12319000Y-11880850D01*
X12261850Y-11938000D01*
X12319000Y-11995150D01*
X12319000Y-13265150D02*
X12376150Y-13208000D01*
X12319000Y-13150850D01*
X12261850Y-13208000D01*
X12319000Y-13265150D01*
X12700000Y-10090150D02*
X12757150Y-10033000D01*
X12700000Y-9975850D01*
X12642850Y-10033000D01*
X12700000Y-10090150D01*
X12700000Y-11614150D02*
X12757150Y-11557000D01*
X12700000Y-11499850D01*
X12642850Y-11557000D01*
X12700000Y-11614150D01*
X12700000Y-11995150D02*
X12757150Y-11938000D01*
X12700000Y-11880850D01*
X12642850Y-11938000D01*
X12700000Y-11995150D01*
X12700000Y-13265150D02*
X12757150Y-13208000D01*
X12700000Y-13150850D01*
X12642850Y-13208000D01*
X12700000Y-13265150D01*
X13081000Y-10090150D02*
X13138150Y-10033000D01*
X13081000Y-9975850D01*
X13023850Y-10033000D01*
X13081000Y-10090150D01*
X13081000Y-11614150D02*
X13138150Y-11557000D01*
X13081000Y-11499850D01*
X13023850Y-11557000D01*
X13081000Y-11614150D01*
X13081000Y-11995150D02*
X13138150Y-11938000D01*
X13081000Y-11880850D01*
X13023850Y-11938000D01*
X13081000Y-11995150D01*
X13081000Y-13265150D02*
X13138150Y-13208000D01*
X13081000Y-13150850D01*
X13023850Y-13208000D01*
X13081000Y-13265150D01*
X13462000Y-11995150D02*
X13519150Y-11938000D01*
X13462000Y-11880850D01*
X13404850Y-11938000D01*
X13462000Y-11995150D01*
X13462000Y-13265150D02*
X13519150Y-13208000D01*
X13462000Y-13150850D01*
X13404850Y-13208000D01*
X13462000Y-13265150D01*
X13843000Y-7677150D02*
X13900150Y-7620000D01*
X13843000Y-7562850D01*
X13785850Y-7620000D01*
X13843000Y-7677150D01*
X13843000Y-8185150D02*
X13900150Y-8128000D01*
X13843000Y-8070850D01*
X13785850Y-8128000D01*
X13843000Y-8185150D01*
X13843000Y-8693150D02*
X13900150Y-8636000D01*
X13843000Y-8578850D01*
X13785850Y-8636000D01*
X13843000Y-8693150D01*
X13843000Y-9201150D02*
X13900150Y-9144000D01*
X13843000Y-9086850D01*
X13785850Y-9144000D01*
X13843000Y-9201150D01*
X13843000Y-11995150D02*
X13900150Y-11938000D01*
X13843000Y-11880850D01*
X13785850Y-11938000D01*
X13843000Y-11995150D01*
X13843000Y-13265150D02*
X13900150Y-13208000D01*
X13843000Y-13150850D01*
X13785850Y-13208000D01*
X13843000Y-13265150D01*
X13970000Y-9709150D02*
X14027150Y-9652000D01*
X13970000Y-9594850D01*
X13912850Y-9652000D01*
X13970000Y-9709150D01*
X15240000Y-9709150D02*
X15297150Y-9652000D01*
X15240000Y-9594850D01*
X15182850Y-9652000D01*
X15240000Y-9709150D01*
X15367000Y-7677150D02*
X15424150Y-7620000D01*
X15367000Y-7562850D01*
X15309850Y-7620000D01*
X15367000Y-7677150D01*
X15367000Y-8185150D02*
X15424150Y-8128000D01*
X15367000Y-8070850D01*
X15309850Y-8128000D01*
X15367000Y-8185150D01*
X15367000Y-8693150D02*
X15424150Y-8636000D01*
X15367000Y-8578850D01*
X15309850Y-8636000D01*
X15367000Y-8693150D01*
X15367000Y-9201150D02*
X15424150Y-9144000D01*
X15367000Y-9086850D01*
X15309850Y-9144000D01*
X15367000Y-9201150D01*
X16637000Y-7677150D02*
X16694150Y-7620000D01*
X16637000Y-7562850D01*
X16579850Y-7620000D01*
X16637000Y-7677150D01*
X16637000Y-8312150D02*
X16694150Y-8255000D01*
X16637000Y-8197850D01*
X16579850Y-8255000D01*
X16637000Y-8312150D01*
X16637000Y-8947150D02*
X16694150Y-8890000D01*
X16637000Y-8832850D01*
X16579850Y-8890000D01*
X16637000Y-8947150D01*
X16637000Y-10471150D02*
X16694150Y-10414000D01*
X16637000Y-10356850D01*
X16579850Y-10414000D01*
X16637000Y-10471150D01*
X16637000Y-11106150D02*
X16694150Y-11049000D01*
X16637000Y-10991850D01*
X16579850Y-11049000D01*
X16637000Y-11106150D01*
X18161000Y-7677150D02*
X18218150Y-7620000D01*
X18161000Y-7562850D01*
X18103850Y-7620000D01*
X18161000Y-7677150D01*
X18161000Y-8312150D02*
X18218150Y-8255000D01*
X18161000Y-8197850D01*
X18103850Y-8255000D01*
X18161000Y-8312150D01*
X18161000Y-8947150D02*
X18218150Y-8890000D01*
X18161000Y-8832850D01*
X18103850Y-8890000D01*
X18161000Y-8947150D01*
X18161000Y-10471150D02*
X18218150Y-10414000D01*
X18161000Y-10356850D01*
X18103850Y-10414000D01*
X18161000Y-10471150D01*
X18161000Y-11106150D02*
X18218150Y-11049000D01*
X18161000Y-10991850D01*
X18103850Y-11049000D01*
X18161000Y-11106150D01*
D13*
X8507379Y-14454764D02*
X8507379Y-14154764D01*
X8578807Y-14154764D01*
X8621664Y-14169050D01*
X8650236Y-14197621D01*
X8664521Y-14226193D01*
X8678807Y-14283336D01*
X8678807Y-14326193D01*
X8664521Y-14383336D01*
X8650236Y-14411907D01*
X8621664Y-14440479D01*
X8578807Y-14454764D01*
X8507379Y-14454764D01*
X8807379Y-14454764D02*
X8807379Y-14254764D01*
X8807379Y-14311907D02*
X8821664Y-14283336D01*
X8835950Y-14269050D01*
X8864521Y-14254764D01*
X8893093Y-14254764D01*
X8993093Y-14454764D02*
X8993093Y-14254764D01*
X8993093Y-14154764D02*
X8978807Y-14169050D01*
X8993093Y-14183336D01*
X9007379Y-14169050D01*
X8993093Y-14154764D01*
X8993093Y-14183336D01*
X9178807Y-14454764D02*
X9150236Y-14440479D01*
X9135950Y-14411907D01*
X9135950Y-14154764D01*
X9335950Y-14454764D02*
X9307379Y-14440479D01*
X9293093Y-14411907D01*
X9293093Y-14154764D01*
X9678807Y-14454764D02*
X9678807Y-14154764D01*
X9778807Y-14369050D01*
X9878807Y-14154764D01*
X9878807Y-14454764D01*
X10150236Y-14454764D02*
X10150236Y-14297621D01*
X10135950Y-14269050D01*
X10107379Y-14254764D01*
X10050236Y-14254764D01*
X10021664Y-14269050D01*
X10150236Y-14440479D02*
X10121664Y-14454764D01*
X10050236Y-14454764D01*
X10021664Y-14440479D01*
X10007379Y-14411907D01*
X10007379Y-14383336D01*
X10021664Y-14354764D01*
X10050236Y-14340479D01*
X10121664Y-14340479D01*
X10150236Y-14326193D01*
X10293093Y-14254764D02*
X10293093Y-14554764D01*
X10293093Y-14269050D02*
X10321664Y-14254764D01*
X10378807Y-14254764D01*
X10407379Y-14269050D01*
X10421664Y-14283336D01*
X10435950Y-14311907D01*
X10435950Y-14397621D01*
X10421664Y-14426193D01*
X10407379Y-14440479D01*
X10378807Y-14454764D01*
X10321664Y-14454764D01*
X10293093Y-14440479D01*
X10564521Y-14426193D02*
X10578807Y-14440479D01*
X10564521Y-14454764D01*
X10550236Y-14440479D01*
X10564521Y-14426193D01*
X10564521Y-14454764D01*
X10564521Y-14269050D02*
X10578807Y-14283336D01*
X10564521Y-14297621D01*
X10550236Y-14283336D01*
X10564521Y-14269050D01*
X10564521Y-14297621D01*
X8172450Y-14917300D02*
X8235950Y-14980800D01*
X8235950Y-14917300D02*
X8172450Y-14980800D01*
X8564521Y-14784764D02*
X8593093Y-14784764D01*
X8621664Y-14799050D01*
X8635950Y-14813336D01*
X8650236Y-14841907D01*
X8664521Y-14899050D01*
X8664521Y-14970479D01*
X8650236Y-15027621D01*
X8635950Y-15056193D01*
X8621664Y-15070479D01*
X8593093Y-15084764D01*
X8564521Y-15084764D01*
X8535950Y-15070479D01*
X8521664Y-15056193D01*
X8507379Y-15027621D01*
X8493093Y-14970479D01*
X8493093Y-14899050D01*
X8507379Y-14841907D01*
X8521664Y-14813336D01*
X8535950Y-14799050D01*
X8564521Y-14784764D01*
X8793093Y-15056193D02*
X8807379Y-15070479D01*
X8793093Y-15084764D01*
X8778807Y-15070479D01*
X8793093Y-15056193D01*
X8793093Y-15084764D01*
X9064521Y-14784764D02*
X9007378Y-14784764D01*
X8978807Y-14799050D01*
X8964521Y-14813336D01*
X8935950Y-14856193D01*
X8921664Y-14913336D01*
X8921664Y-15027621D01*
X8935950Y-15056193D01*
X8950236Y-15070479D01*
X8978807Y-15084764D01*
X9035950Y-15084764D01*
X9064521Y-15070479D01*
X9078807Y-15056193D01*
X9093093Y-15027621D01*
X9093093Y-14956193D01*
X9078807Y-14927621D01*
X9064521Y-14913336D01*
X9035950Y-14899050D01*
X8978807Y-14899050D01*
X8950236Y-14913336D01*
X8935950Y-14927621D01*
X8921664Y-14956193D01*
X9350236Y-14884764D02*
X9350236Y-15084764D01*
X9278807Y-14770479D02*
X9207379Y-14984764D01*
X9393093Y-14984764D01*
X9507379Y-15084764D02*
X9507379Y-14884764D01*
X9507379Y-14913336D02*
X9521664Y-14899050D01*
X9550236Y-14884764D01*
X9593093Y-14884764D01*
X9621664Y-14899050D01*
X9635950Y-14927621D01*
X9635950Y-15084764D01*
X9635950Y-14927621D02*
X9650236Y-14899050D01*
X9678807Y-14884764D01*
X9721664Y-14884764D01*
X9750236Y-14899050D01*
X9764521Y-14927621D01*
X9764521Y-15084764D01*
X9907379Y-15084764D02*
X9907379Y-14884764D01*
X9907379Y-14913336D02*
X9921664Y-14899050D01*
X9950236Y-14884764D01*
X9993093Y-14884764D01*
X10021664Y-14899050D01*
X10035950Y-14927621D01*
X10035950Y-15084764D01*
X10035950Y-14927621D02*
X10050236Y-14899050D01*
X10078807Y-14884764D01*
X10121664Y-14884764D01*
X10150236Y-14899050D01*
X10164521Y-14927621D01*
X10164521Y-15084764D01*
X10750236Y-14770479D02*
X10493093Y-15156193D01*
X11135950Y-14784764D02*
X11164521Y-14784764D01*
X11193093Y-14799050D01*
X11207378Y-14813336D01*
X11221664Y-14841907D01*
X11235950Y-14899050D01*
X11235950Y-14970479D01*
X11221664Y-15027621D01*
X11207378Y-15056193D01*
X11193093Y-15070479D01*
X11164521Y-15084764D01*
X11135950Y-15084764D01*
X11107378Y-15070479D01*
X11093093Y-15056193D01*
X11078807Y-15027621D01*
X11064521Y-14970479D01*
X11064521Y-14899050D01*
X11078807Y-14841907D01*
X11093093Y-14813336D01*
X11107378Y-14799050D01*
X11135950Y-14784764D01*
X11364521Y-15056193D02*
X11378807Y-15070479D01*
X11364521Y-15084764D01*
X11350236Y-15070479D01*
X11364521Y-15056193D01*
X11364521Y-15084764D01*
X11564521Y-14784764D02*
X11593093Y-14784764D01*
X11621664Y-14799050D01*
X11635950Y-14813336D01*
X11650235Y-14841907D01*
X11664521Y-14899050D01*
X11664521Y-14970479D01*
X11650235Y-15027621D01*
X11635950Y-15056193D01*
X11621664Y-15070479D01*
X11593093Y-15084764D01*
X11564521Y-15084764D01*
X11535950Y-15070479D01*
X11521664Y-15056193D01*
X11507378Y-15027621D01*
X11493093Y-14970479D01*
X11493093Y-14899050D01*
X11507378Y-14841907D01*
X11521664Y-14813336D01*
X11535950Y-14799050D01*
X11564521Y-14784764D01*
X11778807Y-14813336D02*
X11793093Y-14799050D01*
X11821664Y-14784764D01*
X11893093Y-14784764D01*
X11921664Y-14799050D01*
X11935950Y-14813336D01*
X11950235Y-14841907D01*
X11950235Y-14870479D01*
X11935950Y-14913336D01*
X11764521Y-15084764D01*
X11950235Y-15084764D01*
X12221664Y-14784764D02*
X12078807Y-14784764D01*
X12064521Y-14927621D01*
X12078807Y-14913336D01*
X12107378Y-14899050D01*
X12178807Y-14899050D01*
X12207378Y-14913336D01*
X12221664Y-14927621D01*
X12235950Y-14956193D01*
X12235950Y-15027621D01*
X12221664Y-15056193D01*
X12207378Y-15070479D01*
X12178807Y-15084764D01*
X12107378Y-15084764D01*
X12078807Y-15070479D01*
X12064521Y-15056193D01*
X12350236Y-14784764D02*
X12350236Y-14841907D01*
X12464521Y-14784764D02*
X12464521Y-14841907D01*
X12907378Y-15199050D02*
X12893093Y-15184764D01*
X12864521Y-15141907D01*
X12850235Y-15113336D01*
X12835950Y-15070479D01*
X12821664Y-14999050D01*
X12821664Y-14941907D01*
X12835950Y-14870479D01*
X12850235Y-14827621D01*
X12864521Y-14799050D01*
X12893093Y-14756193D01*
X12907378Y-14741907D01*
X13178807Y-15084764D02*
X13007378Y-15084764D01*
X13093093Y-15084764D02*
X13093093Y-14784764D01*
X13064521Y-14827621D01*
X13035950Y-14856193D01*
X13007378Y-14870479D01*
X13435950Y-14884764D02*
X13435950Y-15084764D01*
X13364521Y-14770479D02*
X13293093Y-14984764D01*
X13478807Y-14984764D01*
X13821664Y-15084764D02*
X13821664Y-14784764D01*
X13950235Y-15084764D02*
X13950235Y-14927621D01*
X13935950Y-14899050D01*
X13907378Y-14884764D01*
X13864521Y-14884764D01*
X13835950Y-14899050D01*
X13821664Y-14913336D01*
X14135950Y-15084764D02*
X14107378Y-15070479D01*
X14093093Y-15056193D01*
X14078807Y-15027621D01*
X14078807Y-14941907D01*
X14093093Y-14913336D01*
X14107378Y-14899050D01*
X14135950Y-14884764D01*
X14178807Y-14884764D01*
X14207378Y-14899050D01*
X14221664Y-14913336D01*
X14235950Y-14941907D01*
X14235950Y-15027621D01*
X14221664Y-15056193D01*
X14207378Y-15070479D01*
X14178807Y-15084764D01*
X14135950Y-15084764D01*
X14407378Y-15084764D02*
X14378807Y-15070479D01*
X14364521Y-15041907D01*
X14364521Y-14784764D01*
X14635950Y-15070479D02*
X14607378Y-15084764D01*
X14550236Y-15084764D01*
X14521664Y-15070479D01*
X14507378Y-15041907D01*
X14507378Y-14927621D01*
X14521664Y-14899050D01*
X14550236Y-14884764D01*
X14607378Y-14884764D01*
X14635950Y-14899050D01*
X14650236Y-14927621D01*
X14650236Y-14956193D01*
X14507378Y-14984764D01*
X14764521Y-15070479D02*
X14793093Y-15084764D01*
X14850236Y-15084764D01*
X14878807Y-15070479D01*
X14893093Y-15041907D01*
X14893093Y-15027621D01*
X14878807Y-14999050D01*
X14850236Y-14984764D01*
X14807378Y-14984764D01*
X14778807Y-14970479D01*
X14764521Y-14941907D01*
X14764521Y-14927621D01*
X14778807Y-14899050D01*
X14807378Y-14884764D01*
X14850236Y-14884764D01*
X14878807Y-14899050D01*
X14993093Y-15199050D02*
X15007378Y-15184764D01*
X15035950Y-15141907D01*
X15050236Y-15113336D01*
X15064521Y-15070479D01*
X15078807Y-14999050D01*
X15078807Y-14941907D01*
X15064521Y-14870479D01*
X15050236Y-14827621D01*
X15035950Y-14799050D01*
X15007378Y-14756193D01*
X14993093Y-14741907D01*
X8235950Y-15345050D02*
G75*
G03X8235950Y-15345050I-39370J0D01*
G01*
X8564521Y-15180764D02*
X8593093Y-15180764D01*
X8621664Y-15195050D01*
X8635950Y-15209336D01*
X8650236Y-15237907D01*
X8664521Y-15295050D01*
X8664521Y-15366479D01*
X8650236Y-15423621D01*
X8635950Y-15452193D01*
X8621664Y-15466479D01*
X8593093Y-15480764D01*
X8564521Y-15480764D01*
X8535950Y-15466479D01*
X8521664Y-15452193D01*
X8507379Y-15423621D01*
X8493093Y-15366479D01*
X8493093Y-15295050D01*
X8507379Y-15237907D01*
X8521664Y-15209336D01*
X8535950Y-15195050D01*
X8564521Y-15180764D01*
X8793093Y-15452193D02*
X8807379Y-15466479D01*
X8793093Y-15480764D01*
X8778807Y-15466479D01*
X8793093Y-15452193D01*
X8793093Y-15480764D01*
X8907378Y-15180764D02*
X9107378Y-15180764D01*
X8978807Y-15480764D01*
X9235950Y-15480764D02*
X9293093Y-15480764D01*
X9321664Y-15466479D01*
X9335950Y-15452193D01*
X9364521Y-15409336D01*
X9378807Y-15352193D01*
X9378807Y-15237907D01*
X9364521Y-15209336D01*
X9350236Y-15195050D01*
X9321664Y-15180764D01*
X9264521Y-15180764D01*
X9235950Y-15195050D01*
X9221664Y-15209336D01*
X9207379Y-15237907D01*
X9207379Y-15309336D01*
X9221664Y-15337907D01*
X9235950Y-15352193D01*
X9264521Y-15366479D01*
X9321664Y-15366479D01*
X9350236Y-15352193D01*
X9364521Y-15337907D01*
X9378807Y-15309336D01*
X9507379Y-15480764D02*
X9507379Y-15280764D01*
X9507379Y-15309336D02*
X9521664Y-15295050D01*
X9550236Y-15280764D01*
X9593093Y-15280764D01*
X9621664Y-15295050D01*
X9635950Y-15323621D01*
X9635950Y-15480764D01*
X9635950Y-15323621D02*
X9650236Y-15295050D01*
X9678807Y-15280764D01*
X9721664Y-15280764D01*
X9750236Y-15295050D01*
X9764521Y-15323621D01*
X9764521Y-15480764D01*
X9907379Y-15480764D02*
X9907379Y-15280764D01*
X9907379Y-15309336D02*
X9921664Y-15295050D01*
X9950236Y-15280764D01*
X9993093Y-15280764D01*
X10021664Y-15295050D01*
X10035950Y-15323621D01*
X10035950Y-15480764D01*
X10035950Y-15323621D02*
X10050236Y-15295050D01*
X10078807Y-15280764D01*
X10121664Y-15280764D01*
X10150236Y-15295050D01*
X10164521Y-15323621D01*
X10164521Y-15480764D01*
X10750236Y-15166479D02*
X10493093Y-15552193D01*
X11135950Y-15180764D02*
X11164521Y-15180764D01*
X11193093Y-15195050D01*
X11207378Y-15209336D01*
X11221664Y-15237907D01*
X11235950Y-15295050D01*
X11235950Y-15366479D01*
X11221664Y-15423621D01*
X11207378Y-15452193D01*
X11193093Y-15466479D01*
X11164521Y-15480764D01*
X11135950Y-15480764D01*
X11107378Y-15466479D01*
X11093093Y-15452193D01*
X11078807Y-15423621D01*
X11064521Y-15366479D01*
X11064521Y-15295050D01*
X11078807Y-15237907D01*
X11093093Y-15209336D01*
X11107378Y-15195050D01*
X11135950Y-15180764D01*
X11364521Y-15452193D02*
X11378807Y-15466479D01*
X11364521Y-15480764D01*
X11350236Y-15466479D01*
X11364521Y-15452193D01*
X11364521Y-15480764D01*
X11564521Y-15180764D02*
X11593093Y-15180764D01*
X11621664Y-15195050D01*
X11635950Y-15209336D01*
X11650235Y-15237907D01*
X11664521Y-15295050D01*
X11664521Y-15366479D01*
X11650235Y-15423621D01*
X11635950Y-15452193D01*
X11621664Y-15466479D01*
X11593093Y-15480764D01*
X11564521Y-15480764D01*
X11535950Y-15466479D01*
X11521664Y-15452193D01*
X11507378Y-15423621D01*
X11493093Y-15366479D01*
X11493093Y-15295050D01*
X11507378Y-15237907D01*
X11521664Y-15209336D01*
X11535950Y-15195050D01*
X11564521Y-15180764D01*
X11764521Y-15180764D02*
X11950235Y-15180764D01*
X11850235Y-15295050D01*
X11893093Y-15295050D01*
X11921664Y-15309336D01*
X11935950Y-15323621D01*
X11950235Y-15352193D01*
X11950235Y-15423621D01*
X11935950Y-15452193D01*
X11921664Y-15466479D01*
X11893093Y-15480764D01*
X11807378Y-15480764D01*
X11778807Y-15466479D01*
X11764521Y-15452193D01*
X12235950Y-15480764D02*
X12064521Y-15480764D01*
X12150235Y-15480764D02*
X12150235Y-15180764D01*
X12121664Y-15223621D01*
X12093093Y-15252193D01*
X12064521Y-15266479D01*
X12350236Y-15180764D02*
X12350236Y-15237907D01*
X12464521Y-15180764D02*
X12464521Y-15237907D01*
X12907378Y-15595050D02*
X12893093Y-15580764D01*
X12864521Y-15537907D01*
X12850235Y-15509336D01*
X12835950Y-15466479D01*
X12821664Y-15395050D01*
X12821664Y-15337907D01*
X12835950Y-15266479D01*
X12850235Y-15223621D01*
X12864521Y-15195050D01*
X12893093Y-15152193D01*
X12907378Y-15137907D01*
X13150235Y-15280764D02*
X13150235Y-15480764D01*
X13078807Y-15166479D02*
X13007378Y-15380764D01*
X13193093Y-15380764D01*
X13450235Y-15180764D02*
X13307378Y-15180764D01*
X13293093Y-15323621D01*
X13307378Y-15309336D01*
X13335950Y-15295050D01*
X13407378Y-15295050D01*
X13435950Y-15309336D01*
X13450235Y-15323621D01*
X13464521Y-15352193D01*
X13464521Y-15423621D01*
X13450235Y-15452193D01*
X13435950Y-15466479D01*
X13407378Y-15480764D01*
X13335950Y-15480764D01*
X13307378Y-15466479D01*
X13293093Y-15452193D01*
X13821664Y-15480764D02*
X13821664Y-15180764D01*
X13950235Y-15480764D02*
X13950235Y-15323621D01*
X13935950Y-15295050D01*
X13907378Y-15280764D01*
X13864521Y-15280764D01*
X13835950Y-15295050D01*
X13821664Y-15309336D01*
X14135950Y-15480764D02*
X14107378Y-15466479D01*
X14093093Y-15452193D01*
X14078807Y-15423621D01*
X14078807Y-15337907D01*
X14093093Y-15309336D01*
X14107378Y-15295050D01*
X14135950Y-15280764D01*
X14178807Y-15280764D01*
X14207378Y-15295050D01*
X14221664Y-15309336D01*
X14235950Y-15337907D01*
X14235950Y-15423621D01*
X14221664Y-15452193D01*
X14207378Y-15466479D01*
X14178807Y-15480764D01*
X14135950Y-15480764D01*
X14407378Y-15480764D02*
X14378807Y-15466479D01*
X14364521Y-15437907D01*
X14364521Y-15180764D01*
X14635950Y-15466479D02*
X14607378Y-15480764D01*
X14550236Y-15480764D01*
X14521664Y-15466479D01*
X14507378Y-15437907D01*
X14507378Y-15323621D01*
X14521664Y-15295050D01*
X14550236Y-15280764D01*
X14607378Y-15280764D01*
X14635950Y-15295050D01*
X14650236Y-15323621D01*
X14650236Y-15352193D01*
X14507378Y-15380764D01*
X14764521Y-15466479D02*
X14793093Y-15480764D01*
X14850236Y-15480764D01*
X14878807Y-15466479D01*
X14893093Y-15437907D01*
X14893093Y-15423621D01*
X14878807Y-15395050D01*
X14850236Y-15380764D01*
X14807378Y-15380764D01*
X14778807Y-15366479D01*
X14764521Y-15337907D01*
X14764521Y-15323621D01*
X14778807Y-15295050D01*
X14807378Y-15280764D01*
X14850236Y-15280764D01*
X14878807Y-15295050D01*
X14993093Y-15595050D02*
X15007378Y-15580764D01*
X15035950Y-15537907D01*
X15050236Y-15509336D01*
X15064521Y-15466479D01*
X15078807Y-15395050D01*
X15078807Y-15337907D01*
X15064521Y-15266479D01*
X15050236Y-15223621D01*
X15035950Y-15195050D01*
X15007378Y-15152193D01*
X14993093Y-15137907D01*
X8195310Y-15700410D02*
X8195310Y-15781690D01*
X8154670Y-15741050D02*
X8235950Y-15741050D01*
X8564521Y-15576764D02*
X8593093Y-15576764D01*
X8621664Y-15591050D01*
X8635950Y-15605336D01*
X8650236Y-15633907D01*
X8664521Y-15691050D01*
X8664521Y-15762479D01*
X8650236Y-15819621D01*
X8635950Y-15848193D01*
X8621664Y-15862479D01*
X8593093Y-15876764D01*
X8564521Y-15876764D01*
X8535950Y-15862479D01*
X8521664Y-15848193D01*
X8507379Y-15819621D01*
X8493093Y-15762479D01*
X8493093Y-15691050D01*
X8507379Y-15633907D01*
X8521664Y-15605336D01*
X8535950Y-15591050D01*
X8564521Y-15576764D01*
X8793093Y-15848193D02*
X8807379Y-15862479D01*
X8793093Y-15876764D01*
X8778807Y-15862479D01*
X8793093Y-15848193D01*
X8793093Y-15876764D01*
X8978807Y-15705336D02*
X8950236Y-15691050D01*
X8935950Y-15676764D01*
X8921664Y-15648193D01*
X8921664Y-15633907D01*
X8935950Y-15605336D01*
X8950236Y-15591050D01*
X8978807Y-15576764D01*
X9035950Y-15576764D01*
X9064521Y-15591050D01*
X9078807Y-15605336D01*
X9093093Y-15633907D01*
X9093093Y-15648193D01*
X9078807Y-15676764D01*
X9064521Y-15691050D01*
X9035950Y-15705336D01*
X8978807Y-15705336D01*
X8950236Y-15719621D01*
X8935950Y-15733907D01*
X8921664Y-15762479D01*
X8921664Y-15819621D01*
X8935950Y-15848193D01*
X8950236Y-15862479D01*
X8978807Y-15876764D01*
X9035950Y-15876764D01*
X9064521Y-15862479D01*
X9078807Y-15848193D01*
X9093093Y-15819621D01*
X9093093Y-15762479D01*
X9078807Y-15733907D01*
X9064521Y-15719621D01*
X9035950Y-15705336D01*
X9378807Y-15876764D02*
X9207379Y-15876764D01*
X9293093Y-15876764D02*
X9293093Y-15576764D01*
X9264521Y-15619621D01*
X9235950Y-15648193D01*
X9207379Y-15662479D01*
X9507379Y-15876764D02*
X9507379Y-15676764D01*
X9507379Y-15705336D02*
X9521664Y-15691050D01*
X9550236Y-15676764D01*
X9593093Y-15676764D01*
X9621664Y-15691050D01*
X9635950Y-15719621D01*
X9635950Y-15876764D01*
X9635950Y-15719621D02*
X9650236Y-15691050D01*
X9678807Y-15676764D01*
X9721664Y-15676764D01*
X9750236Y-15691050D01*
X9764521Y-15719621D01*
X9764521Y-15876764D01*
X9907379Y-15876764D02*
X9907379Y-15676764D01*
X9907379Y-15705336D02*
X9921664Y-15691050D01*
X9950236Y-15676764D01*
X9993093Y-15676764D01*
X10021664Y-15691050D01*
X10035950Y-15719621D01*
X10035950Y-15876764D01*
X10035950Y-15719621D02*
X10050236Y-15691050D01*
X10078807Y-15676764D01*
X10121664Y-15676764D01*
X10150236Y-15691050D01*
X10164521Y-15719621D01*
X10164521Y-15876764D01*
X10750236Y-15562479D02*
X10493093Y-15948193D01*
X11135950Y-15576764D02*
X11164521Y-15576764D01*
X11193093Y-15591050D01*
X11207378Y-15605336D01*
X11221664Y-15633907D01*
X11235950Y-15691050D01*
X11235950Y-15762479D01*
X11221664Y-15819621D01*
X11207378Y-15848193D01*
X11193093Y-15862479D01*
X11164521Y-15876764D01*
X11135950Y-15876764D01*
X11107378Y-15862479D01*
X11093093Y-15848193D01*
X11078807Y-15819621D01*
X11064521Y-15762479D01*
X11064521Y-15691050D01*
X11078807Y-15633907D01*
X11093093Y-15605336D01*
X11107378Y-15591050D01*
X11135950Y-15576764D01*
X11364521Y-15848193D02*
X11378807Y-15862479D01*
X11364521Y-15876764D01*
X11350236Y-15862479D01*
X11364521Y-15848193D01*
X11364521Y-15876764D01*
X11564521Y-15576764D02*
X11593093Y-15576764D01*
X11621664Y-15591050D01*
X11635950Y-15605336D01*
X11650235Y-15633907D01*
X11664521Y-15691050D01*
X11664521Y-15762479D01*
X11650235Y-15819621D01*
X11635950Y-15848193D01*
X11621664Y-15862479D01*
X11593093Y-15876764D01*
X11564521Y-15876764D01*
X11535950Y-15862479D01*
X11521664Y-15848193D01*
X11507378Y-15819621D01*
X11493093Y-15762479D01*
X11493093Y-15691050D01*
X11507378Y-15633907D01*
X11521664Y-15605336D01*
X11535950Y-15591050D01*
X11564521Y-15576764D01*
X11764521Y-15576764D02*
X11950235Y-15576764D01*
X11850235Y-15691050D01*
X11893093Y-15691050D01*
X11921664Y-15705336D01*
X11935950Y-15719621D01*
X11950235Y-15748193D01*
X11950235Y-15819621D01*
X11935950Y-15848193D01*
X11921664Y-15862479D01*
X11893093Y-15876764D01*
X11807378Y-15876764D01*
X11778807Y-15862479D01*
X11764521Y-15848193D01*
X12064521Y-15605336D02*
X12078807Y-15591050D01*
X12107378Y-15576764D01*
X12178807Y-15576764D01*
X12207378Y-15591050D01*
X12221664Y-15605336D01*
X12235950Y-15633907D01*
X12235950Y-15662479D01*
X12221664Y-15705336D01*
X12050235Y-15876764D01*
X12235950Y-15876764D01*
X12350236Y-15576764D02*
X12350236Y-15633907D01*
X12464521Y-15576764D02*
X12464521Y-15633907D01*
X12907378Y-15991050D02*
X12893093Y-15976764D01*
X12864521Y-15933907D01*
X12850235Y-15905336D01*
X12835950Y-15862479D01*
X12821664Y-15791050D01*
X12821664Y-15733907D01*
X12835950Y-15662479D01*
X12850235Y-15619621D01*
X12864521Y-15591050D01*
X12893093Y-15548193D01*
X12907378Y-15533907D01*
X13178807Y-15876764D02*
X13007378Y-15876764D01*
X13093093Y-15876764D02*
X13093093Y-15576764D01*
X13064521Y-15619621D01*
X13035950Y-15648193D01*
X13007378Y-15662479D01*
X13364521Y-15576764D02*
X13393093Y-15576764D01*
X13421664Y-15591050D01*
X13435950Y-15605336D01*
X13450235Y-15633907D01*
X13464521Y-15691050D01*
X13464521Y-15762479D01*
X13450235Y-15819621D01*
X13435950Y-15848193D01*
X13421664Y-15862479D01*
X13393093Y-15876764D01*
X13364521Y-15876764D01*
X13335950Y-15862479D01*
X13321664Y-15848193D01*
X13307378Y-15819621D01*
X13293093Y-15762479D01*
X13293093Y-15691050D01*
X13307378Y-15633907D01*
X13321664Y-15605336D01*
X13335950Y-15591050D01*
X13364521Y-15576764D01*
X13721664Y-15676764D02*
X13721664Y-15876764D01*
X13650235Y-15562479D02*
X13578807Y-15776764D01*
X13764521Y-15776764D01*
X14107378Y-15876764D02*
X14107378Y-15576764D01*
X14235950Y-15876764D02*
X14235950Y-15719621D01*
X14221664Y-15691050D01*
X14193093Y-15676764D01*
X14150235Y-15676764D01*
X14121664Y-15691050D01*
X14107378Y-15705336D01*
X14421664Y-15876764D02*
X14393093Y-15862479D01*
X14378807Y-15848193D01*
X14364521Y-15819621D01*
X14364521Y-15733907D01*
X14378807Y-15705336D01*
X14393093Y-15691050D01*
X14421664Y-15676764D01*
X14464521Y-15676764D01*
X14493093Y-15691050D01*
X14507378Y-15705336D01*
X14521664Y-15733907D01*
X14521664Y-15819621D01*
X14507378Y-15848193D01*
X14493093Y-15862479D01*
X14464521Y-15876764D01*
X14421664Y-15876764D01*
X14693093Y-15876764D02*
X14664521Y-15862479D01*
X14650236Y-15833907D01*
X14650236Y-15576764D01*
X14921664Y-15862479D02*
X14893093Y-15876764D01*
X14835950Y-15876764D01*
X14807378Y-15862479D01*
X14793093Y-15833907D01*
X14793093Y-15719621D01*
X14807378Y-15691050D01*
X14835950Y-15676764D01*
X14893093Y-15676764D01*
X14921664Y-15691050D01*
X14935950Y-15719621D01*
X14935950Y-15748193D01*
X14793093Y-15776764D01*
X15050236Y-15862479D02*
X15078807Y-15876764D01*
X15135950Y-15876764D01*
X15164521Y-15862479D01*
X15178807Y-15833907D01*
X15178807Y-15819621D01*
X15164521Y-15791050D01*
X15135950Y-15776764D01*
X15093093Y-15776764D01*
X15064521Y-15762479D01*
X15050236Y-15733907D01*
X15050236Y-15719621D01*
X15064521Y-15691050D01*
X15093093Y-15676764D01*
X15135950Y-15676764D01*
X15164521Y-15691050D01*
X15278807Y-15991050D02*
X15293093Y-15976764D01*
X15321664Y-15933907D01*
X15335950Y-15905336D01*
X15350236Y-15862479D01*
X15364521Y-15791050D01*
X15364521Y-15733907D01*
X15350236Y-15662479D01*
X15335950Y-15619621D01*
X15321664Y-15591050D01*
X15293093Y-15548193D01*
X15278807Y-15533907D01*
X8221071Y-16172971D02*
X8221071Y-16101129D01*
X8149228Y-16101129D01*
X8149228Y-16172971D01*
X8221071Y-16172971D01*
X8664521Y-16272764D02*
X8493093Y-16272764D01*
X8578807Y-16272764D02*
X8578807Y-15972764D01*
X8550236Y-16015621D01*
X8521664Y-16044193D01*
X8493093Y-16058479D01*
X8793093Y-16244193D02*
X8807379Y-16258479D01*
X8793093Y-16272764D01*
X8778807Y-16258479D01*
X8793093Y-16244193D01*
X8793093Y-16272764D01*
X8993093Y-15972764D02*
X9021664Y-15972764D01*
X9050236Y-15987050D01*
X9064521Y-16001336D01*
X9078807Y-16029907D01*
X9093093Y-16087050D01*
X9093093Y-16158479D01*
X9078807Y-16215621D01*
X9064521Y-16244193D01*
X9050236Y-16258479D01*
X9021664Y-16272764D01*
X8993093Y-16272764D01*
X8964521Y-16258479D01*
X8950236Y-16244193D01*
X8935950Y-16215621D01*
X8921664Y-16158479D01*
X8921664Y-16087050D01*
X8935950Y-16029907D01*
X8950236Y-16001336D01*
X8964521Y-15987050D01*
X8993093Y-15972764D01*
X9207379Y-16001336D02*
X9221664Y-15987050D01*
X9250236Y-15972764D01*
X9321664Y-15972764D01*
X9350236Y-15987050D01*
X9364521Y-16001336D01*
X9378807Y-16029907D01*
X9378807Y-16058479D01*
X9364521Y-16101336D01*
X9193093Y-16272764D01*
X9378807Y-16272764D01*
X9507379Y-16272764D02*
X9507379Y-16072764D01*
X9507379Y-16101336D02*
X9521664Y-16087050D01*
X9550236Y-16072764D01*
X9593093Y-16072764D01*
X9621664Y-16087050D01*
X9635950Y-16115621D01*
X9635950Y-16272764D01*
X9635950Y-16115621D02*
X9650236Y-16087050D01*
X9678807Y-16072764D01*
X9721664Y-16072764D01*
X9750236Y-16087050D01*
X9764521Y-16115621D01*
X9764521Y-16272764D01*
X9907379Y-16272764D02*
X9907379Y-16072764D01*
X9907379Y-16101336D02*
X9921664Y-16087050D01*
X9950236Y-16072764D01*
X9993093Y-16072764D01*
X10021664Y-16087050D01*
X10035950Y-16115621D01*
X10035950Y-16272764D01*
X10035950Y-16115621D02*
X10050236Y-16087050D01*
X10078807Y-16072764D01*
X10121664Y-16072764D01*
X10150236Y-16087050D01*
X10164521Y-16115621D01*
X10164521Y-16272764D01*
X10750236Y-15958479D02*
X10493093Y-16344193D01*
X11135950Y-15972764D02*
X11164521Y-15972764D01*
X11193093Y-15987050D01*
X11207378Y-16001336D01*
X11221664Y-16029907D01*
X11235950Y-16087050D01*
X11235950Y-16158479D01*
X11221664Y-16215621D01*
X11207378Y-16244193D01*
X11193093Y-16258479D01*
X11164521Y-16272764D01*
X11135950Y-16272764D01*
X11107378Y-16258479D01*
X11093093Y-16244193D01*
X11078807Y-16215621D01*
X11064521Y-16158479D01*
X11064521Y-16087050D01*
X11078807Y-16029907D01*
X11093093Y-16001336D01*
X11107378Y-15987050D01*
X11135950Y-15972764D01*
X11364521Y-16244193D02*
X11378807Y-16258479D01*
X11364521Y-16272764D01*
X11350236Y-16258479D01*
X11364521Y-16244193D01*
X11364521Y-16272764D01*
X11564521Y-15972764D02*
X11593093Y-15972764D01*
X11621664Y-15987050D01*
X11635950Y-16001336D01*
X11650235Y-16029907D01*
X11664521Y-16087050D01*
X11664521Y-16158479D01*
X11650235Y-16215621D01*
X11635950Y-16244193D01*
X11621664Y-16258479D01*
X11593093Y-16272764D01*
X11564521Y-16272764D01*
X11535950Y-16258479D01*
X11521664Y-16244193D01*
X11507378Y-16215621D01*
X11493093Y-16158479D01*
X11493093Y-16087050D01*
X11507378Y-16029907D01*
X11521664Y-16001336D01*
X11535950Y-15987050D01*
X11564521Y-15972764D01*
X11921664Y-16072764D02*
X11921664Y-16272764D01*
X11850235Y-15958479D02*
X11778807Y-16172764D01*
X11964521Y-16172764D01*
X12135950Y-15972764D02*
X12164521Y-15972764D01*
X12193093Y-15987050D01*
X12207378Y-16001336D01*
X12221664Y-16029907D01*
X12235950Y-16087050D01*
X12235950Y-16158479D01*
X12221664Y-16215621D01*
X12207378Y-16244193D01*
X12193093Y-16258479D01*
X12164521Y-16272764D01*
X12135950Y-16272764D01*
X12107378Y-16258479D01*
X12093093Y-16244193D01*
X12078807Y-16215621D01*
X12064521Y-16158479D01*
X12064521Y-16087050D01*
X12078807Y-16029907D01*
X12093093Y-16001336D01*
X12107378Y-15987050D01*
X12135950Y-15972764D01*
X12350236Y-15972764D02*
X12350236Y-16029907D01*
X12464521Y-15972764D02*
X12464521Y-16029907D01*
X12907378Y-16387050D02*
X12893093Y-16372764D01*
X12864521Y-16329907D01*
X12850235Y-16301336D01*
X12835950Y-16258479D01*
X12821664Y-16187050D01*
X12821664Y-16129907D01*
X12835950Y-16058479D01*
X12850235Y-16015621D01*
X12864521Y-15987050D01*
X12893093Y-15944193D01*
X12907378Y-15929907D01*
X13007378Y-16001336D02*
X13021664Y-15987050D01*
X13050235Y-15972764D01*
X13121664Y-15972764D01*
X13150235Y-15987050D01*
X13164521Y-16001336D01*
X13178807Y-16029907D01*
X13178807Y-16058479D01*
X13164521Y-16101336D01*
X12993093Y-16272764D01*
X13178807Y-16272764D01*
X13535950Y-16272764D02*
X13535950Y-15972764D01*
X13664521Y-16272764D02*
X13664521Y-16115621D01*
X13650235Y-16087050D01*
X13621664Y-16072764D01*
X13578807Y-16072764D01*
X13550235Y-16087050D01*
X13535950Y-16101336D01*
X13850235Y-16272764D02*
X13821664Y-16258479D01*
X13807378Y-16244193D01*
X13793093Y-16215621D01*
X13793093Y-16129907D01*
X13807378Y-16101336D01*
X13821664Y-16087050D01*
X13850235Y-16072764D01*
X13893093Y-16072764D01*
X13921664Y-16087050D01*
X13935950Y-16101336D01*
X13950235Y-16129907D01*
X13950235Y-16215621D01*
X13935950Y-16244193D01*
X13921664Y-16258479D01*
X13893093Y-16272764D01*
X13850235Y-16272764D01*
X14121664Y-16272764D02*
X14093093Y-16258479D01*
X14078807Y-16229907D01*
X14078807Y-15972764D01*
X14350236Y-16258479D02*
X14321664Y-16272764D01*
X14264521Y-16272764D01*
X14235950Y-16258479D01*
X14221664Y-16229907D01*
X14221664Y-16115621D01*
X14235950Y-16087050D01*
X14264521Y-16072764D01*
X14321664Y-16072764D01*
X14350236Y-16087050D01*
X14364521Y-16115621D01*
X14364521Y-16144193D01*
X14221664Y-16172764D01*
X14478807Y-16258479D02*
X14507378Y-16272764D01*
X14564521Y-16272764D01*
X14593093Y-16258479D01*
X14607378Y-16229907D01*
X14607378Y-16215621D01*
X14593093Y-16187050D01*
X14564521Y-16172764D01*
X14521664Y-16172764D01*
X14493093Y-16158479D01*
X14478807Y-16129907D01*
X14478807Y-16115621D01*
X14493093Y-16087050D01*
X14521664Y-16072764D01*
X14564521Y-16072764D01*
X14593093Y-16087050D01*
X14707378Y-16387050D02*
X14721664Y-16372764D01*
X14750236Y-16329907D01*
X14764521Y-16301336D01*
X14778807Y-16258479D01*
X14793093Y-16187050D01*
X14793093Y-16129907D01*
X14778807Y-16058479D01*
X14764521Y-16015621D01*
X14750236Y-15987050D01*
X14721664Y-15944193D01*
X14707378Y-15929907D01*
X8178800Y-16590200D02*
X8235950Y-16533050D01*
X8178800Y-16475900D01*
X8121650Y-16533050D01*
X8178800Y-16590200D01*
X8664521Y-16668764D02*
X8493093Y-16668764D01*
X8578807Y-16668764D02*
X8578807Y-16368764D01*
X8550236Y-16411621D01*
X8521664Y-16440193D01*
X8493093Y-16454479D01*
X8793093Y-16640193D02*
X8807379Y-16654479D01*
X8793093Y-16668764D01*
X8778807Y-16654479D01*
X8793093Y-16640193D01*
X8793093Y-16668764D01*
X9093093Y-16668764D02*
X8921664Y-16668764D01*
X9007378Y-16668764D02*
X9007378Y-16368764D01*
X8978807Y-16411621D01*
X8950236Y-16440193D01*
X8921664Y-16454479D01*
X9350236Y-16468764D02*
X9350236Y-16668764D01*
X9278807Y-16354479D02*
X9207379Y-16568764D01*
X9393093Y-16568764D01*
X9507379Y-16668764D02*
X9507379Y-16468764D01*
X9507379Y-16497336D02*
X9521664Y-16483050D01*
X9550236Y-16468764D01*
X9593093Y-16468764D01*
X9621664Y-16483050D01*
X9635950Y-16511621D01*
X9635950Y-16668764D01*
X9635950Y-16511621D02*
X9650236Y-16483050D01*
X9678807Y-16468764D01*
X9721664Y-16468764D01*
X9750236Y-16483050D01*
X9764521Y-16511621D01*
X9764521Y-16668764D01*
X9907379Y-16668764D02*
X9907379Y-16468764D01*
X9907379Y-16497336D02*
X9921664Y-16483050D01*
X9950236Y-16468764D01*
X9993093Y-16468764D01*
X10021664Y-16483050D01*
X10035950Y-16511621D01*
X10035950Y-16668764D01*
X10035950Y-16511621D02*
X10050236Y-16483050D01*
X10078807Y-16468764D01*
X10121664Y-16468764D01*
X10150236Y-16483050D01*
X10164521Y-16511621D01*
X10164521Y-16668764D01*
X10750236Y-16354479D02*
X10493093Y-16740193D01*
X11135950Y-16368764D02*
X11164521Y-16368764D01*
X11193093Y-16383050D01*
X11207378Y-16397336D01*
X11221664Y-16425907D01*
X11235950Y-16483050D01*
X11235950Y-16554479D01*
X11221664Y-16611621D01*
X11207378Y-16640193D01*
X11193093Y-16654479D01*
X11164521Y-16668764D01*
X11135950Y-16668764D01*
X11107378Y-16654479D01*
X11093093Y-16640193D01*
X11078807Y-16611621D01*
X11064521Y-16554479D01*
X11064521Y-16483050D01*
X11078807Y-16425907D01*
X11093093Y-16397336D01*
X11107378Y-16383050D01*
X11135950Y-16368764D01*
X11364521Y-16640193D02*
X11378807Y-16654479D01*
X11364521Y-16668764D01*
X11350236Y-16654479D01*
X11364521Y-16640193D01*
X11364521Y-16668764D01*
X11564521Y-16368764D02*
X11593093Y-16368764D01*
X11621664Y-16383050D01*
X11635950Y-16397336D01*
X11650235Y-16425907D01*
X11664521Y-16483050D01*
X11664521Y-16554479D01*
X11650235Y-16611621D01*
X11635950Y-16640193D01*
X11621664Y-16654479D01*
X11593093Y-16668764D01*
X11564521Y-16668764D01*
X11535950Y-16654479D01*
X11521664Y-16640193D01*
X11507378Y-16611621D01*
X11493093Y-16554479D01*
X11493093Y-16483050D01*
X11507378Y-16425907D01*
X11521664Y-16397336D01*
X11535950Y-16383050D01*
X11564521Y-16368764D01*
X11921664Y-16468764D02*
X11921664Y-16668764D01*
X11850235Y-16354479D02*
X11778807Y-16568764D01*
X11964521Y-16568764D01*
X12221664Y-16368764D02*
X12078807Y-16368764D01*
X12064521Y-16511621D01*
X12078807Y-16497336D01*
X12107378Y-16483050D01*
X12178807Y-16483050D01*
X12207378Y-16497336D01*
X12221664Y-16511621D01*
X12235950Y-16540193D01*
X12235950Y-16611621D01*
X12221664Y-16640193D01*
X12207378Y-16654479D01*
X12178807Y-16668764D01*
X12107378Y-16668764D01*
X12078807Y-16654479D01*
X12064521Y-16640193D01*
X12350236Y-16368764D02*
X12350236Y-16425907D01*
X12464521Y-16368764D02*
X12464521Y-16425907D01*
X12907378Y-16783050D02*
X12893093Y-16768764D01*
X12864521Y-16725907D01*
X12850235Y-16697336D01*
X12835950Y-16654479D01*
X12821664Y-16583050D01*
X12821664Y-16525907D01*
X12835950Y-16454479D01*
X12850235Y-16411621D01*
X12864521Y-16383050D01*
X12893093Y-16340193D01*
X12907378Y-16325907D01*
X12993093Y-16368764D02*
X13193093Y-16368764D01*
X13064521Y-16668764D01*
X13293093Y-16397336D02*
X13307378Y-16383050D01*
X13335950Y-16368764D01*
X13407378Y-16368764D01*
X13435950Y-16383050D01*
X13450235Y-16397336D01*
X13464521Y-16425907D01*
X13464521Y-16454479D01*
X13450235Y-16497336D01*
X13278807Y-16668764D01*
X13464521Y-16668764D01*
X13821664Y-16668764D02*
X13821664Y-16368764D01*
X13950235Y-16668764D02*
X13950235Y-16511621D01*
X13935950Y-16483050D01*
X13907378Y-16468764D01*
X13864521Y-16468764D01*
X13835950Y-16483050D01*
X13821664Y-16497336D01*
X14135950Y-16668764D02*
X14107378Y-16654479D01*
X14093093Y-16640193D01*
X14078807Y-16611621D01*
X14078807Y-16525907D01*
X14093093Y-16497336D01*
X14107378Y-16483050D01*
X14135950Y-16468764D01*
X14178807Y-16468764D01*
X14207378Y-16483050D01*
X14221664Y-16497336D01*
X14235950Y-16525907D01*
X14235950Y-16611621D01*
X14221664Y-16640193D01*
X14207378Y-16654479D01*
X14178807Y-16668764D01*
X14135950Y-16668764D01*
X14407378Y-16668764D02*
X14378807Y-16654479D01*
X14364521Y-16625907D01*
X14364521Y-16368764D01*
X14635950Y-16654479D02*
X14607378Y-16668764D01*
X14550236Y-16668764D01*
X14521664Y-16654479D01*
X14507378Y-16625907D01*
X14507378Y-16511621D01*
X14521664Y-16483050D01*
X14550236Y-16468764D01*
X14607378Y-16468764D01*
X14635950Y-16483050D01*
X14650236Y-16511621D01*
X14650236Y-16540193D01*
X14507378Y-16568764D01*
X14764521Y-16654479D02*
X14793093Y-16668764D01*
X14850236Y-16668764D01*
X14878807Y-16654479D01*
X14893093Y-16625907D01*
X14893093Y-16611621D01*
X14878807Y-16583050D01*
X14850236Y-16568764D01*
X14807378Y-16568764D01*
X14778807Y-16554479D01*
X14764521Y-16525907D01*
X14764521Y-16511621D01*
X14778807Y-16483050D01*
X14807378Y-16468764D01*
X14850236Y-16468764D01*
X14878807Y-16483050D01*
X14993093Y-16783050D02*
X15007378Y-16768764D01*
X15035950Y-16725907D01*
X15050236Y-16697336D01*
X15064521Y-16654479D01*
X15078807Y-16583050D01*
X15078807Y-16525907D01*
X15064521Y-16454479D01*
X15050236Y-16411621D01*
X15035950Y-16383050D01*
X15007378Y-16340193D01*
X14993093Y-16325907D01*
M02*
