G04 #@! TF.FileFunction,Soldermask,Bot*
%FSLAX46Y46*%
G04 Gerber Fmt 4.6, Leading zero omitted, Abs format (unit mm)*
G04 Created by KiCad (PCBNEW 4.0.5+dfsg1-4+deb9u1) date Sun Sep  4 20:08:20 2022*
%MOMM*%
%LPD*%
G01*
G04 APERTURE LIST*
%ADD10C,0.100000*%
%ADD11C,1.797000*%
%ADD12R,2.178000X2.178000*%
%ADD13C,2.178000*%
%ADD14R,1.797000X1.797000*%
%ADD15C,1.924000*%
G04 APERTURE END LIST*
D10*
D11*
X186690000Y-81280000D03*
X186690000Y-86360000D03*
X186690000Y-96520000D03*
X186690000Y-101600000D03*
X186690000Y-111760000D03*
X186690000Y-116840000D03*
D12*
X163830000Y-120142000D03*
D13*
X163830000Y-115062000D03*
X134620000Y-132080000D03*
D12*
X134620000Y-119380000D03*
D13*
X130810000Y-132080000D03*
D12*
X130810000Y-119380000D03*
D13*
X138430000Y-132080000D03*
D12*
X138430000Y-119380000D03*
D13*
X107950000Y-132080000D03*
D12*
X107950000Y-119380000D03*
D13*
X127000000Y-132080000D03*
D12*
X127000000Y-119380000D03*
D13*
X104140000Y-132080000D03*
D12*
X104140000Y-119380000D03*
D13*
X115570000Y-132080000D03*
D12*
X115570000Y-119380000D03*
D13*
X96520000Y-132080000D03*
D12*
X96520000Y-119380000D03*
D13*
X111760000Y-132080000D03*
D12*
X111760000Y-119380000D03*
D13*
X100330000Y-132080000D03*
D12*
X100330000Y-119380000D03*
D13*
X119380000Y-132080000D03*
D12*
X119380000Y-119380000D03*
D13*
X88900000Y-132080000D03*
D12*
X88900000Y-119380000D03*
D13*
X92710000Y-132080000D03*
D12*
X92710000Y-119380000D03*
D13*
X123190000Y-132080000D03*
D12*
X123190000Y-119380000D03*
D13*
X152400000Y-96520000D03*
D12*
X139700000Y-96520000D03*
D14*
X214630000Y-110490000D03*
D11*
X212090000Y-110490000D03*
X209550000Y-110490000D03*
X207010000Y-110490000D03*
X204470000Y-110490000D03*
X201930000Y-110490000D03*
X199390000Y-110490000D03*
X199390000Y-118110000D03*
X201930000Y-118110000D03*
X204470000Y-118110000D03*
X207010000Y-118110000D03*
X209550000Y-118110000D03*
X212090000Y-118110000D03*
X214630000Y-118110000D03*
D14*
X214630000Y-95250000D03*
D11*
X212090000Y-95250000D03*
X209550000Y-95250000D03*
X207010000Y-95250000D03*
X204470000Y-95250000D03*
X201930000Y-95250000D03*
X199390000Y-95250000D03*
X196850000Y-95250000D03*
X196850000Y-102870000D03*
X199390000Y-102870000D03*
X201930000Y-102870000D03*
X204470000Y-102870000D03*
X207010000Y-102870000D03*
X209550000Y-102870000D03*
X212090000Y-102870000D03*
X214630000Y-102870000D03*
D14*
X214630000Y-80010000D03*
D11*
X212090000Y-80010000D03*
X209550000Y-80010000D03*
X207010000Y-80010000D03*
X204470000Y-80010000D03*
X201930000Y-80010000D03*
X199390000Y-80010000D03*
X196850000Y-80010000D03*
X194310000Y-80010000D03*
X191770000Y-80010000D03*
X191770000Y-87630000D03*
X194310000Y-87630000D03*
X196850000Y-87630000D03*
X199390000Y-87630000D03*
X201930000Y-87630000D03*
X204470000Y-87630000D03*
X207010000Y-87630000D03*
X209550000Y-87630000D03*
X212090000Y-87630000D03*
X214630000Y-87630000D03*
D13*
X153670000Y-81280000D03*
X138430000Y-81280000D03*
X138430000Y-86360000D03*
X153670000Y-86360000D03*
X138430000Y-91440000D03*
X153670000Y-91440000D03*
X181610000Y-110490000D03*
X166370000Y-110490000D03*
X181610000Y-104140000D03*
X166370000Y-104140000D03*
X181610000Y-76200000D03*
X166370000Y-76200000D03*
X138430000Y-76200000D03*
X153670000Y-76200000D03*
X181610000Y-82550000D03*
X166370000Y-82550000D03*
D14*
X138430000Y-104140000D03*
D11*
X138430000Y-101600000D03*
D14*
X138430000Y-109220000D03*
D11*
X138430000Y-111760000D03*
X138430000Y-114300000D03*
D15*
X125730000Y-93980000D03*
X127000000Y-92710000D03*
X124460000Y-92710000D03*
X102870000Y-87630000D03*
X104140000Y-86360000D03*
X101600000Y-86360000D03*
X129540000Y-87630000D03*
X130810000Y-86360000D03*
X128270000Y-86360000D03*
X111760000Y-87630000D03*
X113030000Y-86360000D03*
X110490000Y-86360000D03*
X97790000Y-81280000D03*
X99060000Y-80010000D03*
X96520000Y-80010000D03*
X120650000Y-87630000D03*
X121920000Y-86360000D03*
X119380000Y-86360000D03*
X107950000Y-93980000D03*
X109220000Y-92710000D03*
X106680000Y-92710000D03*
X124460000Y-81280000D03*
X125730000Y-80010000D03*
X123190000Y-80010000D03*
X116840000Y-93980000D03*
X118110000Y-92710000D03*
X115570000Y-92710000D03*
X99060000Y-93980000D03*
X100330000Y-92710000D03*
X97790000Y-92710000D03*
X93980000Y-87630000D03*
X95250000Y-86360000D03*
X92710000Y-86360000D03*
X88900000Y-81280000D03*
X90170000Y-80010000D03*
X87630000Y-80010000D03*
X144780000Y-102870000D03*
X146050000Y-104140000D03*
X146050000Y-101600000D03*
X115570000Y-81280000D03*
X116840000Y-80010000D03*
X114300000Y-80010000D03*
X106680000Y-81280000D03*
X107950000Y-80010000D03*
X105410000Y-80010000D03*
D14*
X88265000Y-71120000D03*
D11*
X90805000Y-71120000D03*
X93345000Y-71120000D03*
X95885000Y-71120000D03*
X98425000Y-71120000D03*
X100965000Y-71120000D03*
X103505000Y-71120000D03*
X106045000Y-71120000D03*
X108585000Y-71120000D03*
X111125000Y-71120000D03*
X113665000Y-71120000D03*
X116205000Y-71120000D03*
X118745000Y-71120000D03*
X121285000Y-71120000D03*
D14*
X149225000Y-71120000D03*
D11*
X146685000Y-71120000D03*
D14*
X194310000Y-71120000D03*
D11*
X196850000Y-71120000D03*
X199390000Y-71120000D03*
X201930000Y-71120000D03*
X204470000Y-71120000D03*
X207010000Y-71120000D03*
X209550000Y-71120000D03*
X212090000Y-71120000D03*
D14*
X185420000Y-71120000D03*
D11*
X187960000Y-71120000D03*
D14*
X157480000Y-71120000D03*
D11*
X154940000Y-71120000D03*
D14*
X161290000Y-102870000D03*
D11*
X161290000Y-100330000D03*
X158750000Y-100330000D03*
D14*
X161290000Y-110490000D03*
D11*
X161290000Y-107950000D03*
X158750000Y-107950000D03*
D14*
X161290000Y-87630000D03*
D11*
X161290000Y-85090000D03*
X158750000Y-85090000D03*
D14*
X161290000Y-95250000D03*
D11*
X161290000Y-92710000D03*
X158750000Y-92710000D03*
D14*
X161290000Y-80010000D03*
D11*
X161290000Y-77470000D03*
X158750000Y-77470000D03*
D13*
X111760000Y-100330000D03*
X111760000Y-115570000D03*
X88900000Y-115570000D03*
X88900000Y-100330000D03*
X181610000Y-88900000D03*
X166370000Y-88900000D03*
X96520000Y-115570000D03*
X96520000Y-100330000D03*
X92710000Y-115570000D03*
X92710000Y-100330000D03*
X107950000Y-115570000D03*
X107950000Y-100330000D03*
X130810000Y-115570000D03*
X130810000Y-100330000D03*
X100330000Y-100330000D03*
X100330000Y-115570000D03*
X123190000Y-115570000D03*
X123190000Y-100330000D03*
X119380000Y-115570000D03*
X119380000Y-100330000D03*
X104140000Y-115570000D03*
X104140000Y-100330000D03*
X127000000Y-115570000D03*
X127000000Y-100330000D03*
X115570000Y-115570000D03*
X115570000Y-100330000D03*
M02*
