G04 #@! TF.FileFunction,Copper,L2,Bot,Signal*
%FSLAX46Y46*%
G04 Gerber Fmt 4.6, Leading zero omitted, Abs format (unit mm)*
G04 Created by KiCad (PCBNEW 4.0.5+dfsg1-4+deb9u1) date Mon Sep 26 08:33:47 2022*
%MOMM*%
%LPD*%
G01*
G04 APERTURE LIST*
%ADD10C,0.100000*%
%ADD11C,0.304800*%
%ADD12C,0.381000*%
%ADD13R,1.397000X1.397000*%
%ADD14C,1.397000*%
%ADD15C,1.524000*%
%ADD16C,3.810000*%
%ADD17R,1.524000X1.524000*%
%ADD18R,1.778000X1.778000*%
%ADD19C,1.778000*%
%ADD20C,1.099820*%
%ADD21C,0.350520*%
%ADD22C,1.000760*%
%ADD23C,0.299720*%
G04 APERTURE END LIST*
D10*
D11*
X233329238Y-86976860D02*
X231297238Y-86976860D01*
X233329238Y-87630003D02*
X232264857Y-87630003D01*
X232071333Y-87557432D01*
X231974571Y-87412289D01*
X231974571Y-87194574D01*
X232071333Y-87049432D01*
X232168095Y-86976860D01*
X231974571Y-88138003D02*
X231974571Y-88718574D01*
X231297238Y-88355717D02*
X233038952Y-88355717D01*
X233232476Y-88428289D01*
X233329238Y-88573431D01*
X233329238Y-88718574D01*
X231974571Y-89008860D02*
X231974571Y-89589431D01*
X231297238Y-89226574D02*
X233038952Y-89226574D01*
X233232476Y-89299146D01*
X233329238Y-89444288D01*
X233329238Y-89589431D01*
X231974571Y-90097431D02*
X234006571Y-90097431D01*
X232071333Y-90097431D02*
X231974571Y-90242574D01*
X231974571Y-90532860D01*
X232071333Y-90678003D01*
X232168095Y-90750574D01*
X232361619Y-90823145D01*
X232942190Y-90823145D01*
X233135714Y-90750574D01*
X233232476Y-90678003D01*
X233329238Y-90532860D01*
X233329238Y-90242574D01*
X233232476Y-90097431D01*
X233135714Y-91476288D02*
X233232476Y-91548860D01*
X233329238Y-91476288D01*
X233232476Y-91403717D01*
X233135714Y-91476288D01*
X233329238Y-91476288D01*
X232071333Y-91476288D02*
X232168095Y-91548860D01*
X232264857Y-91476288D01*
X232168095Y-91403717D01*
X232071333Y-91476288D01*
X232264857Y-91476288D01*
X231200476Y-93290574D02*
X233813048Y-91984288D01*
X231200476Y-94887145D02*
X233813048Y-93580859D01*
X231974571Y-95250001D02*
X233329238Y-95540287D01*
X232361619Y-95830573D01*
X233329238Y-96120858D01*
X231974571Y-96411144D01*
X231974571Y-96846572D02*
X233329238Y-97136858D01*
X232361619Y-97427144D01*
X233329238Y-97717429D01*
X231974571Y-98007715D01*
X231974571Y-98443143D02*
X233329238Y-98733429D01*
X232361619Y-99023715D01*
X233329238Y-99314000D01*
X231974571Y-99604286D01*
X233135714Y-100184857D02*
X233232476Y-100257429D01*
X233329238Y-100184857D01*
X233232476Y-100112286D01*
X233135714Y-100184857D01*
X233329238Y-100184857D01*
X231974571Y-100910571D02*
X234006571Y-100910571D01*
X232071333Y-100910571D02*
X231974571Y-101055714D01*
X231974571Y-101346000D01*
X232071333Y-101491143D01*
X232168095Y-101563714D01*
X232361619Y-101636285D01*
X232942190Y-101636285D01*
X233135714Y-101563714D01*
X233232476Y-101491143D01*
X233329238Y-101346000D01*
X233329238Y-101055714D01*
X233232476Y-100910571D01*
X233329238Y-102507142D02*
X233232476Y-102362000D01*
X233135714Y-102289428D01*
X232942190Y-102216857D01*
X232361619Y-102216857D01*
X232168095Y-102289428D01*
X232071333Y-102362000D01*
X231974571Y-102507142D01*
X231974571Y-102724857D01*
X232071333Y-102870000D01*
X232168095Y-102942571D01*
X232361619Y-103015142D01*
X232942190Y-103015142D01*
X233135714Y-102942571D01*
X233232476Y-102870000D01*
X233329238Y-102724857D01*
X233329238Y-102507142D01*
X231974571Y-103523142D02*
X231974571Y-104321428D01*
X233329238Y-103523142D01*
X233329238Y-104321428D01*
X233232476Y-104829428D02*
X233329238Y-104974571D01*
X233329238Y-105264856D01*
X233232476Y-105409999D01*
X233038952Y-105482571D01*
X232942190Y-105482571D01*
X232748667Y-105409999D01*
X232651905Y-105264856D01*
X232651905Y-105047142D01*
X232555143Y-104901999D01*
X232361619Y-104829428D01*
X232264857Y-104829428D01*
X232071333Y-104901999D01*
X231974571Y-105047142D01*
X231974571Y-105264856D01*
X232071333Y-105409999D01*
X233329238Y-106788856D02*
X232264857Y-106788856D01*
X232071333Y-106716285D01*
X231974571Y-106571142D01*
X231974571Y-106280856D01*
X232071333Y-106135713D01*
X233232476Y-106788856D02*
X233329238Y-106643713D01*
X233329238Y-106280856D01*
X233232476Y-106135713D01*
X233038952Y-106063142D01*
X232845429Y-106063142D01*
X232651905Y-106135713D01*
X232555143Y-106280856D01*
X232555143Y-106643713D01*
X232458381Y-106788856D01*
X233329238Y-107514570D02*
X231974571Y-107514570D01*
X232361619Y-107514570D02*
X232168095Y-107587142D01*
X232071333Y-107659713D01*
X231974571Y-107804856D01*
X231974571Y-107949999D01*
X231974571Y-108312856D02*
X231974571Y-109111142D01*
X233329238Y-108312856D01*
X233329238Y-109111142D01*
X233232476Y-109619142D02*
X233329238Y-109764285D01*
X233329238Y-110054570D01*
X233232476Y-110199713D01*
X233038952Y-110272285D01*
X232942190Y-110272285D01*
X232748667Y-110199713D01*
X232651905Y-110054570D01*
X232651905Y-109836856D01*
X232555143Y-109691713D01*
X232361619Y-109619142D01*
X232264857Y-109619142D01*
X232071333Y-109691713D01*
X231974571Y-109836856D01*
X231974571Y-110054570D01*
X232071333Y-110199713D01*
X233135714Y-110925427D02*
X233232476Y-110997999D01*
X233329238Y-110925427D01*
X233232476Y-110852856D01*
X233135714Y-110925427D01*
X233329238Y-110925427D01*
X233329238Y-111651141D02*
X231297238Y-111651141D01*
X233329238Y-112304284D02*
X232264857Y-112304284D01*
X232071333Y-112231713D01*
X231974571Y-112086570D01*
X231974571Y-111868855D01*
X232071333Y-111723713D01*
X232168095Y-111651141D01*
X231974571Y-113683141D02*
X233329238Y-113683141D01*
X231974571Y-113029998D02*
X233038952Y-113029998D01*
X233232476Y-113102570D01*
X233329238Y-113247712D01*
X233329238Y-113465427D01*
X233232476Y-113610570D01*
X233135714Y-113683141D01*
X179977143Y-127919238D02*
X179977143Y-125887238D01*
X179614286Y-125887238D01*
X179396571Y-125984000D01*
X179251429Y-126177524D01*
X179178857Y-126371048D01*
X179106286Y-126758095D01*
X179106286Y-127048381D01*
X179178857Y-127435429D01*
X179251429Y-127628952D01*
X179396571Y-127822476D01*
X179614286Y-127919238D01*
X179977143Y-127919238D01*
X178453143Y-127919238D02*
X178453143Y-125887238D01*
X177582286Y-127919238D01*
X177582286Y-125887238D01*
X176856572Y-127725714D02*
X176784000Y-127822476D01*
X176856572Y-127919238D01*
X176929143Y-127822476D01*
X176856572Y-127725714D01*
X176856572Y-127919238D01*
X176856572Y-126661333D02*
X176784000Y-126758095D01*
X176856572Y-126854857D01*
X176929143Y-126758095D01*
X176856572Y-126661333D01*
X176856572Y-126854857D01*
X174098858Y-127725714D02*
X174171429Y-127822476D01*
X174389143Y-127919238D01*
X174534286Y-127919238D01*
X174752001Y-127822476D01*
X174897143Y-127628952D01*
X174969715Y-127435429D01*
X175042286Y-127048381D01*
X175042286Y-126758095D01*
X174969715Y-126371048D01*
X174897143Y-126177524D01*
X174752001Y-125984000D01*
X174534286Y-125887238D01*
X174389143Y-125887238D01*
X174171429Y-125984000D01*
X174098858Y-126080762D01*
X173663429Y-125887238D02*
X172792572Y-125887238D01*
X173228001Y-127919238D02*
X173228001Y-125887238D01*
X172502286Y-125887238D02*
X171631429Y-125887238D01*
X172066858Y-127919238D02*
X172066858Y-125887238D01*
X170034857Y-125790476D02*
X171341143Y-128403048D01*
X168873715Y-126564571D02*
X168873715Y-127919238D01*
X169236572Y-125790476D02*
X169599429Y-127241905D01*
X168656001Y-127241905D01*
X168075429Y-127145143D02*
X166914286Y-127145143D01*
X165535429Y-125887238D02*
X165825715Y-125887238D01*
X165970858Y-125984000D01*
X166043429Y-126080762D01*
X166188572Y-126371048D01*
X166261143Y-126758095D01*
X166261143Y-127532190D01*
X166188572Y-127725714D01*
X166116000Y-127822476D01*
X165970858Y-127919238D01*
X165680572Y-127919238D01*
X165535429Y-127822476D01*
X165462858Y-127725714D01*
X165390286Y-127532190D01*
X165390286Y-127048381D01*
X165462858Y-126854857D01*
X165535429Y-126758095D01*
X165680572Y-126661333D01*
X165970858Y-126661333D01*
X166116000Y-126758095D01*
X166188572Y-126854857D01*
X166261143Y-127048381D01*
X165063714Y-75655714D02*
X165136285Y-75752476D01*
X165353999Y-75849238D01*
X165499142Y-75849238D01*
X165716857Y-75752476D01*
X165861999Y-75558952D01*
X165934571Y-75365429D01*
X166007142Y-74978381D01*
X166007142Y-74688095D01*
X165934571Y-74301048D01*
X165861999Y-74107524D01*
X165716857Y-73914000D01*
X165499142Y-73817238D01*
X165353999Y-73817238D01*
X165136285Y-73914000D01*
X165063714Y-74010762D01*
X164628285Y-73817238D02*
X163757428Y-73817238D01*
X164192857Y-75849238D02*
X164192857Y-73817238D01*
X163467142Y-73817238D02*
X162596285Y-73817238D01*
X163031714Y-75849238D02*
X163031714Y-73817238D01*
X160999713Y-73720476D02*
X162305999Y-76333048D01*
X160491714Y-75849238D02*
X160491714Y-73817238D01*
X159258000Y-74784857D02*
X159766000Y-74784857D01*
X159766000Y-75849238D02*
X159766000Y-73817238D01*
X159040286Y-73817238D01*
D12*
X237490000Y-63500000D02*
X194310000Y-63500000D01*
X237490000Y-137160000D02*
X237490000Y-63500000D01*
X196850000Y-137160000D02*
X237490000Y-137160000D01*
X96520000Y-137160000D02*
X196850000Y-137160000D01*
X96520000Y-63500000D02*
X96520000Y-137160000D01*
X194310000Y-63500000D02*
X96520000Y-63500000D01*
D13*
X198120000Y-130810000D03*
D14*
X198120000Y-133350000D03*
D13*
X175260000Y-73660000D03*
D14*
X175260000Y-76200000D03*
X175260000Y-78740000D03*
X175260000Y-81280000D03*
X175260000Y-83820000D03*
X175260000Y-86360000D03*
X175260000Y-88900000D03*
X175260000Y-91440000D03*
D13*
X134620000Y-73660000D03*
D14*
X134620000Y-76200000D03*
X134620000Y-78740000D03*
X134620000Y-81280000D03*
X134620000Y-83820000D03*
X134620000Y-86360000D03*
X134620000Y-88900000D03*
X134620000Y-91440000D03*
D13*
X124460000Y-73660000D03*
D14*
X124460000Y-76200000D03*
X124460000Y-78740000D03*
X124460000Y-81280000D03*
X124460000Y-83820000D03*
X124460000Y-86360000D03*
X124460000Y-88900000D03*
X124460000Y-91440000D03*
D13*
X172720000Y-101600000D03*
D14*
X175260000Y-101600000D03*
D13*
X172720000Y-106680000D03*
D14*
X175260000Y-106680000D03*
D13*
X172720000Y-111760000D03*
D14*
X175260000Y-111760000D03*
D13*
X172720000Y-116840000D03*
D14*
X175260000Y-116840000D03*
D15*
X156210000Y-96520000D03*
X168910000Y-96520000D03*
X121920000Y-133350000D03*
X134620000Y-133350000D03*
X111760000Y-129540000D03*
X111760000Y-116840000D03*
X156210000Y-101600000D03*
X168910000Y-101600000D03*
X156210000Y-106680000D03*
X168910000Y-106680000D03*
X156210000Y-116840000D03*
X168910000Y-116840000D03*
X156210000Y-111760000D03*
X168910000Y-111760000D03*
X140970000Y-95250000D03*
X128270000Y-95250000D03*
D16*
X101600000Y-76835000D03*
X101600000Y-123825000D03*
D17*
X104140000Y-116840000D03*
D15*
X104140000Y-114046000D03*
X104140000Y-111379000D03*
X104140000Y-108585000D03*
X104140000Y-105791000D03*
X104140000Y-102997000D03*
X104140000Y-100330000D03*
X104140000Y-97536000D03*
X104140000Y-94742000D03*
X104140000Y-91948000D03*
X104140000Y-89281000D03*
X104140000Y-86487000D03*
X104140000Y-83693000D03*
X101600000Y-115265200D03*
X101600000Y-112725200D03*
X101600000Y-109931200D03*
X101600000Y-107188000D03*
X101600000Y-104444800D03*
X101600000Y-101650800D03*
X101600000Y-98907600D03*
X101600000Y-96164400D03*
X101600000Y-93319600D03*
X101600000Y-90627200D03*
X101600000Y-87884000D03*
X101600000Y-85090000D03*
D18*
X157480000Y-124333000D03*
D19*
X157480000Y-129413000D03*
D14*
X185420000Y-129540000D03*
X190500000Y-129540000D03*
X144780000Y-129540000D03*
X149860000Y-129540000D03*
X144780000Y-96520000D03*
X149860000Y-96520000D03*
X125730000Y-129540000D03*
X130810000Y-129540000D03*
X185420000Y-96520000D03*
X190500000Y-96520000D03*
D13*
X151130000Y-124460000D03*
D14*
X151130000Y-121920000D03*
X151130000Y-119380000D03*
X151130000Y-116840000D03*
X151130000Y-114300000D03*
X151130000Y-111760000D03*
X151130000Y-109220000D03*
X151130000Y-106680000D03*
X151130000Y-104140000D03*
X151130000Y-101600000D03*
X143510000Y-101600000D03*
X143510000Y-104140000D03*
X143510000Y-106680000D03*
X143510000Y-109220000D03*
X143510000Y-111760000D03*
X143510000Y-114300000D03*
X143510000Y-116840000D03*
X143510000Y-119380000D03*
X143510000Y-121920000D03*
X143510000Y-124460000D03*
D13*
X132080000Y-124460000D03*
D14*
X132080000Y-121920000D03*
X132080000Y-119380000D03*
X132080000Y-116840000D03*
X132080000Y-114300000D03*
X132080000Y-111760000D03*
X132080000Y-109220000D03*
X132080000Y-106680000D03*
X132080000Y-104140000D03*
X132080000Y-101600000D03*
X124460000Y-101600000D03*
X124460000Y-104140000D03*
X124460000Y-106680000D03*
X124460000Y-109220000D03*
X124460000Y-111760000D03*
X124460000Y-114300000D03*
X124460000Y-116840000D03*
X124460000Y-119380000D03*
X124460000Y-121920000D03*
X124460000Y-124460000D03*
D13*
X191770000Y-124460000D03*
D14*
X191770000Y-121920000D03*
X191770000Y-119380000D03*
X191770000Y-116840000D03*
X191770000Y-114300000D03*
X191770000Y-111760000D03*
X191770000Y-109220000D03*
X191770000Y-106680000D03*
X191770000Y-104140000D03*
X191770000Y-101600000D03*
X184150000Y-101600000D03*
X184150000Y-104140000D03*
X184150000Y-106680000D03*
X184150000Y-109220000D03*
X184150000Y-111760000D03*
X184150000Y-114300000D03*
X184150000Y-116840000D03*
X184150000Y-119380000D03*
X184150000Y-121920000D03*
X184150000Y-124460000D03*
D13*
X191770000Y-91440000D03*
D14*
X191770000Y-88900000D03*
X191770000Y-86360000D03*
X191770000Y-83820000D03*
X191770000Y-81280000D03*
X191770000Y-78740000D03*
X191770000Y-76200000D03*
X191770000Y-73660000D03*
X184150000Y-73660000D03*
X184150000Y-76200000D03*
X184150000Y-78740000D03*
X184150000Y-81280000D03*
X184150000Y-83820000D03*
X184150000Y-86360000D03*
X184150000Y-88900000D03*
X184150000Y-91440000D03*
D13*
X151130000Y-91440000D03*
D14*
X151130000Y-88900000D03*
X151130000Y-86360000D03*
X151130000Y-83820000D03*
X151130000Y-81280000D03*
X151130000Y-78740000D03*
X151130000Y-76200000D03*
X151130000Y-73660000D03*
X143510000Y-73660000D03*
X143510000Y-76200000D03*
X143510000Y-78740000D03*
X143510000Y-81280000D03*
X143510000Y-83820000D03*
X143510000Y-86360000D03*
X143510000Y-88900000D03*
X143510000Y-91440000D03*
D20*
X113030000Y-64770000D03*
X110490000Y-109982000D03*
X110490000Y-92710000D03*
X107950000Y-85090000D03*
X107950000Y-116840000D03*
X111760000Y-90170000D03*
X111760000Y-67310000D03*
X110490000Y-87630000D03*
X110490000Y-66040000D03*
X109220000Y-82550000D03*
X109220000Y-112776000D03*
X109220000Y-127000000D03*
X158750000Y-91440000D03*
X160020000Y-121920000D03*
X160020000Y-114300000D03*
X160020000Y-88900000D03*
X161290000Y-86360000D03*
X161290000Y-109220000D03*
X139700000Y-110490000D03*
X139700000Y-114300000D03*
X138430000Y-107950000D03*
X138430000Y-113030000D03*
X162560000Y-105410000D03*
X162560000Y-119380000D03*
X134620000Y-106680000D03*
X134620000Y-110490000D03*
X163830000Y-109220000D03*
X163830000Y-115570000D03*
X137160000Y-105410000D03*
X137160000Y-116078000D03*
X135890000Y-119380000D03*
X135890000Y-102870000D03*
X180340000Y-120650000D03*
X180340000Y-104140000D03*
D21*
X134620000Y-88900000D02*
X137160000Y-88900000D01*
X137160000Y-86360000D02*
X139700000Y-83820000D01*
X139700000Y-83820000D02*
X143510000Y-83820000D01*
X134620000Y-86360000D02*
X137160000Y-86360000D01*
X137160000Y-83820000D02*
X139700000Y-81280000D01*
X139700000Y-81280000D02*
X143510000Y-81280000D01*
X134620000Y-83820000D02*
X137160000Y-83820000D01*
X137160000Y-81280000D02*
X139700000Y-78740000D01*
X139700000Y-78740000D02*
X143510000Y-78740000D01*
X134620000Y-81280000D02*
X137160000Y-81280000D01*
X137160000Y-78740000D02*
X139700000Y-76200000D01*
X139700000Y-76200000D02*
X143510000Y-76200000D01*
X134620000Y-78740000D02*
X137160000Y-78740000D01*
X137160000Y-76200000D02*
X139700000Y-73660000D01*
X139700000Y-73660000D02*
X143510000Y-73660000D01*
X134620000Y-76200000D02*
X137160000Y-76200000D01*
X189230000Y-88900000D02*
X187960000Y-90170000D01*
X187960000Y-90170000D02*
X181610000Y-90170000D01*
X181610000Y-90170000D02*
X180340000Y-91440000D01*
X180340000Y-91440000D02*
X175260000Y-91440000D01*
X191770000Y-88900000D02*
X189230000Y-88900000D01*
X189230000Y-86360000D02*
X187960000Y-87630000D01*
X187960000Y-87630000D02*
X181610000Y-87630000D01*
X181610000Y-87630000D02*
X180340000Y-88900000D01*
X180340000Y-88900000D02*
X175260000Y-88900000D01*
X191770000Y-86360000D02*
X189230000Y-86360000D01*
X175260000Y-86360000D02*
X184150000Y-86360000D01*
X175260000Y-83820000D02*
X184150000Y-83820000D01*
X189230000Y-81280000D02*
X187960000Y-80010000D01*
X187960000Y-80010000D02*
X181610000Y-80010000D01*
X181610000Y-80010000D02*
X180340000Y-81280000D01*
X180340000Y-81280000D02*
X175260000Y-81280000D01*
X191770000Y-81280000D02*
X189230000Y-81280000D01*
X175260000Y-78740000D02*
X184150000Y-78740000D01*
X181610000Y-76200000D02*
X179070000Y-73660000D01*
X179070000Y-73660000D02*
X175260000Y-73660000D01*
X184150000Y-76200000D02*
X181610000Y-76200000D01*
X189230000Y-78740000D02*
X187960000Y-77470000D01*
X187960000Y-77470000D02*
X180340000Y-77470000D01*
X180340000Y-77470000D02*
X179070000Y-76200000D01*
X179070000Y-76200000D02*
X175260000Y-76200000D01*
X191770000Y-78740000D02*
X189230000Y-78740000D01*
X139700000Y-86360000D02*
X143510000Y-86360000D01*
X137160000Y-88900000D02*
X139700000Y-86360000D01*
X134620000Y-91440000D02*
X137160000Y-91440000D01*
X139700000Y-88900000D02*
X143510000Y-88900000D01*
X137160000Y-91440000D02*
X139700000Y-88900000D01*
X135890000Y-73660000D02*
X137160000Y-73660000D01*
X148590000Y-76200000D02*
X151130000Y-76200000D01*
X147320000Y-74930000D02*
X148590000Y-76200000D01*
X147320000Y-72390000D02*
X147320000Y-74930000D01*
X146050000Y-71120000D02*
X147320000Y-72390000D01*
X139700000Y-71120000D02*
X146050000Y-71120000D01*
X137160000Y-73660000D02*
X139700000Y-71120000D01*
X134620000Y-73660000D02*
X135890000Y-73660000D01*
X172720000Y-100330000D02*
X171450000Y-99060000D01*
X166370000Y-99060000D02*
X152400000Y-99060000D01*
X171450000Y-99060000D02*
X166370000Y-99060000D01*
X152400000Y-99060000D02*
X151130000Y-100330000D01*
X151130000Y-100330000D02*
X151130000Y-101600000D01*
X172720000Y-101600000D02*
X172720000Y-100330000D01*
D22*
X101600000Y-134620000D02*
X101600000Y-123825000D01*
X102870000Y-135890000D02*
X101600000Y-134620000D01*
X123190000Y-135890000D02*
X102870000Y-135890000D01*
X129540000Y-129540000D02*
X123190000Y-135890000D01*
X130810000Y-129540000D02*
X129540000Y-129540000D01*
X101600000Y-76835000D02*
X101600000Y-104444800D01*
X157353000Y-129540000D02*
X157480000Y-129413000D01*
X149860000Y-129540000D02*
X157353000Y-129540000D01*
X100330000Y-123190000D02*
X101600000Y-123825000D01*
X97790000Y-120650000D02*
X100330000Y-123190000D01*
X97790000Y-106680000D02*
X97790000Y-120650000D01*
X100025200Y-104444800D02*
X97790000Y-106680000D01*
X101600000Y-104444800D02*
X100025200Y-104444800D01*
X140970000Y-129540000D02*
X143510000Y-132080000D01*
X143510000Y-132080000D02*
X147320000Y-132080000D01*
X147320000Y-132080000D02*
X149860000Y-129540000D01*
X130810000Y-129540000D02*
X140970000Y-129540000D01*
X157480000Y-129540000D02*
X160020000Y-132080000D01*
X160020000Y-132080000D02*
X190500000Y-132080000D01*
X190500000Y-132080000D02*
X190500000Y-129540000D01*
X157480000Y-129413000D02*
X157480000Y-129540000D01*
X191770000Y-133350000D02*
X198120000Y-133350000D01*
X190500000Y-132080000D02*
X191770000Y-133350000D01*
X198120000Y-133350000D02*
X191770000Y-133350000D01*
D21*
X168910000Y-101600000D02*
X170180000Y-102870000D01*
X175260000Y-101600000D02*
X184150000Y-101600000D01*
X170180000Y-102870000D02*
X173990000Y-102870000D01*
X173990000Y-102870000D02*
X175260000Y-101600000D01*
X175260000Y-106680000D02*
X184150000Y-106680000D01*
X170180000Y-107950000D02*
X173990000Y-107950000D01*
X173990000Y-107950000D02*
X175260000Y-106680000D01*
X168910000Y-106680000D02*
X170180000Y-107950000D01*
X175260000Y-111760000D02*
X184150000Y-111760000D01*
X170180000Y-113030000D02*
X173990000Y-113030000D01*
X173990000Y-113030000D02*
X175260000Y-111760000D01*
X168910000Y-111760000D02*
X170180000Y-113030000D01*
X168910000Y-116840000D02*
X170180000Y-118110000D01*
X175260000Y-116840000D02*
X184150000Y-116840000D01*
X170180000Y-118110000D02*
X173990000Y-118110000D01*
X173990000Y-118110000D02*
X175260000Y-116840000D01*
X111760000Y-129540000D02*
X125730000Y-129540000D01*
X143510000Y-95250000D02*
X140970000Y-95250000D01*
X144780000Y-96520000D02*
X143510000Y-95250000D01*
X198120000Y-130810000D02*
X194310000Y-130810000D01*
D22*
X187960000Y-127000000D02*
X185420000Y-129540000D01*
X191770000Y-127000000D02*
X187960000Y-127000000D01*
X193040000Y-128270000D02*
X191770000Y-127000000D01*
X193040000Y-129540000D02*
X193040000Y-128270000D01*
X194310000Y-130810000D02*
X193040000Y-129540000D01*
X198120000Y-130810000D02*
X194310000Y-130810000D01*
D21*
X162560000Y-95250000D02*
X162560000Y-80010000D01*
X162560000Y-80010000D02*
X161290000Y-78740000D01*
X161290000Y-78740000D02*
X151130000Y-78740000D01*
X168910000Y-96520000D02*
X163830000Y-96520000D01*
X163830000Y-96520000D02*
X162560000Y-95250000D01*
X110490000Y-115570000D02*
X101904800Y-115570000D01*
X111760000Y-116840000D02*
X110490000Y-115570000D01*
X101904800Y-115570000D02*
X101600000Y-115265200D01*
X113030000Y-64770000D02*
X167640000Y-64770000D01*
X167640000Y-64770000D02*
X196850000Y-64770000D01*
X196850000Y-64770000D02*
X198120000Y-66040000D01*
X198120000Y-66040000D02*
X198120000Y-90170000D01*
X198120000Y-90170000D02*
X196850000Y-91440000D01*
X196850000Y-91440000D02*
X191770000Y-91440000D01*
X140970000Y-99060000D02*
X143510000Y-101600000D01*
X101600000Y-109931200D02*
X109931200Y-109931200D01*
X128270000Y-99060000D02*
X140970000Y-99060000D01*
X119380000Y-99060000D02*
X128270000Y-99060000D01*
X109931200Y-109931200D02*
X110490000Y-109982000D01*
X110490000Y-92710000D02*
X113030000Y-92710000D01*
X113030000Y-92710000D02*
X119380000Y-99060000D01*
X128270000Y-95250000D02*
X128270000Y-99060000D01*
X148590000Y-83820000D02*
X147320000Y-82550000D01*
X147320000Y-82550000D02*
X139700000Y-82550000D01*
X139700000Y-82550000D02*
X137160000Y-85090000D01*
X137160000Y-85090000D02*
X107950000Y-85090000D01*
X107950000Y-116840000D02*
X104140000Y-116840000D01*
X151130000Y-83820000D02*
X148590000Y-83820000D01*
X128270000Y-120650000D02*
X120650000Y-120650000D01*
X114046000Y-114046000D02*
X104140000Y-114046000D01*
X132080000Y-121920000D02*
X129540000Y-121920000D01*
X120650000Y-120650000D02*
X114046000Y-114046000D01*
X129540000Y-121920000D02*
X128270000Y-120650000D01*
X113919000Y-111379000D02*
X104140000Y-111379000D01*
X132080000Y-119380000D02*
X129540000Y-119380000D01*
X129540000Y-119380000D02*
X128270000Y-118110000D01*
X128270000Y-118110000D02*
X120650000Y-118110000D01*
X120650000Y-118110000D02*
X113919000Y-111379000D01*
X132080000Y-116840000D02*
X129540000Y-116840000D01*
X129540000Y-116840000D02*
X128270000Y-115570000D01*
X128270000Y-115570000D02*
X120650000Y-115570000D01*
X120650000Y-115570000D02*
X113665000Y-108585000D01*
X113665000Y-108585000D02*
X104140000Y-108585000D01*
X120650000Y-113030000D02*
X128270000Y-113030000D01*
X128270000Y-113030000D02*
X129540000Y-114300000D01*
X129540000Y-114300000D02*
X132080000Y-114300000D01*
X104140000Y-105791000D02*
X113411000Y-105791000D01*
X113411000Y-105791000D02*
X118110000Y-110490000D01*
X118110000Y-110490000D02*
X120650000Y-113030000D01*
X129540000Y-111760000D02*
X128270000Y-110490000D01*
X128270000Y-110490000D02*
X120650000Y-110490000D01*
X120650000Y-110490000D02*
X113157000Y-102997000D01*
X113157000Y-102997000D02*
X104140000Y-102997000D01*
X132080000Y-111760000D02*
X129540000Y-111760000D01*
X113030000Y-100330000D02*
X120650000Y-107950000D01*
X120650000Y-107950000D02*
X128270000Y-107950000D01*
X128270000Y-107950000D02*
X129540000Y-109220000D01*
X129540000Y-109220000D02*
X132080000Y-109220000D01*
X104140000Y-100330000D02*
X113030000Y-100330000D01*
X112776000Y-97536000D02*
X104140000Y-97536000D01*
X132080000Y-106680000D02*
X129540000Y-106680000D01*
X129540000Y-106680000D02*
X128270000Y-105410000D01*
X128270000Y-105410000D02*
X120650000Y-105410000D01*
X120650000Y-105410000D02*
X112776000Y-97536000D01*
X112522000Y-94742000D02*
X104140000Y-94742000D01*
X132080000Y-104140000D02*
X129540000Y-104140000D01*
X129540000Y-104140000D02*
X128270000Y-102870000D01*
X128270000Y-102870000D02*
X120650000Y-102870000D01*
X120650000Y-102870000D02*
X112522000Y-94742000D01*
X108712000Y-91948000D02*
X110490000Y-90170000D01*
X110490000Y-90170000D02*
X111760000Y-90170000D01*
X111760000Y-67310000D02*
X194310000Y-67310000D01*
X194310000Y-67310000D02*
X195580000Y-68580000D01*
X195580000Y-68580000D02*
X195580000Y-74930000D01*
X195580000Y-74930000D02*
X194310000Y-76200000D01*
X194310000Y-76200000D02*
X191770000Y-76200000D01*
X104140000Y-91948000D02*
X108712000Y-91948000D01*
X108839000Y-89281000D02*
X110490000Y-87630000D01*
X110490000Y-66040000D02*
X172720000Y-66040000D01*
X172720000Y-66040000D02*
X195580000Y-66040000D01*
X195580000Y-66040000D02*
X196850000Y-67310000D01*
X196850000Y-67310000D02*
X196850000Y-82550000D01*
X196850000Y-82550000D02*
X195580000Y-83820000D01*
X195580000Y-83820000D02*
X191770000Y-83820000D01*
X104140000Y-89281000D02*
X108839000Y-89281000D01*
X104140000Y-86360000D02*
X107950000Y-81280000D01*
X107950000Y-81280000D02*
X107950000Y-71120000D01*
X107950000Y-71120000D02*
X109220000Y-69850000D01*
X109220000Y-69850000D02*
X170180000Y-69850000D01*
X170180000Y-69850000D02*
X171450000Y-71120000D01*
X171450000Y-71120000D02*
X171450000Y-81280000D01*
X171450000Y-81280000D02*
X172720000Y-82550000D01*
X172720000Y-82550000D02*
X181610000Y-82550000D01*
X181610000Y-82550000D02*
X182880000Y-81280000D01*
X182880000Y-81280000D02*
X184150000Y-81280000D01*
X104140000Y-86487000D02*
X104140000Y-86360000D01*
X184150000Y-69850000D02*
X184150000Y-73660000D01*
X104140000Y-83693000D02*
X104267000Y-83693000D01*
X104267000Y-83693000D02*
X106680000Y-81280000D01*
X106680000Y-81280000D02*
X106680000Y-69850000D01*
X106680000Y-69850000D02*
X107950000Y-68580000D01*
X107950000Y-68580000D02*
X182880000Y-68580000D01*
X182880000Y-68580000D02*
X184150000Y-69850000D01*
X148590000Y-81280000D02*
X147320000Y-80010000D01*
X147320000Y-80010000D02*
X139700000Y-80010000D01*
X139700000Y-80010000D02*
X137160000Y-82550000D01*
X137160000Y-82550000D02*
X110490000Y-82550000D01*
X110490000Y-82550000D02*
X109220000Y-82550000D01*
X109220000Y-112776000D02*
X108915200Y-112725200D01*
X108915200Y-112725200D02*
X101600000Y-112725200D01*
X151130000Y-81280000D02*
X148590000Y-81280000D01*
X162560000Y-121920000D02*
X161290000Y-123190000D01*
X161290000Y-123190000D02*
X161290000Y-125730000D01*
X161290000Y-125730000D02*
X160020000Y-127000000D01*
X160020000Y-127000000D02*
X109220000Y-127000000D01*
X184150000Y-121920000D02*
X162560000Y-121920000D01*
X151130000Y-91440000D02*
X158750000Y-91440000D01*
X160020000Y-121920000D02*
X151130000Y-121920000D01*
X149860000Y-119380000D02*
X151130000Y-119380000D01*
X148590000Y-120650000D02*
X149860000Y-119380000D01*
X124460000Y-119380000D02*
X128270000Y-119380000D01*
X128270000Y-119380000D02*
X129540000Y-120650000D01*
X129540000Y-120650000D02*
X148590000Y-120650000D01*
X133350000Y-118110000D02*
X134620000Y-117348000D01*
X129540000Y-118110000D02*
X133350000Y-118110000D01*
X135890000Y-117348000D02*
X137160000Y-118110000D01*
X137160000Y-118110000D02*
X148590000Y-118110000D01*
X148590000Y-118110000D02*
X149860000Y-116840000D01*
X128270000Y-116840000D02*
X129540000Y-118110000D01*
X134620000Y-117348000D02*
X135890000Y-117348000D01*
X149860000Y-116840000D02*
X151130000Y-116840000D01*
X124460000Y-116840000D02*
X128270000Y-116840000D01*
X160020000Y-114300000D02*
X151130000Y-114300000D01*
X151130000Y-88900000D02*
X160020000Y-88900000D01*
X161290000Y-109220000D02*
X153670000Y-109220000D01*
X153670000Y-109220000D02*
X151130000Y-111760000D01*
X151130000Y-86360000D02*
X161290000Y-86360000D01*
X128270000Y-114300000D02*
X129540000Y-115570000D01*
X129540000Y-115570000D02*
X133350000Y-115570000D01*
X139700000Y-110490000D02*
X148590000Y-110490000D01*
X124460000Y-114300000D02*
X128270000Y-114300000D01*
X134620000Y-114300000D02*
X139700000Y-114300000D01*
X148590000Y-110490000D02*
X149860000Y-109220000D01*
X149860000Y-109220000D02*
X151130000Y-109220000D01*
X133350000Y-115570000D02*
X134620000Y-114300000D01*
X149860000Y-106680000D02*
X151130000Y-106680000D01*
X124460000Y-111760000D02*
X128270000Y-111760000D01*
X138430000Y-107950000D02*
X148590000Y-107950000D01*
X129540000Y-113030000D02*
X138430000Y-113030000D01*
X148590000Y-107950000D02*
X149860000Y-106680000D01*
X128270000Y-111760000D02*
X129540000Y-113030000D01*
X144780000Y-104140000D02*
X146050000Y-105410000D01*
X146050000Y-105410000D02*
X162560000Y-105410000D01*
X162560000Y-119380000D02*
X184150000Y-119380000D01*
X143510000Y-104140000D02*
X144780000Y-104140000D01*
X124460000Y-109220000D02*
X128270000Y-109220000D01*
X128270000Y-109220000D02*
X129540000Y-110490000D01*
X129540000Y-110490000D02*
X134620000Y-110490000D01*
X134620000Y-106680000D02*
X143510000Y-106680000D01*
X134620000Y-107950000D02*
X135890000Y-109220000D01*
X128270000Y-106680000D02*
X129540000Y-107950000D01*
X129540000Y-107950000D02*
X134620000Y-107950000D01*
X135890000Y-109220000D02*
X143510000Y-109220000D01*
X124460000Y-106680000D02*
X128270000Y-106680000D01*
X146050000Y-113030000D02*
X167640000Y-113030000D01*
X167640000Y-113030000D02*
X168910000Y-114300000D01*
X168910000Y-114300000D02*
X184150000Y-114300000D01*
X143510000Y-111760000D02*
X144780000Y-111760000D01*
X144780000Y-111760000D02*
X146050000Y-113030000D01*
D23*
X163830000Y-109220000D02*
X184150000Y-109220000D01*
X143510000Y-114300000D02*
X144780000Y-114300000D01*
X144780000Y-114300000D02*
X146050000Y-115570000D01*
X146050000Y-115570000D02*
X163830000Y-115570000D01*
D21*
X128270000Y-104140000D02*
X129540000Y-105410000D01*
X138430000Y-116840000D02*
X143510000Y-116840000D01*
X129540000Y-105410000D02*
X137160000Y-105410000D01*
X124460000Y-104140000D02*
X128270000Y-104140000D01*
X137160000Y-116078000D02*
X138430000Y-116840000D01*
X124460000Y-101600000D02*
X129540000Y-101600000D01*
X137160000Y-119380000D02*
X143510000Y-119380000D01*
X130810000Y-102870000D02*
X135890000Y-102870000D01*
X129540000Y-101600000D02*
X130810000Y-102870000D01*
X135890000Y-119380000D02*
X137160000Y-119380000D01*
X148590000Y-121920000D02*
X149860000Y-120650000D01*
X149860000Y-120650000D02*
X180340000Y-120650000D01*
X180340000Y-104140000D02*
X184150000Y-104140000D01*
X143510000Y-121920000D02*
X148590000Y-121920000D01*
M02*
