G04 #@! TF.FileFunction,Copper,L1,Top,Signal*
%FSLAX46Y46*%
G04 Gerber Fmt 4.6, Leading zero omitted, Abs format (unit mm)*
G04 Created by KiCad (PCBNEW 4.0.5+dfsg1-4+deb9u1) date Mon Sep 26 08:33:47 2022*
%MOMM*%
%LPD*%
G01*
G04 APERTURE LIST*
%ADD10C,0.100000*%
%ADD11C,0.381000*%
%ADD12R,1.397000X1.397000*%
%ADD13C,1.397000*%
%ADD14C,1.524000*%
%ADD15C,3.810000*%
%ADD16R,1.524000X1.524000*%
%ADD17R,1.778000X1.778000*%
%ADD18C,1.778000*%
%ADD19C,1.099820*%
%ADD20C,0.350520*%
%ADD21C,1.000760*%
%ADD22C,0.299720*%
G04 APERTURE END LIST*
D10*
D11*
X237490000Y-63500000D02*
X194310000Y-63500000D01*
X237490000Y-137160000D02*
X237490000Y-63500000D01*
X196850000Y-137160000D02*
X237490000Y-137160000D01*
X96520000Y-137160000D02*
X196850000Y-137160000D01*
X96520000Y-63500000D02*
X96520000Y-137160000D01*
X194310000Y-63500000D02*
X96520000Y-63500000D01*
D12*
X198120000Y-130810000D03*
D13*
X198120000Y-133350000D03*
D12*
X175260000Y-73660000D03*
D13*
X175260000Y-76200000D03*
X175260000Y-78740000D03*
X175260000Y-81280000D03*
X175260000Y-83820000D03*
X175260000Y-86360000D03*
X175260000Y-88900000D03*
X175260000Y-91440000D03*
D12*
X134620000Y-73660000D03*
D13*
X134620000Y-76200000D03*
X134620000Y-78740000D03*
X134620000Y-81280000D03*
X134620000Y-83820000D03*
X134620000Y-86360000D03*
X134620000Y-88900000D03*
X134620000Y-91440000D03*
D12*
X124460000Y-73660000D03*
D13*
X124460000Y-76200000D03*
X124460000Y-78740000D03*
X124460000Y-81280000D03*
X124460000Y-83820000D03*
X124460000Y-86360000D03*
X124460000Y-88900000D03*
X124460000Y-91440000D03*
D12*
X172720000Y-101600000D03*
D13*
X175260000Y-101600000D03*
D12*
X172720000Y-106680000D03*
D13*
X175260000Y-106680000D03*
D12*
X172720000Y-111760000D03*
D13*
X175260000Y-111760000D03*
D12*
X172720000Y-116840000D03*
D13*
X175260000Y-116840000D03*
D14*
X156210000Y-96520000D03*
X168910000Y-96520000D03*
X121920000Y-133350000D03*
X134620000Y-133350000D03*
X111760000Y-129540000D03*
X111760000Y-116840000D03*
X156210000Y-101600000D03*
X168910000Y-101600000D03*
X156210000Y-106680000D03*
X168910000Y-106680000D03*
X156210000Y-116840000D03*
X168910000Y-116840000D03*
X156210000Y-111760000D03*
X168910000Y-111760000D03*
X140970000Y-95250000D03*
X128270000Y-95250000D03*
D15*
X101600000Y-76835000D03*
X101600000Y-123825000D03*
D16*
X104140000Y-116840000D03*
D14*
X104140000Y-114046000D03*
X104140000Y-111379000D03*
X104140000Y-108585000D03*
X104140000Y-105791000D03*
X104140000Y-102997000D03*
X104140000Y-100330000D03*
X104140000Y-97536000D03*
X104140000Y-94742000D03*
X104140000Y-91948000D03*
X104140000Y-89281000D03*
X104140000Y-86487000D03*
X104140000Y-83693000D03*
X101600000Y-115265200D03*
X101600000Y-112725200D03*
X101600000Y-109931200D03*
X101600000Y-107188000D03*
X101600000Y-104444800D03*
X101600000Y-101650800D03*
X101600000Y-98907600D03*
X101600000Y-96164400D03*
X101600000Y-93319600D03*
X101600000Y-90627200D03*
X101600000Y-87884000D03*
X101600000Y-85090000D03*
D17*
X157480000Y-124333000D03*
D18*
X157480000Y-129413000D03*
D13*
X185420000Y-129540000D03*
X190500000Y-129540000D03*
X144780000Y-129540000D03*
X149860000Y-129540000D03*
X144780000Y-96520000D03*
X149860000Y-96520000D03*
X125730000Y-129540000D03*
X130810000Y-129540000D03*
X185420000Y-96520000D03*
X190500000Y-96520000D03*
D12*
X151130000Y-124460000D03*
D13*
X151130000Y-121920000D03*
X151130000Y-119380000D03*
X151130000Y-116840000D03*
X151130000Y-114300000D03*
X151130000Y-111760000D03*
X151130000Y-109220000D03*
X151130000Y-106680000D03*
X151130000Y-104140000D03*
X151130000Y-101600000D03*
X143510000Y-101600000D03*
X143510000Y-104140000D03*
X143510000Y-106680000D03*
X143510000Y-109220000D03*
X143510000Y-111760000D03*
X143510000Y-114300000D03*
X143510000Y-116840000D03*
X143510000Y-119380000D03*
X143510000Y-121920000D03*
X143510000Y-124460000D03*
D12*
X132080000Y-124460000D03*
D13*
X132080000Y-121920000D03*
X132080000Y-119380000D03*
X132080000Y-116840000D03*
X132080000Y-114300000D03*
X132080000Y-111760000D03*
X132080000Y-109220000D03*
X132080000Y-106680000D03*
X132080000Y-104140000D03*
X132080000Y-101600000D03*
X124460000Y-101600000D03*
X124460000Y-104140000D03*
X124460000Y-106680000D03*
X124460000Y-109220000D03*
X124460000Y-111760000D03*
X124460000Y-114300000D03*
X124460000Y-116840000D03*
X124460000Y-119380000D03*
X124460000Y-121920000D03*
X124460000Y-124460000D03*
D12*
X191770000Y-124460000D03*
D13*
X191770000Y-121920000D03*
X191770000Y-119380000D03*
X191770000Y-116840000D03*
X191770000Y-114300000D03*
X191770000Y-111760000D03*
X191770000Y-109220000D03*
X191770000Y-106680000D03*
X191770000Y-104140000D03*
X191770000Y-101600000D03*
X184150000Y-101600000D03*
X184150000Y-104140000D03*
X184150000Y-106680000D03*
X184150000Y-109220000D03*
X184150000Y-111760000D03*
X184150000Y-114300000D03*
X184150000Y-116840000D03*
X184150000Y-119380000D03*
X184150000Y-121920000D03*
X184150000Y-124460000D03*
D12*
X191770000Y-91440000D03*
D13*
X191770000Y-88900000D03*
X191770000Y-86360000D03*
X191770000Y-83820000D03*
X191770000Y-81280000D03*
X191770000Y-78740000D03*
X191770000Y-76200000D03*
X191770000Y-73660000D03*
X184150000Y-73660000D03*
X184150000Y-76200000D03*
X184150000Y-78740000D03*
X184150000Y-81280000D03*
X184150000Y-83820000D03*
X184150000Y-86360000D03*
X184150000Y-88900000D03*
X184150000Y-91440000D03*
D12*
X151130000Y-91440000D03*
D13*
X151130000Y-88900000D03*
X151130000Y-86360000D03*
X151130000Y-83820000D03*
X151130000Y-81280000D03*
X151130000Y-78740000D03*
X151130000Y-76200000D03*
X151130000Y-73660000D03*
X143510000Y-73660000D03*
X143510000Y-76200000D03*
X143510000Y-78740000D03*
X143510000Y-81280000D03*
X143510000Y-83820000D03*
X143510000Y-86360000D03*
X143510000Y-88900000D03*
X143510000Y-91440000D03*
D19*
X113030000Y-64770000D03*
X110490000Y-109982000D03*
X110490000Y-92710000D03*
X107950000Y-85090000D03*
X107950000Y-116840000D03*
X111760000Y-90170000D03*
X111760000Y-67310000D03*
X110490000Y-87630000D03*
X110490000Y-66040000D03*
X109220000Y-82550000D03*
X109220000Y-112776000D03*
X109220000Y-127000000D03*
X158750000Y-91440000D03*
X160020000Y-121920000D03*
X160020000Y-114300000D03*
X160020000Y-88900000D03*
X161290000Y-86360000D03*
X161290000Y-109220000D03*
X139700000Y-110490000D03*
X139700000Y-114300000D03*
X138430000Y-107950000D03*
X138430000Y-113030000D03*
X162560000Y-105410000D03*
X162560000Y-119380000D03*
X134620000Y-106680000D03*
X134620000Y-110490000D03*
X163830000Y-109220000D03*
X163830000Y-115570000D03*
X137160000Y-105410000D03*
X137160000Y-116078000D03*
X135890000Y-119380000D03*
X135890000Y-102870000D03*
X180340000Y-120650000D03*
X180340000Y-104140000D03*
D20*
X124460000Y-101600000D02*
X124460000Y-91440000D01*
D21*
X191770000Y-97790000D02*
X186690000Y-92710000D01*
X186690000Y-92710000D02*
X186690000Y-90170000D01*
X186690000Y-90170000D02*
X185420000Y-88900000D01*
X191770000Y-124460000D02*
X191770000Y-97790000D01*
D20*
X172720000Y-101600000D02*
X172720000Y-116840000D01*
D21*
X125730000Y-121920000D02*
X127000000Y-123190000D01*
X127000000Y-123190000D02*
X127000000Y-125730000D01*
X127000000Y-125730000D02*
X130810000Y-129540000D01*
X151130000Y-128270000D02*
X151130000Y-124460000D01*
X149860000Y-129540000D02*
X151130000Y-128270000D01*
X191770000Y-128270000D02*
X191770000Y-124460000D01*
X190500000Y-129540000D02*
X191770000Y-128270000D01*
X149860000Y-73660000D02*
X148590000Y-74930000D01*
X148590000Y-74930000D02*
X148590000Y-95250000D01*
X148590000Y-95250000D02*
X151130000Y-97790000D01*
X151130000Y-97790000D02*
X151130000Y-101600000D01*
X151130000Y-73660000D02*
X149860000Y-73660000D01*
X128270000Y-119380000D02*
X128270000Y-102870000D01*
X128270000Y-102870000D02*
X129540000Y-101600000D01*
X129540000Y-101600000D02*
X132080000Y-101600000D01*
X125730000Y-121920000D02*
X128270000Y-119380000D01*
X124460000Y-121920000D02*
X125730000Y-121920000D01*
X149860000Y-101600000D02*
X151130000Y-101600000D01*
X148590000Y-102870000D02*
X149860000Y-101600000D01*
X148590000Y-121920000D02*
X148590000Y-102870000D01*
X151130000Y-124460000D02*
X148590000Y-121920000D01*
X186690000Y-87630000D02*
X186690000Y-76200000D01*
X186690000Y-76200000D02*
X189230000Y-73660000D01*
X189230000Y-73660000D02*
X191770000Y-73660000D01*
X185420000Y-88900000D02*
X186690000Y-87630000D01*
X184150000Y-88900000D02*
X185420000Y-88900000D01*
X186690000Y-124460000D02*
X187960000Y-123190000D01*
X187960000Y-123190000D02*
X187960000Y-99060000D01*
X187960000Y-99060000D02*
X185420000Y-96520000D01*
X184150000Y-124460000D02*
X186690000Y-124460000D01*
X143510000Y-124460000D02*
X143510000Y-128270000D01*
D22*
X156210000Y-101600000D02*
X156210000Y-116840000D01*
D21*
X184150000Y-95250000D02*
X185420000Y-96520000D01*
X184150000Y-91440000D02*
X184150000Y-95250000D01*
D22*
X157480000Y-118110000D02*
X156210000Y-116840000D01*
X157480000Y-124333000D02*
X157480000Y-118110000D01*
D21*
X143510000Y-128270000D02*
X144780000Y-129540000D01*
X184150000Y-128270000D02*
X184150000Y-124460000D01*
X185420000Y-129540000D02*
X184150000Y-128270000D01*
X146050000Y-121920000D02*
X143510000Y-124460000D01*
X146050000Y-97790000D02*
X146050000Y-121920000D01*
X144780000Y-96520000D02*
X146050000Y-97790000D01*
X146050000Y-91440000D02*
X146050000Y-95250000D01*
X146050000Y-95250000D02*
X144780000Y-96520000D01*
X146050000Y-91440000D02*
X143510000Y-91440000D01*
D22*
X156210000Y-100330000D02*
X156210000Y-101600000D01*
X156210000Y-96520000D02*
X156210000Y-100330000D01*
D21*
X125730000Y-133350000D02*
X121920000Y-133350000D01*
X125730000Y-129540000D02*
X125730000Y-133350000D01*
X124460000Y-128270000D02*
X125730000Y-129540000D01*
X124460000Y-124460000D02*
X124460000Y-128270000D01*
X184150000Y-133350000D02*
X185420000Y-133350000D01*
X154940000Y-133350000D02*
X184150000Y-133350000D01*
X185420000Y-133350000D02*
X185420000Y-129540000D01*
X144780000Y-133350000D02*
X154940000Y-133350000D01*
X139700000Y-133350000D02*
X144780000Y-133350000D01*
X137160000Y-135890000D02*
X139700000Y-133350000D01*
X132080000Y-135890000D02*
X137160000Y-135890000D01*
X129540000Y-133350000D02*
X132080000Y-135890000D01*
X125730000Y-133350000D02*
X129540000Y-133350000D01*
X156337000Y-124333000D02*
X154940000Y-125730000D01*
X154940000Y-125730000D02*
X154940000Y-133350000D01*
X157480000Y-124333000D02*
X156337000Y-124333000D01*
X144780000Y-129540000D02*
X144780000Y-133350000D01*
D20*
X134620000Y-133350000D02*
X134620000Y-127000000D01*
X134620000Y-127000000D02*
X132080000Y-124460000D01*
X111760000Y-92710000D02*
X113030000Y-91440000D01*
X113030000Y-91440000D02*
X113030000Y-64770000D01*
X111760000Y-116840000D02*
X111760000Y-92710000D01*
X110490000Y-109982000D02*
X110490000Y-92710000D01*
X107950000Y-85090000D02*
X107950000Y-116840000D01*
X111760000Y-90170000D02*
X111760000Y-67310000D01*
X110490000Y-87630000D02*
X110490000Y-66040000D01*
X109220000Y-82550000D02*
X109220000Y-112776000D01*
X109220000Y-127000000D02*
X109220000Y-112776000D01*
X158750000Y-91440000D02*
X158750000Y-115570000D01*
X158750000Y-115570000D02*
X160020000Y-116840000D01*
X160020000Y-116840000D02*
X160020000Y-121920000D01*
X115570000Y-119380000D02*
X124460000Y-119380000D01*
X114300000Y-118110000D02*
X115570000Y-119380000D01*
X114300000Y-116840000D02*
X114300000Y-118110000D01*
X114300000Y-74930000D02*
X114300000Y-116840000D01*
X124460000Y-73660000D02*
X115570000Y-73660000D01*
X115570000Y-73660000D02*
X114300000Y-74930000D01*
X116840000Y-76200000D02*
X124460000Y-76200000D01*
X115570000Y-77470000D02*
X116840000Y-76200000D01*
X115570000Y-115570000D02*
X115570000Y-77470000D01*
X116840000Y-116840000D02*
X115570000Y-115570000D01*
X124460000Y-116840000D02*
X116840000Y-116840000D01*
X160020000Y-88900000D02*
X160020000Y-114300000D01*
X161290000Y-86360000D02*
X161290000Y-109220000D01*
X139700000Y-114300000D02*
X139700000Y-110490000D01*
X118110000Y-78740000D02*
X116840000Y-80010000D01*
X116840000Y-80010000D02*
X116840000Y-113030000D01*
X116840000Y-113030000D02*
X118110000Y-114300000D01*
X118110000Y-114300000D02*
X124460000Y-114300000D01*
X124460000Y-78740000D02*
X118110000Y-78740000D01*
X118110000Y-110490000D02*
X118110000Y-82550000D01*
X118110000Y-82550000D02*
X119380000Y-81280000D01*
X119380000Y-81280000D02*
X124460000Y-81280000D01*
X124460000Y-111760000D02*
X119380000Y-111760000D01*
X119380000Y-111760000D02*
X118110000Y-110490000D01*
X138430000Y-113030000D02*
X138430000Y-107950000D01*
X162560000Y-105410000D02*
X162560000Y-119380000D01*
X124460000Y-83820000D02*
X120650000Y-83820000D01*
X120650000Y-109220000D02*
X124460000Y-109220000D01*
X134620000Y-110490000D02*
X134620000Y-106680000D01*
X120650000Y-83820000D02*
X119380000Y-85090000D01*
X119380000Y-85090000D02*
X119380000Y-107950000D01*
X119380000Y-107950000D02*
X120650000Y-109220000D01*
X124460000Y-86360000D02*
X121920000Y-86360000D01*
X120650000Y-87630000D02*
X120650000Y-105410000D01*
X121920000Y-86360000D02*
X120650000Y-87630000D01*
X120650000Y-105410000D02*
X121920000Y-106680000D01*
X121920000Y-106680000D02*
X124460000Y-106680000D01*
D22*
X163830000Y-115570000D02*
X163830000Y-109220000D01*
D20*
X124460000Y-104140000D02*
X123190000Y-104140000D01*
X137160000Y-105410000D02*
X137160000Y-116078000D01*
X123190000Y-104140000D02*
X121920000Y-102870000D01*
X121920000Y-102870000D02*
X121920000Y-90170000D01*
X121920000Y-90170000D02*
X123190000Y-88900000D01*
X123190000Y-88900000D02*
X124460000Y-88900000D01*
X135890000Y-102870000D02*
X135890000Y-119380000D01*
X180340000Y-120650000D02*
X180340000Y-104140000D01*
M02*
