G04 #@! TF.FileFunction,Soldermask,Bot*
%FSLAX46Y46*%
G04 Gerber Fmt 4.6, Leading zero omitted, Abs format (unit mm)*
G04 Created by KiCad (PCBNEW 4.0.5+dfsg1-4+deb9u1) date Mon Sep 26 08:33:48 2022*
%MOMM*%
%LPD*%
G01*
G04 APERTURE LIST*
%ADD10C,0.100000*%
%ADD11C,0.381000*%
%ADD12R,1.797000X1.797000*%
%ADD13C,1.797000*%
%ADD14C,1.924000*%
%ADD15C,4.210000*%
%ADD16R,1.924000X1.924000*%
%ADD17R,2.178000X2.178000*%
%ADD18C,2.178000*%
G04 APERTURE END LIST*
D10*
D11*
X237490000Y-63500000D02*
X194310000Y-63500000D01*
X237490000Y-137160000D02*
X237490000Y-63500000D01*
X196850000Y-137160000D02*
X237490000Y-137160000D01*
X96520000Y-137160000D02*
X196850000Y-137160000D01*
X96520000Y-63500000D02*
X96520000Y-137160000D01*
X194310000Y-63500000D02*
X96520000Y-63500000D01*
D12*
X198120000Y-130810000D03*
D13*
X198120000Y-133350000D03*
D12*
X175260000Y-73660000D03*
D13*
X175260000Y-76200000D03*
X175260000Y-78740000D03*
X175260000Y-81280000D03*
X175260000Y-83820000D03*
X175260000Y-86360000D03*
X175260000Y-88900000D03*
X175260000Y-91440000D03*
D12*
X134620000Y-73660000D03*
D13*
X134620000Y-76200000D03*
X134620000Y-78740000D03*
X134620000Y-81280000D03*
X134620000Y-83820000D03*
X134620000Y-86360000D03*
X134620000Y-88900000D03*
X134620000Y-91440000D03*
D12*
X124460000Y-73660000D03*
D13*
X124460000Y-76200000D03*
X124460000Y-78740000D03*
X124460000Y-81280000D03*
X124460000Y-83820000D03*
X124460000Y-86360000D03*
X124460000Y-88900000D03*
X124460000Y-91440000D03*
D12*
X172720000Y-101600000D03*
D13*
X175260000Y-101600000D03*
D12*
X172720000Y-106680000D03*
D13*
X175260000Y-106680000D03*
D12*
X172720000Y-111760000D03*
D13*
X175260000Y-111760000D03*
D12*
X172720000Y-116840000D03*
D13*
X175260000Y-116840000D03*
D14*
X156210000Y-96520000D03*
X168910000Y-96520000D03*
X121920000Y-133350000D03*
X134620000Y-133350000D03*
X111760000Y-129540000D03*
X111760000Y-116840000D03*
X156210000Y-101600000D03*
X168910000Y-101600000D03*
X156210000Y-106680000D03*
X168910000Y-106680000D03*
X156210000Y-116840000D03*
X168910000Y-116840000D03*
X156210000Y-111760000D03*
X168910000Y-111760000D03*
X140970000Y-95250000D03*
X128270000Y-95250000D03*
D15*
X101600000Y-76835000D03*
X101600000Y-123825000D03*
D16*
X104140000Y-116840000D03*
D14*
X104140000Y-114046000D03*
X104140000Y-111379000D03*
X104140000Y-108585000D03*
X104140000Y-105791000D03*
X104140000Y-102997000D03*
X104140000Y-100330000D03*
X104140000Y-97536000D03*
X104140000Y-94742000D03*
X104140000Y-91948000D03*
X104140000Y-89281000D03*
X104140000Y-86487000D03*
X104140000Y-83693000D03*
X101600000Y-115265200D03*
X101600000Y-112725200D03*
X101600000Y-109931200D03*
X101600000Y-107188000D03*
X101600000Y-104444800D03*
X101600000Y-101650800D03*
X101600000Y-98907600D03*
X101600000Y-96164400D03*
X101600000Y-93319600D03*
X101600000Y-90627200D03*
X101600000Y-87884000D03*
X101600000Y-85090000D03*
D17*
X157480000Y-124333000D03*
D18*
X157480000Y-129413000D03*
D13*
X185420000Y-129540000D03*
X190500000Y-129540000D03*
X144780000Y-129540000D03*
X149860000Y-129540000D03*
X144780000Y-96520000D03*
X149860000Y-96520000D03*
X125730000Y-129540000D03*
X130810000Y-129540000D03*
X185420000Y-96520000D03*
X190500000Y-96520000D03*
D12*
X151130000Y-124460000D03*
D13*
X151130000Y-121920000D03*
X151130000Y-119380000D03*
X151130000Y-116840000D03*
X151130000Y-114300000D03*
X151130000Y-111760000D03*
X151130000Y-109220000D03*
X151130000Y-106680000D03*
X151130000Y-104140000D03*
X151130000Y-101600000D03*
X143510000Y-101600000D03*
X143510000Y-104140000D03*
X143510000Y-106680000D03*
X143510000Y-109220000D03*
X143510000Y-111760000D03*
X143510000Y-114300000D03*
X143510000Y-116840000D03*
X143510000Y-119380000D03*
X143510000Y-121920000D03*
X143510000Y-124460000D03*
D12*
X132080000Y-124460000D03*
D13*
X132080000Y-121920000D03*
X132080000Y-119380000D03*
X132080000Y-116840000D03*
X132080000Y-114300000D03*
X132080000Y-111760000D03*
X132080000Y-109220000D03*
X132080000Y-106680000D03*
X132080000Y-104140000D03*
X132080000Y-101600000D03*
X124460000Y-101600000D03*
X124460000Y-104140000D03*
X124460000Y-106680000D03*
X124460000Y-109220000D03*
X124460000Y-111760000D03*
X124460000Y-114300000D03*
X124460000Y-116840000D03*
X124460000Y-119380000D03*
X124460000Y-121920000D03*
X124460000Y-124460000D03*
D12*
X191770000Y-124460000D03*
D13*
X191770000Y-121920000D03*
X191770000Y-119380000D03*
X191770000Y-116840000D03*
X191770000Y-114300000D03*
X191770000Y-111760000D03*
X191770000Y-109220000D03*
X191770000Y-106680000D03*
X191770000Y-104140000D03*
X191770000Y-101600000D03*
X184150000Y-101600000D03*
X184150000Y-104140000D03*
X184150000Y-106680000D03*
X184150000Y-109220000D03*
X184150000Y-111760000D03*
X184150000Y-114300000D03*
X184150000Y-116840000D03*
X184150000Y-119380000D03*
X184150000Y-121920000D03*
X184150000Y-124460000D03*
D12*
X191770000Y-91440000D03*
D13*
X191770000Y-88900000D03*
X191770000Y-86360000D03*
X191770000Y-83820000D03*
X191770000Y-81280000D03*
X191770000Y-78740000D03*
X191770000Y-76200000D03*
X191770000Y-73660000D03*
X184150000Y-73660000D03*
X184150000Y-76200000D03*
X184150000Y-78740000D03*
X184150000Y-81280000D03*
X184150000Y-83820000D03*
X184150000Y-86360000D03*
X184150000Y-88900000D03*
X184150000Y-91440000D03*
D12*
X151130000Y-91440000D03*
D13*
X151130000Y-88900000D03*
X151130000Y-86360000D03*
X151130000Y-83820000D03*
X151130000Y-81280000D03*
X151130000Y-78740000D03*
X151130000Y-76200000D03*
X151130000Y-73660000D03*
X143510000Y-73660000D03*
X143510000Y-76200000D03*
X143510000Y-78740000D03*
X143510000Y-81280000D03*
X143510000Y-83820000D03*
X143510000Y-86360000D03*
X143510000Y-88900000D03*
X143510000Y-91440000D03*
M02*
