M48
;DRILL file {KiCad 4.0.5+dfsg1-4+deb9u1} date Sun Sep  4 20:05:44 2022
;FORMAT={-:-/ absolute / metric / decimal}
FMAT,2
METRIC,TZ
T1C0.635
T2C0.813
T3C1.016
T4C3.048
%
G90
G05
M71
T1
X107.95Y-85.09
X107.95Y-116.84
X109.22Y-82.55
X109.22Y-112.776
X109.22Y-127.
X110.49Y-66.04
X110.49Y-87.63
X110.49Y-92.71
X110.49Y-109.982
X111.76Y-67.31
X111.76Y-90.17
X113.03Y-64.77
X134.62Y-106.68
X134.62Y-110.49
X135.89Y-102.87
X135.89Y-119.38
X137.16Y-105.41
X137.16Y-116.078
X138.43Y-107.95
X138.43Y-113.03
X139.7Y-110.49
X139.7Y-114.3
X158.75Y-91.44
X160.02Y-88.9
X160.02Y-114.3
X160.02Y-121.92
X161.29Y-86.36
X161.29Y-109.22
X162.56Y-105.41
X162.56Y-119.38
X163.83Y-109.22
X163.83Y-115.57
X180.34Y-104.14
X180.34Y-120.65
T2
X111.76Y-116.84
X111.76Y-129.54
X121.92Y-133.35
X124.46Y-73.66
X124.46Y-76.2
X124.46Y-78.74
X124.46Y-81.28
X124.46Y-83.82
X124.46Y-86.36
X124.46Y-88.9
X124.46Y-91.44
X124.46Y-101.6
X124.46Y-104.14
X124.46Y-106.68
X124.46Y-109.22
X124.46Y-111.76
X124.46Y-114.3
X124.46Y-116.84
X124.46Y-119.38
X124.46Y-121.92
X124.46Y-124.46
X125.73Y-129.54
X128.27Y-95.25
X130.81Y-129.54
X132.08Y-101.6
X132.08Y-104.14
X132.08Y-106.68
X132.08Y-109.22
X132.08Y-111.76
X132.08Y-114.3
X132.08Y-116.84
X132.08Y-119.38
X132.08Y-121.92
X132.08Y-124.46
X134.62Y-73.66
X134.62Y-76.2
X134.62Y-78.74
X134.62Y-81.28
X134.62Y-83.82
X134.62Y-86.36
X134.62Y-88.9
X134.62Y-91.44
X134.62Y-133.35
X140.97Y-95.25
X143.51Y-73.66
X143.51Y-76.2
X143.51Y-78.74
X143.51Y-81.28
X143.51Y-83.82
X143.51Y-86.36
X143.51Y-88.9
X143.51Y-91.44
X143.51Y-101.6
X143.51Y-104.14
X143.51Y-106.68
X143.51Y-109.22
X143.51Y-111.76
X143.51Y-114.3
X143.51Y-116.84
X143.51Y-119.38
X143.51Y-121.92
X143.51Y-124.46
X144.78Y-96.52
X144.78Y-129.54
X149.86Y-96.52
X149.86Y-129.54
X151.13Y-73.66
X151.13Y-76.2
X151.13Y-78.74
X151.13Y-81.28
X151.13Y-83.82
X151.13Y-86.36
X151.13Y-88.9
X151.13Y-91.44
X151.13Y-101.6
X151.13Y-104.14
X151.13Y-106.68
X151.13Y-109.22
X151.13Y-111.76
X151.13Y-114.3
X151.13Y-116.84
X151.13Y-119.38
X151.13Y-121.92
X151.13Y-124.46
X156.21Y-96.52
X156.21Y-101.6
X156.21Y-106.68
X156.21Y-111.76
X156.21Y-116.84
X168.91Y-96.52
X168.91Y-101.6
X168.91Y-106.68
X168.91Y-111.76
X168.91Y-116.84
X172.72Y-101.6
X172.72Y-106.68
X172.72Y-111.76
X172.72Y-116.84
X175.26Y-73.66
X175.26Y-76.2
X175.26Y-78.74
X175.26Y-81.28
X175.26Y-83.82
X175.26Y-86.36
X175.26Y-88.9
X175.26Y-91.44
X175.26Y-101.6
X175.26Y-106.68
X175.26Y-111.76
X175.26Y-116.84
X184.15Y-73.66
X184.15Y-76.2
X184.15Y-78.74
X184.15Y-81.28
X184.15Y-83.82
X184.15Y-86.36
X184.15Y-88.9
X184.15Y-91.44
X184.15Y-101.6
X184.15Y-104.14
X184.15Y-106.68
X184.15Y-109.22
X184.15Y-111.76
X184.15Y-114.3
X184.15Y-116.84
X184.15Y-119.38
X184.15Y-121.92
X184.15Y-124.46
X185.42Y-96.52
X185.42Y-129.54
X190.5Y-96.52
X190.5Y-129.54
X191.77Y-73.66
X191.77Y-76.2
X191.77Y-78.74
X191.77Y-81.28
X191.77Y-83.82
X191.77Y-86.36
X191.77Y-88.9
X191.77Y-91.44
X191.77Y-101.6
X191.77Y-104.14
X191.77Y-106.68
X191.77Y-109.22
X191.77Y-111.76
X191.77Y-114.3
X191.77Y-116.84
X191.77Y-119.38
X191.77Y-121.92
X191.77Y-124.46
X198.12Y-130.81
X198.12Y-133.35
T3
X101.6Y-85.09
X101.6Y-87.884
X101.6Y-90.627
X101.6Y-93.32
X101.6Y-96.164
X101.6Y-98.908
X101.6Y-101.651
X101.6Y-104.445
X101.6Y-107.188
X101.6Y-109.931
X101.6Y-112.725
X101.6Y-115.265
X104.14Y-83.693
X104.14Y-86.487
X104.14Y-89.281
X104.14Y-91.948
X104.14Y-94.742
X104.14Y-97.536
X104.14Y-100.33
X104.14Y-102.997
X104.14Y-105.791
X104.14Y-108.585
X104.14Y-111.379
X104.14Y-114.046
X104.14Y-116.84
X157.48Y-124.333
X157.48Y-129.413
T4
X101.6Y-76.835
X101.6Y-123.825
T0
M30
