G04 #@! TF.FileFunction,Legend,Top*
%FSLAX46Y46*%
G04 Gerber Fmt 4.6, Leading zero omitted, Abs format (unit mm)*
G04 Created by KiCad (PCBNEW 4.0.5+dfsg1-4+deb9u1) date Mon Sep 26 08:33:48 2022*
%MOMM*%
%LPD*%
G01*
G04 APERTURE LIST*
%ADD10C,0.100000*%
%ADD11C,0.381000*%
%ADD12C,0.304800*%
%ADD13C,0.271780*%
%ADD14C,0.203200*%
%ADD15C,0.285750*%
G04 APERTURE END LIST*
D10*
D11*
X237490000Y-63500000D02*
X194310000Y-63500000D01*
X237490000Y-137160000D02*
X237490000Y-63500000D01*
X196850000Y-137160000D02*
X237490000Y-137160000D01*
X96520000Y-137160000D02*
X196850000Y-137160000D01*
X96520000Y-63500000D02*
X96520000Y-137160000D01*
X194310000Y-63500000D02*
X96520000Y-63500000D01*
D12*
X196850000Y-129540000D02*
X199390000Y-129540000D01*
X199390000Y-129540000D02*
X199390000Y-134620000D01*
X199390000Y-134620000D02*
X196850000Y-134620000D01*
X196850000Y-134620000D02*
X196850000Y-129540000D01*
X176530000Y-72390000D02*
X176530000Y-92710000D01*
X176530000Y-92710000D02*
X173990000Y-92710000D01*
X173990000Y-92710000D02*
X173990000Y-72390000D01*
X173990000Y-72390000D02*
X176530000Y-72390000D01*
X173990000Y-74930000D02*
X176530000Y-74930000D01*
X135890000Y-72390000D02*
X135890000Y-92710000D01*
X135890000Y-92710000D02*
X133350000Y-92710000D01*
X133350000Y-92710000D02*
X133350000Y-72390000D01*
X133350000Y-72390000D02*
X135890000Y-72390000D01*
X133350000Y-74930000D02*
X135890000Y-74930000D01*
X125730000Y-72390000D02*
X125730000Y-92710000D01*
X125730000Y-92710000D02*
X123190000Y-92710000D01*
X123190000Y-92710000D02*
X123190000Y-72390000D01*
X123190000Y-72390000D02*
X125730000Y-72390000D01*
X123190000Y-74930000D02*
X125730000Y-74930000D01*
X171450000Y-102870000D02*
X171450000Y-100330000D01*
X171450000Y-100330000D02*
X176530000Y-100330000D01*
X176530000Y-100330000D02*
X176530000Y-102870000D01*
X176530000Y-102870000D02*
X171450000Y-102870000D01*
X171450000Y-107950000D02*
X171450000Y-105410000D01*
X171450000Y-105410000D02*
X176530000Y-105410000D01*
X176530000Y-105410000D02*
X176530000Y-107950000D01*
X176530000Y-107950000D02*
X171450000Y-107950000D01*
X171450000Y-113030000D02*
X171450000Y-110490000D01*
X171450000Y-110490000D02*
X176530000Y-110490000D01*
X176530000Y-110490000D02*
X176530000Y-113030000D01*
X176530000Y-113030000D02*
X171450000Y-113030000D01*
X171450000Y-118110000D02*
X171450000Y-115570000D01*
X171450000Y-115570000D02*
X176530000Y-115570000D01*
X176530000Y-115570000D02*
X176530000Y-118110000D01*
X176530000Y-118110000D02*
X171450000Y-118110000D01*
X156210000Y-96520000D02*
X157226000Y-96520000D01*
X168910000Y-96520000D02*
X167894000Y-96520000D01*
X167894000Y-95250000D02*
X167894000Y-97790000D01*
X167894000Y-97790000D02*
X157226000Y-97790000D01*
X157226000Y-97790000D02*
X157226000Y-95250000D01*
X157226000Y-95250000D02*
X167894000Y-95250000D01*
X157226000Y-95758000D02*
X157734000Y-95250000D01*
X121920000Y-133350000D02*
X122936000Y-133350000D01*
X134620000Y-133350000D02*
X133604000Y-133350000D01*
X133604000Y-132080000D02*
X133604000Y-134620000D01*
X133604000Y-134620000D02*
X122936000Y-134620000D01*
X122936000Y-134620000D02*
X122936000Y-132080000D01*
X122936000Y-132080000D02*
X133604000Y-132080000D01*
X122936000Y-132588000D02*
X123444000Y-132080000D01*
X111760000Y-129540000D02*
X111760000Y-128524000D01*
X111760000Y-116840000D02*
X111760000Y-117856000D01*
X110490000Y-117856000D02*
X113030000Y-117856000D01*
X113030000Y-117856000D02*
X113030000Y-128524000D01*
X113030000Y-128524000D02*
X110490000Y-128524000D01*
X110490000Y-128524000D02*
X110490000Y-117856000D01*
X110998000Y-128524000D02*
X110490000Y-128016000D01*
X156210000Y-101600000D02*
X157226000Y-101600000D01*
X168910000Y-101600000D02*
X167894000Y-101600000D01*
X167894000Y-100330000D02*
X167894000Y-102870000D01*
X167894000Y-102870000D02*
X157226000Y-102870000D01*
X157226000Y-102870000D02*
X157226000Y-100330000D01*
X157226000Y-100330000D02*
X167894000Y-100330000D01*
X157226000Y-100838000D02*
X157734000Y-100330000D01*
X156210000Y-106680000D02*
X157226000Y-106680000D01*
X168910000Y-106680000D02*
X167894000Y-106680000D01*
X167894000Y-105410000D02*
X167894000Y-107950000D01*
X167894000Y-107950000D02*
X157226000Y-107950000D01*
X157226000Y-107950000D02*
X157226000Y-105410000D01*
X157226000Y-105410000D02*
X167894000Y-105410000D01*
X157226000Y-105918000D02*
X157734000Y-105410000D01*
X156210000Y-116840000D02*
X157226000Y-116840000D01*
X168910000Y-116840000D02*
X167894000Y-116840000D01*
X167894000Y-115570000D02*
X167894000Y-118110000D01*
X167894000Y-118110000D02*
X157226000Y-118110000D01*
X157226000Y-118110000D02*
X157226000Y-115570000D01*
X157226000Y-115570000D02*
X167894000Y-115570000D01*
X157226000Y-116078000D02*
X157734000Y-115570000D01*
X156210000Y-111760000D02*
X157226000Y-111760000D01*
X168910000Y-111760000D02*
X167894000Y-111760000D01*
X167894000Y-110490000D02*
X167894000Y-113030000D01*
X167894000Y-113030000D02*
X157226000Y-113030000D01*
X157226000Y-113030000D02*
X157226000Y-110490000D01*
X157226000Y-110490000D02*
X167894000Y-110490000D01*
X157226000Y-110998000D02*
X157734000Y-110490000D01*
X140970000Y-95250000D02*
X139954000Y-95250000D01*
X128270000Y-95250000D02*
X129286000Y-95250000D01*
X129286000Y-96520000D02*
X129286000Y-93980000D01*
X129286000Y-93980000D02*
X139954000Y-93980000D01*
X139954000Y-93980000D02*
X139954000Y-96520000D01*
X139954000Y-96520000D02*
X129286000Y-96520000D01*
X139954000Y-96012000D02*
X139446000Y-96520000D01*
X91440000Y-73660000D02*
X105410000Y-73660000D01*
X96520000Y-81280000D02*
X105410000Y-81280000D01*
X91440000Y-79375000D02*
X96520000Y-79375000D01*
X91440000Y-121285000D02*
X96520000Y-121285000D01*
X96520000Y-119380000D02*
X105410000Y-119380000D01*
X105410000Y-127000000D02*
X91440000Y-127000000D01*
X96520000Y-73660000D02*
X96520000Y-81280000D01*
X96520000Y-127000000D02*
X96520000Y-119380000D01*
X94615000Y-80010000D02*
X91440000Y-80010000D01*
X94615000Y-120650000D02*
X91440000Y-120650000D01*
X84455000Y-80010000D02*
X90170000Y-80010000D01*
X84455000Y-120650000D02*
X90170000Y-120650000D01*
X91440000Y-73660000D02*
X90170000Y-73660000D01*
X90170000Y-73660000D02*
X90170000Y-127000000D01*
X90170000Y-127000000D02*
X91440000Y-127000000D01*
X91440000Y-127000000D02*
X91440000Y-73660000D01*
X105410000Y-81280000D02*
X105410000Y-73660000D01*
X94615000Y-120650000D02*
X94615000Y-80010000D01*
X84455000Y-120650000D02*
X84455000Y-80010000D01*
X105410000Y-127000000D02*
X105410000Y-119380000D01*
X184404000Y-128524000D02*
X191516000Y-128524000D01*
X191516000Y-128524000D02*
X191516000Y-130556000D01*
X191516000Y-130556000D02*
X184404000Y-130556000D01*
X184404000Y-130556000D02*
X184404000Y-128524000D01*
X184404000Y-129032000D02*
X184912000Y-128524000D01*
X143764000Y-128524000D02*
X150876000Y-128524000D01*
X150876000Y-128524000D02*
X150876000Y-130556000D01*
X150876000Y-130556000D02*
X143764000Y-130556000D01*
X143764000Y-130556000D02*
X143764000Y-128524000D01*
X143764000Y-129032000D02*
X144272000Y-128524000D01*
X143764000Y-95504000D02*
X150876000Y-95504000D01*
X150876000Y-95504000D02*
X150876000Y-97536000D01*
X150876000Y-97536000D02*
X143764000Y-97536000D01*
X143764000Y-97536000D02*
X143764000Y-95504000D01*
X143764000Y-96012000D02*
X144272000Y-95504000D01*
X124714000Y-128524000D02*
X131826000Y-128524000D01*
X131826000Y-128524000D02*
X131826000Y-130556000D01*
X131826000Y-130556000D02*
X124714000Y-130556000D01*
X124714000Y-130556000D02*
X124714000Y-128524000D01*
X124714000Y-129032000D02*
X125222000Y-128524000D01*
X184404000Y-95504000D02*
X191516000Y-95504000D01*
X191516000Y-95504000D02*
X191516000Y-97536000D01*
X191516000Y-97536000D02*
X184404000Y-97536000D01*
X184404000Y-97536000D02*
X184404000Y-95504000D01*
X184404000Y-96012000D02*
X184912000Y-95504000D01*
D11*
X146050000Y-127000000D02*
X146050000Y-125730000D01*
X146050000Y-125730000D02*
X148590000Y-125730000D01*
X148590000Y-125730000D02*
X148590000Y-127000000D01*
X144780000Y-127000000D02*
X144780000Y-99060000D01*
X144780000Y-99060000D02*
X149860000Y-99060000D01*
X149860000Y-99060000D02*
X149860000Y-127000000D01*
X149860000Y-127000000D02*
X144780000Y-127000000D01*
X127000000Y-127000000D02*
X127000000Y-125730000D01*
X127000000Y-125730000D02*
X129540000Y-125730000D01*
X129540000Y-125730000D02*
X129540000Y-127000000D01*
X125730000Y-127000000D02*
X125730000Y-99060000D01*
X125730000Y-99060000D02*
X130810000Y-99060000D01*
X130810000Y-99060000D02*
X130810000Y-127000000D01*
X130810000Y-127000000D02*
X125730000Y-127000000D01*
X186690000Y-127000000D02*
X186690000Y-125730000D01*
X186690000Y-125730000D02*
X189230000Y-125730000D01*
X189230000Y-125730000D02*
X189230000Y-127000000D01*
X185420000Y-127000000D02*
X185420000Y-99060000D01*
X185420000Y-99060000D02*
X190500000Y-99060000D01*
X190500000Y-99060000D02*
X190500000Y-127000000D01*
X190500000Y-127000000D02*
X185420000Y-127000000D01*
X186690000Y-93980000D02*
X186690000Y-93980000D01*
X186690000Y-93980000D02*
X186690000Y-92710000D01*
X186690000Y-92710000D02*
X189230000Y-92710000D01*
X189230000Y-92710000D02*
X189230000Y-93980000D01*
X185420000Y-93980000D02*
X185420000Y-71120000D01*
X185420000Y-71120000D02*
X190500000Y-71120000D01*
X190500000Y-71120000D02*
X190500000Y-93980000D01*
X190500000Y-93980000D02*
X185420000Y-93980000D01*
X146050000Y-93980000D02*
X146050000Y-93980000D01*
X146050000Y-93980000D02*
X146050000Y-92710000D01*
X146050000Y-92710000D02*
X148590000Y-92710000D01*
X148590000Y-92710000D02*
X148590000Y-93980000D01*
X144780000Y-93980000D02*
X144780000Y-71120000D01*
X144780000Y-71120000D02*
X149860000Y-71120000D01*
X149860000Y-71120000D02*
X149860000Y-93980000D01*
X149860000Y-93980000D02*
X144780000Y-93980000D01*
D13*
X201360133Y-134280124D02*
X201442501Y-134124821D01*
X201442501Y-133865983D01*
X201360133Y-133762447D01*
X201277764Y-133710680D01*
X201113027Y-133658912D01*
X200948290Y-133658912D01*
X200783553Y-133710680D01*
X200701184Y-133762447D01*
X200618816Y-133865983D01*
X200536447Y-134073053D01*
X200454079Y-134176588D01*
X200371710Y-134228356D01*
X200206973Y-134280124D01*
X200042236Y-134280124D01*
X199877499Y-134228356D01*
X199795130Y-134176588D01*
X199712761Y-134073053D01*
X199712761Y-133814215D01*
X199795130Y-133658912D01*
X201442501Y-133193004D02*
X199712761Y-133193004D01*
X201442501Y-132157652D02*
X201442501Y-132675328D01*
X199712761Y-132675328D01*
X200783553Y-131795278D02*
X200783553Y-130966996D01*
X199877499Y-130501088D02*
X199795130Y-130449320D01*
X199712761Y-130345785D01*
X199712761Y-130086947D01*
X199795130Y-129983411D01*
X199877499Y-129931644D01*
X200042236Y-129879876D01*
X200206973Y-129879876D01*
X200454079Y-129931644D01*
X201442501Y-130552855D01*
X201442501Y-129879876D01*
D12*
D13*
X178500133Y-78400124D02*
X178582501Y-78244821D01*
X178582501Y-77985983D01*
X178500133Y-77882447D01*
X178417764Y-77830680D01*
X178253027Y-77778912D01*
X178088290Y-77778912D01*
X177923553Y-77830680D01*
X177841184Y-77882447D01*
X177758816Y-77985983D01*
X177676447Y-78193053D01*
X177594079Y-78296588D01*
X177511710Y-78348356D01*
X177346973Y-78400124D01*
X177182236Y-78400124D01*
X177017499Y-78348356D01*
X176935130Y-78296588D01*
X176852761Y-78193053D01*
X176852761Y-77934215D01*
X176935130Y-77778912D01*
X178582501Y-77313004D02*
X176852761Y-77313004D01*
X178582501Y-76277652D02*
X178582501Y-76795328D01*
X176852761Y-76795328D01*
X177923553Y-75915278D02*
X177923553Y-75086996D01*
X177594079Y-74414017D02*
X177511710Y-74517552D01*
X177429341Y-74569320D01*
X177264604Y-74621088D01*
X177182236Y-74621088D01*
X177017499Y-74569320D01*
X176935130Y-74517552D01*
X176852761Y-74414017D01*
X176852761Y-74206947D01*
X176935130Y-74103411D01*
X177017499Y-74051644D01*
X177182236Y-73999876D01*
X177264604Y-73999876D01*
X177429341Y-74051644D01*
X177511710Y-74103411D01*
X177594079Y-74206947D01*
X177594079Y-74414017D01*
X177676447Y-74517552D01*
X177758816Y-74569320D01*
X177923553Y-74621088D01*
X178253027Y-74621088D01*
X178417764Y-74569320D01*
X178500133Y-74517552D01*
X178582501Y-74414017D01*
X178582501Y-74206947D01*
X178500133Y-74103411D01*
X178417764Y-74051644D01*
X178253027Y-73999876D01*
X177923553Y-73999876D01*
X177758816Y-74051644D01*
X177676447Y-74103411D01*
X177594079Y-74206947D01*
D12*
D13*
X137860133Y-78400124D02*
X137942501Y-78244821D01*
X137942501Y-77985983D01*
X137860133Y-77882447D01*
X137777764Y-77830680D01*
X137613027Y-77778912D01*
X137448290Y-77778912D01*
X137283553Y-77830680D01*
X137201184Y-77882447D01*
X137118816Y-77985983D01*
X137036447Y-78193053D01*
X136954079Y-78296588D01*
X136871710Y-78348356D01*
X136706973Y-78400124D01*
X136542236Y-78400124D01*
X136377499Y-78348356D01*
X136295130Y-78296588D01*
X136212761Y-78193053D01*
X136212761Y-77934215D01*
X136295130Y-77778912D01*
X137942501Y-77313004D02*
X136212761Y-77313004D01*
X137942501Y-76277652D02*
X137942501Y-76795328D01*
X136212761Y-76795328D01*
X137283553Y-75915278D02*
X137283553Y-75086996D01*
X136954079Y-74414017D02*
X136871710Y-74517552D01*
X136789341Y-74569320D01*
X136624604Y-74621088D01*
X136542236Y-74621088D01*
X136377499Y-74569320D01*
X136295130Y-74517552D01*
X136212761Y-74414017D01*
X136212761Y-74206947D01*
X136295130Y-74103411D01*
X136377499Y-74051644D01*
X136542236Y-73999876D01*
X136624604Y-73999876D01*
X136789341Y-74051644D01*
X136871710Y-74103411D01*
X136954079Y-74206947D01*
X136954079Y-74414017D01*
X137036447Y-74517552D01*
X137118816Y-74569320D01*
X137283553Y-74621088D01*
X137613027Y-74621088D01*
X137777764Y-74569320D01*
X137860133Y-74517552D01*
X137942501Y-74414017D01*
X137942501Y-74206947D01*
X137860133Y-74103411D01*
X137777764Y-74051644D01*
X137613027Y-73999876D01*
X137283553Y-73999876D01*
X137118816Y-74051644D01*
X137036447Y-74103411D01*
X136954079Y-74206947D01*
D12*
D13*
X127700133Y-78400124D02*
X127782501Y-78244821D01*
X127782501Y-77985983D01*
X127700133Y-77882447D01*
X127617764Y-77830680D01*
X127453027Y-77778912D01*
X127288290Y-77778912D01*
X127123553Y-77830680D01*
X127041184Y-77882447D01*
X126958816Y-77985983D01*
X126876447Y-78193053D01*
X126794079Y-78296588D01*
X126711710Y-78348356D01*
X126546973Y-78400124D01*
X126382236Y-78400124D01*
X126217499Y-78348356D01*
X126135130Y-78296588D01*
X126052761Y-78193053D01*
X126052761Y-77934215D01*
X126135130Y-77778912D01*
X127782501Y-77313004D02*
X126052761Y-77313004D01*
X127782501Y-76277652D02*
X127782501Y-76795328D01*
X126052761Y-76795328D01*
X127123553Y-75915278D02*
X127123553Y-75086996D01*
X126794079Y-74414017D02*
X126711710Y-74517552D01*
X126629341Y-74569320D01*
X126464604Y-74621088D01*
X126382236Y-74621088D01*
X126217499Y-74569320D01*
X126135130Y-74517552D01*
X126052761Y-74414017D01*
X126052761Y-74206947D01*
X126135130Y-74103411D01*
X126217499Y-74051644D01*
X126382236Y-73999876D01*
X126464604Y-73999876D01*
X126629341Y-74051644D01*
X126711710Y-74103411D01*
X126794079Y-74206947D01*
X126794079Y-74414017D01*
X126876447Y-74517552D01*
X126958816Y-74569320D01*
X127123553Y-74621088D01*
X127453027Y-74621088D01*
X127617764Y-74569320D01*
X127700133Y-74517552D01*
X127782501Y-74414017D01*
X127782501Y-74206947D01*
X127700133Y-74103411D01*
X127617764Y-74051644D01*
X127453027Y-73999876D01*
X127123553Y-73999876D01*
X126958816Y-74051644D01*
X126876447Y-74103411D01*
X126794079Y-74206947D01*
D12*
D13*
X173627627Y-98112761D02*
X173627627Y-99348290D01*
X173575859Y-99595396D01*
X173472324Y-99760133D01*
X173317021Y-99842501D01*
X173213486Y-99842501D01*
X174611212Y-98689341D02*
X174611212Y-99842501D01*
X174352374Y-98030393D02*
X174093535Y-99265921D01*
X174766515Y-99265921D01*
D12*
D13*
X173627627Y-103192761D02*
X173627627Y-104428290D01*
X173575859Y-104675396D01*
X173472324Y-104840133D01*
X173317021Y-104922501D01*
X173213486Y-104922501D01*
X174041768Y-103192761D02*
X174714747Y-103192761D01*
X174352374Y-103851710D01*
X174507676Y-103851710D01*
X174611212Y-103934079D01*
X174662979Y-104016447D01*
X174714747Y-104181184D01*
X174714747Y-104593027D01*
X174662979Y-104757764D01*
X174611212Y-104840133D01*
X174507676Y-104922501D01*
X174197071Y-104922501D01*
X174093535Y-104840133D01*
X174041768Y-104757764D01*
D12*
D13*
X173627627Y-108272761D02*
X173627627Y-109508290D01*
X173575859Y-109755396D01*
X173472324Y-109920133D01*
X173317021Y-110002501D01*
X173213486Y-110002501D01*
X174093535Y-108437499D02*
X174145303Y-108355130D01*
X174248838Y-108272761D01*
X174507676Y-108272761D01*
X174611212Y-108355130D01*
X174662979Y-108437499D01*
X174714747Y-108602236D01*
X174714747Y-108766973D01*
X174662979Y-109014079D01*
X174041768Y-110002501D01*
X174714747Y-110002501D01*
D12*
D13*
X173627627Y-113352761D02*
X173627627Y-114588290D01*
X173575859Y-114835396D01*
X173472324Y-115000133D01*
X173317021Y-115082501D01*
X173213486Y-115082501D01*
X174714747Y-115082501D02*
X174093535Y-115082501D01*
X174404141Y-115082501D02*
X174404141Y-113352761D01*
X174300606Y-113599867D01*
X174197071Y-113764604D01*
X174093535Y-113846973D01*
D12*
D14*
X162348333Y-97151976D02*
X161925000Y-96486738D01*
X161622619Y-97151976D02*
X161622619Y-95754976D01*
X162106428Y-95754976D01*
X162227381Y-95821500D01*
X162287857Y-95888024D01*
X162348333Y-96021071D01*
X162348333Y-96220643D01*
X162287857Y-96353690D01*
X162227381Y-96420214D01*
X162106428Y-96486738D01*
X161622619Y-96486738D01*
X163436905Y-96220643D02*
X163436905Y-97151976D01*
X163134524Y-95688452D02*
X162832143Y-96686310D01*
X163618333Y-96686310D01*
X128058333Y-133981976D02*
X127635000Y-133316738D01*
X127332619Y-133981976D02*
X127332619Y-132584976D01*
X127816428Y-132584976D01*
X127937381Y-132651500D01*
X127997857Y-132718024D01*
X128058333Y-132851071D01*
X128058333Y-133050643D01*
X127997857Y-133183690D01*
X127937381Y-133250214D01*
X127816428Y-133316738D01*
X127332619Y-133316738D01*
X128481667Y-132584976D02*
X129267857Y-132584976D01*
X128844524Y-133117167D01*
X129025952Y-133117167D01*
X129146905Y-133183690D01*
X129207381Y-133250214D01*
X129267857Y-133383262D01*
X129267857Y-133715881D01*
X129207381Y-133848929D01*
X129146905Y-133915452D01*
X129025952Y-133981976D01*
X128663095Y-133981976D01*
X128542143Y-133915452D01*
X128481667Y-133848929D01*
X112391976Y-123401667D02*
X111726738Y-123825000D01*
X112391976Y-124127381D02*
X110994976Y-124127381D01*
X110994976Y-123643572D01*
X111061500Y-123522619D01*
X111128024Y-123462143D01*
X111261071Y-123401667D01*
X111460643Y-123401667D01*
X111593690Y-123462143D01*
X111660214Y-123522619D01*
X111726738Y-123643572D01*
X111726738Y-124127381D01*
X111128024Y-122917857D02*
X111061500Y-122857381D01*
X110994976Y-122736429D01*
X110994976Y-122434048D01*
X111061500Y-122313095D01*
X111128024Y-122252619D01*
X111261071Y-122192143D01*
X111394119Y-122192143D01*
X111593690Y-122252619D01*
X112391976Y-122978333D01*
X112391976Y-122192143D01*
X162348333Y-102231976D02*
X161925000Y-101566738D01*
X161622619Y-102231976D02*
X161622619Y-100834976D01*
X162106428Y-100834976D01*
X162227381Y-100901500D01*
X162287857Y-100968024D01*
X162348333Y-101101071D01*
X162348333Y-101300643D01*
X162287857Y-101433690D01*
X162227381Y-101500214D01*
X162106428Y-101566738D01*
X161622619Y-101566738D01*
X163074048Y-101433690D02*
X162953095Y-101367167D01*
X162892619Y-101300643D01*
X162832143Y-101167595D01*
X162832143Y-101101071D01*
X162892619Y-100968024D01*
X162953095Y-100901500D01*
X163074048Y-100834976D01*
X163315952Y-100834976D01*
X163436905Y-100901500D01*
X163497381Y-100968024D01*
X163557857Y-101101071D01*
X163557857Y-101167595D01*
X163497381Y-101300643D01*
X163436905Y-101367167D01*
X163315952Y-101433690D01*
X163074048Y-101433690D01*
X162953095Y-101500214D01*
X162892619Y-101566738D01*
X162832143Y-101699786D01*
X162832143Y-101965881D01*
X162892619Y-102098929D01*
X162953095Y-102165452D01*
X163074048Y-102231976D01*
X163315952Y-102231976D01*
X163436905Y-102165452D01*
X163497381Y-102098929D01*
X163557857Y-101965881D01*
X163557857Y-101699786D01*
X163497381Y-101566738D01*
X163436905Y-101500214D01*
X163315952Y-101433690D01*
X162348333Y-107311976D02*
X161925000Y-106646738D01*
X161622619Y-107311976D02*
X161622619Y-105914976D01*
X162106428Y-105914976D01*
X162227381Y-105981500D01*
X162287857Y-106048024D01*
X162348333Y-106181071D01*
X162348333Y-106380643D01*
X162287857Y-106513690D01*
X162227381Y-106580214D01*
X162106428Y-106646738D01*
X161622619Y-106646738D01*
X162771667Y-105914976D02*
X163618333Y-105914976D01*
X163074048Y-107311976D01*
X162348333Y-117471976D02*
X161925000Y-116806738D01*
X161622619Y-117471976D02*
X161622619Y-116074976D01*
X162106428Y-116074976D01*
X162227381Y-116141500D01*
X162287857Y-116208024D01*
X162348333Y-116341071D01*
X162348333Y-116540643D01*
X162287857Y-116673690D01*
X162227381Y-116740214D01*
X162106428Y-116806738D01*
X161622619Y-116806738D01*
X163436905Y-116074976D02*
X163195000Y-116074976D01*
X163074048Y-116141500D01*
X163013571Y-116208024D01*
X162892619Y-116407595D01*
X162832143Y-116673690D01*
X162832143Y-117205881D01*
X162892619Y-117338929D01*
X162953095Y-117405452D01*
X163074048Y-117471976D01*
X163315952Y-117471976D01*
X163436905Y-117405452D01*
X163497381Y-117338929D01*
X163557857Y-117205881D01*
X163557857Y-116873262D01*
X163497381Y-116740214D01*
X163436905Y-116673690D01*
X163315952Y-116607167D01*
X163074048Y-116607167D01*
X162953095Y-116673690D01*
X162892619Y-116740214D01*
X162832143Y-116873262D01*
X162348333Y-112391976D02*
X161925000Y-111726738D01*
X161622619Y-112391976D02*
X161622619Y-110994976D01*
X162106428Y-110994976D01*
X162227381Y-111061500D01*
X162287857Y-111128024D01*
X162348333Y-111261071D01*
X162348333Y-111460643D01*
X162287857Y-111593690D01*
X162227381Y-111660214D01*
X162106428Y-111726738D01*
X161622619Y-111726738D01*
X163497381Y-110994976D02*
X162892619Y-110994976D01*
X162832143Y-111660214D01*
X162892619Y-111593690D01*
X163013571Y-111527167D01*
X163315952Y-111527167D01*
X163436905Y-111593690D01*
X163497381Y-111660214D01*
X163557857Y-111793262D01*
X163557857Y-112125881D01*
X163497381Y-112258929D01*
X163436905Y-112325452D01*
X163315952Y-112391976D01*
X163013571Y-112391976D01*
X162892619Y-112325452D01*
X162832143Y-112258929D01*
X134408333Y-95881976D02*
X133985000Y-95216738D01*
X133682619Y-95881976D02*
X133682619Y-94484976D01*
X134166428Y-94484976D01*
X134287381Y-94551500D01*
X134347857Y-94618024D01*
X134408333Y-94751071D01*
X134408333Y-94950643D01*
X134347857Y-95083690D01*
X134287381Y-95150214D01*
X134166428Y-95216738D01*
X133682619Y-95216738D01*
X135617857Y-95881976D02*
X134892143Y-95881976D01*
X135255000Y-95881976D02*
X135255000Y-94484976D01*
X135134048Y-94684548D01*
X135013095Y-94817595D01*
X134892143Y-94884119D01*
D12*
X88174286Y-101382286D02*
X88246857Y-101454857D01*
X88319429Y-101672571D01*
X88319429Y-101817714D01*
X88246857Y-102035429D01*
X88101714Y-102180571D01*
X87956571Y-102253143D01*
X87666286Y-102325714D01*
X87448571Y-102325714D01*
X87158286Y-102253143D01*
X87013143Y-102180571D01*
X86868000Y-102035429D01*
X86795429Y-101817714D01*
X86795429Y-101672571D01*
X86868000Y-101454857D01*
X86940571Y-101382286D01*
X88319429Y-100729143D02*
X86795429Y-100729143D01*
X88319429Y-99858286D01*
X86795429Y-99858286D01*
X88319429Y-98334286D02*
X88319429Y-99205143D01*
X88319429Y-98769715D02*
X86795429Y-98769715D01*
X87013143Y-98914858D01*
X87158286Y-99060000D01*
X87230857Y-99205143D01*
D14*
X187790667Y-129902857D02*
X187742286Y-129951238D01*
X187597143Y-129999619D01*
X187500381Y-129999619D01*
X187355239Y-129951238D01*
X187258477Y-129854476D01*
X187210096Y-129757714D01*
X187161715Y-129564190D01*
X187161715Y-129419048D01*
X187210096Y-129225524D01*
X187258477Y-129128762D01*
X187355239Y-129032000D01*
X187500381Y-128983619D01*
X187597143Y-128983619D01*
X187742286Y-129032000D01*
X187790667Y-129080381D01*
X188758286Y-129999619D02*
X188177715Y-129999619D01*
X188468001Y-129999619D02*
X188468001Y-128983619D01*
X188371239Y-129128762D01*
X188274477Y-129225524D01*
X188177715Y-129273905D01*
X147150667Y-129902857D02*
X147102286Y-129951238D01*
X146957143Y-129999619D01*
X146860381Y-129999619D01*
X146715239Y-129951238D01*
X146618477Y-129854476D01*
X146570096Y-129757714D01*
X146521715Y-129564190D01*
X146521715Y-129419048D01*
X146570096Y-129225524D01*
X146618477Y-129128762D01*
X146715239Y-129032000D01*
X146860381Y-128983619D01*
X146957143Y-128983619D01*
X147102286Y-129032000D01*
X147150667Y-129080381D01*
X148069905Y-128983619D02*
X147586096Y-128983619D01*
X147537715Y-129467429D01*
X147586096Y-129419048D01*
X147682858Y-129370667D01*
X147924762Y-129370667D01*
X148021524Y-129419048D01*
X148069905Y-129467429D01*
X148118286Y-129564190D01*
X148118286Y-129806095D01*
X148069905Y-129902857D01*
X148021524Y-129951238D01*
X147924762Y-129999619D01*
X147682858Y-129999619D01*
X147586096Y-129951238D01*
X147537715Y-129902857D01*
X147150667Y-96882857D02*
X147102286Y-96931238D01*
X146957143Y-96979619D01*
X146860381Y-96979619D01*
X146715239Y-96931238D01*
X146618477Y-96834476D01*
X146570096Y-96737714D01*
X146521715Y-96544190D01*
X146521715Y-96399048D01*
X146570096Y-96205524D01*
X146618477Y-96108762D01*
X146715239Y-96012000D01*
X146860381Y-95963619D01*
X146957143Y-95963619D01*
X147102286Y-96012000D01*
X147150667Y-96060381D01*
X148021524Y-96302286D02*
X148021524Y-96979619D01*
X147779620Y-95915238D02*
X147537715Y-96640952D01*
X148166667Y-96640952D01*
X128100667Y-129902857D02*
X128052286Y-129951238D01*
X127907143Y-129999619D01*
X127810381Y-129999619D01*
X127665239Y-129951238D01*
X127568477Y-129854476D01*
X127520096Y-129757714D01*
X127471715Y-129564190D01*
X127471715Y-129419048D01*
X127520096Y-129225524D01*
X127568477Y-129128762D01*
X127665239Y-129032000D01*
X127810381Y-128983619D01*
X127907143Y-128983619D01*
X128052286Y-129032000D01*
X128100667Y-129080381D01*
X128439334Y-128983619D02*
X129068286Y-128983619D01*
X128729620Y-129370667D01*
X128874762Y-129370667D01*
X128971524Y-129419048D01*
X129019905Y-129467429D01*
X129068286Y-129564190D01*
X129068286Y-129806095D01*
X129019905Y-129902857D01*
X128971524Y-129951238D01*
X128874762Y-129999619D01*
X128584477Y-129999619D01*
X128487715Y-129951238D01*
X128439334Y-129902857D01*
X187790667Y-96882857D02*
X187742286Y-96931238D01*
X187597143Y-96979619D01*
X187500381Y-96979619D01*
X187355239Y-96931238D01*
X187258477Y-96834476D01*
X187210096Y-96737714D01*
X187161715Y-96544190D01*
X187161715Y-96399048D01*
X187210096Y-96205524D01*
X187258477Y-96108762D01*
X187355239Y-96012000D01*
X187500381Y-95963619D01*
X187597143Y-95963619D01*
X187742286Y-96012000D01*
X187790667Y-96060381D01*
X188177715Y-96060381D02*
X188226096Y-96012000D01*
X188322858Y-95963619D01*
X188564762Y-95963619D01*
X188661524Y-96012000D01*
X188709905Y-96060381D01*
X188758286Y-96157143D01*
X188758286Y-96253905D01*
X188709905Y-96399048D01*
X188129334Y-96979619D01*
X188758286Y-96979619D01*
D15*
X146854333Y-123035785D02*
X145076333Y-123035785D01*
X146685000Y-121838356D02*
X146769667Y-121892785D01*
X146854333Y-122056071D01*
X146854333Y-122164928D01*
X146769667Y-122328213D01*
X146600333Y-122437071D01*
X146431000Y-122491499D01*
X146092333Y-122545928D01*
X145838333Y-122545928D01*
X145499667Y-122491499D01*
X145330333Y-122437071D01*
X145161000Y-122328213D01*
X145076333Y-122164928D01*
X145076333Y-122056071D01*
X145161000Y-121892785D01*
X145245667Y-121838356D01*
X145245667Y-121402928D02*
X145161000Y-121348499D01*
X145076333Y-121239642D01*
X145076333Y-120967499D01*
X145161000Y-120858642D01*
X145245667Y-120804213D01*
X145415000Y-120749785D01*
X145584333Y-120749785D01*
X145838333Y-120804213D01*
X146854333Y-121457356D01*
X146854333Y-120749785D01*
D12*
D15*
X127804333Y-123035785D02*
X126026333Y-123035785D01*
X127635000Y-121838356D02*
X127719667Y-121892785D01*
X127804333Y-122056071D01*
X127804333Y-122164928D01*
X127719667Y-122328213D01*
X127550333Y-122437071D01*
X127381000Y-122491499D01*
X127042333Y-122545928D01*
X126788333Y-122545928D01*
X126449667Y-122491499D01*
X126280333Y-122437071D01*
X126111000Y-122328213D01*
X126026333Y-122164928D01*
X126026333Y-122056071D01*
X126111000Y-121892785D01*
X126195667Y-121838356D01*
X127804333Y-120749785D02*
X127804333Y-121402928D01*
X127804333Y-121076356D02*
X126026333Y-121076356D01*
X126280333Y-121185213D01*
X126449667Y-121294071D01*
X126534333Y-121402928D01*
D12*
D15*
X187494333Y-123035785D02*
X185716333Y-123035785D01*
X187325000Y-121838356D02*
X187409667Y-121892785D01*
X187494333Y-122056071D01*
X187494333Y-122164928D01*
X187409667Y-122328213D01*
X187240333Y-122437071D01*
X187071000Y-122491499D01*
X186732333Y-122545928D01*
X186478333Y-122545928D01*
X186139667Y-122491499D01*
X185970333Y-122437071D01*
X185801000Y-122328213D01*
X185716333Y-122164928D01*
X185716333Y-122056071D01*
X185801000Y-121892785D01*
X185885667Y-121838356D01*
X185716333Y-121457356D02*
X185716333Y-120749785D01*
X186393667Y-121130785D01*
X186393667Y-120967499D01*
X186478333Y-120858642D01*
X186563000Y-120804213D01*
X186732333Y-120749785D01*
X187155667Y-120749785D01*
X187325000Y-120804213D01*
X187409667Y-120858642D01*
X187494333Y-120967499D01*
X187494333Y-121294071D01*
X187409667Y-121402928D01*
X187325000Y-121457356D01*
D12*
D15*
X187379429Y-90015785D02*
X185855429Y-90015785D01*
X187234286Y-88818356D02*
X187306857Y-88872785D01*
X187379429Y-89036071D01*
X187379429Y-89144928D01*
X187306857Y-89308213D01*
X187161714Y-89417071D01*
X187016571Y-89471499D01*
X186726286Y-89525928D01*
X186508571Y-89525928D01*
X186218286Y-89471499D01*
X186073143Y-89417071D01*
X185928000Y-89308213D01*
X185855429Y-89144928D01*
X185855429Y-89036071D01*
X185928000Y-88872785D01*
X186000571Y-88818356D01*
X185855429Y-87784213D02*
X185855429Y-88328499D01*
X186581143Y-88382928D01*
X186508571Y-88328499D01*
X186436000Y-88219642D01*
X186436000Y-87947499D01*
X186508571Y-87838642D01*
X186581143Y-87784213D01*
X186726286Y-87729785D01*
X187089143Y-87729785D01*
X187234286Y-87784213D01*
X187306857Y-87838642D01*
X187379429Y-87947499D01*
X187379429Y-88219642D01*
X187306857Y-88328499D01*
X187234286Y-88382928D01*
D12*
D15*
X146739429Y-90015785D02*
X145215429Y-90015785D01*
X146594286Y-88818356D02*
X146666857Y-88872785D01*
X146739429Y-89036071D01*
X146739429Y-89144928D01*
X146666857Y-89308213D01*
X146521714Y-89417071D01*
X146376571Y-89471499D01*
X146086286Y-89525928D01*
X145868571Y-89525928D01*
X145578286Y-89471499D01*
X145433143Y-89417071D01*
X145288000Y-89308213D01*
X145215429Y-89144928D01*
X145215429Y-89036071D01*
X145288000Y-88872785D01*
X145360571Y-88818356D01*
X145723429Y-87838642D02*
X146739429Y-87838642D01*
X145142857Y-88110785D02*
X146231429Y-88382928D01*
X146231429Y-87675356D01*
D12*
M02*
