G04 #@! TF.FileFunction,Copper,L2,Bot,Signal*
%FSLAX46Y46*%
G04 Gerber Fmt 4.6, Leading zero omitted, Abs format (unit mm)*
G04 Created by KiCad (PCBNEW 4.0.5+dfsg1-4+deb9u1) date Mon Sep 26 08:45:52 2022*
%MOMM*%
%LPD*%
G01*
G04 APERTURE LIST*
%ADD10C,0.100000*%
%ADD11C,0.304800*%
%ADD12C,0.381000*%
%ADD13R,1.800000X1.800000*%
%ADD14O,1.800000X1.800000*%
%ADD15R,2.800000X2.800000*%
%ADD16O,2.800000X2.800000*%
%ADD17R,2.235200X2.235200*%
%ADD18R,2.400000X2.400000*%
%ADD19C,2.400000*%
%ADD20R,1.600000X1.600000*%
%ADD21C,1.600000*%
%ADD22R,2.000000X2.000000*%
%ADD23C,2.000000*%
%ADD24O,2.032000X2.540000*%
%ADD25O,1.600000X2.300000*%
%ADD26C,1.998980*%
%ADD27C,2.800000*%
%ADD28O,1.200000X1.600000*%
%ADD29O,1.200000X1.200000*%
%ADD30O,2.400000X2.400000*%
%ADD31R,1.727200X2.032000*%
%ADD32O,1.727200X2.032000*%
%ADD33R,2.032000X2.032000*%
%ADD34O,2.032000X2.032000*%
%ADD35C,0.889000*%
%ADD36C,0.203200*%
%ADD37C,1.000760*%
G04 APERTURE END LIST*
D10*
D11*
X110308572Y-125379238D02*
X110308572Y-123347238D01*
X109945715Y-123347238D01*
X109728000Y-123444000D01*
X109582858Y-123637524D01*
X109510286Y-123831048D01*
X109437715Y-124218095D01*
X109437715Y-124508381D01*
X109510286Y-124895429D01*
X109582858Y-125088952D01*
X109728000Y-125282476D01*
X109945715Y-125379238D01*
X110308572Y-125379238D01*
X108784572Y-125379238D02*
X108784572Y-123347238D01*
X107913715Y-125379238D01*
X107913715Y-123347238D01*
X107188001Y-125185714D02*
X107115429Y-125282476D01*
X107188001Y-125379238D01*
X107260572Y-125282476D01*
X107188001Y-125185714D01*
X107188001Y-125379238D01*
X107188001Y-124121333D02*
X107115429Y-124218095D01*
X107188001Y-124314857D01*
X107260572Y-124218095D01*
X107188001Y-124121333D01*
X107188001Y-124314857D01*
X104430287Y-125185714D02*
X104502858Y-125282476D01*
X104720572Y-125379238D01*
X104865715Y-125379238D01*
X105083430Y-125282476D01*
X105228572Y-125088952D01*
X105301144Y-124895429D01*
X105373715Y-124508381D01*
X105373715Y-124218095D01*
X105301144Y-123831048D01*
X105228572Y-123637524D01*
X105083430Y-123444000D01*
X104865715Y-123347238D01*
X104720572Y-123347238D01*
X104502858Y-123444000D01*
X104430287Y-123540762D01*
X103994858Y-123347238D02*
X103124001Y-123347238D01*
X103559430Y-125379238D02*
X103559430Y-123347238D01*
X102833715Y-123347238D02*
X101962858Y-123347238D01*
X102398287Y-125379238D02*
X102398287Y-123347238D01*
X100366286Y-123250476D02*
X101672572Y-125863048D01*
X99930858Y-123540762D02*
X99858287Y-123444000D01*
X99713144Y-123347238D01*
X99350287Y-123347238D01*
X99205144Y-123444000D01*
X99132573Y-123540762D01*
X99060001Y-123734286D01*
X99060001Y-123927810D01*
X99132573Y-124218095D01*
X100003430Y-125379238D01*
X99060001Y-125379238D01*
X97681144Y-123347238D02*
X98406858Y-123347238D01*
X98479429Y-124314857D01*
X98406858Y-124218095D01*
X98261715Y-124121333D01*
X97898858Y-124121333D01*
X97753715Y-124218095D01*
X97681144Y-124314857D01*
X97608572Y-124508381D01*
X97608572Y-124992190D01*
X97681144Y-125185714D01*
X97753715Y-125282476D01*
X97898858Y-125379238D01*
X98261715Y-125379238D01*
X98406858Y-125282476D01*
X98479429Y-125185714D01*
X96955429Y-124605143D02*
X95794286Y-124605143D01*
X95141143Y-123540762D02*
X95068572Y-123444000D01*
X94923429Y-123347238D01*
X94560572Y-123347238D01*
X94415429Y-123444000D01*
X94342858Y-123540762D01*
X94270286Y-123734286D01*
X94270286Y-123927810D01*
X94342858Y-124218095D01*
X95213715Y-125379238D01*
X94270286Y-125379238D01*
X93762286Y-123347238D02*
X92746286Y-123347238D01*
X93399429Y-125379238D01*
D12*
X73660000Y-134620000D02*
X73660000Y-60960000D01*
X214630000Y-134620000D02*
X73660000Y-134620000D01*
X214630000Y-60960000D02*
X214630000Y-134620000D01*
X73660000Y-60960000D02*
X214630000Y-60960000D01*
D13*
X116840000Y-69850000D03*
D14*
X116840000Y-82550000D03*
D15*
X83820000Y-83820000D03*
D16*
X83820000Y-71120000D03*
D15*
X88900000Y-83820000D03*
D16*
X88900000Y-71120000D03*
D17*
X109220000Y-96520000D03*
D18*
X97790000Y-86360000D03*
D19*
X105290000Y-86360000D03*
D20*
X114300000Y-92710000D03*
D21*
X111800000Y-92710000D03*
D22*
X104140000Y-73660000D03*
D23*
X99140000Y-73660000D03*
D22*
X116205000Y-111760000D03*
D23*
X116205000Y-106760000D03*
D21*
X109220000Y-111760000D03*
X109220000Y-106760000D03*
D13*
X114300000Y-69850000D03*
D14*
X114300000Y-82550000D03*
D13*
X80010000Y-88900000D03*
D14*
X92710000Y-88900000D03*
D24*
X114300000Y-66040000D03*
X116840000Y-66040000D03*
X111760000Y-66040000D03*
D25*
X104140000Y-105410000D03*
X101600000Y-105410000D03*
X99060000Y-105410000D03*
X96520000Y-105410000D03*
X93980000Y-105410000D03*
X91440000Y-105410000D03*
X88900000Y-105410000D03*
X86360000Y-105410000D03*
X83820000Y-105410000D03*
X81280000Y-105410000D03*
X81280000Y-113030000D03*
X83820000Y-113030000D03*
X86360000Y-113030000D03*
X88900000Y-113030000D03*
X91440000Y-113030000D03*
X93980000Y-113030000D03*
X96520000Y-113030000D03*
X99060000Y-113030000D03*
X101600000Y-113030000D03*
X104140000Y-113030000D03*
D26*
X101600000Y-66040000D03*
X104140000Y-66040000D03*
X99060000Y-66040000D03*
D20*
X114300000Y-86995000D03*
D21*
X111800000Y-86995000D03*
D13*
X153670000Y-93980000D03*
D14*
X140970000Y-93980000D03*
D13*
X171450000Y-93980000D03*
D14*
X158750000Y-93980000D03*
D13*
X189230000Y-93980000D03*
D14*
X176530000Y-93980000D03*
D27*
X147193000Y-88138000D03*
X153289000Y-73914000D03*
X153289000Y-86106000D03*
X141224000Y-73914000D03*
X141224000Y-86106000D03*
X164973000Y-88138000D03*
X171069000Y-73914000D03*
X171069000Y-86106000D03*
X159004000Y-73914000D03*
X159004000Y-86106000D03*
X182753000Y-88138000D03*
X188849000Y-73914000D03*
X188849000Y-86106000D03*
X176784000Y-73914000D03*
X176784000Y-86106000D03*
D28*
X134620000Y-90170000D03*
D29*
X135890000Y-88900000D03*
X134620000Y-87630000D03*
D28*
X134620000Y-82550000D03*
D29*
X135890000Y-81280000D03*
X134620000Y-80010000D03*
D28*
X134620000Y-74930000D03*
D29*
X135890000Y-73660000D03*
X134620000Y-72390000D03*
D13*
X207010000Y-93980000D03*
D14*
X194310000Y-93980000D03*
D13*
X194310000Y-99060000D03*
D14*
X207010000Y-99060000D03*
D13*
X176530000Y-99060000D03*
D14*
X189230000Y-99060000D03*
D27*
X200533000Y-88138000D03*
X206629000Y-73914000D03*
X206629000Y-86106000D03*
X194564000Y-73914000D03*
X194564000Y-86106000D03*
X200787000Y-105537000D03*
X194691000Y-119761000D03*
X194691000Y-107569000D03*
X206756000Y-119761000D03*
X206756000Y-107569000D03*
X183007000Y-105537000D03*
X176911000Y-119761000D03*
X176911000Y-107569000D03*
X188976000Y-119761000D03*
X188976000Y-107569000D03*
D28*
X134620000Y-67310000D03*
D29*
X135890000Y-66040000D03*
X134620000Y-64770000D03*
D28*
X134620000Y-120650000D03*
D29*
X135890000Y-119380000D03*
X134620000Y-118110000D03*
D28*
X134620000Y-113030000D03*
D29*
X135890000Y-111760000D03*
X134620000Y-110490000D03*
D13*
X158750000Y-99060000D03*
D14*
X171450000Y-99060000D03*
D13*
X140970000Y-99060000D03*
D14*
X153670000Y-99060000D03*
D27*
X165227000Y-105537000D03*
X159131000Y-119761000D03*
X159131000Y-107569000D03*
X171196000Y-119761000D03*
X171196000Y-107569000D03*
X147447000Y-105537000D03*
X141351000Y-119761000D03*
X141351000Y-107569000D03*
X153416000Y-119761000D03*
X153416000Y-107569000D03*
D28*
X134620000Y-105410000D03*
D29*
X135890000Y-104140000D03*
X134620000Y-102870000D03*
D28*
X134620000Y-97790000D03*
D29*
X135890000Y-96520000D03*
X134620000Y-95250000D03*
D28*
X134620000Y-128270000D03*
D29*
X135890000Y-127000000D03*
X134620000Y-125730000D03*
D27*
X91440000Y-128270000D03*
X81280000Y-128270000D03*
X86360000Y-128270000D03*
X86360000Y-120650000D03*
X106680000Y-128270000D03*
X81280000Y-120650000D03*
X106680000Y-120650000D03*
X91440000Y-120650000D03*
D19*
X110490000Y-82550000D03*
D30*
X110490000Y-69850000D03*
D19*
X153670000Y-66040000D03*
D30*
X140970000Y-66040000D03*
D19*
X171450000Y-66040000D03*
D30*
X158750000Y-66040000D03*
D19*
X189230000Y-66040000D03*
D30*
X176530000Y-66040000D03*
D19*
X207010000Y-66040000D03*
D30*
X194310000Y-66040000D03*
D19*
X194310000Y-128270000D03*
D30*
X207010000Y-128270000D03*
D19*
X176530000Y-128270000D03*
D30*
X189230000Y-128270000D03*
D19*
X158750000Y-128270000D03*
D30*
X171450000Y-128270000D03*
D19*
X140970000Y-128270000D03*
D30*
X153670000Y-128270000D03*
D19*
X128270000Y-88900000D03*
D30*
X123190000Y-88900000D03*
D19*
X128270000Y-81280000D03*
D30*
X123190000Y-81280000D03*
D19*
X128270000Y-73660000D03*
D30*
X123190000Y-73660000D03*
D19*
X128270000Y-66040000D03*
D30*
X123190000Y-66040000D03*
D19*
X128270000Y-119380000D03*
D30*
X123190000Y-119380000D03*
D19*
X128270000Y-111760000D03*
D30*
X123190000Y-111760000D03*
D19*
X128270000Y-104140000D03*
D30*
X123190000Y-104140000D03*
D19*
X128270000Y-96520000D03*
D30*
X123190000Y-96520000D03*
D19*
X128270000Y-127000000D03*
D30*
X123190000Y-127000000D03*
D13*
X80010000Y-71120000D03*
D14*
X80010000Y-83820000D03*
D13*
X92710000Y-71120000D03*
D14*
X92710000Y-83820000D03*
D13*
X111760000Y-129540000D03*
D14*
X111760000Y-119380000D03*
D31*
X104140000Y-96520000D03*
D32*
X101600000Y-96520000D03*
X99060000Y-96520000D03*
X96520000Y-96520000D03*
X93980000Y-96520000D03*
X91440000Y-96520000D03*
X88900000Y-96520000D03*
X86360000Y-96520000D03*
D17*
X81280000Y-96520000D03*
X118110000Y-129540000D03*
D33*
X118110000Y-119380000D03*
D34*
X118110000Y-121920000D03*
D31*
X85090000Y-66040000D03*
D32*
X82550000Y-66040000D03*
X80010000Y-66040000D03*
D35*
X147320000Y-91440000D03*
X120650000Y-101600000D03*
X119380000Y-100330000D03*
X118110000Y-99060000D03*
X116840000Y-97790000D03*
X114300000Y-127000000D03*
D36*
X86360000Y-105410000D02*
X86360000Y-96520000D01*
X96520000Y-105410000D02*
X96520000Y-96520000D01*
D37*
X116840000Y-69850000D02*
X116840000Y-66040000D01*
X147447000Y-105537000D02*
X147447000Y-91567000D01*
X147447000Y-91567000D02*
X147320000Y-91440000D01*
X114300000Y-80010000D02*
X110490000Y-76200000D01*
X114300000Y-82550000D02*
X114300000Y-80010000D01*
X110490000Y-76200000D02*
X110490000Y-69850000D01*
X110490000Y-69850000D02*
X110490000Y-67310000D01*
X110490000Y-67310000D02*
X111760000Y-66040000D01*
X140970000Y-128270000D02*
X146050000Y-128270000D01*
X147447000Y-126873000D02*
X147447000Y-106172000D01*
X146050000Y-128270000D02*
X147447000Y-126873000D01*
X80010000Y-88900000D02*
X80010000Y-83820000D01*
X120650000Y-107950000D02*
X120650000Y-106680000D01*
X134620000Y-105410000D02*
X133350000Y-106680000D01*
X133350000Y-106680000D02*
X120650000Y-106680000D01*
X120650000Y-106680000D02*
X116285000Y-106680000D01*
X116285000Y-106680000D02*
X116205000Y-106760000D01*
X134620000Y-120650000D02*
X135890000Y-121920000D01*
X135890000Y-121920000D02*
X138430000Y-121920000D01*
X134620000Y-113030000D02*
X135890000Y-114300000D01*
X135890000Y-114300000D02*
X138430000Y-114300000D01*
X134620000Y-105410000D02*
X135890000Y-106680000D01*
X135890000Y-106680000D02*
X138430000Y-106680000D01*
X134620000Y-97790000D02*
X135890000Y-99060000D01*
X135890000Y-99060000D02*
X138430000Y-99060000D01*
X134620000Y-90170000D02*
X135890000Y-91440000D01*
X135890000Y-91440000D02*
X138430000Y-91440000D01*
X134620000Y-82550000D02*
X135890000Y-83820000D01*
X135890000Y-83820000D02*
X138430000Y-83820000D01*
X134620000Y-67310000D02*
X138430000Y-71120000D01*
X138430000Y-71120000D02*
X138430000Y-76200000D01*
X134620000Y-74930000D02*
X135890000Y-76200000D01*
X135890000Y-76200000D02*
X138430000Y-76200000D01*
X134620000Y-128270000D02*
X135890000Y-129540000D01*
X138430000Y-128270000D02*
X138430000Y-121920000D01*
X138430000Y-121920000D02*
X138430000Y-114300000D01*
X138430000Y-114300000D02*
X138430000Y-106680000D01*
X138430000Y-106680000D02*
X138430000Y-99060000D01*
X138430000Y-99060000D02*
X138430000Y-91440000D01*
X138430000Y-91440000D02*
X138430000Y-83820000D01*
X138430000Y-83820000D02*
X138430000Y-76200000D01*
X137160000Y-129540000D02*
X138430000Y-128270000D01*
X135890000Y-129540000D02*
X137160000Y-129540000D01*
X85090000Y-116840000D02*
X86360000Y-118110000D01*
X86360000Y-120650000D02*
X86360000Y-118110000D01*
X80010000Y-105410000D02*
X81280000Y-105410000D01*
X78740000Y-106680000D02*
X80010000Y-105410000D01*
X78740000Y-115570000D02*
X78740000Y-106680000D01*
X80010000Y-116840000D02*
X78740000Y-115570000D01*
X85090000Y-116840000D02*
X80010000Y-116840000D01*
X119380000Y-121920000D02*
X118110000Y-121920000D01*
X120650000Y-120650000D02*
X119380000Y-121920000D01*
X120650000Y-107950000D02*
X120650000Y-120650000D01*
X92710000Y-88900000D02*
X95250000Y-86360000D01*
X95250000Y-86360000D02*
X95250000Y-67310000D01*
X104140000Y-66040000D02*
X104140000Y-63500000D01*
X85090000Y-63500000D02*
X85090000Y-66040000D01*
X86360000Y-62230000D02*
X85090000Y-63500000D01*
X102870000Y-62230000D02*
X86360000Y-62230000D01*
X104140000Y-63500000D02*
X102870000Y-62230000D01*
X104140000Y-73660000D02*
X104140000Y-66040000D01*
X95250000Y-67310000D02*
X96520000Y-66040000D01*
D36*
X123190000Y-88900000D02*
X123190000Y-92710000D01*
X120650000Y-95250000D02*
X123190000Y-92710000D01*
X120650000Y-95250000D02*
X120650000Y-101600000D01*
X99060000Y-105410000D02*
X99060000Y-101600000D01*
X101600000Y-99060000D02*
X101600000Y-96520000D01*
X99060000Y-101600000D02*
X101600000Y-99060000D01*
X123190000Y-82550000D02*
X123190000Y-85090000D01*
X120650000Y-87630000D02*
X123190000Y-85090000D01*
X120650000Y-92710000D02*
X120650000Y-87630000D01*
X119380000Y-93980000D02*
X120650000Y-92710000D01*
X119380000Y-93980000D02*
X119380000Y-100330000D01*
X123190000Y-73660000D02*
X123190000Y-77470000D01*
X118110000Y-92710000D02*
X118110000Y-99060000D01*
X119380000Y-91440000D02*
X118110000Y-92710000D01*
X119380000Y-86360000D02*
X119380000Y-91440000D01*
X120650000Y-85090000D02*
X119380000Y-86360000D01*
X120650000Y-80010000D02*
X120650000Y-85090000D01*
X123190000Y-77470000D02*
X120650000Y-80010000D01*
X88900000Y-105410000D02*
X88900000Y-101600000D01*
X91440000Y-99060000D02*
X91440000Y-96520000D01*
X88900000Y-101600000D02*
X91440000Y-99060000D01*
X123190000Y-66040000D02*
X120650000Y-68580000D01*
X120650000Y-77470000D02*
X120650000Y-68580000D01*
X119380000Y-78740000D02*
X120650000Y-77470000D01*
X119380000Y-83820000D02*
X119380000Y-78740000D01*
X118110000Y-85090000D02*
X119380000Y-83820000D01*
X118110000Y-90170000D02*
X118110000Y-85090000D01*
X116840000Y-91440000D02*
X118110000Y-90170000D01*
X116840000Y-91440000D02*
X116840000Y-97790000D01*
X86360000Y-113030000D02*
X86360000Y-109855000D01*
X88900000Y-100330000D02*
X88900000Y-96520000D01*
X87630000Y-101600000D02*
X88900000Y-100330000D01*
X87630000Y-108585000D02*
X87630000Y-101600000D01*
X86360000Y-109855000D02*
X87630000Y-108585000D01*
X88900000Y-113030000D02*
X88900000Y-109855000D01*
X93980000Y-97790000D02*
X93980000Y-96520000D01*
X90170000Y-101600000D02*
X93980000Y-97790000D01*
X90170000Y-108585000D02*
X90170000Y-101600000D01*
X88900000Y-109855000D02*
X90170000Y-108585000D01*
X96520000Y-113030000D02*
X96520000Y-110490000D01*
X99060000Y-100330000D02*
X99060000Y-96520000D01*
X97790000Y-101600000D02*
X99060000Y-100330000D01*
X97790000Y-108585000D02*
X97790000Y-101600000D01*
X96520000Y-109855000D02*
X97790000Y-108585000D01*
X96520000Y-110490000D02*
X96520000Y-109855000D01*
X99060000Y-113030000D02*
X99060000Y-109855000D01*
X104140000Y-97790000D02*
X104140000Y-96520000D01*
X100330000Y-101600000D02*
X104140000Y-97790000D01*
X100330000Y-108585000D02*
X100330000Y-101600000D01*
X99060000Y-109855000D02*
X100330000Y-108585000D01*
D37*
X116205000Y-111760000D02*
X116840000Y-111760000D01*
X116840000Y-111760000D02*
X118110000Y-113030000D01*
X118110000Y-113030000D02*
X118110000Y-119380000D01*
X106680000Y-120650000D02*
X110490000Y-120650000D01*
X104140000Y-113030000D02*
X105410000Y-113030000D01*
X106680000Y-114300000D02*
X106680000Y-120650000D01*
X105410000Y-113030000D02*
X106680000Y-114300000D01*
X194310000Y-86360000D02*
X194564000Y-86106000D01*
X176530000Y-86360000D02*
X176784000Y-86106000D01*
X158750000Y-86360000D02*
X159004000Y-86106000D01*
X140970000Y-86360000D02*
X141224000Y-86106000D01*
X207010000Y-99060000D02*
X207010000Y-107950000D01*
X207010000Y-107950000D02*
X206756000Y-108204000D01*
X189230000Y-99060000D02*
X189230000Y-107950000D01*
X189230000Y-107950000D02*
X188976000Y-108204000D01*
X171196000Y-108204000D02*
X171196000Y-99314000D01*
X153416000Y-108204000D02*
X153416000Y-99314000D01*
X194691000Y-108204000D02*
X194691000Y-99441000D01*
X194691000Y-99441000D02*
X194310000Y-99060000D01*
X176911000Y-108204000D02*
X176911000Y-99441000D01*
X176911000Y-99441000D02*
X176530000Y-99060000D01*
D36*
X110490000Y-128270000D02*
X111760000Y-129540000D01*
D37*
X159131000Y-108204000D02*
X159131000Y-99441000D01*
X159131000Y-99441000D02*
X158750000Y-99060000D01*
X141351000Y-108204000D02*
X141351000Y-99441000D01*
X141351000Y-99441000D02*
X140970000Y-99060000D01*
X114300000Y-86995000D02*
X114300000Y-86360000D01*
X114300000Y-86360000D02*
X116840000Y-83820000D01*
X114300000Y-69850000D02*
X114300000Y-74930000D01*
X116840000Y-77470000D02*
X116840000Y-82550000D01*
X114300000Y-74930000D02*
X116840000Y-77470000D01*
X110490000Y-82550000D02*
X113665000Y-85725000D01*
X113665000Y-85725000D02*
X114300000Y-86360000D01*
X116840000Y-83820000D02*
X116840000Y-82550000D01*
X114300000Y-69850000D02*
X114300000Y-66040000D01*
X147193000Y-88138000D02*
X147193000Y-67437000D01*
X148590000Y-66040000D02*
X153670000Y-66040000D01*
X147193000Y-67437000D02*
X148590000Y-66040000D01*
X153670000Y-66040000D02*
X158750000Y-66040000D01*
X158750000Y-66040000D02*
X158750000Y-73660000D01*
X158750000Y-73660000D02*
X159004000Y-73914000D01*
X141224000Y-73914000D02*
X141224000Y-66294000D01*
X141224000Y-66294000D02*
X140970000Y-66040000D01*
X164973000Y-88138000D02*
X164973000Y-67437000D01*
X166370000Y-66040000D02*
X171450000Y-66040000D01*
X164973000Y-67437000D02*
X166370000Y-66040000D01*
X171450000Y-66040000D02*
X176530000Y-66040000D01*
X176530000Y-66040000D02*
X176530000Y-73660000D01*
X176530000Y-73660000D02*
X176784000Y-73914000D01*
X182753000Y-88138000D02*
X182753000Y-67437000D01*
X184150000Y-66040000D02*
X189230000Y-66040000D01*
X182753000Y-67437000D02*
X184150000Y-66040000D01*
X189230000Y-66040000D02*
X194310000Y-66040000D01*
X194310000Y-66040000D02*
X194310000Y-73660000D01*
X194310000Y-73660000D02*
X194564000Y-73914000D01*
D36*
X113030000Y-96520000D02*
X109220000Y-96520000D01*
X114300000Y-97790000D02*
X113030000Y-96520000D01*
X114300000Y-127000000D02*
X114300000Y-97790000D01*
D37*
X200533000Y-88138000D02*
X200533000Y-67437000D01*
X201930000Y-66040000D02*
X207010000Y-66040000D01*
X200533000Y-67437000D02*
X201930000Y-66040000D01*
X206756000Y-120396000D02*
X209804000Y-120396000D01*
X209550000Y-66040000D02*
X207010000Y-66040000D01*
X210820000Y-67310000D02*
X209550000Y-66040000D01*
X210820000Y-119380000D02*
X210820000Y-67310000D01*
X209804000Y-120396000D02*
X210820000Y-119380000D01*
X206756000Y-120396000D02*
X206756000Y-128016000D01*
X206756000Y-128016000D02*
X207010000Y-128270000D01*
X194310000Y-128270000D02*
X199390000Y-128270000D01*
X200787000Y-126873000D02*
X200787000Y-106172000D01*
X199390000Y-128270000D02*
X200787000Y-126873000D01*
X194310000Y-128270000D02*
X189230000Y-128270000D01*
X188976000Y-120396000D02*
X188976000Y-128016000D01*
X188976000Y-128016000D02*
X189230000Y-128270000D01*
X176530000Y-128270000D02*
X181610000Y-128270000D01*
X183007000Y-126873000D02*
X183007000Y-106172000D01*
X181610000Y-128270000D02*
X183007000Y-126873000D01*
X171450000Y-128270000D02*
X176530000Y-128270000D01*
X171196000Y-120396000D02*
X171196000Y-128016000D01*
X171196000Y-128016000D02*
X171450000Y-128270000D01*
X153670000Y-128270000D02*
X158750000Y-128270000D01*
X158750000Y-128270000D02*
X163830000Y-128270000D01*
X163830000Y-128270000D02*
X165227000Y-126873000D01*
X165227000Y-126873000D02*
X165227000Y-106172000D01*
X153416000Y-120396000D02*
X153416000Y-128016000D01*
X153416000Y-128016000D02*
X153670000Y-128270000D01*
X86360000Y-128270000D02*
X86360000Y-130810000D01*
X118110000Y-130810000D02*
X118110000Y-129540000D01*
X116840000Y-132080000D02*
X118110000Y-130810000D01*
X87630000Y-132080000D02*
X116840000Y-132080000D01*
X86360000Y-130810000D02*
X87630000Y-132080000D01*
X110490000Y-120650000D02*
X111760000Y-119380000D01*
D36*
X106680000Y-128270000D02*
X110490000Y-128270000D01*
D37*
X140970000Y-93980000D02*
X140970000Y-86360000D01*
X153670000Y-93980000D02*
X153670000Y-86487000D01*
X153670000Y-86487000D02*
X153289000Y-86106000D01*
X158750000Y-93980000D02*
X158750000Y-86360000D01*
X171450000Y-93980000D02*
X171450000Y-86487000D01*
X171450000Y-86487000D02*
X171069000Y-86106000D01*
X176530000Y-93980000D02*
X176530000Y-86360000D01*
X189230000Y-93980000D02*
X189230000Y-86487000D01*
X189230000Y-86487000D02*
X188849000Y-86106000D01*
X194310000Y-93980000D02*
X194310000Y-86360000D01*
X207010000Y-93980000D02*
X207010000Y-86487000D01*
X207010000Y-86487000D02*
X206629000Y-86106000D01*
X171196000Y-99314000D02*
X171450000Y-99060000D01*
X153416000Y-99314000D02*
X153670000Y-99060000D01*
X111800000Y-86995000D02*
X111800000Y-92710000D01*
X105290000Y-86360000D02*
X111165000Y-86360000D01*
X111165000Y-86360000D02*
X111800000Y-86995000D01*
X96520000Y-66040000D02*
X99060000Y-66040000D01*
X105290000Y-86360000D02*
X105290000Y-74810000D01*
X105290000Y-74810000D02*
X104140000Y-73660000D01*
X81280000Y-128270000D02*
X81280000Y-125730000D01*
X81280000Y-125730000D02*
X82550000Y-124460000D01*
X82550000Y-124460000D02*
X90170000Y-124460000D01*
X90170000Y-124460000D02*
X91440000Y-123190000D01*
X91440000Y-123190000D02*
X91440000Y-120650000D01*
X88900000Y-71120000D02*
X86360000Y-68580000D01*
X82550000Y-67310000D02*
X82550000Y-66040000D01*
X83820000Y-68580000D02*
X82550000Y-67310000D01*
X86360000Y-68580000D02*
X83820000Y-68580000D01*
X80010000Y-71120000D02*
X80010000Y-66040000D01*
X88900000Y-71120000D02*
X92710000Y-71120000D01*
X80010000Y-71120000D02*
X83820000Y-71120000D01*
D36*
X81280000Y-113030000D02*
X81280000Y-109855000D01*
X81280000Y-98425000D02*
X81280000Y-96520000D01*
X82550000Y-99695000D02*
X81280000Y-98425000D01*
X82550000Y-108585000D02*
X82550000Y-99695000D01*
X81280000Y-109855000D02*
X82550000Y-108585000D01*
M02*
