M48
;DRILL file {KiCad 4.0.5+dfsg1-4+deb9u1} date Tue Sep 20 19:36:41 2022
;FORMAT={-:-/ absolute / metric / decimal}
FMAT,2
METRIC,TZ
T1C0.635
T2C0.700
T3C0.800
T4C0.900
T5C1.000
T6C1.016
T7C1.143
T8C1.199
T9C1.200
T10C1.400
%
G90
G05
M71
T1
X114.3Y-127.
X116.84Y-97.79
X118.11Y-99.06
X119.38Y-100.33
X120.65Y-101.6
X147.32Y-91.44
T2
X134.62Y-64.77
X134.62Y-67.31
X134.62Y-72.39
X134.62Y-74.93
X134.62Y-80.01
X134.62Y-82.55
X134.62Y-87.63
X134.62Y-90.17
X134.62Y-95.25
X134.62Y-97.79
X134.62Y-102.87
X134.62Y-105.41
X134.62Y-110.49
X134.62Y-113.03
X134.62Y-118.11
X134.62Y-120.65
X134.62Y-125.73
X134.62Y-128.27
X135.89Y-66.04
X135.89Y-73.66
X135.89Y-81.28
X135.89Y-88.9
X135.89Y-96.52
X135.89Y-104.14
X135.89Y-111.76
X135.89Y-119.38
X135.89Y-127.
T3
X81.28Y-105.41
X81.28Y-113.03
X83.82Y-105.41
X83.82Y-113.03
X86.36Y-105.41
X86.36Y-113.03
X88.9Y-105.41
X88.9Y-113.03
X91.44Y-105.41
X91.44Y-113.03
X93.98Y-105.41
X93.98Y-113.03
X96.52Y-105.41
X96.52Y-113.03
X99.06Y-105.41
X99.06Y-113.03
X101.6Y-105.41
X101.6Y-113.03
X104.14Y-105.41
X104.14Y-113.03
X109.22Y-106.76
X109.22Y-111.76
X111.8Y-86.995
X111.8Y-92.71
X114.3Y-86.995
X114.3Y-92.71
T4
X80.01Y-71.12
X80.01Y-83.82
X80.01Y-88.9
X92.71Y-71.12
X92.71Y-83.82
X92.71Y-88.9
X111.76Y-119.38
X111.76Y-129.54
X114.3Y-69.85
X114.3Y-82.55
X116.84Y-69.85
X116.84Y-82.55
X140.97Y-93.98
X140.97Y-99.06
X153.67Y-93.98
X153.67Y-99.06
X158.75Y-93.98
X158.75Y-99.06
X171.45Y-93.98
X171.45Y-99.06
X176.53Y-93.98
X176.53Y-99.06
X189.23Y-93.98
X189.23Y-99.06
X194.31Y-93.98
X194.31Y-99.06
X207.01Y-93.98
X207.01Y-99.06
T5
X99.14Y-73.66
X104.14Y-73.66
X116.205Y-106.76
X116.205Y-111.76
T6
X80.01Y-66.04
X81.28Y-96.52
X82.55Y-66.04
X85.09Y-66.04
X86.36Y-96.52
X88.9Y-96.52
X91.44Y-96.52
X93.98Y-96.52
X96.52Y-96.52
X99.06Y-96.52
X101.6Y-96.52
X104.14Y-96.52
X109.22Y-96.52
X118.11Y-119.38
X118.11Y-121.92
X118.11Y-129.54
T7
X111.76Y-66.04
X114.3Y-66.04
X116.84Y-66.04
T8
X99.06Y-66.04
X101.6Y-66.04
X104.14Y-66.04
T9
X97.79Y-86.36
X105.29Y-86.36
X110.49Y-69.85
X110.49Y-82.55
X123.19Y-66.04
X123.19Y-73.66
X123.19Y-81.28
X123.19Y-88.9
X123.19Y-96.52
X123.19Y-104.14
X123.19Y-111.76
X123.19Y-119.38
X123.19Y-127.
X128.27Y-66.04
X128.27Y-73.66
X128.27Y-81.28
X128.27Y-88.9
X128.27Y-96.52
X128.27Y-104.14
X128.27Y-111.76
X128.27Y-119.38
X128.27Y-127.
X140.97Y-66.04
X140.97Y-128.27
X153.67Y-66.04
X153.67Y-128.27
X158.75Y-66.04
X158.75Y-128.27
X171.45Y-66.04
X171.45Y-128.27
X176.53Y-66.04
X176.53Y-128.27
X189.23Y-66.04
X189.23Y-128.27
X194.31Y-66.04
X194.31Y-128.27
X207.01Y-66.04
X207.01Y-128.27
T10
X81.28Y-120.65
X81.28Y-128.27
X83.82Y-71.12
X83.82Y-83.82
X86.36Y-120.65
X86.36Y-128.27
X88.9Y-71.12
X88.9Y-83.82
X91.44Y-120.65
X91.44Y-128.27
X106.68Y-120.65
X106.68Y-128.27
X141.224Y-73.914
X141.224Y-86.106
X141.351Y-107.569
X141.351Y-119.761
X147.193Y-88.138
X147.447Y-105.537
X153.289Y-73.914
X153.289Y-86.106
X153.416Y-107.569
X153.416Y-119.761
X159.004Y-73.914
X159.004Y-86.106
X159.131Y-107.569
X159.131Y-119.761
X164.973Y-88.138
X165.227Y-105.537
X171.069Y-73.914
X171.069Y-86.106
X171.196Y-107.569
X171.196Y-119.761
X176.784Y-73.914
X176.784Y-86.106
X176.911Y-107.569
X176.911Y-119.761
X182.753Y-88.138
X183.007Y-105.537
X188.849Y-73.914
X188.849Y-86.106
X188.976Y-107.569
X188.976Y-119.761
X194.564Y-73.914
X194.564Y-86.106
X194.691Y-107.569
X194.691Y-119.761
X200.533Y-88.138
X200.787Y-105.537
X206.629Y-73.914
X206.629Y-86.106
X206.756Y-107.569
X206.756Y-119.761
T0
M30
