G04 #@! TF.FileFunction,Soldermask,Top*
%FSLAX46Y46*%
G04 Gerber Fmt 4.6, Leading zero omitted, Abs format (unit mm)*
G04 Created by KiCad (PCBNEW 4.0.5+dfsg1-4+deb9u1) date Tue Sep 20 19:36:37 2022*
%MOMM*%
%LPD*%
G01*
G04 APERTURE LIST*
%ADD10C,0.100000*%
%ADD11R,2.308000X2.308000*%
%ADD12O,2.308000X2.308000*%
%ADD13R,3.308000X3.308000*%
%ADD14O,3.308000X3.308000*%
%ADD15R,2.743200X2.743200*%
%ADD16R,2.908000X2.908000*%
%ADD17C,2.908000*%
%ADD18R,2.108000X2.108000*%
%ADD19C,2.108000*%
%ADD20R,2.508000X2.508000*%
%ADD21C,2.508000*%
%ADD22O,2.540000X3.048000*%
%ADD23O,2.108000X2.808000*%
%ADD24C,2.506980*%
%ADD25C,3.308000*%
%ADD26O,1.708000X2.108000*%
%ADD27O,1.708000X1.708000*%
%ADD28O,2.908000X2.908000*%
%ADD29R,2.235200X2.540000*%
%ADD30O,2.235200X2.540000*%
%ADD31R,2.540000X2.540000*%
%ADD32O,2.540000X2.540000*%
G04 APERTURE END LIST*
D10*
D11*
X116840000Y-69850000D03*
D12*
X116840000Y-82550000D03*
D13*
X83820000Y-83820000D03*
D14*
X83820000Y-71120000D03*
D13*
X88900000Y-83820000D03*
D14*
X88900000Y-71120000D03*
D15*
X109220000Y-96520000D03*
D16*
X97790000Y-86360000D03*
D17*
X105290000Y-86360000D03*
D18*
X114300000Y-92710000D03*
D19*
X111800000Y-92710000D03*
D20*
X104140000Y-73660000D03*
D21*
X99140000Y-73660000D03*
D20*
X116205000Y-111760000D03*
D21*
X116205000Y-106760000D03*
D19*
X109220000Y-111760000D03*
X109220000Y-106760000D03*
D11*
X114300000Y-69850000D03*
D12*
X114300000Y-82550000D03*
D11*
X80010000Y-88900000D03*
D12*
X92710000Y-88900000D03*
D22*
X114300000Y-66040000D03*
X116840000Y-66040000D03*
X111760000Y-66040000D03*
D23*
X104140000Y-105410000D03*
X101600000Y-105410000D03*
X99060000Y-105410000D03*
X96520000Y-105410000D03*
X93980000Y-105410000D03*
X91440000Y-105410000D03*
X88900000Y-105410000D03*
X86360000Y-105410000D03*
X83820000Y-105410000D03*
X81280000Y-105410000D03*
X81280000Y-113030000D03*
X83820000Y-113030000D03*
X86360000Y-113030000D03*
X88900000Y-113030000D03*
X91440000Y-113030000D03*
X93980000Y-113030000D03*
X96520000Y-113030000D03*
X99060000Y-113030000D03*
X101600000Y-113030000D03*
X104140000Y-113030000D03*
D24*
X101600000Y-66040000D03*
X104140000Y-66040000D03*
X99060000Y-66040000D03*
D18*
X114300000Y-86995000D03*
D19*
X111800000Y-86995000D03*
D11*
X153670000Y-93980000D03*
D12*
X140970000Y-93980000D03*
D11*
X171450000Y-93980000D03*
D12*
X158750000Y-93980000D03*
D11*
X189230000Y-93980000D03*
D12*
X176530000Y-93980000D03*
D25*
X147193000Y-88138000D03*
X153289000Y-73914000D03*
X153289000Y-86106000D03*
X141224000Y-73914000D03*
X141224000Y-86106000D03*
X164973000Y-88138000D03*
X171069000Y-73914000D03*
X171069000Y-86106000D03*
X159004000Y-73914000D03*
X159004000Y-86106000D03*
X182753000Y-88138000D03*
X188849000Y-73914000D03*
X188849000Y-86106000D03*
X176784000Y-73914000D03*
X176784000Y-86106000D03*
D26*
X134620000Y-90170000D03*
D27*
X135890000Y-88900000D03*
X134620000Y-87630000D03*
D26*
X134620000Y-82550000D03*
D27*
X135890000Y-81280000D03*
X134620000Y-80010000D03*
D26*
X134620000Y-74930000D03*
D27*
X135890000Y-73660000D03*
X134620000Y-72390000D03*
D11*
X207010000Y-93980000D03*
D12*
X194310000Y-93980000D03*
D11*
X194310000Y-99060000D03*
D12*
X207010000Y-99060000D03*
D11*
X176530000Y-99060000D03*
D12*
X189230000Y-99060000D03*
D25*
X200533000Y-88138000D03*
X206629000Y-73914000D03*
X206629000Y-86106000D03*
X194564000Y-73914000D03*
X194564000Y-86106000D03*
X200787000Y-105537000D03*
X194691000Y-119761000D03*
X194691000Y-107569000D03*
X206756000Y-119761000D03*
X206756000Y-107569000D03*
X183007000Y-105537000D03*
X176911000Y-119761000D03*
X176911000Y-107569000D03*
X188976000Y-119761000D03*
X188976000Y-107569000D03*
D26*
X134620000Y-67310000D03*
D27*
X135890000Y-66040000D03*
X134620000Y-64770000D03*
D26*
X134620000Y-120650000D03*
D27*
X135890000Y-119380000D03*
X134620000Y-118110000D03*
D26*
X134620000Y-113030000D03*
D27*
X135890000Y-111760000D03*
X134620000Y-110490000D03*
D11*
X158750000Y-99060000D03*
D12*
X171450000Y-99060000D03*
D11*
X140970000Y-99060000D03*
D12*
X153670000Y-99060000D03*
D25*
X165227000Y-105537000D03*
X159131000Y-119761000D03*
X159131000Y-107569000D03*
X171196000Y-119761000D03*
X171196000Y-107569000D03*
X147447000Y-105537000D03*
X141351000Y-119761000D03*
X141351000Y-107569000D03*
X153416000Y-119761000D03*
X153416000Y-107569000D03*
D26*
X134620000Y-105410000D03*
D27*
X135890000Y-104140000D03*
X134620000Y-102870000D03*
D26*
X134620000Y-97790000D03*
D27*
X135890000Y-96520000D03*
X134620000Y-95250000D03*
D26*
X134620000Y-128270000D03*
D27*
X135890000Y-127000000D03*
X134620000Y-125730000D03*
D25*
X91440000Y-128270000D03*
X81280000Y-128270000D03*
X86360000Y-128270000D03*
X86360000Y-120650000D03*
X106680000Y-128270000D03*
X81280000Y-120650000D03*
X106680000Y-120650000D03*
X91440000Y-120650000D03*
D17*
X110490000Y-82550000D03*
D28*
X110490000Y-69850000D03*
D17*
X153670000Y-66040000D03*
D28*
X140970000Y-66040000D03*
D17*
X171450000Y-66040000D03*
D28*
X158750000Y-66040000D03*
D17*
X189230000Y-66040000D03*
D28*
X176530000Y-66040000D03*
D17*
X207010000Y-66040000D03*
D28*
X194310000Y-66040000D03*
D17*
X194310000Y-128270000D03*
D28*
X207010000Y-128270000D03*
D17*
X176530000Y-128270000D03*
D28*
X189230000Y-128270000D03*
D17*
X158750000Y-128270000D03*
D28*
X171450000Y-128270000D03*
D17*
X140970000Y-128270000D03*
D28*
X153670000Y-128270000D03*
D17*
X128270000Y-88900000D03*
D28*
X123190000Y-88900000D03*
D17*
X128270000Y-81280000D03*
D28*
X123190000Y-81280000D03*
D17*
X128270000Y-73660000D03*
D28*
X123190000Y-73660000D03*
D17*
X128270000Y-66040000D03*
D28*
X123190000Y-66040000D03*
D17*
X128270000Y-119380000D03*
D28*
X123190000Y-119380000D03*
D17*
X128270000Y-111760000D03*
D28*
X123190000Y-111760000D03*
D17*
X128270000Y-104140000D03*
D28*
X123190000Y-104140000D03*
D17*
X128270000Y-96520000D03*
D28*
X123190000Y-96520000D03*
D17*
X128270000Y-127000000D03*
D28*
X123190000Y-127000000D03*
D11*
X80010000Y-71120000D03*
D12*
X80010000Y-83820000D03*
D11*
X92710000Y-71120000D03*
D12*
X92710000Y-83820000D03*
D11*
X111760000Y-129540000D03*
D12*
X111760000Y-119380000D03*
D29*
X104140000Y-96520000D03*
D30*
X101600000Y-96520000D03*
X99060000Y-96520000D03*
X96520000Y-96520000D03*
X93980000Y-96520000D03*
X91440000Y-96520000D03*
X88900000Y-96520000D03*
X86360000Y-96520000D03*
D15*
X81280000Y-96520000D03*
X118110000Y-129540000D03*
D31*
X118110000Y-119380000D03*
D32*
X118110000Y-121920000D03*
D29*
X85090000Y-66040000D03*
D30*
X82550000Y-66040000D03*
X80010000Y-66040000D03*
M02*
