G04 #@! TF.FileFunction,Legend,Top*
%FSLAX46Y46*%
G04 Gerber Fmt 4.6, Leading zero omitted, Abs format (unit mm)*
G04 Created by KiCad (PCBNEW 4.0.5+dfsg1-4+deb9u1) date Sun Sep  4 20:04:09 2022*
%MOMM*%
%LPD*%
G01*
G04 APERTURE LIST*
%ADD10C,0.100000*%
%ADD11C,0.304800*%
%ADD12C,0.152400*%
%ADD13C,0.203200*%
%ADD14C,0.381000*%
%ADD15C,0.254000*%
%ADD16C,0.271780*%
%ADD17C,0.269240*%
%ADD18C,0.285750*%
G04 APERTURE END LIST*
D10*
D11*
X119634000Y-92964000D02*
X126746000Y-92964000D01*
X126746000Y-92964000D02*
X126746000Y-94996000D01*
X126746000Y-94996000D02*
X119634000Y-94996000D01*
X119634000Y-94996000D02*
X119634000Y-92964000D01*
X119634000Y-93472000D02*
X120142000Y-92964000D01*
X136906000Y-94996000D02*
X129794000Y-94996000D01*
X129794000Y-94996000D02*
X129794000Y-92964000D01*
X129794000Y-92964000D02*
X136906000Y-92964000D01*
X136906000Y-92964000D02*
X136906000Y-94996000D01*
X136906000Y-94488000D02*
X136398000Y-94996000D01*
X131826000Y-107696000D02*
X124714000Y-107696000D01*
X124714000Y-107696000D02*
X124714000Y-105664000D01*
X124714000Y-105664000D02*
X131826000Y-105664000D01*
X131826000Y-105664000D02*
X131826000Y-107696000D01*
X131826000Y-107188000D02*
X131318000Y-107696000D01*
X129794000Y-96774000D02*
X136906000Y-96774000D01*
X136906000Y-96774000D02*
X136906000Y-98806000D01*
X136906000Y-98806000D02*
X129794000Y-98806000D01*
X129794000Y-98806000D02*
X129794000Y-96774000D01*
X129794000Y-97282000D02*
X130302000Y-96774000D01*
X119634000Y-78994000D02*
X126746000Y-78994000D01*
X126746000Y-78994000D02*
X126746000Y-81026000D01*
X126746000Y-81026000D02*
X119634000Y-81026000D01*
X119634000Y-81026000D02*
X119634000Y-78994000D01*
X119634000Y-79502000D02*
X120142000Y-78994000D01*
X181356000Y-65786000D02*
X174244000Y-65786000D01*
X174244000Y-65786000D02*
X174244000Y-63754000D01*
X174244000Y-63754000D02*
X181356000Y-63754000D01*
X181356000Y-63754000D02*
X181356000Y-65786000D01*
X181356000Y-65278000D02*
X180848000Y-65786000D01*
X181356000Y-98806000D02*
X174244000Y-98806000D01*
X174244000Y-98806000D02*
X174244000Y-96774000D01*
X174244000Y-96774000D02*
X181356000Y-96774000D01*
X181356000Y-96774000D02*
X181356000Y-98806000D01*
X181356000Y-98298000D02*
X180848000Y-98806000D01*
X101346000Y-106426000D02*
X94234000Y-106426000D01*
X94234000Y-106426000D02*
X94234000Y-104394000D01*
X94234000Y-104394000D02*
X101346000Y-104394000D01*
X101346000Y-104394000D02*
X101346000Y-106426000D01*
X101346000Y-105918000D02*
X100838000Y-106426000D01*
X145034000Y-119634000D02*
X152146000Y-119634000D01*
X152146000Y-119634000D02*
X152146000Y-121666000D01*
X152146000Y-121666000D02*
X145034000Y-121666000D01*
X145034000Y-121666000D02*
X145034000Y-119634000D01*
X145034000Y-120142000D02*
X145542000Y-119634000D01*
X100203000Y-72390000D02*
X100203000Y-88900000D01*
X100203000Y-88900000D02*
X110363000Y-88900000D01*
X110363000Y-88900000D02*
X110363000Y-72390000D01*
X110363000Y-72390000D02*
X100203000Y-72390000D01*
X101473000Y-72390000D02*
X101473000Y-71120000D01*
X101473000Y-71120000D02*
X104013000Y-71120000D01*
X104013000Y-71120000D02*
X104013000Y-72390000D01*
X102743000Y-71120000D02*
X102743000Y-69850000D01*
X107823000Y-72390000D02*
X107823000Y-69850000D01*
X84963000Y-72390000D02*
X84963000Y-88900000D01*
X84963000Y-88900000D02*
X95123000Y-88900000D01*
X95123000Y-88900000D02*
X95123000Y-72390000D01*
X95123000Y-72390000D02*
X84963000Y-72390000D01*
X86233000Y-72390000D02*
X86233000Y-71120000D01*
X86233000Y-71120000D02*
X88773000Y-71120000D01*
X88773000Y-71120000D02*
X88773000Y-72390000D01*
X87503000Y-71120000D02*
X87503000Y-69850000D01*
X92583000Y-72390000D02*
X92583000Y-69850000D01*
X134620000Y-114300000D02*
X133350000Y-114300000D01*
X133350000Y-114300000D02*
X133350000Y-113030000D01*
X133350000Y-113030000D02*
X123190000Y-113030000D01*
X123190000Y-113030000D02*
X123190000Y-114300000D01*
X123190000Y-114300000D02*
X121920000Y-114300000D01*
X123190000Y-114300000D02*
X123190000Y-115570000D01*
X123190000Y-115570000D02*
X133350000Y-115570000D01*
X133350000Y-115570000D02*
X133350000Y-114300000D01*
X132080000Y-113030000D02*
X132080000Y-115570000D01*
X132334000Y-113030000D02*
X132334000Y-115570000D01*
X121920000Y-83820000D02*
X123190000Y-83820000D01*
X123190000Y-83820000D02*
X123190000Y-85090000D01*
X123190000Y-85090000D02*
X133350000Y-85090000D01*
X133350000Y-85090000D02*
X133350000Y-83820000D01*
X133350000Y-83820000D02*
X134620000Y-83820000D01*
X133350000Y-83820000D02*
X133350000Y-82550000D01*
X133350000Y-82550000D02*
X123190000Y-82550000D01*
X123190000Y-82550000D02*
X123190000Y-83820000D01*
X124460000Y-85090000D02*
X124460000Y-82550000D01*
X124206000Y-85090000D02*
X124206000Y-82550000D01*
D12*
X132080000Y-78105000D02*
X130810000Y-76835000D01*
X130810000Y-65405000D02*
X132080000Y-64135000D01*
X134620000Y-64135000D02*
X135890000Y-65405000D01*
X134620000Y-78105000D02*
X135890000Y-76835000D01*
X130810000Y-76835000D02*
X130810000Y-65405000D01*
X132080000Y-78105000D02*
X134620000Y-78105000D01*
X135890000Y-76835000D02*
X135890000Y-65405000D01*
X134620000Y-64135000D02*
X132080000Y-64135000D01*
D11*
X134620000Y-90170000D02*
X121920000Y-90170000D01*
X121920000Y-90170000D02*
X121920000Y-87630000D01*
X121920000Y-87630000D02*
X134620000Y-87630000D01*
X121920000Y-88900000D02*
X120650000Y-88900000D01*
X135890000Y-88900000D02*
X134620000Y-88900000D01*
X134620000Y-89408000D02*
X133858000Y-90170000D01*
X134620000Y-90170000D02*
X134620000Y-87630000D01*
X142240000Y-124460000D02*
X154940000Y-124460000D01*
X154940000Y-124460000D02*
X154940000Y-127000000D01*
X154940000Y-127000000D02*
X142240000Y-127000000D01*
X154940000Y-125730000D02*
X156210000Y-125730000D01*
X140970000Y-125730000D02*
X142240000Y-125730000D01*
X142240000Y-125222000D02*
X143002000Y-124460000D01*
X142240000Y-124460000D02*
X142240000Y-127000000D01*
X100330000Y-99060000D02*
X87630000Y-99060000D01*
X87630000Y-99060000D02*
X87630000Y-96520000D01*
X87630000Y-96520000D02*
X100330000Y-96520000D01*
X87630000Y-97790000D02*
X86360000Y-97790000D01*
X101600000Y-97790000D02*
X100330000Y-97790000D01*
X100330000Y-98298000D02*
X99568000Y-99060000D01*
X100330000Y-99060000D02*
X100330000Y-96520000D01*
X87630000Y-91440000D02*
X100330000Y-91440000D01*
X100330000Y-91440000D02*
X100330000Y-93980000D01*
X100330000Y-93980000D02*
X87630000Y-93980000D01*
X100330000Y-92710000D02*
X101600000Y-92710000D01*
X86360000Y-92710000D02*
X87630000Y-92710000D01*
X87630000Y-92202000D02*
X88392000Y-91440000D01*
X87630000Y-91440000D02*
X87630000Y-93980000D01*
X111760000Y-102870000D02*
X111760000Y-115570000D01*
X111760000Y-115570000D02*
X109220000Y-115570000D01*
X109220000Y-115570000D02*
X109220000Y-102870000D01*
X110490000Y-115570000D02*
X110490000Y-116840000D01*
X110490000Y-101600000D02*
X110490000Y-102870000D01*
X110998000Y-102870000D02*
X111760000Y-103632000D01*
X111760000Y-102870000D02*
X109220000Y-102870000D01*
X118110000Y-69850000D02*
X118110000Y-82550000D01*
X118110000Y-82550000D02*
X115570000Y-82550000D01*
X115570000Y-82550000D02*
X115570000Y-69850000D01*
X116840000Y-82550000D02*
X116840000Y-83820000D01*
X116840000Y-68580000D02*
X116840000Y-69850000D01*
X117348000Y-69850000D02*
X118110000Y-70612000D01*
X118110000Y-69850000D02*
X115570000Y-69850000D01*
X121920000Y-100330000D02*
X134620000Y-100330000D01*
X134620000Y-100330000D02*
X134620000Y-102870000D01*
X134620000Y-102870000D02*
X121920000Y-102870000D01*
X134620000Y-101600000D02*
X135890000Y-101600000D01*
X120650000Y-101600000D02*
X121920000Y-101600000D01*
X121920000Y-101092000D02*
X122682000Y-100330000D01*
X121920000Y-100330000D02*
X121920000Y-102870000D01*
D13*
X113157000Y-95250000D02*
G75*
G03X113157000Y-95250000I-3556000J0D01*
G01*
D11*
X134620000Y-121920000D02*
X130810000Y-125730000D01*
X130810000Y-125730000D02*
X130810000Y-127000000D01*
X130810000Y-127000000D02*
X132080000Y-128270000D01*
X132080000Y-128270000D02*
X134620000Y-128270000D01*
X134620000Y-128270000D02*
X137160000Y-125730000D01*
X137160000Y-125730000D02*
X137160000Y-123190000D01*
X137160000Y-123190000D02*
X135890000Y-121920000D01*
X135890000Y-121920000D02*
X134620000Y-121920000D01*
X189230000Y-63500000D02*
X209550000Y-63500000D01*
X209550000Y-63500000D02*
X209550000Y-66040000D01*
X209550000Y-66040000D02*
X189230000Y-66040000D01*
X189230000Y-66040000D02*
X189230000Y-63500000D01*
X191770000Y-66040000D02*
X191770000Y-63500000D01*
X161290000Y-66040000D02*
X161290000Y-63500000D01*
X161290000Y-63500000D02*
X168910000Y-63500000D01*
X168910000Y-63500000D02*
X168910000Y-66040000D01*
X168910000Y-66040000D02*
X161290000Y-66040000D01*
X163830000Y-63500000D02*
X163830000Y-66040000D01*
X120650000Y-66040000D02*
X120650000Y-63500000D01*
X120650000Y-63500000D02*
X125730000Y-63500000D01*
X125730000Y-63500000D02*
X125730000Y-66040000D01*
X125730000Y-66040000D02*
X120650000Y-66040000D01*
X95250000Y-66040000D02*
X95250000Y-63500000D01*
X95250000Y-63500000D02*
X102870000Y-63500000D01*
X102870000Y-63500000D02*
X102870000Y-66040000D01*
X102870000Y-66040000D02*
X95250000Y-66040000D01*
X97790000Y-63500000D02*
X97790000Y-66040000D01*
D14*
X100330000Y-107950000D02*
X100330000Y-128270000D01*
X95250000Y-128270000D02*
X95250000Y-107950000D01*
X95250000Y-107950000D02*
X100330000Y-107950000D01*
X99060000Y-107950000D02*
X99060000Y-109220000D01*
X99060000Y-109220000D02*
X96520000Y-109220000D01*
X96520000Y-109220000D02*
X96520000Y-107950000D01*
X100330000Y-128270000D02*
X95250000Y-128270000D01*
X147320000Y-116840000D02*
X147320000Y-115570000D01*
X147320000Y-115570000D02*
X149860000Y-115570000D01*
X149860000Y-115570000D02*
X149860000Y-116840000D01*
X142240000Y-116840000D02*
X142240000Y-63500000D01*
X142240000Y-63500000D02*
X154940000Y-63500000D01*
X154940000Y-63500000D02*
X154940000Y-116840000D01*
X154940000Y-116840000D02*
X142240000Y-116840000D01*
X179070000Y-100330000D02*
X179070000Y-101600000D01*
X179070000Y-101600000D02*
X176530000Y-101600000D01*
X176530000Y-101600000D02*
X176530000Y-100330000D01*
X180340000Y-100330000D02*
X180340000Y-128270000D01*
X180340000Y-128270000D02*
X175260000Y-128270000D01*
X175260000Y-128270000D02*
X175260000Y-100330000D01*
X175260000Y-100330000D02*
X180340000Y-100330000D01*
X179070000Y-67310000D02*
X179070000Y-68580000D01*
X179070000Y-68580000D02*
X176530000Y-68580000D01*
X176530000Y-68580000D02*
X176530000Y-67310000D01*
X180340000Y-67310000D02*
X180340000Y-95250000D01*
X180340000Y-95250000D02*
X175260000Y-95250000D01*
X175260000Y-95250000D02*
X175260000Y-67310000D01*
X175260000Y-67310000D02*
X180340000Y-67310000D01*
D13*
X122536857Y-94342857D02*
X122488476Y-94391238D01*
X122343333Y-94439619D01*
X122246571Y-94439619D01*
X122101429Y-94391238D01*
X122004667Y-94294476D01*
X121956286Y-94197714D01*
X121907905Y-94004190D01*
X121907905Y-93859048D01*
X121956286Y-93665524D01*
X122004667Y-93568762D01*
X122101429Y-93472000D01*
X122246571Y-93423619D01*
X122343333Y-93423619D01*
X122488476Y-93472000D01*
X122536857Y-93520381D01*
X123504476Y-94439619D02*
X122923905Y-94439619D01*
X123214191Y-94439619D02*
X123214191Y-93423619D01*
X123117429Y-93568762D01*
X123020667Y-93665524D01*
X122923905Y-93713905D01*
X124472095Y-94439619D02*
X123891524Y-94439619D01*
X124181810Y-94439619D02*
X124181810Y-93423619D01*
X124085048Y-93568762D01*
X123988286Y-93665524D01*
X123891524Y-93713905D01*
X132696857Y-94342857D02*
X132648476Y-94391238D01*
X132503333Y-94439619D01*
X132406571Y-94439619D01*
X132261429Y-94391238D01*
X132164667Y-94294476D01*
X132116286Y-94197714D01*
X132067905Y-94004190D01*
X132067905Y-93859048D01*
X132116286Y-93665524D01*
X132164667Y-93568762D01*
X132261429Y-93472000D01*
X132406571Y-93423619D01*
X132503333Y-93423619D01*
X132648476Y-93472000D01*
X132696857Y-93520381D01*
X133664476Y-94439619D02*
X133083905Y-94439619D01*
X133374191Y-94439619D02*
X133374191Y-93423619D01*
X133277429Y-93568762D01*
X133180667Y-93665524D01*
X133083905Y-93713905D01*
X134293429Y-93423619D02*
X134390190Y-93423619D01*
X134486952Y-93472000D01*
X134535333Y-93520381D01*
X134583714Y-93617143D01*
X134632095Y-93810667D01*
X134632095Y-94052571D01*
X134583714Y-94246095D01*
X134535333Y-94342857D01*
X134486952Y-94391238D01*
X134390190Y-94439619D01*
X134293429Y-94439619D01*
X134196667Y-94391238D01*
X134148286Y-94342857D01*
X134099905Y-94246095D01*
X134051524Y-94052571D01*
X134051524Y-93810667D01*
X134099905Y-93617143D01*
X134148286Y-93520381D01*
X134196667Y-93472000D01*
X134293429Y-93423619D01*
X128100667Y-107042857D02*
X128052286Y-107091238D01*
X127907143Y-107139619D01*
X127810381Y-107139619D01*
X127665239Y-107091238D01*
X127568477Y-106994476D01*
X127520096Y-106897714D01*
X127471715Y-106704190D01*
X127471715Y-106559048D01*
X127520096Y-106365524D01*
X127568477Y-106268762D01*
X127665239Y-106172000D01*
X127810381Y-106123619D01*
X127907143Y-106123619D01*
X128052286Y-106172000D01*
X128100667Y-106220381D01*
X128584477Y-107139619D02*
X128778001Y-107139619D01*
X128874762Y-107091238D01*
X128923143Y-107042857D01*
X129019905Y-106897714D01*
X129068286Y-106704190D01*
X129068286Y-106317143D01*
X129019905Y-106220381D01*
X128971524Y-106172000D01*
X128874762Y-106123619D01*
X128681239Y-106123619D01*
X128584477Y-106172000D01*
X128536096Y-106220381D01*
X128487715Y-106317143D01*
X128487715Y-106559048D01*
X128536096Y-106655810D01*
X128584477Y-106704190D01*
X128681239Y-106752571D01*
X128874762Y-106752571D01*
X128971524Y-106704190D01*
X129019905Y-106655810D01*
X129068286Y-106559048D01*
X133180667Y-98152857D02*
X133132286Y-98201238D01*
X132987143Y-98249619D01*
X132890381Y-98249619D01*
X132745239Y-98201238D01*
X132648477Y-98104476D01*
X132600096Y-98007714D01*
X132551715Y-97814190D01*
X132551715Y-97669048D01*
X132600096Y-97475524D01*
X132648477Y-97378762D01*
X132745239Y-97282000D01*
X132890381Y-97233619D01*
X132987143Y-97233619D01*
X133132286Y-97282000D01*
X133180667Y-97330381D01*
X133761239Y-97669048D02*
X133664477Y-97620667D01*
X133616096Y-97572286D01*
X133567715Y-97475524D01*
X133567715Y-97427143D01*
X133616096Y-97330381D01*
X133664477Y-97282000D01*
X133761239Y-97233619D01*
X133954762Y-97233619D01*
X134051524Y-97282000D01*
X134099905Y-97330381D01*
X134148286Y-97427143D01*
X134148286Y-97475524D01*
X134099905Y-97572286D01*
X134051524Y-97620667D01*
X133954762Y-97669048D01*
X133761239Y-97669048D01*
X133664477Y-97717429D01*
X133616096Y-97765810D01*
X133567715Y-97862571D01*
X133567715Y-98056095D01*
X133616096Y-98152857D01*
X133664477Y-98201238D01*
X133761239Y-98249619D01*
X133954762Y-98249619D01*
X134051524Y-98201238D01*
X134099905Y-98152857D01*
X134148286Y-98056095D01*
X134148286Y-97862571D01*
X134099905Y-97765810D01*
X134051524Y-97717429D01*
X133954762Y-97669048D01*
X123020667Y-80372857D02*
X122972286Y-80421238D01*
X122827143Y-80469619D01*
X122730381Y-80469619D01*
X122585239Y-80421238D01*
X122488477Y-80324476D01*
X122440096Y-80227714D01*
X122391715Y-80034190D01*
X122391715Y-79889048D01*
X122440096Y-79695524D01*
X122488477Y-79598762D01*
X122585239Y-79502000D01*
X122730381Y-79453619D01*
X122827143Y-79453619D01*
X122972286Y-79502000D01*
X123020667Y-79550381D01*
X123359334Y-79453619D02*
X124036667Y-79453619D01*
X123601239Y-80469619D01*
X177630667Y-65132857D02*
X177582286Y-65181238D01*
X177437143Y-65229619D01*
X177340381Y-65229619D01*
X177195239Y-65181238D01*
X177098477Y-65084476D01*
X177050096Y-64987714D01*
X177001715Y-64794190D01*
X177001715Y-64649048D01*
X177050096Y-64455524D01*
X177098477Y-64358762D01*
X177195239Y-64262000D01*
X177340381Y-64213619D01*
X177437143Y-64213619D01*
X177582286Y-64262000D01*
X177630667Y-64310381D01*
X178501524Y-64213619D02*
X178308001Y-64213619D01*
X178211239Y-64262000D01*
X178162858Y-64310381D01*
X178066096Y-64455524D01*
X178017715Y-64649048D01*
X178017715Y-65036095D01*
X178066096Y-65132857D01*
X178114477Y-65181238D01*
X178211239Y-65229619D01*
X178404762Y-65229619D01*
X178501524Y-65181238D01*
X178549905Y-65132857D01*
X178598286Y-65036095D01*
X178598286Y-64794190D01*
X178549905Y-64697429D01*
X178501524Y-64649048D01*
X178404762Y-64600667D01*
X178211239Y-64600667D01*
X178114477Y-64649048D01*
X178066096Y-64697429D01*
X178017715Y-64794190D01*
X177630667Y-98152857D02*
X177582286Y-98201238D01*
X177437143Y-98249619D01*
X177340381Y-98249619D01*
X177195239Y-98201238D01*
X177098477Y-98104476D01*
X177050096Y-98007714D01*
X177001715Y-97814190D01*
X177001715Y-97669048D01*
X177050096Y-97475524D01*
X177098477Y-97378762D01*
X177195239Y-97282000D01*
X177340381Y-97233619D01*
X177437143Y-97233619D01*
X177582286Y-97282000D01*
X177630667Y-97330381D01*
X178549905Y-97233619D02*
X178066096Y-97233619D01*
X178017715Y-97717429D01*
X178066096Y-97669048D01*
X178162858Y-97620667D01*
X178404762Y-97620667D01*
X178501524Y-97669048D01*
X178549905Y-97717429D01*
X178598286Y-97814190D01*
X178598286Y-98056095D01*
X178549905Y-98152857D01*
X178501524Y-98201238D01*
X178404762Y-98249619D01*
X178162858Y-98249619D01*
X178066096Y-98201238D01*
X178017715Y-98152857D01*
X97620667Y-105772857D02*
X97572286Y-105821238D01*
X97427143Y-105869619D01*
X97330381Y-105869619D01*
X97185239Y-105821238D01*
X97088477Y-105724476D01*
X97040096Y-105627714D01*
X96991715Y-105434190D01*
X96991715Y-105289048D01*
X97040096Y-105095524D01*
X97088477Y-104998762D01*
X97185239Y-104902000D01*
X97330381Y-104853619D01*
X97427143Y-104853619D01*
X97572286Y-104902000D01*
X97620667Y-104950381D01*
X98491524Y-105192286D02*
X98491524Y-105869619D01*
X98249620Y-104805238D02*
X98007715Y-105530952D01*
X98636667Y-105530952D01*
X148420667Y-121012857D02*
X148372286Y-121061238D01*
X148227143Y-121109619D01*
X148130381Y-121109619D01*
X147985239Y-121061238D01*
X147888477Y-120964476D01*
X147840096Y-120867714D01*
X147791715Y-120674190D01*
X147791715Y-120529048D01*
X147840096Y-120335524D01*
X147888477Y-120238762D01*
X147985239Y-120142000D01*
X148130381Y-120093619D01*
X148227143Y-120093619D01*
X148372286Y-120142000D01*
X148420667Y-120190381D01*
X148759334Y-120093619D02*
X149388286Y-120093619D01*
X149049620Y-120480667D01*
X149194762Y-120480667D01*
X149291524Y-120529048D01*
X149339905Y-120577429D01*
X149388286Y-120674190D01*
X149388286Y-120916095D01*
X149339905Y-121012857D01*
X149291524Y-121061238D01*
X149194762Y-121109619D01*
X148904477Y-121109619D01*
X148807715Y-121061238D01*
X148759334Y-121012857D01*
X103414286Y-80221667D02*
X103486857Y-80282143D01*
X103559429Y-80463572D01*
X103559429Y-80584524D01*
X103486857Y-80765952D01*
X103341714Y-80886905D01*
X103196571Y-80947381D01*
X102906286Y-81007857D01*
X102688571Y-81007857D01*
X102398286Y-80947381D01*
X102253143Y-80886905D01*
X102108000Y-80765952D01*
X102035429Y-80584524D01*
X102035429Y-80463572D01*
X102108000Y-80282143D01*
X102180571Y-80221667D01*
X102180571Y-79737857D02*
X102108000Y-79677381D01*
X102035429Y-79556429D01*
X102035429Y-79254048D01*
X102108000Y-79133095D01*
X102180571Y-79072619D01*
X102325714Y-79012143D01*
X102470857Y-79012143D01*
X102688571Y-79072619D01*
X103559429Y-79798333D01*
X103559429Y-79012143D01*
X108639429Y-81431191D02*
X108639429Y-82156905D01*
X108639429Y-81794048D02*
X107115429Y-81794048D01*
X107333143Y-81915000D01*
X107478286Y-82035953D01*
X107550857Y-82156905D01*
X107115429Y-80645000D02*
X107115429Y-80524048D01*
X107188000Y-80403096D01*
X107260571Y-80342619D01*
X107405714Y-80282143D01*
X107696000Y-80221667D01*
X108058857Y-80221667D01*
X108349143Y-80282143D01*
X108494286Y-80342619D01*
X108566857Y-80403096D01*
X108639429Y-80524048D01*
X108639429Y-80645000D01*
X108566857Y-80765953D01*
X108494286Y-80826429D01*
X108349143Y-80886905D01*
X108058857Y-80947381D01*
X107696000Y-80947381D01*
X107405714Y-80886905D01*
X107260571Y-80826429D01*
X107188000Y-80765953D01*
X107115429Y-80645000D01*
X107115429Y-79435476D02*
X107115429Y-79314524D01*
X107188000Y-79193572D01*
X107260571Y-79133095D01*
X107405714Y-79072619D01*
X107696000Y-79012143D01*
X108058857Y-79012143D01*
X108349143Y-79072619D01*
X108494286Y-79133095D01*
X108566857Y-79193572D01*
X108639429Y-79314524D01*
X108639429Y-79435476D01*
X108566857Y-79556429D01*
X108494286Y-79616905D01*
X108349143Y-79677381D01*
X108058857Y-79737857D01*
X107696000Y-79737857D01*
X107405714Y-79677381D01*
X107260571Y-79616905D01*
X107188000Y-79556429D01*
X107115429Y-79435476D01*
X107623429Y-77923571D02*
X108639429Y-77923571D01*
X107623429Y-78467857D02*
X108421714Y-78467857D01*
X108566857Y-78407381D01*
X108639429Y-78286428D01*
X108639429Y-78105000D01*
X108566857Y-77984048D01*
X108494286Y-77923571D01*
X88174286Y-80221667D02*
X88246857Y-80282143D01*
X88319429Y-80463572D01*
X88319429Y-80584524D01*
X88246857Y-80765952D01*
X88101714Y-80886905D01*
X87956571Y-80947381D01*
X87666286Y-81007857D01*
X87448571Y-81007857D01*
X87158286Y-80947381D01*
X87013143Y-80886905D01*
X86868000Y-80765952D01*
X86795429Y-80584524D01*
X86795429Y-80463572D01*
X86868000Y-80282143D01*
X86940571Y-80221667D01*
X88319429Y-79012143D02*
X88319429Y-79737857D01*
X88319429Y-79375000D02*
X86795429Y-79375000D01*
X87013143Y-79495952D01*
X87158286Y-79616905D01*
X87230857Y-79737857D01*
X92020571Y-82156905D02*
X91948000Y-82096429D01*
X91875429Y-81975477D01*
X91875429Y-81673096D01*
X91948000Y-81552143D01*
X92020571Y-81491667D01*
X92165714Y-81431191D01*
X92310857Y-81431191D01*
X92528571Y-81491667D01*
X93399429Y-82217381D01*
X93399429Y-81431191D01*
X92020571Y-80947381D02*
X91948000Y-80886905D01*
X91875429Y-80765953D01*
X91875429Y-80463572D01*
X91948000Y-80342619D01*
X92020571Y-80282143D01*
X92165714Y-80221667D01*
X92310857Y-80221667D01*
X92528571Y-80282143D01*
X93399429Y-81007857D01*
X93399429Y-80221667D01*
X91875429Y-79435476D02*
X91875429Y-79314524D01*
X91948000Y-79193572D01*
X92020571Y-79133095D01*
X92165714Y-79072619D01*
X92456000Y-79012143D01*
X92818857Y-79012143D01*
X93109143Y-79072619D01*
X93254286Y-79133095D01*
X93326857Y-79193572D01*
X93399429Y-79314524D01*
X93399429Y-79435476D01*
X93326857Y-79556429D01*
X93254286Y-79616905D01*
X93109143Y-79677381D01*
X92818857Y-79737857D01*
X92456000Y-79737857D01*
X92165714Y-79677381D01*
X92020571Y-79616905D01*
X91948000Y-79556429D01*
X91875429Y-79435476D01*
X92383429Y-77923571D02*
X93399429Y-77923571D01*
X92383429Y-78467857D02*
X93181714Y-78467857D01*
X93326857Y-78407381D01*
X93399429Y-78286428D01*
X93399429Y-78105000D01*
X93326857Y-77984048D01*
X93254286Y-77923571D01*
D15*
X127520096Y-114989429D02*
X127520096Y-113465429D01*
X127762001Y-113465429D01*
X127907143Y-113538000D01*
X128003905Y-113683143D01*
X128052286Y-113828286D01*
X128100667Y-114118571D01*
X128100667Y-114336286D01*
X128052286Y-114626571D01*
X128003905Y-114771714D01*
X127907143Y-114916857D01*
X127762001Y-114989429D01*
X127520096Y-114989429D01*
X128487715Y-113610571D02*
X128536096Y-113538000D01*
X128632858Y-113465429D01*
X128874762Y-113465429D01*
X128971524Y-113538000D01*
X129019905Y-113610571D01*
X129068286Y-113755714D01*
X129068286Y-113900857D01*
X129019905Y-114118571D01*
X128439334Y-114989429D01*
X129068286Y-114989429D01*
D11*
D15*
X127520096Y-84509429D02*
X127520096Y-82985429D01*
X127762001Y-82985429D01*
X127907143Y-83058000D01*
X128003905Y-83203143D01*
X128052286Y-83348286D01*
X128100667Y-83638571D01*
X128100667Y-83856286D01*
X128052286Y-84146571D01*
X128003905Y-84291714D01*
X127907143Y-84436857D01*
X127762001Y-84509429D01*
X127520096Y-84509429D01*
X129068286Y-84509429D02*
X128487715Y-84509429D01*
X128778001Y-84509429D02*
X128778001Y-82985429D01*
X128681239Y-83203143D01*
X128584477Y-83348286D01*
X128487715Y-83420857D01*
D11*
D12*
X132197929Y-71367952D02*
X132143500Y-71488905D01*
X132034643Y-71609857D01*
X131871357Y-71791286D01*
X131816929Y-71912238D01*
X131816929Y-72033190D01*
X132089071Y-71972714D02*
X132034643Y-72093667D01*
X131925786Y-72214619D01*
X131708071Y-72275095D01*
X131327071Y-72275095D01*
X131109357Y-72214619D01*
X131000500Y-72093667D01*
X130946071Y-71972714D01*
X130946071Y-71730810D01*
X131000500Y-71609857D01*
X131109357Y-71488905D01*
X131327071Y-71428429D01*
X131708071Y-71428429D01*
X131925786Y-71488905D01*
X132034643Y-71609857D01*
X132089071Y-71730810D01*
X132089071Y-71972714D01*
X132089071Y-70218905D02*
X132089071Y-70944619D01*
X132089071Y-70581762D02*
X130946071Y-70581762D01*
X131109357Y-70702714D01*
X131218214Y-70823667D01*
X131272643Y-70944619D01*
X134756071Y-74778809D02*
X135518071Y-74778809D01*
X134320643Y-75081190D02*
X135137071Y-75383571D01*
X135137071Y-74597381D01*
X135409214Y-74113571D02*
X135463643Y-74053095D01*
X135518071Y-74113571D01*
X135463643Y-74174047D01*
X135409214Y-74113571D01*
X135518071Y-74113571D01*
X135518071Y-72843571D02*
X135518071Y-73569285D01*
X135518071Y-73206428D02*
X134375071Y-73206428D01*
X134538357Y-73327380D01*
X134647214Y-73448333D01*
X134701643Y-73569285D01*
X135518071Y-72238809D02*
X135518071Y-71996904D01*
X135463643Y-71875952D01*
X135409214Y-71815476D01*
X135245929Y-71694523D01*
X135028214Y-71634047D01*
X134592786Y-71634047D01*
X134483929Y-71694523D01*
X134429500Y-71754999D01*
X134375071Y-71875952D01*
X134375071Y-72117856D01*
X134429500Y-72238809D01*
X134483929Y-72299285D01*
X134592786Y-72359761D01*
X134864929Y-72359761D01*
X134973786Y-72299285D01*
X135028214Y-72238809D01*
X135082643Y-72117856D01*
X135082643Y-71875952D01*
X135028214Y-71754999D01*
X134973786Y-71694523D01*
X134864929Y-71634047D01*
X135626929Y-71392142D02*
X135626929Y-70424523D01*
X135518071Y-70122142D02*
X134375071Y-70122142D01*
X135191500Y-69698809D01*
X134375071Y-69275475D01*
X135518071Y-69275475D01*
X135518071Y-68670713D02*
X134375071Y-68670713D01*
X134919357Y-68670713D02*
X134919357Y-67944999D01*
X135518071Y-67944999D02*
X134375071Y-67944999D01*
X134756071Y-67461189D02*
X134756071Y-66795951D01*
X135518071Y-67461189D01*
X135518071Y-66795951D01*
D13*
X128058333Y-89531976D02*
X127635000Y-88866738D01*
X127332619Y-89531976D02*
X127332619Y-88134976D01*
X127816428Y-88134976D01*
X127937381Y-88201500D01*
X127997857Y-88268024D01*
X128058333Y-88401071D01*
X128058333Y-88600643D01*
X127997857Y-88733690D01*
X127937381Y-88800214D01*
X127816428Y-88866738D01*
X127332619Y-88866738D01*
X128481667Y-88134976D02*
X129328333Y-88134976D01*
X128784048Y-89531976D01*
X148378333Y-126361976D02*
X147955000Y-125696738D01*
X147652619Y-126361976D02*
X147652619Y-124964976D01*
X148136428Y-124964976D01*
X148257381Y-125031500D01*
X148317857Y-125098024D01*
X148378333Y-125231071D01*
X148378333Y-125430643D01*
X148317857Y-125563690D01*
X148257381Y-125630214D01*
X148136428Y-125696738D01*
X147652619Y-125696738D01*
X149466905Y-124964976D02*
X149225000Y-124964976D01*
X149104048Y-125031500D01*
X149043571Y-125098024D01*
X148922619Y-125297595D01*
X148862143Y-125563690D01*
X148862143Y-126095881D01*
X148922619Y-126228929D01*
X148983095Y-126295452D01*
X149104048Y-126361976D01*
X149345952Y-126361976D01*
X149466905Y-126295452D01*
X149527381Y-126228929D01*
X149587857Y-126095881D01*
X149587857Y-125763262D01*
X149527381Y-125630214D01*
X149466905Y-125563690D01*
X149345952Y-125497167D01*
X149104048Y-125497167D01*
X148983095Y-125563690D01*
X148922619Y-125630214D01*
X148862143Y-125763262D01*
X93768333Y-98421976D02*
X93345000Y-97756738D01*
X93042619Y-98421976D02*
X93042619Y-97024976D01*
X93526428Y-97024976D01*
X93647381Y-97091500D01*
X93707857Y-97158024D01*
X93768333Y-97291071D01*
X93768333Y-97490643D01*
X93707857Y-97623690D01*
X93647381Y-97690214D01*
X93526428Y-97756738D01*
X93042619Y-97756738D01*
X94917381Y-97024976D02*
X94312619Y-97024976D01*
X94252143Y-97690214D01*
X94312619Y-97623690D01*
X94433571Y-97557167D01*
X94735952Y-97557167D01*
X94856905Y-97623690D01*
X94917381Y-97690214D01*
X94977857Y-97823262D01*
X94977857Y-98155881D01*
X94917381Y-98288929D01*
X94856905Y-98355452D01*
X94735952Y-98421976D01*
X94433571Y-98421976D01*
X94312619Y-98355452D01*
X94252143Y-98288929D01*
X93768333Y-93341976D02*
X93345000Y-92676738D01*
X93042619Y-93341976D02*
X93042619Y-91944976D01*
X93526428Y-91944976D01*
X93647381Y-92011500D01*
X93707857Y-92078024D01*
X93768333Y-92211071D01*
X93768333Y-92410643D01*
X93707857Y-92543690D01*
X93647381Y-92610214D01*
X93526428Y-92676738D01*
X93042619Y-92676738D01*
X94856905Y-92410643D02*
X94856905Y-93341976D01*
X94554524Y-91878452D02*
X94252143Y-92876310D01*
X95038333Y-92876310D01*
X111121976Y-109431667D02*
X110456738Y-109855000D01*
X111121976Y-110157381D02*
X109724976Y-110157381D01*
X109724976Y-109673572D01*
X109791500Y-109552619D01*
X109858024Y-109492143D01*
X109991071Y-109431667D01*
X110190643Y-109431667D01*
X110323690Y-109492143D01*
X110390214Y-109552619D01*
X110456738Y-109673572D01*
X110456738Y-110157381D01*
X109724976Y-109008333D02*
X109724976Y-108222143D01*
X110257167Y-108645476D01*
X110257167Y-108464048D01*
X110323690Y-108343095D01*
X110390214Y-108282619D01*
X110523262Y-108222143D01*
X110855881Y-108222143D01*
X110988929Y-108282619D01*
X111055452Y-108343095D01*
X111121976Y-108464048D01*
X111121976Y-108826905D01*
X111055452Y-108947857D01*
X110988929Y-109008333D01*
X117471976Y-76411667D02*
X116806738Y-76835000D01*
X117471976Y-77137381D02*
X116074976Y-77137381D01*
X116074976Y-76653572D01*
X116141500Y-76532619D01*
X116208024Y-76472143D01*
X116341071Y-76411667D01*
X116540643Y-76411667D01*
X116673690Y-76472143D01*
X116740214Y-76532619D01*
X116806738Y-76653572D01*
X116806738Y-77137381D01*
X116208024Y-75927857D02*
X116141500Y-75867381D01*
X116074976Y-75746429D01*
X116074976Y-75444048D01*
X116141500Y-75323095D01*
X116208024Y-75262619D01*
X116341071Y-75202143D01*
X116474119Y-75202143D01*
X116673690Y-75262619D01*
X117471976Y-75988333D01*
X117471976Y-75202143D01*
X128058333Y-102231976D02*
X127635000Y-101566738D01*
X127332619Y-102231976D02*
X127332619Y-100834976D01*
X127816428Y-100834976D01*
X127937381Y-100901500D01*
X127997857Y-100968024D01*
X128058333Y-101101071D01*
X128058333Y-101300643D01*
X127997857Y-101433690D01*
X127937381Y-101500214D01*
X127816428Y-101566738D01*
X127332619Y-101566738D01*
X129267857Y-102231976D02*
X128542143Y-102231976D01*
X128905000Y-102231976D02*
X128905000Y-100834976D01*
X128784048Y-101034548D01*
X128663095Y-101167595D01*
X128542143Y-101234119D01*
X104771976Y-96187381D02*
X103374976Y-96187381D01*
X103374976Y-95703572D01*
X103441500Y-95582619D01*
X103508024Y-95522143D01*
X103641071Y-95461667D01*
X103840643Y-95461667D01*
X103973690Y-95522143D01*
X104040214Y-95582619D01*
X104106738Y-95703572D01*
X104106738Y-96187381D01*
X104771976Y-94252143D02*
X104771976Y-94977857D01*
X104771976Y-94615000D02*
X103374976Y-94615000D01*
X103574548Y-94735952D01*
X103707595Y-94856905D01*
X103774119Y-94977857D01*
X115058976Y-95655190D02*
X115058976Y-96380904D01*
X115058976Y-96018047D02*
X113661976Y-96018047D01*
X113861548Y-96138999D01*
X113994595Y-96259952D01*
X114061119Y-96380904D01*
X115058976Y-95110904D02*
X113661976Y-95110904D01*
X114526786Y-94989952D02*
X115058976Y-94627095D01*
X114127643Y-94627095D02*
X114659833Y-95110904D01*
X133845905Y-120093619D02*
X134426476Y-120093619D01*
X134136191Y-121109619D02*
X134136191Y-120093619D01*
X135297333Y-121109619D02*
X134716762Y-121109619D01*
X135007048Y-121109619D02*
X135007048Y-120093619D01*
X134910286Y-120238762D01*
X134813524Y-120335524D01*
X134716762Y-120383905D01*
X132733143Y-129467429D02*
X132878286Y-129515810D01*
X132926667Y-129564190D01*
X132975048Y-129660952D01*
X132975048Y-129806095D01*
X132926667Y-129902857D01*
X132878286Y-129951238D01*
X132781524Y-129999619D01*
X132394477Y-129999619D01*
X132394477Y-128983619D01*
X132733143Y-128983619D01*
X132829905Y-129032000D01*
X132878286Y-129080381D01*
X132926667Y-129177143D01*
X132926667Y-129273905D01*
X132878286Y-129370667D01*
X132829905Y-129419048D01*
X132733143Y-129467429D01*
X132394477Y-129467429D01*
X133991048Y-129902857D02*
X133942667Y-129951238D01*
X133797524Y-129999619D01*
X133700762Y-129999619D01*
X133555620Y-129951238D01*
X133458858Y-129854476D01*
X133410477Y-129757714D01*
X133362096Y-129564190D01*
X133362096Y-129419048D01*
X133410477Y-129225524D01*
X133458858Y-129128762D01*
X133555620Y-129032000D01*
X133700762Y-128983619D01*
X133797524Y-128983619D01*
X133942667Y-129032000D01*
X133991048Y-129080381D01*
X134958667Y-129999619D02*
X134378096Y-129999619D01*
X134668382Y-129999619D02*
X134668382Y-128983619D01*
X134571620Y-129128762D01*
X134474858Y-129225524D01*
X134378096Y-129273905D01*
X135539239Y-129419048D02*
X135442477Y-129370667D01*
X135394096Y-129322286D01*
X135345715Y-129225524D01*
X135345715Y-129177143D01*
X135394096Y-129080381D01*
X135442477Y-129032000D01*
X135539239Y-128983619D01*
X135732762Y-128983619D01*
X135829524Y-129032000D01*
X135877905Y-129080381D01*
X135926286Y-129177143D01*
X135926286Y-129225524D01*
X135877905Y-129322286D01*
X135829524Y-129370667D01*
X135732762Y-129419048D01*
X135539239Y-129419048D01*
X135442477Y-129467429D01*
X135394096Y-129515810D01*
X135345715Y-129612571D01*
X135345715Y-129806095D01*
X135394096Y-129902857D01*
X135442477Y-129951238D01*
X135539239Y-129999619D01*
X135732762Y-129999619D01*
X135829524Y-129951238D01*
X135877905Y-129902857D01*
X135926286Y-129806095D01*
X135926286Y-129612571D01*
X135877905Y-129515810D01*
X135829524Y-129467429D01*
X135732762Y-129419048D01*
X136313334Y-129080381D02*
X136361715Y-129032000D01*
X136458477Y-128983619D01*
X136700381Y-128983619D01*
X136797143Y-129032000D01*
X136845524Y-129080381D01*
X136893905Y-129177143D01*
X136893905Y-129273905D01*
X136845524Y-129419048D01*
X136264953Y-129999619D01*
X136893905Y-129999619D01*
D16*
X192289370Y-62847764D02*
X192237602Y-62930133D01*
X192082299Y-63012501D01*
X191978764Y-63012501D01*
X191823461Y-62930133D01*
X191719926Y-62765396D01*
X191668158Y-62600659D01*
X191616390Y-62271184D01*
X191616390Y-62024079D01*
X191668158Y-61694604D01*
X191719926Y-61529867D01*
X191823461Y-61365130D01*
X191978764Y-61282761D01*
X192082299Y-61282761D01*
X192237602Y-61365130D01*
X192289370Y-61447499D01*
X192755278Y-63012501D02*
X192755278Y-61282761D01*
X193376490Y-63012501D01*
X193376490Y-61282761D01*
X193842398Y-61447499D02*
X193894166Y-61365130D01*
X193997701Y-61282761D01*
X194256539Y-61282761D01*
X194360075Y-61365130D01*
X194411842Y-61447499D01*
X194463610Y-61612236D01*
X194463610Y-61776973D01*
X194411842Y-62024079D01*
X193790631Y-63012501D01*
X194463610Y-63012501D01*
D11*
D17*
X164356385Y-62869536D02*
X164305101Y-62954807D01*
X164151250Y-63040079D01*
X164048682Y-63040079D01*
X163894830Y-62954807D01*
X163792263Y-62784264D01*
X163740979Y-62613721D01*
X163689695Y-62272636D01*
X163689695Y-62016821D01*
X163740979Y-61675736D01*
X163792263Y-61505193D01*
X163894830Y-61334650D01*
X164048682Y-61249379D01*
X164151250Y-61249379D01*
X164305101Y-61334650D01*
X164356385Y-61419921D01*
X164817939Y-63040079D02*
X164817939Y-61249379D01*
X165433345Y-63040079D01*
X165433345Y-61249379D01*
X165843615Y-61249379D02*
X166510305Y-61249379D01*
X166151318Y-61931550D01*
X166305170Y-61931550D01*
X166407737Y-62016821D01*
X166459021Y-62102093D01*
X166510305Y-62272636D01*
X166510305Y-62698993D01*
X166459021Y-62869536D01*
X166407737Y-62954807D01*
X166305170Y-63040079D01*
X165997467Y-63040079D01*
X165894899Y-62954807D01*
X165843615Y-62869536D01*
D11*
D16*
X122439370Y-62847764D02*
X122387602Y-62930133D01*
X122232299Y-63012501D01*
X122128764Y-63012501D01*
X121973461Y-62930133D01*
X121869926Y-62765396D01*
X121818158Y-62600659D01*
X121766390Y-62271184D01*
X121766390Y-62024079D01*
X121818158Y-61694604D01*
X121869926Y-61529867D01*
X121973461Y-61365130D01*
X122128764Y-61282761D01*
X122232299Y-61282761D01*
X122387602Y-61365130D01*
X122439370Y-61447499D01*
X122905278Y-63012501D02*
X122905278Y-61282761D01*
X123526490Y-63012501D01*
X123526490Y-61282761D01*
X124613610Y-63012501D02*
X123992398Y-63012501D01*
X124303004Y-63012501D02*
X124303004Y-61282761D01*
X124199469Y-61529867D01*
X124095934Y-61694604D01*
X123992398Y-61776973D01*
D11*
D17*
X98316385Y-62869536D02*
X98265101Y-62954807D01*
X98111250Y-63040079D01*
X98008682Y-63040079D01*
X97854830Y-62954807D01*
X97752263Y-62784264D01*
X97700979Y-62613721D01*
X97649695Y-62272636D01*
X97649695Y-62016821D01*
X97700979Y-61675736D01*
X97752263Y-61505193D01*
X97854830Y-61334650D01*
X98008682Y-61249379D01*
X98111250Y-61249379D01*
X98265101Y-61334650D01*
X98316385Y-61419921D01*
X98777939Y-63040079D02*
X98777939Y-61249379D01*
X99393345Y-63040079D01*
X99393345Y-61249379D01*
X100367737Y-61846279D02*
X100367737Y-63040079D01*
X100111318Y-61164107D02*
X99854899Y-62443179D01*
X100521589Y-62443179D01*
D11*
D18*
X99749429Y-114145785D02*
X98225429Y-114145785D01*
X99604286Y-112948356D02*
X99676857Y-113002785D01*
X99749429Y-113166071D01*
X99749429Y-113274928D01*
X99676857Y-113438213D01*
X99531714Y-113547071D01*
X99386571Y-113601499D01*
X99096286Y-113655928D01*
X98878571Y-113655928D01*
X98588286Y-113601499D01*
X98443143Y-113547071D01*
X98298000Y-113438213D01*
X98225429Y-113274928D01*
X98225429Y-113166071D01*
X98298000Y-113002785D01*
X98370571Y-112948356D01*
X98370571Y-112512928D02*
X98298000Y-112458499D01*
X98225429Y-112349642D01*
X98225429Y-112077499D01*
X98298000Y-111968642D01*
X98370571Y-111914213D01*
X98515714Y-111859785D01*
X98660857Y-111859785D01*
X98878571Y-111914213D01*
X99749429Y-112567356D01*
X99749429Y-111859785D01*
D11*
D18*
X95685429Y-122400784D02*
X95685429Y-121638784D01*
X97209429Y-122128641D01*
X96193429Y-120713499D02*
X97209429Y-120713499D01*
X95612857Y-120985642D02*
X96701429Y-121257785D01*
X96701429Y-120550213D01*
X97209429Y-119570499D02*
X97209429Y-120114785D01*
X95685429Y-120114785D01*
X97136857Y-119243928D02*
X97209429Y-119080642D01*
X97209429Y-118808499D01*
X97136857Y-118699642D01*
X97064286Y-118645213D01*
X96919143Y-118590785D01*
X96774000Y-118590785D01*
X96628857Y-118645213D01*
X96556286Y-118699642D01*
X96483714Y-118808499D01*
X96411143Y-119026213D01*
X96338571Y-119135071D01*
X96266000Y-119189499D01*
X96120857Y-119243928D01*
X95975714Y-119243928D01*
X95830571Y-119189499D01*
X95758000Y-119135071D01*
X95685429Y-119026213D01*
X95685429Y-118754071D01*
X95758000Y-118590785D01*
X95685429Y-118209785D02*
X95685429Y-117447785D01*
X97209429Y-117937642D01*
X96193429Y-116522500D02*
X97209429Y-116522500D01*
X95612857Y-116794643D02*
X96701429Y-117066786D01*
X96701429Y-116359214D01*
D11*
D18*
X145584333Y-110335785D02*
X143806333Y-110335785D01*
X145415000Y-109138356D02*
X145499667Y-109192785D01*
X145584333Y-109356071D01*
X145584333Y-109464928D01*
X145499667Y-109628213D01*
X145330333Y-109737071D01*
X145161000Y-109791499D01*
X144822333Y-109845928D01*
X144568333Y-109845928D01*
X144229667Y-109791499D01*
X144060333Y-109737071D01*
X143891000Y-109628213D01*
X143806333Y-109464928D01*
X143806333Y-109356071D01*
X143891000Y-109192785D01*
X143975667Y-109138356D01*
X145584333Y-108049785D02*
X145584333Y-108702928D01*
X145584333Y-108376356D02*
X143806333Y-108376356D01*
X144060333Y-108485213D01*
X144229667Y-108594071D01*
X144314333Y-108702928D01*
D11*
X151934333Y-81195333D02*
X150156333Y-81195333D01*
X151765000Y-79332666D02*
X151849667Y-79417332D01*
X151934333Y-79671332D01*
X151934333Y-79840666D01*
X151849667Y-80094666D01*
X151680333Y-80263999D01*
X151511000Y-80348666D01*
X151172333Y-80433332D01*
X150918333Y-80433332D01*
X150579667Y-80348666D01*
X150410333Y-80263999D01*
X150241000Y-80094666D01*
X150156333Y-79840666D01*
X150156333Y-79671332D01*
X150241000Y-79417332D01*
X150325667Y-79332666D01*
X151934333Y-77723999D02*
X151934333Y-78570666D01*
X150156333Y-78570666D01*
X150156333Y-77300666D02*
X150156333Y-76115333D01*
X151934333Y-76877333D01*
X151934333Y-74506666D02*
X151934333Y-75522666D01*
X151934333Y-75014666D02*
X150156333Y-75014666D01*
X150410333Y-75184000D01*
X150579667Y-75353333D01*
X150664333Y-75522666D01*
X150156333Y-73406000D02*
X150156333Y-73236667D01*
X150241000Y-73067333D01*
X150325667Y-72982667D01*
X150495000Y-72898000D01*
X150833667Y-72813333D01*
X151257000Y-72813333D01*
X151595667Y-72898000D01*
X151765000Y-72982667D01*
X151849667Y-73067333D01*
X151934333Y-73236667D01*
X151934333Y-73406000D01*
X151849667Y-73575333D01*
X151765000Y-73660000D01*
X151595667Y-73744667D01*
X151257000Y-73829333D01*
X150833667Y-73829333D01*
X150495000Y-73744667D01*
X150325667Y-73660000D01*
X150241000Y-73575333D01*
X150156333Y-73406000D01*
X151934333Y-71966667D02*
X151934333Y-71628000D01*
X151849667Y-71458667D01*
X151765000Y-71374000D01*
X151511000Y-71204667D01*
X151172333Y-71120000D01*
X150495000Y-71120000D01*
X150325667Y-71204667D01*
X150241000Y-71289334D01*
X150156333Y-71458667D01*
X150156333Y-71797334D01*
X150241000Y-71966667D01*
X150325667Y-72051334D01*
X150495000Y-72136000D01*
X150918333Y-72136000D01*
X151087667Y-72051334D01*
X151172333Y-71966667D01*
X151257000Y-71797334D01*
X151257000Y-71458667D01*
X151172333Y-71289334D01*
X151087667Y-71204667D01*
X150918333Y-71120000D01*
D18*
X179874333Y-106525785D02*
X178096333Y-106525785D01*
X179705000Y-105328356D02*
X179789667Y-105382785D01*
X179874333Y-105546071D01*
X179874333Y-105654928D01*
X179789667Y-105818213D01*
X179620333Y-105927071D01*
X179451000Y-105981499D01*
X179112333Y-106035928D01*
X178858333Y-106035928D01*
X178519667Y-105981499D01*
X178350333Y-105927071D01*
X178181000Y-105818213D01*
X178096333Y-105654928D01*
X178096333Y-105546071D01*
X178181000Y-105382785D01*
X178265667Y-105328356D01*
X178096333Y-104947356D02*
X178096333Y-104239785D01*
X178773667Y-104620785D01*
X178773667Y-104457499D01*
X178858333Y-104348642D01*
X178943000Y-104294213D01*
X179112333Y-104239785D01*
X179535667Y-104239785D01*
X179705000Y-104294213D01*
X179789667Y-104348642D01*
X179874333Y-104457499D01*
X179874333Y-104784071D01*
X179789667Y-104892928D01*
X179705000Y-104947356D01*
D11*
D18*
X175556333Y-124215070D02*
X175556333Y-123453070D01*
X177334333Y-123942927D01*
X176149000Y-122527785D02*
X177334333Y-122527785D01*
X175471667Y-122799928D02*
X176741667Y-123072071D01*
X176741667Y-122364499D01*
X177334333Y-121384785D02*
X177334333Y-121929071D01*
X175556333Y-121929071D01*
X177249667Y-121058214D02*
X177334333Y-120894928D01*
X177334333Y-120622785D01*
X177249667Y-120513928D01*
X177165000Y-120459499D01*
X176995667Y-120405071D01*
X176826333Y-120405071D01*
X176657000Y-120459499D01*
X176572333Y-120513928D01*
X176487667Y-120622785D01*
X176403000Y-120840499D01*
X176318333Y-120949357D01*
X176233667Y-121003785D01*
X176064333Y-121058214D01*
X175895000Y-121058214D01*
X175725667Y-121003785D01*
X175641000Y-120949357D01*
X175556333Y-120840499D01*
X175556333Y-120568357D01*
X175641000Y-120405071D01*
X175725667Y-119969643D02*
X175641000Y-119915214D01*
X175556333Y-119806357D01*
X175556333Y-119534214D01*
X175641000Y-119425357D01*
X175725667Y-119370928D01*
X175895000Y-119316500D01*
X176064333Y-119316500D01*
X176318333Y-119370928D01*
X177334333Y-120024071D01*
X177334333Y-119316500D01*
X176149000Y-118336786D02*
X177334333Y-118336786D01*
X175471667Y-118608929D02*
X176741667Y-118881072D01*
X176741667Y-118173500D01*
X175556333Y-117193786D02*
X175556333Y-117738072D01*
X176403000Y-117792501D01*
X176318333Y-117738072D01*
X176233667Y-117629215D01*
X176233667Y-117357072D01*
X176318333Y-117248215D01*
X176403000Y-117193786D01*
X176572333Y-117139358D01*
X176995667Y-117139358D01*
X177165000Y-117193786D01*
X177249667Y-117248215D01*
X177334333Y-117357072D01*
X177334333Y-117629215D01*
X177249667Y-117738072D01*
X177165000Y-117792501D01*
D11*
D18*
X179874333Y-73505785D02*
X178096333Y-73505785D01*
X179705000Y-72308356D02*
X179789667Y-72362785D01*
X179874333Y-72526071D01*
X179874333Y-72634928D01*
X179789667Y-72798213D01*
X179620333Y-72907071D01*
X179451000Y-72961499D01*
X179112333Y-73015928D01*
X178858333Y-73015928D01*
X178519667Y-72961499D01*
X178350333Y-72907071D01*
X178181000Y-72798213D01*
X178096333Y-72634928D01*
X178096333Y-72526071D01*
X178181000Y-72362785D01*
X178265667Y-72308356D01*
X178689000Y-71328642D02*
X179874333Y-71328642D01*
X178011667Y-71600785D02*
X179281667Y-71872928D01*
X179281667Y-71165356D01*
D11*
D18*
X175556333Y-91195070D02*
X175556333Y-90433070D01*
X177334333Y-90922927D01*
X176149000Y-89507785D02*
X177334333Y-89507785D01*
X175471667Y-89779928D02*
X176741667Y-90052071D01*
X176741667Y-89344499D01*
X177334333Y-88364785D02*
X177334333Y-88909071D01*
X175556333Y-88909071D01*
X177249667Y-88038214D02*
X177334333Y-87874928D01*
X177334333Y-87602785D01*
X177249667Y-87493928D01*
X177165000Y-87439499D01*
X176995667Y-87385071D01*
X176826333Y-87385071D01*
X176657000Y-87439499D01*
X176572333Y-87493928D01*
X176487667Y-87602785D01*
X176403000Y-87820499D01*
X176318333Y-87929357D01*
X176233667Y-87983785D01*
X176064333Y-88038214D01*
X175895000Y-88038214D01*
X175725667Y-87983785D01*
X175641000Y-87929357D01*
X175556333Y-87820499D01*
X175556333Y-87548357D01*
X175641000Y-87385071D01*
X175725667Y-86949643D02*
X175641000Y-86895214D01*
X175556333Y-86786357D01*
X175556333Y-86514214D01*
X175641000Y-86405357D01*
X175725667Y-86350928D01*
X175895000Y-86296500D01*
X176064333Y-86296500D01*
X176318333Y-86350928D01*
X177334333Y-87004071D01*
X177334333Y-86296500D01*
X176149000Y-85316786D02*
X177334333Y-85316786D01*
X175471667Y-85588929D02*
X176741667Y-85861072D01*
X176741667Y-85153500D01*
X175556333Y-84173786D02*
X175556333Y-84718072D01*
X176403000Y-84772501D01*
X176318333Y-84718072D01*
X176233667Y-84609215D01*
X176233667Y-84337072D01*
X176318333Y-84228215D01*
X176403000Y-84173786D01*
X176572333Y-84119358D01*
X176995667Y-84119358D01*
X177165000Y-84173786D01*
X177249667Y-84228215D01*
X177334333Y-84337072D01*
X177334333Y-84609215D01*
X177249667Y-84718072D01*
X177165000Y-84772501D01*
D11*
M02*
