G04 #@! TF.FileFunction,Copper,L1,Top,Signal*
%FSLAX46Y46*%
G04 Gerber Fmt 4.6, Leading zero omitted, Abs format (unit mm)*
G04 Created by KiCad (PCBNEW 4.0.5+dfsg1-4+deb9u1) date Sun Sep  4 20:04:09 2022*
%MOMM*%
%LPD*%
G01*
G04 APERTURE LIST*
%ADD10C,0.100000*%
%ADD11C,1.397000*%
%ADD12R,1.778000X1.778000*%
%ADD13C,1.778000*%
%ADD14C,1.524000*%
%ADD15R,1.397000X1.397000*%
%ADD16C,1.099820*%
%ADD17C,0.350520*%
%ADD18C,1.000760*%
G04 APERTURE END LIST*
D10*
D11*
X120650000Y-93980000D03*
X125730000Y-93980000D03*
X135890000Y-93980000D03*
X130810000Y-93980000D03*
X130810000Y-106680000D03*
X125730000Y-106680000D03*
X130810000Y-97790000D03*
X135890000Y-97790000D03*
X120650000Y-80010000D03*
X125730000Y-80010000D03*
X180340000Y-64770000D03*
X175260000Y-64770000D03*
X180340000Y-97790000D03*
X175260000Y-97790000D03*
X100330000Y-105410000D03*
X95250000Y-105410000D03*
X146050000Y-120650000D03*
X151130000Y-120650000D03*
D12*
X102743000Y-69850000D03*
D13*
X107823000Y-69850000D03*
D12*
X87503000Y-69850000D03*
D13*
X92583000Y-69850000D03*
X121920000Y-114300000D03*
D12*
X134620000Y-114300000D03*
D13*
X134620000Y-83820000D03*
D12*
X121920000Y-83820000D03*
D13*
X133350000Y-73660000D03*
X133350000Y-68580000D03*
X135890000Y-88900000D03*
X120650000Y-88900000D03*
X140970000Y-125730000D03*
X156210000Y-125730000D03*
X101600000Y-97790000D03*
X86360000Y-97790000D03*
X86360000Y-92710000D03*
X101600000Y-92710000D03*
X110490000Y-101600000D03*
X110490000Y-116840000D03*
X116840000Y-68580000D03*
X116840000Y-83820000D03*
X120650000Y-101600000D03*
X135890000Y-101600000D03*
D14*
X110490000Y-97790000D03*
X107950000Y-95250000D03*
X110490000Y-92710000D03*
D15*
X132080000Y-125730000D03*
D11*
X134620000Y-125730000D03*
X134620000Y-123190000D03*
D15*
X190500000Y-64770000D03*
D11*
X193040000Y-64770000D03*
X195580000Y-64770000D03*
X198120000Y-64770000D03*
X200660000Y-64770000D03*
X203200000Y-64770000D03*
X205740000Y-64770000D03*
X208280000Y-64770000D03*
D15*
X162560000Y-64770000D03*
D11*
X165100000Y-64770000D03*
X167640000Y-64770000D03*
D15*
X121920000Y-64770000D03*
D11*
X124460000Y-64770000D03*
D15*
X96520000Y-64770000D03*
D11*
X99060000Y-64770000D03*
X101600000Y-64770000D03*
D15*
X93980000Y-110490000D03*
D11*
X93980000Y-113030000D03*
X93980000Y-115570000D03*
X93980000Y-118110000D03*
X93980000Y-120650000D03*
X93980000Y-123190000D03*
X93980000Y-125730000D03*
X101600000Y-125730000D03*
X101600000Y-123190000D03*
X101600000Y-120650000D03*
X101600000Y-118110000D03*
X101600000Y-115570000D03*
X101600000Y-113030000D03*
X101600000Y-110490000D03*
D15*
X156210000Y-114300000D03*
D11*
X156210000Y-111760000D03*
X156210000Y-109220000D03*
X156210000Y-106680000D03*
X156210000Y-104140000D03*
X156210000Y-101600000D03*
X156210000Y-99060000D03*
X156210000Y-96520000D03*
X156210000Y-93980000D03*
X156210000Y-91440000D03*
X156210000Y-88900000D03*
X156210000Y-86360000D03*
X156210000Y-83820000D03*
X156210000Y-81280000D03*
X156210000Y-78740000D03*
X156210000Y-76200000D03*
X156210000Y-73660000D03*
X156210000Y-71120000D03*
X156210000Y-68580000D03*
X156210000Y-66040000D03*
X140970000Y-66040000D03*
X140970000Y-68580000D03*
X140970000Y-71120000D03*
X140970000Y-73660000D03*
X140970000Y-76200000D03*
X140970000Y-78740000D03*
X140970000Y-81280000D03*
X140970000Y-83820000D03*
X140970000Y-86360000D03*
X140970000Y-88900000D03*
X140970000Y-91440000D03*
X140970000Y-93980000D03*
X140970000Y-96520000D03*
X140970000Y-99060000D03*
X140970000Y-101600000D03*
X140970000Y-104140000D03*
X140970000Y-106680000D03*
X140970000Y-109220000D03*
X140970000Y-111760000D03*
X140970000Y-114300000D03*
D15*
X173990000Y-102870000D03*
D11*
X173990000Y-105410000D03*
X173990000Y-107950000D03*
X173990000Y-110490000D03*
X173990000Y-113030000D03*
X173990000Y-115570000D03*
X173990000Y-118110000D03*
X173990000Y-120650000D03*
X173990000Y-123190000D03*
X173990000Y-125730000D03*
X181610000Y-125730000D03*
X181610000Y-123190000D03*
X181610000Y-120650000D03*
X181610000Y-118110000D03*
X181610000Y-115570000D03*
X181610000Y-113030000D03*
X181610000Y-110490000D03*
X181610000Y-107950000D03*
X181610000Y-105410000D03*
X181610000Y-102870000D03*
D15*
X173990000Y-69850000D03*
D11*
X173990000Y-72390000D03*
X173990000Y-74930000D03*
X173990000Y-77470000D03*
X173990000Y-80010000D03*
X173990000Y-82550000D03*
X173990000Y-85090000D03*
X173990000Y-87630000D03*
X173990000Y-90170000D03*
X173990000Y-92710000D03*
X181610000Y-92710000D03*
X181610000Y-90170000D03*
X181610000Y-87630000D03*
X181610000Y-85090000D03*
X181610000Y-82550000D03*
X181610000Y-80010000D03*
X181610000Y-77470000D03*
X181610000Y-74930000D03*
X181610000Y-72390000D03*
X181610000Y-69850000D03*
D16*
X187960000Y-68580000D03*
X116840000Y-101600000D03*
X87630000Y-123190000D03*
X161290000Y-106680000D03*
X161290000Y-124460000D03*
X163830000Y-104140000D03*
X163830000Y-116840000D03*
X166370000Y-101600000D03*
X166370000Y-114300000D03*
X168910000Y-111760000D03*
X168910000Y-99060000D03*
X171450000Y-109220000D03*
X171450000Y-96520000D03*
X190500000Y-104140000D03*
X190500000Y-71120000D03*
X193040000Y-106680000D03*
X193040000Y-73660000D03*
X195580000Y-109220000D03*
X195580000Y-76200000D03*
X198120000Y-111760000D03*
X198120000Y-78740000D03*
X200660000Y-114300000D03*
X200660000Y-81280000D03*
X203200000Y-116840000D03*
X203200000Y-83820000D03*
X205740000Y-119380000D03*
X205740000Y-86360000D03*
X208280000Y-121920000D03*
X208280000Y-88900000D03*
D17*
X187960000Y-104140000D02*
X187960000Y-68580000D01*
X186690000Y-105410000D02*
X187960000Y-104140000D01*
X181610000Y-105410000D02*
X186690000Y-105410000D01*
D18*
X176530000Y-124460000D02*
X176530000Y-118110000D01*
D17*
X181610000Y-118110000D02*
X176530000Y-118110000D01*
D18*
X172720000Y-130810000D02*
X173990000Y-129540000D01*
X173990000Y-129540000D02*
X173990000Y-125730000D01*
X151130000Y-130810000D02*
X172720000Y-130810000D01*
X151130000Y-130810000D02*
X151130000Y-120650000D01*
X132080000Y-130810000D02*
X151130000Y-130810000D01*
X95250000Y-71120000D02*
X93980000Y-69850000D01*
X93980000Y-69850000D02*
X92583000Y-69850000D01*
X95250000Y-105410000D02*
X95250000Y-71120000D01*
X132080000Y-130810000D02*
X95250000Y-130810000D01*
X95250000Y-130810000D02*
X93980000Y-129540000D01*
X93980000Y-129540000D02*
X93980000Y-125730000D01*
D17*
X132080000Y-125730000D02*
X132080000Y-130810000D01*
D18*
X140970000Y-96520000D02*
X140970000Y-99060000D01*
X142240000Y-73660000D02*
X143510000Y-74930000D01*
X143510000Y-74930000D02*
X143510000Y-95250000D01*
X143510000Y-95250000D02*
X142240000Y-96520000D01*
X142240000Y-96520000D02*
X140970000Y-96520000D01*
X140970000Y-73660000D02*
X142240000Y-73660000D01*
X156210000Y-119380000D02*
X156210000Y-114300000D01*
X154940000Y-120650000D02*
X156210000Y-119380000D01*
X151130000Y-120650000D02*
X154940000Y-120650000D01*
X156210000Y-71120000D02*
X156210000Y-66040000D01*
X153670000Y-71120000D02*
X156210000Y-71120000D01*
X152400000Y-72390000D02*
X153670000Y-71120000D01*
X152400000Y-113030000D02*
X152400000Y-82550000D01*
X152400000Y-82550000D02*
X152400000Y-72390000D01*
X153670000Y-114300000D02*
X152400000Y-113030000D01*
X156210000Y-114300000D02*
X153670000Y-114300000D01*
X175260000Y-125730000D02*
X176530000Y-124460000D01*
X173990000Y-125730000D02*
X175260000Y-125730000D01*
X173990000Y-92710000D02*
X176530000Y-92710000D01*
X175260000Y-64770000D02*
X173990000Y-66040000D01*
X176530000Y-118110000D02*
X176530000Y-104140000D01*
X176530000Y-104140000D02*
X175260000Y-102870000D01*
X86360000Y-105410000D02*
X88900000Y-107950000D01*
X88900000Y-107950000D02*
X99060000Y-107950000D01*
X99060000Y-107950000D02*
X100330000Y-106680000D01*
X100330000Y-106680000D02*
X100330000Y-105410000D01*
X86360000Y-97790000D02*
X86360000Y-105410000D01*
X140970000Y-119380000D02*
X142240000Y-120650000D01*
X142240000Y-120650000D02*
X146050000Y-120650000D01*
X140970000Y-114300000D02*
X140970000Y-119380000D01*
X180340000Y-69850000D02*
X179070000Y-71120000D01*
X179070000Y-71120000D02*
X179070000Y-96520000D01*
X179070000Y-96520000D02*
X181610000Y-99060000D01*
X181610000Y-99060000D02*
X181610000Y-102870000D01*
X181610000Y-69850000D02*
X180340000Y-69850000D01*
X181610000Y-66040000D02*
X181610000Y-69850000D01*
X180340000Y-64770000D02*
X181610000Y-66040000D01*
X143510000Y-114300000D02*
X146050000Y-111760000D01*
X146050000Y-111760000D02*
X146050000Y-62230000D01*
X140970000Y-114300000D02*
X143510000Y-114300000D01*
X146050000Y-62230000D02*
X90170000Y-62230000D01*
X177800000Y-62230000D02*
X146050000Y-62230000D01*
X90170000Y-62230000D02*
X88900000Y-62230000D01*
X88900000Y-62230000D02*
X87630000Y-63500000D01*
X87630000Y-63500000D02*
X87630000Y-69723000D01*
X87630000Y-69723000D02*
X87503000Y-69850000D01*
X180340000Y-64770000D02*
X177800000Y-62230000D01*
D17*
X116840000Y-83820000D02*
X116840000Y-101600000D01*
X87630000Y-123190000D02*
X93980000Y-123190000D01*
X161290000Y-106680000D02*
X161290000Y-124460000D01*
X163830000Y-104140000D02*
X163830000Y-116840000D01*
X166370000Y-114300000D02*
X166370000Y-101600000D01*
X168910000Y-99060000D02*
X168910000Y-111760000D01*
X171450000Y-96520000D02*
X171450000Y-109220000D01*
D18*
X176530000Y-71120000D02*
X175260000Y-69850000D01*
X173990000Y-99060000D02*
X176530000Y-96520000D01*
X176530000Y-92710000D02*
X176530000Y-71120000D01*
X176530000Y-96520000D02*
X176530000Y-92710000D01*
X175260000Y-69850000D02*
X173990000Y-69850000D01*
X173990000Y-102870000D02*
X173990000Y-99060000D01*
X173990000Y-66040000D02*
X173990000Y-69850000D01*
X175260000Y-102870000D02*
X173990000Y-102870000D01*
D17*
X190500000Y-71120000D02*
X190500000Y-104140000D01*
X190500000Y-71120000D02*
X190500000Y-64770000D01*
X193040000Y-106680000D02*
X193040000Y-73660000D01*
X193040000Y-73660000D02*
X193040000Y-64770000D01*
X195580000Y-76200000D02*
X195580000Y-109220000D01*
X195580000Y-76200000D02*
X195580000Y-64770000D01*
X198120000Y-111760000D02*
X198120000Y-78740000D01*
X198120000Y-64770000D02*
X198120000Y-78740000D01*
X200660000Y-81280000D02*
X200660000Y-114300000D01*
X200660000Y-81280000D02*
X200660000Y-64770000D01*
X203200000Y-116840000D02*
X203200000Y-83820000D01*
X203200000Y-64770000D02*
X203200000Y-67310000D01*
X203200000Y-67310000D02*
X203200000Y-83820000D01*
X203200000Y-66040000D02*
X203200000Y-67310000D01*
X205740000Y-119380000D02*
X205740000Y-86360000D01*
X205740000Y-86360000D02*
X205740000Y-64770000D01*
X208280000Y-88900000D02*
X208280000Y-121920000D01*
X208280000Y-88900000D02*
X208280000Y-64770000D01*
M02*
