G04 #@! TF.FileFunction,Copper,L2,Bot,Signal*
%FSLAX46Y46*%
G04 Gerber Fmt 4.6, Leading zero omitted, Abs format (unit mm)*
G04 Created by KiCad (PCBNEW 4.0.5+dfsg1-4+deb9u1) date Sun Sep  4 20:04:09 2022*
%MOMM*%
%LPD*%
G01*
G04 APERTURE LIST*
%ADD10C,0.100000*%
%ADD11C,0.304800*%
%ADD12C,1.397000*%
%ADD13R,1.778000X1.778000*%
%ADD14C,1.778000*%
%ADD15C,1.524000*%
%ADD16R,1.397000X1.397000*%
%ADD17C,1.099820*%
%ADD18C,0.350520*%
%ADD19C,1.000760*%
G04 APERTURE END LIST*
D10*
D11*
X80929238Y-84436860D02*
X78897238Y-84436860D01*
X80929238Y-85090003D02*
X79864857Y-85090003D01*
X79671333Y-85017432D01*
X79574571Y-84872289D01*
X79574571Y-84654574D01*
X79671333Y-84509432D01*
X79768095Y-84436860D01*
X79574571Y-85598003D02*
X79574571Y-86178574D01*
X78897238Y-85815717D02*
X80638952Y-85815717D01*
X80832476Y-85888289D01*
X80929238Y-86033431D01*
X80929238Y-86178574D01*
X79574571Y-86468860D02*
X79574571Y-87049431D01*
X78897238Y-86686574D02*
X80638952Y-86686574D01*
X80832476Y-86759146D01*
X80929238Y-86904288D01*
X80929238Y-87049431D01*
X79574571Y-87557431D02*
X81606571Y-87557431D01*
X79671333Y-87557431D02*
X79574571Y-87702574D01*
X79574571Y-87992860D01*
X79671333Y-88138003D01*
X79768095Y-88210574D01*
X79961619Y-88283145D01*
X80542190Y-88283145D01*
X80735714Y-88210574D01*
X80832476Y-88138003D01*
X80929238Y-87992860D01*
X80929238Y-87702574D01*
X80832476Y-87557431D01*
X80735714Y-88936288D02*
X80832476Y-89008860D01*
X80929238Y-88936288D01*
X80832476Y-88863717D01*
X80735714Y-88936288D01*
X80929238Y-88936288D01*
X79671333Y-88936288D02*
X79768095Y-89008860D01*
X79864857Y-88936288D01*
X79768095Y-88863717D01*
X79671333Y-88936288D01*
X79864857Y-88936288D01*
X78800476Y-90750574D02*
X81413048Y-89444288D01*
X78800476Y-92347145D02*
X81413048Y-91040859D01*
X79574571Y-92710001D02*
X80929238Y-93000287D01*
X79961619Y-93290573D01*
X80929238Y-93580858D01*
X79574571Y-93871144D01*
X79574571Y-94306572D02*
X80929238Y-94596858D01*
X79961619Y-94887144D01*
X80929238Y-95177429D01*
X79574571Y-95467715D01*
X79574571Y-95903143D02*
X80929238Y-96193429D01*
X79961619Y-96483715D01*
X80929238Y-96774000D01*
X79574571Y-97064286D01*
X80735714Y-97644857D02*
X80832476Y-97717429D01*
X80929238Y-97644857D01*
X80832476Y-97572286D01*
X80735714Y-97644857D01*
X80929238Y-97644857D01*
X79574571Y-98370571D02*
X81606571Y-98370571D01*
X79671333Y-98370571D02*
X79574571Y-98515714D01*
X79574571Y-98806000D01*
X79671333Y-98951143D01*
X79768095Y-99023714D01*
X79961619Y-99096285D01*
X80542190Y-99096285D01*
X80735714Y-99023714D01*
X80832476Y-98951143D01*
X80929238Y-98806000D01*
X80929238Y-98515714D01*
X80832476Y-98370571D01*
X80929238Y-99967142D02*
X80832476Y-99822000D01*
X80735714Y-99749428D01*
X80542190Y-99676857D01*
X79961619Y-99676857D01*
X79768095Y-99749428D01*
X79671333Y-99822000D01*
X79574571Y-99967142D01*
X79574571Y-100184857D01*
X79671333Y-100330000D01*
X79768095Y-100402571D01*
X79961619Y-100475142D01*
X80542190Y-100475142D01*
X80735714Y-100402571D01*
X80832476Y-100330000D01*
X80929238Y-100184857D01*
X80929238Y-99967142D01*
X79574571Y-100983142D02*
X79574571Y-101781428D01*
X80929238Y-100983142D01*
X80929238Y-101781428D01*
X80832476Y-102289428D02*
X80929238Y-102434571D01*
X80929238Y-102724856D01*
X80832476Y-102869999D01*
X80638952Y-102942571D01*
X80542190Y-102942571D01*
X80348667Y-102869999D01*
X80251905Y-102724856D01*
X80251905Y-102507142D01*
X80155143Y-102361999D01*
X79961619Y-102289428D01*
X79864857Y-102289428D01*
X79671333Y-102361999D01*
X79574571Y-102507142D01*
X79574571Y-102724856D01*
X79671333Y-102869999D01*
X80929238Y-104248856D02*
X79864857Y-104248856D01*
X79671333Y-104176285D01*
X79574571Y-104031142D01*
X79574571Y-103740856D01*
X79671333Y-103595713D01*
X80832476Y-104248856D02*
X80929238Y-104103713D01*
X80929238Y-103740856D01*
X80832476Y-103595713D01*
X80638952Y-103523142D01*
X80445429Y-103523142D01*
X80251905Y-103595713D01*
X80155143Y-103740856D01*
X80155143Y-104103713D01*
X80058381Y-104248856D01*
X80929238Y-104974570D02*
X79574571Y-104974570D01*
X79961619Y-104974570D02*
X79768095Y-105047142D01*
X79671333Y-105119713D01*
X79574571Y-105264856D01*
X79574571Y-105409999D01*
X79574571Y-105772856D02*
X79574571Y-106571142D01*
X80929238Y-105772856D01*
X80929238Y-106571142D01*
X80832476Y-107079142D02*
X80929238Y-107224285D01*
X80929238Y-107514570D01*
X80832476Y-107659713D01*
X80638952Y-107732285D01*
X80542190Y-107732285D01*
X80348667Y-107659713D01*
X80251905Y-107514570D01*
X80251905Y-107296856D01*
X80155143Y-107151713D01*
X79961619Y-107079142D01*
X79864857Y-107079142D01*
X79671333Y-107151713D01*
X79574571Y-107296856D01*
X79574571Y-107514570D01*
X79671333Y-107659713D01*
X80735714Y-108385427D02*
X80832476Y-108457999D01*
X80929238Y-108385427D01*
X80832476Y-108312856D01*
X80735714Y-108385427D01*
X80929238Y-108385427D01*
X80929238Y-109111141D02*
X78897238Y-109111141D01*
X80929238Y-109764284D02*
X79864857Y-109764284D01*
X79671333Y-109691713D01*
X79574571Y-109546570D01*
X79574571Y-109328855D01*
X79671333Y-109183713D01*
X79768095Y-109111141D01*
X79574571Y-111143141D02*
X80929238Y-111143141D01*
X79574571Y-110489998D02*
X80638952Y-110489998D01*
X80832476Y-110562570D01*
X80929238Y-110707712D01*
X80929238Y-110925427D01*
X80832476Y-111070570D01*
X80735714Y-111143141D01*
X199752857Y-94705714D02*
X199825428Y-94802476D01*
X200043142Y-94899238D01*
X200188285Y-94899238D01*
X200406000Y-94802476D01*
X200551142Y-94608952D01*
X200623714Y-94415429D01*
X200696285Y-94028381D01*
X200696285Y-93738095D01*
X200623714Y-93351048D01*
X200551142Y-93157524D01*
X200406000Y-92964000D01*
X200188285Y-92867238D01*
X200043142Y-92867238D01*
X199825428Y-92964000D01*
X199752857Y-93060762D01*
X199317428Y-92867238D02*
X198446571Y-92867238D01*
X198882000Y-94899238D02*
X198882000Y-92867238D01*
X198156285Y-92867238D02*
X197285428Y-92867238D01*
X197720857Y-94899238D02*
X197720857Y-92867238D01*
X195688856Y-92770476D02*
X196995142Y-95383048D01*
X195253428Y-94318667D02*
X194527714Y-94318667D01*
X195398571Y-94899238D02*
X194890571Y-92867238D01*
X194382571Y-94899238D01*
X193874571Y-94899238D02*
X193874571Y-92867238D01*
X193511714Y-92867238D01*
X193293999Y-92964000D01*
X193148857Y-93157524D01*
X193076285Y-93351048D01*
X193003714Y-93738095D01*
X193003714Y-94028381D01*
X193076285Y-94415429D01*
X193148857Y-94608952D01*
X193293999Y-94802476D01*
X193511714Y-94899238D01*
X193874571Y-94899238D01*
X206030286Y-99979238D02*
X206030286Y-97947238D01*
X205667429Y-97947238D01*
X205449714Y-98044000D01*
X205304572Y-98237524D01*
X205232000Y-98431048D01*
X205159429Y-98818095D01*
X205159429Y-99108381D01*
X205232000Y-99495429D01*
X205304572Y-99688952D01*
X205449714Y-99882476D01*
X205667429Y-99979238D01*
X206030286Y-99979238D01*
X204506286Y-99979238D02*
X204506286Y-97947238D01*
X203635429Y-99979238D01*
X203635429Y-97947238D01*
X202909715Y-99785714D02*
X202837143Y-99882476D01*
X202909715Y-99979238D01*
X202982286Y-99882476D01*
X202909715Y-99785714D01*
X202909715Y-99979238D01*
X202909715Y-98721333D02*
X202837143Y-98818095D01*
X202909715Y-98914857D01*
X202982286Y-98818095D01*
X202909715Y-98721333D01*
X202909715Y-98914857D01*
X200152001Y-99785714D02*
X200224572Y-99882476D01*
X200442286Y-99979238D01*
X200587429Y-99979238D01*
X200805144Y-99882476D01*
X200950286Y-99688952D01*
X201022858Y-99495429D01*
X201095429Y-99108381D01*
X201095429Y-98818095D01*
X201022858Y-98431048D01*
X200950286Y-98237524D01*
X200805144Y-98044000D01*
X200587429Y-97947238D01*
X200442286Y-97947238D01*
X200224572Y-98044000D01*
X200152001Y-98140762D01*
X199716572Y-97947238D02*
X198845715Y-97947238D01*
X199281144Y-99979238D02*
X199281144Y-97947238D01*
X198555429Y-97947238D02*
X197684572Y-97947238D01*
X198120001Y-99979238D02*
X198120001Y-97947238D01*
X196378286Y-99979238D02*
X197249143Y-99979238D01*
X196813715Y-99979238D02*
X196813715Y-97947238D01*
X196958858Y-98237524D01*
X197104000Y-98431048D01*
X197249143Y-98527810D01*
X194926857Y-99979238D02*
X195797714Y-99979238D01*
X195362286Y-99979238D02*
X195362286Y-97947238D01*
X195507429Y-98237524D01*
X195652571Y-98431048D01*
X195797714Y-98527810D01*
X194273714Y-99205143D02*
X193112571Y-99205143D01*
X191588571Y-99979238D02*
X192459428Y-99979238D01*
X192024000Y-99979238D02*
X192024000Y-97947238D01*
X192169143Y-98237524D01*
X192314285Y-98431048D01*
X192459428Y-98527810D01*
X191080571Y-97947238D02*
X190137142Y-97947238D01*
X190645142Y-98721333D01*
X190427428Y-98721333D01*
X190282285Y-98818095D01*
X190209714Y-98914857D01*
X190137142Y-99108381D01*
X190137142Y-99592190D01*
X190209714Y-99785714D01*
X190282285Y-99882476D01*
X190427428Y-99979238D01*
X190862856Y-99979238D01*
X191007999Y-99882476D01*
X191080571Y-99785714D01*
D12*
X120650000Y-93980000D03*
X125730000Y-93980000D03*
X135890000Y-93980000D03*
X130810000Y-93980000D03*
X130810000Y-106680000D03*
X125730000Y-106680000D03*
X130810000Y-97790000D03*
X135890000Y-97790000D03*
X120650000Y-80010000D03*
X125730000Y-80010000D03*
X180340000Y-64770000D03*
X175260000Y-64770000D03*
X180340000Y-97790000D03*
X175260000Y-97790000D03*
X100330000Y-105410000D03*
X95250000Y-105410000D03*
X146050000Y-120650000D03*
X151130000Y-120650000D03*
D13*
X102743000Y-69850000D03*
D14*
X107823000Y-69850000D03*
D13*
X87503000Y-69850000D03*
D14*
X92583000Y-69850000D03*
X121920000Y-114300000D03*
D13*
X134620000Y-114300000D03*
D14*
X134620000Y-83820000D03*
D13*
X121920000Y-83820000D03*
D14*
X133350000Y-73660000D03*
X133350000Y-68580000D03*
X135890000Y-88900000D03*
X120650000Y-88900000D03*
X140970000Y-125730000D03*
X156210000Y-125730000D03*
X101600000Y-97790000D03*
X86360000Y-97790000D03*
X86360000Y-92710000D03*
X101600000Y-92710000D03*
X110490000Y-101600000D03*
X110490000Y-116840000D03*
X116840000Y-68580000D03*
X116840000Y-83820000D03*
X120650000Y-101600000D03*
X135890000Y-101600000D03*
D15*
X110490000Y-97790000D03*
X107950000Y-95250000D03*
X110490000Y-92710000D03*
D16*
X132080000Y-125730000D03*
D12*
X134620000Y-125730000D03*
X134620000Y-123190000D03*
D16*
X190500000Y-64770000D03*
D12*
X193040000Y-64770000D03*
X195580000Y-64770000D03*
X198120000Y-64770000D03*
X200660000Y-64770000D03*
X203200000Y-64770000D03*
X205740000Y-64770000D03*
X208280000Y-64770000D03*
D16*
X162560000Y-64770000D03*
D12*
X165100000Y-64770000D03*
X167640000Y-64770000D03*
D16*
X121920000Y-64770000D03*
D12*
X124460000Y-64770000D03*
D16*
X96520000Y-64770000D03*
D12*
X99060000Y-64770000D03*
X101600000Y-64770000D03*
D16*
X93980000Y-110490000D03*
D12*
X93980000Y-113030000D03*
X93980000Y-115570000D03*
X93980000Y-118110000D03*
X93980000Y-120650000D03*
X93980000Y-123190000D03*
X93980000Y-125730000D03*
X101600000Y-125730000D03*
X101600000Y-123190000D03*
X101600000Y-120650000D03*
X101600000Y-118110000D03*
X101600000Y-115570000D03*
X101600000Y-113030000D03*
X101600000Y-110490000D03*
D16*
X156210000Y-114300000D03*
D12*
X156210000Y-111760000D03*
X156210000Y-109220000D03*
X156210000Y-106680000D03*
X156210000Y-104140000D03*
X156210000Y-101600000D03*
X156210000Y-99060000D03*
X156210000Y-96520000D03*
X156210000Y-93980000D03*
X156210000Y-91440000D03*
X156210000Y-88900000D03*
X156210000Y-86360000D03*
X156210000Y-83820000D03*
X156210000Y-81280000D03*
X156210000Y-78740000D03*
X156210000Y-76200000D03*
X156210000Y-73660000D03*
X156210000Y-71120000D03*
X156210000Y-68580000D03*
X156210000Y-66040000D03*
X140970000Y-66040000D03*
X140970000Y-68580000D03*
X140970000Y-71120000D03*
X140970000Y-73660000D03*
X140970000Y-76200000D03*
X140970000Y-78740000D03*
X140970000Y-81280000D03*
X140970000Y-83820000D03*
X140970000Y-86360000D03*
X140970000Y-88900000D03*
X140970000Y-91440000D03*
X140970000Y-93980000D03*
X140970000Y-96520000D03*
X140970000Y-99060000D03*
X140970000Y-101600000D03*
X140970000Y-104140000D03*
X140970000Y-106680000D03*
X140970000Y-109220000D03*
X140970000Y-111760000D03*
X140970000Y-114300000D03*
D16*
X173990000Y-102870000D03*
D12*
X173990000Y-105410000D03*
X173990000Y-107950000D03*
X173990000Y-110490000D03*
X173990000Y-113030000D03*
X173990000Y-115570000D03*
X173990000Y-118110000D03*
X173990000Y-120650000D03*
X173990000Y-123190000D03*
X173990000Y-125730000D03*
X181610000Y-125730000D03*
X181610000Y-123190000D03*
X181610000Y-120650000D03*
X181610000Y-118110000D03*
X181610000Y-115570000D03*
X181610000Y-113030000D03*
X181610000Y-110490000D03*
X181610000Y-107950000D03*
X181610000Y-105410000D03*
X181610000Y-102870000D03*
D16*
X173990000Y-69850000D03*
D12*
X173990000Y-72390000D03*
X173990000Y-74930000D03*
X173990000Y-77470000D03*
X173990000Y-80010000D03*
X173990000Y-82550000D03*
X173990000Y-85090000D03*
X173990000Y-87630000D03*
X173990000Y-90170000D03*
X173990000Y-92710000D03*
X181610000Y-92710000D03*
X181610000Y-90170000D03*
X181610000Y-87630000D03*
X181610000Y-85090000D03*
X181610000Y-82550000D03*
X181610000Y-80010000D03*
X181610000Y-77470000D03*
X181610000Y-74930000D03*
X181610000Y-72390000D03*
X181610000Y-69850000D03*
D17*
X187960000Y-68580000D03*
X116840000Y-101600000D03*
X87630000Y-123190000D03*
X161290000Y-106680000D03*
X161290000Y-124460000D03*
X163830000Y-104140000D03*
X163830000Y-116840000D03*
X166370000Y-101600000D03*
X166370000Y-114300000D03*
X168910000Y-111760000D03*
X168910000Y-99060000D03*
X171450000Y-109220000D03*
X171450000Y-96520000D03*
X190500000Y-104140000D03*
X190500000Y-71120000D03*
X193040000Y-106680000D03*
X193040000Y-73660000D03*
X195580000Y-109220000D03*
X195580000Y-76200000D03*
X198120000Y-111760000D03*
X198120000Y-78740000D03*
X200660000Y-114300000D03*
X200660000Y-81280000D03*
X203200000Y-116840000D03*
X203200000Y-83820000D03*
X205740000Y-119380000D03*
X205740000Y-86360000D03*
X208280000Y-121920000D03*
X208280000Y-88900000D03*
D18*
X140970000Y-66040000D02*
X156210000Y-66040000D01*
X161290000Y-64770000D02*
X158750000Y-62230000D01*
X158750000Y-62230000D02*
X90170000Y-62230000D01*
X90170000Y-62230000D02*
X85090000Y-67310000D01*
X85090000Y-67310000D02*
X83820000Y-68580000D01*
X83820000Y-68580000D02*
X83820000Y-116840000D01*
X83820000Y-116840000D02*
X85090000Y-118110000D01*
X85090000Y-118110000D02*
X93980000Y-118110000D01*
X162560000Y-64770000D02*
X161290000Y-64770000D01*
X116840000Y-66040000D02*
X118110000Y-64770000D01*
X118110000Y-64770000D02*
X121920000Y-64770000D01*
X116840000Y-68580000D02*
X116840000Y-66040000D01*
X165100000Y-72390000D02*
X166370000Y-73660000D01*
X166370000Y-73660000D02*
X176530000Y-73660000D01*
X176530000Y-73660000D02*
X177800000Y-72390000D01*
X177800000Y-72390000D02*
X181610000Y-72390000D01*
X165100000Y-64770000D02*
X165100000Y-72390000D01*
X186690000Y-67310000D02*
X168910000Y-67310000D01*
X187960000Y-68580000D02*
X186690000Y-67310000D01*
X168910000Y-67310000D02*
X167640000Y-66040000D01*
X167640000Y-66040000D02*
X167640000Y-64770000D01*
X140970000Y-68580000D02*
X133350000Y-68580000D01*
X129540000Y-93980000D02*
X128270000Y-96520000D01*
X128270000Y-96520000D02*
X121920000Y-96520000D01*
X121920000Y-96520000D02*
X120650000Y-95250000D01*
X120650000Y-95250000D02*
X120650000Y-88900000D01*
X130810000Y-93980000D02*
X129540000Y-93980000D01*
X127000000Y-91440000D02*
X125730000Y-92710000D01*
X125730000Y-92710000D02*
X125730000Y-93980000D01*
X140970000Y-91440000D02*
X127000000Y-91440000D01*
X135890000Y-93980000D02*
X140970000Y-93980000D01*
X140970000Y-106680000D02*
X130810000Y-106680000D01*
X125730000Y-107950000D02*
X127000000Y-109220000D01*
X127000000Y-109220000D02*
X140970000Y-109220000D01*
X125730000Y-106680000D02*
X125730000Y-107950000D01*
X101600000Y-118110000D02*
X101600000Y-115570000D01*
X93980000Y-113030000D02*
X97790000Y-113030000D01*
D19*
X96520000Y-125730000D02*
X97790000Y-124460000D01*
X97790000Y-113030000D02*
X97790000Y-106680000D01*
X97790000Y-115570000D02*
X97790000Y-113030000D01*
X97790000Y-124460000D02*
X97790000Y-115570000D01*
X97790000Y-106680000D02*
X96520000Y-105410000D01*
X96520000Y-105410000D02*
X95250000Y-105410000D01*
X93980000Y-125730000D02*
X96520000Y-125730000D01*
X102743000Y-78613000D02*
X104140000Y-80010000D01*
X104140000Y-80010000D02*
X120650000Y-80010000D01*
X102743000Y-69850000D02*
X102743000Y-78613000D01*
X99060000Y-69850000D02*
X92583000Y-69850000D01*
X102743000Y-69850000D02*
X99060000Y-69850000D01*
X139700000Y-97790000D02*
X140970000Y-96520000D01*
X135890000Y-97790000D02*
X139700000Y-97790000D01*
X147320000Y-73660000D02*
X149860000Y-71120000D01*
X149860000Y-71120000D02*
X156210000Y-71120000D01*
X143510000Y-73660000D02*
X147320000Y-73660000D01*
X140970000Y-73660000D02*
X143510000Y-73660000D01*
X99060000Y-64770000D02*
X99060000Y-69850000D01*
D18*
X124460000Y-73660000D02*
X127000000Y-76200000D01*
X127000000Y-76200000D02*
X135890000Y-76200000D01*
X135890000Y-76200000D02*
X138430000Y-73660000D01*
X138430000Y-73660000D02*
X140970000Y-73660000D01*
X124460000Y-64770000D02*
X124460000Y-73660000D01*
X101600000Y-115570000D02*
X97790000Y-115570000D01*
D19*
X107823000Y-76073000D02*
X109220000Y-77470000D01*
X109220000Y-77470000D02*
X124460000Y-77470000D01*
X124460000Y-77470000D02*
X125730000Y-78740000D01*
X125730000Y-78740000D02*
X125730000Y-82550000D01*
X125730000Y-82550000D02*
X127000000Y-83820000D01*
X127000000Y-83820000D02*
X134620000Y-83820000D01*
X107823000Y-69850000D02*
X107823000Y-76073000D01*
X140970000Y-83820000D02*
X134620000Y-83820000D01*
X105410000Y-64770000D02*
X107823000Y-67183000D01*
X107823000Y-67183000D02*
X107823000Y-69850000D01*
X101600000Y-64770000D02*
X105410000Y-64770000D01*
X101600000Y-106680000D02*
X101600000Y-110490000D01*
X100330000Y-105410000D02*
X101600000Y-106680000D01*
X86360000Y-74930000D02*
X87503000Y-73787000D01*
X87503000Y-73787000D02*
X87503000Y-69850000D01*
X86360000Y-97790000D02*
X86360000Y-74930000D01*
X134620000Y-114300000D02*
X140970000Y-114300000D01*
X90170000Y-64770000D02*
X87503000Y-67437000D01*
X87503000Y-67437000D02*
X87503000Y-69850000D01*
X96520000Y-64770000D02*
X90170000Y-64770000D01*
D18*
X120650000Y-101600000D02*
X116840000Y-101600000D01*
X118110000Y-114300000D02*
X121920000Y-114300000D01*
X116840000Y-113030000D02*
X118110000Y-114300000D01*
X116840000Y-101600000D02*
X116840000Y-113030000D01*
X116840000Y-83820000D02*
X121920000Y-83820000D01*
X134620000Y-71120000D02*
X133350000Y-72390000D01*
X133350000Y-72390000D02*
X133350000Y-73660000D01*
X140970000Y-71120000D02*
X134620000Y-71120000D01*
X135890000Y-88900000D02*
X140970000Y-88900000D01*
X140970000Y-125730000D02*
X134620000Y-125730000D01*
X157480000Y-125730000D02*
X158750000Y-124460000D01*
X158750000Y-124460000D02*
X158750000Y-113030000D01*
X158750000Y-113030000D02*
X157480000Y-111760000D01*
X157480000Y-111760000D02*
X156210000Y-111760000D01*
X156210000Y-125730000D02*
X157480000Y-125730000D01*
X105410000Y-101600000D02*
X106680000Y-102870000D01*
X106680000Y-102870000D02*
X106680000Y-121920000D01*
X106680000Y-121920000D02*
X107950000Y-123190000D01*
X107950000Y-123190000D02*
X134620000Y-123190000D01*
X101600000Y-101600000D02*
X105410000Y-101600000D01*
X101600000Y-101600000D02*
X91440000Y-101600000D01*
X91440000Y-101600000D02*
X90170000Y-102870000D01*
X90170000Y-102870000D02*
X90170000Y-114300000D01*
X90170000Y-114300000D02*
X91440000Y-115570000D01*
X91440000Y-115570000D02*
X93980000Y-115570000D01*
X101600000Y-97790000D02*
X101600000Y-101600000D01*
X101600000Y-92710000D02*
X110490000Y-92710000D01*
X110490000Y-101600000D02*
X110490000Y-97790000D01*
X142240000Y-86360000D02*
X143510000Y-87630000D01*
X143510000Y-87630000D02*
X143510000Y-109220000D01*
X143510000Y-109220000D02*
X143510000Y-110490000D01*
X143510000Y-110490000D02*
X142240000Y-111760000D01*
X142240000Y-111760000D02*
X140970000Y-111760000D01*
X140970000Y-86360000D02*
X142240000Y-86360000D01*
X128270000Y-116840000D02*
X129540000Y-115570000D01*
X129540000Y-115570000D02*
X129540000Y-113030000D01*
X129540000Y-113030000D02*
X130810000Y-111760000D01*
X130810000Y-111760000D02*
X140970000Y-111760000D01*
X110490000Y-116840000D02*
X128270000Y-116840000D01*
X135890000Y-101600000D02*
X140970000Y-101600000D01*
X130810000Y-100330000D02*
X132080000Y-101600000D01*
X132080000Y-101600000D02*
X135890000Y-101600000D01*
X130810000Y-97790000D02*
X130810000Y-100330000D01*
X118110000Y-95250000D02*
X127000000Y-104140000D01*
X127000000Y-104140000D02*
X140970000Y-104140000D01*
X107950000Y-95250000D02*
X118110000Y-95250000D01*
X148590000Y-125730000D02*
X148590000Y-82550000D01*
X148590000Y-82550000D02*
X146050000Y-80010000D01*
X146050000Y-128270000D02*
X148590000Y-125730000D01*
X144780000Y-78740000D02*
X146050000Y-80010000D01*
X146050000Y-128270000D02*
X144780000Y-129540000D01*
X144780000Y-129540000D02*
X91440000Y-129540000D01*
X91440000Y-129540000D02*
X90170000Y-128270000D01*
X90170000Y-128270000D02*
X90170000Y-123190000D01*
X90170000Y-123190000D02*
X90170000Y-121920000D01*
X90170000Y-121920000D02*
X91440000Y-120650000D01*
X91440000Y-120650000D02*
X93980000Y-120650000D01*
X140970000Y-78740000D02*
X144780000Y-78740000D01*
X181610000Y-129540000D02*
X180340000Y-130810000D01*
X180340000Y-130810000D02*
X88900000Y-130810000D01*
X88900000Y-130810000D02*
X87630000Y-129540000D01*
X87630000Y-129540000D02*
X87630000Y-123190000D01*
X181610000Y-125730000D02*
X181610000Y-129540000D01*
X160020000Y-109220000D02*
X161290000Y-110490000D01*
X161290000Y-110490000D02*
X161290000Y-120650000D01*
X161290000Y-120650000D02*
X162560000Y-121920000D01*
X162560000Y-121920000D02*
X176530000Y-121920000D01*
X176530000Y-121920000D02*
X177800000Y-120650000D01*
X177800000Y-120650000D02*
X181610000Y-120650000D01*
X156210000Y-109220000D02*
X160020000Y-109220000D01*
X161290000Y-124460000D02*
X176530000Y-124460000D01*
X176530000Y-124460000D02*
X177800000Y-123190000D01*
X177800000Y-123190000D02*
X181610000Y-123190000D01*
X156210000Y-106680000D02*
X161290000Y-106680000D01*
X163830000Y-116840000D02*
X176530000Y-116840000D01*
X176530000Y-116840000D02*
X177800000Y-115570000D01*
X177800000Y-115570000D02*
X181610000Y-115570000D01*
X156210000Y-104140000D02*
X163830000Y-104140000D01*
X176530000Y-114300000D02*
X166370000Y-114300000D01*
X177800000Y-113030000D02*
X176530000Y-114300000D01*
X166370000Y-101600000D02*
X156210000Y-101600000D01*
X181610000Y-113030000D02*
X177800000Y-113030000D01*
X177800000Y-110490000D02*
X181610000Y-110490000D01*
X176530000Y-111760000D02*
X177800000Y-110490000D01*
X168910000Y-111760000D02*
X176530000Y-111760000D01*
X156210000Y-99060000D02*
X162560000Y-99060000D01*
X162560000Y-99060000D02*
X168910000Y-99060000D01*
X177800000Y-107950000D02*
X181610000Y-107950000D01*
X176530000Y-109220000D02*
X177800000Y-107950000D01*
X171450000Y-109220000D02*
X176530000Y-109220000D01*
X156210000Y-96520000D02*
X162560000Y-96520000D01*
X162560000Y-96520000D02*
X171450000Y-96520000D01*
X176530000Y-93980000D02*
X162560000Y-93980000D01*
X177800000Y-92710000D02*
X176530000Y-93980000D01*
X162560000Y-93980000D02*
X156210000Y-93980000D01*
X181610000Y-92710000D02*
X177800000Y-92710000D01*
X177800000Y-90170000D02*
X181610000Y-90170000D01*
X176530000Y-91440000D02*
X177800000Y-90170000D01*
X156210000Y-91440000D02*
X162560000Y-91440000D01*
X162560000Y-91440000D02*
X176530000Y-91440000D01*
X176530000Y-88900000D02*
X162560000Y-88900000D01*
X177800000Y-87630000D02*
X176530000Y-88900000D01*
X162560000Y-88900000D02*
X156210000Y-88900000D01*
X181610000Y-87630000D02*
X177800000Y-87630000D01*
X177800000Y-85090000D02*
X181610000Y-85090000D01*
X176530000Y-86360000D02*
X177800000Y-85090000D01*
X156210000Y-86360000D02*
X162560000Y-86360000D01*
X162560000Y-86360000D02*
X176530000Y-86360000D01*
X176530000Y-83820000D02*
X162560000Y-83820000D01*
X177800000Y-82550000D02*
X176530000Y-83820000D01*
X162560000Y-83820000D02*
X156210000Y-83820000D01*
X181610000Y-82550000D02*
X177800000Y-82550000D01*
X177800000Y-80010000D02*
X181610000Y-80010000D01*
X176530000Y-81280000D02*
X177800000Y-80010000D01*
X156210000Y-81280000D02*
X162560000Y-81280000D01*
X162560000Y-81280000D02*
X176530000Y-81280000D01*
X176530000Y-78740000D02*
X162560000Y-78740000D01*
X177800000Y-77470000D02*
X176530000Y-78740000D01*
X162560000Y-78740000D02*
X156210000Y-78740000D01*
X181610000Y-77470000D02*
X177800000Y-77470000D01*
X177800000Y-74930000D02*
X181610000Y-74930000D01*
X176530000Y-76200000D02*
X177800000Y-74930000D01*
X156210000Y-76200000D02*
X162560000Y-76200000D01*
X162560000Y-76200000D02*
X176530000Y-76200000D01*
X190500000Y-104140000D02*
X177800000Y-104140000D01*
X177800000Y-104140000D02*
X176530000Y-105410000D01*
X176530000Y-105410000D02*
X173990000Y-105410000D01*
X176530000Y-72390000D02*
X177800000Y-71120000D01*
X177800000Y-71120000D02*
X190500000Y-71120000D01*
X173990000Y-72390000D02*
X176530000Y-72390000D01*
X176530000Y-107950000D02*
X177800000Y-106680000D01*
X177800000Y-106680000D02*
X193040000Y-106680000D01*
X173990000Y-107950000D02*
X176530000Y-107950000D01*
X176530000Y-74930000D02*
X177800000Y-73660000D01*
X177800000Y-73660000D02*
X193040000Y-73660000D01*
X173990000Y-74930000D02*
X176530000Y-74930000D01*
X195580000Y-109220000D02*
X177800000Y-109220000D01*
X177800000Y-109220000D02*
X176530000Y-110490000D01*
X176530000Y-110490000D02*
X173990000Y-110490000D01*
X176530000Y-77470000D02*
X177800000Y-76200000D01*
X177800000Y-76200000D02*
X195580000Y-76200000D01*
X173990000Y-77470000D02*
X176530000Y-77470000D01*
X176530000Y-113030000D02*
X177800000Y-111760000D01*
X177800000Y-111760000D02*
X198120000Y-111760000D01*
X173990000Y-113030000D02*
X176530000Y-113030000D01*
X198120000Y-78740000D02*
X177800000Y-78740000D01*
X177800000Y-78740000D02*
X176530000Y-80010000D01*
X176530000Y-80010000D02*
X173990000Y-80010000D01*
X200660000Y-114300000D02*
X177800000Y-114300000D01*
X177800000Y-114300000D02*
X176530000Y-115570000D01*
X176530000Y-115570000D02*
X173990000Y-115570000D01*
X176530000Y-82550000D02*
X177800000Y-81280000D01*
X177800000Y-81280000D02*
X200660000Y-81280000D01*
X173990000Y-82550000D02*
X176530000Y-82550000D01*
X176530000Y-118110000D02*
X177800000Y-116840000D01*
X177800000Y-116840000D02*
X203200000Y-116840000D01*
X173990000Y-118110000D02*
X176530000Y-118110000D01*
X203200000Y-83820000D02*
X177800000Y-83820000D01*
X177800000Y-83820000D02*
X176530000Y-85090000D01*
X176530000Y-85090000D02*
X173990000Y-85090000D01*
X176530000Y-120650000D02*
X177800000Y-119380000D01*
X177800000Y-119380000D02*
X205740000Y-119380000D01*
X173990000Y-120650000D02*
X176530000Y-120650000D01*
X176530000Y-87630000D02*
X177800000Y-86360000D01*
X177800000Y-86360000D02*
X205740000Y-86360000D01*
X173990000Y-87630000D02*
X176530000Y-87630000D01*
X208280000Y-121920000D02*
X177800000Y-121920000D01*
X177800000Y-121920000D02*
X176530000Y-123190000D01*
X176530000Y-123190000D02*
X173990000Y-123190000D01*
X176530000Y-90170000D02*
X177800000Y-88900000D01*
X177800000Y-88900000D02*
X208280000Y-88900000D01*
X173990000Y-90170000D02*
X176530000Y-90170000D01*
M02*
