%FSLAX45Y45*%
G04 Gerber Fmt 4.5, Leading zero omitted, Abs format (unit mm)*
G04 Created by KiCad (PCBNEW 4.0.5+dfsg1-4+deb9u1) date Sun Sep  4 20:04:13 2022*
%MOMM*%
%LPD*%
G01*
G04 APERTURE LIST*
%ADD10C,0.127000*%
%ADD11C,0.381000*%
%ADD12C,0.200000*%
%ADD13C,0.300000*%
G04 APERTURE END LIST*
D10*
D11*
X7493000Y-5969000D02*
X7493000Y-13335000D01*
X21590000Y-5969000D02*
X7493000Y-5969000D01*
X21590000Y-13335000D02*
X21590000Y-5969000D01*
X7493000Y-13335000D02*
X21590000Y-13335000D01*
D12*
X8733028Y-12289028D02*
X8792972Y-12348972D01*
X8792972Y-12289028D02*
X8733028Y-12348972D01*
X11654028Y-10130028D02*
X11713972Y-10189972D01*
X11713972Y-10130028D02*
X11654028Y-10189972D01*
X16099028Y-10638028D02*
X16158972Y-10697972D01*
X16158972Y-10638028D02*
X16099028Y-10697972D01*
X16099028Y-12416028D02*
X16158972Y-12475972D01*
X16158972Y-12416028D02*
X16099028Y-12475972D01*
X16353028Y-10384028D02*
X16412972Y-10443972D01*
X16412972Y-10384028D02*
X16353028Y-10443972D01*
X16353028Y-11654028D02*
X16412972Y-11713972D01*
X16412972Y-11654028D02*
X16353028Y-11713972D01*
X16607028Y-10130028D02*
X16666972Y-10189972D01*
X16666972Y-10130028D02*
X16607028Y-10189972D01*
X16607028Y-11400028D02*
X16666972Y-11459972D01*
X16666972Y-11400028D02*
X16607028Y-11459972D01*
X16861028Y-9876028D02*
X16920972Y-9935972D01*
X16920972Y-9876028D02*
X16861028Y-9935972D01*
X16861028Y-11146028D02*
X16920972Y-11205972D01*
X16920972Y-11146028D02*
X16861028Y-11205972D01*
X17115028Y-9622028D02*
X17174972Y-9681972D01*
X17174972Y-9622028D02*
X17115028Y-9681972D01*
X17115028Y-10892028D02*
X17174972Y-10951972D01*
X17174972Y-10892028D02*
X17115028Y-10951972D01*
X18766028Y-6828028D02*
X18825972Y-6887972D01*
X18825972Y-6828028D02*
X18766028Y-6887972D01*
X19020028Y-7082028D02*
X19079972Y-7141972D01*
X19079972Y-7082028D02*
X19020028Y-7141972D01*
X19020028Y-10384028D02*
X19079972Y-10443972D01*
X19079972Y-10384028D02*
X19020028Y-10443972D01*
X19274028Y-7336028D02*
X19333972Y-7395972D01*
X19333972Y-7336028D02*
X19274028Y-7395972D01*
X19274028Y-10638028D02*
X19333972Y-10697972D01*
X19333972Y-10638028D02*
X19274028Y-10697972D01*
X19528028Y-7590028D02*
X19587972Y-7649972D01*
X19587972Y-7590028D02*
X19528028Y-7649972D01*
X19528028Y-10892028D02*
X19587972Y-10951972D01*
X19587972Y-10892028D02*
X19528028Y-10951972D01*
X19782028Y-7844028D02*
X19841972Y-7903972D01*
X19841972Y-7844028D02*
X19782028Y-7903972D01*
X19782028Y-11146028D02*
X19841972Y-11205972D01*
X19841972Y-11146028D02*
X19782028Y-11205972D01*
X20036028Y-8098028D02*
X20095972Y-8157972D01*
X20095972Y-8098028D02*
X20036028Y-8157972D01*
X20036028Y-11400028D02*
X20095972Y-11459972D01*
X20095972Y-11400028D02*
X20036028Y-11459972D01*
X20290028Y-8352028D02*
X20349972Y-8411972D01*
X20349972Y-8352028D02*
X20290028Y-8411972D01*
X20290028Y-11654028D02*
X20349972Y-11713972D01*
X20349972Y-11654028D02*
X20290028Y-11713972D01*
X20544028Y-8606028D02*
X20603972Y-8665972D01*
X20603972Y-8606028D02*
X20544028Y-8665972D01*
X20544028Y-11908028D02*
X20603972Y-11967972D01*
X20603972Y-11908028D02*
X20544028Y-11967972D01*
X20798028Y-8860028D02*
X20857972Y-8919972D01*
X20857972Y-8860028D02*
X20798028Y-8919972D01*
X20798028Y-12162028D02*
X20857972Y-12221972D01*
X20857972Y-12162028D02*
X20798028Y-12221972D01*
X9438640Y-11049000D02*
G75*
G03X9438640Y-11049000I-40640J0D01*
G01*
X9438640Y-11303000D02*
G75*
G03X9438640Y-11303000I-40640J0D01*
G01*
X9438640Y-11557000D02*
G75*
G03X9438640Y-11557000I-40640J0D01*
G01*
X9438640Y-11811000D02*
G75*
G03X9438640Y-11811000I-40640J0D01*
G01*
X9438640Y-12065000D02*
G75*
G03X9438640Y-12065000I-40640J0D01*
G01*
X9438640Y-12319000D02*
G75*
G03X9438640Y-12319000I-40640J0D01*
G01*
X9438640Y-12573000D02*
G75*
G03X9438640Y-12573000I-40640J0D01*
G01*
X9565640Y-10541000D02*
G75*
G03X9565640Y-10541000I-40640J0D01*
G01*
X9692640Y-6477000D02*
G75*
G03X9692640Y-6477000I-40640J0D01*
G01*
X9946640Y-6477000D02*
G75*
G03X9946640Y-6477000I-40640J0D01*
G01*
X10073640Y-10541000D02*
G75*
G03X10073640Y-10541000I-40640J0D01*
G01*
X10200640Y-6477000D02*
G75*
G03X10200640Y-6477000I-40640J0D01*
G01*
X10200640Y-11049000D02*
G75*
G03X10200640Y-11049000I-40640J0D01*
G01*
X10200640Y-11303000D02*
G75*
G03X10200640Y-11303000I-40640J0D01*
G01*
X10200640Y-11557000D02*
G75*
G03X10200640Y-11557000I-40640J0D01*
G01*
X10200640Y-11811000D02*
G75*
G03X10200640Y-11811000I-40640J0D01*
G01*
X10200640Y-12065000D02*
G75*
G03X10200640Y-12065000I-40640J0D01*
G01*
X10200640Y-12319000D02*
G75*
G03X10200640Y-12319000I-40640J0D01*
G01*
X10200640Y-12573000D02*
G75*
G03X10200640Y-12573000I-40640J0D01*
G01*
X10835640Y-9525000D02*
G75*
G03X10835640Y-9525000I-40640J0D01*
G01*
X11089640Y-9271000D02*
G75*
G03X11089640Y-9271000I-40640J0D01*
G01*
X11089640Y-9779000D02*
G75*
G03X11089640Y-9779000I-40640J0D01*
G01*
X12105640Y-8001000D02*
G75*
G03X12105640Y-8001000I-40640J0D01*
G01*
X12105640Y-9398000D02*
G75*
G03X12105640Y-9398000I-40640J0D01*
G01*
X12232640Y-6477000D02*
G75*
G03X12232640Y-6477000I-40640J0D01*
G01*
X12486640Y-6477000D02*
G75*
G03X12486640Y-6477000I-40640J0D01*
G01*
X12613640Y-8001000D02*
G75*
G03X12613640Y-8001000I-40640J0D01*
G01*
X12613640Y-9398000D02*
G75*
G03X12613640Y-9398000I-40640J0D01*
G01*
X12613640Y-10668000D02*
G75*
G03X12613640Y-10668000I-40640J0D01*
G01*
X13121640Y-9398000D02*
G75*
G03X13121640Y-9398000I-40640J0D01*
G01*
X13121640Y-9779000D02*
G75*
G03X13121640Y-9779000I-40640J0D01*
G01*
X13121640Y-10668000D02*
G75*
G03X13121640Y-10668000I-40640J0D01*
G01*
X13248640Y-12573000D02*
G75*
G03X13248640Y-12573000I-40640J0D01*
G01*
X13375640Y-6858000D02*
G75*
G03X13375640Y-6858000I-40640J0D01*
G01*
X13375640Y-7366000D02*
G75*
G03X13375640Y-7366000I-40640J0D01*
G01*
X13502640Y-12319000D02*
G75*
G03X13502640Y-12319000I-40640J0D01*
G01*
X13502640Y-12573000D02*
G75*
G03X13502640Y-12573000I-40640J0D01*
G01*
X13629640Y-9398000D02*
G75*
G03X13629640Y-9398000I-40640J0D01*
G01*
X13629640Y-9779000D02*
G75*
G03X13629640Y-9779000I-40640J0D01*
G01*
X14137640Y-6604000D02*
G75*
G03X14137640Y-6604000I-40640J0D01*
G01*
X14137640Y-6858000D02*
G75*
G03X14137640Y-6858000I-40640J0D01*
G01*
X14137640Y-7112000D02*
G75*
G03X14137640Y-7112000I-40640J0D01*
G01*
X14137640Y-7366000D02*
G75*
G03X14137640Y-7366000I-40640J0D01*
G01*
X14137640Y-7620000D02*
G75*
G03X14137640Y-7620000I-40640J0D01*
G01*
X14137640Y-7874000D02*
G75*
G03X14137640Y-7874000I-40640J0D01*
G01*
X14137640Y-8128000D02*
G75*
G03X14137640Y-8128000I-40640J0D01*
G01*
X14137640Y-8382000D02*
G75*
G03X14137640Y-8382000I-40640J0D01*
G01*
X14137640Y-8636000D02*
G75*
G03X14137640Y-8636000I-40640J0D01*
G01*
X14137640Y-8890000D02*
G75*
G03X14137640Y-8890000I-40640J0D01*
G01*
X14137640Y-9144000D02*
G75*
G03X14137640Y-9144000I-40640J0D01*
G01*
X14137640Y-9398000D02*
G75*
G03X14137640Y-9398000I-40640J0D01*
G01*
X14137640Y-9652000D02*
G75*
G03X14137640Y-9652000I-40640J0D01*
G01*
X14137640Y-9906000D02*
G75*
G03X14137640Y-9906000I-40640J0D01*
G01*
X14137640Y-10160000D02*
G75*
G03X14137640Y-10160000I-40640J0D01*
G01*
X14137640Y-10414000D02*
G75*
G03X14137640Y-10414000I-40640J0D01*
G01*
X14137640Y-10668000D02*
G75*
G03X14137640Y-10668000I-40640J0D01*
G01*
X14137640Y-10922000D02*
G75*
G03X14137640Y-10922000I-40640J0D01*
G01*
X14137640Y-11176000D02*
G75*
G03X14137640Y-11176000I-40640J0D01*
G01*
X14137640Y-11430000D02*
G75*
G03X14137640Y-11430000I-40640J0D01*
G01*
X14645640Y-12065000D02*
G75*
G03X14645640Y-12065000I-40640J0D01*
G01*
X15153640Y-12065000D02*
G75*
G03X15153640Y-12065000I-40640J0D01*
G01*
X15661640Y-6604000D02*
G75*
G03X15661640Y-6604000I-40640J0D01*
G01*
X15661640Y-6858000D02*
G75*
G03X15661640Y-6858000I-40640J0D01*
G01*
X15661640Y-7112000D02*
G75*
G03X15661640Y-7112000I-40640J0D01*
G01*
X15661640Y-7366000D02*
G75*
G03X15661640Y-7366000I-40640J0D01*
G01*
X15661640Y-7620000D02*
G75*
G03X15661640Y-7620000I-40640J0D01*
G01*
X15661640Y-7874000D02*
G75*
G03X15661640Y-7874000I-40640J0D01*
G01*
X15661640Y-8128000D02*
G75*
G03X15661640Y-8128000I-40640J0D01*
G01*
X15661640Y-8382000D02*
G75*
G03X15661640Y-8382000I-40640J0D01*
G01*
X15661640Y-8636000D02*
G75*
G03X15661640Y-8636000I-40640J0D01*
G01*
X15661640Y-8890000D02*
G75*
G03X15661640Y-8890000I-40640J0D01*
G01*
X15661640Y-9144000D02*
G75*
G03X15661640Y-9144000I-40640J0D01*
G01*
X15661640Y-9398000D02*
G75*
G03X15661640Y-9398000I-40640J0D01*
G01*
X15661640Y-9652000D02*
G75*
G03X15661640Y-9652000I-40640J0D01*
G01*
X15661640Y-9906000D02*
G75*
G03X15661640Y-9906000I-40640J0D01*
G01*
X15661640Y-10160000D02*
G75*
G03X15661640Y-10160000I-40640J0D01*
G01*
X15661640Y-10414000D02*
G75*
G03X15661640Y-10414000I-40640J0D01*
G01*
X15661640Y-10668000D02*
G75*
G03X15661640Y-10668000I-40640J0D01*
G01*
X15661640Y-10922000D02*
G75*
G03X15661640Y-10922000I-40640J0D01*
G01*
X15661640Y-11176000D02*
G75*
G03X15661640Y-11176000I-40640J0D01*
G01*
X15661640Y-11430000D02*
G75*
G03X15661640Y-11430000I-40640J0D01*
G01*
X16296640Y-6477000D02*
G75*
G03X16296640Y-6477000I-40640J0D01*
G01*
X16550640Y-6477000D02*
G75*
G03X16550640Y-6477000I-40640J0D01*
G01*
X16804640Y-6477000D02*
G75*
G03X16804640Y-6477000I-40640J0D01*
G01*
X17439640Y-6985000D02*
G75*
G03X17439640Y-6985000I-40640J0D01*
G01*
X17439640Y-7239000D02*
G75*
G03X17439640Y-7239000I-40640J0D01*
G01*
X17439640Y-7493000D02*
G75*
G03X17439640Y-7493000I-40640J0D01*
G01*
X17439640Y-7747000D02*
G75*
G03X17439640Y-7747000I-40640J0D01*
G01*
X17439640Y-8001000D02*
G75*
G03X17439640Y-8001000I-40640J0D01*
G01*
X17439640Y-8255000D02*
G75*
G03X17439640Y-8255000I-40640J0D01*
G01*
X17439640Y-8509000D02*
G75*
G03X17439640Y-8509000I-40640J0D01*
G01*
X17439640Y-8763000D02*
G75*
G03X17439640Y-8763000I-40640J0D01*
G01*
X17439640Y-9017000D02*
G75*
G03X17439640Y-9017000I-40640J0D01*
G01*
X17439640Y-9271000D02*
G75*
G03X17439640Y-9271000I-40640J0D01*
G01*
X17439640Y-10287000D02*
G75*
G03X17439640Y-10287000I-40640J0D01*
G01*
X17439640Y-10541000D02*
G75*
G03X17439640Y-10541000I-40640J0D01*
G01*
X17439640Y-10795000D02*
G75*
G03X17439640Y-10795000I-40640J0D01*
G01*
X17439640Y-11049000D02*
G75*
G03X17439640Y-11049000I-40640J0D01*
G01*
X17439640Y-11303000D02*
G75*
G03X17439640Y-11303000I-40640J0D01*
G01*
X17439640Y-11557000D02*
G75*
G03X17439640Y-11557000I-40640J0D01*
G01*
X17439640Y-11811000D02*
G75*
G03X17439640Y-11811000I-40640J0D01*
G01*
X17439640Y-12065000D02*
G75*
G03X17439640Y-12065000I-40640J0D01*
G01*
X17439640Y-12319000D02*
G75*
G03X17439640Y-12319000I-40640J0D01*
G01*
X17439640Y-12573000D02*
G75*
G03X17439640Y-12573000I-40640J0D01*
G01*
X17566640Y-6477000D02*
G75*
G03X17566640Y-6477000I-40640J0D01*
G01*
X17566640Y-9779000D02*
G75*
G03X17566640Y-9779000I-40640J0D01*
G01*
X18074640Y-6477000D02*
G75*
G03X18074640Y-6477000I-40640J0D01*
G01*
X18074640Y-9779000D02*
G75*
G03X18074640Y-9779000I-40640J0D01*
G01*
X18201640Y-6985000D02*
G75*
G03X18201640Y-6985000I-40640J0D01*
G01*
X18201640Y-7239000D02*
G75*
G03X18201640Y-7239000I-40640J0D01*
G01*
X18201640Y-7493000D02*
G75*
G03X18201640Y-7493000I-40640J0D01*
G01*
X18201640Y-7747000D02*
G75*
G03X18201640Y-7747000I-40640J0D01*
G01*
X18201640Y-8001000D02*
G75*
G03X18201640Y-8001000I-40640J0D01*
G01*
X18201640Y-8255000D02*
G75*
G03X18201640Y-8255000I-40640J0D01*
G01*
X18201640Y-8509000D02*
G75*
G03X18201640Y-8509000I-40640J0D01*
G01*
X18201640Y-8763000D02*
G75*
G03X18201640Y-8763000I-40640J0D01*
G01*
X18201640Y-9017000D02*
G75*
G03X18201640Y-9017000I-40640J0D01*
G01*
X18201640Y-9271000D02*
G75*
G03X18201640Y-9271000I-40640J0D01*
G01*
X18201640Y-10287000D02*
G75*
G03X18201640Y-10287000I-40640J0D01*
G01*
X18201640Y-10541000D02*
G75*
G03X18201640Y-10541000I-40640J0D01*
G01*
X18201640Y-10795000D02*
G75*
G03X18201640Y-10795000I-40640J0D01*
G01*
X18201640Y-11049000D02*
G75*
G03X18201640Y-11049000I-40640J0D01*
G01*
X18201640Y-11303000D02*
G75*
G03X18201640Y-11303000I-40640J0D01*
G01*
X18201640Y-11557000D02*
G75*
G03X18201640Y-11557000I-40640J0D01*
G01*
X18201640Y-11811000D02*
G75*
G03X18201640Y-11811000I-40640J0D01*
G01*
X18201640Y-12065000D02*
G75*
G03X18201640Y-12065000I-40640J0D01*
G01*
X18201640Y-12319000D02*
G75*
G03X18201640Y-12319000I-40640J0D01*
G01*
X18201640Y-12573000D02*
G75*
G03X18201640Y-12573000I-40640J0D01*
G01*
X19090640Y-6477000D02*
G75*
G03X19090640Y-6477000I-40640J0D01*
G01*
X19344640Y-6477000D02*
G75*
G03X19344640Y-6477000I-40640J0D01*
G01*
X19598640Y-6477000D02*
G75*
G03X19598640Y-6477000I-40640J0D01*
G01*
X19852640Y-6477000D02*
G75*
G03X19852640Y-6477000I-40640J0D01*
G01*
X20106640Y-6477000D02*
G75*
G03X20106640Y-6477000I-40640J0D01*
G01*
X20360640Y-6477000D02*
G75*
G03X20360640Y-6477000I-40640J0D01*
G01*
X20614640Y-6477000D02*
G75*
G03X20614640Y-6477000I-40640J0D01*
G01*
X20868640Y-6477000D02*
G75*
G03X20868640Y-6477000I-40640J0D01*
G01*
X8750300Y-6934200D02*
X8750300Y-7035800D01*
X8699500Y-6985000D02*
X8801100Y-6985000D01*
X9258300Y-6934200D02*
X9258300Y-7035800D01*
X9207500Y-6985000D02*
X9309100Y-6985000D01*
X10274300Y-6934200D02*
X10274300Y-7035800D01*
X10223500Y-6985000D02*
X10325100Y-6985000D01*
X10782300Y-6934200D02*
X10782300Y-7035800D01*
X10731500Y-6985000D02*
X10833100Y-6985000D01*
X8676412Y-9311412D02*
X8676412Y-9230589D01*
X8595589Y-9230589D01*
X8595589Y-9311412D01*
X8676412Y-9311412D01*
X8676412Y-9819412D02*
X8676412Y-9738589D01*
X8595589Y-9738589D01*
X8595589Y-9819412D01*
X8676412Y-9819412D01*
X10200412Y-9311412D02*
X10200412Y-9230589D01*
X10119589Y-9230589D01*
X10119589Y-9311412D01*
X10200412Y-9311412D01*
X10200412Y-9819412D02*
X10200412Y-9738589D01*
X10119589Y-9738589D01*
X10119589Y-9819412D01*
X10200412Y-9819412D01*
X11089412Y-10200412D02*
X11089412Y-10119589D01*
X11008589Y-10119589D01*
X11008589Y-10200412D01*
X11089412Y-10200412D01*
X11089412Y-11724411D02*
X11089412Y-11643588D01*
X11008589Y-11643588D01*
X11008589Y-11724411D01*
X11089412Y-11724411D01*
X11724411Y-6898411D02*
X11724411Y-6817588D01*
X11643588Y-6817588D01*
X11643588Y-6898411D01*
X11724411Y-6898411D01*
X11724411Y-8422412D02*
X11724411Y-8341588D01*
X11643588Y-8341588D01*
X11643588Y-8422412D01*
X11724411Y-8422412D01*
X12105411Y-8930412D02*
X12105411Y-8849589D01*
X12024588Y-8849589D01*
X12024588Y-8930412D01*
X12105411Y-8930412D01*
X12105411Y-10200412D02*
X12105411Y-10119589D01*
X12024588Y-10119589D01*
X12024588Y-10200412D01*
X12105411Y-10200412D01*
X12232411Y-8422412D02*
X12232411Y-8341588D01*
X12151588Y-8341588D01*
X12151588Y-8422412D01*
X12232411Y-8422412D01*
X12232411Y-11470411D02*
X12232411Y-11389588D01*
X12151588Y-11389588D01*
X12151588Y-11470411D01*
X12232411Y-11470411D01*
X13502411Y-8422412D02*
X13502411Y-8341588D01*
X13421588Y-8341588D01*
X13421588Y-8422412D01*
X13502411Y-8422412D01*
X13502411Y-11470411D02*
X13502411Y-11389588D01*
X13421588Y-11389588D01*
X13421588Y-11470411D01*
X13502411Y-11470411D01*
X13629411Y-8930412D02*
X13629411Y-8849589D01*
X13548588Y-8849589D01*
X13548588Y-8930412D01*
X13629411Y-8930412D01*
X13629411Y-10200412D02*
X13629411Y-10119589D01*
X13548588Y-10119589D01*
X13548588Y-10200412D01*
X13629411Y-10200412D01*
X14137411Y-12613411D02*
X14137411Y-12532588D01*
X14056588Y-12532588D01*
X14056588Y-12613411D01*
X14137411Y-12613411D01*
X15661411Y-12613411D02*
X15661411Y-12532588D01*
X15580588Y-12532588D01*
X15580588Y-12613411D01*
X15661411Y-12613411D01*
D13*
X7745378Y-13819764D02*
X7745378Y-13519764D01*
X7816807Y-13519764D01*
X7859664Y-13534050D01*
X7888236Y-13562621D01*
X7902521Y-13591193D01*
X7916807Y-13648336D01*
X7916807Y-13691193D01*
X7902521Y-13748336D01*
X7888236Y-13776907D01*
X7859664Y-13805479D01*
X7816807Y-13819764D01*
X7745378Y-13819764D01*
X8045378Y-13819764D02*
X8045378Y-13619764D01*
X8045378Y-13676907D02*
X8059664Y-13648336D01*
X8073950Y-13634050D01*
X8102521Y-13619764D01*
X8131093Y-13619764D01*
X8231093Y-13819764D02*
X8231093Y-13619764D01*
X8231093Y-13519764D02*
X8216807Y-13534050D01*
X8231093Y-13548336D01*
X8245378Y-13534050D01*
X8231093Y-13519764D01*
X8231093Y-13548336D01*
X8416807Y-13819764D02*
X8388236Y-13805479D01*
X8373950Y-13776907D01*
X8373950Y-13519764D01*
X8573950Y-13819764D02*
X8545379Y-13805479D01*
X8531093Y-13776907D01*
X8531093Y-13519764D01*
X8916807Y-13819764D02*
X8916807Y-13519764D01*
X9016807Y-13734050D01*
X9116807Y-13519764D01*
X9116807Y-13819764D01*
X9388236Y-13819764D02*
X9388236Y-13662621D01*
X9373950Y-13634050D01*
X9345379Y-13619764D01*
X9288236Y-13619764D01*
X9259664Y-13634050D01*
X9388236Y-13805479D02*
X9359664Y-13819764D01*
X9288236Y-13819764D01*
X9259664Y-13805479D01*
X9245379Y-13776907D01*
X9245379Y-13748336D01*
X9259664Y-13719764D01*
X9288236Y-13705479D01*
X9359664Y-13705479D01*
X9388236Y-13691193D01*
X9531093Y-13619764D02*
X9531093Y-13919764D01*
X9531093Y-13634050D02*
X9559664Y-13619764D01*
X9616807Y-13619764D01*
X9645379Y-13634050D01*
X9659664Y-13648336D01*
X9673950Y-13676907D01*
X9673950Y-13762621D01*
X9659664Y-13791193D01*
X9645379Y-13805479D01*
X9616807Y-13819764D01*
X9559664Y-13819764D01*
X9531093Y-13805479D01*
X9802521Y-13791193D02*
X9816807Y-13805479D01*
X9802521Y-13819764D01*
X9788236Y-13805479D01*
X9802521Y-13791193D01*
X9802521Y-13819764D01*
X9802521Y-13634050D02*
X9816807Y-13648336D01*
X9802521Y-13662621D01*
X9788236Y-13648336D01*
X9802521Y-13634050D01*
X9802521Y-13662621D01*
X7414006Y-14284078D02*
X7473950Y-14344022D01*
X7473950Y-14284078D02*
X7414006Y-14344022D01*
X7802521Y-14149764D02*
X7831093Y-14149764D01*
X7859664Y-14164050D01*
X7873950Y-14178336D01*
X7888236Y-14206907D01*
X7902521Y-14264050D01*
X7902521Y-14335479D01*
X7888236Y-14392621D01*
X7873950Y-14421193D01*
X7859664Y-14435479D01*
X7831093Y-14449764D01*
X7802521Y-14449764D01*
X7773950Y-14435479D01*
X7759664Y-14421193D01*
X7745378Y-14392621D01*
X7731093Y-14335479D01*
X7731093Y-14264050D01*
X7745378Y-14206907D01*
X7759664Y-14178336D01*
X7773950Y-14164050D01*
X7802521Y-14149764D01*
X8031093Y-14421193D02*
X8045378Y-14435479D01*
X8031093Y-14449764D01*
X8016807Y-14435479D01*
X8031093Y-14421193D01*
X8031093Y-14449764D01*
X8302521Y-14149764D02*
X8245378Y-14149764D01*
X8216807Y-14164050D01*
X8202521Y-14178336D01*
X8173950Y-14221193D01*
X8159664Y-14278336D01*
X8159664Y-14392621D01*
X8173950Y-14421193D01*
X8188236Y-14435479D01*
X8216807Y-14449764D01*
X8273950Y-14449764D01*
X8302521Y-14435479D01*
X8316807Y-14421193D01*
X8331093Y-14392621D01*
X8331093Y-14321193D01*
X8316807Y-14292621D01*
X8302521Y-14278336D01*
X8273950Y-14264050D01*
X8216807Y-14264050D01*
X8188236Y-14278336D01*
X8173950Y-14292621D01*
X8159664Y-14321193D01*
X8516807Y-14149764D02*
X8545379Y-14149764D01*
X8573950Y-14164050D01*
X8588236Y-14178336D01*
X8602521Y-14206907D01*
X8616807Y-14264050D01*
X8616807Y-14335479D01*
X8602521Y-14392621D01*
X8588236Y-14421193D01*
X8573950Y-14435479D01*
X8545379Y-14449764D01*
X8516807Y-14449764D01*
X8488236Y-14435479D01*
X8473950Y-14421193D01*
X8459664Y-14392621D01*
X8445379Y-14335479D01*
X8445379Y-14264050D01*
X8459664Y-14206907D01*
X8473950Y-14178336D01*
X8488236Y-14164050D01*
X8516807Y-14149764D01*
X8745379Y-14449764D02*
X8745379Y-14249764D01*
X8745379Y-14278336D02*
X8759664Y-14264050D01*
X8788236Y-14249764D01*
X8831093Y-14249764D01*
X8859664Y-14264050D01*
X8873950Y-14292621D01*
X8873950Y-14449764D01*
X8873950Y-14292621D02*
X8888236Y-14264050D01*
X8916807Y-14249764D01*
X8959664Y-14249764D01*
X8988236Y-14264050D01*
X9002521Y-14292621D01*
X9002521Y-14449764D01*
X9145379Y-14449764D02*
X9145379Y-14249764D01*
X9145379Y-14278336D02*
X9159664Y-14264050D01*
X9188236Y-14249764D01*
X9231093Y-14249764D01*
X9259664Y-14264050D01*
X9273950Y-14292621D01*
X9273950Y-14449764D01*
X9273950Y-14292621D02*
X9288236Y-14264050D01*
X9316807Y-14249764D01*
X9359664Y-14249764D01*
X9388236Y-14264050D01*
X9402521Y-14292621D01*
X9402521Y-14449764D01*
X9988236Y-14135479D02*
X9731093Y-14521193D01*
X10373950Y-14149764D02*
X10402521Y-14149764D01*
X10431093Y-14164050D01*
X10445378Y-14178336D01*
X10459664Y-14206907D01*
X10473950Y-14264050D01*
X10473950Y-14335479D01*
X10459664Y-14392621D01*
X10445378Y-14421193D01*
X10431093Y-14435479D01*
X10402521Y-14449764D01*
X10373950Y-14449764D01*
X10345378Y-14435479D01*
X10331093Y-14421193D01*
X10316807Y-14392621D01*
X10302521Y-14335479D01*
X10302521Y-14264050D01*
X10316807Y-14206907D01*
X10331093Y-14178336D01*
X10345378Y-14164050D01*
X10373950Y-14149764D01*
X10602521Y-14421193D02*
X10616807Y-14435479D01*
X10602521Y-14449764D01*
X10588236Y-14435479D01*
X10602521Y-14421193D01*
X10602521Y-14449764D01*
X10802521Y-14149764D02*
X10831093Y-14149764D01*
X10859664Y-14164050D01*
X10873950Y-14178336D01*
X10888236Y-14206907D01*
X10902521Y-14264050D01*
X10902521Y-14335479D01*
X10888236Y-14392621D01*
X10873950Y-14421193D01*
X10859664Y-14435479D01*
X10831093Y-14449764D01*
X10802521Y-14449764D01*
X10773950Y-14435479D01*
X10759664Y-14421193D01*
X10745378Y-14392621D01*
X10731093Y-14335479D01*
X10731093Y-14264050D01*
X10745378Y-14206907D01*
X10759664Y-14178336D01*
X10773950Y-14164050D01*
X10802521Y-14149764D01*
X11016807Y-14178336D02*
X11031093Y-14164050D01*
X11059664Y-14149764D01*
X11131093Y-14149764D01*
X11159664Y-14164050D01*
X11173950Y-14178336D01*
X11188236Y-14206907D01*
X11188236Y-14235479D01*
X11173950Y-14278336D01*
X11002521Y-14449764D01*
X11188236Y-14449764D01*
X11445378Y-14249764D02*
X11445378Y-14449764D01*
X11373950Y-14135479D02*
X11302521Y-14349764D01*
X11488235Y-14349764D01*
X11588236Y-14149764D02*
X11588236Y-14206907D01*
X11702521Y-14149764D02*
X11702521Y-14206907D01*
X12145378Y-14564050D02*
X12131093Y-14549764D01*
X12102521Y-14506907D01*
X12088235Y-14478336D01*
X12073950Y-14435479D01*
X12059664Y-14364050D01*
X12059664Y-14306907D01*
X12073950Y-14235479D01*
X12088235Y-14192621D01*
X12102521Y-14164050D01*
X12131093Y-14121193D01*
X12145378Y-14106907D01*
X12245378Y-14178336D02*
X12259664Y-14164050D01*
X12288235Y-14149764D01*
X12359664Y-14149764D01*
X12388235Y-14164050D01*
X12402521Y-14178336D01*
X12416807Y-14206907D01*
X12416807Y-14235479D01*
X12402521Y-14278336D01*
X12231093Y-14449764D01*
X12416807Y-14449764D01*
X12559664Y-14449764D02*
X12616807Y-14449764D01*
X12645378Y-14435479D01*
X12659664Y-14421193D01*
X12688235Y-14378336D01*
X12702521Y-14321193D01*
X12702521Y-14206907D01*
X12688235Y-14178336D01*
X12673950Y-14164050D01*
X12645378Y-14149764D01*
X12588235Y-14149764D01*
X12559664Y-14164050D01*
X12545378Y-14178336D01*
X12531093Y-14206907D01*
X12531093Y-14278336D01*
X12545378Y-14306907D01*
X12559664Y-14321193D01*
X12588235Y-14335479D01*
X12645378Y-14335479D01*
X12673950Y-14321193D01*
X12688235Y-14306907D01*
X12702521Y-14278336D01*
X13059664Y-14449764D02*
X13059664Y-14149764D01*
X13188235Y-14449764D02*
X13188235Y-14292621D01*
X13173950Y-14264050D01*
X13145378Y-14249764D01*
X13102521Y-14249764D01*
X13073950Y-14264050D01*
X13059664Y-14278336D01*
X13373950Y-14449764D02*
X13345378Y-14435479D01*
X13331093Y-14421193D01*
X13316807Y-14392621D01*
X13316807Y-14306907D01*
X13331093Y-14278336D01*
X13345378Y-14264050D01*
X13373950Y-14249764D01*
X13416807Y-14249764D01*
X13445378Y-14264050D01*
X13459664Y-14278336D01*
X13473950Y-14306907D01*
X13473950Y-14392621D01*
X13459664Y-14421193D01*
X13445378Y-14435479D01*
X13416807Y-14449764D01*
X13373950Y-14449764D01*
X13645378Y-14449764D02*
X13616807Y-14435479D01*
X13602521Y-14406907D01*
X13602521Y-14149764D01*
X13873950Y-14435479D02*
X13845378Y-14449764D01*
X13788236Y-14449764D01*
X13759664Y-14435479D01*
X13745378Y-14406907D01*
X13745378Y-14292621D01*
X13759664Y-14264050D01*
X13788236Y-14249764D01*
X13845378Y-14249764D01*
X13873950Y-14264050D01*
X13888236Y-14292621D01*
X13888236Y-14321193D01*
X13745378Y-14349764D01*
X14002521Y-14435479D02*
X14031093Y-14449764D01*
X14088236Y-14449764D01*
X14116807Y-14435479D01*
X14131093Y-14406907D01*
X14131093Y-14392621D01*
X14116807Y-14364050D01*
X14088236Y-14349764D01*
X14045378Y-14349764D01*
X14016807Y-14335479D01*
X14002521Y-14306907D01*
X14002521Y-14292621D01*
X14016807Y-14264050D01*
X14045378Y-14249764D01*
X14088236Y-14249764D01*
X14116807Y-14264050D01*
X14231093Y-14564050D02*
X14245378Y-14549764D01*
X14273950Y-14506907D01*
X14288236Y-14478336D01*
X14302521Y-14435479D01*
X14316807Y-14364050D01*
X14316807Y-14306907D01*
X14302521Y-14235479D01*
X14288236Y-14192621D01*
X14273950Y-14164050D01*
X14245378Y-14121193D01*
X14231093Y-14106907D01*
X7473950Y-14710050D02*
G75*
G03X7473950Y-14710050I-40640J0D01*
G01*
X7802521Y-14545764D02*
X7831093Y-14545764D01*
X7859664Y-14560050D01*
X7873950Y-14574336D01*
X7888236Y-14602907D01*
X7902521Y-14660050D01*
X7902521Y-14731479D01*
X7888236Y-14788621D01*
X7873950Y-14817193D01*
X7859664Y-14831479D01*
X7831093Y-14845764D01*
X7802521Y-14845764D01*
X7773950Y-14831479D01*
X7759664Y-14817193D01*
X7745378Y-14788621D01*
X7731093Y-14731479D01*
X7731093Y-14660050D01*
X7745378Y-14602907D01*
X7759664Y-14574336D01*
X7773950Y-14560050D01*
X7802521Y-14545764D01*
X8031093Y-14817193D02*
X8045378Y-14831479D01*
X8031093Y-14845764D01*
X8016807Y-14831479D01*
X8031093Y-14817193D01*
X8031093Y-14845764D01*
X8216807Y-14674336D02*
X8188236Y-14660050D01*
X8173950Y-14645764D01*
X8159664Y-14617193D01*
X8159664Y-14602907D01*
X8173950Y-14574336D01*
X8188236Y-14560050D01*
X8216807Y-14545764D01*
X8273950Y-14545764D01*
X8302521Y-14560050D01*
X8316807Y-14574336D01*
X8331093Y-14602907D01*
X8331093Y-14617193D01*
X8316807Y-14645764D01*
X8302521Y-14660050D01*
X8273950Y-14674336D01*
X8216807Y-14674336D01*
X8188236Y-14688621D01*
X8173950Y-14702907D01*
X8159664Y-14731479D01*
X8159664Y-14788621D01*
X8173950Y-14817193D01*
X8188236Y-14831479D01*
X8216807Y-14845764D01*
X8273950Y-14845764D01*
X8302521Y-14831479D01*
X8316807Y-14817193D01*
X8331093Y-14788621D01*
X8331093Y-14731479D01*
X8316807Y-14702907D01*
X8302521Y-14688621D01*
X8273950Y-14674336D01*
X8616807Y-14845764D02*
X8445379Y-14845764D01*
X8531093Y-14845764D02*
X8531093Y-14545764D01*
X8502521Y-14588621D01*
X8473950Y-14617193D01*
X8445379Y-14631479D01*
X8745379Y-14845764D02*
X8745379Y-14645764D01*
X8745379Y-14674336D02*
X8759664Y-14660050D01*
X8788236Y-14645764D01*
X8831093Y-14645764D01*
X8859664Y-14660050D01*
X8873950Y-14688621D01*
X8873950Y-14845764D01*
X8873950Y-14688621D02*
X8888236Y-14660050D01*
X8916807Y-14645764D01*
X8959664Y-14645764D01*
X8988236Y-14660050D01*
X9002521Y-14688621D01*
X9002521Y-14845764D01*
X9145379Y-14845764D02*
X9145379Y-14645764D01*
X9145379Y-14674336D02*
X9159664Y-14660050D01*
X9188236Y-14645764D01*
X9231093Y-14645764D01*
X9259664Y-14660050D01*
X9273950Y-14688621D01*
X9273950Y-14845764D01*
X9273950Y-14688621D02*
X9288236Y-14660050D01*
X9316807Y-14645764D01*
X9359664Y-14645764D01*
X9388236Y-14660050D01*
X9402521Y-14688621D01*
X9402521Y-14845764D01*
X9988236Y-14531479D02*
X9731093Y-14917193D01*
X10373950Y-14545764D02*
X10402521Y-14545764D01*
X10431093Y-14560050D01*
X10445378Y-14574336D01*
X10459664Y-14602907D01*
X10473950Y-14660050D01*
X10473950Y-14731479D01*
X10459664Y-14788621D01*
X10445378Y-14817193D01*
X10431093Y-14831479D01*
X10402521Y-14845764D01*
X10373950Y-14845764D01*
X10345378Y-14831479D01*
X10331093Y-14817193D01*
X10316807Y-14788621D01*
X10302521Y-14731479D01*
X10302521Y-14660050D01*
X10316807Y-14602907D01*
X10331093Y-14574336D01*
X10345378Y-14560050D01*
X10373950Y-14545764D01*
X10602521Y-14817193D02*
X10616807Y-14831479D01*
X10602521Y-14845764D01*
X10588236Y-14831479D01*
X10602521Y-14817193D01*
X10602521Y-14845764D01*
X10802521Y-14545764D02*
X10831093Y-14545764D01*
X10859664Y-14560050D01*
X10873950Y-14574336D01*
X10888236Y-14602907D01*
X10902521Y-14660050D01*
X10902521Y-14731479D01*
X10888236Y-14788621D01*
X10873950Y-14817193D01*
X10859664Y-14831479D01*
X10831093Y-14845764D01*
X10802521Y-14845764D01*
X10773950Y-14831479D01*
X10759664Y-14817193D01*
X10745378Y-14788621D01*
X10731093Y-14731479D01*
X10731093Y-14660050D01*
X10745378Y-14602907D01*
X10759664Y-14574336D01*
X10773950Y-14560050D01*
X10802521Y-14545764D01*
X11002521Y-14545764D02*
X11188236Y-14545764D01*
X11088236Y-14660050D01*
X11131093Y-14660050D01*
X11159664Y-14674336D01*
X11173950Y-14688621D01*
X11188236Y-14717193D01*
X11188236Y-14788621D01*
X11173950Y-14817193D01*
X11159664Y-14831479D01*
X11131093Y-14845764D01*
X11045378Y-14845764D01*
X11016807Y-14831479D01*
X11002521Y-14817193D01*
X11302521Y-14574336D02*
X11316807Y-14560050D01*
X11345378Y-14545764D01*
X11416807Y-14545764D01*
X11445378Y-14560050D01*
X11459664Y-14574336D01*
X11473950Y-14602907D01*
X11473950Y-14631479D01*
X11459664Y-14674336D01*
X11288235Y-14845764D01*
X11473950Y-14845764D01*
X11588236Y-14545764D02*
X11588236Y-14602907D01*
X11702521Y-14545764D02*
X11702521Y-14602907D01*
X12145378Y-14960050D02*
X12131093Y-14945764D01*
X12102521Y-14902907D01*
X12088235Y-14874336D01*
X12073950Y-14831479D01*
X12059664Y-14760050D01*
X12059664Y-14702907D01*
X12073950Y-14631479D01*
X12088235Y-14588621D01*
X12102521Y-14560050D01*
X12131093Y-14517193D01*
X12145378Y-14502907D01*
X12416807Y-14845764D02*
X12245378Y-14845764D01*
X12331093Y-14845764D02*
X12331093Y-14545764D01*
X12302521Y-14588621D01*
X12273950Y-14617193D01*
X12245378Y-14631479D01*
X12516807Y-14545764D02*
X12702521Y-14545764D01*
X12602521Y-14660050D01*
X12645378Y-14660050D01*
X12673950Y-14674336D01*
X12688235Y-14688621D01*
X12702521Y-14717193D01*
X12702521Y-14788621D01*
X12688235Y-14817193D01*
X12673950Y-14831479D01*
X12645378Y-14845764D01*
X12559664Y-14845764D01*
X12531093Y-14831479D01*
X12516807Y-14817193D01*
X12959664Y-14545764D02*
X12902521Y-14545764D01*
X12873950Y-14560050D01*
X12859664Y-14574336D01*
X12831093Y-14617193D01*
X12816807Y-14674336D01*
X12816807Y-14788621D01*
X12831093Y-14817193D01*
X12845378Y-14831479D01*
X12873950Y-14845764D01*
X12931093Y-14845764D01*
X12959664Y-14831479D01*
X12973950Y-14817193D01*
X12988235Y-14788621D01*
X12988235Y-14717193D01*
X12973950Y-14688621D01*
X12959664Y-14674336D01*
X12931093Y-14660050D01*
X12873950Y-14660050D01*
X12845378Y-14674336D01*
X12831093Y-14688621D01*
X12816807Y-14717193D01*
X13345378Y-14845764D02*
X13345378Y-14545764D01*
X13473950Y-14845764D02*
X13473950Y-14688621D01*
X13459664Y-14660050D01*
X13431093Y-14645764D01*
X13388235Y-14645764D01*
X13359664Y-14660050D01*
X13345378Y-14674336D01*
X13659664Y-14845764D02*
X13631093Y-14831479D01*
X13616807Y-14817193D01*
X13602521Y-14788621D01*
X13602521Y-14702907D01*
X13616807Y-14674336D01*
X13631093Y-14660050D01*
X13659664Y-14645764D01*
X13702521Y-14645764D01*
X13731093Y-14660050D01*
X13745378Y-14674336D01*
X13759664Y-14702907D01*
X13759664Y-14788621D01*
X13745378Y-14817193D01*
X13731093Y-14831479D01*
X13702521Y-14845764D01*
X13659664Y-14845764D01*
X13931093Y-14845764D02*
X13902521Y-14831479D01*
X13888236Y-14802907D01*
X13888236Y-14545764D01*
X14159664Y-14831479D02*
X14131093Y-14845764D01*
X14073950Y-14845764D01*
X14045378Y-14831479D01*
X14031093Y-14802907D01*
X14031093Y-14688621D01*
X14045378Y-14660050D01*
X14073950Y-14645764D01*
X14131093Y-14645764D01*
X14159664Y-14660050D01*
X14173950Y-14688621D01*
X14173950Y-14717193D01*
X14031093Y-14745764D01*
X14288236Y-14831479D02*
X14316807Y-14845764D01*
X14373950Y-14845764D01*
X14402521Y-14831479D01*
X14416807Y-14802907D01*
X14416807Y-14788621D01*
X14402521Y-14760050D01*
X14373950Y-14745764D01*
X14331093Y-14745764D01*
X14302521Y-14731479D01*
X14288236Y-14702907D01*
X14288236Y-14688621D01*
X14302521Y-14660050D01*
X14331093Y-14645764D01*
X14373950Y-14645764D01*
X14402521Y-14660050D01*
X14516807Y-14960050D02*
X14531093Y-14945764D01*
X14559664Y-14902907D01*
X14573950Y-14874336D01*
X14588236Y-14831479D01*
X14602521Y-14760050D01*
X14602521Y-14702907D01*
X14588236Y-14631479D01*
X14573950Y-14588621D01*
X14559664Y-14560050D01*
X14531093Y-14517193D01*
X14516807Y-14502907D01*
X7423150Y-15055250D02*
X7423150Y-15156850D01*
X7372350Y-15106050D02*
X7473950Y-15106050D01*
X7902521Y-15241764D02*
X7731093Y-15241764D01*
X7816807Y-15241764D02*
X7816807Y-14941764D01*
X7788236Y-14984621D01*
X7759664Y-15013193D01*
X7731093Y-15027479D01*
X8031093Y-15213193D02*
X8045378Y-15227479D01*
X8031093Y-15241764D01*
X8016807Y-15227479D01*
X8031093Y-15213193D01*
X8031093Y-15241764D01*
X8231093Y-14941764D02*
X8259664Y-14941764D01*
X8288236Y-14956050D01*
X8302521Y-14970336D01*
X8316807Y-14998907D01*
X8331093Y-15056050D01*
X8331093Y-15127479D01*
X8316807Y-15184621D01*
X8302521Y-15213193D01*
X8288236Y-15227479D01*
X8259664Y-15241764D01*
X8231093Y-15241764D01*
X8202521Y-15227479D01*
X8188236Y-15213193D01*
X8173950Y-15184621D01*
X8159664Y-15127479D01*
X8159664Y-15056050D01*
X8173950Y-14998907D01*
X8188236Y-14970336D01*
X8202521Y-14956050D01*
X8231093Y-14941764D01*
X8445379Y-14970336D02*
X8459664Y-14956050D01*
X8488236Y-14941764D01*
X8559664Y-14941764D01*
X8588236Y-14956050D01*
X8602521Y-14970336D01*
X8616807Y-14998907D01*
X8616807Y-15027479D01*
X8602521Y-15070336D01*
X8431093Y-15241764D01*
X8616807Y-15241764D01*
X8745379Y-15241764D02*
X8745379Y-15041764D01*
X8745379Y-15070336D02*
X8759664Y-15056050D01*
X8788236Y-15041764D01*
X8831093Y-15041764D01*
X8859664Y-15056050D01*
X8873950Y-15084621D01*
X8873950Y-15241764D01*
X8873950Y-15084621D02*
X8888236Y-15056050D01*
X8916807Y-15041764D01*
X8959664Y-15041764D01*
X8988236Y-15056050D01*
X9002521Y-15084621D01*
X9002521Y-15241764D01*
X9145379Y-15241764D02*
X9145379Y-15041764D01*
X9145379Y-15070336D02*
X9159664Y-15056050D01*
X9188236Y-15041764D01*
X9231093Y-15041764D01*
X9259664Y-15056050D01*
X9273950Y-15084621D01*
X9273950Y-15241764D01*
X9273950Y-15084621D02*
X9288236Y-15056050D01*
X9316807Y-15041764D01*
X9359664Y-15041764D01*
X9388236Y-15056050D01*
X9402521Y-15084621D01*
X9402521Y-15241764D01*
X9988236Y-14927479D02*
X9731093Y-15313193D01*
X10373950Y-14941764D02*
X10402521Y-14941764D01*
X10431093Y-14956050D01*
X10445378Y-14970336D01*
X10459664Y-14998907D01*
X10473950Y-15056050D01*
X10473950Y-15127479D01*
X10459664Y-15184621D01*
X10445378Y-15213193D01*
X10431093Y-15227479D01*
X10402521Y-15241764D01*
X10373950Y-15241764D01*
X10345378Y-15227479D01*
X10331093Y-15213193D01*
X10316807Y-15184621D01*
X10302521Y-15127479D01*
X10302521Y-15056050D01*
X10316807Y-14998907D01*
X10331093Y-14970336D01*
X10345378Y-14956050D01*
X10373950Y-14941764D01*
X10602521Y-15213193D02*
X10616807Y-15227479D01*
X10602521Y-15241764D01*
X10588236Y-15227479D01*
X10602521Y-15213193D01*
X10602521Y-15241764D01*
X10802521Y-14941764D02*
X10831093Y-14941764D01*
X10859664Y-14956050D01*
X10873950Y-14970336D01*
X10888236Y-14998907D01*
X10902521Y-15056050D01*
X10902521Y-15127479D01*
X10888236Y-15184621D01*
X10873950Y-15213193D01*
X10859664Y-15227479D01*
X10831093Y-15241764D01*
X10802521Y-15241764D01*
X10773950Y-15227479D01*
X10759664Y-15213193D01*
X10745378Y-15184621D01*
X10731093Y-15127479D01*
X10731093Y-15056050D01*
X10745378Y-14998907D01*
X10759664Y-14970336D01*
X10773950Y-14956050D01*
X10802521Y-14941764D01*
X11159664Y-15041764D02*
X11159664Y-15241764D01*
X11088236Y-14927479D02*
X11016807Y-15141764D01*
X11202521Y-15141764D01*
X11373950Y-14941764D02*
X11402521Y-14941764D01*
X11431093Y-14956050D01*
X11445378Y-14970336D01*
X11459664Y-14998907D01*
X11473950Y-15056050D01*
X11473950Y-15127479D01*
X11459664Y-15184621D01*
X11445378Y-15213193D01*
X11431093Y-15227479D01*
X11402521Y-15241764D01*
X11373950Y-15241764D01*
X11345378Y-15227479D01*
X11331093Y-15213193D01*
X11316807Y-15184621D01*
X11302521Y-15127479D01*
X11302521Y-15056050D01*
X11316807Y-14998907D01*
X11331093Y-14970336D01*
X11345378Y-14956050D01*
X11373950Y-14941764D01*
X11588236Y-14941764D02*
X11588236Y-14998907D01*
X11702521Y-14941764D02*
X11702521Y-14998907D01*
X12145378Y-15356050D02*
X12131093Y-15341764D01*
X12102521Y-15298907D01*
X12088235Y-15270336D01*
X12073950Y-15227479D01*
X12059664Y-15156050D01*
X12059664Y-15098907D01*
X12073950Y-15027479D01*
X12088235Y-14984621D01*
X12102521Y-14956050D01*
X12131093Y-14913193D01*
X12145378Y-14898907D01*
X12388235Y-15041764D02*
X12388235Y-15241764D01*
X12316807Y-14927479D02*
X12245378Y-15141764D01*
X12431093Y-15141764D01*
X12773950Y-15241764D02*
X12773950Y-14941764D01*
X12902521Y-15241764D02*
X12902521Y-15084621D01*
X12888235Y-15056050D01*
X12859664Y-15041764D01*
X12816807Y-15041764D01*
X12788235Y-15056050D01*
X12773950Y-15070336D01*
X13088235Y-15241764D02*
X13059664Y-15227479D01*
X13045378Y-15213193D01*
X13031093Y-15184621D01*
X13031093Y-15098907D01*
X13045378Y-15070336D01*
X13059664Y-15056050D01*
X13088235Y-15041764D01*
X13131093Y-15041764D01*
X13159664Y-15056050D01*
X13173950Y-15070336D01*
X13188235Y-15098907D01*
X13188235Y-15184621D01*
X13173950Y-15213193D01*
X13159664Y-15227479D01*
X13131093Y-15241764D01*
X13088235Y-15241764D01*
X13359664Y-15241764D02*
X13331093Y-15227479D01*
X13316807Y-15198907D01*
X13316807Y-14941764D01*
X13588236Y-15227479D02*
X13559664Y-15241764D01*
X13502521Y-15241764D01*
X13473950Y-15227479D01*
X13459664Y-15198907D01*
X13459664Y-15084621D01*
X13473950Y-15056050D01*
X13502521Y-15041764D01*
X13559664Y-15041764D01*
X13588236Y-15056050D01*
X13602521Y-15084621D01*
X13602521Y-15113193D01*
X13459664Y-15141764D01*
X13716807Y-15227479D02*
X13745378Y-15241764D01*
X13802521Y-15241764D01*
X13831093Y-15227479D01*
X13845378Y-15198907D01*
X13845378Y-15184621D01*
X13831093Y-15156050D01*
X13802521Y-15141764D01*
X13759664Y-15141764D01*
X13731093Y-15127479D01*
X13716807Y-15098907D01*
X13716807Y-15084621D01*
X13731093Y-15056050D01*
X13759664Y-15041764D01*
X13802521Y-15041764D01*
X13831093Y-15056050D01*
X13945378Y-15356050D02*
X13959664Y-15341764D01*
X13988236Y-15298907D01*
X14002521Y-15270336D01*
X14016807Y-15227479D01*
X14031093Y-15156050D01*
X14031093Y-15098907D01*
X14016807Y-15027479D01*
X14002521Y-14984621D01*
X13988236Y-14956050D01*
X13959664Y-14913193D01*
X13945378Y-14898907D01*
X7457211Y-15542462D02*
X7457211Y-15461639D01*
X7376388Y-15461639D01*
X7376388Y-15542462D01*
X7457211Y-15542462D01*
X7902521Y-15637764D02*
X7731093Y-15637764D01*
X7816807Y-15637764D02*
X7816807Y-15337764D01*
X7788236Y-15380621D01*
X7759664Y-15409193D01*
X7731093Y-15423479D01*
X8031093Y-15609193D02*
X8045378Y-15623479D01*
X8031093Y-15637764D01*
X8016807Y-15623479D01*
X8031093Y-15609193D01*
X8031093Y-15637764D01*
X8331093Y-15637764D02*
X8159664Y-15637764D01*
X8245378Y-15637764D02*
X8245378Y-15337764D01*
X8216807Y-15380621D01*
X8188236Y-15409193D01*
X8159664Y-15423479D01*
X8588236Y-15437764D02*
X8588236Y-15637764D01*
X8516807Y-15323479D02*
X8445379Y-15537764D01*
X8631093Y-15537764D01*
X8745379Y-15637764D02*
X8745379Y-15437764D01*
X8745379Y-15466336D02*
X8759664Y-15452050D01*
X8788236Y-15437764D01*
X8831093Y-15437764D01*
X8859664Y-15452050D01*
X8873950Y-15480621D01*
X8873950Y-15637764D01*
X8873950Y-15480621D02*
X8888236Y-15452050D01*
X8916807Y-15437764D01*
X8959664Y-15437764D01*
X8988236Y-15452050D01*
X9002521Y-15480621D01*
X9002521Y-15637764D01*
X9145379Y-15637764D02*
X9145379Y-15437764D01*
X9145379Y-15466336D02*
X9159664Y-15452050D01*
X9188236Y-15437764D01*
X9231093Y-15437764D01*
X9259664Y-15452050D01*
X9273950Y-15480621D01*
X9273950Y-15637764D01*
X9273950Y-15480621D02*
X9288236Y-15452050D01*
X9316807Y-15437764D01*
X9359664Y-15437764D01*
X9388236Y-15452050D01*
X9402521Y-15480621D01*
X9402521Y-15637764D01*
X9988236Y-15323479D02*
X9731093Y-15709193D01*
X10373950Y-15337764D02*
X10402521Y-15337764D01*
X10431093Y-15352050D01*
X10445378Y-15366336D01*
X10459664Y-15394907D01*
X10473950Y-15452050D01*
X10473950Y-15523479D01*
X10459664Y-15580621D01*
X10445378Y-15609193D01*
X10431093Y-15623479D01*
X10402521Y-15637764D01*
X10373950Y-15637764D01*
X10345378Y-15623479D01*
X10331093Y-15609193D01*
X10316807Y-15580621D01*
X10302521Y-15523479D01*
X10302521Y-15452050D01*
X10316807Y-15394907D01*
X10331093Y-15366336D01*
X10345378Y-15352050D01*
X10373950Y-15337764D01*
X10602521Y-15609193D02*
X10616807Y-15623479D01*
X10602521Y-15637764D01*
X10588236Y-15623479D01*
X10602521Y-15609193D01*
X10602521Y-15637764D01*
X10802521Y-15337764D02*
X10831093Y-15337764D01*
X10859664Y-15352050D01*
X10873950Y-15366336D01*
X10888236Y-15394907D01*
X10902521Y-15452050D01*
X10902521Y-15523479D01*
X10888236Y-15580621D01*
X10873950Y-15609193D01*
X10859664Y-15623479D01*
X10831093Y-15637764D01*
X10802521Y-15637764D01*
X10773950Y-15623479D01*
X10759664Y-15609193D01*
X10745378Y-15580621D01*
X10731093Y-15523479D01*
X10731093Y-15452050D01*
X10745378Y-15394907D01*
X10759664Y-15366336D01*
X10773950Y-15352050D01*
X10802521Y-15337764D01*
X11159664Y-15437764D02*
X11159664Y-15637764D01*
X11088236Y-15323479D02*
X11016807Y-15537764D01*
X11202521Y-15537764D01*
X11459664Y-15337764D02*
X11316807Y-15337764D01*
X11302521Y-15480621D01*
X11316807Y-15466336D01*
X11345378Y-15452050D01*
X11416807Y-15452050D01*
X11445378Y-15466336D01*
X11459664Y-15480621D01*
X11473950Y-15509193D01*
X11473950Y-15580621D01*
X11459664Y-15609193D01*
X11445378Y-15623479D01*
X11416807Y-15637764D01*
X11345378Y-15637764D01*
X11316807Y-15623479D01*
X11302521Y-15609193D01*
X11588236Y-15337764D02*
X11588236Y-15394907D01*
X11702521Y-15337764D02*
X11702521Y-15394907D01*
X12145378Y-15752050D02*
X12131093Y-15737764D01*
X12102521Y-15694907D01*
X12088235Y-15666336D01*
X12073950Y-15623479D01*
X12059664Y-15552050D01*
X12059664Y-15494907D01*
X12073950Y-15423479D01*
X12088235Y-15380621D01*
X12102521Y-15352050D01*
X12131093Y-15309193D01*
X12145378Y-15294907D01*
X12416807Y-15637764D02*
X12245378Y-15637764D01*
X12331093Y-15637764D02*
X12331093Y-15337764D01*
X12302521Y-15380621D01*
X12273950Y-15409193D01*
X12245378Y-15423479D01*
X12588235Y-15466336D02*
X12559664Y-15452050D01*
X12545378Y-15437764D01*
X12531093Y-15409193D01*
X12531093Y-15394907D01*
X12545378Y-15366336D01*
X12559664Y-15352050D01*
X12588235Y-15337764D01*
X12645378Y-15337764D01*
X12673950Y-15352050D01*
X12688235Y-15366336D01*
X12702521Y-15394907D01*
X12702521Y-15409193D01*
X12688235Y-15437764D01*
X12673950Y-15452050D01*
X12645378Y-15466336D01*
X12588235Y-15466336D01*
X12559664Y-15480621D01*
X12545378Y-15494907D01*
X12531093Y-15523479D01*
X12531093Y-15580621D01*
X12545378Y-15609193D01*
X12559664Y-15623479D01*
X12588235Y-15637764D01*
X12645378Y-15637764D01*
X12673950Y-15623479D01*
X12688235Y-15609193D01*
X12702521Y-15580621D01*
X12702521Y-15523479D01*
X12688235Y-15494907D01*
X12673950Y-15480621D01*
X12645378Y-15466336D01*
X13059664Y-15637764D02*
X13059664Y-15337764D01*
X13188235Y-15637764D02*
X13188235Y-15480621D01*
X13173950Y-15452050D01*
X13145378Y-15437764D01*
X13102521Y-15437764D01*
X13073950Y-15452050D01*
X13059664Y-15466336D01*
X13373950Y-15637764D02*
X13345378Y-15623479D01*
X13331093Y-15609193D01*
X13316807Y-15580621D01*
X13316807Y-15494907D01*
X13331093Y-15466336D01*
X13345378Y-15452050D01*
X13373950Y-15437764D01*
X13416807Y-15437764D01*
X13445378Y-15452050D01*
X13459664Y-15466336D01*
X13473950Y-15494907D01*
X13473950Y-15580621D01*
X13459664Y-15609193D01*
X13445378Y-15623479D01*
X13416807Y-15637764D01*
X13373950Y-15637764D01*
X13645378Y-15637764D02*
X13616807Y-15623479D01*
X13602521Y-15594907D01*
X13602521Y-15337764D01*
X13873950Y-15623479D02*
X13845378Y-15637764D01*
X13788236Y-15637764D01*
X13759664Y-15623479D01*
X13745378Y-15594907D01*
X13745378Y-15480621D01*
X13759664Y-15452050D01*
X13788236Y-15437764D01*
X13845378Y-15437764D01*
X13873950Y-15452050D01*
X13888236Y-15480621D01*
X13888236Y-15509193D01*
X13745378Y-15537764D01*
X14002521Y-15623479D02*
X14031093Y-15637764D01*
X14088236Y-15637764D01*
X14116807Y-15623479D01*
X14131093Y-15594907D01*
X14131093Y-15580621D01*
X14116807Y-15552050D01*
X14088236Y-15537764D01*
X14045378Y-15537764D01*
X14016807Y-15523479D01*
X14002521Y-15494907D01*
X14002521Y-15480621D01*
X14016807Y-15452050D01*
X14045378Y-15437764D01*
X14088236Y-15437764D01*
X14116807Y-15452050D01*
X14231093Y-15752050D02*
X14245378Y-15737764D01*
X14273950Y-15694907D01*
X14288236Y-15666336D01*
X14302521Y-15623479D01*
X14316807Y-15552050D01*
X14316807Y-15494907D01*
X14302521Y-15423479D01*
X14288236Y-15380621D01*
X14273950Y-15352050D01*
X14245378Y-15309193D01*
X14231093Y-15294907D01*
M02*
