M48
;DRILL file {KiCad 4.0.5+dfsg1-4+deb9u1} date Mon Sep 26 08:32:42 2022
;FORMAT={-:-/ absolute / metric / decimal}
FMAT,2
METRIC,TZ
T1C0.599
T2C0.813
T3C1.016
T4C1.143
%
G90
G05
M71
T1
X87.63Y-123.19
X116.84Y-101.6
X161.29Y-106.68
X161.29Y-124.46
X163.83Y-104.14
X163.83Y-116.84
X166.37Y-101.6
X166.37Y-114.3
X168.91Y-99.06
X168.91Y-111.76
X171.45Y-96.52
X171.45Y-109.22
X187.96Y-68.58
X190.5Y-71.12
X190.5Y-104.14
X193.04Y-73.66
X193.04Y-106.68
X195.58Y-76.2
X195.58Y-109.22
X198.12Y-78.74
X198.12Y-111.76
X200.66Y-81.28
X200.66Y-114.3
X203.2Y-83.82
X203.2Y-116.84
X205.74Y-86.36
X205.74Y-119.38
X208.28Y-88.9
X208.28Y-121.92
T2
X93.98Y-110.49
X93.98Y-113.03
X93.98Y-115.57
X93.98Y-118.11
X93.98Y-120.65
X93.98Y-123.19
X93.98Y-125.73
X95.25Y-105.41
X96.52Y-64.77
X99.06Y-64.77
X100.33Y-105.41
X101.6Y-64.77
X101.6Y-110.49
X101.6Y-113.03
X101.6Y-115.57
X101.6Y-118.11
X101.6Y-120.65
X101.6Y-123.19
X101.6Y-125.73
X107.95Y-95.25
X110.49Y-92.71
X110.49Y-97.79
X120.65Y-80.01
X120.65Y-93.98
X121.92Y-64.77
X124.46Y-64.77
X125.73Y-80.01
X125.73Y-93.98
X125.73Y-106.68
X130.81Y-93.98
X130.81Y-97.79
X130.81Y-106.68
X132.08Y-125.73
X133.35Y-68.58
X133.35Y-73.66
X134.62Y-123.19
X134.62Y-125.73
X135.89Y-93.98
X135.89Y-97.79
X140.97Y-66.04
X140.97Y-68.58
X140.97Y-71.12
X140.97Y-73.66
X140.97Y-76.2
X140.97Y-78.74
X140.97Y-81.28
X140.97Y-83.82
X140.97Y-86.36
X140.97Y-88.9
X140.97Y-91.44
X140.97Y-93.98
X140.97Y-96.52
X140.97Y-99.06
X140.97Y-101.6
X140.97Y-104.14
X140.97Y-106.68
X140.97Y-109.22
X140.97Y-111.76
X140.97Y-114.3
X146.05Y-120.65
X151.13Y-120.65
X156.21Y-66.04
X156.21Y-68.58
X156.21Y-71.12
X156.21Y-73.66
X156.21Y-76.2
X156.21Y-78.74
X156.21Y-81.28
X156.21Y-83.82
X156.21Y-86.36
X156.21Y-88.9
X156.21Y-91.44
X156.21Y-93.98
X156.21Y-96.52
X156.21Y-99.06
X156.21Y-101.6
X156.21Y-104.14
X156.21Y-106.68
X156.21Y-109.22
X156.21Y-111.76
X156.21Y-114.3
X162.56Y-64.77
X165.1Y-64.77
X167.64Y-64.77
X173.99Y-69.85
X173.99Y-72.39
X173.99Y-74.93
X173.99Y-77.47
X173.99Y-80.01
X173.99Y-82.55
X173.99Y-85.09
X173.99Y-87.63
X173.99Y-90.17
X173.99Y-92.71
X173.99Y-102.87
X173.99Y-105.41
X173.99Y-107.95
X173.99Y-110.49
X173.99Y-113.03
X173.99Y-115.57
X173.99Y-118.11
X173.99Y-120.65
X173.99Y-123.19
X173.99Y-125.73
X175.26Y-64.77
X175.26Y-97.79
X180.34Y-64.77
X180.34Y-97.79
X181.61Y-69.85
X181.61Y-72.39
X181.61Y-74.93
X181.61Y-77.47
X181.61Y-80.01
X181.61Y-82.55
X181.61Y-85.09
X181.61Y-87.63
X181.61Y-90.17
X181.61Y-92.71
X181.61Y-102.87
X181.61Y-105.41
X181.61Y-107.95
X181.61Y-110.49
X181.61Y-113.03
X181.61Y-115.57
X181.61Y-118.11
X181.61Y-120.65
X181.61Y-123.19
X181.61Y-125.73
X190.5Y-64.77
X193.04Y-64.77
X195.58Y-64.77
X198.12Y-64.77
X200.66Y-64.77
X203.2Y-64.77
X205.74Y-64.77
X208.28Y-64.77
T3
X87.503Y-69.85
X92.583Y-69.85
X102.743Y-69.85
X107.823Y-69.85
T4
X86.36Y-92.71
X86.36Y-97.79
X101.6Y-92.71
X101.6Y-97.79
X110.49Y-101.6
X110.49Y-116.84
X116.84Y-68.58
X116.84Y-83.82
X120.65Y-88.9
X120.65Y-101.6
X121.92Y-83.82
X121.92Y-114.3
X134.62Y-83.82
X134.62Y-114.3
X135.89Y-88.9
X135.89Y-101.6
X140.97Y-125.73
X156.21Y-125.73
T0
M30
