G04 #@! TF.FileFunction,Copper,L2,Bot,Signal*
%FSLAX46Y46*%
G04 Gerber Fmt 4.6, Leading zero omitted, Abs format (unit mm)*
G04 Created by KiCad (PCBNEW 4.0.5+dfsg1-4+deb9u1) date Mon Sep 26 08:47:56 2022*
%MOMM*%
%LPD*%
G01*
G04 APERTURE LIST*
%ADD10C,0.100000*%
%ADD11C,0.304800*%
%ADD12C,0.381000*%
%ADD13R,1.778000X1.778000*%
%ADD14C,1.778000*%
%ADD15R,1.397000X1.397000*%
%ADD16C,1.397000*%
%ADD17C,2.999740*%
%ADD18C,1.099820*%
%ADD19C,1.000760*%
%ADD20C,1.998980*%
%ADD21C,0.350520*%
G04 APERTURE END LIST*
D10*
D11*
X189230000Y-141695714D02*
X189302571Y-141792476D01*
X189520285Y-141889238D01*
X189665428Y-141889238D01*
X189883143Y-141792476D01*
X190028285Y-141598952D01*
X190100857Y-141405429D01*
X190173428Y-141018381D01*
X190173428Y-140728095D01*
X190100857Y-140341048D01*
X190028285Y-140147524D01*
X189883143Y-139954000D01*
X189665428Y-139857238D01*
X189520285Y-139857238D01*
X189302571Y-139954000D01*
X189230000Y-140050762D01*
X188794571Y-139857238D02*
X187923714Y-139857238D01*
X188359143Y-141889238D02*
X188359143Y-139857238D01*
X187633428Y-139857238D02*
X186762571Y-139857238D01*
X187198000Y-141889238D02*
X187198000Y-139857238D01*
X185165999Y-139760476D02*
X186472285Y-142373048D01*
X184730571Y-141792476D02*
X184512857Y-141889238D01*
X184150000Y-141889238D01*
X184004857Y-141792476D01*
X183932286Y-141695714D01*
X183859714Y-141502190D01*
X183859714Y-141308667D01*
X183932286Y-141115143D01*
X184004857Y-141018381D01*
X184150000Y-140921619D01*
X184440286Y-140824857D01*
X184585428Y-140728095D01*
X184658000Y-140631333D01*
X184730571Y-140437810D01*
X184730571Y-140244286D01*
X184658000Y-140050762D01*
X184585428Y-139954000D01*
X184440286Y-139857238D01*
X184077428Y-139857238D01*
X183859714Y-139954000D01*
X183351714Y-139857238D02*
X182988857Y-141889238D01*
X182698571Y-140437810D01*
X182408285Y-141889238D01*
X182045428Y-139857238D01*
X181537428Y-140050762D02*
X181464857Y-139954000D01*
X181319714Y-139857238D01*
X180956857Y-139857238D01*
X180811714Y-139954000D01*
X180739143Y-140050762D01*
X180666571Y-140244286D01*
X180666571Y-140437810D01*
X180739143Y-140728095D01*
X181610000Y-141889238D01*
X180666571Y-141889238D01*
X171268572Y-141889238D02*
X171268572Y-139857238D01*
X170905715Y-139857238D01*
X170688000Y-139954000D01*
X170542858Y-140147524D01*
X170470286Y-140341048D01*
X170397715Y-140728095D01*
X170397715Y-141018381D01*
X170470286Y-141405429D01*
X170542858Y-141598952D01*
X170688000Y-141792476D01*
X170905715Y-141889238D01*
X171268572Y-141889238D01*
X169744572Y-141889238D02*
X169744572Y-139857238D01*
X168873715Y-141889238D01*
X168873715Y-139857238D01*
X168148001Y-141695714D02*
X168075429Y-141792476D01*
X168148001Y-141889238D01*
X168220572Y-141792476D01*
X168148001Y-141695714D01*
X168148001Y-141889238D01*
X168148001Y-140631333D02*
X168075429Y-140728095D01*
X168148001Y-140824857D01*
X168220572Y-140728095D01*
X168148001Y-140631333D01*
X168148001Y-140824857D01*
X165390287Y-141695714D02*
X165462858Y-141792476D01*
X165680572Y-141889238D01*
X165825715Y-141889238D01*
X166043430Y-141792476D01*
X166188572Y-141598952D01*
X166261144Y-141405429D01*
X166333715Y-141018381D01*
X166333715Y-140728095D01*
X166261144Y-140341048D01*
X166188572Y-140147524D01*
X166043430Y-139954000D01*
X165825715Y-139857238D01*
X165680572Y-139857238D01*
X165462858Y-139954000D01*
X165390287Y-140050762D01*
X164954858Y-139857238D02*
X164084001Y-139857238D01*
X164519430Y-141889238D02*
X164519430Y-139857238D01*
X163793715Y-139857238D02*
X162922858Y-139857238D01*
X163358287Y-141889238D02*
X163358287Y-139857238D01*
X161326286Y-139760476D02*
X162632572Y-142373048D01*
X160963430Y-139857238D02*
X160020001Y-139857238D01*
X160528001Y-140631333D01*
X160310287Y-140631333D01*
X160165144Y-140728095D01*
X160092573Y-140824857D01*
X160020001Y-141018381D01*
X160020001Y-141502190D01*
X160092573Y-141695714D01*
X160165144Y-141792476D01*
X160310287Y-141889238D01*
X160745715Y-141889238D01*
X160890858Y-141792476D01*
X160963430Y-141695714D01*
X159439429Y-140050762D02*
X159366858Y-139954000D01*
X159221715Y-139857238D01*
X158858858Y-139857238D01*
X158713715Y-139954000D01*
X158641144Y-140050762D01*
X158568572Y-140244286D01*
X158568572Y-140437810D01*
X158641144Y-140728095D01*
X159512001Y-141889238D01*
X158568572Y-141889238D01*
X157915429Y-141115143D02*
X156754286Y-141115143D01*
X156173715Y-139857238D02*
X155230286Y-139857238D01*
X155738286Y-140631333D01*
X155520572Y-140631333D01*
X155375429Y-140728095D01*
X155302858Y-140824857D01*
X155230286Y-141018381D01*
X155230286Y-141502190D01*
X155302858Y-141695714D01*
X155375429Y-141792476D01*
X155520572Y-141889238D01*
X155956000Y-141889238D01*
X156101143Y-141792476D01*
X156173715Y-141695714D01*
X154722286Y-139857238D02*
X153778857Y-139857238D01*
X154286857Y-140631333D01*
X154069143Y-140631333D01*
X153924000Y-140728095D01*
X153851429Y-140824857D01*
X153778857Y-141018381D01*
X153778857Y-141502190D01*
X153851429Y-141695714D01*
X153924000Y-141792476D01*
X154069143Y-141889238D01*
X154504571Y-141889238D01*
X154649714Y-141792476D01*
X154722286Y-141695714D01*
X119398140Y-141889238D02*
X119398140Y-139857238D01*
X118744997Y-141889238D02*
X118744997Y-140824857D01*
X118817568Y-140631333D01*
X118962711Y-140534571D01*
X119180426Y-140534571D01*
X119325568Y-140631333D01*
X119398140Y-140728095D01*
X118236997Y-140534571D02*
X117656426Y-140534571D01*
X118019283Y-139857238D02*
X118019283Y-141598952D01*
X117946711Y-141792476D01*
X117801569Y-141889238D01*
X117656426Y-141889238D01*
X117366140Y-140534571D02*
X116785569Y-140534571D01*
X117148426Y-139857238D02*
X117148426Y-141598952D01*
X117075854Y-141792476D01*
X116930712Y-141889238D01*
X116785569Y-141889238D01*
X116277569Y-140534571D02*
X116277569Y-142566571D01*
X116277569Y-140631333D02*
X116132426Y-140534571D01*
X115842140Y-140534571D01*
X115696997Y-140631333D01*
X115624426Y-140728095D01*
X115551855Y-140921619D01*
X115551855Y-141502190D01*
X115624426Y-141695714D01*
X115696997Y-141792476D01*
X115842140Y-141889238D01*
X116132426Y-141889238D01*
X116277569Y-141792476D01*
X114898712Y-141695714D02*
X114826140Y-141792476D01*
X114898712Y-141889238D01*
X114971283Y-141792476D01*
X114898712Y-141695714D01*
X114898712Y-141889238D01*
X114898712Y-140631333D02*
X114826140Y-140728095D01*
X114898712Y-140824857D01*
X114971283Y-140728095D01*
X114898712Y-140631333D01*
X114898712Y-140824857D01*
X113084426Y-139760476D02*
X114390712Y-142373048D01*
X111487855Y-139760476D02*
X112794141Y-142373048D01*
X111124999Y-140534571D02*
X110834713Y-141889238D01*
X110544427Y-140921619D01*
X110254142Y-141889238D01*
X109963856Y-140534571D01*
X109528428Y-140534571D02*
X109238142Y-141889238D01*
X108947856Y-140921619D01*
X108657571Y-141889238D01*
X108367285Y-140534571D01*
X107931857Y-140534571D02*
X107641571Y-141889238D01*
X107351285Y-140921619D01*
X107061000Y-141889238D01*
X106770714Y-140534571D01*
X106190143Y-141695714D02*
X106117571Y-141792476D01*
X106190143Y-141889238D01*
X106262714Y-141792476D01*
X106190143Y-141695714D01*
X106190143Y-141889238D01*
X105464429Y-140534571D02*
X105464429Y-142566571D01*
X105464429Y-140631333D02*
X105319286Y-140534571D01*
X105029000Y-140534571D01*
X104883857Y-140631333D01*
X104811286Y-140728095D01*
X104738715Y-140921619D01*
X104738715Y-141502190D01*
X104811286Y-141695714D01*
X104883857Y-141792476D01*
X105029000Y-141889238D01*
X105319286Y-141889238D01*
X105464429Y-141792476D01*
X103867858Y-141889238D02*
X104013000Y-141792476D01*
X104085572Y-141695714D01*
X104158143Y-141502190D01*
X104158143Y-140921619D01*
X104085572Y-140728095D01*
X104013000Y-140631333D01*
X103867858Y-140534571D01*
X103650143Y-140534571D01*
X103505000Y-140631333D01*
X103432429Y-140728095D01*
X103359858Y-140921619D01*
X103359858Y-141502190D01*
X103432429Y-141695714D01*
X103505000Y-141792476D01*
X103650143Y-141889238D01*
X103867858Y-141889238D01*
X102851858Y-140534571D02*
X102053572Y-140534571D01*
X102851858Y-141889238D01*
X102053572Y-141889238D01*
X101545572Y-141792476D02*
X101400429Y-141889238D01*
X101110144Y-141889238D01*
X100965001Y-141792476D01*
X100892429Y-141598952D01*
X100892429Y-141502190D01*
X100965001Y-141308667D01*
X101110144Y-141211905D01*
X101327858Y-141211905D01*
X101473001Y-141115143D01*
X101545572Y-140921619D01*
X101545572Y-140824857D01*
X101473001Y-140631333D01*
X101327858Y-140534571D01*
X101110144Y-140534571D01*
X100965001Y-140631333D01*
X99586144Y-141889238D02*
X99586144Y-140824857D01*
X99658715Y-140631333D01*
X99803858Y-140534571D01*
X100094144Y-140534571D01*
X100239287Y-140631333D01*
X99586144Y-141792476D02*
X99731287Y-141889238D01*
X100094144Y-141889238D01*
X100239287Y-141792476D01*
X100311858Y-141598952D01*
X100311858Y-141405429D01*
X100239287Y-141211905D01*
X100094144Y-141115143D01*
X99731287Y-141115143D01*
X99586144Y-141018381D01*
X98860430Y-141889238D02*
X98860430Y-140534571D01*
X98860430Y-140921619D02*
X98787858Y-140728095D01*
X98715287Y-140631333D01*
X98570144Y-140534571D01*
X98425001Y-140534571D01*
X98062144Y-140534571D02*
X97263858Y-140534571D01*
X98062144Y-141889238D01*
X97263858Y-141889238D01*
X96755858Y-141792476D02*
X96610715Y-141889238D01*
X96320430Y-141889238D01*
X96175287Y-141792476D01*
X96102715Y-141598952D01*
X96102715Y-141502190D01*
X96175287Y-141308667D01*
X96320430Y-141211905D01*
X96538144Y-141211905D01*
X96683287Y-141115143D01*
X96755858Y-140921619D01*
X96755858Y-140824857D01*
X96683287Y-140631333D01*
X96538144Y-140534571D01*
X96320430Y-140534571D01*
X96175287Y-140631333D01*
X95449573Y-141695714D02*
X95377001Y-141792476D01*
X95449573Y-141889238D01*
X95522144Y-141792476D01*
X95449573Y-141695714D01*
X95449573Y-141889238D01*
X94723859Y-141889238D02*
X94723859Y-139857238D01*
X94070716Y-141889238D02*
X94070716Y-140824857D01*
X94143287Y-140631333D01*
X94288430Y-140534571D01*
X94506145Y-140534571D01*
X94651287Y-140631333D01*
X94723859Y-140728095D01*
X92691859Y-140534571D02*
X92691859Y-141889238D01*
X93345002Y-140534571D02*
X93345002Y-141598952D01*
X93272430Y-141792476D01*
X93127288Y-141889238D01*
X92909573Y-141889238D01*
X92764430Y-141792476D01*
X92691859Y-141695714D01*
D12*
X79375000Y-144145000D02*
X79375000Y-70485000D01*
X220345000Y-144145000D02*
X79375000Y-144145000D01*
X220345000Y-70485000D02*
X220345000Y-144145000D01*
X79375000Y-70485000D02*
X220345000Y-70485000D01*
D13*
X128905000Y-80010000D03*
D14*
X133985000Y-80010000D03*
X125730000Y-137160000D03*
D13*
X138430000Y-137160000D03*
D14*
X125730000Y-133350000D03*
D13*
X138430000Y-133350000D03*
D14*
X125730000Y-129540000D03*
D13*
X138430000Y-129540000D03*
D14*
X125730000Y-125730000D03*
D13*
X138430000Y-125730000D03*
D14*
X125730000Y-121920000D03*
D13*
X138430000Y-121920000D03*
D14*
X125730000Y-118110000D03*
D13*
X138430000Y-118110000D03*
D14*
X125730000Y-114300000D03*
D13*
X138430000Y-114300000D03*
D14*
X125730000Y-110490000D03*
D13*
X138430000Y-110490000D03*
D14*
X125730000Y-106680000D03*
D13*
X138430000Y-106680000D03*
D14*
X125730000Y-102870000D03*
D13*
X138430000Y-102870000D03*
D14*
X125730000Y-99060000D03*
D13*
X138430000Y-99060000D03*
D14*
X125730000Y-95250000D03*
D13*
X138430000Y-95250000D03*
D14*
X125730000Y-91440000D03*
D13*
X138430000Y-91440000D03*
D14*
X125730000Y-87630000D03*
D13*
X138430000Y-87630000D03*
D14*
X120650000Y-137160000D03*
X105410000Y-137160000D03*
X105410000Y-133350000D03*
X120650000Y-133350000D03*
X120650000Y-129540000D03*
X105410000Y-129540000D03*
X120650000Y-125730000D03*
X105410000Y-125730000D03*
X120650000Y-121920000D03*
X105410000Y-121920000D03*
X120650000Y-118110000D03*
X105410000Y-118110000D03*
X120650000Y-114300000D03*
X105410000Y-114300000D03*
X120650000Y-110490000D03*
X105410000Y-110490000D03*
X105410000Y-106680000D03*
X120650000Y-106680000D03*
X105410000Y-102870000D03*
X120650000Y-102870000D03*
X105410000Y-99060000D03*
X120650000Y-99060000D03*
X105410000Y-95250000D03*
X120650000Y-95250000D03*
X105410000Y-91440000D03*
X120650000Y-91440000D03*
X105410000Y-87630000D03*
X120650000Y-87630000D03*
X170180000Y-88265000D03*
X154940000Y-88265000D03*
X170180000Y-97155000D03*
X154940000Y-97155000D03*
X189865000Y-107950000D03*
X189865000Y-123190000D03*
X196850000Y-114935000D03*
X212090000Y-114935000D03*
X170180000Y-114935000D03*
X154940000Y-114935000D03*
X196850000Y-106045000D03*
X212090000Y-106045000D03*
X177165000Y-83185000D03*
X177165000Y-98425000D03*
X177165000Y-123190000D03*
X177165000Y-107950000D03*
X212090000Y-88265000D03*
X196850000Y-88265000D03*
X195580000Y-128270000D03*
X213360000Y-128270000D03*
X171450000Y-128270000D03*
X153670000Y-128270000D03*
X195580000Y-119380000D03*
X213360000Y-119380000D03*
X171450000Y-119380000D03*
X153670000Y-119380000D03*
X195580000Y-137160000D03*
X213360000Y-137160000D03*
X213360000Y-110490000D03*
X195580000Y-110490000D03*
X153670000Y-110490000D03*
X171450000Y-110490000D03*
X213360000Y-101600000D03*
X195580000Y-101600000D03*
X153670000Y-101600000D03*
X171450000Y-101600000D03*
X213360000Y-92710000D03*
X195580000Y-92710000D03*
X153670000Y-92710000D03*
X171450000Y-92710000D03*
X153670000Y-137160000D03*
X171450000Y-137160000D03*
X195580000Y-83820000D03*
X213360000Y-83820000D03*
X171450000Y-83820000D03*
X153670000Y-83820000D03*
D15*
X146050000Y-129540000D03*
D16*
X143510000Y-129540000D03*
D15*
X146050000Y-125730000D03*
D16*
X143510000Y-125730000D03*
D15*
X146050000Y-121920000D03*
D16*
X143510000Y-121920000D03*
D15*
X146050000Y-118110000D03*
D16*
X143510000Y-118110000D03*
D15*
X146050000Y-137160000D03*
D16*
X143510000Y-137160000D03*
D15*
X146050000Y-114300000D03*
D16*
X143510000Y-114300000D03*
D15*
X146050000Y-110490000D03*
D16*
X143510000Y-110490000D03*
D15*
X146050000Y-106680000D03*
D16*
X143510000Y-106680000D03*
D15*
X146050000Y-102870000D03*
D16*
X143510000Y-102870000D03*
D15*
X146050000Y-99060000D03*
D16*
X143510000Y-99060000D03*
D15*
X146050000Y-95250000D03*
D16*
X143510000Y-95250000D03*
D15*
X146050000Y-133350000D03*
D16*
X143510000Y-133350000D03*
D15*
X146050000Y-91440000D03*
D16*
X143510000Y-91440000D03*
D15*
X146050000Y-87630000D03*
D16*
X143510000Y-87630000D03*
D17*
X201295000Y-75565000D03*
X196215000Y-75565000D03*
X191135000Y-75565000D03*
D15*
X85090000Y-75565000D03*
D16*
X87630000Y-75565000D03*
X90170000Y-75565000D03*
X92710000Y-75565000D03*
X95250000Y-75565000D03*
X97790000Y-75565000D03*
X100330000Y-75565000D03*
X102870000Y-75565000D03*
X105410000Y-75565000D03*
X107950000Y-75565000D03*
X110490000Y-75565000D03*
X113030000Y-75565000D03*
X115570000Y-75565000D03*
X118110000Y-75565000D03*
D15*
X146050000Y-75565000D03*
D16*
X143510000Y-75565000D03*
D17*
X165735000Y-75565000D03*
X170815000Y-75565000D03*
X175895000Y-75565000D03*
X180975000Y-75565000D03*
X186055000Y-75565000D03*
D18*
X150495000Y-83820000D03*
X150495000Y-75565000D03*
X171450000Y-106045000D03*
X153670000Y-106045000D03*
X192405000Y-104140000D03*
X192405000Y-92710000D03*
X184785000Y-92710000D03*
X184785000Y-80010000D03*
X196850000Y-97155000D03*
X212090000Y-97155000D03*
X180975000Y-104140000D03*
X180975000Y-94615000D03*
X180975000Y-80010000D03*
X180975000Y-119380000D03*
X189230000Y-80010000D03*
X189230000Y-101600000D03*
X192405000Y-81280000D03*
X192405000Y-88265000D03*
D19*
X102870000Y-75565000D02*
X102870000Y-78105000D01*
X95250000Y-75565000D02*
X95250000Y-78105000D01*
X92710000Y-75565000D02*
X92710000Y-78105000D01*
X85090000Y-75565000D02*
X85090000Y-78105000D01*
D20*
X170815000Y-79375000D02*
X174625000Y-83185000D01*
X174625000Y-83185000D02*
X177165000Y-83185000D01*
X170815000Y-75565000D02*
X170815000Y-79375000D01*
D19*
X101600000Y-114300000D02*
X105410000Y-114300000D01*
X100330000Y-113030000D02*
X101600000Y-114300000D01*
X100330000Y-75565000D02*
X100330000Y-77470000D01*
X100330000Y-77470000D02*
X100330000Y-113030000D01*
X92710000Y-124460000D02*
X93980000Y-125730000D01*
X93980000Y-125730000D02*
X105410000Y-125730000D01*
X92710000Y-78105000D02*
X92710000Y-124460000D01*
X92710000Y-77470000D02*
X92710000Y-78105000D01*
X107950000Y-90170000D02*
X107950000Y-77470000D01*
X106680000Y-91440000D02*
X107950000Y-90170000D01*
X107950000Y-77470000D02*
X107950000Y-75565000D01*
X105410000Y-91440000D02*
X106680000Y-91440000D01*
X110490000Y-93980000D02*
X110490000Y-77470000D01*
X109220000Y-95250000D02*
X110490000Y-93980000D01*
X110490000Y-77470000D02*
X110490000Y-75565000D01*
X105410000Y-95250000D02*
X109220000Y-95250000D01*
X113030000Y-97790000D02*
X113030000Y-77470000D01*
X111760000Y-99060000D02*
X113030000Y-97790000D01*
X113030000Y-77470000D02*
X113030000Y-75565000D01*
X105410000Y-99060000D02*
X111760000Y-99060000D01*
X115570000Y-101600000D02*
X115570000Y-77470000D01*
X114300000Y-102870000D02*
X115570000Y-101600000D01*
X115570000Y-77470000D02*
X115570000Y-75565000D01*
X105410000Y-102870000D02*
X114300000Y-102870000D01*
X118110000Y-105410000D02*
X118110000Y-77470000D01*
X116840000Y-106680000D02*
X118110000Y-105410000D01*
X118110000Y-77470000D02*
X118110000Y-75565000D01*
X105410000Y-106680000D02*
X116840000Y-106680000D01*
X102870000Y-109220000D02*
X104140000Y-110490000D01*
X104140000Y-110490000D02*
X105410000Y-110490000D01*
X102870000Y-78105000D02*
X102870000Y-109220000D01*
X102870000Y-77470000D02*
X102870000Y-78105000D01*
X97790000Y-116840000D02*
X97790000Y-77470000D01*
X99060000Y-118110000D02*
X97790000Y-116840000D01*
X97790000Y-77470000D02*
X97790000Y-75565000D01*
X105410000Y-118110000D02*
X99060000Y-118110000D01*
X95250000Y-120650000D02*
X96520000Y-121920000D01*
X96520000Y-121920000D02*
X105410000Y-121920000D01*
X95250000Y-78105000D02*
X95250000Y-120650000D01*
X95250000Y-77470000D02*
X95250000Y-78105000D01*
X90170000Y-128270000D02*
X90170000Y-77470000D01*
X91440000Y-129540000D02*
X90170000Y-128270000D01*
X90170000Y-77470000D02*
X90170000Y-75565000D01*
X105410000Y-129540000D02*
X91440000Y-129540000D01*
X88900000Y-133350000D02*
X105410000Y-133350000D01*
X87630000Y-132080000D02*
X88900000Y-133350000D01*
X87630000Y-75565000D02*
X87630000Y-77470000D01*
X87630000Y-77470000D02*
X87630000Y-132080000D01*
X86360000Y-137160000D02*
X85090000Y-135890000D01*
X85090000Y-78105000D02*
X85090000Y-77470000D01*
X85090000Y-135890000D02*
X85090000Y-78105000D01*
X105410000Y-137160000D02*
X86360000Y-137160000D01*
X105410000Y-77470000D02*
X105410000Y-75565000D01*
X105410000Y-87630000D02*
X105410000Y-77470000D01*
D21*
X140970000Y-121920000D02*
X142875000Y-123825000D01*
X142875000Y-123825000D02*
X146050000Y-123825000D01*
X138430000Y-121920000D02*
X140970000Y-121920000D01*
X140970000Y-125730000D02*
X142875000Y-127635000D01*
X142875000Y-127635000D02*
X146050000Y-127635000D01*
X138430000Y-125730000D02*
X140970000Y-125730000D01*
X140970000Y-129540000D02*
X142875000Y-131445000D01*
X142875000Y-131445000D02*
X146050000Y-131445000D01*
X138430000Y-129540000D02*
X140970000Y-129540000D01*
X140970000Y-133350000D02*
X142875000Y-135255000D01*
X142875000Y-135255000D02*
X146050000Y-135255000D01*
X138430000Y-133350000D02*
X140970000Y-133350000D01*
X142240000Y-139065000D02*
X146050000Y-139065000D01*
X140335000Y-137160000D02*
X142240000Y-139065000D01*
D19*
X146050000Y-139065000D02*
X146050000Y-137160000D01*
D21*
X138430000Y-137160000D02*
X140335000Y-137160000D01*
X140970000Y-114300000D02*
X142875000Y-116205000D01*
X142875000Y-116205000D02*
X146050000Y-116205000D01*
X138430000Y-114300000D02*
X140970000Y-114300000D01*
X140970000Y-118110000D02*
X142875000Y-120015000D01*
X142875000Y-120015000D02*
X146050000Y-120015000D01*
X138430000Y-118110000D02*
X140970000Y-118110000D01*
X140970000Y-106680000D02*
X142875000Y-108585000D01*
X142875000Y-108585000D02*
X146050000Y-108585000D01*
X138430000Y-106680000D02*
X140970000Y-106680000D01*
X140970000Y-110490000D02*
X142875000Y-112395000D01*
X142875000Y-112395000D02*
X146050000Y-112395000D01*
X138430000Y-110490000D02*
X140970000Y-110490000D01*
X140970000Y-99060000D02*
X142875000Y-100965000D01*
X142875000Y-100965000D02*
X146050000Y-100965000D01*
X138430000Y-99060000D02*
X140970000Y-99060000D01*
X140970000Y-102870000D02*
X142875000Y-104775000D01*
X142875000Y-104775000D02*
X146050000Y-104775000D01*
X138430000Y-102870000D02*
X140970000Y-102870000D01*
X140970000Y-95250000D02*
X142875000Y-97155000D01*
X142875000Y-97155000D02*
X146050000Y-97155000D01*
X138430000Y-95250000D02*
X140970000Y-95250000D01*
X140970000Y-91440000D02*
X142875000Y-93345000D01*
X142875000Y-93345000D02*
X146050000Y-93345000D01*
X138430000Y-91440000D02*
X140970000Y-91440000D01*
X140970000Y-87630000D02*
X142875000Y-89535000D01*
X142875000Y-89535000D02*
X146050000Y-89535000D01*
X138430000Y-87630000D02*
X140970000Y-87630000D01*
D19*
X146050000Y-135255000D02*
X146050000Y-137160000D01*
X146050000Y-131445000D02*
X146050000Y-135255000D01*
X146050000Y-128270000D02*
X146050000Y-131445000D01*
X146050000Y-127635000D02*
X146050000Y-128270000D01*
X146050000Y-123825000D02*
X146050000Y-127635000D01*
X146050000Y-120015000D02*
X146050000Y-123825000D01*
X146050000Y-116205000D02*
X146050000Y-120015000D01*
X146050000Y-112395000D02*
X146050000Y-116205000D01*
X146050000Y-108585000D02*
X146050000Y-112395000D01*
X146050000Y-104775000D02*
X146050000Y-108585000D01*
X146050000Y-100965000D02*
X146050000Y-104775000D01*
X146050000Y-97155000D02*
X146050000Y-100965000D01*
X146050000Y-93345000D02*
X146050000Y-97155000D01*
X146050000Y-89535000D02*
X146050000Y-93345000D01*
X146050000Y-87630000D02*
X146050000Y-89535000D01*
X146050000Y-80645000D02*
X146050000Y-87630000D01*
X146050000Y-80010000D02*
X146050000Y-80645000D01*
X143510000Y-75565000D02*
X132080000Y-75565000D01*
X128905000Y-80010000D02*
X128905000Y-78740000D01*
X128905000Y-78740000D02*
X132080000Y-75565000D01*
X146050000Y-80010000D02*
X146050000Y-77470000D01*
X146050000Y-75565000D02*
X146050000Y-77470000D01*
X133985000Y-80010000D02*
X146050000Y-80010000D01*
D21*
X127635000Y-135255000D02*
X141605000Y-135255000D01*
X141605000Y-135255000D02*
X143510000Y-137160000D01*
X125730000Y-137160000D02*
X127635000Y-135255000D01*
D19*
X120650000Y-137160000D02*
X125730000Y-137160000D01*
D21*
X127635000Y-131445000D02*
X141605000Y-131445000D01*
X141605000Y-131445000D02*
X143510000Y-133350000D01*
X125730000Y-133350000D02*
X127635000Y-131445000D01*
D19*
X125730000Y-133350000D02*
X120650000Y-133350000D01*
D21*
X127635000Y-127635000D02*
X141605000Y-127635000D01*
X141605000Y-127635000D02*
X143510000Y-129540000D01*
X125730000Y-129540000D02*
X127635000Y-127635000D01*
D19*
X120650000Y-129540000D02*
X125730000Y-129540000D01*
D21*
X127635000Y-123825000D02*
X141605000Y-123825000D01*
X141605000Y-123825000D02*
X143510000Y-125730000D01*
X125730000Y-125730000D02*
X127635000Y-123825000D01*
D19*
X120650000Y-125730000D02*
X125730000Y-125730000D01*
D21*
X127635000Y-120015000D02*
X141605000Y-120015000D01*
X141605000Y-120015000D02*
X143510000Y-121920000D01*
X125730000Y-121920000D02*
X127635000Y-120015000D01*
D19*
X125730000Y-121920000D02*
X120650000Y-121920000D01*
D21*
X127635000Y-116205000D02*
X141605000Y-116205000D01*
X141605000Y-116205000D02*
X143510000Y-118110000D01*
X125730000Y-118110000D02*
X127635000Y-116205000D01*
D19*
X120650000Y-118110000D02*
X125730000Y-118110000D01*
D21*
X127635000Y-112395000D02*
X141605000Y-112395000D01*
X141605000Y-112395000D02*
X143510000Y-114300000D01*
X125730000Y-114300000D02*
X127635000Y-112395000D01*
D19*
X120650000Y-114300000D02*
X125730000Y-114300000D01*
D21*
X127635000Y-108585000D02*
X141605000Y-108585000D01*
X141605000Y-108585000D02*
X143510000Y-110490000D01*
X125730000Y-110490000D02*
X127635000Y-108585000D01*
D19*
X125730000Y-110490000D02*
X120650000Y-110490000D01*
D21*
X127635000Y-104775000D02*
X141605000Y-104775000D01*
X141605000Y-104775000D02*
X143510000Y-106680000D01*
X125730000Y-106680000D02*
X127635000Y-104775000D01*
D19*
X120650000Y-106680000D02*
X125730000Y-106680000D01*
D21*
X127635000Y-100965000D02*
X141605000Y-100965000D01*
X141605000Y-100965000D02*
X143510000Y-102870000D01*
X125730000Y-102870000D02*
X127635000Y-100965000D01*
D19*
X120650000Y-102870000D02*
X125730000Y-102870000D01*
D21*
X127635000Y-97155000D02*
X141605000Y-97155000D01*
X141605000Y-97155000D02*
X143510000Y-99060000D01*
X125730000Y-99060000D02*
X127635000Y-97155000D01*
D19*
X120650000Y-99060000D02*
X125730000Y-99060000D01*
D21*
X127635000Y-93345000D02*
X141605000Y-93345000D01*
X141605000Y-93345000D02*
X143510000Y-95250000D01*
X125730000Y-95250000D02*
X127635000Y-93345000D01*
D19*
X120650000Y-95250000D02*
X125730000Y-95250000D01*
D21*
X127635000Y-89535000D02*
X141605000Y-89535000D01*
X141605000Y-89535000D02*
X143510000Y-91440000D01*
X125730000Y-91440000D02*
X127635000Y-89535000D01*
D19*
X120650000Y-91440000D02*
X125730000Y-91440000D01*
D21*
X126365000Y-87630000D02*
X128270000Y-85725000D01*
X128270000Y-85725000D02*
X141605000Y-85725000D01*
X141605000Y-85725000D02*
X143510000Y-87630000D01*
X125730000Y-87630000D02*
X126365000Y-87630000D01*
D19*
X125730000Y-87630000D02*
X120650000Y-87630000D01*
D20*
X170180000Y-97155000D02*
X158750000Y-97155000D01*
X159385000Y-88265000D02*
X158750000Y-88900000D01*
X158750000Y-97155000D02*
X158750000Y-118110000D01*
X158750000Y-88900000D02*
X158750000Y-97155000D01*
X158750000Y-118110000D02*
X157480000Y-119380000D01*
X157480000Y-119380000D02*
X153670000Y-119380000D01*
X170180000Y-88265000D02*
X159385000Y-88265000D01*
X150495000Y-75565000D02*
X165735000Y-75565000D01*
X153670000Y-83820000D02*
X150495000Y-83820000D01*
X154940000Y-88265000D02*
X153670000Y-88265000D01*
X153670000Y-88265000D02*
X153670000Y-92710000D01*
X153670000Y-83820000D02*
X153670000Y-88265000D01*
X177165000Y-100330000D02*
X171450000Y-106045000D01*
X153670000Y-106045000D02*
X153670000Y-101600000D01*
X177165000Y-98425000D02*
X177165000Y-100330000D01*
X153670000Y-98425000D02*
X153670000Y-101600000D01*
X154940000Y-97155000D02*
X153670000Y-98425000D01*
X192405000Y-92710000D02*
X184785000Y-92710000D01*
X184785000Y-80010000D02*
X186055000Y-78740000D01*
X186055000Y-78740000D02*
X186055000Y-75565000D01*
X192405000Y-106045000D02*
X192405000Y-104140000D01*
X189865000Y-106680000D02*
X190500000Y-106045000D01*
X192405000Y-106045000D02*
X196850000Y-106045000D01*
X190500000Y-106045000D02*
X192405000Y-106045000D01*
X189865000Y-114935000D02*
X189865000Y-106680000D01*
X189865000Y-114935000D02*
X170180000Y-114935000D01*
X196850000Y-114935000D02*
X189865000Y-114935000D01*
X190500000Y-137160000D02*
X189865000Y-136525000D01*
X189865000Y-136525000D02*
X189865000Y-123190000D01*
X192405000Y-137160000D02*
X190500000Y-137160000D01*
X195580000Y-137160000D02*
X192405000Y-137160000D01*
X213360000Y-113665000D02*
X213360000Y-110490000D01*
X212090000Y-114935000D02*
X213360000Y-113665000D01*
X154305000Y-114935000D02*
X153670000Y-114300000D01*
X153670000Y-114300000D02*
X153670000Y-110490000D01*
X154940000Y-114935000D02*
X154305000Y-114935000D01*
X214630000Y-92710000D02*
X215900000Y-93980000D01*
X213360000Y-101600000D02*
X215900000Y-101600000D01*
X213360000Y-92710000D02*
X214630000Y-92710000D01*
X212090000Y-106045000D02*
X215900000Y-106045000D01*
X214630000Y-119380000D02*
X215900000Y-118110000D01*
X215900000Y-106045000D02*
X215900000Y-102870000D01*
X215900000Y-118110000D02*
X215900000Y-106045000D01*
X213360000Y-119380000D02*
X214630000Y-119380000D01*
X215900000Y-101600000D02*
X215900000Y-102870000D01*
X215900000Y-93980000D02*
X215900000Y-101600000D01*
D19*
X176530000Y-137160000D02*
X177165000Y-136525000D01*
D20*
X177165000Y-136525000D02*
X177165000Y-123190000D01*
X171450000Y-137160000D02*
X176530000Y-137160000D01*
X212090000Y-97155000D02*
X208280000Y-97155000D01*
X208280000Y-97155000D02*
X207645000Y-96520000D01*
X207645000Y-96520000D02*
X207645000Y-76200000D01*
X207645000Y-76200000D02*
X207010000Y-75565000D01*
X207010000Y-75565000D02*
X201295000Y-75565000D01*
X196850000Y-96520000D02*
X196850000Y-97155000D01*
X200660000Y-88265000D02*
X201295000Y-88900000D01*
X201295000Y-88900000D02*
X201295000Y-95885000D01*
X201295000Y-95885000D02*
X200660000Y-96520000D01*
X196850000Y-96520000D02*
X184150000Y-96520000D01*
X197485000Y-96520000D02*
X196850000Y-96520000D01*
X200660000Y-96520000D02*
X197485000Y-96520000D01*
X184150000Y-96520000D02*
X183515000Y-97155000D01*
X183515000Y-97155000D02*
X183515000Y-107315000D01*
X183515000Y-107315000D02*
X182880000Y-107950000D01*
X182880000Y-107950000D02*
X177165000Y-107950000D01*
X196850000Y-88265000D02*
X200660000Y-88265000D01*
X213360000Y-86995000D02*
X212090000Y-88265000D01*
X213360000Y-83820000D02*
X213360000Y-86995000D01*
X180975000Y-104140000D02*
X180975000Y-94615000D01*
X180975000Y-75565000D02*
X180975000Y-80010000D01*
X171450000Y-119380000D02*
X171450000Y-128270000D01*
X180975000Y-119380000D02*
X195580000Y-119380000D01*
X180340000Y-119380000D02*
X180975000Y-119380000D01*
X171450000Y-119380000D02*
X180340000Y-119380000D01*
X195580000Y-119380000D02*
X195580000Y-128270000D01*
X195580000Y-83820000D02*
X180340000Y-83820000D01*
X180340000Y-83185000D02*
X180340000Y-83820000D01*
X180340000Y-85725000D02*
X180340000Y-83185000D01*
X179070000Y-86995000D02*
X180340000Y-85725000D01*
X174625000Y-86995000D02*
X179070000Y-86995000D01*
X171450000Y-83820000D02*
X174625000Y-86995000D01*
X149860000Y-135890000D02*
X149860000Y-97790000D01*
X149860000Y-97790000D02*
X149860000Y-89535000D01*
X151130000Y-137160000D02*
X149860000Y-135890000D01*
X151130000Y-80010000D02*
X165735000Y-80010000D01*
X171450000Y-83820000D02*
X168910000Y-83820000D01*
X168275000Y-83185000D02*
X168275000Y-81280000D01*
X168910000Y-83820000D02*
X168275000Y-83185000D01*
X165735000Y-80010000D02*
X167005000Y-80010000D01*
X167005000Y-80010000D02*
X168275000Y-81280000D01*
X151130000Y-80010000D02*
X148590000Y-80010000D01*
X149860000Y-88265000D02*
X149860000Y-89535000D01*
X147955000Y-86360000D02*
X149860000Y-88265000D01*
X147955000Y-80645000D02*
X147955000Y-86360000D01*
X148590000Y-80010000D02*
X147955000Y-80645000D01*
X153670000Y-137160000D02*
X151130000Y-137160000D01*
X203200000Y-83820000D02*
X204470000Y-85090000D01*
X204470000Y-85090000D02*
X204470000Y-127000000D01*
X204470000Y-127000000D02*
X205740000Y-128270000D01*
X205740000Y-128270000D02*
X213360000Y-128270000D01*
X195580000Y-83820000D02*
X203200000Y-83820000D01*
D19*
X175895000Y-78740000D02*
X180340000Y-83185000D01*
X175895000Y-75565000D02*
X175895000Y-78740000D01*
D20*
X162560000Y-110490000D02*
X164465000Y-110490000D01*
X162560000Y-102235000D02*
X163195000Y-101600000D01*
X163195000Y-101600000D02*
X171450000Y-101600000D01*
X162560000Y-110490000D02*
X162560000Y-102235000D01*
X162560000Y-111760000D02*
X162560000Y-110490000D01*
X187325000Y-101600000D02*
X186690000Y-102235000D01*
X186690000Y-102235000D02*
X186690000Y-111125000D01*
X186690000Y-111125000D02*
X186055000Y-111760000D01*
X186055000Y-111760000D02*
X172720000Y-111760000D01*
X172720000Y-111760000D02*
X171450000Y-110490000D01*
X189230000Y-101600000D02*
X187325000Y-101600000D01*
X195580000Y-101600000D02*
X189230000Y-101600000D01*
X195580000Y-110490000D02*
X201295000Y-110490000D01*
X200660000Y-101600000D02*
X201295000Y-102235000D01*
X201295000Y-110490000D02*
X201295000Y-136525000D01*
X201295000Y-102235000D02*
X201295000Y-110490000D01*
X201295000Y-136525000D02*
X201930000Y-137160000D01*
X201930000Y-137160000D02*
X213360000Y-137160000D01*
X195580000Y-101600000D02*
X200660000Y-101600000D01*
X164465000Y-110490000D02*
X171450000Y-110490000D01*
X162560000Y-112395000D02*
X162560000Y-111760000D01*
X162560000Y-127000000D02*
X162560000Y-112395000D01*
X161290000Y-128270000D02*
X162560000Y-127000000D01*
X153670000Y-128270000D02*
X161290000Y-128270000D01*
X191135000Y-78105000D02*
X189230000Y-80010000D01*
X191135000Y-75565000D02*
X191135000Y-78105000D01*
X195580000Y-91440000D02*
X192405000Y-88265000D01*
X195580000Y-92710000D02*
X195580000Y-91440000D01*
X179705000Y-92710000D02*
X184150000Y-88265000D01*
X184150000Y-88265000D02*
X192405000Y-88265000D01*
X179070000Y-92710000D02*
X179705000Y-92710000D01*
X179070000Y-92710000D02*
X171450000Y-92710000D01*
X194310000Y-80010000D02*
X192405000Y-81280000D01*
X196215000Y-78105000D02*
X194310000Y-80010000D01*
X196215000Y-75565000D02*
X196215000Y-78105000D01*
M02*
