%FSLAX45Y45*%
G04 Gerber Fmt 4.5, Leading zero omitted, Abs format (unit mm)*
G04 Created by KiCad (PCBNEW 4.0.5+dfsg1-4+deb9u1) date Mon Sep 26 08:47:59 2022*
%MOMM*%
%LPD*%
G01*
G04 APERTURE LIST*
%ADD10C,0.127000*%
%ADD11C,0.381000*%
%ADD12C,0.200000*%
%ADD13C,0.300000*%
G04 APERTURE END LIST*
D10*
D11*
X7937500Y-14414500D02*
X7937500Y-7048500D01*
X22034500Y-14414500D02*
X7937500Y-14414500D01*
X22034500Y-7048500D02*
X22034500Y-14414500D01*
X7937500Y-7048500D02*
X22034500Y-7048500D01*
D12*
X15022830Y-7529830D02*
X15076170Y-7583170D01*
X15076170Y-7529830D02*
X15022830Y-7583170D01*
X15022830Y-8355330D02*
X15076170Y-8408670D01*
X15076170Y-8355330D02*
X15022830Y-8408670D01*
X15340330Y-10577830D02*
X15393670Y-10631170D01*
X15393670Y-10577830D02*
X15340330Y-10631170D01*
X17118330Y-10577830D02*
X17171670Y-10631170D01*
X17171670Y-10577830D02*
X17118330Y-10631170D01*
X18070830Y-7974330D02*
X18124170Y-8027670D01*
X18124170Y-7974330D02*
X18070830Y-8027670D01*
X18070830Y-9434830D02*
X18124170Y-9488170D01*
X18124170Y-9434830D02*
X18070830Y-9488170D01*
X18070830Y-10387330D02*
X18124170Y-10440670D01*
X18124170Y-10387330D02*
X18070830Y-10440670D01*
X18070830Y-11911330D02*
X18124170Y-11964670D01*
X18124170Y-11911330D02*
X18070830Y-11964670D01*
X18451830Y-7974330D02*
X18505170Y-8027670D01*
X18505170Y-7974330D02*
X18451830Y-8027670D01*
X18451830Y-9244330D02*
X18505170Y-9297670D01*
X18505170Y-9244330D02*
X18451830Y-9297670D01*
X18896330Y-7974330D02*
X18949670Y-8027670D01*
X18949670Y-7974330D02*
X18896330Y-8027670D01*
X18896330Y-10133330D02*
X18949670Y-10186670D01*
X18949670Y-10133330D02*
X18896330Y-10186670D01*
X19213830Y-8101330D02*
X19267170Y-8154670D01*
X19267170Y-8101330D02*
X19213830Y-8154670D01*
X19213830Y-8799830D02*
X19267170Y-8853170D01*
X19267170Y-8799830D02*
X19213830Y-8853170D01*
X19213830Y-9244330D02*
X19267170Y-9297670D01*
X19267170Y-9244330D02*
X19213830Y-9297670D01*
X19213830Y-10387330D02*
X19267170Y-10440670D01*
X19267170Y-10387330D02*
X19213830Y-10440670D01*
X19658330Y-9688830D02*
X19711670Y-9742170D01*
X19711670Y-9688830D02*
X19658330Y-9742170D01*
X21182330Y-9688830D02*
X21235670Y-9742170D01*
X21235670Y-9688830D02*
X21182330Y-9742170D01*
X8549640Y-7556500D02*
G75*
G03X8549640Y-7556500I-40640J0D01*
G01*
X8803640Y-7556500D02*
G75*
G03X8803640Y-7556500I-40640J0D01*
G01*
X9057640Y-7556500D02*
G75*
G03X9057640Y-7556500I-40640J0D01*
G01*
X9311640Y-7556500D02*
G75*
G03X9311640Y-7556500I-40640J0D01*
G01*
X9565640Y-7556500D02*
G75*
G03X9565640Y-7556500I-40640J0D01*
G01*
X9819640Y-7556500D02*
G75*
G03X9819640Y-7556500I-40640J0D01*
G01*
X10073640Y-7556500D02*
G75*
G03X10073640Y-7556500I-40640J0D01*
G01*
X10327640Y-7556500D02*
G75*
G03X10327640Y-7556500I-40640J0D01*
G01*
X10581640Y-7556500D02*
G75*
G03X10581640Y-7556500I-40640J0D01*
G01*
X10835640Y-7556500D02*
G75*
G03X10835640Y-7556500I-40640J0D01*
G01*
X11089640Y-7556500D02*
G75*
G03X11089640Y-7556500I-40640J0D01*
G01*
X11343640Y-7556500D02*
G75*
G03X11343640Y-7556500I-40640J0D01*
G01*
X11597640Y-7556500D02*
G75*
G03X11597640Y-7556500I-40640J0D01*
G01*
X11851640Y-7556500D02*
G75*
G03X11851640Y-7556500I-40640J0D01*
G01*
X14391640Y-7556500D02*
G75*
G03X14391640Y-7556500I-40640J0D01*
G01*
X14391640Y-8763000D02*
G75*
G03X14391640Y-8763000I-40640J0D01*
G01*
X14391640Y-9144000D02*
G75*
G03X14391640Y-9144000I-40640J0D01*
G01*
X14391640Y-9525000D02*
G75*
G03X14391640Y-9525000I-40640J0D01*
G01*
X14391640Y-9906000D02*
G75*
G03X14391640Y-9906000I-40640J0D01*
G01*
X14391640Y-10287000D02*
G75*
G03X14391640Y-10287000I-40640J0D01*
G01*
X14391640Y-10668000D02*
G75*
G03X14391640Y-10668000I-40640J0D01*
G01*
X14391640Y-11049000D02*
G75*
G03X14391640Y-11049000I-40640J0D01*
G01*
X14391640Y-11430000D02*
G75*
G03X14391640Y-11430000I-40640J0D01*
G01*
X14391640Y-11811000D02*
G75*
G03X14391640Y-11811000I-40640J0D01*
G01*
X14391640Y-12192000D02*
G75*
G03X14391640Y-12192000I-40640J0D01*
G01*
X14391640Y-12573000D02*
G75*
G03X14391640Y-12573000I-40640J0D01*
G01*
X14391640Y-12954000D02*
G75*
G03X14391640Y-12954000I-40640J0D01*
G01*
X14391640Y-13335000D02*
G75*
G03X14391640Y-13335000I-40640J0D01*
G01*
X14391640Y-13716000D02*
G75*
G03X14391640Y-13716000I-40640J0D01*
G01*
X14645640Y-7556500D02*
G75*
G03X14645640Y-7556500I-40640J0D01*
G01*
X14645640Y-8763000D02*
G75*
G03X14645640Y-8763000I-40640J0D01*
G01*
X14645640Y-9144000D02*
G75*
G03X14645640Y-9144000I-40640J0D01*
G01*
X14645640Y-9525000D02*
G75*
G03X14645640Y-9525000I-40640J0D01*
G01*
X14645640Y-9906000D02*
G75*
G03X14645640Y-9906000I-40640J0D01*
G01*
X14645640Y-10287000D02*
G75*
G03X14645640Y-10287000I-40640J0D01*
G01*
X14645640Y-10668000D02*
G75*
G03X14645640Y-10668000I-40640J0D01*
G01*
X14645640Y-11049000D02*
G75*
G03X14645640Y-11049000I-40640J0D01*
G01*
X14645640Y-11430000D02*
G75*
G03X14645640Y-11430000I-40640J0D01*
G01*
X14645640Y-11811000D02*
G75*
G03X14645640Y-11811000I-40640J0D01*
G01*
X14645640Y-12192000D02*
G75*
G03X14645640Y-12192000I-40640J0D01*
G01*
X14645640Y-12573000D02*
G75*
G03X14645640Y-12573000I-40640J0D01*
G01*
X14645640Y-12954000D02*
G75*
G03X14645640Y-12954000I-40640J0D01*
G01*
X14645640Y-13335000D02*
G75*
G03X14645640Y-13335000I-40640J0D01*
G01*
X14645640Y-13716000D02*
G75*
G03X14645640Y-13716000I-40640J0D01*
G01*
X16573500Y-7506462D02*
X16573500Y-7606538D01*
X16523462Y-7556500D02*
X16623538Y-7556500D01*
X17081500Y-7506462D02*
X17081500Y-7606538D01*
X17031462Y-7556500D02*
X17131538Y-7556500D01*
X17589500Y-7506462D02*
X17589500Y-7606538D01*
X17539462Y-7556500D02*
X17639538Y-7556500D01*
X18097500Y-7506462D02*
X18097500Y-7606538D01*
X18047462Y-7556500D02*
X18147538Y-7556500D01*
X18605500Y-7506462D02*
X18605500Y-7606538D01*
X18555462Y-7556500D02*
X18655538Y-7556500D01*
X19113500Y-7506462D02*
X19113500Y-7606538D01*
X19063462Y-7556500D02*
X19163538Y-7556500D01*
X19621500Y-7506462D02*
X19621500Y-7606538D01*
X19571462Y-7556500D02*
X19671538Y-7556500D01*
X20129500Y-7506462D02*
X20129500Y-7606538D01*
X20079462Y-7556500D02*
X20179538Y-7556500D01*
X12926421Y-8036921D02*
X12926421Y-7965079D01*
X12854579Y-7965079D01*
X12854579Y-8036921D01*
X12926421Y-8036921D01*
X13434421Y-8036921D02*
X13434421Y-7965079D01*
X13362579Y-7965079D01*
X13362579Y-8036921D01*
X13434421Y-8036921D01*
X10541000Y-8820150D02*
X10598150Y-8763000D01*
X10541000Y-8705850D01*
X10483850Y-8763000D01*
X10541000Y-8820150D01*
X10541000Y-9201150D02*
X10598150Y-9144000D01*
X10541000Y-9086850D01*
X10483850Y-9144000D01*
X10541000Y-9201150D01*
X10541000Y-9582150D02*
X10598150Y-9525000D01*
X10541000Y-9467850D01*
X10483850Y-9525000D01*
X10541000Y-9582150D01*
X10541000Y-9963150D02*
X10598150Y-9906000D01*
X10541000Y-9848850D01*
X10483850Y-9906000D01*
X10541000Y-9963150D01*
X10541000Y-10344150D02*
X10598150Y-10287000D01*
X10541000Y-10229850D01*
X10483850Y-10287000D01*
X10541000Y-10344150D01*
X10541000Y-10725150D02*
X10598150Y-10668000D01*
X10541000Y-10610850D01*
X10483850Y-10668000D01*
X10541000Y-10725150D01*
X10541000Y-11106150D02*
X10598150Y-11049000D01*
X10541000Y-10991850D01*
X10483850Y-11049000D01*
X10541000Y-11106150D01*
X10541000Y-11487150D02*
X10598150Y-11430000D01*
X10541000Y-11372850D01*
X10483850Y-11430000D01*
X10541000Y-11487150D01*
X10541000Y-11868150D02*
X10598150Y-11811000D01*
X10541000Y-11753850D01*
X10483850Y-11811000D01*
X10541000Y-11868150D01*
X10541000Y-12249150D02*
X10598150Y-12192000D01*
X10541000Y-12134850D01*
X10483850Y-12192000D01*
X10541000Y-12249150D01*
X10541000Y-12630150D02*
X10598150Y-12573000D01*
X10541000Y-12515850D01*
X10483850Y-12573000D01*
X10541000Y-12630150D01*
X10541000Y-13011150D02*
X10598150Y-12954000D01*
X10541000Y-12896850D01*
X10483850Y-12954000D01*
X10541000Y-13011150D01*
X10541000Y-13392150D02*
X10598150Y-13335000D01*
X10541000Y-13277850D01*
X10483850Y-13335000D01*
X10541000Y-13392150D01*
X10541000Y-13773150D02*
X10598150Y-13716000D01*
X10541000Y-13658850D01*
X10483850Y-13716000D01*
X10541000Y-13773150D01*
X12065000Y-8820150D02*
X12122150Y-8763000D01*
X12065000Y-8705850D01*
X12007850Y-8763000D01*
X12065000Y-8820150D01*
X12065000Y-9201150D02*
X12122150Y-9144000D01*
X12065000Y-9086850D01*
X12007850Y-9144000D01*
X12065000Y-9201150D01*
X12065000Y-9582150D02*
X12122150Y-9525000D01*
X12065000Y-9467850D01*
X12007850Y-9525000D01*
X12065000Y-9582150D01*
X12065000Y-9963150D02*
X12122150Y-9906000D01*
X12065000Y-9848850D01*
X12007850Y-9906000D01*
X12065000Y-9963150D01*
X12065000Y-10344150D02*
X12122150Y-10287000D01*
X12065000Y-10229850D01*
X12007850Y-10287000D01*
X12065000Y-10344150D01*
X12065000Y-10725150D02*
X12122150Y-10668000D01*
X12065000Y-10610850D01*
X12007850Y-10668000D01*
X12065000Y-10725150D01*
X12065000Y-11106150D02*
X12122150Y-11049000D01*
X12065000Y-10991850D01*
X12007850Y-11049000D01*
X12065000Y-11106150D01*
X12065000Y-11487150D02*
X12122150Y-11430000D01*
X12065000Y-11372850D01*
X12007850Y-11430000D01*
X12065000Y-11487150D01*
X12065000Y-11868150D02*
X12122150Y-11811000D01*
X12065000Y-11753850D01*
X12007850Y-11811000D01*
X12065000Y-11868150D01*
X12065000Y-12249150D02*
X12122150Y-12192000D01*
X12065000Y-12134850D01*
X12007850Y-12192000D01*
X12065000Y-12249150D01*
X12065000Y-12630150D02*
X12122150Y-12573000D01*
X12065000Y-12515850D01*
X12007850Y-12573000D01*
X12065000Y-12630150D01*
X12065000Y-13011150D02*
X12122150Y-12954000D01*
X12065000Y-12896850D01*
X12007850Y-12954000D01*
X12065000Y-13011150D01*
X12065000Y-13392150D02*
X12122150Y-13335000D01*
X12065000Y-13277850D01*
X12007850Y-13335000D01*
X12065000Y-13392150D01*
X12065000Y-13773150D02*
X12122150Y-13716000D01*
X12065000Y-13658850D01*
X12007850Y-13716000D01*
X12065000Y-13773150D01*
X12573000Y-8820150D02*
X12630150Y-8763000D01*
X12573000Y-8705850D01*
X12515850Y-8763000D01*
X12573000Y-8820150D01*
X12573000Y-9201150D02*
X12630150Y-9144000D01*
X12573000Y-9086850D01*
X12515850Y-9144000D01*
X12573000Y-9201150D01*
X12573000Y-9582150D02*
X12630150Y-9525000D01*
X12573000Y-9467850D01*
X12515850Y-9525000D01*
X12573000Y-9582150D01*
X12573000Y-9963150D02*
X12630150Y-9906000D01*
X12573000Y-9848850D01*
X12515850Y-9906000D01*
X12573000Y-9963150D01*
X12573000Y-10344150D02*
X12630150Y-10287000D01*
X12573000Y-10229850D01*
X12515850Y-10287000D01*
X12573000Y-10344150D01*
X12573000Y-10725150D02*
X12630150Y-10668000D01*
X12573000Y-10610850D01*
X12515850Y-10668000D01*
X12573000Y-10725150D01*
X12573000Y-11106150D02*
X12630150Y-11049000D01*
X12573000Y-10991850D01*
X12515850Y-11049000D01*
X12573000Y-11106150D01*
X12573000Y-11487150D02*
X12630150Y-11430000D01*
X12573000Y-11372850D01*
X12515850Y-11430000D01*
X12573000Y-11487150D01*
X12573000Y-11868150D02*
X12630150Y-11811000D01*
X12573000Y-11753850D01*
X12515850Y-11811000D01*
X12573000Y-11868150D01*
X12573000Y-12249150D02*
X12630150Y-12192000D01*
X12573000Y-12134850D01*
X12515850Y-12192000D01*
X12573000Y-12249150D01*
X12573000Y-12630150D02*
X12630150Y-12573000D01*
X12573000Y-12515850D01*
X12515850Y-12573000D01*
X12573000Y-12630150D01*
X12573000Y-13011150D02*
X12630150Y-12954000D01*
X12573000Y-12896850D01*
X12515850Y-12954000D01*
X12573000Y-13011150D01*
X12573000Y-13392150D02*
X12630150Y-13335000D01*
X12573000Y-13277850D01*
X12515850Y-13335000D01*
X12573000Y-13392150D01*
X12573000Y-13773150D02*
X12630150Y-13716000D01*
X12573000Y-13658850D01*
X12515850Y-13716000D01*
X12573000Y-13773150D01*
X13843000Y-8820150D02*
X13900150Y-8763000D01*
X13843000Y-8705850D01*
X13785850Y-8763000D01*
X13843000Y-8820150D01*
X13843000Y-9201150D02*
X13900150Y-9144000D01*
X13843000Y-9086850D01*
X13785850Y-9144000D01*
X13843000Y-9201150D01*
X13843000Y-9582150D02*
X13900150Y-9525000D01*
X13843000Y-9467850D01*
X13785850Y-9525000D01*
X13843000Y-9582150D01*
X13843000Y-9963150D02*
X13900150Y-9906000D01*
X13843000Y-9848850D01*
X13785850Y-9906000D01*
X13843000Y-9963150D01*
X13843000Y-10344150D02*
X13900150Y-10287000D01*
X13843000Y-10229850D01*
X13785850Y-10287000D01*
X13843000Y-10344150D01*
X13843000Y-10725150D02*
X13900150Y-10668000D01*
X13843000Y-10610850D01*
X13785850Y-10668000D01*
X13843000Y-10725150D01*
X13843000Y-11106150D02*
X13900150Y-11049000D01*
X13843000Y-10991850D01*
X13785850Y-11049000D01*
X13843000Y-11106150D01*
X13843000Y-11487150D02*
X13900150Y-11430000D01*
X13843000Y-11372850D01*
X13785850Y-11430000D01*
X13843000Y-11487150D01*
X13843000Y-11868150D02*
X13900150Y-11811000D01*
X13843000Y-11753850D01*
X13785850Y-11811000D01*
X13843000Y-11868150D01*
X13843000Y-12249150D02*
X13900150Y-12192000D01*
X13843000Y-12134850D01*
X13785850Y-12192000D01*
X13843000Y-12249150D01*
X13843000Y-12630150D02*
X13900150Y-12573000D01*
X13843000Y-12515850D01*
X13785850Y-12573000D01*
X13843000Y-12630150D01*
X13843000Y-13011150D02*
X13900150Y-12954000D01*
X13843000Y-12896850D01*
X13785850Y-12954000D01*
X13843000Y-13011150D01*
X13843000Y-13392150D02*
X13900150Y-13335000D01*
X13843000Y-13277850D01*
X13785850Y-13335000D01*
X13843000Y-13392150D01*
X13843000Y-13773150D02*
X13900150Y-13716000D01*
X13843000Y-13658850D01*
X13785850Y-13716000D01*
X13843000Y-13773150D01*
X15494000Y-8883650D02*
X15551150Y-8826500D01*
X15494000Y-8769350D01*
X15436850Y-8826500D01*
X15494000Y-8883650D01*
X15494000Y-9772650D02*
X15551150Y-9715500D01*
X15494000Y-9658350D01*
X15436850Y-9715500D01*
X15494000Y-9772650D01*
X15494000Y-11550650D02*
X15551150Y-11493500D01*
X15494000Y-11436350D01*
X15436850Y-11493500D01*
X15494000Y-11550650D01*
X17018000Y-8883650D02*
X17075150Y-8826500D01*
X17018000Y-8769350D01*
X16960850Y-8826500D01*
X17018000Y-8883650D01*
X17018000Y-9772650D02*
X17075150Y-9715500D01*
X17018000Y-9658350D01*
X16960850Y-9715500D01*
X17018000Y-9772650D01*
X17018000Y-11550650D02*
X17075150Y-11493500D01*
X17018000Y-11436350D01*
X16960850Y-11493500D01*
X17018000Y-11550650D01*
X17716500Y-8375650D02*
X17773650Y-8318500D01*
X17716500Y-8261350D01*
X17659350Y-8318500D01*
X17716500Y-8375650D01*
X17716500Y-9899650D02*
X17773650Y-9842500D01*
X17716500Y-9785350D01*
X17659350Y-9842500D01*
X17716500Y-9899650D01*
X17716500Y-10852150D02*
X17773650Y-10795000D01*
X17716500Y-10737850D01*
X17659350Y-10795000D01*
X17716500Y-10852150D01*
X17716500Y-12376150D02*
X17773650Y-12319000D01*
X17716500Y-12261850D01*
X17659350Y-12319000D01*
X17716500Y-12376150D01*
X18986500Y-10852150D02*
X19043650Y-10795000D01*
X18986500Y-10737850D01*
X18929350Y-10795000D01*
X18986500Y-10852150D01*
X18986500Y-12376150D02*
X19043650Y-12319000D01*
X18986500Y-12261850D01*
X18929350Y-12319000D01*
X18986500Y-12376150D01*
X19685000Y-8883650D02*
X19742150Y-8826500D01*
X19685000Y-8769350D01*
X19627850Y-8826500D01*
X19685000Y-8883650D01*
X19685000Y-10661650D02*
X19742150Y-10604500D01*
X19685000Y-10547350D01*
X19627850Y-10604500D01*
X19685000Y-10661650D01*
X19685000Y-11550650D02*
X19742150Y-11493500D01*
X19685000Y-11436350D01*
X19627850Y-11493500D01*
X19685000Y-11550650D01*
X21209000Y-8883650D02*
X21266150Y-8826500D01*
X21209000Y-8769350D01*
X21151850Y-8826500D01*
X21209000Y-8883650D01*
X21209000Y-10661650D02*
X21266150Y-10604500D01*
X21209000Y-10547350D01*
X21151850Y-10604500D01*
X21209000Y-10661650D01*
X21209000Y-11550650D02*
X21266150Y-11493500D01*
X21209000Y-11436350D01*
X21151850Y-11493500D01*
X21209000Y-11550650D01*
X15303500Y-8318500D02*
X15430500Y-8445500D01*
X15430500Y-8318500D02*
X15303500Y-8445500D01*
X15430500Y-8382000D02*
G75*
G03X15430500Y-8382000I-63500J0D01*
G01*
X15303500Y-9207500D02*
X15430500Y-9334500D01*
X15430500Y-9207500D02*
X15303500Y-9334500D01*
X15430500Y-9271000D02*
G75*
G03X15430500Y-9271000I-63500J0D01*
G01*
X15303500Y-10096500D02*
X15430500Y-10223500D01*
X15430500Y-10096500D02*
X15303500Y-10223500D01*
X15430500Y-10160000D02*
G75*
G03X15430500Y-10160000I-63500J0D01*
G01*
X15303500Y-10985500D02*
X15430500Y-11112500D01*
X15430500Y-10985500D02*
X15303500Y-11112500D01*
X15430500Y-11049000D02*
G75*
G03X15430500Y-11049000I-63500J0D01*
G01*
X15303500Y-11874500D02*
X15430500Y-12001500D01*
X15430500Y-11874500D02*
X15303500Y-12001500D01*
X15430500Y-11938000D02*
G75*
G03X15430500Y-11938000I-63500J0D01*
G01*
X15303500Y-12763500D02*
X15430500Y-12890500D01*
X15430500Y-12763500D02*
X15303500Y-12890500D01*
X15430500Y-12827000D02*
G75*
G03X15430500Y-12827000I-63500J0D01*
G01*
X15303500Y-13652500D02*
X15430500Y-13779500D01*
X15430500Y-13652500D02*
X15303500Y-13779500D01*
X15430500Y-13716000D02*
G75*
G03X15430500Y-13716000I-63500J0D01*
G01*
X17081500Y-8318500D02*
X17208500Y-8445500D01*
X17208500Y-8318500D02*
X17081500Y-8445500D01*
X17208500Y-8382000D02*
G75*
G03X17208500Y-8382000I-63500J0D01*
G01*
X17081500Y-9207500D02*
X17208500Y-9334500D01*
X17208500Y-9207500D02*
X17081500Y-9334500D01*
X17208500Y-9271000D02*
G75*
G03X17208500Y-9271000I-63500J0D01*
G01*
X17081500Y-10096500D02*
X17208500Y-10223500D01*
X17208500Y-10096500D02*
X17081500Y-10223500D01*
X17208500Y-10160000D02*
G75*
G03X17208500Y-10160000I-63500J0D01*
G01*
X17081500Y-10985500D02*
X17208500Y-11112500D01*
X17208500Y-10985500D02*
X17081500Y-11112500D01*
X17208500Y-11049000D02*
G75*
G03X17208500Y-11049000I-63500J0D01*
G01*
X17081500Y-11874500D02*
X17208500Y-12001500D01*
X17208500Y-11874500D02*
X17081500Y-12001500D01*
X17208500Y-11938000D02*
G75*
G03X17208500Y-11938000I-63500J0D01*
G01*
X17081500Y-12763500D02*
X17208500Y-12890500D01*
X17208500Y-12763500D02*
X17081500Y-12890500D01*
X17208500Y-12827000D02*
G75*
G03X17208500Y-12827000I-63500J0D01*
G01*
X17081500Y-13652500D02*
X17208500Y-13779500D01*
X17208500Y-13652500D02*
X17081500Y-13779500D01*
X17208500Y-13716000D02*
G75*
G03X17208500Y-13716000I-63500J0D01*
G01*
X19494500Y-8318500D02*
X19621500Y-8445500D01*
X19621500Y-8318500D02*
X19494500Y-8445500D01*
X19621500Y-8382000D02*
G75*
G03X19621500Y-8382000I-63500J0D01*
G01*
X19494500Y-9207500D02*
X19621500Y-9334500D01*
X19621500Y-9207500D02*
X19494500Y-9334500D01*
X19621500Y-9271000D02*
G75*
G03X19621500Y-9271000I-63500J0D01*
G01*
X19494500Y-10096500D02*
X19621500Y-10223500D01*
X19621500Y-10096500D02*
X19494500Y-10223500D01*
X19621500Y-10160000D02*
G75*
G03X19621500Y-10160000I-63500J0D01*
G01*
X19494500Y-10985500D02*
X19621500Y-11112500D01*
X19621500Y-10985500D02*
X19494500Y-11112500D01*
X19621500Y-11049000D02*
G75*
G03X19621500Y-11049000I-63500J0D01*
G01*
X19494500Y-11874500D02*
X19621500Y-12001500D01*
X19621500Y-11874500D02*
X19494500Y-12001500D01*
X19621500Y-11938000D02*
G75*
G03X19621500Y-11938000I-63500J0D01*
G01*
X19494500Y-12763500D02*
X19621500Y-12890500D01*
X19621500Y-12763500D02*
X19494500Y-12890500D01*
X19621500Y-12827000D02*
G75*
G03X19621500Y-12827000I-63500J0D01*
G01*
X19494500Y-13652500D02*
X19621500Y-13779500D01*
X19621500Y-13652500D02*
X19494500Y-13779500D01*
X19621500Y-13716000D02*
G75*
G03X19621500Y-13716000I-63500J0D01*
G01*
X21272500Y-8318500D02*
X21399500Y-8445500D01*
X21399500Y-8318500D02*
X21272500Y-8445500D01*
X21399500Y-8382000D02*
G75*
G03X21399500Y-8382000I-63500J0D01*
G01*
X21272500Y-9207500D02*
X21399500Y-9334500D01*
X21399500Y-9207500D02*
X21272500Y-9334500D01*
X21399500Y-9271000D02*
G75*
G03X21399500Y-9271000I-63500J0D01*
G01*
X21272500Y-10096500D02*
X21399500Y-10223500D01*
X21399500Y-10096500D02*
X21272500Y-10223500D01*
X21399500Y-10160000D02*
G75*
G03X21399500Y-10160000I-63500J0D01*
G01*
X21272500Y-10985500D02*
X21399500Y-11112500D01*
X21399500Y-10985500D02*
X21272500Y-11112500D01*
X21399500Y-11049000D02*
G75*
G03X21399500Y-11049000I-63500J0D01*
G01*
X21272500Y-11874500D02*
X21399500Y-12001500D01*
X21399500Y-11874500D02*
X21272500Y-12001500D01*
X21399500Y-11938000D02*
G75*
G03X21399500Y-11938000I-63500J0D01*
G01*
X21272500Y-12763500D02*
X21399500Y-12890500D01*
X21399500Y-12763500D02*
X21272500Y-12890500D01*
X21399500Y-12827000D02*
G75*
G03X21399500Y-12827000I-63500J0D01*
G01*
X21272500Y-13652500D02*
X21399500Y-13779500D01*
X21399500Y-13652500D02*
X21272500Y-13779500D01*
X21399500Y-13716000D02*
G75*
G03X21399500Y-13716000I-63500J0D01*
G01*
D13*
X8189878Y-14899264D02*
X8189878Y-14599264D01*
X8261307Y-14599264D01*
X8304164Y-14613550D01*
X8332736Y-14642121D01*
X8347021Y-14670693D01*
X8361307Y-14727836D01*
X8361307Y-14770693D01*
X8347021Y-14827836D01*
X8332736Y-14856407D01*
X8304164Y-14884979D01*
X8261307Y-14899264D01*
X8189878Y-14899264D01*
X8489879Y-14899264D02*
X8489879Y-14699264D01*
X8489879Y-14756407D02*
X8504164Y-14727836D01*
X8518450Y-14713550D01*
X8547021Y-14699264D01*
X8575593Y-14699264D01*
X8675593Y-14899264D02*
X8675593Y-14699264D01*
X8675593Y-14599264D02*
X8661307Y-14613550D01*
X8675593Y-14627836D01*
X8689879Y-14613550D01*
X8675593Y-14599264D01*
X8675593Y-14627836D01*
X8861307Y-14899264D02*
X8832736Y-14884979D01*
X8818450Y-14856407D01*
X8818450Y-14599264D01*
X9018450Y-14899264D02*
X8989879Y-14884979D01*
X8975593Y-14856407D01*
X8975593Y-14599264D01*
X9361307Y-14899264D02*
X9361307Y-14599264D01*
X9461307Y-14813550D01*
X9561307Y-14599264D01*
X9561307Y-14899264D01*
X9832736Y-14899264D02*
X9832736Y-14742121D01*
X9818450Y-14713550D01*
X9789879Y-14699264D01*
X9732736Y-14699264D01*
X9704164Y-14713550D01*
X9832736Y-14884979D02*
X9804164Y-14899264D01*
X9732736Y-14899264D01*
X9704164Y-14884979D01*
X9689879Y-14856407D01*
X9689879Y-14827836D01*
X9704164Y-14799264D01*
X9732736Y-14784979D01*
X9804164Y-14784979D01*
X9832736Y-14770693D01*
X9975593Y-14699264D02*
X9975593Y-14999264D01*
X9975593Y-14713550D02*
X10004164Y-14699264D01*
X10061307Y-14699264D01*
X10089879Y-14713550D01*
X10104164Y-14727836D01*
X10118450Y-14756407D01*
X10118450Y-14842121D01*
X10104164Y-14870693D01*
X10089879Y-14884979D01*
X10061307Y-14899264D01*
X10004164Y-14899264D01*
X9975593Y-14884979D01*
X10247021Y-14870693D02*
X10261307Y-14884979D01*
X10247021Y-14899264D01*
X10232736Y-14884979D01*
X10247021Y-14870693D01*
X10247021Y-14899264D01*
X10247021Y-14713550D02*
X10261307Y-14727836D01*
X10247021Y-14742121D01*
X10232736Y-14727836D01*
X10247021Y-14713550D01*
X10247021Y-14742121D01*
X7865110Y-15366880D02*
X7918450Y-15420220D01*
X7918450Y-15366880D02*
X7865110Y-15420220D01*
X8247021Y-15229264D02*
X8275593Y-15229264D01*
X8304164Y-15243550D01*
X8318450Y-15257836D01*
X8332736Y-15286407D01*
X8347021Y-15343550D01*
X8347021Y-15414979D01*
X8332736Y-15472121D01*
X8318450Y-15500693D01*
X8304164Y-15514979D01*
X8275593Y-15529264D01*
X8247021Y-15529264D01*
X8218450Y-15514979D01*
X8204164Y-15500693D01*
X8189878Y-15472121D01*
X8175593Y-15414979D01*
X8175593Y-15343550D01*
X8189878Y-15286407D01*
X8204164Y-15257836D01*
X8218450Y-15243550D01*
X8247021Y-15229264D01*
X8475593Y-15500693D02*
X8489879Y-15514979D01*
X8475593Y-15529264D01*
X8461307Y-15514979D01*
X8475593Y-15500693D01*
X8475593Y-15529264D01*
X8761307Y-15229264D02*
X8618450Y-15229264D01*
X8604164Y-15372121D01*
X8618450Y-15357836D01*
X8647021Y-15343550D01*
X8718450Y-15343550D01*
X8747021Y-15357836D01*
X8761307Y-15372121D01*
X8775593Y-15400693D01*
X8775593Y-15472121D01*
X8761307Y-15500693D01*
X8747021Y-15514979D01*
X8718450Y-15529264D01*
X8647021Y-15529264D01*
X8618450Y-15514979D01*
X8604164Y-15500693D01*
X8875593Y-15229264D02*
X9061307Y-15229264D01*
X8961307Y-15343550D01*
X9004164Y-15343550D01*
X9032736Y-15357836D01*
X9047021Y-15372121D01*
X9061307Y-15400693D01*
X9061307Y-15472121D01*
X9047021Y-15500693D01*
X9032736Y-15514979D01*
X9004164Y-15529264D01*
X8918450Y-15529264D01*
X8889879Y-15514979D01*
X8875593Y-15500693D01*
X9189879Y-15529264D02*
X9189879Y-15329264D01*
X9189879Y-15357836D02*
X9204164Y-15343550D01*
X9232736Y-15329264D01*
X9275593Y-15329264D01*
X9304164Y-15343550D01*
X9318450Y-15372121D01*
X9318450Y-15529264D01*
X9318450Y-15372121D02*
X9332736Y-15343550D01*
X9361307Y-15329264D01*
X9404164Y-15329264D01*
X9432736Y-15343550D01*
X9447021Y-15372121D01*
X9447021Y-15529264D01*
X9589879Y-15529264D02*
X9589879Y-15329264D01*
X9589879Y-15357836D02*
X9604164Y-15343550D01*
X9632736Y-15329264D01*
X9675593Y-15329264D01*
X9704164Y-15343550D01*
X9718450Y-15372121D01*
X9718450Y-15529264D01*
X9718450Y-15372121D02*
X9732736Y-15343550D01*
X9761307Y-15329264D01*
X9804164Y-15329264D01*
X9832736Y-15343550D01*
X9847021Y-15372121D01*
X9847021Y-15529264D01*
X10432736Y-15214979D02*
X10175593Y-15600693D01*
X10818450Y-15229264D02*
X10847021Y-15229264D01*
X10875593Y-15243550D01*
X10889878Y-15257836D01*
X10904164Y-15286407D01*
X10918450Y-15343550D01*
X10918450Y-15414979D01*
X10904164Y-15472121D01*
X10889878Y-15500693D01*
X10875593Y-15514979D01*
X10847021Y-15529264D01*
X10818450Y-15529264D01*
X10789878Y-15514979D01*
X10775593Y-15500693D01*
X10761307Y-15472121D01*
X10747021Y-15414979D01*
X10747021Y-15343550D01*
X10761307Y-15286407D01*
X10775593Y-15257836D01*
X10789878Y-15243550D01*
X10818450Y-15229264D01*
X11047021Y-15500693D02*
X11061307Y-15514979D01*
X11047021Y-15529264D01*
X11032736Y-15514979D01*
X11047021Y-15500693D01*
X11047021Y-15529264D01*
X11247021Y-15229264D02*
X11275593Y-15229264D01*
X11304164Y-15243550D01*
X11318450Y-15257836D01*
X11332735Y-15286407D01*
X11347021Y-15343550D01*
X11347021Y-15414979D01*
X11332735Y-15472121D01*
X11318450Y-15500693D01*
X11304164Y-15514979D01*
X11275593Y-15529264D01*
X11247021Y-15529264D01*
X11218450Y-15514979D01*
X11204164Y-15500693D01*
X11189878Y-15472121D01*
X11175593Y-15414979D01*
X11175593Y-15343550D01*
X11189878Y-15286407D01*
X11204164Y-15257836D01*
X11218450Y-15243550D01*
X11247021Y-15229264D01*
X11461307Y-15257836D02*
X11475593Y-15243550D01*
X11504164Y-15229264D01*
X11575593Y-15229264D01*
X11604164Y-15243550D01*
X11618450Y-15257836D01*
X11632735Y-15286407D01*
X11632735Y-15314979D01*
X11618450Y-15357836D01*
X11447021Y-15529264D01*
X11632735Y-15529264D01*
X11918450Y-15529264D02*
X11747021Y-15529264D01*
X11832735Y-15529264D02*
X11832735Y-15229264D01*
X11804164Y-15272121D01*
X11775593Y-15300693D01*
X11747021Y-15314979D01*
X12032736Y-15229264D02*
X12032736Y-15286407D01*
X12147021Y-15229264D02*
X12147021Y-15286407D01*
X12589878Y-15643550D02*
X12575593Y-15629264D01*
X12547021Y-15586407D01*
X12532735Y-15557836D01*
X12518450Y-15514979D01*
X12504164Y-15443550D01*
X12504164Y-15386407D01*
X12518450Y-15314979D01*
X12532735Y-15272121D01*
X12547021Y-15243550D01*
X12575593Y-15200693D01*
X12589878Y-15186407D01*
X12861307Y-15529264D02*
X12689878Y-15529264D01*
X12775593Y-15529264D02*
X12775593Y-15229264D01*
X12747021Y-15272121D01*
X12718450Y-15300693D01*
X12689878Y-15314979D01*
X13032735Y-15357836D02*
X13004164Y-15343550D01*
X12989878Y-15329264D01*
X12975593Y-15300693D01*
X12975593Y-15286407D01*
X12989878Y-15257836D01*
X13004164Y-15243550D01*
X13032735Y-15229264D01*
X13089878Y-15229264D01*
X13118450Y-15243550D01*
X13132735Y-15257836D01*
X13147021Y-15286407D01*
X13147021Y-15300693D01*
X13132735Y-15329264D01*
X13118450Y-15343550D01*
X13089878Y-15357836D01*
X13032735Y-15357836D01*
X13004164Y-15372121D01*
X12989878Y-15386407D01*
X12975593Y-15414979D01*
X12975593Y-15472121D01*
X12989878Y-15500693D01*
X13004164Y-15514979D01*
X13032735Y-15529264D01*
X13089878Y-15529264D01*
X13118450Y-15514979D01*
X13132735Y-15500693D01*
X13147021Y-15472121D01*
X13147021Y-15414979D01*
X13132735Y-15386407D01*
X13118450Y-15372121D01*
X13089878Y-15357836D01*
X13504164Y-15529264D02*
X13504164Y-15229264D01*
X13632735Y-15529264D02*
X13632735Y-15372121D01*
X13618450Y-15343550D01*
X13589878Y-15329264D01*
X13547021Y-15329264D01*
X13518450Y-15343550D01*
X13504164Y-15357836D01*
X13818450Y-15529264D02*
X13789878Y-15514979D01*
X13775593Y-15500693D01*
X13761307Y-15472121D01*
X13761307Y-15386407D01*
X13775593Y-15357836D01*
X13789878Y-15343550D01*
X13818450Y-15329264D01*
X13861307Y-15329264D01*
X13889878Y-15343550D01*
X13904164Y-15357836D01*
X13918450Y-15386407D01*
X13918450Y-15472121D01*
X13904164Y-15500693D01*
X13889878Y-15514979D01*
X13861307Y-15529264D01*
X13818450Y-15529264D01*
X14089878Y-15529264D02*
X14061307Y-15514979D01*
X14047021Y-15486407D01*
X14047021Y-15229264D01*
X14318450Y-15514979D02*
X14289878Y-15529264D01*
X14232736Y-15529264D01*
X14204164Y-15514979D01*
X14189878Y-15486407D01*
X14189878Y-15372121D01*
X14204164Y-15343550D01*
X14232736Y-15329264D01*
X14289878Y-15329264D01*
X14318450Y-15343550D01*
X14332736Y-15372121D01*
X14332736Y-15400693D01*
X14189878Y-15429264D01*
X14447021Y-15514979D02*
X14475593Y-15529264D01*
X14532736Y-15529264D01*
X14561307Y-15514979D01*
X14575593Y-15486407D01*
X14575593Y-15472121D01*
X14561307Y-15443550D01*
X14532736Y-15429264D01*
X14489878Y-15429264D01*
X14461307Y-15414979D01*
X14447021Y-15386407D01*
X14447021Y-15372121D01*
X14461307Y-15343550D01*
X14489878Y-15329264D01*
X14532736Y-15329264D01*
X14561307Y-15343550D01*
X14675593Y-15643550D02*
X14689878Y-15629264D01*
X14718450Y-15586407D01*
X14732736Y-15557836D01*
X14747021Y-15514979D01*
X14761307Y-15443550D01*
X14761307Y-15386407D01*
X14747021Y-15314979D01*
X14732736Y-15272121D01*
X14718450Y-15243550D01*
X14689878Y-15200693D01*
X14675593Y-15186407D01*
X7918450Y-15789550D02*
G75*
G03X7918450Y-15789550I-40640J0D01*
G01*
X8247021Y-15625264D02*
X8275593Y-15625264D01*
X8304164Y-15639550D01*
X8318450Y-15653836D01*
X8332736Y-15682407D01*
X8347021Y-15739550D01*
X8347021Y-15810979D01*
X8332736Y-15868121D01*
X8318450Y-15896693D01*
X8304164Y-15910979D01*
X8275593Y-15925264D01*
X8247021Y-15925264D01*
X8218450Y-15910979D01*
X8204164Y-15896693D01*
X8189878Y-15868121D01*
X8175593Y-15810979D01*
X8175593Y-15739550D01*
X8189878Y-15682407D01*
X8204164Y-15653836D01*
X8218450Y-15639550D01*
X8247021Y-15625264D01*
X8475593Y-15896693D02*
X8489879Y-15910979D01*
X8475593Y-15925264D01*
X8461307Y-15910979D01*
X8475593Y-15896693D01*
X8475593Y-15925264D01*
X8661307Y-15753836D02*
X8632736Y-15739550D01*
X8618450Y-15725264D01*
X8604164Y-15696693D01*
X8604164Y-15682407D01*
X8618450Y-15653836D01*
X8632736Y-15639550D01*
X8661307Y-15625264D01*
X8718450Y-15625264D01*
X8747021Y-15639550D01*
X8761307Y-15653836D01*
X8775593Y-15682407D01*
X8775593Y-15696693D01*
X8761307Y-15725264D01*
X8747021Y-15739550D01*
X8718450Y-15753836D01*
X8661307Y-15753836D01*
X8632736Y-15768121D01*
X8618450Y-15782407D01*
X8604164Y-15810979D01*
X8604164Y-15868121D01*
X8618450Y-15896693D01*
X8632736Y-15910979D01*
X8661307Y-15925264D01*
X8718450Y-15925264D01*
X8747021Y-15910979D01*
X8761307Y-15896693D01*
X8775593Y-15868121D01*
X8775593Y-15810979D01*
X8761307Y-15782407D01*
X8747021Y-15768121D01*
X8718450Y-15753836D01*
X9061307Y-15925264D02*
X8889879Y-15925264D01*
X8975593Y-15925264D02*
X8975593Y-15625264D01*
X8947021Y-15668121D01*
X8918450Y-15696693D01*
X8889879Y-15710979D01*
X9189879Y-15925264D02*
X9189879Y-15725264D01*
X9189879Y-15753836D02*
X9204164Y-15739550D01*
X9232736Y-15725264D01*
X9275593Y-15725264D01*
X9304164Y-15739550D01*
X9318450Y-15768121D01*
X9318450Y-15925264D01*
X9318450Y-15768121D02*
X9332736Y-15739550D01*
X9361307Y-15725264D01*
X9404164Y-15725264D01*
X9432736Y-15739550D01*
X9447021Y-15768121D01*
X9447021Y-15925264D01*
X9589879Y-15925264D02*
X9589879Y-15725264D01*
X9589879Y-15753836D02*
X9604164Y-15739550D01*
X9632736Y-15725264D01*
X9675593Y-15725264D01*
X9704164Y-15739550D01*
X9718450Y-15768121D01*
X9718450Y-15925264D01*
X9718450Y-15768121D02*
X9732736Y-15739550D01*
X9761307Y-15725264D01*
X9804164Y-15725264D01*
X9832736Y-15739550D01*
X9847021Y-15768121D01*
X9847021Y-15925264D01*
X10432736Y-15610979D02*
X10175593Y-15996693D01*
X10818450Y-15625264D02*
X10847021Y-15625264D01*
X10875593Y-15639550D01*
X10889878Y-15653836D01*
X10904164Y-15682407D01*
X10918450Y-15739550D01*
X10918450Y-15810979D01*
X10904164Y-15868121D01*
X10889878Y-15896693D01*
X10875593Y-15910979D01*
X10847021Y-15925264D01*
X10818450Y-15925264D01*
X10789878Y-15910979D01*
X10775593Y-15896693D01*
X10761307Y-15868121D01*
X10747021Y-15810979D01*
X10747021Y-15739550D01*
X10761307Y-15682407D01*
X10775593Y-15653836D01*
X10789878Y-15639550D01*
X10818450Y-15625264D01*
X11047021Y-15896693D02*
X11061307Y-15910979D01*
X11047021Y-15925264D01*
X11032736Y-15910979D01*
X11047021Y-15896693D01*
X11047021Y-15925264D01*
X11247021Y-15625264D02*
X11275593Y-15625264D01*
X11304164Y-15639550D01*
X11318450Y-15653836D01*
X11332735Y-15682407D01*
X11347021Y-15739550D01*
X11347021Y-15810979D01*
X11332735Y-15868121D01*
X11318450Y-15896693D01*
X11304164Y-15910979D01*
X11275593Y-15925264D01*
X11247021Y-15925264D01*
X11218450Y-15910979D01*
X11204164Y-15896693D01*
X11189878Y-15868121D01*
X11175593Y-15810979D01*
X11175593Y-15739550D01*
X11189878Y-15682407D01*
X11204164Y-15653836D01*
X11218450Y-15639550D01*
X11247021Y-15625264D01*
X11447021Y-15625264D02*
X11632735Y-15625264D01*
X11532735Y-15739550D01*
X11575593Y-15739550D01*
X11604164Y-15753836D01*
X11618450Y-15768121D01*
X11632735Y-15796693D01*
X11632735Y-15868121D01*
X11618450Y-15896693D01*
X11604164Y-15910979D01*
X11575593Y-15925264D01*
X11489878Y-15925264D01*
X11461307Y-15910979D01*
X11447021Y-15896693D01*
X11747021Y-15653836D02*
X11761307Y-15639550D01*
X11789878Y-15625264D01*
X11861307Y-15625264D01*
X11889878Y-15639550D01*
X11904164Y-15653836D01*
X11918450Y-15682407D01*
X11918450Y-15710979D01*
X11904164Y-15753836D01*
X11732735Y-15925264D01*
X11918450Y-15925264D01*
X12032736Y-15625264D02*
X12032736Y-15682407D01*
X12147021Y-15625264D02*
X12147021Y-15682407D01*
X12589878Y-16039550D02*
X12575593Y-16025264D01*
X12547021Y-15982407D01*
X12532735Y-15953836D01*
X12518450Y-15910979D01*
X12504164Y-15839550D01*
X12504164Y-15782407D01*
X12518450Y-15710979D01*
X12532735Y-15668121D01*
X12547021Y-15639550D01*
X12575593Y-15596693D01*
X12589878Y-15582407D01*
X12832735Y-15725264D02*
X12832735Y-15925264D01*
X12761307Y-15610979D02*
X12689878Y-15825264D01*
X12875593Y-15825264D01*
X13118450Y-15725264D02*
X13118450Y-15925264D01*
X13047021Y-15610979D02*
X12975593Y-15825264D01*
X13161307Y-15825264D01*
X13504164Y-15925264D02*
X13504164Y-15625264D01*
X13632735Y-15925264D02*
X13632735Y-15768121D01*
X13618450Y-15739550D01*
X13589878Y-15725264D01*
X13547021Y-15725264D01*
X13518450Y-15739550D01*
X13504164Y-15753836D01*
X13818450Y-15925264D02*
X13789878Y-15910979D01*
X13775593Y-15896693D01*
X13761307Y-15868121D01*
X13761307Y-15782407D01*
X13775593Y-15753836D01*
X13789878Y-15739550D01*
X13818450Y-15725264D01*
X13861307Y-15725264D01*
X13889878Y-15739550D01*
X13904164Y-15753836D01*
X13918450Y-15782407D01*
X13918450Y-15868121D01*
X13904164Y-15896693D01*
X13889878Y-15910979D01*
X13861307Y-15925264D01*
X13818450Y-15925264D01*
X14089878Y-15925264D02*
X14061307Y-15910979D01*
X14047021Y-15882407D01*
X14047021Y-15625264D01*
X14318450Y-15910979D02*
X14289878Y-15925264D01*
X14232736Y-15925264D01*
X14204164Y-15910979D01*
X14189878Y-15882407D01*
X14189878Y-15768121D01*
X14204164Y-15739550D01*
X14232736Y-15725264D01*
X14289878Y-15725264D01*
X14318450Y-15739550D01*
X14332736Y-15768121D01*
X14332736Y-15796693D01*
X14189878Y-15825264D01*
X14447021Y-15910979D02*
X14475593Y-15925264D01*
X14532736Y-15925264D01*
X14561307Y-15910979D01*
X14575593Y-15882407D01*
X14575593Y-15868121D01*
X14561307Y-15839550D01*
X14532736Y-15825264D01*
X14489878Y-15825264D01*
X14461307Y-15810979D01*
X14447021Y-15782407D01*
X14447021Y-15768121D01*
X14461307Y-15739550D01*
X14489878Y-15725264D01*
X14532736Y-15725264D01*
X14561307Y-15739550D01*
X14675593Y-16039550D02*
X14689878Y-16025264D01*
X14718450Y-15982407D01*
X14732736Y-15953836D01*
X14747021Y-15910979D01*
X14761307Y-15839550D01*
X14761307Y-15782407D01*
X14747021Y-15710979D01*
X14732736Y-15668121D01*
X14718450Y-15639550D01*
X14689878Y-15596693D01*
X14675593Y-15582407D01*
X7868412Y-16135512D02*
X7868412Y-16235588D01*
X7818374Y-16185550D02*
X7918450Y-16185550D01*
X8347021Y-16321264D02*
X8175593Y-16321264D01*
X8261307Y-16321264D02*
X8261307Y-16021264D01*
X8232736Y-16064121D01*
X8204164Y-16092693D01*
X8175593Y-16106979D01*
X8475593Y-16292693D02*
X8489879Y-16306979D01*
X8475593Y-16321264D01*
X8461307Y-16306979D01*
X8475593Y-16292693D01*
X8475593Y-16321264D01*
X8675593Y-16021264D02*
X8704164Y-16021264D01*
X8732736Y-16035550D01*
X8747021Y-16049836D01*
X8761307Y-16078407D01*
X8775593Y-16135550D01*
X8775593Y-16206979D01*
X8761307Y-16264121D01*
X8747021Y-16292693D01*
X8732736Y-16306979D01*
X8704164Y-16321264D01*
X8675593Y-16321264D01*
X8647021Y-16306979D01*
X8632736Y-16292693D01*
X8618450Y-16264121D01*
X8604164Y-16206979D01*
X8604164Y-16135550D01*
X8618450Y-16078407D01*
X8632736Y-16049836D01*
X8647021Y-16035550D01*
X8675593Y-16021264D01*
X8961307Y-16021264D02*
X8989879Y-16021264D01*
X9018450Y-16035550D01*
X9032736Y-16049836D01*
X9047021Y-16078407D01*
X9061307Y-16135550D01*
X9061307Y-16206979D01*
X9047021Y-16264121D01*
X9032736Y-16292693D01*
X9018450Y-16306979D01*
X8989879Y-16321264D01*
X8961307Y-16321264D01*
X8932736Y-16306979D01*
X8918450Y-16292693D01*
X8904164Y-16264121D01*
X8889879Y-16206979D01*
X8889879Y-16135550D01*
X8904164Y-16078407D01*
X8918450Y-16049836D01*
X8932736Y-16035550D01*
X8961307Y-16021264D01*
X9189879Y-16321264D02*
X9189879Y-16121264D01*
X9189879Y-16149836D02*
X9204164Y-16135550D01*
X9232736Y-16121264D01*
X9275593Y-16121264D01*
X9304164Y-16135550D01*
X9318450Y-16164121D01*
X9318450Y-16321264D01*
X9318450Y-16164121D02*
X9332736Y-16135550D01*
X9361307Y-16121264D01*
X9404164Y-16121264D01*
X9432736Y-16135550D01*
X9447021Y-16164121D01*
X9447021Y-16321264D01*
X9589879Y-16321264D02*
X9589879Y-16121264D01*
X9589879Y-16149836D02*
X9604164Y-16135550D01*
X9632736Y-16121264D01*
X9675593Y-16121264D01*
X9704164Y-16135550D01*
X9718450Y-16164121D01*
X9718450Y-16321264D01*
X9718450Y-16164121D02*
X9732736Y-16135550D01*
X9761307Y-16121264D01*
X9804164Y-16121264D01*
X9832736Y-16135550D01*
X9847021Y-16164121D01*
X9847021Y-16321264D01*
X10432736Y-16006979D02*
X10175593Y-16392693D01*
X10818450Y-16021264D02*
X10847021Y-16021264D01*
X10875593Y-16035550D01*
X10889878Y-16049836D01*
X10904164Y-16078407D01*
X10918450Y-16135550D01*
X10918450Y-16206979D01*
X10904164Y-16264121D01*
X10889878Y-16292693D01*
X10875593Y-16306979D01*
X10847021Y-16321264D01*
X10818450Y-16321264D01*
X10789878Y-16306979D01*
X10775593Y-16292693D01*
X10761307Y-16264121D01*
X10747021Y-16206979D01*
X10747021Y-16135550D01*
X10761307Y-16078407D01*
X10775593Y-16049836D01*
X10789878Y-16035550D01*
X10818450Y-16021264D01*
X11047021Y-16292693D02*
X11061307Y-16306979D01*
X11047021Y-16321264D01*
X11032736Y-16306979D01*
X11047021Y-16292693D01*
X11047021Y-16321264D01*
X11247021Y-16021264D02*
X11275593Y-16021264D01*
X11304164Y-16035550D01*
X11318450Y-16049836D01*
X11332735Y-16078407D01*
X11347021Y-16135550D01*
X11347021Y-16206979D01*
X11332735Y-16264121D01*
X11318450Y-16292693D01*
X11304164Y-16306979D01*
X11275593Y-16321264D01*
X11247021Y-16321264D01*
X11218450Y-16306979D01*
X11204164Y-16292693D01*
X11189878Y-16264121D01*
X11175593Y-16206979D01*
X11175593Y-16135550D01*
X11189878Y-16078407D01*
X11204164Y-16049836D01*
X11218450Y-16035550D01*
X11247021Y-16021264D01*
X11447021Y-16021264D02*
X11632735Y-16021264D01*
X11532735Y-16135550D01*
X11575593Y-16135550D01*
X11604164Y-16149836D01*
X11618450Y-16164121D01*
X11632735Y-16192693D01*
X11632735Y-16264121D01*
X11618450Y-16292693D01*
X11604164Y-16306979D01*
X11575593Y-16321264D01*
X11489878Y-16321264D01*
X11461307Y-16306979D01*
X11447021Y-16292693D01*
X11775593Y-16321264D02*
X11832735Y-16321264D01*
X11861307Y-16306979D01*
X11875593Y-16292693D01*
X11904164Y-16249836D01*
X11918450Y-16192693D01*
X11918450Y-16078407D01*
X11904164Y-16049836D01*
X11889878Y-16035550D01*
X11861307Y-16021264D01*
X11804164Y-16021264D01*
X11775593Y-16035550D01*
X11761307Y-16049836D01*
X11747021Y-16078407D01*
X11747021Y-16149836D01*
X11761307Y-16178407D01*
X11775593Y-16192693D01*
X11804164Y-16206979D01*
X11861307Y-16206979D01*
X11889878Y-16192693D01*
X11904164Y-16178407D01*
X11918450Y-16149836D01*
X12032736Y-16021264D02*
X12032736Y-16078407D01*
X12147021Y-16021264D02*
X12147021Y-16078407D01*
X12589878Y-16435550D02*
X12575593Y-16421264D01*
X12547021Y-16378407D01*
X12532735Y-16349836D01*
X12518450Y-16306979D01*
X12504164Y-16235550D01*
X12504164Y-16178407D01*
X12518450Y-16106979D01*
X12532735Y-16064121D01*
X12547021Y-16035550D01*
X12575593Y-15992693D01*
X12589878Y-15978407D01*
X12747021Y-16149836D02*
X12718450Y-16135550D01*
X12704164Y-16121264D01*
X12689878Y-16092693D01*
X12689878Y-16078407D01*
X12704164Y-16049836D01*
X12718450Y-16035550D01*
X12747021Y-16021264D01*
X12804164Y-16021264D01*
X12832735Y-16035550D01*
X12847021Y-16049836D01*
X12861307Y-16078407D01*
X12861307Y-16092693D01*
X12847021Y-16121264D01*
X12832735Y-16135550D01*
X12804164Y-16149836D01*
X12747021Y-16149836D01*
X12718450Y-16164121D01*
X12704164Y-16178407D01*
X12689878Y-16206979D01*
X12689878Y-16264121D01*
X12704164Y-16292693D01*
X12718450Y-16306979D01*
X12747021Y-16321264D01*
X12804164Y-16321264D01*
X12832735Y-16306979D01*
X12847021Y-16292693D01*
X12861307Y-16264121D01*
X12861307Y-16206979D01*
X12847021Y-16178407D01*
X12832735Y-16164121D01*
X12804164Y-16149836D01*
X13218450Y-16321264D02*
X13218450Y-16021264D01*
X13347021Y-16321264D02*
X13347021Y-16164121D01*
X13332735Y-16135550D01*
X13304164Y-16121264D01*
X13261307Y-16121264D01*
X13232735Y-16135550D01*
X13218450Y-16149836D01*
X13532735Y-16321264D02*
X13504164Y-16306979D01*
X13489878Y-16292693D01*
X13475593Y-16264121D01*
X13475593Y-16178407D01*
X13489878Y-16149836D01*
X13504164Y-16135550D01*
X13532735Y-16121264D01*
X13575593Y-16121264D01*
X13604164Y-16135550D01*
X13618450Y-16149836D01*
X13632735Y-16178407D01*
X13632735Y-16264121D01*
X13618450Y-16292693D01*
X13604164Y-16306979D01*
X13575593Y-16321264D01*
X13532735Y-16321264D01*
X13804164Y-16321264D02*
X13775593Y-16306979D01*
X13761307Y-16278407D01*
X13761307Y-16021264D01*
X14032736Y-16306979D02*
X14004164Y-16321264D01*
X13947021Y-16321264D01*
X13918450Y-16306979D01*
X13904164Y-16278407D01*
X13904164Y-16164121D01*
X13918450Y-16135550D01*
X13947021Y-16121264D01*
X14004164Y-16121264D01*
X14032736Y-16135550D01*
X14047021Y-16164121D01*
X14047021Y-16192693D01*
X13904164Y-16221264D01*
X14161307Y-16306979D02*
X14189878Y-16321264D01*
X14247021Y-16321264D01*
X14275593Y-16306979D01*
X14289878Y-16278407D01*
X14289878Y-16264121D01*
X14275593Y-16235550D01*
X14247021Y-16221264D01*
X14204164Y-16221264D01*
X14175593Y-16206979D01*
X14161307Y-16178407D01*
X14161307Y-16164121D01*
X14175593Y-16135550D01*
X14204164Y-16121264D01*
X14247021Y-16121264D01*
X14275593Y-16135550D01*
X14389878Y-16435550D02*
X14404164Y-16421264D01*
X14432736Y-16378407D01*
X14447021Y-16349836D01*
X14461307Y-16306979D01*
X14475593Y-16235550D01*
X14475593Y-16178407D01*
X14461307Y-16106979D01*
X14447021Y-16064121D01*
X14432736Y-16035550D01*
X14404164Y-15992693D01*
X14389878Y-15978407D01*
X7903571Y-16617471D02*
X7903571Y-16545629D01*
X7831728Y-16545629D01*
X7831728Y-16617471D01*
X7903571Y-16617471D01*
X8347021Y-16717264D02*
X8175593Y-16717264D01*
X8261307Y-16717264D02*
X8261307Y-16417264D01*
X8232736Y-16460121D01*
X8204164Y-16488693D01*
X8175593Y-16502979D01*
X8475593Y-16688693D02*
X8489879Y-16702979D01*
X8475593Y-16717264D01*
X8461307Y-16702979D01*
X8475593Y-16688693D01*
X8475593Y-16717264D01*
X8675593Y-16417264D02*
X8704164Y-16417264D01*
X8732736Y-16431550D01*
X8747021Y-16445836D01*
X8761307Y-16474407D01*
X8775593Y-16531550D01*
X8775593Y-16602979D01*
X8761307Y-16660121D01*
X8747021Y-16688693D01*
X8732736Y-16702979D01*
X8704164Y-16717264D01*
X8675593Y-16717264D01*
X8647021Y-16702979D01*
X8632736Y-16688693D01*
X8618450Y-16660121D01*
X8604164Y-16602979D01*
X8604164Y-16531550D01*
X8618450Y-16474407D01*
X8632736Y-16445836D01*
X8647021Y-16431550D01*
X8675593Y-16417264D01*
X8889879Y-16445836D02*
X8904164Y-16431550D01*
X8932736Y-16417264D01*
X9004164Y-16417264D01*
X9032736Y-16431550D01*
X9047021Y-16445836D01*
X9061307Y-16474407D01*
X9061307Y-16502979D01*
X9047021Y-16545836D01*
X8875593Y-16717264D01*
X9061307Y-16717264D01*
X9189879Y-16717264D02*
X9189879Y-16517264D01*
X9189879Y-16545836D02*
X9204164Y-16531550D01*
X9232736Y-16517264D01*
X9275593Y-16517264D01*
X9304164Y-16531550D01*
X9318450Y-16560121D01*
X9318450Y-16717264D01*
X9318450Y-16560121D02*
X9332736Y-16531550D01*
X9361307Y-16517264D01*
X9404164Y-16517264D01*
X9432736Y-16531550D01*
X9447021Y-16560121D01*
X9447021Y-16717264D01*
X9589879Y-16717264D02*
X9589879Y-16517264D01*
X9589879Y-16545836D02*
X9604164Y-16531550D01*
X9632736Y-16517264D01*
X9675593Y-16517264D01*
X9704164Y-16531550D01*
X9718450Y-16560121D01*
X9718450Y-16717264D01*
X9718450Y-16560121D02*
X9732736Y-16531550D01*
X9761307Y-16517264D01*
X9804164Y-16517264D01*
X9832736Y-16531550D01*
X9847021Y-16560121D01*
X9847021Y-16717264D01*
X10432736Y-16402979D02*
X10175593Y-16788693D01*
X10818450Y-16417264D02*
X10847021Y-16417264D01*
X10875593Y-16431550D01*
X10889878Y-16445836D01*
X10904164Y-16474407D01*
X10918450Y-16531550D01*
X10918450Y-16602979D01*
X10904164Y-16660121D01*
X10889878Y-16688693D01*
X10875593Y-16702979D01*
X10847021Y-16717264D01*
X10818450Y-16717264D01*
X10789878Y-16702979D01*
X10775593Y-16688693D01*
X10761307Y-16660121D01*
X10747021Y-16602979D01*
X10747021Y-16531550D01*
X10761307Y-16474407D01*
X10775593Y-16445836D01*
X10789878Y-16431550D01*
X10818450Y-16417264D01*
X11047021Y-16688693D02*
X11061307Y-16702979D01*
X11047021Y-16717264D01*
X11032736Y-16702979D01*
X11047021Y-16688693D01*
X11047021Y-16717264D01*
X11247021Y-16417264D02*
X11275593Y-16417264D01*
X11304164Y-16431550D01*
X11318450Y-16445836D01*
X11332735Y-16474407D01*
X11347021Y-16531550D01*
X11347021Y-16602979D01*
X11332735Y-16660121D01*
X11318450Y-16688693D01*
X11304164Y-16702979D01*
X11275593Y-16717264D01*
X11247021Y-16717264D01*
X11218450Y-16702979D01*
X11204164Y-16688693D01*
X11189878Y-16660121D01*
X11175593Y-16602979D01*
X11175593Y-16531550D01*
X11189878Y-16474407D01*
X11204164Y-16445836D01*
X11218450Y-16431550D01*
X11247021Y-16417264D01*
X11604164Y-16517264D02*
X11604164Y-16717264D01*
X11532735Y-16402979D02*
X11461307Y-16617264D01*
X11647021Y-16617264D01*
X11818450Y-16417264D02*
X11847021Y-16417264D01*
X11875593Y-16431550D01*
X11889878Y-16445836D01*
X11904164Y-16474407D01*
X11918450Y-16531550D01*
X11918450Y-16602979D01*
X11904164Y-16660121D01*
X11889878Y-16688693D01*
X11875593Y-16702979D01*
X11847021Y-16717264D01*
X11818450Y-16717264D01*
X11789878Y-16702979D01*
X11775593Y-16688693D01*
X11761307Y-16660121D01*
X11747021Y-16602979D01*
X11747021Y-16531550D01*
X11761307Y-16474407D01*
X11775593Y-16445836D01*
X11789878Y-16431550D01*
X11818450Y-16417264D01*
X12032736Y-16417264D02*
X12032736Y-16474407D01*
X12147021Y-16417264D02*
X12147021Y-16474407D01*
X12589878Y-16831550D02*
X12575593Y-16817264D01*
X12547021Y-16774407D01*
X12532735Y-16745836D01*
X12518450Y-16702979D01*
X12504164Y-16631550D01*
X12504164Y-16574407D01*
X12518450Y-16502979D01*
X12532735Y-16460121D01*
X12547021Y-16431550D01*
X12575593Y-16388693D01*
X12589878Y-16374407D01*
X12689878Y-16445836D02*
X12704164Y-16431550D01*
X12732735Y-16417264D01*
X12804164Y-16417264D01*
X12832735Y-16431550D01*
X12847021Y-16445836D01*
X12861307Y-16474407D01*
X12861307Y-16502979D01*
X12847021Y-16545836D01*
X12675593Y-16717264D01*
X12861307Y-16717264D01*
X13218450Y-16717264D02*
X13218450Y-16417264D01*
X13347021Y-16717264D02*
X13347021Y-16560121D01*
X13332735Y-16531550D01*
X13304164Y-16517264D01*
X13261307Y-16517264D01*
X13232735Y-16531550D01*
X13218450Y-16545836D01*
X13532735Y-16717264D02*
X13504164Y-16702979D01*
X13489878Y-16688693D01*
X13475593Y-16660121D01*
X13475593Y-16574407D01*
X13489878Y-16545836D01*
X13504164Y-16531550D01*
X13532735Y-16517264D01*
X13575593Y-16517264D01*
X13604164Y-16531550D01*
X13618450Y-16545836D01*
X13632735Y-16574407D01*
X13632735Y-16660121D01*
X13618450Y-16688693D01*
X13604164Y-16702979D01*
X13575593Y-16717264D01*
X13532735Y-16717264D01*
X13804164Y-16717264D02*
X13775593Y-16702979D01*
X13761307Y-16674407D01*
X13761307Y-16417264D01*
X14032736Y-16702979D02*
X14004164Y-16717264D01*
X13947021Y-16717264D01*
X13918450Y-16702979D01*
X13904164Y-16674407D01*
X13904164Y-16560121D01*
X13918450Y-16531550D01*
X13947021Y-16517264D01*
X14004164Y-16517264D01*
X14032736Y-16531550D01*
X14047021Y-16560121D01*
X14047021Y-16588693D01*
X13904164Y-16617264D01*
X14161307Y-16702979D02*
X14189878Y-16717264D01*
X14247021Y-16717264D01*
X14275593Y-16702979D01*
X14289878Y-16674407D01*
X14289878Y-16660121D01*
X14275593Y-16631550D01*
X14247021Y-16617264D01*
X14204164Y-16617264D01*
X14175593Y-16602979D01*
X14161307Y-16574407D01*
X14161307Y-16560121D01*
X14175593Y-16531550D01*
X14204164Y-16517264D01*
X14247021Y-16517264D01*
X14275593Y-16531550D01*
X14389878Y-16831550D02*
X14404164Y-16817264D01*
X14432736Y-16774407D01*
X14447021Y-16745836D01*
X14461307Y-16702979D01*
X14475593Y-16631550D01*
X14475593Y-16574407D01*
X14461307Y-16502979D01*
X14447021Y-16460121D01*
X14432736Y-16431550D01*
X14404164Y-16388693D01*
X14389878Y-16374407D01*
X7861300Y-17034700D02*
X7918450Y-16977550D01*
X7861300Y-16920400D01*
X7804150Y-16977550D01*
X7861300Y-17034700D01*
X8347021Y-17113264D02*
X8175593Y-17113264D01*
X8261307Y-17113264D02*
X8261307Y-16813264D01*
X8232736Y-16856122D01*
X8204164Y-16884693D01*
X8175593Y-16898979D01*
X8475593Y-17084693D02*
X8489879Y-17098979D01*
X8475593Y-17113264D01*
X8461307Y-17098979D01*
X8475593Y-17084693D01*
X8475593Y-17113264D01*
X8775593Y-17113264D02*
X8604164Y-17113264D01*
X8689878Y-17113264D02*
X8689878Y-16813264D01*
X8661307Y-16856122D01*
X8632736Y-16884693D01*
X8604164Y-16898979D01*
X9032736Y-16913264D02*
X9032736Y-17113264D01*
X8961307Y-16798979D02*
X8889879Y-17013264D01*
X9075593Y-17013264D01*
X9189879Y-17113264D02*
X9189879Y-16913264D01*
X9189879Y-16941836D02*
X9204164Y-16927550D01*
X9232736Y-16913264D01*
X9275593Y-16913264D01*
X9304164Y-16927550D01*
X9318450Y-16956122D01*
X9318450Y-17113264D01*
X9318450Y-16956122D02*
X9332736Y-16927550D01*
X9361307Y-16913264D01*
X9404164Y-16913264D01*
X9432736Y-16927550D01*
X9447021Y-16956122D01*
X9447021Y-17113264D01*
X9589879Y-17113264D02*
X9589879Y-16913264D01*
X9589879Y-16941836D02*
X9604164Y-16927550D01*
X9632736Y-16913264D01*
X9675593Y-16913264D01*
X9704164Y-16927550D01*
X9718450Y-16956122D01*
X9718450Y-17113264D01*
X9718450Y-16956122D02*
X9732736Y-16927550D01*
X9761307Y-16913264D01*
X9804164Y-16913264D01*
X9832736Y-16927550D01*
X9847021Y-16956122D01*
X9847021Y-17113264D01*
X10432736Y-16798979D02*
X10175593Y-17184693D01*
X10818450Y-16813264D02*
X10847021Y-16813264D01*
X10875593Y-16827550D01*
X10889878Y-16841836D01*
X10904164Y-16870407D01*
X10918450Y-16927550D01*
X10918450Y-16998979D01*
X10904164Y-17056122D01*
X10889878Y-17084693D01*
X10875593Y-17098979D01*
X10847021Y-17113264D01*
X10818450Y-17113264D01*
X10789878Y-17098979D01*
X10775593Y-17084693D01*
X10761307Y-17056122D01*
X10747021Y-16998979D01*
X10747021Y-16927550D01*
X10761307Y-16870407D01*
X10775593Y-16841836D01*
X10789878Y-16827550D01*
X10818450Y-16813264D01*
X11047021Y-17084693D02*
X11061307Y-17098979D01*
X11047021Y-17113264D01*
X11032736Y-17098979D01*
X11047021Y-17084693D01*
X11047021Y-17113264D01*
X11247021Y-16813264D02*
X11275593Y-16813264D01*
X11304164Y-16827550D01*
X11318450Y-16841836D01*
X11332735Y-16870407D01*
X11347021Y-16927550D01*
X11347021Y-16998979D01*
X11332735Y-17056122D01*
X11318450Y-17084693D01*
X11304164Y-17098979D01*
X11275593Y-17113264D01*
X11247021Y-17113264D01*
X11218450Y-17098979D01*
X11204164Y-17084693D01*
X11189878Y-17056122D01*
X11175593Y-16998979D01*
X11175593Y-16927550D01*
X11189878Y-16870407D01*
X11204164Y-16841836D01*
X11218450Y-16827550D01*
X11247021Y-16813264D01*
X11604164Y-16913264D02*
X11604164Y-17113264D01*
X11532735Y-16798979D02*
X11461307Y-17013264D01*
X11647021Y-17013264D01*
X11904164Y-16813264D02*
X11761307Y-16813264D01*
X11747021Y-16956122D01*
X11761307Y-16941836D01*
X11789878Y-16927550D01*
X11861307Y-16927550D01*
X11889878Y-16941836D01*
X11904164Y-16956122D01*
X11918450Y-16984693D01*
X11918450Y-17056122D01*
X11904164Y-17084693D01*
X11889878Y-17098979D01*
X11861307Y-17113264D01*
X11789878Y-17113264D01*
X11761307Y-17098979D01*
X11747021Y-17084693D01*
X12032736Y-16813264D02*
X12032736Y-16870407D01*
X12147021Y-16813264D02*
X12147021Y-16870407D01*
X12589878Y-17227550D02*
X12575593Y-17213264D01*
X12547021Y-17170407D01*
X12532735Y-17141836D01*
X12518450Y-17098979D01*
X12504164Y-17027550D01*
X12504164Y-16970407D01*
X12518450Y-16898979D01*
X12532735Y-16856122D01*
X12547021Y-16827550D01*
X12575593Y-16784693D01*
X12589878Y-16770407D01*
X12675593Y-16813264D02*
X12875593Y-16813264D01*
X12747021Y-17113264D01*
X13118450Y-16913264D02*
X13118450Y-17113264D01*
X13047021Y-16798979D02*
X12975593Y-17013264D01*
X13161307Y-17013264D01*
X13504164Y-17113264D02*
X13504164Y-16813264D01*
X13632735Y-17113264D02*
X13632735Y-16956122D01*
X13618450Y-16927550D01*
X13589878Y-16913264D01*
X13547021Y-16913264D01*
X13518450Y-16927550D01*
X13504164Y-16941836D01*
X13818450Y-17113264D02*
X13789878Y-17098979D01*
X13775593Y-17084693D01*
X13761307Y-17056122D01*
X13761307Y-16970407D01*
X13775593Y-16941836D01*
X13789878Y-16927550D01*
X13818450Y-16913264D01*
X13861307Y-16913264D01*
X13889878Y-16927550D01*
X13904164Y-16941836D01*
X13918450Y-16970407D01*
X13918450Y-17056122D01*
X13904164Y-17084693D01*
X13889878Y-17098979D01*
X13861307Y-17113264D01*
X13818450Y-17113264D01*
X14089878Y-17113264D02*
X14061307Y-17098979D01*
X14047021Y-17070407D01*
X14047021Y-16813264D01*
X14318450Y-17098979D02*
X14289878Y-17113264D01*
X14232736Y-17113264D01*
X14204164Y-17098979D01*
X14189878Y-17070407D01*
X14189878Y-16956122D01*
X14204164Y-16927550D01*
X14232736Y-16913264D01*
X14289878Y-16913264D01*
X14318450Y-16927550D01*
X14332736Y-16956122D01*
X14332736Y-16984693D01*
X14189878Y-17013264D01*
X14447021Y-17098979D02*
X14475593Y-17113264D01*
X14532736Y-17113264D01*
X14561307Y-17098979D01*
X14575593Y-17070407D01*
X14575593Y-17056122D01*
X14561307Y-17027550D01*
X14532736Y-17013264D01*
X14489878Y-17013264D01*
X14461307Y-16998979D01*
X14447021Y-16970407D01*
X14447021Y-16956122D01*
X14461307Y-16927550D01*
X14489878Y-16913264D01*
X14532736Y-16913264D01*
X14561307Y-16927550D01*
X14675593Y-17227550D02*
X14689878Y-17213264D01*
X14718450Y-17170407D01*
X14732736Y-17141836D01*
X14747021Y-17098979D01*
X14761307Y-17027550D01*
X14761307Y-16970407D01*
X14747021Y-16898979D01*
X14732736Y-16856122D01*
X14718450Y-16827550D01*
X14689878Y-16784693D01*
X14675593Y-16770407D01*
X7791450Y-17310050D02*
X7918450Y-17437050D01*
X7918450Y-17310050D02*
X7791450Y-17437050D01*
X7918450Y-17373550D02*
G75*
G03X7918450Y-17373550I-63500J0D01*
G01*
X8347021Y-17509264D02*
X8175593Y-17509264D01*
X8261307Y-17509264D02*
X8261307Y-17209264D01*
X8232736Y-17252122D01*
X8204164Y-17280693D01*
X8175593Y-17294979D01*
X8475593Y-17480693D02*
X8489879Y-17494979D01*
X8475593Y-17509264D01*
X8461307Y-17494979D01*
X8475593Y-17480693D01*
X8475593Y-17509264D01*
X8604164Y-17237836D02*
X8618450Y-17223550D01*
X8647021Y-17209264D01*
X8718450Y-17209264D01*
X8747021Y-17223550D01*
X8761307Y-17237836D01*
X8775593Y-17266407D01*
X8775593Y-17294979D01*
X8761307Y-17337836D01*
X8589878Y-17509264D01*
X8775593Y-17509264D01*
X8875593Y-17209264D02*
X9075593Y-17209264D01*
X8947021Y-17509264D01*
X9189879Y-17509264D02*
X9189879Y-17309264D01*
X9189879Y-17337836D02*
X9204164Y-17323550D01*
X9232736Y-17309264D01*
X9275593Y-17309264D01*
X9304164Y-17323550D01*
X9318450Y-17352122D01*
X9318450Y-17509264D01*
X9318450Y-17352122D02*
X9332736Y-17323550D01*
X9361307Y-17309264D01*
X9404164Y-17309264D01*
X9432736Y-17323550D01*
X9447021Y-17352122D01*
X9447021Y-17509264D01*
X9589879Y-17509264D02*
X9589879Y-17309264D01*
X9589879Y-17337836D02*
X9604164Y-17323550D01*
X9632736Y-17309264D01*
X9675593Y-17309264D01*
X9704164Y-17323550D01*
X9718450Y-17352122D01*
X9718450Y-17509264D01*
X9718450Y-17352122D02*
X9732736Y-17323550D01*
X9761307Y-17309264D01*
X9804164Y-17309264D01*
X9832736Y-17323550D01*
X9847021Y-17352122D01*
X9847021Y-17509264D01*
X10432736Y-17194979D02*
X10175593Y-17580693D01*
X10818450Y-17209264D02*
X10847021Y-17209264D01*
X10875593Y-17223550D01*
X10889878Y-17237836D01*
X10904164Y-17266407D01*
X10918450Y-17323550D01*
X10918450Y-17394979D01*
X10904164Y-17452122D01*
X10889878Y-17480693D01*
X10875593Y-17494979D01*
X10847021Y-17509264D01*
X10818450Y-17509264D01*
X10789878Y-17494979D01*
X10775593Y-17480693D01*
X10761307Y-17452122D01*
X10747021Y-17394979D01*
X10747021Y-17323550D01*
X10761307Y-17266407D01*
X10775593Y-17237836D01*
X10789878Y-17223550D01*
X10818450Y-17209264D01*
X11047021Y-17480693D02*
X11061307Y-17494979D01*
X11047021Y-17509264D01*
X11032736Y-17494979D01*
X11047021Y-17480693D01*
X11047021Y-17509264D01*
X11247021Y-17209264D02*
X11275593Y-17209264D01*
X11304164Y-17223550D01*
X11318450Y-17237836D01*
X11332735Y-17266407D01*
X11347021Y-17323550D01*
X11347021Y-17394979D01*
X11332735Y-17452122D01*
X11318450Y-17480693D01*
X11304164Y-17494979D01*
X11275593Y-17509264D01*
X11247021Y-17509264D01*
X11218450Y-17494979D01*
X11204164Y-17480693D01*
X11189878Y-17452122D01*
X11175593Y-17394979D01*
X11175593Y-17323550D01*
X11189878Y-17266407D01*
X11204164Y-17237836D01*
X11218450Y-17223550D01*
X11247021Y-17209264D01*
X11618450Y-17209264D02*
X11475593Y-17209264D01*
X11461307Y-17352122D01*
X11475593Y-17337836D01*
X11504164Y-17323550D01*
X11575593Y-17323550D01*
X11604164Y-17337836D01*
X11618450Y-17352122D01*
X11632735Y-17380693D01*
X11632735Y-17452122D01*
X11618450Y-17480693D01*
X11604164Y-17494979D01*
X11575593Y-17509264D01*
X11504164Y-17509264D01*
X11475593Y-17494979D01*
X11461307Y-17480693D01*
X11818450Y-17209264D02*
X11847021Y-17209264D01*
X11875593Y-17223550D01*
X11889878Y-17237836D01*
X11904164Y-17266407D01*
X11918450Y-17323550D01*
X11918450Y-17394979D01*
X11904164Y-17452122D01*
X11889878Y-17480693D01*
X11875593Y-17494979D01*
X11847021Y-17509264D01*
X11818450Y-17509264D01*
X11789878Y-17494979D01*
X11775593Y-17480693D01*
X11761307Y-17452122D01*
X11747021Y-17394979D01*
X11747021Y-17323550D01*
X11761307Y-17266407D01*
X11775593Y-17237836D01*
X11789878Y-17223550D01*
X11818450Y-17209264D01*
X12032736Y-17209264D02*
X12032736Y-17266407D01*
X12147021Y-17209264D02*
X12147021Y-17266407D01*
X12589878Y-17623550D02*
X12575593Y-17609264D01*
X12547021Y-17566407D01*
X12532735Y-17537836D01*
X12518450Y-17494979D01*
X12504164Y-17423550D01*
X12504164Y-17366407D01*
X12518450Y-17294979D01*
X12532735Y-17252122D01*
X12547021Y-17223550D01*
X12575593Y-17180693D01*
X12589878Y-17166407D01*
X12689878Y-17237836D02*
X12704164Y-17223550D01*
X12732735Y-17209264D01*
X12804164Y-17209264D01*
X12832735Y-17223550D01*
X12847021Y-17237836D01*
X12861307Y-17266407D01*
X12861307Y-17294979D01*
X12847021Y-17337836D01*
X12675593Y-17509264D01*
X12861307Y-17509264D01*
X13032735Y-17337836D02*
X13004164Y-17323550D01*
X12989878Y-17309264D01*
X12975593Y-17280693D01*
X12975593Y-17266407D01*
X12989878Y-17237836D01*
X13004164Y-17223550D01*
X13032735Y-17209264D01*
X13089878Y-17209264D01*
X13118450Y-17223550D01*
X13132735Y-17237836D01*
X13147021Y-17266407D01*
X13147021Y-17280693D01*
X13132735Y-17309264D01*
X13118450Y-17323550D01*
X13089878Y-17337836D01*
X13032735Y-17337836D01*
X13004164Y-17352122D01*
X12989878Y-17366407D01*
X12975593Y-17394979D01*
X12975593Y-17452122D01*
X12989878Y-17480693D01*
X13004164Y-17494979D01*
X13032735Y-17509264D01*
X13089878Y-17509264D01*
X13118450Y-17494979D01*
X13132735Y-17480693D01*
X13147021Y-17452122D01*
X13147021Y-17394979D01*
X13132735Y-17366407D01*
X13118450Y-17352122D01*
X13089878Y-17337836D01*
X13504164Y-17509264D02*
X13504164Y-17209264D01*
X13632735Y-17509264D02*
X13632735Y-17352122D01*
X13618450Y-17323550D01*
X13589878Y-17309264D01*
X13547021Y-17309264D01*
X13518450Y-17323550D01*
X13504164Y-17337836D01*
X13818450Y-17509264D02*
X13789878Y-17494979D01*
X13775593Y-17480693D01*
X13761307Y-17452122D01*
X13761307Y-17366407D01*
X13775593Y-17337836D01*
X13789878Y-17323550D01*
X13818450Y-17309264D01*
X13861307Y-17309264D01*
X13889878Y-17323550D01*
X13904164Y-17337836D01*
X13918450Y-17366407D01*
X13918450Y-17452122D01*
X13904164Y-17480693D01*
X13889878Y-17494979D01*
X13861307Y-17509264D01*
X13818450Y-17509264D01*
X14089878Y-17509264D02*
X14061307Y-17494979D01*
X14047021Y-17466407D01*
X14047021Y-17209264D01*
X14318450Y-17494979D02*
X14289878Y-17509264D01*
X14232736Y-17509264D01*
X14204164Y-17494979D01*
X14189878Y-17466407D01*
X14189878Y-17352122D01*
X14204164Y-17323550D01*
X14232736Y-17309264D01*
X14289878Y-17309264D01*
X14318450Y-17323550D01*
X14332736Y-17352122D01*
X14332736Y-17380693D01*
X14189878Y-17409264D01*
X14447021Y-17494979D02*
X14475593Y-17509264D01*
X14532736Y-17509264D01*
X14561307Y-17494979D01*
X14575593Y-17466407D01*
X14575593Y-17452122D01*
X14561307Y-17423550D01*
X14532736Y-17409264D01*
X14489878Y-17409264D01*
X14461307Y-17394979D01*
X14447021Y-17366407D01*
X14447021Y-17352122D01*
X14461307Y-17323550D01*
X14489878Y-17309264D01*
X14532736Y-17309264D01*
X14561307Y-17323550D01*
X14675593Y-17623550D02*
X14689878Y-17609264D01*
X14718450Y-17566407D01*
X14732736Y-17537836D01*
X14747021Y-17494979D01*
X14761307Y-17423550D01*
X14761307Y-17366407D01*
X14747021Y-17294979D01*
X14732736Y-17252122D01*
X14718450Y-17223550D01*
X14689878Y-17180693D01*
X14675593Y-17166407D01*
M02*
