G04 #@! TF.FileFunction,Soldermask,Bot*
%FSLAX46Y46*%
G04 Gerber Fmt 4.6, Leading zero omitted, Abs format (unit mm)*
G04 Created by KiCad (PCBNEW 4.0.5+dfsg1-4+deb9u1) date Mon Sep 26 08:45:25 2022*
%MOMM*%
%LPD*%
G01*
G04 APERTURE LIST*
%ADD10C,0.100000*%
%ADD11C,0.381000*%
%ADD12C,3.399740*%
%ADD13C,1.797000*%
%ADD14R,1.797000X1.797000*%
%ADD15R,2.178000X2.178000*%
%ADD16C,2.178000*%
%ADD17C,1.924000*%
%ADD18C,2.051000*%
%ADD19R,2.051000X2.051000*%
G04 APERTURE END LIST*
D10*
D11*
X182245000Y-68580000D02*
X112395000Y-68580000D01*
X182245000Y-92710000D02*
X182245000Y-68580000D01*
X182245000Y-133350000D02*
X182245000Y-92710000D01*
X112395000Y-133350000D02*
X182245000Y-133350000D01*
X112395000Y-68580000D02*
X112395000Y-133350000D01*
D12*
X177165000Y-95250000D03*
X177165000Y-88900000D03*
X126365000Y-73660000D03*
X132715000Y-73660000D03*
X139065000Y-73660000D03*
X147955000Y-95250000D03*
X147955000Y-88900000D03*
X147955000Y-82550000D03*
X147955000Y-82550000D03*
X147955000Y-88900000D03*
X147955000Y-95250000D03*
X117475000Y-95250000D03*
X117475000Y-88900000D03*
X117475000Y-82550000D03*
X117475000Y-82550000D03*
X161925000Y-128270000D03*
X168275000Y-128270000D03*
X146685000Y-128270000D03*
X140335000Y-128270000D03*
X125095000Y-128270000D03*
X118745000Y-128270000D03*
X117475000Y-88900000D03*
X117475000Y-95250000D03*
D13*
X123825000Y-95250000D03*
X123825000Y-92710000D03*
X123825000Y-82550000D03*
X123825000Y-85090000D03*
X141605000Y-82550000D03*
X141605000Y-85090000D03*
X141605000Y-95250000D03*
X141605000Y-92710000D03*
D14*
X177165000Y-102235000D03*
D13*
X177165000Y-104775000D03*
D14*
X120015000Y-73660000D03*
D13*
X117475000Y-73660000D03*
D14*
X145415000Y-73660000D03*
D13*
X147955000Y-73660000D03*
D14*
X177165000Y-117475000D03*
D13*
X177165000Y-120015000D03*
D14*
X154305000Y-117475000D03*
D13*
X154305000Y-120015000D03*
D14*
X177165000Y-109855000D03*
D13*
X177165000Y-112395000D03*
D14*
X154305000Y-109855000D03*
D13*
X154305000Y-112395000D03*
D14*
X154305000Y-102235000D03*
D13*
X154305000Y-104775000D03*
D15*
X144145000Y-102870000D03*
D16*
X139065000Y-102870000D03*
D15*
X126365000Y-102870000D03*
D16*
X121285000Y-102870000D03*
X130175000Y-114300000D03*
D15*
X117475000Y-114300000D03*
D16*
X117475000Y-118110000D03*
D15*
X130175000Y-118110000D03*
D16*
X136525000Y-82550000D03*
D15*
X136525000Y-95250000D03*
D16*
X117475000Y-110490000D03*
D15*
X130175000Y-110490000D03*
D16*
X128905000Y-95250000D03*
D15*
X128905000Y-82550000D03*
D16*
X117475000Y-78740000D03*
D15*
X130175000Y-78740000D03*
D16*
X135255000Y-110490000D03*
D15*
X147955000Y-110490000D03*
D16*
X147955000Y-114300000D03*
D15*
X135255000Y-114300000D03*
D16*
X130175000Y-121920000D03*
D15*
X117475000Y-121920000D03*
D16*
X135255000Y-118110000D03*
D15*
X147955000Y-118110000D03*
D16*
X147955000Y-121920000D03*
D15*
X135255000Y-121920000D03*
D17*
X154305000Y-85090000D03*
X154305000Y-97790000D03*
D18*
X169545000Y-80010000D03*
X167005000Y-82550000D03*
D19*
X164465000Y-80010000D03*
D14*
X156845000Y-82550000D03*
D13*
X156845000Y-80010000D03*
X154305000Y-80010000D03*
D16*
X159385000Y-105410000D03*
D15*
X172085000Y-105410000D03*
D16*
X172085000Y-109220000D03*
D15*
X159385000Y-109220000D03*
D16*
X159385000Y-113030000D03*
D15*
X172085000Y-113030000D03*
D16*
X172085000Y-116840000D03*
D15*
X159385000Y-116840000D03*
D16*
X159385000Y-120650000D03*
D15*
X172085000Y-120650000D03*
D16*
X135255000Y-78740000D03*
D15*
X147955000Y-78740000D03*
D16*
X172085000Y-101600000D03*
D15*
X159385000Y-101600000D03*
X164465000Y-90170000D03*
D16*
X164465000Y-95250000D03*
D14*
X177165000Y-82550000D03*
D13*
X177165000Y-80010000D03*
M02*
