%FSLAX45Y45*%
G04 Gerber Fmt 4.5, Leading zero omitted, Abs format (unit mm)*
G04 Created by KiCad (PCBNEW 4.0.5+dfsg1-4+deb9u1) date Mon Sep 26 08:45:27 2022*
%MOMM*%
%LPD*%
G01*
G04 APERTURE LIST*
%ADD10C,0.127000*%
%ADD11C,0.381000*%
%ADD12C,0.200000*%
%ADD13C,0.300000*%
G04 APERTURE END LIST*
D10*
D11*
X18224500Y-6858000D02*
X11239500Y-6858000D01*
X18224500Y-9271000D02*
X18224500Y-6858000D01*
X18224500Y-13335000D02*
X18224500Y-9271000D01*
X11239500Y-13335000D02*
X18224500Y-13335000D01*
X11239500Y-6858000D02*
X11239500Y-13335000D01*
D12*
X16407130Y-7961630D02*
X16485870Y-8040370D01*
X16485870Y-7961630D02*
X16407130Y-8040370D01*
X16661130Y-8215630D02*
X16739870Y-8294370D01*
X16739870Y-8215630D02*
X16661130Y-8294370D01*
X16915130Y-7961630D02*
X16993870Y-8040370D01*
X16993870Y-7961630D02*
X16915130Y-8040370D01*
X11788140Y-7366000D02*
G75*
G03X11788140Y-7366000I-40640J0D01*
G01*
X12042140Y-7366000D02*
G75*
G03X12042140Y-7366000I-40640J0D01*
G01*
X12423140Y-8255000D02*
G75*
G03X12423140Y-8255000I-40640J0D01*
G01*
X12423140Y-8509000D02*
G75*
G03X12423140Y-8509000I-40640J0D01*
G01*
X12423140Y-9271000D02*
G75*
G03X12423140Y-9271000I-40640J0D01*
G01*
X12423140Y-9525000D02*
G75*
G03X12423140Y-9525000I-40640J0D01*
G01*
X14201140Y-8255000D02*
G75*
G03X14201140Y-8255000I-40640J0D01*
G01*
X14201140Y-8509000D02*
G75*
G03X14201140Y-8509000I-40640J0D01*
G01*
X14201140Y-9271000D02*
G75*
G03X14201140Y-9271000I-40640J0D01*
G01*
X14201140Y-9525000D02*
G75*
G03X14201140Y-9525000I-40640J0D01*
G01*
X14582140Y-7366000D02*
G75*
G03X14582140Y-7366000I-40640J0D01*
G01*
X14836140Y-7366000D02*
G75*
G03X14836140Y-7366000I-40640J0D01*
G01*
X15471140Y-8001000D02*
G75*
G03X15471140Y-8001000I-40640J0D01*
G01*
X15471140Y-8509000D02*
G75*
G03X15471140Y-8509000I-40640J0D01*
G01*
X15471140Y-9779000D02*
G75*
G03X15471140Y-9779000I-40640J0D01*
G01*
X15471140Y-10223500D02*
G75*
G03X15471140Y-10223500I-40640J0D01*
G01*
X15471140Y-10477500D02*
G75*
G03X15471140Y-10477500I-40640J0D01*
G01*
X15471140Y-10985500D02*
G75*
G03X15471140Y-10985500I-40640J0D01*
G01*
X15471140Y-11239500D02*
G75*
G03X15471140Y-11239500I-40640J0D01*
G01*
X15471140Y-11747500D02*
G75*
G03X15471140Y-11747500I-40640J0D01*
G01*
X15471140Y-12001500D02*
G75*
G03X15471140Y-12001500I-40640J0D01*
G01*
X15725140Y-8001000D02*
G75*
G03X15725140Y-8001000I-40640J0D01*
G01*
X15725140Y-8255000D02*
G75*
G03X15725140Y-8255000I-40640J0D01*
G01*
X17757140Y-8001000D02*
G75*
G03X17757140Y-8001000I-40640J0D01*
G01*
X17757140Y-8255000D02*
G75*
G03X17757140Y-8255000I-40640J0D01*
G01*
X17757140Y-10223500D02*
G75*
G03X17757140Y-10223500I-40640J0D01*
G01*
X17757140Y-10477500D02*
G75*
G03X17757140Y-10477500I-40640J0D01*
G01*
X17757140Y-10985500D02*
G75*
G03X17757140Y-10985500I-40640J0D01*
G01*
X17757140Y-11239500D02*
G75*
G03X17757140Y-11239500I-40640J0D01*
G01*
X17757140Y-11747500D02*
G75*
G03X17757140Y-11747500I-40640J0D01*
G01*
X17757140Y-12001500D02*
G75*
G03X17757140Y-12001500I-40640J0D01*
G01*
X11747500Y-7829550D02*
X11747500Y-7918450D01*
X11703050Y-7874000D02*
X11791950Y-7874000D01*
X11747500Y-11004550D02*
X11747500Y-11093450D01*
X11703050Y-11049000D02*
X11791950Y-11049000D01*
X11747500Y-11385550D02*
X11747500Y-11474450D01*
X11703050Y-11430000D02*
X11791950Y-11430000D01*
X11747500Y-11766550D02*
X11747500Y-11855450D01*
X11703050Y-11811000D02*
X11791950Y-11811000D01*
X11747500Y-12147550D02*
X11747500Y-12236450D01*
X11703050Y-12192000D02*
X11791950Y-12192000D01*
X12128500Y-10242550D02*
X12128500Y-10331450D01*
X12084050Y-10287000D02*
X12172950Y-10287000D01*
X12636500Y-10242550D02*
X12636500Y-10331450D01*
X12592050Y-10287000D02*
X12680950Y-10287000D01*
X12890500Y-8210550D02*
X12890500Y-8299450D01*
X12846050Y-8255000D02*
X12934950Y-8255000D01*
X12890500Y-9480550D02*
X12890500Y-9569450D01*
X12846050Y-9525000D02*
X12934950Y-9525000D01*
X13017500Y-7829550D02*
X13017500Y-7918450D01*
X12973050Y-7874000D02*
X13061950Y-7874000D01*
X13017500Y-11004550D02*
X13017500Y-11093450D01*
X12973050Y-11049000D02*
X13061950Y-11049000D01*
X13017500Y-11385550D02*
X13017500Y-11474450D01*
X12973050Y-11430000D02*
X13061950Y-11430000D01*
X13017500Y-11766550D02*
X13017500Y-11855450D01*
X12973050Y-11811000D02*
X13061950Y-11811000D01*
X13017500Y-12147550D02*
X13017500Y-12236450D01*
X12973050Y-12192000D02*
X13061950Y-12192000D01*
X13525500Y-7829550D02*
X13525500Y-7918450D01*
X13481050Y-7874000D02*
X13569950Y-7874000D01*
X13525500Y-11004550D02*
X13525500Y-11093450D01*
X13481050Y-11049000D02*
X13569950Y-11049000D01*
X13525500Y-11385550D02*
X13525500Y-11474450D01*
X13481050Y-11430000D02*
X13569950Y-11430000D01*
X13525500Y-11766550D02*
X13525500Y-11855450D01*
X13481050Y-11811000D02*
X13569950Y-11811000D01*
X13525500Y-12147550D02*
X13525500Y-12236450D01*
X13481050Y-12192000D02*
X13569950Y-12192000D01*
X13652500Y-8210550D02*
X13652500Y-8299450D01*
X13608050Y-8255000D02*
X13696950Y-8255000D01*
X13652500Y-9480550D02*
X13652500Y-9569450D01*
X13608050Y-9525000D02*
X13696950Y-9525000D01*
X13906500Y-10242550D02*
X13906500Y-10331450D01*
X13862050Y-10287000D02*
X13950950Y-10287000D01*
X14414500Y-10242550D02*
X14414500Y-10331450D01*
X14370050Y-10287000D02*
X14458950Y-10287000D01*
X14795500Y-7829550D02*
X14795500Y-7918450D01*
X14751050Y-7874000D02*
X14839950Y-7874000D01*
X14795500Y-11004550D02*
X14795500Y-11093450D01*
X14751050Y-11049000D02*
X14839950Y-11049000D01*
X14795500Y-11385550D02*
X14795500Y-11474450D01*
X14751050Y-11430000D02*
X14839950Y-11430000D01*
X14795500Y-11766550D02*
X14795500Y-11855450D01*
X14751050Y-11811000D02*
X14839950Y-11811000D01*
X14795500Y-12147550D02*
X14795500Y-12236450D01*
X14751050Y-12192000D02*
X14839950Y-12192000D01*
X15938500Y-10115550D02*
X15938500Y-10204450D01*
X15894050Y-10160000D02*
X15982950Y-10160000D01*
X15938500Y-10496550D02*
X15938500Y-10585450D01*
X15894050Y-10541000D02*
X15982950Y-10541000D01*
X15938500Y-10877550D02*
X15938500Y-10966450D01*
X15894050Y-10922000D02*
X15982950Y-10922000D01*
X15938500Y-11258550D02*
X15938500Y-11347450D01*
X15894050Y-11303000D02*
X15982950Y-11303000D01*
X15938500Y-11639550D02*
X15938500Y-11728450D01*
X15894050Y-11684000D02*
X15982950Y-11684000D01*
X15938500Y-12020550D02*
X15938500Y-12109450D01*
X15894050Y-12065000D02*
X15982950Y-12065000D01*
X16446500Y-8972550D02*
X16446500Y-9061450D01*
X16402050Y-9017000D02*
X16490950Y-9017000D01*
X16446500Y-9480550D02*
X16446500Y-9569450D01*
X16402050Y-9525000D02*
X16490950Y-9525000D01*
X17208500Y-10115550D02*
X17208500Y-10204450D01*
X17164050Y-10160000D02*
X17252950Y-10160000D01*
X17208500Y-10496550D02*
X17208500Y-10585450D01*
X17164050Y-10541000D02*
X17252950Y-10541000D01*
X17208500Y-10877550D02*
X17208500Y-10966450D01*
X17164050Y-10922000D02*
X17252950Y-10922000D01*
X17208500Y-11258550D02*
X17208500Y-11347450D01*
X17164050Y-11303000D02*
X17252950Y-11303000D01*
X17208500Y-11639550D02*
X17208500Y-11728450D01*
X17164050Y-11684000D02*
X17252950Y-11684000D01*
X17208500Y-12020550D02*
X17208500Y-12109450D01*
X17164050Y-12065000D02*
X17252950Y-12065000D01*
X11782882Y-8290382D02*
X11782882Y-8219617D01*
X11712117Y-8219617D01*
X11712117Y-8290382D01*
X11782882Y-8290382D01*
X11782882Y-8290382D02*
X11782882Y-8219617D01*
X11712117Y-8219617D01*
X11712117Y-8290382D01*
X11782882Y-8290382D01*
X11782882Y-8925383D02*
X11782882Y-8854618D01*
X11712117Y-8854618D01*
X11712117Y-8925383D01*
X11782882Y-8925383D01*
X11782882Y-8925383D02*
X11782882Y-8854618D01*
X11712117Y-8854618D01*
X11712117Y-8925383D01*
X11782882Y-8925383D01*
X11782882Y-9560383D02*
X11782882Y-9489618D01*
X11712117Y-9489618D01*
X11712117Y-9560383D01*
X11782882Y-9560383D01*
X11782882Y-9560383D02*
X11782882Y-9489618D01*
X11712117Y-9489618D01*
X11712117Y-9560383D01*
X11782882Y-9560383D01*
X11909882Y-12862382D02*
X11909882Y-12791617D01*
X11839117Y-12791617D01*
X11839117Y-12862382D01*
X11909882Y-12862382D01*
X12544882Y-12862382D02*
X12544882Y-12791617D01*
X12474117Y-12791617D01*
X12474117Y-12862382D01*
X12544882Y-12862382D01*
X12671882Y-7401382D02*
X12671882Y-7330617D01*
X12601117Y-7330617D01*
X12601117Y-7401382D01*
X12671882Y-7401382D01*
X13306882Y-7401382D02*
X13306882Y-7330617D01*
X13236117Y-7330617D01*
X13236117Y-7401382D01*
X13306882Y-7401382D01*
X13941882Y-7401382D02*
X13941882Y-7330617D01*
X13871117Y-7330617D01*
X13871117Y-7401382D01*
X13941882Y-7401382D01*
X14068882Y-12862382D02*
X14068882Y-12791617D01*
X13998117Y-12791617D01*
X13998117Y-12862382D01*
X14068882Y-12862382D01*
X14703882Y-12862382D02*
X14703882Y-12791617D01*
X14633117Y-12791617D01*
X14633117Y-12862382D01*
X14703882Y-12862382D01*
X14830882Y-8290382D02*
X14830882Y-8219617D01*
X14760117Y-8219617D01*
X14760117Y-8290382D01*
X14830882Y-8290382D01*
X14830882Y-8290382D02*
X14830882Y-8219617D01*
X14760117Y-8219617D01*
X14760117Y-8290382D01*
X14830882Y-8290382D01*
X14830882Y-8925383D02*
X14830882Y-8854618D01*
X14760117Y-8854618D01*
X14760117Y-8925383D01*
X14830882Y-8925383D01*
X14830882Y-8925383D02*
X14830882Y-8854618D01*
X14760117Y-8854618D01*
X14760117Y-8925383D01*
X14830882Y-8925383D01*
X14830882Y-9560383D02*
X14830882Y-9489618D01*
X14760117Y-9489618D01*
X14760117Y-9560383D01*
X14830882Y-9560383D01*
X14830882Y-9560383D02*
X14830882Y-9489618D01*
X14760117Y-9489618D01*
X14760117Y-9560383D01*
X14830882Y-9560383D01*
X16227882Y-12862382D02*
X16227882Y-12791617D01*
X16157117Y-12791617D01*
X16157117Y-12862382D01*
X16227882Y-12862382D01*
X16862883Y-12862382D02*
X16862883Y-12791617D01*
X16792118Y-12791617D01*
X16792118Y-12862382D01*
X16862883Y-12862382D01*
X17751883Y-8925383D02*
X17751883Y-8854618D01*
X17681118Y-8854618D01*
X17681118Y-8925383D01*
X17751883Y-8925383D01*
X17751883Y-9560383D02*
X17751883Y-9489618D01*
X17681118Y-9489618D01*
X17681118Y-9560383D01*
X17751883Y-9560383D01*
D13*
X11491878Y-13819764D02*
X11491878Y-13519764D01*
X11563307Y-13519764D01*
X11606164Y-13534050D01*
X11634736Y-13562621D01*
X11649021Y-13591193D01*
X11663307Y-13648336D01*
X11663307Y-13691193D01*
X11649021Y-13748336D01*
X11634736Y-13776907D01*
X11606164Y-13805479D01*
X11563307Y-13819764D01*
X11491878Y-13819764D01*
X11791878Y-13819764D02*
X11791878Y-13619764D01*
X11791878Y-13676907D02*
X11806164Y-13648336D01*
X11820450Y-13634050D01*
X11849021Y-13619764D01*
X11877593Y-13619764D01*
X11977593Y-13819764D02*
X11977593Y-13619764D01*
X11977593Y-13519764D02*
X11963307Y-13534050D01*
X11977593Y-13548336D01*
X11991878Y-13534050D01*
X11977593Y-13519764D01*
X11977593Y-13548336D01*
X12163307Y-13819764D02*
X12134736Y-13805479D01*
X12120450Y-13776907D01*
X12120450Y-13519764D01*
X12320450Y-13819764D02*
X12291878Y-13805479D01*
X12277593Y-13776907D01*
X12277593Y-13519764D01*
X12663307Y-13819764D02*
X12663307Y-13519764D01*
X12763307Y-13734050D01*
X12863307Y-13519764D01*
X12863307Y-13819764D01*
X13134736Y-13819764D02*
X13134736Y-13662621D01*
X13120450Y-13634050D01*
X13091878Y-13619764D01*
X13034736Y-13619764D01*
X13006164Y-13634050D01*
X13134736Y-13805479D02*
X13106164Y-13819764D01*
X13034736Y-13819764D01*
X13006164Y-13805479D01*
X12991878Y-13776907D01*
X12991878Y-13748336D01*
X13006164Y-13719764D01*
X13034736Y-13705479D01*
X13106164Y-13705479D01*
X13134736Y-13691193D01*
X13277593Y-13619764D02*
X13277593Y-13919764D01*
X13277593Y-13634050D02*
X13306164Y-13619764D01*
X13363307Y-13619764D01*
X13391878Y-13634050D01*
X13406164Y-13648336D01*
X13420450Y-13676907D01*
X13420450Y-13762621D01*
X13406164Y-13791193D01*
X13391878Y-13805479D01*
X13363307Y-13819764D01*
X13306164Y-13819764D01*
X13277593Y-13805479D01*
X13549021Y-13791193D02*
X13563307Y-13805479D01*
X13549021Y-13819764D01*
X13534736Y-13805479D01*
X13549021Y-13791193D01*
X13549021Y-13819764D01*
X13549021Y-13634050D02*
X13563307Y-13648336D01*
X13549021Y-13662621D01*
X13534736Y-13648336D01*
X13549021Y-13634050D01*
X13549021Y-13662621D01*
X11141710Y-14274680D02*
X11220450Y-14353420D01*
X11220450Y-14274680D02*
X11141710Y-14353420D01*
X11549021Y-14149764D02*
X11577593Y-14149764D01*
X11606164Y-14164050D01*
X11620450Y-14178336D01*
X11634736Y-14206907D01*
X11649021Y-14264050D01*
X11649021Y-14335479D01*
X11634736Y-14392621D01*
X11620450Y-14421193D01*
X11606164Y-14435479D01*
X11577593Y-14449764D01*
X11549021Y-14449764D01*
X11520450Y-14435479D01*
X11506164Y-14421193D01*
X11491878Y-14392621D01*
X11477593Y-14335479D01*
X11477593Y-14264050D01*
X11491878Y-14206907D01*
X11506164Y-14178336D01*
X11520450Y-14164050D01*
X11549021Y-14149764D01*
X11777593Y-14421193D02*
X11791878Y-14435479D01*
X11777593Y-14449764D01*
X11763307Y-14435479D01*
X11777593Y-14421193D01*
X11777593Y-14449764D01*
X11891878Y-14149764D02*
X12091878Y-14149764D01*
X11963307Y-14449764D01*
X12220450Y-14449764D02*
X12277593Y-14449764D01*
X12306164Y-14435479D01*
X12320450Y-14421193D01*
X12349021Y-14378336D01*
X12363307Y-14321193D01*
X12363307Y-14206907D01*
X12349021Y-14178336D01*
X12334736Y-14164050D01*
X12306164Y-14149764D01*
X12249021Y-14149764D01*
X12220450Y-14164050D01*
X12206164Y-14178336D01*
X12191878Y-14206907D01*
X12191878Y-14278336D01*
X12206164Y-14306907D01*
X12220450Y-14321193D01*
X12249021Y-14335479D01*
X12306164Y-14335479D01*
X12334736Y-14321193D01*
X12349021Y-14306907D01*
X12363307Y-14278336D01*
X12491878Y-14449764D02*
X12491878Y-14249764D01*
X12491878Y-14278336D02*
X12506164Y-14264050D01*
X12534736Y-14249764D01*
X12577593Y-14249764D01*
X12606164Y-14264050D01*
X12620450Y-14292621D01*
X12620450Y-14449764D01*
X12620450Y-14292621D02*
X12634736Y-14264050D01*
X12663307Y-14249764D01*
X12706164Y-14249764D01*
X12734736Y-14264050D01*
X12749021Y-14292621D01*
X12749021Y-14449764D01*
X12891878Y-14449764D02*
X12891878Y-14249764D01*
X12891878Y-14278336D02*
X12906164Y-14264050D01*
X12934736Y-14249764D01*
X12977593Y-14249764D01*
X13006164Y-14264050D01*
X13020450Y-14292621D01*
X13020450Y-14449764D01*
X13020450Y-14292621D02*
X13034736Y-14264050D01*
X13063307Y-14249764D01*
X13106164Y-14249764D01*
X13134736Y-14264050D01*
X13149021Y-14292621D01*
X13149021Y-14449764D01*
X13734736Y-14135479D02*
X13477593Y-14521193D01*
X14120450Y-14149764D02*
X14149021Y-14149764D01*
X14177593Y-14164050D01*
X14191878Y-14178336D01*
X14206164Y-14206907D01*
X14220450Y-14264050D01*
X14220450Y-14335479D01*
X14206164Y-14392621D01*
X14191878Y-14421193D01*
X14177593Y-14435479D01*
X14149021Y-14449764D01*
X14120450Y-14449764D01*
X14091878Y-14435479D01*
X14077593Y-14421193D01*
X14063307Y-14392621D01*
X14049021Y-14335479D01*
X14049021Y-14264050D01*
X14063307Y-14206907D01*
X14077593Y-14178336D01*
X14091878Y-14164050D01*
X14120450Y-14149764D01*
X14349021Y-14421193D02*
X14363307Y-14435479D01*
X14349021Y-14449764D01*
X14334736Y-14435479D01*
X14349021Y-14421193D01*
X14349021Y-14449764D01*
X14549021Y-14149764D02*
X14577593Y-14149764D01*
X14606164Y-14164050D01*
X14620450Y-14178336D01*
X14634735Y-14206907D01*
X14649021Y-14264050D01*
X14649021Y-14335479D01*
X14634735Y-14392621D01*
X14620450Y-14421193D01*
X14606164Y-14435479D01*
X14577593Y-14449764D01*
X14549021Y-14449764D01*
X14520450Y-14435479D01*
X14506164Y-14421193D01*
X14491878Y-14392621D01*
X14477593Y-14335479D01*
X14477593Y-14264050D01*
X14491878Y-14206907D01*
X14506164Y-14178336D01*
X14520450Y-14164050D01*
X14549021Y-14149764D01*
X14749021Y-14149764D02*
X14934735Y-14149764D01*
X14834735Y-14264050D01*
X14877593Y-14264050D01*
X14906164Y-14278336D01*
X14920450Y-14292621D01*
X14934735Y-14321193D01*
X14934735Y-14392621D01*
X14920450Y-14421193D01*
X14906164Y-14435479D01*
X14877593Y-14449764D01*
X14791878Y-14449764D01*
X14763307Y-14435479D01*
X14749021Y-14421193D01*
X15220450Y-14449764D02*
X15049021Y-14449764D01*
X15134735Y-14449764D02*
X15134735Y-14149764D01*
X15106164Y-14192621D01*
X15077593Y-14221193D01*
X15049021Y-14235479D01*
X15334736Y-14149764D02*
X15334736Y-14206907D01*
X15449021Y-14149764D02*
X15449021Y-14206907D01*
X15891878Y-14564050D02*
X15877593Y-14549764D01*
X15849021Y-14506907D01*
X15834735Y-14478336D01*
X15820450Y-14435479D01*
X15806164Y-14364050D01*
X15806164Y-14306907D01*
X15820450Y-14235479D01*
X15834735Y-14192621D01*
X15849021Y-14164050D01*
X15877593Y-14121193D01*
X15891878Y-14106907D01*
X15977593Y-14149764D02*
X16163307Y-14149764D01*
X16063307Y-14264050D01*
X16106164Y-14264050D01*
X16134735Y-14278336D01*
X16149021Y-14292621D01*
X16163307Y-14321193D01*
X16163307Y-14392621D01*
X16149021Y-14421193D01*
X16134735Y-14435479D01*
X16106164Y-14449764D01*
X16020450Y-14449764D01*
X15991878Y-14435479D01*
X15977593Y-14421193D01*
X16520450Y-14449764D02*
X16520450Y-14149764D01*
X16649021Y-14449764D02*
X16649021Y-14292621D01*
X16634735Y-14264050D01*
X16606164Y-14249764D01*
X16563307Y-14249764D01*
X16534735Y-14264050D01*
X16520450Y-14278336D01*
X16834736Y-14449764D02*
X16806164Y-14435479D01*
X16791878Y-14421193D01*
X16777593Y-14392621D01*
X16777593Y-14306907D01*
X16791878Y-14278336D01*
X16806164Y-14264050D01*
X16834736Y-14249764D01*
X16877593Y-14249764D01*
X16906164Y-14264050D01*
X16920450Y-14278336D01*
X16934736Y-14306907D01*
X16934736Y-14392621D01*
X16920450Y-14421193D01*
X16906164Y-14435479D01*
X16877593Y-14449764D01*
X16834736Y-14449764D01*
X17106164Y-14449764D02*
X17077593Y-14435479D01*
X17063307Y-14406907D01*
X17063307Y-14149764D01*
X17334736Y-14435479D02*
X17306164Y-14449764D01*
X17249021Y-14449764D01*
X17220450Y-14435479D01*
X17206164Y-14406907D01*
X17206164Y-14292621D01*
X17220450Y-14264050D01*
X17249021Y-14249764D01*
X17306164Y-14249764D01*
X17334736Y-14264050D01*
X17349021Y-14292621D01*
X17349021Y-14321193D01*
X17206164Y-14349764D01*
X17463307Y-14435479D02*
X17491879Y-14449764D01*
X17549021Y-14449764D01*
X17577593Y-14435479D01*
X17591879Y-14406907D01*
X17591879Y-14392621D01*
X17577593Y-14364050D01*
X17549021Y-14349764D01*
X17506164Y-14349764D01*
X17477593Y-14335479D01*
X17463307Y-14306907D01*
X17463307Y-14292621D01*
X17477593Y-14264050D01*
X17506164Y-14249764D01*
X17549021Y-14249764D01*
X17577593Y-14264050D01*
X17691878Y-14564050D02*
X17706164Y-14549764D01*
X17734736Y-14506907D01*
X17749021Y-14478336D01*
X17763307Y-14435479D01*
X17777593Y-14364050D01*
X17777593Y-14306907D01*
X17763307Y-14235479D01*
X17749021Y-14192621D01*
X17734736Y-14164050D01*
X17706164Y-14121193D01*
X17691878Y-14106907D01*
X11220450Y-14710050D02*
G75*
G03X11220450Y-14710050I-40640J0D01*
G01*
X11549021Y-14545764D02*
X11577593Y-14545764D01*
X11606164Y-14560050D01*
X11620450Y-14574336D01*
X11634736Y-14602907D01*
X11649021Y-14660050D01*
X11649021Y-14731479D01*
X11634736Y-14788621D01*
X11620450Y-14817193D01*
X11606164Y-14831479D01*
X11577593Y-14845764D01*
X11549021Y-14845764D01*
X11520450Y-14831479D01*
X11506164Y-14817193D01*
X11491878Y-14788621D01*
X11477593Y-14731479D01*
X11477593Y-14660050D01*
X11491878Y-14602907D01*
X11506164Y-14574336D01*
X11520450Y-14560050D01*
X11549021Y-14545764D01*
X11777593Y-14817193D02*
X11791878Y-14831479D01*
X11777593Y-14845764D01*
X11763307Y-14831479D01*
X11777593Y-14817193D01*
X11777593Y-14845764D01*
X11963307Y-14674336D02*
X11934736Y-14660050D01*
X11920450Y-14645764D01*
X11906164Y-14617193D01*
X11906164Y-14602907D01*
X11920450Y-14574336D01*
X11934736Y-14560050D01*
X11963307Y-14545764D01*
X12020450Y-14545764D01*
X12049021Y-14560050D01*
X12063307Y-14574336D01*
X12077593Y-14602907D01*
X12077593Y-14617193D01*
X12063307Y-14645764D01*
X12049021Y-14660050D01*
X12020450Y-14674336D01*
X11963307Y-14674336D01*
X11934736Y-14688621D01*
X11920450Y-14702907D01*
X11906164Y-14731479D01*
X11906164Y-14788621D01*
X11920450Y-14817193D01*
X11934736Y-14831479D01*
X11963307Y-14845764D01*
X12020450Y-14845764D01*
X12049021Y-14831479D01*
X12063307Y-14817193D01*
X12077593Y-14788621D01*
X12077593Y-14731479D01*
X12063307Y-14702907D01*
X12049021Y-14688621D01*
X12020450Y-14674336D01*
X12363307Y-14845764D02*
X12191878Y-14845764D01*
X12277593Y-14845764D02*
X12277593Y-14545764D01*
X12249021Y-14588621D01*
X12220450Y-14617193D01*
X12191878Y-14631479D01*
X12491878Y-14845764D02*
X12491878Y-14645764D01*
X12491878Y-14674336D02*
X12506164Y-14660050D01*
X12534736Y-14645764D01*
X12577593Y-14645764D01*
X12606164Y-14660050D01*
X12620450Y-14688621D01*
X12620450Y-14845764D01*
X12620450Y-14688621D02*
X12634736Y-14660050D01*
X12663307Y-14645764D01*
X12706164Y-14645764D01*
X12734736Y-14660050D01*
X12749021Y-14688621D01*
X12749021Y-14845764D01*
X12891878Y-14845764D02*
X12891878Y-14645764D01*
X12891878Y-14674336D02*
X12906164Y-14660050D01*
X12934736Y-14645764D01*
X12977593Y-14645764D01*
X13006164Y-14660050D01*
X13020450Y-14688621D01*
X13020450Y-14845764D01*
X13020450Y-14688621D02*
X13034736Y-14660050D01*
X13063307Y-14645764D01*
X13106164Y-14645764D01*
X13134736Y-14660050D01*
X13149021Y-14688621D01*
X13149021Y-14845764D01*
X13734736Y-14531479D02*
X13477593Y-14917193D01*
X14120450Y-14545764D02*
X14149021Y-14545764D01*
X14177593Y-14560050D01*
X14191878Y-14574336D01*
X14206164Y-14602907D01*
X14220450Y-14660050D01*
X14220450Y-14731479D01*
X14206164Y-14788621D01*
X14191878Y-14817193D01*
X14177593Y-14831479D01*
X14149021Y-14845764D01*
X14120450Y-14845764D01*
X14091878Y-14831479D01*
X14077593Y-14817193D01*
X14063307Y-14788621D01*
X14049021Y-14731479D01*
X14049021Y-14660050D01*
X14063307Y-14602907D01*
X14077593Y-14574336D01*
X14091878Y-14560050D01*
X14120450Y-14545764D01*
X14349021Y-14817193D02*
X14363307Y-14831479D01*
X14349021Y-14845764D01*
X14334736Y-14831479D01*
X14349021Y-14817193D01*
X14349021Y-14845764D01*
X14549021Y-14545764D02*
X14577593Y-14545764D01*
X14606164Y-14560050D01*
X14620450Y-14574336D01*
X14634735Y-14602907D01*
X14649021Y-14660050D01*
X14649021Y-14731479D01*
X14634735Y-14788621D01*
X14620450Y-14817193D01*
X14606164Y-14831479D01*
X14577593Y-14845764D01*
X14549021Y-14845764D01*
X14520450Y-14831479D01*
X14506164Y-14817193D01*
X14491878Y-14788621D01*
X14477593Y-14731479D01*
X14477593Y-14660050D01*
X14491878Y-14602907D01*
X14506164Y-14574336D01*
X14520450Y-14560050D01*
X14549021Y-14545764D01*
X14749021Y-14545764D02*
X14934735Y-14545764D01*
X14834735Y-14660050D01*
X14877593Y-14660050D01*
X14906164Y-14674336D01*
X14920450Y-14688621D01*
X14934735Y-14717193D01*
X14934735Y-14788621D01*
X14920450Y-14817193D01*
X14906164Y-14831479D01*
X14877593Y-14845764D01*
X14791878Y-14845764D01*
X14763307Y-14831479D01*
X14749021Y-14817193D01*
X15049021Y-14574336D02*
X15063307Y-14560050D01*
X15091878Y-14545764D01*
X15163307Y-14545764D01*
X15191878Y-14560050D01*
X15206164Y-14574336D01*
X15220450Y-14602907D01*
X15220450Y-14631479D01*
X15206164Y-14674336D01*
X15034735Y-14845764D01*
X15220450Y-14845764D01*
X15334736Y-14545764D02*
X15334736Y-14602907D01*
X15449021Y-14545764D02*
X15449021Y-14602907D01*
X15891878Y-14960050D02*
X15877593Y-14945764D01*
X15849021Y-14902907D01*
X15834735Y-14874336D01*
X15820450Y-14831479D01*
X15806164Y-14760050D01*
X15806164Y-14702907D01*
X15820450Y-14631479D01*
X15834735Y-14588621D01*
X15849021Y-14560050D01*
X15877593Y-14517193D01*
X15891878Y-14502907D01*
X15977593Y-14545764D02*
X16163307Y-14545764D01*
X16063307Y-14660050D01*
X16106164Y-14660050D01*
X16134735Y-14674336D01*
X16149021Y-14688621D01*
X16163307Y-14717193D01*
X16163307Y-14788621D01*
X16149021Y-14817193D01*
X16134735Y-14831479D01*
X16106164Y-14845764D01*
X16020450Y-14845764D01*
X15991878Y-14831479D01*
X15977593Y-14817193D01*
X16449021Y-14845764D02*
X16277593Y-14845764D01*
X16363307Y-14845764D02*
X16363307Y-14545764D01*
X16334735Y-14588621D01*
X16306164Y-14617193D01*
X16277593Y-14631479D01*
X16806164Y-14845764D02*
X16806164Y-14545764D01*
X16934736Y-14845764D02*
X16934736Y-14688621D01*
X16920450Y-14660050D01*
X16891878Y-14645764D01*
X16849021Y-14645764D01*
X16820450Y-14660050D01*
X16806164Y-14674336D01*
X17120450Y-14845764D02*
X17091878Y-14831479D01*
X17077593Y-14817193D01*
X17063307Y-14788621D01*
X17063307Y-14702907D01*
X17077593Y-14674336D01*
X17091878Y-14660050D01*
X17120450Y-14645764D01*
X17163307Y-14645764D01*
X17191878Y-14660050D01*
X17206164Y-14674336D01*
X17220450Y-14702907D01*
X17220450Y-14788621D01*
X17206164Y-14817193D01*
X17191878Y-14831479D01*
X17163307Y-14845764D01*
X17120450Y-14845764D01*
X17391878Y-14845764D02*
X17363307Y-14831479D01*
X17349021Y-14802907D01*
X17349021Y-14545764D01*
X17620450Y-14831479D02*
X17591879Y-14845764D01*
X17534736Y-14845764D01*
X17506164Y-14831479D01*
X17491879Y-14802907D01*
X17491879Y-14688621D01*
X17506164Y-14660050D01*
X17534736Y-14645764D01*
X17591879Y-14645764D01*
X17620450Y-14660050D01*
X17634736Y-14688621D01*
X17634736Y-14717193D01*
X17491879Y-14745764D01*
X17749021Y-14831479D02*
X17777593Y-14845764D01*
X17834736Y-14845764D01*
X17863307Y-14831479D01*
X17877593Y-14802907D01*
X17877593Y-14788621D01*
X17863307Y-14760050D01*
X17834736Y-14745764D01*
X17791879Y-14745764D01*
X17763307Y-14731479D01*
X17749021Y-14702907D01*
X17749021Y-14688621D01*
X17763307Y-14660050D01*
X17791879Y-14645764D01*
X17834736Y-14645764D01*
X17863307Y-14660050D01*
X17977593Y-14960050D02*
X17991879Y-14945764D01*
X18020450Y-14902907D01*
X18034736Y-14874336D01*
X18049021Y-14831479D01*
X18063307Y-14760050D01*
X18063307Y-14702907D01*
X18049021Y-14631479D01*
X18034736Y-14588621D01*
X18020450Y-14560050D01*
X17991879Y-14517193D01*
X17977593Y-14502907D01*
X11176000Y-15061600D02*
X11176000Y-15150500D01*
X11131550Y-15106050D02*
X11220450Y-15106050D01*
X11549021Y-14941764D02*
X11577593Y-14941764D01*
X11606164Y-14956050D01*
X11620450Y-14970336D01*
X11634736Y-14998907D01*
X11649021Y-15056050D01*
X11649021Y-15127479D01*
X11634736Y-15184621D01*
X11620450Y-15213193D01*
X11606164Y-15227479D01*
X11577593Y-15241764D01*
X11549021Y-15241764D01*
X11520450Y-15227479D01*
X11506164Y-15213193D01*
X11491878Y-15184621D01*
X11477593Y-15127479D01*
X11477593Y-15056050D01*
X11491878Y-14998907D01*
X11506164Y-14970336D01*
X11520450Y-14956050D01*
X11549021Y-14941764D01*
X11777593Y-15213193D02*
X11791878Y-15227479D01*
X11777593Y-15241764D01*
X11763307Y-15227479D01*
X11777593Y-15213193D01*
X11777593Y-15241764D01*
X11963307Y-15070336D02*
X11934736Y-15056050D01*
X11920450Y-15041764D01*
X11906164Y-15013193D01*
X11906164Y-14998907D01*
X11920450Y-14970336D01*
X11934736Y-14956050D01*
X11963307Y-14941764D01*
X12020450Y-14941764D01*
X12049021Y-14956050D01*
X12063307Y-14970336D01*
X12077593Y-14998907D01*
X12077593Y-15013193D01*
X12063307Y-15041764D01*
X12049021Y-15056050D01*
X12020450Y-15070336D01*
X11963307Y-15070336D01*
X11934736Y-15084621D01*
X11920450Y-15098907D01*
X11906164Y-15127479D01*
X11906164Y-15184621D01*
X11920450Y-15213193D01*
X11934736Y-15227479D01*
X11963307Y-15241764D01*
X12020450Y-15241764D01*
X12049021Y-15227479D01*
X12063307Y-15213193D01*
X12077593Y-15184621D01*
X12077593Y-15127479D01*
X12063307Y-15098907D01*
X12049021Y-15084621D01*
X12020450Y-15070336D01*
X12220450Y-15241764D02*
X12277593Y-15241764D01*
X12306164Y-15227479D01*
X12320450Y-15213193D01*
X12349021Y-15170336D01*
X12363307Y-15113193D01*
X12363307Y-14998907D01*
X12349021Y-14970336D01*
X12334736Y-14956050D01*
X12306164Y-14941764D01*
X12249021Y-14941764D01*
X12220450Y-14956050D01*
X12206164Y-14970336D01*
X12191878Y-14998907D01*
X12191878Y-15070336D01*
X12206164Y-15098907D01*
X12220450Y-15113193D01*
X12249021Y-15127479D01*
X12306164Y-15127479D01*
X12334736Y-15113193D01*
X12349021Y-15098907D01*
X12363307Y-15070336D01*
X12491878Y-15241764D02*
X12491878Y-15041764D01*
X12491878Y-15070336D02*
X12506164Y-15056050D01*
X12534736Y-15041764D01*
X12577593Y-15041764D01*
X12606164Y-15056050D01*
X12620450Y-15084621D01*
X12620450Y-15241764D01*
X12620450Y-15084621D02*
X12634736Y-15056050D01*
X12663307Y-15041764D01*
X12706164Y-15041764D01*
X12734736Y-15056050D01*
X12749021Y-15084621D01*
X12749021Y-15241764D01*
X12891878Y-15241764D02*
X12891878Y-15041764D01*
X12891878Y-15070336D02*
X12906164Y-15056050D01*
X12934736Y-15041764D01*
X12977593Y-15041764D01*
X13006164Y-15056050D01*
X13020450Y-15084621D01*
X13020450Y-15241764D01*
X13020450Y-15084621D02*
X13034736Y-15056050D01*
X13063307Y-15041764D01*
X13106164Y-15041764D01*
X13134736Y-15056050D01*
X13149021Y-15084621D01*
X13149021Y-15241764D01*
X13734736Y-14927479D02*
X13477593Y-15313193D01*
X14120450Y-14941764D02*
X14149021Y-14941764D01*
X14177593Y-14956050D01*
X14191878Y-14970336D01*
X14206164Y-14998907D01*
X14220450Y-15056050D01*
X14220450Y-15127479D01*
X14206164Y-15184621D01*
X14191878Y-15213193D01*
X14177593Y-15227479D01*
X14149021Y-15241764D01*
X14120450Y-15241764D01*
X14091878Y-15227479D01*
X14077593Y-15213193D01*
X14063307Y-15184621D01*
X14049021Y-15127479D01*
X14049021Y-15056050D01*
X14063307Y-14998907D01*
X14077593Y-14970336D01*
X14091878Y-14956050D01*
X14120450Y-14941764D01*
X14349021Y-15213193D02*
X14363307Y-15227479D01*
X14349021Y-15241764D01*
X14334736Y-15227479D01*
X14349021Y-15213193D01*
X14349021Y-15241764D01*
X14549021Y-14941764D02*
X14577593Y-14941764D01*
X14606164Y-14956050D01*
X14620450Y-14970336D01*
X14634735Y-14998907D01*
X14649021Y-15056050D01*
X14649021Y-15127479D01*
X14634735Y-15184621D01*
X14620450Y-15213193D01*
X14606164Y-15227479D01*
X14577593Y-15241764D01*
X14549021Y-15241764D01*
X14520450Y-15227479D01*
X14506164Y-15213193D01*
X14491878Y-15184621D01*
X14477593Y-15127479D01*
X14477593Y-15056050D01*
X14491878Y-14998907D01*
X14506164Y-14970336D01*
X14520450Y-14956050D01*
X14549021Y-14941764D01*
X14749021Y-14941764D02*
X14934735Y-14941764D01*
X14834735Y-15056050D01*
X14877593Y-15056050D01*
X14906164Y-15070336D01*
X14920450Y-15084621D01*
X14934735Y-15113193D01*
X14934735Y-15184621D01*
X14920450Y-15213193D01*
X14906164Y-15227479D01*
X14877593Y-15241764D01*
X14791878Y-15241764D01*
X14763307Y-15227479D01*
X14749021Y-15213193D01*
X15206164Y-14941764D02*
X15063307Y-14941764D01*
X15049021Y-15084621D01*
X15063307Y-15070336D01*
X15091878Y-15056050D01*
X15163307Y-15056050D01*
X15191878Y-15070336D01*
X15206164Y-15084621D01*
X15220450Y-15113193D01*
X15220450Y-15184621D01*
X15206164Y-15213193D01*
X15191878Y-15227479D01*
X15163307Y-15241764D01*
X15091878Y-15241764D01*
X15063307Y-15227479D01*
X15049021Y-15213193D01*
X15334736Y-14941764D02*
X15334736Y-14998907D01*
X15449021Y-14941764D02*
X15449021Y-14998907D01*
X15891878Y-15356050D02*
X15877593Y-15341764D01*
X15849021Y-15298907D01*
X15834735Y-15270336D01*
X15820450Y-15227479D01*
X15806164Y-15156050D01*
X15806164Y-15098907D01*
X15820450Y-15027479D01*
X15834735Y-14984621D01*
X15849021Y-14956050D01*
X15877593Y-14913193D01*
X15891878Y-14898907D01*
X16134735Y-15041764D02*
X16134735Y-15241764D01*
X16063307Y-14927479D02*
X15991878Y-15141764D01*
X16177593Y-15141764D01*
X16277593Y-14970336D02*
X16291878Y-14956050D01*
X16320450Y-14941764D01*
X16391878Y-14941764D01*
X16420450Y-14956050D01*
X16434735Y-14970336D01*
X16449021Y-14998907D01*
X16449021Y-15027479D01*
X16434735Y-15070336D01*
X16263307Y-15241764D01*
X16449021Y-15241764D01*
X16806164Y-15241764D02*
X16806164Y-14941764D01*
X16934736Y-15241764D02*
X16934736Y-15084621D01*
X16920450Y-15056050D01*
X16891878Y-15041764D01*
X16849021Y-15041764D01*
X16820450Y-15056050D01*
X16806164Y-15070336D01*
X17120450Y-15241764D02*
X17091878Y-15227479D01*
X17077593Y-15213193D01*
X17063307Y-15184621D01*
X17063307Y-15098907D01*
X17077593Y-15070336D01*
X17091878Y-15056050D01*
X17120450Y-15041764D01*
X17163307Y-15041764D01*
X17191878Y-15056050D01*
X17206164Y-15070336D01*
X17220450Y-15098907D01*
X17220450Y-15184621D01*
X17206164Y-15213193D01*
X17191878Y-15227479D01*
X17163307Y-15241764D01*
X17120450Y-15241764D01*
X17391878Y-15241764D02*
X17363307Y-15227479D01*
X17349021Y-15198907D01*
X17349021Y-14941764D01*
X17620450Y-15227479D02*
X17591879Y-15241764D01*
X17534736Y-15241764D01*
X17506164Y-15227479D01*
X17491879Y-15198907D01*
X17491879Y-15084621D01*
X17506164Y-15056050D01*
X17534736Y-15041764D01*
X17591879Y-15041764D01*
X17620450Y-15056050D01*
X17634736Y-15084621D01*
X17634736Y-15113193D01*
X17491879Y-15141764D01*
X17749021Y-15227479D02*
X17777593Y-15241764D01*
X17834736Y-15241764D01*
X17863307Y-15227479D01*
X17877593Y-15198907D01*
X17877593Y-15184621D01*
X17863307Y-15156050D01*
X17834736Y-15141764D01*
X17791879Y-15141764D01*
X17763307Y-15127479D01*
X17749021Y-15098907D01*
X17749021Y-15084621D01*
X17763307Y-15056050D01*
X17791879Y-15041764D01*
X17834736Y-15041764D01*
X17863307Y-15056050D01*
X17977593Y-15356050D02*
X17991879Y-15341764D01*
X18020450Y-15298907D01*
X18034736Y-15270336D01*
X18049021Y-15227479D01*
X18063307Y-15156050D01*
X18063307Y-15098907D01*
X18049021Y-15027479D01*
X18034736Y-14984621D01*
X18020450Y-14956050D01*
X17991879Y-14913193D01*
X17977593Y-14898907D01*
X11205794Y-15537433D02*
X11205794Y-15466668D01*
X11135029Y-15466668D01*
X11135029Y-15537433D01*
X11205794Y-15537433D01*
X11649021Y-15637764D02*
X11477593Y-15637764D01*
X11563307Y-15637764D02*
X11563307Y-15337764D01*
X11534736Y-15380621D01*
X11506164Y-15409193D01*
X11477593Y-15423479D01*
X11777593Y-15609193D02*
X11791878Y-15623479D01*
X11777593Y-15637764D01*
X11763307Y-15623479D01*
X11777593Y-15609193D01*
X11777593Y-15637764D01*
X11977593Y-15337764D02*
X12006164Y-15337764D01*
X12034736Y-15352050D01*
X12049021Y-15366336D01*
X12063307Y-15394907D01*
X12077593Y-15452050D01*
X12077593Y-15523479D01*
X12063307Y-15580621D01*
X12049021Y-15609193D01*
X12034736Y-15623479D01*
X12006164Y-15637764D01*
X11977593Y-15637764D01*
X11949021Y-15623479D01*
X11934736Y-15609193D01*
X11920450Y-15580621D01*
X11906164Y-15523479D01*
X11906164Y-15452050D01*
X11920450Y-15394907D01*
X11934736Y-15366336D01*
X11949021Y-15352050D01*
X11977593Y-15337764D01*
X12263307Y-15337764D02*
X12291878Y-15337764D01*
X12320450Y-15352050D01*
X12334736Y-15366336D01*
X12349021Y-15394907D01*
X12363307Y-15452050D01*
X12363307Y-15523479D01*
X12349021Y-15580621D01*
X12334736Y-15609193D01*
X12320450Y-15623479D01*
X12291878Y-15637764D01*
X12263307Y-15637764D01*
X12234736Y-15623479D01*
X12220450Y-15609193D01*
X12206164Y-15580621D01*
X12191878Y-15523479D01*
X12191878Y-15452050D01*
X12206164Y-15394907D01*
X12220450Y-15366336D01*
X12234736Y-15352050D01*
X12263307Y-15337764D01*
X12491878Y-15637764D02*
X12491878Y-15437764D01*
X12491878Y-15466336D02*
X12506164Y-15452050D01*
X12534736Y-15437764D01*
X12577593Y-15437764D01*
X12606164Y-15452050D01*
X12620450Y-15480621D01*
X12620450Y-15637764D01*
X12620450Y-15480621D02*
X12634736Y-15452050D01*
X12663307Y-15437764D01*
X12706164Y-15437764D01*
X12734736Y-15452050D01*
X12749021Y-15480621D01*
X12749021Y-15637764D01*
X12891878Y-15637764D02*
X12891878Y-15437764D01*
X12891878Y-15466336D02*
X12906164Y-15452050D01*
X12934736Y-15437764D01*
X12977593Y-15437764D01*
X13006164Y-15452050D01*
X13020450Y-15480621D01*
X13020450Y-15637764D01*
X13020450Y-15480621D02*
X13034736Y-15452050D01*
X13063307Y-15437764D01*
X13106164Y-15437764D01*
X13134736Y-15452050D01*
X13149021Y-15480621D01*
X13149021Y-15637764D01*
X13734736Y-15323479D02*
X13477593Y-15709193D01*
X14120450Y-15337764D02*
X14149021Y-15337764D01*
X14177593Y-15352050D01*
X14191878Y-15366336D01*
X14206164Y-15394907D01*
X14220450Y-15452050D01*
X14220450Y-15523479D01*
X14206164Y-15580621D01*
X14191878Y-15609193D01*
X14177593Y-15623479D01*
X14149021Y-15637764D01*
X14120450Y-15637764D01*
X14091878Y-15623479D01*
X14077593Y-15609193D01*
X14063307Y-15580621D01*
X14049021Y-15523479D01*
X14049021Y-15452050D01*
X14063307Y-15394907D01*
X14077593Y-15366336D01*
X14091878Y-15352050D01*
X14120450Y-15337764D01*
X14349021Y-15609193D02*
X14363307Y-15623479D01*
X14349021Y-15637764D01*
X14334736Y-15623479D01*
X14349021Y-15609193D01*
X14349021Y-15637764D01*
X14549021Y-15337764D02*
X14577593Y-15337764D01*
X14606164Y-15352050D01*
X14620450Y-15366336D01*
X14634735Y-15394907D01*
X14649021Y-15452050D01*
X14649021Y-15523479D01*
X14634735Y-15580621D01*
X14620450Y-15609193D01*
X14606164Y-15623479D01*
X14577593Y-15637764D01*
X14549021Y-15637764D01*
X14520450Y-15623479D01*
X14506164Y-15609193D01*
X14491878Y-15580621D01*
X14477593Y-15523479D01*
X14477593Y-15452050D01*
X14491878Y-15394907D01*
X14506164Y-15366336D01*
X14520450Y-15352050D01*
X14549021Y-15337764D01*
X14749021Y-15337764D02*
X14934735Y-15337764D01*
X14834735Y-15452050D01*
X14877593Y-15452050D01*
X14906164Y-15466336D01*
X14920450Y-15480621D01*
X14934735Y-15509193D01*
X14934735Y-15580621D01*
X14920450Y-15609193D01*
X14906164Y-15623479D01*
X14877593Y-15637764D01*
X14791878Y-15637764D01*
X14763307Y-15623479D01*
X14749021Y-15609193D01*
X15077593Y-15637764D02*
X15134735Y-15637764D01*
X15163307Y-15623479D01*
X15177593Y-15609193D01*
X15206164Y-15566336D01*
X15220450Y-15509193D01*
X15220450Y-15394907D01*
X15206164Y-15366336D01*
X15191878Y-15352050D01*
X15163307Y-15337764D01*
X15106164Y-15337764D01*
X15077593Y-15352050D01*
X15063307Y-15366336D01*
X15049021Y-15394907D01*
X15049021Y-15466336D01*
X15063307Y-15494907D01*
X15077593Y-15509193D01*
X15106164Y-15523479D01*
X15163307Y-15523479D01*
X15191878Y-15509193D01*
X15206164Y-15494907D01*
X15220450Y-15466336D01*
X15334736Y-15337764D02*
X15334736Y-15394907D01*
X15449021Y-15337764D02*
X15449021Y-15394907D01*
X15891878Y-15752050D02*
X15877593Y-15737764D01*
X15849021Y-15694907D01*
X15834735Y-15666336D01*
X15820450Y-15623479D01*
X15806164Y-15552050D01*
X15806164Y-15494907D01*
X15820450Y-15423479D01*
X15834735Y-15380621D01*
X15849021Y-15352050D01*
X15877593Y-15309193D01*
X15891878Y-15294907D01*
X15991878Y-15366336D02*
X16006164Y-15352050D01*
X16034735Y-15337764D01*
X16106164Y-15337764D01*
X16134735Y-15352050D01*
X16149021Y-15366336D01*
X16163307Y-15394907D01*
X16163307Y-15423479D01*
X16149021Y-15466336D01*
X15977593Y-15637764D01*
X16163307Y-15637764D01*
X16263307Y-15337764D02*
X16449021Y-15337764D01*
X16349021Y-15452050D01*
X16391878Y-15452050D01*
X16420450Y-15466336D01*
X16434735Y-15480621D01*
X16449021Y-15509193D01*
X16449021Y-15580621D01*
X16434735Y-15609193D01*
X16420450Y-15623479D01*
X16391878Y-15637764D01*
X16306164Y-15637764D01*
X16277593Y-15623479D01*
X16263307Y-15609193D01*
X16806164Y-15637764D02*
X16806164Y-15337764D01*
X16934736Y-15637764D02*
X16934736Y-15480621D01*
X16920450Y-15452050D01*
X16891878Y-15437764D01*
X16849021Y-15437764D01*
X16820450Y-15452050D01*
X16806164Y-15466336D01*
X17120450Y-15637764D02*
X17091878Y-15623479D01*
X17077593Y-15609193D01*
X17063307Y-15580621D01*
X17063307Y-15494907D01*
X17077593Y-15466336D01*
X17091878Y-15452050D01*
X17120450Y-15437764D01*
X17163307Y-15437764D01*
X17191878Y-15452050D01*
X17206164Y-15466336D01*
X17220450Y-15494907D01*
X17220450Y-15580621D01*
X17206164Y-15609193D01*
X17191878Y-15623479D01*
X17163307Y-15637764D01*
X17120450Y-15637764D01*
X17391878Y-15637764D02*
X17363307Y-15623479D01*
X17349021Y-15594907D01*
X17349021Y-15337764D01*
X17620450Y-15623479D02*
X17591879Y-15637764D01*
X17534736Y-15637764D01*
X17506164Y-15623479D01*
X17491879Y-15594907D01*
X17491879Y-15480621D01*
X17506164Y-15452050D01*
X17534736Y-15437764D01*
X17591879Y-15437764D01*
X17620450Y-15452050D01*
X17634736Y-15480621D01*
X17634736Y-15509193D01*
X17491879Y-15537764D01*
X17749021Y-15623479D02*
X17777593Y-15637764D01*
X17834736Y-15637764D01*
X17863307Y-15623479D01*
X17877593Y-15594907D01*
X17877593Y-15580621D01*
X17863307Y-15552050D01*
X17834736Y-15537764D01*
X17791879Y-15537764D01*
X17763307Y-15523479D01*
X17749021Y-15494907D01*
X17749021Y-15480621D01*
X17763307Y-15452050D01*
X17791879Y-15437764D01*
X17834736Y-15437764D01*
X17863307Y-15452050D01*
X17977593Y-15752050D02*
X17991879Y-15737764D01*
X18020450Y-15694907D01*
X18034736Y-15666336D01*
X18049021Y-15623479D01*
X18063307Y-15552050D01*
X18063307Y-15494907D01*
X18049021Y-15423479D01*
X18034736Y-15380621D01*
X18020450Y-15352050D01*
X17991879Y-15309193D01*
X17977593Y-15294907D01*
M02*
