M48
;DRILL file {KiCad 4.0.5+dfsg1-4+deb9u1} date Sun Sep  4 20:06:38 2022
;FORMAT={-:-/ absolute / metric / decimal}
FMAT,2
METRIC,TZ
T1C0.787
T2C0.813
T3C0.889
T4C1.001
%
G90
G05
M71
T1
X164.465Y-80.01
X167.005Y-82.55
X169.545Y-80.01
T2
X117.475Y-73.66
X120.015Y-73.66
X123.825Y-82.55
X123.825Y-85.09
X123.825Y-92.71
X123.825Y-95.25
X141.605Y-82.55
X141.605Y-85.09
X141.605Y-92.71
X141.605Y-95.25
X145.415Y-73.66
X147.955Y-73.66
X154.305Y-80.01
X154.305Y-85.09
X154.305Y-97.79
X154.305Y-102.235
X154.305Y-104.775
X154.305Y-109.855
X154.305Y-112.395
X154.305Y-117.475
X154.305Y-120.015
X156.845Y-80.01
X156.845Y-82.55
X177.165Y-80.01
X177.165Y-82.55
X177.165Y-102.235
X177.165Y-104.775
X177.165Y-109.855
X177.165Y-112.395
X177.165Y-117.475
X177.165Y-120.015
T3
X117.475Y-78.74
X117.475Y-110.49
X117.475Y-114.3
X117.475Y-118.11
X117.475Y-121.92
X121.285Y-102.87
X126.365Y-102.87
X128.905Y-82.55
X128.905Y-95.25
X130.175Y-78.74
X130.175Y-110.49
X130.175Y-114.3
X130.175Y-118.11
X130.175Y-121.92
X135.255Y-78.74
X135.255Y-110.49
X135.255Y-114.3
X135.255Y-118.11
X135.255Y-121.92
X136.525Y-82.55
X136.525Y-95.25
X139.065Y-102.87
X144.145Y-102.87
X147.955Y-78.74
X147.955Y-110.49
X147.955Y-114.3
X147.955Y-118.11
X147.955Y-121.92
X159.385Y-101.6
X159.385Y-105.41
X159.385Y-109.22
X159.385Y-113.03
X159.385Y-116.84
X159.385Y-120.65
X164.465Y-90.17
X164.465Y-95.25
X172.085Y-101.6
X172.085Y-105.41
X172.085Y-109.22
X172.085Y-113.03
X172.085Y-116.84
X172.085Y-120.65
T4
X117.475Y-82.55
X117.475Y-82.55
X117.475Y-88.9
X117.475Y-88.9
X117.475Y-95.25
X117.475Y-95.25
X118.745Y-128.27
X125.095Y-128.27
X126.365Y-73.66
X132.715Y-73.66
X139.065Y-73.66
X140.335Y-128.27
X146.685Y-128.27
X147.955Y-82.55
X147.955Y-82.55
X147.955Y-88.9
X147.955Y-88.9
X147.955Y-95.25
X147.955Y-95.25
X161.925Y-128.27
X168.275Y-128.27
X177.165Y-88.9
X177.165Y-95.25
T0
M30
